<svg viewBox="0 0 400 400" xmlns="http://www.w3.org/2000/svg"><path d="m301.44 291.17-6.25 27.24 37.06 18.3-33.94 28.13-46.88-1.78-39.29-55.82-12.06 11.61-.45 41.08s2.68 6.25-5.35 8.93-62.07 12.95-62.07 12.95-2.68-1.79-.89-8l1.78-6.25-11.61 3.13s-.44-7.59 7.15-8.49 45.1-2.68 45.1-2.68l11.16-17-1.34-27.69s-5.36 8.93-11.61 12.51a61.43 61.43 0 0 1 -12.95 5.35v22.31s2.23 1.79-1.34 2.68-74.12-.89-74.12-.89-1.34-3.13 3.13-5.81l4.46-2.68-12.95-.89s2.68-6.25 13.84-7.15 52.69 4.47 52.69 4.47l2.68-19.65s-12.5-8.93-23.22-33.93-13.84-38-13.84-38l-4 2.82-5.82-4.97 10.71-14.29.9-16.07 9.37-5.8-4-17.42 2.23-17.86.46-2.43-4.93-12.3 24.11-96-10.27-15.21 7.14-32.14 18.77 28.13s17.42-24.56 17.86-23.22 4.47 33 4.47 33l-13.86 12.99 8 2.68 4.92 16.52 21.87 26.34-16.52 11.17-17-7.6 6.69 21.88 70.55 84.39 5.81 62.07 20.54 49.56 31.7-1.34-20.03-19.64z" fill="#f2834e"/><path d="m119.71 179.54 7.7 14.51-3.01 17.42 17.75 24.11 15.73-7.7-18.45-57.76-18.72-28.64-5.47 23.33 4.93 12.3z" fill="#e9b63a"/><path d="m171 237.92-28.13 29.81.33 25.45-8-5.36v10.72l-6-12.06-5.36-5.69 3.35-18.09 27.46-32.82-44.21 23.34c.22.87 3.36 15.31 13.39 39.58 9.26 22.44 23.33 39.85 35.27 39.85s15.86-7.35 17.19-8.61z" fill="#e9b63a"/><path d="m114.02 215.15-11.73-8.37-9.04-17.08 15.78 7.99z" fill="#e48856"/><g fill="#8d5395"><path d="m220.61 214.94a43.06 43.06 0 0 0 -6-3.4 1.88 1.88 0 0 0 -.72-.2 35.33 35.33 0 0 0 -15.89-3.18 28.39 28.39 0 0 0 -15.74 5.41 41.27 41.27 0 0 0 -6.09 5.83l-16.17-56.79a1.5 1.5 0 0 0 -2.89.82l16.89 59.38a1.52 1.52 0 0 0 .25.86l1.81 6.37-3.92 4.22a11.71 11.71 0 0 1 .17 3.82 1.54 1.54 0 0 0 .19.17l6.33-6.82a1.5 1.5 0 0 0 .35-1.43l-2-7a35.67 35.67 0 0 1 6.87-7 25.4 25.4 0 0 1 14.09-4.83 32.46 32.46 0 0 1 14.68 3 1.93 1.93 0 0 0 .66.19 37.5 37.5 0 0 1 5.35 3 1.5 1.5 0 0 0 1.76-2.43z"/><path d="m326.6 333a1.52 1.52 0 0 0 -.87-1.21l-35.84-16.41 11.19-34a1.5 1.5 0 0 0 -2.64-1.35l-26.79 37.06a1.49 1.49 0 0 0 .15 1.94l13.51 13.51h-25.76l-19.16-43.54-7.12-65a1.48 1.48 0 0 0 -.34-.8l-66.36-79.2-11.11-30.5 24.48 8.5a1.67 1.67 0 0 0 .49.08 1.56 1.56 0 0 0 .9-.29l10.27-7.59a1.52 1.52 0 0 0 .26-2.17l-19-23-4.38-14.88a1.51 1.51 0 0 0 -.93-1l-7.77-2.83 10.22-11.69a1.5 1.5 0 0 0 .36-1.13l-3.17-33.5a1.5 1.5 0 0 0 -2.67-.79l-18.17 23.26-17.79-27.59a1.5 1.5 0 0 0 -2.75.61l-4.91 37.06a1.5 1.5 0 0 0 .28 1.09l9.82 13.25-16.35 58.2 2.16 3.48c3.74-13.5 17.29-61.57 17.29-61.57a1.47 1.47 0 0 0 -.24-1.3l-9.86-13.36 4.3-32.41 19.31 30-4.75 18.56a1.5 1.5 0 1 0 2.91.75l4.86-19.24a1.55 1.55 0 0 0 -.19-1.19l-2.37-3.67 16.49-21.09 2.71 29.1-11.19 12.91a1.52 1.52 0 0 0 -.32 1.36 1.54 1.54 0 0 0 .94 1l9.11 3.31 4.25 14.46a1.62 1.62 0 0 0 .29.53l18.19 22-8.36 6.17-40.33-14a1.5 1.5 0 0 0 -1 2.83l12.94 4.5 12 33a1.7 1.7 0 0 0 .26.45l66.24 79.13 7.1 64.74a1.36 1.36 0 0 0 .11.44l19.65 44.65a1.5 1.5 0 0 0 1.37.89h30.37a1.49 1.49 0 0 0 1.38-.92 1.51 1.51 0 0 0 -.27-1.6l-15.17-15.2 20.38-28.19-8.59 26.09a1.5 1.5 0 0 0 .8 1.84l34.71 15.89-31 22.31-51.42-.87-34.1-49 20.91-18.53a1.5 1.5 0 0 0 -2-2.25l-35.28 31.26a1.5 1.5 0 0 0 -.5 1.11l-.45 40.63a.72.72 0 0 0 0 .21c0 .24-.06 2.06-3.49 3.31-3.76 1.37-41.53 7.65-58.1 10.33a14.58 14.58 0 0 1 .74-2.86c1.12-2.92 3-4.41 5.72-4.57a1.5 1.5 0 1 0 -.17-3c-3.92.22-6.81 2.46-8.35 6.49-.15.38-.27.76-.38 1.13-1.48.24-2.94.53-4.36.81-1.25.25-2.45.49-3.65.7a9.75 9.75 0 0 1 2-5.55 9.33 9.33 0 0 1 1.25-1.14l.54-.45a6.81 6.81 0 0 1 2.45-1.12h.05a49 49 0 0 1 11.07-1.73h.18a4.61 4.61 0 0 1 .6-.08c.23 0 .48-.05.74-.1h.89c8.3-.7 17.29-1.08 28.28-1.2a2.2 2.2 0 0 0 1.55-.64.8.8 0 0 0 .15-.17c1.65-2.25 3.28-4.44 4.85-6.56 2.62-3.51 5.09-6.83 7.57-10.36a1.55 1.55 0 0 0 .27-.95c-.52-9-1.08-18.23-1.65-27.66-.91 1.22-1.85 2.41-2.79 3.59.49 8.07 1 16 1.41 23.72-2.35 3.34-4.72 6.52-7.21 9.87-1.49 2-3 4.05-4.57 6.17-10.86.12-19.79.5-28.05 1.19h-.84a1.43 1.43 0 0 0 -.29 0 5 5 0 0 1 -.61.08c-.24 0-.51.05-.8.11a49.76 49.76 0 0 0 -11.62 1.85 9.65 9.65 0 0 0 -3.5 1.65v.05l-.53.43a12.8 12.8 0 0 0 -1.64 1.53 13.07 13.07 0 0 0 -2.71 9.14 1.64 1.64 0 0 0 0 .22 1.13 1.13 0 0 0 0 .18 1.49 1.49 0 0 0 .17.36 1.72 1.72 0 0 0 .32.34 1.47 1.47 0 0 0 .48.25h.09a1.34 1.34 0 0 0 .35 0h.2c1.87-.26 3.72-.63 5.52-1 1-.21 2.08-.42 3.14-.61a14.21 14.21 0 0 0 -.09 1.44 1.49 1.49 0 0 0 1.5 1.5 1 1 0 0 0 .24 0c2.26-.36 55.56-9 60.55-10.78 5.38-2 5.5-5.54 5.45-6.37l.44-39.91 11.61-10.28 34.34 49.31a1.5 1.5 0 0 0 1.2.64l52.69.89a1.5 1.5 0 0 0 .87-.28l33.64-23.85a1.52 1.52 0 0 0 .6-1.36z"/><path d="m156 226.45a.53.53 0 0 0 -.24-.1h-.11l.16.45a1.5 1.5 0 0 0 -1 .53l-.33.4-12.32 5.82-16.3-22.57 3-15a1.52 1.52 0 0 0 -.12-.94l-8.48-17.86a1.5 1.5 0 0 0 -1.49-.85 1.52 1.52 0 0 0 -1.32 1.11l-4.91 18.76a1.48 1.48 0 0 0 .06.93l5.35 13.58-2.44 1.54-6.51-14.56a1.49 1.49 0 0 0 -.65-.71l-18.73-10.27a1.5 1.5 0 0 0 -1.75.23 1.47 1.47 0 0 0 -.32 1.73l10.27 21.44a1.51 1.51 0 0 0 .6.65s3 1.7 6 3.32c1.81.95 3.32 1.7 4.48 2.21l-3.42 2.17a1.49 1.49 0 0 0 -.69 1.13l-1.31 13.92-11.4 17.55a1.5 1.5 0 0 0 .27 1.95l6.7 5.8a1.46 1.46 0 0 0 1 .37 1.5 1.5 0 0 0 .71-.18l2.37-1.27a31.62 31.62 0 0 1 3.15-1.67l36-19.35 6.18-2.91a33.63 33.63 0 0 0 6.14-5.4c.52-.58 1-1.18 1.49-1.79a.85.85 0 0 0 -.09-.16zm-50.59-15.27c-2.18-1.16-4.23-2.31-5.07-2.79l-8-16.81 14.22 7.79 6.37 14.44-.64.4h-.29c-.41-.06-1.8-.47-6.61-3.03zm-5.13 44.69-4.93-4.27 10.9-16.77a1.59 1.59 0 0 0 .24-.67l1.27-13.56 12.77-8.09a1.49 1.49 0 0 0 .59-1.82l-5.62-14.28 3.74-14.3 6.51 13.7-3 15.14a1.48 1.48 0 0 0 .26 1.17l16.41 22.72z"/><path d="m152.11 330.08a26.05 26.05 0 0 0 2.57-.64 27 27 0 0 1 -5.85.66v.35h.29l1.22 19.84c-.22.29-1 1-3.39 1h-69.31a15.14 15.14 0 0 1 1.22-2.2 7.63 7.63 0 0 1 6.47-3.73h8.93a1.5 1.5 0 0 0 0-3h-8.93a10.62 10.62 0 0 0 -9 5.12l-.17.25h-.21-4.58a14.81 14.81 0 0 1 1.5-2.64 11.89 11.89 0 0 1 9-5.08c10-.87 54.22 3.09 54.66 3.13a1.5 1.5 0 0 0 1.56-1l4.08-12.62.34.11-.06-.24c-.67-.17-1.34-.37-2-.56-.36-.1-.73-.2-1.1-.28l-3.73 11.45c-7.33-.64-44.53-3.84-54-3a15 15 0 0 0 -11.19 6.32 17.18 17.18 0 0 0 -2.64 5.56 1.52 1.52 0 0 0 .29 1.27 1.48 1.48 0 0 0 1.17.56h5.38a12.72 12.72 0 0 0 -.58 1.71 1.5 1.5 0 0 0 1.45 1.87h71.5c5.53 0 6.31-3.09 6.38-3.44a1.7 1.7 0 0 0 0-.39z"/><ellipse cx="150.52" cy="90.46" rx="2.68" ry="5.58"/><ellipse cx="120.86" cy="226.14" rx="2.5" ry="5.2" transform="matrix(.95906722 -.28317851 .28317851 .95906722 -59.09 43.48)"/></g><path d="m114.85 187 1.21-4.62-8.16-18.12 8-28.31 20.3 34.77a1.47 1.47 0 0 0 .47.49l19.09 55.53-5.87 6.39-23.7 28.52a1.39 1.39 0 0 0 -.32.67l-3.58 18.31a1.55 1.55 0 0 0 .33 1.26l4.81 5.68 6.14 11.43a1.5 1.5 0 0 0 2.82-.68l.12-7.75 5.6 3.62a1.51 1.51 0 0 0 .82.24 1.58 1.58 0 0 0 .73-.18 1.52 1.52 0 0 0 .77-1.34l-.43-23.91 25.71-27.66c.53 8.57 1.07 17.29 1.63 26.46.92 14.79 1.85 29.88 2.75 44.61-5.47 5.52-10.59 9.58-15.22 12a25.42 25.42 0 0 1 -7.89 2.83 1.41 1.41 0 0 0 -.54-.07 1.38 1.38 0 0 0 -.7.22 16.53 16.53 0 0 1 -2.9 0 17.08 17.08 0 0 1 -9-3.7 37.91 37.91 0 0 1 -8-8.83c-8.93-13-21.44-52-23.6-58.84l-2.69 1.44c1.14 3.61 4.13 12.88 7.83 23.15 6.39 17.7 11.76 29.79 16 35.94a40.71 40.71 0 0 0 8.61 9.52 22.86 22.86 0 0 0 3.4 2.17 54.25 54.25 0 0 0 7.32 2.15c.49 0 1 .06 1.48.06h.91v.32c2.72.19 3-.68 3-.68 6.68-1.28 14-5.82 22.21-13.73 0 .48.06 1 .08 1.44 1.27-1.54 2.26-2.85 2.79-3.57-.93-15.37-1.91-31.17-2.86-46.63-.62-10-1.2-19.44-1.78-28.76a1.29 1.29 0 0 0 -.11-.47l.15-.16-.27-4.11-30.94 33.29a1.49 1.49 0 0 0 -.4 1l.4 21.74-4.82-3.11.28-17.74a1.5 1.5 0 0 0 -3 0l-.36 23.26-3.3-6.13 1.74-16.06a1.5 1.5 0 0 0 -3-.32l-1.41 13-2.18-2.58 3.36-17.22 27.57-33.18 2-1a1.5 1.5 0 0 0 .78-1.84l-19.65-57.16a1.45 1.45 0 0 0 -.59-.76 1.51 1.51 0 0 0 -.09-.18l-21.7-37.19.1-.39-2.35-2.72-.74 2.65a1.32 1.32 0 0 0 -.13.47l-9 32a1.44 1.44 0 0 0 .08 1z" fill="#e4557b"/></svg>