<svg viewBox="0 0 400 400" xmlns="http://www.w3.org/2000/svg"><path d="m144.57 282 19.76 2.34s1.56 4 11 16.41a77.77 77.77 0 0 0 24.56 20.88l-64.64-2z" fill="#f3824d"/><path d="m181.4 120.88 5.47 17.19 9.21 1.84s4.36.67 5-3c.6-3.31 5.19-18.59 5.19-18.59l-7.82-5.8s-5.91-5.21-5.91-6.42c.03-.18-11.14 14.78-11.14 14.78z" fill="#f3824d"/><path d="m195.08 92.19-.5-10.88 5.36-2.51 3.85 1.5.5 3.18 1.84 8.04-.17 3.69z" fill="#f3824d"/><path d="m278.52 172.34-7.03-23.29 19.31-12.65 7.37 27.68z" fill="#df4b77"/><path d="m135.64 319.91-31.15-22.77s-6.35-7.33-7.36-13.39-18-115.5-18-115.5-3-4.05 3.54-6.58 98.85-40.85 98.85-40.85l5.35 17.08-57.26 32.65s-6.34 4-9.38 4h-6.36l12.73 63.3 17.07 10 5.33 21.83z" fill="#df4b77"/><path d="m296.38 301.83-39.51-26.12 3.68-13.71 11.05 1.34s4.8-3.72 5-4c2.23-3.09 6.08-8.26 6.7-20.76.14-2.82-.15-12.07-.33-14.4 1.93 4.55 7 12.39 8.45 21.84.43 2.89-.16 5.22.76 6.4 2.51 3.24 5.69 2.35 8.53 3.57s7.76.29 10 .67l7 18.75z" fill="#df4b77"/><path d="m326.74 189.75-9.15-15.4-10.94-5.13-29.36 13.78-13.73-46-55.25-41.57-11.39-4-10 14.4 4 2.68-2.34 3.35 5.36 4 5-.06s49.23 33.88 52.58 36.89 2 3.35 2 3.35l15.74 58.27a46.39 46.39 0 0 1 -4.69 3.35c-2.68 1.68-2.35 5.69-2.35 5.69s-2.23 37.73-1.56 38.74c0 0 4.91.45 6.59.78s6.14 1.34 9.48-2.34 8.71-17 8.27-25.79c-.06-1.11-.16-2.26-.29-3.42 2.92 4.87 5.66 10 6.31 13.58.56 3 1.58 7.48 1.68 9 .17 2.7 4.14 1.13 5.25 1.61 1.83.78 9.64 1.17 12.83 1.74l-10.78-26.54a1.49 1.49 0 0 1 .16-1.44l2.48-6.7a1.45 1.45 0 0 1 .4-.38c.25-.17 2.19.19 4.71.61 2 .32 15.28 2 15.4 2h.22a2.14 2.14 0 0 0 1.48 0 .92.92 0 0 0 .29-.68c.33-3 1.35-10.62 1.36-10.7a2.57 2.57 0 0 1 2.5-2.42c2.45 0 4.91 1.12 4.46-.89-.36-1.56-6.72-20.36-6.72-20.36z" fill="#f3824d"/><path d="m279.64 327h-64.25a32.81 32.81 0 0 1 -17.46-6c-9.51-6.85-16.63-16.3-20.52-22.21-8.41-12.93-14.49-29.79-16.53-46.43a93.51 93.51 0 0 1 .22-25.72 65.77 65.77 0 0 1 8.09-23.46 36.2 36.2 0 0 1 16.39-14.7 39.45 39.45 0 0 1 21.53-3.08 40.34 40.34 0 0 1 21.38 9.83 44.09 44.09 0 0 1 8.39 10.14 53.59 53.59 0 0 1 5.81 13.85 85.43 85.43 0 0 1 2.9 26.72 80.56 80.56 0 0 1 -3.84 20.73c-3.52 10.8-6.44 15.33-7 16.07-2.62.09-8.37 1.34-13.73 1.34-14.92 0-17.13-6.23-17.08-6.36.31-.74 7.55-24.34 5.84-36a14.85 14.85 0 0 0 -2.53-6.7 6.23 6.23 0 0 0 -4.8-2.77 6.07 6.07 0 0 0 -4.84 2.7 17.13 17.13 0 0 0 -2.85 7.39c-.82 4.61-.11 14.47 1.48 21 1.3 5.32 3.68 9.72 8.79 15.83a26.11 26.11 0 0 0 7.66 6.36 21.23 21.23 0 0 0 10 2.46c16.87 0 19.91-.93 20.35-1.12l.24-.13 13.92-10.74 39.18 25.79z" fill="#f3824d"/><g fill="#df4b77"><path d="m281.87 216.1c1-.34 6.47-13.06 6.47-13.06l-3.68-6.36 3.68-8 5 .67 2.34 15.07 3.69-16.08s6.33 2.76 11.05-1.22a13.15 13.15 0 0 0 4.27-14.12l-8.49-4.24-30.2 14.52 4.8 16.74s4.47 10-2.45 16.08c-.43.33 2.85.22 3.52 0z"/><path d="m329.62 206.92-6.36-19.42a2.55 2.55 0 0 0 -.13-.29l-7.91-13.51a37.27 37.27 0 0 1 1 7.69l4.21 7.2 5.67 17.3h-3.29a1.5 1.5 0 0 0 -1.5 1.38s-.17 2.21-.39 4.71h-2.47a1.5 1.5 0 0 0 0 3h2.21c-.13 1.44-.25 2.77-.35 3.63a.93.93 0 0 1 -.29.69 2.23 2.23 0 0 1 -1.47 0 .87.87 0 0 0 -.22 0c-.13 0-12.06-1.67-14-2a7.84 7.84 0 0 0 -5.1 1.23 1.8 1.8 0 0 0 -.39.39l-5.69 8a1.49 1.49 0 0 0 -.16 1.44l10.33 24.92.21.5a23 23 0 0 0 3.78 1.27l-11.23-27.05 5-7.11a4.65 4.65 0 0 1 2.73-.64c1.93.32 12.79 1.83 14 2a5 5 0 0 0 3.85-.46 3.69 3.69 0 0 0 1.62-2.86c.26-2.29.7-7.53.9-10.05h4a1.49 1.49 0 0 0 1.21-.62 1.51 1.51 0 0 0 .23-1.34z"/><path d="m285.32 206.17a8.07 8.07 0 0 0 .13-1.3l-.47.8c-.05-.32-.12-.65-.2-1-.72-2.86-4.33-14.74-8.27-27.57l.25-.1v.08l.56-.22a1 1 0 0 1 -.65-.58l-.87-2.13-.21.08c-.2-.67-.41-1.34-.61-2-.47-1.16-.94-2.33-1.4-3.49-1.91-4.8-3.71-9.65-5.14-14.62a67.73 67.73 0 0 1 -2.36-11.37l-.23.15-.85-2.9c-.17-.63-1.22-3.81-6.34-7.06-4.3-2.72-46.37-33.94-46.79-34.26-.15-.11-3.73-2.71-5.74-4.05l-.16-.1.15-1.77a1.56 1.56 0 0 0 0-.48l-1.94-8 .41-3.07a1.5 1.5 0 0 0 -1.16-1.66l-3.54-.81-.44-3.08a1.51 1.51 0 0 0 -1-1.2l-3.79-1.34a1.5 1.5 0 0 0 -1.7.51l-2.75 3.67-.82-.2a1.49 1.49 0 0 0 -1.57.56l-3.13 4.25a1.48 1.48 0 0 0 -.25 1.22c0 .19.16.69.3 1.26a1.56 1.56 0 0 0 -.78.61l-1.8 2.83-1.93-1a1.51 1.51 0 0 0 -2 .56l-3 5a1.49 1.49 0 0 0 .46 2l.3.2-1.53 3.66a1.51 1.51 0 0 0 .56 1.84l3.79 2.47-2.28 4.27a1.49 1.49 0 0 0 .24 1.74.93.93 0 0 1 .87.37l.28.36.83.47-.36.21a15.69 15.69 0 0 1 1.38 2.67l2-1.16c2.9 1.67 6.28 3.63 7.33 4.33 2.29 1.53 4.13.89 4.9.25l3-2.34 3.38 3c-.7 2.56-3.6 13.27-3.91 15.75a1 1 0 0 1 -.71.91 2.59 2.59 0 0 1 -.94.13l-8.34-1.73a1 1 0 0 1 -.47.19h-.16l1.14 3 7.31 1.52h.14a4.32 4.32 0 0 0 5-3.65c.23-1.81 2.24-9.43 3.45-13.91l39.59 35.06.09.08c.06.06.34.41 0 1.37-1 2.57.46 5.68.9 6.49l13.94 47.94a57.37 57.37 0 0 0 -6 4.9c-2.51 2.5-1.63 6.46-1.33 7.52l-.33 36.38v.41a25.11 25.11 0 0 1 3-.26l.33-36.73a1.62 1.62 0 0 0 -.08-.49c-.27-.81-.76-3.43.53-4.71a61.79 61.79 0 0 1 6.5-5.19 1.51 1.51 0 0 0 .58-1.65l-14.36-49.06a1.3 1.3 0 0 0 -.14-.32c-.37-.65-1.3-2.8-.8-4.06 1-2.55 0-4.21-.9-4.86l-46.38-41a1.51 1.51 0 0 0 -1.92-.07l-4 3.13c-.16.07-.63.09-1.37-.41-1.62-1.08-8.09-4.78-10.88-6.37l1.47-2.75 1.4.91a1.5 1.5 0 0 0 1.64-2.51l-6.66-4.34.83-2 5.86 3.83a1.53 1.53 0 0 0 .82.24 1.5 1.5 0 0 0 .82-2.76l-7.5-4.9 1.55-2.57 6.45 3.36a1.49 1.49 0 0 0 2-.63 1.51 1.51 0 0 0 -.64-2l-3.1-1.61.95-1.49c7.22 3.48 17.38 8.47 18.71 9.36 1.92 1.29 5.47 3.86 5.64 4 1.82 1.35 42.57 31.61 47 34.39 4.15 2.63 5 5.06 5 5.27a.54.54 0 0 0 0 .1c.09.29 4.72 15.11 9.48 30.54a1.36 1.36 0 0 0 .11.56 1.71 1.71 0 0 0 .14.27l1.26 4.06a1.32 1.32 0 0 0 .1.51 1.26 1.26 0 0 0 .13.26c4 13.15 7.8 25.51 8.52 28.35a9.35 9.35 0 0 1 0 4.64 26.18 26.18 0 0 0 2.59-2.79c.33-.43.57-.8.89-1.17zm-97.24-120.61c-.15-.57-.39-1.57-.59-2.41l1.93-2.63.54 5.35a1.55 1.55 0 0 0 .28.73zm6.92-5.09a1.49 1.49 0 0 0 -.39 1l.22 7.15a1.38 1.38 0 0 0 0 .2l-3.39-1.65h.1a1.49 1.49 0 0 0 1.34-1.64l-.61-6.12 2.34-3.11 1.9.67.22 1.52zm8.09 12.53c-1.67-.86-3.81-1.93-6-3a1.51 1.51 0 0 0 .79-1.37l-.2-6.53.52-.58 3.21.73-.26 2a1.28 1.28 0 0 0 0 .55l2 8z"/><path d="m293.3 300.21a19.36 19.36 0 0 1 -2.69-1.44l-17.05 21.32h-64.25c-.05 0-5.12 0-12.29-3.18-.63-.28-1.27-.58-1.9-.89a1.4 1.4 0 0 0 -.44-.22 52.5 52.5 0 0 1 -9.84-6.53 68.4 68.4 0 0 1 -13.12-15c-8.46-12.86-14.49-29.75-16.53-46.35a93.58 93.58 0 0 1 .22-25.73 65.79 65.79 0 0 1 8.09-23.45 36.2 36.2 0 0 1 16.39-14.7 39.36 39.36 0 0 1 21.53-3.04 40.26 40.26 0 0 1 21.38 9.83 43.88 43.88 0 0 1 8.39 10.17 53.66 53.66 0 0 1 5.81 13.81 85.53 85.53 0 0 1 2.9 26.73 80.64 80.64 0 0 1 -3.84 20.73 67.75 67.75 0 0 1 -8.8 18.15c-2.62.09-6 .15-10.25.15-5.88 0-11-2.61-15.36-7.75a34.35 34.35 0 0 1 -3.56-5.22 1.45 1.45 0 0 0 .22-.36c.3-.74 7.5-18.26 5.79-29.93a15 15 0 0 0 -2.53-6.7 6.24 6.24 0 0 0 -4.8-2.76 6.06 6.06 0 0 0 -4.84 2.69 17.36 17.36 0 0 0 -2.85 7.4c-.82 4.6-.36 11.24 1.23 17.74 1.3 5.33 3.93 13 9 19.07a26.11 26.11 0 0 0 7.66 6.36 21.23 21.23 0 0 0 10 2.46c16.87 0 19.91-.94 20.35-1.13a1.34 1.34 0 0 0 .24-.12l13.47-8.85 1.06.67a18.62 18.62 0 0 1 -2.92-3l-.08.05-13 8.53a34.43 34.43 0 0 1 -5.12.56 75.46 75.46 0 0 0 7.86-16.93 84.17 84.17 0 0 0 4-21.54 88.75 88.75 0 0 0 -3-27.75 56.94 56.94 0 0 0 -6.14-14.61 47.35 47.35 0 0 0 -9-10.84 43.24 43.24 0 0 0 -23-10.55 42.36 42.36 0 0 0 -23.17 3.32 39.14 39.14 0 0 0 -17.74 15.91 68.84 68.84 0 0 0 -8.47 24.51 96.85 96.85 0 0 0 -.23 26.56 119.51 119.51 0 0 0 7 27.84l-11.77-2.62c-.15 1-.31 2-.44 3l13.44 3h.12a101.6 101.6 0 0 0 8.78 16.42 71.73 71.73 0 0 0 13.71 15.62 57.7 57.7 0 0 0 5.33 3.95l-48.38-1.6h-.19c-.48.05-1.14.08-1.81.08-.55 1-1.1 1.93-1.6 2.92a20.68 20.68 0 0 0 3.6 0l53.95 1.78c.66.33 1.33.64 2 .93 7.73 3.4 13.26 3.44 13.49 3.44h65a1.49 1.49 0 0 0 1.17-.57l17.37-21.71zm-100.08-45.21c-1.49-6.12-1.94-12.29-1.18-16.51 1-5.62 3.13-7.61 4.66-7.61 1.69 0 3.74 2.4 4.4 6.9 1.27 8.64-3 21.41-4.81 26.32a53.17 53.17 0 0 1 -3.07-9.1z"/></g><path d="m135.86 317.23c2.47-8.18 7.14-25.67 10.17-37.82l1.66-5.26-5.24-20.21a18.2 18.2 0 0 0 -1.78-4.61c-.9-1.3-3.51-2.79-4.32-3.24l-11.09-6.46-13.49-66.85a14.6 14.6 0 0 0 3.67 0 12.86 12.86 0 0 0 5.62-2.07c1.34-.73 16.71-9.23 32-17.74 9.33-5.2 16.8-9.39 22.19-12.45 6.34-3.59 9.56-5.46 10.65-6.17l-7.59-23.89-104.51 41.62h-.07a13.37 13.37 0 0 0 -4.31 3.52c-1.81 2.24-3.72 6.11-2.56 11.87 1.71 8.56 15.78 84.51 20.06 107.59 0 .31.11.61.16.88.51 2.81.65 3.57 1.53 5.15a20.25 20.25 0 0 0 3.68 4.09l.09.08 38.06 28.13a60.05 60.05 0 0 0 5.42 3.84zm-44.62-37.56c-.65-1.16-.72-1.57-1.21-4.24 0-.28-.11-.57-.16-.89-4.28-23.08-18.36-99.05-20.07-107.63s4.63-11.81 5.2-12.06l101.66-40.59 6.45 18.2c-5.87 3.61-40.31 22.77-63.55 35.61a1 1 0 0 0 -.21.14 10.21 10.21 0 0 1 -4.31 1.53 13.54 13.54 0 0 1 -4.75-.3 1.51 1.51 0 0 0 -1.86 1.75l14.07 69.65a1.47 1.47 0 0 0 .71 1l11.68 6.81a14 14 0 0 1 3.31 2.35 15.72 15.72 0 0 1 1.33 3.62l4.61 20.05-9.76 38.11c-.64-.5-1.37-1.11-2-1.67l-.1-.08-38.07-28.12a17.18 17.18 0 0 1 -2.97-3.24z" fill="#8d5192"/><path d="m294.6 164.24a1.49 1.49 0 0 0 .88-1.79l-8.54-30.81a1.5 1.5 0 0 0 -2.25-.86l-18.78 12.11 9.1 29.35zm-27.77-18.38 17.77-11.45 7.64 27.59-18.12 7.39c-2.82-9.17-5.56-17.96-7.29-23.53z" fill="#8d5192"/><path d="m292.06 190.65 3.37 21.67 5.06-22.08c2.45.64 7.09 1.22 10.92-2 4.1-3.45 4.07-6.24 4.24-9.05a14.42 14.42 0 0 0 -.65-5.37l-.2-.57-16.24-8-22.89 9.16c.36.84.72 1.68 1.05 2.54 0 .06 0 .12.07.19l21.74-8.55 13.8 6.81a12.49 12.49 0 0 1 .32 3.75c-.23 3.2-.57 4.63-3.17 6.83-3.93 3.32-9.44 1-9.49 1l-1.65-.72-2.34 10.17-1.32-8.43-7.24-1-4.44 9.76 3.53 6.11c-1.12 2.58-7.82 12.86-7.72 12.94l-.28-.06v.06a1.87 1.87 0 0 0 0 .34.34.34 0 0 1 0 .1s0 .06 0 .09v.05a.24.24 0 0 1 0 .08v.07a.14.14 0 0 0 0 .06.61.61 0 0 0 .05.12 29.91 29.91 0 0 1 1.84 5.5 52.68 52.68 0 0 1 1.35 15.19 40.48 40.48 0 0 1 -8.2 22.18c-.25.34-.44.61-.59.84-.63.94-2.71 1.08-3.63 1l-16.73-1.86-3-.91-.11 12.15-.44.29 1.94 2.31 39.65 25.16-.42.53 2.52 1.65 21.54-26.75a1.52 1.52 0 0 0 .21-1.52l-7.4-17.85s-11.15-1.92-13-2.71c-1.11-.47-1.16-.49-1.33-3.19a53.21 53.21 0 0 0 -.78-6.73c-1.36-7.38-8-21.19-10.1-25.34a11 11 0 0 0 1.53-2.41c.59-1.12 6.28-10.54 6.29-10.57l.3-.69-3.67-6.34 2.9-6.33zm-3 51.84a51 51 0 0 1 .75 6.4c.18 2.74.3 4.54 3.14 5.76s9.8 2.4 12.09 2.78l6.37 15.35-18.79 23.49-40-25.4.07-8.22 16.45 1.82h.77c1.4 0 4.24-.28 5.64-2.37.12-.18.3-.44.52-.74a43.36 43.36 0 0 0 8.77-23.79 59.21 59.21 0 0 0 -.11-7.74 69.85 69.85 0 0 1 4.32 12.66z" fill="#8d5192"/><path d="m313.89 201.79a5 5 0 0 1 -.77-.06 7.11 7.11 0 0 1 -5.19-4.29s-.41-1.52.84-2 2 .94 2 .94a4.05 4.05 0 0 0 2.85 2.42c1.74.26 2.87-2 2.88-2.07a1.5 1.5 0 1 1 2.71 1.28 8.16 8.16 0 0 1 -1.42 2 5.35 5.35 0 0 1 -3.9 1.78z" fill="#df4b77"/></svg>