<svg viewBox="0 0 400 400" xmlns="http://www.w3.org/2000/svg"><path d="m274.17 87.65s-4.75 43.73-13.86 74.79c-17.64 60.16-86.18 121.16-86.18 121.16l69.87 29.4s84.56-85.61 101-165.16c17.67-85.84-28.56-80.84-28.56-80.84s-28.83-.52-42.27 20.65z" fill="#e04f78"/><path d="m179.87 138.7s3.48-41.95 25-60.38c23.53-20.13 35.6-19.82 35.6-19.82l78.31 10.32s-31.13-1-49.61 31-23.9 52.31-23.9 52.31z" fill="#f0b61c"/><path d="m143.12 119.69 65.38 12.8s-1.19-17.39-8.24-29.24c-13-21.88-41.94-35.61-52.51-30.6-14.44 6.84-19.55 18.67-19.55 18.67s6.29.94 11 9.73c4.27 7.95 5.18 19.15 3.92 18.64z" fill="#e04f78"/><path d="m137.67 296.75s-54.35-70.08-69.73-136.63c-13.23-57.2.69-89.12 38.06-94.94 19.89-3.09 31.56 2.41 31.56 2.41l21 1.9s-24.83 4.92-28.9 25.81 8.44 63.56 18 85.23c31.63 72.1 97.29 161.94 97.29 161.94z" fill="#f0b61c"/><path d="m99.53 185.73a13.87 13.87 0 0 1 -6.92-2.14c-4.13-2.41-8.11-6.62-11.52-12.19a73.59 73.59 0 0 1 -8.72-23 70.78 70.78 0 0 1 -.23-27.19c1.6-8.61 4.68-15.7 8.44-19.45 2.55-2.53 5.39-3.54 8.23-2.92 4.73 1 8 4.91 10.37 12.22 2.06 6.42 3.4 15.29 4.9 27.5.75 6.13 1.8 11.92 2.72 17 1.36 7.54 2.54 14.06 2.31 19a14.06 14.06 0 0 1 -1.7 6.69 9 9 0 0 1 -5.26 4 8.75 8.75 0 0 1 -2.62.48zm-12.34-84a6.49 6.49 0 0 0 -4.49 2.23c-3.34 3.33-6.12 9.84-7.61 17.87a67.66 67.66 0 0 0 .21 26 70.43 70.43 0 0 0 8.35 22c4 6.51 7.89 9.67 10.47 11.17s5.2 2.08 7.13 1.48c6.65-2.08 5.47-10.46 2.6-26.33-.93-5.15-2-11-2.75-17.2-1.48-12-2.79-20.76-4.78-26.95s-4.53-9.42-8.15-10.21a4.6 4.6 0 0 0 -.98-.11z" fill="#e04f78"/><path d="m282.73 186.22a7.58 7.58 0 0 1 -4.1-1.17c-4.1-2.58-5.88-7.35-5.61-15 .24-6.74 2-15.53 4.71-27.53l1.47.33-1.47-.33c1.37-6 2.35-11.82 3.22-17 1.27-7.55 2.37-14.08 4.27-18.68a14.07 14.07 0 0 1 3.88-5.72 9.05 9.05 0 0 1 6.3-2c2.92.13 5.82 1.82 8.39 4.88 3.06 3.67 5.38 9 6.69 15.38a73.55 73.55 0 0 1 .43 24.57 71 71 0 0 1 -9 25.66c-4.43 7.56-9.73 13.19-14.54 15.44a11 11 0 0 1 -4.64 1.17zm12.18-84.07c-6.66 0-8.37 8.27-11 23.9-.88 5.16-1.86 11-3.25 17.11-2.69 11.84-4.41 20.48-4.64 27s1.07 10.4 4.2 12.37c1.58 1 3.56.94 5.87-.14 4.27-2 9.09-7.19 13.23-14.24a68 68 0 0 0 8.61-24.54 70.26 70.26 0 0 0 -.39-23.57c-1.53-7.46-4.14-11.76-6.06-14s-4.18-3.72-6.21-3.81z" fill="#f0b61c"/><path d="m201.49 291.81c-.55-.81-1.1-1.61-1.64-2.42q-5-6.48-9.36-13.4c-2.32-3.66-4.52-7.41-6.57-11.24l-.69-1.12.07-.06q-.72-1.38-1.41-2.76l-.24.21q-1.86-3.07-3.66-6.12a464 464 0 0 1 -22.71-43.23c-13.64-30-22.19-52.7-26.9-71.36-2.86-11.33-4.27-21.26-4.19-29.49a46.82 46.82 0 0 1 2.59-15.92.91.91 0 0 1 .09-.36c.07-.15.15-.29.22-.44a27.8 27.8 0 0 1 1.25-2.7l.15.27c.29-.46.59-.9.91-1.34s.66-.92 1-1.36l-.3-.51a41.47 41.47 0 0 1 11.18-11.6 26.5 26.5 0 0 1 10.72-4.25c1-.14 1.89-.22 2.77-.26a18.37 18.37 0 0 1 3.58-1.48c1.11-.34 2.24-.61 3.38-.84a25.6 25.6 0 0 0 -3.16-.54c-8.59-1.93-25.74-5.63-39.46-7.68a1.33 1.33 0 0 0 -.45-.07c-7.1-1.05-13.23-1.64-16.71-1.29a63.3 63.3 0 0 0 -11.77 2.39 57.54 57.54 0 0 0 -17.18 8.41 49.8 49.8 0 0 0 -15.49 18.36c-4.42 8.9-6.61 19.63-6.52 31.9.14 18.38 3.62 38.26 10.35 59.07a315 315 0 0 0 22.13 51.28 360.51 360.51 0 0 0 32 49.92 1.57 1.57 0 0 0 .58.45l109.51 47.22a1.77 1.77 0 0 0 .64.12 1.5 1.5 0 0 0 1.12-2.44c-.11-.13-11.38-14.13-25.83-35.32zm-61.88-223.27a34.34 34.34 0 0 0 -17.45 12.66c-6.67 9.07-13.26 26.4-6.76 57.45 2.4 11.42 6.85 25.38 13.24 41.48 5.1 12.85 11.44 27.1 18.85 42.34 11.45 23.57 22 42.33 23.89 45.73-.44 1.81-1.19 6.89 2 13.37 2.79 5.67 9.42 12.27 14.71 17l-65.85-26.48a37.7 37.7 0 0 0 -7.37-16.18 20.29 20.29 0 0 0 -10.72-7.24 258.37 258.37 0 0 1 -15.87-30.56 333.13 333.13 0 0 1 -13.28-35.21 314.39 314.39 0 0 1 -10.65-45c-3.42-21.55-.34-38.78 9.17-51.2 6.51-8.49 19.61-19.19 45.11-22 6.55 1.05 14.05 2.45 20.98 3.84zm-22 211.08a362 362 0 0 1 -31.48-49.18 312.76 312.76 0 0 1 -21.92-50.78c-6.63-20.52-10.06-40.1-10.2-58.18-.09-11.79 2-22.07 6.21-30.54a46.73 46.73 0 0 1 14.54-17.26 54.41 54.41 0 0 1 16.28-8 60.55 60.55 0 0 1 11.2-2.27 34.29 34.29 0 0 1 5.53 0 79.7 79.7 0 0 0 -14.77 4.81 54.8 54.8 0 0 0 -21.91 16.69c-10.03 13.09-13.31 31.09-9.76 53.49a318 318 0 0 0 10.77 45.44 336.77 336.77 0 0 0 13.46 35.52 253.88 253.88 0 0 0 16.44 31.44 1.48 1.48 0 0 0 1.06.66s5 .76 9.51 6.3a35.22 35.22 0 0 1 6.87 15.56 1.49 1.49 0 0 0 .92 1.2l75.51 30.36a1.39 1.39 0 0 0 .6.11 1.5 1.5 0 0 0 .87-2.69c-.17-.13-16.69-12.79-21.23-22.05a19 19 0 0 1 -2.09-8.44 10.77 10.77 0 0 1 .43-3.3 1.48 1.48 0 0 0 -.11-1.25c-.12-.2-11.55-20.24-24.11-46.1-7.42-15.16-13.73-29.35-18.8-42.16-6.33-15.94-10.73-29.73-13.09-41-2.62-12.53-3.27-23.81-1.9-33.51 1.2-8.59 3.94-15.84 8.14-21.55a30.93 30.93 0 0 1 22.08-12.81 1.59 1.59 0 0 0 .39-.09l1.28.27a30 30 0 0 0 -8.59 4 45 45 0 0 0 -12.66 13.29c-3.82 5.89-5.81 13.69-5.89 23.19-.08 8.49 1.36 18.67 4.28 30.25 4.75 18.84 13.36 41.68 27.08 71.87a472.42 472.42 0 0 0 22.85 43.52c7.14 12.11 15.09 24.57 23.6 37.07 9.63 14.09 17.85 25 22.34 30.86z" fill="#e04f78"/><path d="m173.48 131c.17 0 17 3.52 33.82 6.71 9.9 1.88 17.88 3.3 23.71 4.2 3.48.55 6.24.91 8.19 1.1a25 25 0 0 0 2.72.14 2.83 2.83 0 0 0 2-.63 1.65 1.65 0 0 0 .47-1.46 44.61 44.61 0 0 1 1.8-10.14 90.16 90.16 0 0 1 8.73-21 89 89 0 0 1 5.16-8q.42-.73.87-1.44a42 42 0 0 1 5.88-7.27 33.84 33.84 0 0 1 4.65-3.9c0-.13 0-.22 0-.28q1.56-1.46 3.18-2.83a94.27 94.27 0 0 1 23.82-14.58 19.21 19.21 0 0 1 3.41-2.26 46.25 46.25 0 0 1 10.21-3.79 23.1 23.1 0 0 0 -2.74-.88h-.12-.05c-2.6-.3-48.15-5.57-71.09-6.79a1.17 1.17 0 0 0 -.42 0 93.2 93.2 0 0 0 -10.26-.15c-10.89.81-20.6 6.78-26.83 11.64a76.23 76.23 0 0 0 -8.27 7.49 42.22 42.22 0 0 0 -2.88 3.36c.73.93 1.49 1.83 2.28 2.72a1 1 0 0 1 .13-.17l-.31-.25.09-.19a58.26 58.26 0 0 1 11.27-11.09c5.8-4.45 14.8-9.92 24.74-10.66h.62a62.67 62.67 0 0 0 -8.3 4 77.62 77.62 0 0 0 -13.22 9.73 82.26 82.26 0 0 0 -10.74 11.82c.59.76 1.19 1.52 1.77 2.29l.2.11a77 77 0 0 1 10.9-12 76.14 76.14 0 0 1 9.47-7.35 1.51 1.51 0 0 0 1.23 1.49l4.14.77a23.51 23.51 0 0 0 -2.72 3.29l-5.61-1.06a1.5 1.5 0 1 0 -.55 3l4.83.91a4.62 4.62 0 0 0 -.16 1.58c.11 1.42 1 3.25 4.44 3.94 2.58.5 5.14-1 7.77-3.24l16.29 2.98c-.59.6-1.22 1.2-1.89 1.79a1.49 1.49 0 0 0 -.14 2.11 1.51 1.51 0 0 0 2.12.14 33.75 33.75 0 0 0 3.38-3.39l4.2.8a1.15 1.15 0 0 0 .32 0 1.5 1.5 0 0 0 .23-3l-2.72-.52a18.06 18.06 0 0 0 1.27-2.23c.21-.43.39-.87.55-1.3l5.53 1a1.77 1.77 0 0 0 .32 0 1.5 1.5 0 0 0 .23-3l-5.38-1a7.57 7.57 0 0 0 -.39-3.32c-.63-1.7-2.51-4.57-8.14-4.67-3.79-.07-7.21 1.95-10.34 4.48l-6.9-1.29a16.28 16.28 0 0 1 1.66-1.16 1.5 1.5 0 0 0 -1.07-2.8 23.36 23.36 0 0 0 -4.45 3.24l-5.89-1.1 1-.6a56.32 56.32 0 0 1 16.38-6.4c12.6.68 32.48 2.62 48 4.26a80.75 80.75 0 0 0 -18.08 11.01c-6.12 4.73-12.24 12-18.21 21.46a133.32 133.32 0 0 0 -6.83 12.25 27.88 27.88 0 0 0 -11.89 7.29 13 13 0 0 0 -3.75 8.69 11.76 11.76 0 0 0 .08 1.74l-39-6.52 1.21-2.89 1.66.33c-.62-.12-1.23-.26-1.84-.4-1.16-.28-2.35-.58-3.55-.76a.3.3 0 0 1 -.08.08l.82.17-1.71 4.08a1.49 1.49 0 0 0 .07 1.3 1.51 1.51 0 0 0 1.07.76l43.09 7.2a1.1 1.1 0 0 0 .31 0 1.48 1.48 0 0 0 1.33-2.07c-.08-.2-1.93-5 2.49-9.65a24.89 24.89 0 0 1 11.1-6.62 1.51 1.51 0 0 0 1-.83 125.67 125.67 0 0 1 7-12.59c4-6.32 10.22-15 17.48-20.65a79.33 79.33 0 0 1 17-10.32 34 34 0 0 1 6.45-2.16l9.09 1a98.74 98.74 0 0 0 -29.74 17.2 91.64 91.64 0 0 0 -20.38 24.79 93.13 93.13 0 0 0 -8.89 21.8 55.36 55.36 0 0 0 -1.74 9.51 98 98 0 0 1 -11.44-1.42c-5.9-1-13.77-2.36-23.37-4.19-13.52-2.58-26.76-5.28-31.05-6.16.22-1.34.55-3.59.85-6.76.23-2.38.66-4.79.91-6.07l.65.13-.29-.06a1.4 1.4 0 0 1 -.46-.22c-.95-.09-1.89-.22-2.83-.39-.27 1.35-.71 3.82-1 6.33a72.42 72.42 0 0 1 -1.07 7.89 1.5 1.5 0 0 0 1.16 1.79zm51-50.9c-.88-.17-1.94-.51-2-1.18a1.94 1.94 0 0 1 .12-.83l5.13 1a4.73 4.73 0 0 1 -3.26.98zm22.94-10.7c1.65 0 4.54.42 5.38 2.7a4.4 4.4 0 0 1 .23 1.74l-11.86-2.21a11.17 11.17 0 0 1 6.25-2.23zm-12.53 7.48c1-.92 2-1.89 3.09-2.8l14.33 2.67c-.08.19-.16.38-.26.57a16.92 16.92 0 0 1 -1.8 2.91l-15.77-3zm-8.46-4c.28-.27.56-.54.84-.79l7 1.3-1.4 1.29c-.69.64-1.37 1.28-2 1.88l-6.6-1.24a26.58 26.58 0 0 1 2.16-2.44z" fill="#e04f78"/><path d="m99.72 202.43a1.5 1.5 0 0 0 -3-.21 64 64 0 0 0 .06 8.09l-5 .09a1.5 1.5 0 1 0 0 3l5.24-.09a38.11 38.11 0 0 0 .79 4.37l-3.18.06a1.5 1.5 0 0 0 .07 3l4.06-.07a13.15 13.15 0 0 0 3.09 4.92 7.73 7.73 0 0 0 6.63 2c3.21-.44 5.24-1.66 6.4-3.85a11.22 11.22 0 0 0 1-3.42l18.2-.32c.74 4.65 1 8.21 1 8.26a1.51 1.51 0 0 0 1.55 1.41 1.51 1.51 0 0 0 1.41-1.59c0-.23-.23-3.62-.94-8.14l3.36-.05a1.5 1.5 0 0 0 -.07-3l-3.82.06c-.27-1.41-.58-2.89-1-4.37h1.92a1.5 1.5 0 0 0 -.07-3h-2.69a17.3 17.3 0 0 0 -4.29-7.34 9.29 9.29 0 0 0 -6.53-2.74 9.16 9.16 0 0 0 -5.88 2.32 11.74 11.74 0 0 0 -3.55 6c-.19.74-.35 1.47-.49 2.18l-14.38.25a63 63 0 0 1 .11-7.82zm12.55 20c-.86 1.62-2.58 2.06-4.15 2.27a4.82 4.82 0 0 1 -4.18-1.26 9.05 9.05 0 0 1 -1.91-2.79l10.87-.19a7.24 7.24 0 0 1 -.63 1.93zm21.36-5.33-17.33.3c0-.2 0-.4 0-.61.1-1.18.21-2.45.38-3.79l15.92-.28c.4 1.43.75 2.91 1.03 4.34zm-16.07-8.49c.93-3.56 3.56-6 6.56-6 3.18 0 5.95 2.6 7.63 7.14l-14.51.25c.1-.5.2-1 .32-1.43zm-4.2 7.93c0 .31 0 .62-.08.91l-12.32.22a31.77 31.77 0 0 1 -.86-4.38l13.6-.23c-.15 1.18-.25 2.34-.34 3.44z" fill="#e04f78"/><g fill="#f0b61c"><path d="m158.56 69.49-3.32-.74c-.94.11-1.87.22-2.81.36-1.77.26-3.54.56-5.29 1l1.19.26a30 30 0 0 0 -8.59 4 45 45 0 0 0 -12.66 13.23c-.23.36-.46.72-.68 1.1a25.88 25.88 0 0 1 1.7 3.15l.24-.45a60.92 60.92 0 0 1 4.6 10.06 22.77 22.77 0 0 1 1.12 4.31 1.5 1.5 0 0 0 1.2 1.32l39.09 7.82v.11a26.06 26.06 0 0 1 3.82.65l7.74 1.55a.77.77 0 0 1 .54-.06c1 .25 2 .56 2.93.87v-.1l23.6 4.72h.34a1.52 1.52 0 0 0 1.44-1.75 48 48 0 0 0 -2.76-8.9 97 97 0 0 0 -12.68-21.7l-.22-.29c-2.34-2.37-4.62-4.78-6.94-7.16l-.6-.49a.59.59 0 0 1 0-.08l-1.41-1.43-.81-.66a3.64 3.64 0 0 0 -.24.35l-1.05-.74a56.75 56.75 0 0 0 -11.57-5.92 55.58 55.58 0 0 0 -12.48-3.17 22.27 22.27 0 0 0 -5.44-1.22zm27.88 12.87a44.4 44.4 0 0 1 10.48 9.8 92.73 92.73 0 0 1 12.23 20.89 56.45 56.45 0 0 1 2.14 6.2l-74.43-14.9c-.46-2.23-2-7.74-6.75-15.89a41.47 41.47 0 0 1 11.18-11.6 26.5 26.5 0 0 1 10.71-4.25 24.53 24.53 0 0 1 6.1-.15c3.14.7 5.07 1.16 5.16 1.18h.06.11a53.09 53.09 0 0 1 12.08 3.09 53.9 53.9 0 0 1 10.93 5.63z"/><path d="m334.83 87.05a45.66 45.66 0 0 0 -7.77-11.4 41.53 41.53 0 0 0 -8.28-6.83 38.76 38.76 0 0 0 -5.8-3c-1.75.51-3.48 1.07-5.18 1.71a34.15 34.15 0 0 0 -8.28 4.31 42.36 42.36 0 0 1 13.82 7.16 33.77 33.77 0 0 1 9.25 11.61 49.3 49.3 0 0 1 4.51 19 102.85 102.85 0 0 1 -1.79 23.28c-2.66 14.84-8.14 32.39-16.74 53.65a229.27 229.27 0 0 1 -18.57 35.89 288.05 288.05 0 0 1 -20.38 28.27 264.64 264.64 0 0 1 -22.53 24.52 12.37 12.37 0 0 0 -9.73 1.14c-4.38 2.36-5.69 8.28-6.08 11.46l-38.28-14.07c2.58-1.31 5.63-3.55 6.4-7.06.9-4.14 1.32-6.95 1.48-8.1a192.87 192.87 0 0 0 16-16.36c5.53-6.27 10.85-12.94 15.8-19.8a254.54 254.54 0 0 0 16.75-26.52 190.86 190.86 0 0 0 16.41-40.46 187.69 187.69 0 0 0 6.16-34.12 147.82 147.82 0 0 0 -.32-31.1c-.93.67-1.87 1.33-2.78 2a152.81 152.81 0 0 1 .1 28.94 184 184 0 0 1 -6 33.53 188 188 0 0 1 -16.14 39.75 256.78 256.78 0 0 1 -32.11 45.73 189.56 189.56 0 0 1 -16.16 16.5 1.51 1.51 0 0 0 -.52 1s-.36 3.14-1.5 8.38c-.87 4-6.61 5.86-7.84 6.22l3.11 4.21 40.32 14.83a1.42 1.42 0 0 0 .57.09 1.39 1.39 0 0 0 .8-.26 1.49 1.49 0 0 0 .65-1.21 22.68 22.68 0 0 1 .71-4.75c.57-2.16 1.71-5 4-6.18 4.4-2.36 7.74-.81 8-.71a1.47 1.47 0 0 0 1.69-.22 255.71 255.71 0 0 0 23.47-25.43 288.76 288.76 0 0 0 20.61-28.58 231 231 0 0 0 18.85-36.4c8.68-21.45 14.21-39.2 16.92-54.25a105.9 105.9 0 0 0 1.82-24 52.2 52.2 0 0 0 -4.8-20.19 36.71 36.71 0 0 0 -10.08-12.63 43.68 43.68 0 0 0 -12.43-6.84q3.09-1.16 6.3-2.16a32.82 32.82 0 0 1 8.1 3.74 38.85 38.85 0 0 1 7.7 6.35 42.64 42.64 0 0 1 7.25 10.64c5 10.41 6.66 23.63 4.87 39.32-2.27 19.83-10.05 43.61-23.12 70.68a448.2 448.2 0 0 1 -30.04 53.12 235.3 235.3 0 0 1 -24.18 31c-11.67 12.34-19.56 16.75-21.58 17.76l-40.7-15.73q1.52 2.16 3 4.36l37.26 14.4a1.61 1.61 0 0 0 .58.1 1.63 1.63 0 0 0 .53-.12c.36-.14 8.95-3.78 22.87-18.44a235.8 235.8 0 0 0 24.58-31.37 448 448 0 0 0 30.23-53.72c13.22-27.37 21.1-51.47 23.4-71.64 1.85-16.3.11-30.05-5.16-41z"/><path d="m207.2 239.42a286.23 286.23 0 0 0 21.46-27.29 200.91 200.91 0 0 0 19-33.71 222.11 222.11 0 0 0 11.55-33.68 170.26 170.26 0 0 0 4.48-25.74c1.15-12.23.31-19.8 0-21.81a.79.79 0 0 1 -.31-.14c-.48.64-.93 1.29-1.35 2s-.7 1.17-1 1.79a111.3 111.3 0 0 1 -.37 18.08 169 169 0 0 1 -4.44 25.22 219.12 219.12 0 0 1 -11.37 33.11 197.72 197.72 0 0 1 -18.67 33.17 283.08 283.08 0 0 1 -21.22 27 294.06 294.06 0 0 1 -23.24 23.54c.06.53.14 1.07.16 1.58.52.82 1.05 1.63 1.59 2.44h.53l-.81-1.32a297.37 297.37 0 0 0 24.01-24.24z"/><path d="m239.29 219.16 3.88 1.54a9.51 9.51 0 0 0 -.38 4.93 5.18 5.18 0 0 0 3 3.58c3.09 1.43 5.75 1.4 8.14-.11a13.25 13.25 0 0 0 3.11-2.9l14.92 5.92c-1.13 1.24-2.35 2.39-3.57 3.52l-1.26 1.2a1.5 1.5 0 0 0 -.05 2.12 1.46 1.46 0 0 0 1.13.46 1.53 1.53 0 0 0 1-.41l1.25-1.18a58.2 58.2 0 0 0 4.48-4.53l4.16 1.66a1.58 1.58 0 0 0 .6.1 1.5 1.5 0 0 0 1.35-.95 1.49 1.49 0 0 0 -.84-1.94l-3.38-1.35a20 20 0 0 0 1.61-2.92l4.08 1.6a1.78 1.78 0 0 0 .59.1 1.52 1.52 0 0 0 1.36-.95 1.5 1.5 0 0 0 -.86-2l-4.19-1.64a18.72 18.72 0 0 0 .49-2.95 8.59 8.59 0 0 0 -4-8.47c-3.47-2.1-8.32-1.79-12.35.8a18.07 18.07 0 0 0 -3.55 3.05l-9.85-3.85c.8-1.18 1.38-1.94 1.4-2a1.5 1.5 0 1 0 -2.36-1.85c-.05.07-.87 1.12-1.91 2.69l-3-1.18a1.5 1.5 0 0 0 -1.09 2.8l2.51 1-.15.25c-.49.88-.92 1.72-1.29 2.53l-3.84-1.52a1.5 1.5 0 1 0 -1.11 2.78zm7.74 7.33a2.18 2.18 0 0 1 -1.32-1.56 6.53 6.53 0 0 1 .25-3.12l8.11 3.22c-2.07 2.24-3.86 2.97-7.07 1.46zm26.9 3.2-15-6 .15-.2c.59-.82 1.2-1.66 1.84-2.46l14.71 5.75a17.15 17.15 0 0 1 -1.7 2.91zm-8.77-12.69c3.08-2 6.68-2.27 9.17-.76a5.65 5.65 0 0 1 2.56 5.65 13.89 13.89 0 0 1 -.33 2.11l-13.56-5.33a14.73 14.73 0 0 1 2.16-1.67zm-17-.09.37-.65 9.47 3.7c-.47.62-.92 1.24-1.35 1.84-.21.28-.41.55-.6.82l-9.05-3.62c.35-.67.71-1.39 1.13-2.13z"/></g></svg>