<svg viewBox="0 0 400 400" xmlns="http://www.w3.org/2000/svg"><path d="m374 245.79-10.42-1.51.89-37.95-80.85-14.73-1.34-43.32h18.72v-24.55l-13.84-14.29-237.09 8-12.48 10.31 9.41 128.59s-4-.45-7.14-.45a3.41 3.41 0 0 0 -3.58 2.68l2.24 20.54s34.38-.89 37.5-1.34 3.58-2.68 3.58-2.68l17-38.84 43.31-8s24.09 48.18 25.39 50.42 4 1.34 4 1.34 113.42-.9 115.65-1.34 3.13-3.13 3.13-3.13l1-2.81a39.29 39.29 0 0 1 -.46-8.11 31.48 31.48 0 0 1 4.45-14.81 27.59 27.59 0 0 1 7.37-7.92l3.23-8.77 40.64.9 21.43 43.75h6.7s5.35-21.43 5.8-26.79-4.24-5.19-4.24-5.19z" fill="#f4844f"/><path d="m225.57 129.08 5.36 136.64s40.63 1.78 40.19.44-1.34-138-1.34-138z" fill="#8e5494"/><circle cx="320.9" cy="271.75" fill="#8e5494" r="28.35"/><circle cx="120.42" cy="270.41" fill="#8e5494" r="28.35"/><ellipse cx="119.85" cy="269.1" fill="#f4844f" rx="15.28" ry="14.47"/><ellipse cx="322.12" cy="269.1" fill="#f4844f" rx="15.28" ry="14.47"/><path d="m280.38 153.53-.33 30.14 28.8 7.03z" fill="#8e5494"/><path d="m55.9 149.62 4.47 46.89 44.65-.89-3.13-47.34z" fill="#8e5494"/><path d="m114.39 149.18 1.79 47.78 45.13-.29-2.71-48.39z" fill="#8e5494"/><path d="m170.21 149.18-.87 48.38 44.21-.89-.48-47.94z" fill="#8e5494"/><path d="m101.21 193.05a1.49 1.49 0 0 0 .39-1.12l-3.6-47.78a1.5 1.5 0 0 0 -1.5-1.38l-45.1.44a1.53 1.53 0 0 0 -1.1.5 1.49 1.49 0 0 0 -.38 1.14l4.47 48.22a1.5 1.5 0 0 0 1.49 1.37l44.2-.9a1.46 1.46 0 0 0 1.13-.49zm-43.94-1.64-4.19-45.21 42.06-.42 3.35 44.8z" fill="#f4844f"/><path d="m166.19 193.54 44.2-.89a1.53 1.53 0 0 0 1.06-.47 1.49 1.49 0 0 0 .41-1.07l-1.34-47.78a1.5 1.5 0 0 0 -1.5-1.46l-45.1.45a1.45 1.45 0 0 0 -1.07.47 1.5 1.5 0 0 0 -.41 1.1l2.23 48.22a1.5 1.5 0 0 0 1.52 1.43zm41.41-48.65 1.25 44.79-41.23.83-2.09-45.21z" fill="#f4844f"/><path d="m157 192.63a1.53 1.53 0 0 0 .41-1.09l-1.79-48.22a1.5 1.5 0 0 0 -1.5-1.45l-45.1.45a1.51 1.51 0 0 0 -1.08.47 1.47 1.47 0 0 0 -.4 1.11l2.68 48.67a1.49 1.49 0 0 0 1.49 1.42l44.29-.89a1.53 1.53 0 0 0 1-.47zm-43.87-1.63-2.51-45.66 42.07-.41 1.67 45.24z" fill="#f4844f"/><g fill="#f0b81c"><path d="m117.14 236a30.13 30.13 0 1 0 21.32 8.83 30 30 0 0 0 -21.32-8.83zm19.19 49.34a27.15 27.15 0 1 1 7.95-19.19 26.93 26.93 0 0 1 -7.95 19.14z"/><path d="m117 248.67a17.09 17.09 0 1 0 17.09 17.09 17.11 17.11 0 0 0 -17.09-17.09zm0 31.18a14.09 14.09 0 1 1 14.09-14.09 14.11 14.11 0 0 1 -14.09 14.09z"/><path d="m318.07 236a30.13 30.13 0 1 0 21.32 8.83 30 30 0 0 0 -21.32-8.83zm19.19 49.34a27.15 27.15 0 1 1 7.95-19.19 26.93 26.93 0 0 1 -7.95 19.14z"/><path d="m318 248.67a17.09 17.09 0 1 0 17.09 17.09 17.11 17.11 0 0 0 -17.09-17.09zm0 31.18a14.09 14.09 0 1 1 14.09-14.09 14.11 14.11 0 0 1 -14.09 14.09z"/><path d="m212.67 206.49a1.5 1.5 0 0 0 0-3c-24.76.81-47.6 1.49-69.83 2.08a1.5 1.5 0 0 0 0 3c22.23-.57 45.07-1.27 69.83-2.08z"/><path d="m132 205.9c-4.75.14-9.56.26-14.2.38-6.73.17-13.69.35-20.58.6a1.5 1.5 0 0 0 0 3h.06c6.87-.26 13.82-.43 20.54-.6 4.65-.12 9.46-.24 14.22-.39a1.5 1.5 0 1 0 -.09-3z"/><path d="m81.51 207.35c-2.66.05-5.37.14-8 .23-2.18.07-4.44.14-6.64.19a1.5 1.5 0 0 0 0 3c2.22-.05 4.48-.13 6.67-.2 2.61-.08 5.32-.17 8-.22a1.5 1.5 0 1 0 -.07-3z"/><path d="m372.92 243.22a6.74 6.74 0 0 0 -4.29-2.21l-9-1.17-.43-37.1a1.5 1.5 0 0 0 -1.23-1.46l-52.54-9.52a1.37 1.37 0 0 0 -.13-.2l-3.61-4.56 6.06-4.54v4.2c0 1.84 1.87 1.86 3.71 1.86s3 0 3-1.86v-19.44c0-1.84-1.5-2.61-3.34-2.61s-3.34.77-3.34 2.61v11.44l-7.92 5.93-22.47-28.43-.25-13.2 14.23-1.22a1.5 1.5 0 0 0 1.37-1.42l.89-18.75a1.48 1.48 0 0 0 -.37-1.07l-17.87-20.1a1.5 1.5 0 0 0 -1.16-.5l-229.54 7.15a1.47 1.47 0 0 0 -.76.23l-19.64 12.5a1.52 1.52 0 0 0 -.7 1.37c.05.62.21 2.91.45 6.45v.16a1.15 1.15 0 0 0 0 .33c1.75 25.13 7.62 109 8.74 122.29h-6.78a4 4 0 0 0 -3.41 1.6c-1.65 2.29-.52 6.19-.27 7l3.11 15.54a1.49 1.49 0 0 0 1.47 1.2h.05l47.33-1.79a1.5 1.5 0 0 0 1.32-.89l17.54-39.91 40.06-7.67 23.15 48.54a1.5 1.5 0 0 0 1.35.86l121.45-1.34a1.52 1.52 0 0 0 1.38-.94l17.89-44.08 40.05 3 4.44 8.42a1.46 1.46 0 0 0 .22.43l17.28 32.83a1.5 1.5 0 0 0 1.45.8l5.36-.45a1.5 1.5 0 0 0 1.34-1.15c.2-.86 4.94-21.12 5.39-25.18a5.19 5.19 0 0 0 -1.03-3.98zm-71.92-52.22-3.76-.68 2-1.52zm-3.6-4.56-4.19 3.15-15.21-2.82-.49-25.65zm-224.19 84.56-45.11 1.7-2.88-14.37a1.21 1.21 0 0 0 0-.18c-.42-1.27-.76-3.54-.16-4.37.07-.11.25-.35 1-.35h8.48l46.1.86zm267.55-41.7a1.5 1.5 0 0 0 -1.21-.8l-42-3.13a1.52 1.52 0 0 0 -1.5.94l-11.05 27.27a1.63 1.63 0 0 0 -.45-.08l-16.55-.42v-.55a3.72 3.72 0 0 0 -.39 1.62 11.89 11.89 0 0 0 .42 3v.14-1.24l15.75.4-5.68 14-119.45 1.35-7.52-15.75h72.25v.45a12.94 12.94 0 0 0 .28-1.51c0-.25.06-.5.07-.75v-.19c0-.1 0-.2 0-.3a4.46 4.46 0 0 0 -.07-.51l-.06-.2-.1-.24v-.05l-.05-.07-.16-.2v.59h-73.59l-14.31-30a1.48 1.48 0 0 0 -1.63-.83l-42 8a1.5 1.5 0 0 0 -1.1.87l-8.82 20.08-46-.86c-.84-10.11-5.69-78.33-8.67-121.1l191.21-2.23a15.91 15.91 0 0 0 -.09-4.87 1.42 1.42 0 0 0 0 .29l.06 1.58-191.35 2.23c-.11-1.5-.21-3-.31-4.4l18.51-11.83 228.39-7.11 17 19.11v.66l-23.87.41a10.82 10.82 0 0 0 .18 3l23.54-.4-.62 13.17-14.32 1.22a1.52 1.52 0 0 0 -1.38 1.53l.27 13.85a1.5 1.5 0 0 0 0 1.75l.6 30.83a1.5 1.5 0 0 0 1.23 1.45l13.78 2.53-5 3.76a1.51 1.51 0 0 0 -.3 2.1 1.49 1.49 0 0 0 1.2.6 1.44 1.44 0 0 0 .9-.3l7.24-5.43 62.22 11.27.41 35.44-11.33-1.44zm30.24 17.5c-.38 3.37-4.09 19.46-5.09 23.76l-3.28.28-15.63-29.61 11 1.42 10.26 1.35h.05a4 4 0 0 1 2.28 1.11 2.27 2.27 0 0 1 .41 1.69z"/></g><path d="m268.83 253.1h-.8l-1.6-127h.66v-3h-.66v-1.63a1.5 1.5 0 0 0 -.46-1.06 1.53 1.53 0 0 0 -1.07-.43l-45.1.9a1.51 1.51 0 0 0 -1.06.47 1.49 1.49 0 0 0 -.41 1.08l.06 1.58 5.61 139.59a1.51 1.51 0 0 0 1.11.49h41.52a1.49 1.49 0 0 0 1.5-1.52l-.08-6.49h.8zm-42.26 8-5.24-137.23 18.84-.38 4.41 137.61zm21 0-4.41-137.67 20.22-.4 1.74 138.07z" fill="#f4844f"/></svg>