<svg viewBox="0 0 400 400" xmlns="http://www.w3.org/2000/svg"><circle cx="234.14" cy="99.35" fill="#f0b61c" r="37.17"/><path d="m104.85 100.6h.15c-.06-.09-.11-.18-.16-.27l-30.46.93 44.43 34.64z" fill="#e1547c"/><path d="m278 112-91.54.45-21.81-24.58-66.76-15 36.17 65.64-47.16 58.29-25.9-6.73 11.4 62.32 22.5 10.94 52.69 56.26 6.25 28.13 40.63.89 5.81-32.14 41.07-.9 8 34.38 45.1-1.78 3.57-37.51 39.29-47.78 5.36-96.44zm-93.28 38.62c-9.79 6.66-20.17 8.45-23.19 4s2.48-13.43 12.27-20.08 20.17-8.45 23.19-4-2.47 13.39-12.26 20.04z" fill="#e1547c"/><path d="m191.28 111h3.51a38.22 38.22 0 0 1 -3-5.63 37.65 37.65 0 1 1 69.37 0 38.22 38.22 0 0 1 -3 5.63h3.51a40.65 40.65 0 1 0 -70.45 0z" fill="#f58350"/><path d="m218.57 93a17.82 17.82 0 0 0 3 .8v17.2h3v-16.94a26.65 26.65 0 0 0 4.14-.21v17.15h3v-17.33a11.54 11.54 0 0 1 4.77 1.18 9.54 9.54 0 0 1 4.35 4.37c1.86 3.83.81 8.3-2.72 11.66l-.1.09h4a13.55 13.55 0 0 0 2.47-5.45 12 12 0 0 0 -1-7.61 12.5 12.5 0 0 0 -5.7-5.73 14.41 14.41 0 0 0 -6.12-1.52v-15.84a23.13 23.13 0 0 1 4.65 3 1.5 1.5 0 1 0 2-2.24 25.41 25.41 0 0 0 -6.64-4v-9.18a1.5 1.5 0 0 0 -3 0v8.15a15.65 15.65 0 0 0 -4.14-.46v-7.69a1.5 1.5 0 0 0 -3 0v8.11a15.15 15.15 0 0 0 -8.17 5.71 11.81 11.81 0 0 0 -2.56 5.94 9.32 9.32 0 0 0 1.21 5.68 12.06 12.06 0 0 0 6.56 5.16zm6-19.87a13.24 13.24 0 0 1 4.14.56v17.14a23.06 23.06 0 0 1 -4.09.23zm-8.8 5a12.71 12.71 0 0 1 5.8-4.42v17a14.86 14.86 0 0 1 -2-.57 9.12 9.12 0 0 1 -4.94-3.81c-1.41-2.48-1-5.5 1.16-8.27z" fill="#f58350"/><g fill="#8e5393"><path d="m351.34 93.26a1.5 1.5 0 1 0 -2.89.8c1.32 4.77.64 8.79-2 11.62a12 12 0 0 1 -.89.86c-1.8-3.3-4.3-5.44-7.07-5.88a11.7 11.7 0 0 0 -6.68.63 5.38 5.38 0 0 0 -3.18 3.86 5.1 5.1 0 0 0 1.47 4.39 9.48 9.48 0 0 0 5.2 2.56 15 15 0 0 0 8.88-1.18c.16.47.3 1 .43 1.46 1.65 6.5.85 16.18-6.82 22.06-5.53 4.24-10.28 4.86-13.7 4.36a1.63 1.63 0 0 0 .17-.2 11.82 11.82 0 0 0 3-8.42c-.24-4-1.42-7.36-3.41-9.6a8.4 8.4 0 0 0 -6.75-3 7.73 7.73 0 0 0 -5.46 2.65 9 9 0 0 0 -2.11 6.51 16.37 16.37 0 0 0 8.75 13.26c-.71.5-1.48 1-2.31 1.46a45.47 45.47 0 0 1 -8.43 3.62l-37-33.34a1.54 1.54 0 0 0 -1-.38l-82.78-.45-20.1-25.33a1.56 1.56 0 0 0 -.87-.54l-70.54-14.73a1.5 1.5 0 0 0 -1.7 2l11.3 28.26-38-1.3a1.5 1.5 0 0 0 -1.43.92 1.47 1.47 0 0 0 .34 1.66l44.45 42.71-30.62 40.3-29.88-6.49a1.5 1.5 0 0 0 -1.78 1.77l13.84 66.53a1.49 1.49 0 0 0 .9 1.08l32.33 13.25 37.45 40.09 8.35 38.91a1.5 1.5 0 0 0 1.47 1.18h46a1.5 1.5 0 0 0 1.48-1.24l4.7-27.35 34.2-.41 7.73 28.35a1.51 1.51 0 0 0 1.45 1.1l48.22-.89a1.52 1.52 0 0 0 1.47-1.33l3.52-30.82c1.68-2 10.57-12.88 19.37-23.72 5.71-7 10.25-12.7 13.52-16.83 6.46-8.19 6.46-8.5 6.46-9.17 0-1.31 2.34-59 3.57-89.25a1.49 1.49 0 0 0 -.49-1.17l-23.37-21.06a46.65 46.65 0 0 0 7.3-3.29 29.72 29.72 0 0 0 4.13-2.79 17.27 17.27 0 0 0 7.1.46 23.73 23.73 0 0 0 11-5c8.83-6.77 9.77-17.79 7.89-25.18q-.3-1.19-.69-2.28a12.74 12.74 0 0 0 4.94-7.73 17.66 17.66 0 0 0 -.43-8.32zm-9.89 15.51a11.84 11.84 0 0 1 -5.57.38c-3.09-.58-4.49-2.2-4.27-3.49s1.77-2.2 4.44-2.2a13.29 13.29 0 0 1 2 .16c1.84.29 3.64 2 5 4.54a10.88 10.88 0 0 1 -1.6.61zm-270.78-6.34 35.38 1.21 12.16 30.42-6.18 8.13zm260.33 67.78c-.35 8.63-3.34 82.44-3.53 88.3-2 3.23-24.19 30.56-39 48.52a1.4 1.4 0 0 0 -.33.78l-3.43 29.95-45.74.85-7.55-27.7 9.18-6.31a1.5 1.5 0 1 0 -1.7-2.47l-10.26 7.05-33.63.41a1.48 1.48 0 0 0 -.64-.37c-1-.57-5.17-3.54-8.9-6.25a1.5 1.5 0 0 0 -1.77 2.43s2.31 1.67 4.61 3.3c1.35 1 2.44 1.72 3.23 2.26l.13.08-4.67 27.14h-43.52l-8.23-38.1a1.47 1.47 0 0 0 -.37-.71l-37.95-40.63a1.5 1.5 0 0 0 -.53-.37l-31.86-13.09-13.21-63.49 28.56 6.21a1.52 1.52 0 0 0 1.51-.56l31.6-41.52a1.42 1.42 0 0 0 .45-.32 1.45 1.45 0 0 0 .4-.8l7.31-9.6a1.52 1.52 0 0 0 .2-1.47l-24-59.91 67.28 14.05 20.2 25.47a1.48 1.48 0 0 0 1.17.57l82.92.44 36.74 33.09a1.48 1.48 0 0 0 .85.76zm-10.1-32.31-.5-.22a13.35 13.35 0 0 1 -7.8-11.05c-.17-3.79 2.24-5.9 4.72-6h.26c3.12 0 6.36 3 6.76 9.76a8.93 8.93 0 0 1 -2.29 6.31 14.6 14.6 0 0 1 -1.2 1.2z"/><ellipse cx="64.26" cy="202.32" rx="2.45" ry="12.67" transform="matrix(.96722345 -.25392676 .25392676 .96722345 -49.25 22.94)"/><ellipse cx="123.53" cy="166.49" rx="12.67" ry="2.45" transform="matrix(.46762129 -.88392891 .88392891 .46762129 -81.4 197.82)"/></g></svg>