<svg viewBox="0 0 400 400" xmlns="http://www.w3.org/2000/svg"><path d="m199.41 68.36-29.02 39.29 1.34 24.56 21.43 56.71-45.54-11.61-28.14 4.46-23.66 23.67 4.02 29.47 17.41 10.71-11.16 13.4 12.06 26.34 16.52-1.34 11.16 36.62 33.04-4.02 29.92 21.43 108.05-4.46-.89-101.36-21.43-3.57-27.24-41.53-14.29-4.91-41.08-54.92.9-52.24z" fill="#f0b61c"/><g fill="#df4b77"><path d="m170.39 107.65 41.41 1.45.11 18.2 15.18 20.76-45.09 11.61-10.27-27.46z"/><path d="m167.93 145.27-9.04-10.38-1.01-10.72 3.6-4.34 2.77 12.72z"/><path d="m155.88 137.57-1.34-5.02v4.35l-23.45 7.03-4.69-7.84 28.14-3.54-29.47-3.02-10.05 23.44 24.11 9.38 22.44-21.43z"/><path d="m153.87 122.5-19.76-24.45 21.77-21.77 5.02 42.2-2.34 1.34-11.57-27.93-5.45 5.44 14.67 23.83z"/></g><path d="m204.08 72.36c-.43 5.19-1.94 23.17-3 35.65 1 .14 2 .24 3 .32 1-11.6 2.36-28.41 3.06-36.72a1.51 1.51 0 0 0 -.81-1.46l-15.63-8a1.52 1.52 0 0 0 -1.9.45l-28.11 38.4a1.48 1.48 0 0 0 -.28 1l.43 5.77a24.88 24.88 0 0 1 3-.31l-.38-5.13 27.05-36.92z" fill="#ed8354"/><path d="m309.39 222.25-9.12-.83-27.27-39.6a1.46 1.46 0 0 0 -.66-.54l-25.6-10.58c-6-6.83-13.13-14.91-19.84-22.59l-3.06 1.06c10.52 12 20.78 23.65 20.88 23.77a1.56 1.56 0 0 0 .55.4l25.49 10.54 27.43 39.82a1.52 1.52 0 0 0 1.1.65l8.46.77v99l-107.45 4.82-24.18-16.77 8.69-.75a1.48 1.48 0 0 0 1-.48l17.42-18.75a1.51 1.51 0 0 0 .35-1.41l-7.15-26.35a1.3 1.3 0 0 0 -.22-.46l2.39-5.71a1.47 1.47 0 0 0 0-1.05l-7.14-21.44v-.06l9.18-5.31a1.51 1.51 0 0 0 .74-1.43l-1.79-19.65a1.46 1.46 0 0 0 -.86-1.22l-2.46-1.1-14.27-29.38-5.58-15.69c-1 .22-2 .41-3 .55l4.87 13.52c-7.5-1.9-27.22-6.69-29.87-7.33a1.58 1.58 0 0 0 -.65 0l-38.84 7.59a1.58 1.58 0 0 0 -.72.36l-24.56 22.38a1.49 1.49 0 0 0 -.45 1.45l7.14 30.81a1.49 1.49 0 0 0 .77 1l14.07 7.28-9.77 17a1.5 1.5 0 0 0 0 1.41l13.8 28.05a1.49 1.49 0 0 0 1.34.83h.07l8.87-.36 12.51 28.53a1.5 1.5 0 0 0 1.38.9h.13l38-3.3 27.49 19.09a1.46 1.46 0 0 0 .86.27h.06l109.4-4.91a1.5 1.5 0 0 0 1.43-1.5v-101.8a1.5 1.5 0 0 0 -1.36-1.5zm-216.28 7.63-6.79-29.28 23.59-21.45 38.09-7.45c11.48 2.79 28.16 6.86 31.57 7.76l12.43 25.54-5.77-2.68a1.58 1.58 0 0 0 -.8-.13l-27.09 3.06-20.09-15.25a1.42 1.42 0 0 0 -.74-.3l-23.66-2.7a1.5 1.5 0 1 0 -.34 3l23.26 2.63 20.23 15.37a1.47 1.47 0 0 0 1.07.3l27.27-3.08 11.34 5.26 1.62 17.83-27.5 15.86-40.8 4.83zm18.36 53.95-13.06-26.54 9.43-16.41 21.23 11a1.49 1.49 0 0 0 .86.16l41.53-4.92a1.33 1.33 0 0 0 .57-.19l16.75-9.68 6.8 20.38-9.69 23.16zm22.8 29-11.56-26.43 64.29-2.66a1.52 1.52 0 0 0 1.32-.92l6.06-14.48 6.07 22.42-16.45 17.72z" fill="#ed8354"/><path d="m272.89 279.42-38.08-6.57-18.42-38.59a1.5 1.5 0 1 0 -2.71 1.29l18.76 39.3a1.49 1.49 0 0 0 1.1.83l38.84 6.7h.26a1.5 1.5 0 0 0 .25-3z" fill="#ed8354"/><path d="m226.42 146.39-22.1-26v-11a1.5 1.5 0 0 0 -1.46-1.5l-40.92-.79a1.48 1.48 0 0 0 -1.53 1.64l.75 7.84-.82.49-8.57-46.7a1.5 1.5 0 0 0 -2.61-.71l-21.88 25.41a1.49 1.49 0 0 0 0 2l25.61 28.25.1 3.17-31.16-4.89a1.53 1.53 0 0 0 -1.56.78l-10.61 20a1.52 1.52 0 0 0 -.11 1.16 1.54 1.54 0 0 0 .77.89l22.11 10.82a1.43 1.43 0 0 0 .66.16 1.54 1.54 0 0 0 .94-.33l22.31-17.9 11.84 8.14.09.06 5.16 14a1.5 1.5 0 0 0 1.4 1 1.74 1.74 0 0 0 .39 0l50.45-13.4a1.49 1.49 0 0 0 1.06-1 1.52 1.52 0 0 0 -.31-1.59zm-60.22-13.39 48.38 4.68 1 1.09-42.2 13.64zm45.41 1.38-45.85-4.38a1.4 1.4 0 0 0 -.29 0l-.49-5.14 36.34-9.39v5.53a1.52 1.52 0 0 0 .39 1zm-10.29-23.58v1.52l-36.64 9.46-1.12-11.71zm-48.1 24.2v.12l-21.54 6.91-2.41-3.38 23.93-3.65zm-3.83-61 8.2 44.72-.59.28-8.86-26.15a1.5 1.5 0 0 0 -2.58-.47l-4 4.92a1.49 1.49 0 0 0 -.13 1.71l12.76 21.68-.63.38a1.3 1.3 0 0 0 -.23.18l-22.91-25.25zm.61 33.78-5.47-9.31 1.64-2zm-17.08 46.38-19.87-9.72 9.39-17.68 30.67 4.82v.53a1.54 1.54 0 0 0 -.37 0l-26.35 4a1.46 1.46 0 0 0 -1.15.9 1.48 1.48 0 0 0 .16 1.45l4.46 6.25a1.52 1.52 0 0 0 1.22.63 1.43 1.43 0 0 0 .46-.07l20.69-6.64zm23.32-18.68-.39-12.2 5.64-3.38 1.16 12.07a1.54 1.54 0 0 0 .09.37l3.76 10.2s-9.63-7.48-10.26-7.11zm19.55 23.52-1.39-3.76 43.33-14 4.8 5.35z" fill="#8f5694"/></svg>