<svg viewBox="0 0 400 400" xmlns="http://www.w3.org/2000/svg"><g fill="#8b5393"><path d="m99.45 103.4-10.82 6.14s-4.36 3-3 9.38 4.22 11.39 8.26 18.42c4.24 7.36 9 12.33 11.39 10.49s-1.9-4.47-.89-8.82a20.16 20.16 0 0 1 3.57-7.48z"/><path d="m120.44 275.31s-13.06 14.69-14.44 30.81 1.9 26.12 1.9 26.12 10.45 4.36 32.37 5.13c25.23.9 36.72.23 36.72.23s-4.68-17.75-6.36-31.15a163.07 163.07 0 0 1 -1.11-24.89s-23.45 8.71-24.12 8.26c-.22-.18-18.71-9.15-24.96-14.51z"/><path d="m300.83 278.88s6.6 2.19 9.38 18.08c2.45 14.07-4.47 22.11-4.47 22.11s-2.29 7.7-26.12 11.83c-24.43 4.23-34.38 4.69-34.38 4.69s6.14-20.77 5.13-34.16a124.78 124.78 0 0 0 -4.24-24.11s35.5 2.68 54.7 1.56z"/></g><path d="m127.58 89.11-28.13 14.29 8.49 28.13 12.5-14.73z" fill="#f0b61c"/><path d="m92.31 263.59 22.1 7.36s-14.51 10.94-16.74 27.47 2.45 32.48 2.45 32.48-23.88-4.47-29.24-17.41-5.54-21.71 0-30.59c7.03-11.28 21.43-19.31 21.43-19.31z" fill="#f0b61c"/><path d="m178 276.31s-1.86 16.55-.67 30.25a200.9 200.9 0 0 0 5.36 30.37s14.29.86 29.91.22c16.41-.67 25.23-1.34 25.23-1.34s9.16-20 6.48-37.73c-2.12-14-4.69-21.43-4.69-21.43s-57.56-.78-61.62-.34z" fill="#f0b61c"/><path d="m85.61 249 12.06-71.88 82.6-48.67-11.61-28.13-48.22 16.48 9.39-33.93-10.28 4 6.25-11.61 17.86-5.36 39.74 17.87 14.27 46.9-79.38 47.39-4.55 66 38-60.28 70.54-12.5 75.91 43.31 38 54s2.24 4-.89 4.46-145.2-7.05-145.2-7.05l-42.87 14.74z" fill="#e2567c"/><path d="m326.64 269.12c-2.66-4-33.54-47.74-34.85-49.6a1.65 1.65 0 0 0 -.48-.43l-85.31-49.56a1.52 1.52 0 0 0 -1-.18l-57.6 10.27a1.46 1.46 0 0 0 -1 .7l-29.33 48.21 3.47-44.34 75.56-48.19a3.14 3.14 0 0 0 1.57-1.35c.76-1.26.8-3.06.11-5.36l-14.73-49.09a1.53 1.53 0 0 0 -.81-.93l-36.61-17a1.5 1.5 0 0 0 -1-.08l-25 7.14a1.51 1.51 0 0 0 -1 .83l-8.47 18.62a1.48 1.48 0 0 0 -.53.75l-11.21 6.68c.33 1 .65 1.94 1 2.92l12.45-7.39a1.5 1.5 0 0 0 .6-.67c2.83-1.17 12.38-5.1 14.74-5.88l.15-.05a7.86 7.86 0 0 1 -.61 1.48 1.66 1.66 0 0 0 -.12.31l-6.25 21.87a1.5 1.5 0 0 0 .22 1.29 170.15 170.15 0 0 0 -14.08 15.86l.93 3.82c5.43-7.76 14.87-17.17 16.51-18.79l38.04-12.41 9.31 24.3-80.68 49.35a1.51 1.51 0 0 0 -.69 1l-12.06 73.72a1.5 1.5 0 0 0 .8 1.58l16.15 8.19c-9.82 2.84-17.16 6.59-22.38 11.4a28.61 28.61 0 0 0 -7 9.75 30.45 30.45 0 0 0 -2.32 12.48 35.62 35.62 0 0 0 2.68 13.66 30 30 0 0 0 7.4 10.33c5.56 5.09 13.41 8.87 24 11.54-.24-1.09-.46-2.18-.66-3.28-9.35-2.51-16.33-5.95-21.27-10.47-6-5.51-9-12.64-9.11-21.8-.1-8.16 2.63-14.7 8.35-20 5.37-4.95 13.25-8.72 24.1-11.53l.21-.07 16.53 8.37a22.07 22.07 0 0 1 4 2.07l21.84 11.08a1.51 1.51 0 0 0 .68.16 1.4 1.4 0 0 0 .41-.06l27.62-7.77c0 .12 0 .26-.05.39 1-.35 2.08-.61 3.14-.87 0-.15 0-.28.06-.41l15-4.22 44.37 2.42a1.56 1.56 0 0 0 .28.58 37.67 37.67 0 0 1 4.12 7.23 60.22 60.22 0 0 1 5 20.51 67.63 67.63 0 0 1 -1.94 22 44.09 44.09 0 0 1 -2.63 7.44c-14.66.69-31 .77-48.6.77h-12.66q.16 1.5.39 3h12.27c18.54 0 35.65-.09 50.94-.89a11.75 11.75 0 0 0 1.28-3.07h-.26a52.07 52.07 0 0 0 2.14-6.38 70.78 70.78 0 0 0 2.08-23.07 63.12 63.12 0 0 0 -5.36-21.66 46.39 46.39 0 0 0 -3.4-6.26l82.92 4.49a23.3 23.3 0 0 0 3.09.06c2.57-.13 4.17-.77 4.89-2a3.14 3.14 0 0 0 -.34-3.51zm-4.84 2.53a20.61 20.61 0 0 1 -2.51-.07h-.07l-24.15-1.32a1.5 1.5 0 0 0 -.56-.67l-46-30.36a1.5 1.5 0 0 0 -1-.24l-10.39 1.27a1.5 1.5 0 0 0 -.53-.94l-20.53-17a1.49 1.49 0 0 0 -1.33-.3l-8.54 2.16a1.46 1.46 0 0 0 -.57-.64l-20.09-12.5a1.48 1.48 0 0 0 -1.4-.1l-49.56 21.88a1.5 1.5 0 0 0 .61 2.87 1.44 1.44 0 0 0 .6-.13l48.84-21.56 17.86 11.11-31.95 8.07a1.5 1.5 0 1 0 .73 2.91l43.47-11 18.81 15.55-22.64 2.76a1.5 1.5 0 1 0 .36 3l36.07-4.4 42.31 28-101.7-5.54a1.54 1.54 0 0 0 -.48.06l-45.46 12.76-61-30.94 11.77-71.92 81.12-49.65a1.49 1.49 0 0 0 .62-1.81l-10.25-26.79a1.5 1.5 0 0 0 -1.87-.89l-38.67 12.6 5.71-20c.59-1.13 1.62-3.56.4-5-.76-.9-2-1.08-3.61-.54-1.9.63-8 3.09-12 4.74l6.82-15 23.8-6.8 35.5 16.45 14.54 48.47c.64 2.14.28 2.92.12 3a1.84 1.84 0 0 0 -.38.17l-76.36 48.67a1.55 1.55 0 0 0 -.69 1.15l-4 51.35a1.5 1.5 0 0 0 2.77.9l32.25-53 56.39-10 84.52 49.12c2.66 3.76 32.09 45.47 34.62 49.26a2 2 0 0 1 .21.39 6.19 6.19 0 0 1 -2.53.44z" fill="#f5824c"/><path d="m118.92 102.89a1.5 1.5 0 0 0 -2.11-.2l-13.34 11c.27 1.07.54 2.14.8 3.22l14.44-11.91a1.51 1.51 0 0 0 .21-2.11z" fill="#f5824c"/><path d="m158.74 86.76a93.94 93.94 0 0 0 -2.74-9.62 3.35 3.35 0 0 0 -2.11-2 4.74 4.74 0 0 0 -3.54.53l-30.1 8.64-3.55-12.37c-.61-2.12-2.51-1.52-4.63-.91s-3.67 1-3.07 3.11l7.15 25c.5 1.76 2.47 1.14 4.29.52 2.09-.71 4-.59 3.4-2.72l-2.79-9.75 30.28-8.69a1.43 1.43 0 0 0 .38-.17 2 2 0 0 1 1.29-.33c.09 0 .17.13.25.32a89.69 89.69 0 0 1 2.6 9.13 1.49 1.49 0 0 0 1.46 1.15 1.32 1.32 0 0 0 .34 0 1.5 1.5 0 0 0 1.09-1.84z" fill="#8b5393"/><path d="m286.93 323.25c8.16-2.78 14.31-6.33 18.79-10.84a28.69 28.69 0 0 0 6.38-9.71 33.11 33.11 0 0 0 2.13-12.39c-.05-6.62-1.86-12-5.5-16.3l-4.09.05c4.38 4.06 6.54 9.39 6.59 16.27.07 8.18-2.43 14.71-7.64 20-4.15 4.18-9.91 7.49-17.63 10.12-7.09 2.41-15.71 4.2-26.34 5.46-5.94.7-12.28 1.21-19 1.58l-.45 1.05-.86 2c7.31-.38 14.21-.91 20.64-1.67 10.86-1.31 19.68-3.14 26.98-5.62z" fill="#e2567c"/><path d="m90.19 141.72c3 4.23 6.11 7.13 8.71 8.17a3.17 3.17 0 0 0 3 0c1.2-.86 1.1-2.45 1-4.47a21.07 21.07 0 0 1 1.48-10.55 33.07 33.07 0 0 1 3-5.12l-1-3.7-2.38-8.88-.86-3.17h-.07l-4.07-14.66.12-.07-.82-3-14.3 8.52a1.54 1.54 0 0 0 -.29.23c-.27.26-6.42 6.63-1.7 20.3a65.71 65.71 0 0 0 8.18 16.4zm-6.43-30.5a10.71 10.71 0 0 1 1.92-4l10.66-6.32 7.47 27a1.52 1.52 0 0 0 .64.86 33.08 33.08 0 0 0 -2.79 4.83 23.65 23.65 0 0 0 -1.74 12c0 .5.06 1.09.07 1.53-2-.82-4.76-3.48-7.35-7.12a62.9 62.9 0 0 1 -7.84-15.63c-1.69-4.93-2.05-9.47-1.04-13.15z" fill="#e2567c"/><path d="m137.9 330.78c11.07.47 36.78 1.05 36.88 1a14.65 14.65 0 0 1 1.87-.42c-.1-.4-.5-3-.62-3-.91-4.48-3.82-17.28-4.53-27.62-.76-11 1.06-25.54 1.55-29.11l-3.23 1.49c-.68 5.43-2 17.8-1.31 27.82a241.17 241.17 0 0 0 4 27.41c-12.17 0-23.74-.14-34.5-.6-16-.68-28-2-37.81-4.29l-.25-.05c-.41-1.47-4.38-16.59.89-30.64a50.25 50.25 0 0 1 11.44-18.11 30.73 30.73 0 0 1 6.6-5.19 2 2 0 0 0 .45-.36l-3.08-1.56a38.18 38.18 0 0 0 -6 4.87 53.21 53.21 0 0 0 -12.24 19.3c-3.07 8.19-3.16 16.62-2.7 22.26a104.34 104.34 0 0 0 1.69 11.81q1.26.33 2.58.63c9.95 2.28 22.14 3.66 38.32 4.36z" fill="#e2567c"/></svg>