<svg viewBox="0 0 400 400" xmlns="http://www.w3.org/2000/svg"><circle cx="268.65" cy="40.64" fill="#df4b77" r="14.3"/><path d="m95 196.32-14.73-103.79s52.31-13.89 79.28-9 28.6 15.53 28.6 15.53l-2.57 17.8 81.84-4.72 9.81 98.86-84.18-.81s-30.23 2.45-20.12-13.68c6.51-10.38 15.22-18.2-6-14.93s-71.93 14.74-71.93 14.74z" fill="#df4b77"/><g fill="#8e5592"><path d="m117 123.13a13.46 13.46 0 0 0 -5.65-1.74l-2-11.93c1.08 0 2 0 2.71.1a1.5 1.5 0 0 0 .22-3c-.09 0-1.45-.1-3.44-.09l-1.73-10.1a1.5 1.5 0 1 0 -3 .5l1.66 9.7-1.42.1c-1.12.11-2.17.24-3.16.41l-1.48-8.27a1.5 1.5 0 1 0 -3 .53l1.51 8.42a11.92 11.92 0 0 0 -5.84 3.34 6.93 6.93 0 0 0 -1.38 6.29 7.89 7.89 0 0 0 5.77 6.08 18.85 18.85 0 0 0 4.38.67l3 16.56a62.87 62.87 0 0 1 -12.13-1.41 1.5 1.5 0 0 0 -.69 2.92 65.29 65.29 0 0 0 8.18 1.26c1.73.16 3.37.24 4.91.24h.26l1.86 10.39a1.51 1.51 0 0 0 1.48 1.24 1.09 1.09 0 0 0 .26 0 1.5 1.5 0 0 0 1.22-1.74l-1.79-10a27.46 27.46 0 0 0 4.27-.68l1.92 11.19a1.5 1.5 0 0 0 1.47 1.25 1.15 1.15 0 0 0 .26 0 1.49 1.49 0 0 0 1.22-1.73l-2-11.66c4.15-1.85 6.81-5.26 7.16-9.22a10.17 10.17 0 0 0 -5.01-9.62zm-23-6.42a3.88 3.88 0 0 1 .74-3.65 8.8 8.8 0 0 1 4.09-2.33l1.85 10.37c-3.68-.28-5.96-1.25-6.68-4.39zm9.75 4.49-2-11.16a40 40 0 0 1 4.56-.5l2 11.67c-1 0-1.93 0-2.9 0zm3.48 19.41-2.94-16.41h1.14 3.4l2.69 15.7a24.17 24.17 0 0 1 -4.3.71zm11.84-8.18a8.21 8.21 0 0 1 -4.69 6.4l-2.46-14.34a9.26 9.26 0 0 1 3.53 1.19 7.19 7.19 0 0 1 3.61 6.75z"/><path d="m247.15 146.73a13.3 13.3 0 0 0 -5.35-2.51l-.37-12.1c1.07.16 2 .32 2.67.47a1.5 1.5 0 1 0 .63-2.93c-.09 0-1.42-.3-3.39-.57l-.34-10.25a1.5 1.5 0 0 0 -3 .09l.3 9.83-1.43-.09q-1.68-.07-3.18 0l-.31-8.4a1.5 1.5 0 1 0 -3 .11l.32 8.55a11.91 11.91 0 0 0 -6.24 2.5 6.89 6.89 0 0 0 -2.24 6 7.85 7.85 0 0 0 4.86 6.82 19 19 0 0 0 4.25 1.28l.63 16.81a62.74 62.74 0 0 1 -11.81-3.08 1.5 1.5 0 0 0 -1.09 2.79 63 63 0 0 0 13 3.34l.4 10.55a1.5 1.5 0 0 0 1.49 1.44h.06a1.49 1.49 0 0 0 1.44-1.56l-.38-10.14h1.71a25.1 25.1 0 0 0 2.62-.14l.34 11.36a1.49 1.49 0 0 0 1.5 1.45 1.5 1.5 0 0 0 1.46-1.54l-.27-11.81c4.36-1.25 7.47-4.25 8.37-8.12a10.15 10.15 0 0 0 -3.65-10.15zm-21.91-9.56a3.86 3.86 0 0 1 1.24-3.52 8.86 8.86 0 0 1 4.37-1.74l.39 10.53c-3.58-.78-5.72-2.06-6-5.27zm8.6-5.53a38.6 38.6 0 0 1 4.58.14l.36 11.83c-.95-.15-1.91-.28-2.87-.41l-1.65-.23zm1.17 31-.63-16.64 1.13.15c1.13.15 2.26.31 3.36.5l.49 15.92a24.14 24.14 0 0 1 -4.36.1zm12.87-6.45a8.22 8.22 0 0 1 -5.54 5.68l-.44-14.54a9.48 9.48 0 0 1 3.33 1.67 7.23 7.23 0 0 1 2.65 7.22z"/><path d="m216.15 143.1c-6.6-6.38-20.26-6.4-28.51-5.92-.29 1.25-4.52 20.93-6 29.29 2.76.22 6.4.42 10.36.39 11.32-.09 19.32-2 23.79-5.72a10.82 10.82 0 0 0 4.12-8.06 12.46 12.46 0 0 0 -3.76-9.98z"/><path d="m335.93 374.36a1.49 1.49 0 0 0 -1.61-1.37l-22.32 1.81-45.11-322.72a17 17 0 1 0 -9.05.82l5 45.51-74.56 4c.5-3.39 1.57-10.61 2.18-13.64a9.44 9.44 0 0 0 -1.22-7.86c-3.46-5-12.82-8.58-28.62-11.08-7.2-1.13-16.71-1.28-28.26-.42-9.2.68-19.72 2-31.27 3.9-19.64 3.24-35.7 7.13-35.86 7.17a1.5 1.5 0 0 0 -1.13 1.67c.57 4.07 13.91 99.82 14.74 103.12a1.5 1.5 0 0 0 1.8 1.1c.55-.13 54.86-13.07 72.52-14.68 11.57-1 15.78 1.12 17.27 3.12a4.52 4.52 0 0 1 .75 1.58v.07a1.49 1.49 0 0 0 .17 1 10.61 10.61 0 0 1 -.91 4.42 31.17 31.17 0 0 1 -2 3.91c-1.5 2.66-2.93 5.17-1.63 7.47.88 1.56 2.77 2.58 6.14 3.29a87.68 87.68 0 0 0 14.36 1.28c5.52.16 12.19.23 19.34.23 28.48 0 64.47-1 64.92-1.05a1.5 1.5 0 1 0 -.08-3c-.57 0-56.67 1.62-84.09.81a83.5 83.5 0 0 1 -13.83-1.22c-3.08-.65-3.92-1.42-4.15-1.82-.46-.82.56-2.62 1.63-4.52.57-1 1.2-2.11 1.75-3.31l78.27 1.61a1.51 1.51 0 0 0 1.21-.61 1.53 1.53 0 0 0 .21-1.36 12.48 12.48 0 0 1 -.44-4.68 7.39 7.39 0 0 1 5.25-6.51c8.42-3.06 13.1-2.39 13.13-2.38h.22l22.58 206.29-19.4 1.57a1.5 1.5 0 0 0 .12 3h.12l19.48-1.58v.08l14.53-1.26 26.48-2.12a1.5 1.5 0 0 0 1.37-1.64zm-75.05-324.19a14 14 0 1 1 14-14 14 14 0 0 1 -14 14zm2.27 51.23 1.37 12.6a1.53 1.53 0 0 0 -1.43.39s-2.86 2.65-9.24 1.24c-6-1.34-6.95-4.29-7-4.57a1.45 1.45 0 0 0 -1.57-1.19l-59.1 4 1.61-8.42zm-131.15 24.29c.19 3 2 6.17 5.11 8.81a25.26 25.26 0 0 0 10.69 5.26 77.76 77.76 0 0 1 20.56 7.87 52.32 52.32 0 0 1 7.39 4.87l-1.7 8.88c-1.27-.58-2.84-1.26-4.67-1.92a48.77 48.77 0 0 0 -18.88-3.05c-12.57.74-37.81 6.64-43.35 8a29.77 29.77 0 0 0 -7.18-6.86c-2.72-1.95-6.16-2.41-10-1.35a19 19 0 0 0 -2.81 1.05l-8.32-57.63a14.71 14.71 0 0 0 2.16.38 14.47 14.47 0 0 0 10-3c2.77-2.08 4.33-4.34 4.64-6.71a6.38 6.38 0 0 0 -.15-2.29c5.28-.83 21.73-3.09 48.57-3.74a101.42 101.42 0 0 1 20.36 1.37 58.42 58.42 0 0 1 12.94 3.79c6.32 2.77 8.76 5.66 8.81 5.72a.86.86 0 0 0 .13.14c-.62 4-1.2 8-1.26 8.48l-3.33 17.43a57.73 57.73 0 0 0 -12.26-6.19 47.81 47.81 0 0 0 -12.65-2.82 33.52 33.52 0 0 0 -14.11 1.8 20.15 20.15 0 0 0 -8.3 5.08 9 9 0 0 0 -2.39 6.63zm40 46.31a12.78 12.78 0 0 0 -6.28-3 43.59 43.59 0 0 0 -12.84-.36c-16.4 1.49-62.21 12.2-71.4 14.38-1.72-10.61-10.51-73.34-14.23-100 4.21-1 18-4.13 34.34-6.82 11.46-1.89 21.89-3.19 31-3.86 11.32-.84 20.59-.7 27.56.4 8.21 1.29 14.71 2.92 19.31 4.84 3.59 1.49 6.05 3.17 7.31 5 1.44 2.07 1.07 3.93.75 5.56-.18.89-.4 2.12-.62 3.49a33.41 33.41 0 0 0 -8-4.87 60.49 60.49 0 0 0 -13.66-4.08 104.36 104.36 0 0 0 -21.24-1.45c-33.24.81-50.74 4.08-50.91 4.11a1.49 1.49 0 0 0 -.89 2.41 3.12 3.12 0 0 1 .46 2.16c-.19 1.52-1.39 3.14-3.46 4.69a11.36 11.36 0 0 1 -7.87 2.4 10.76 10.76 0 0 1 -3.65-.88 1.51 1.51 0 0 0 -2.16 1.56l9 62.11a1.49 1.49 0 0 0 2.32 1c.06 0 6.55-4.28 11.37-.84 5.18 3.7 6.81 6.68 6.89 6.81a1.46 1.46 0 0 0 1.32.83 1.5 1.5 0 0 0 .37-.05c.3-.07 30.26-7.33 43.86-8.13a45.56 45.56 0 0 1 17.62 2.85 55 55 0 0 1 5.18 2.17zm84.3-2.46a10.3 10.3 0 0 0 -7.21 9 15 15 0 0 0 .12 3.93l-75.33-1.47a11 11 0 0 0 .34-4.65l11.36-59.45 58.79-4a8.11 8.11 0 0 0 1.21 1.69 14.22 14.22 0 0 0 7.62 3.92 19.12 19.12 0 0 0 4.25.49 13.85 13.85 0 0 0 4.65-.74 9.6 9.6 0 0 0 2.73-1.45l5.5 50.18c-1.64-.13-6.48-.16-14.04 2.59z"/></g></svg>