<svg viewBox="0 0 400 400" xmlns="http://www.w3.org/2000/svg"><path d="m378.48 175.42c-17-65.64-68.76-77.25-68.76-77.25s4.46-15.18-21-25.45-39-9.21-39-9.21-1.62-11.78-16.8-13.51c-16.07-1.89-20.1 9.37-20.1 9.37s-23.66-4.46-47.33.9a71.63 71.63 0 0 0 -37.06 21.83s-11.16 0-17.41 4-8 11.61-8 11.61-12-1.78-26.79 10.27c-10.8 8.84-12.72 24.64-13 32.44h1.49l2.08-1.51 17.61-.57-2.93 2.14.81 24.52a1.22 1.22 0 0 0 0 .33l.38 11.25-27.67.25a24.77 24.77 0 0 0 -.23 15.11c5.36 17.86 33 21.88 33 23.22s-8 8 .89 14.73 21.24.86 21.24.86 14.96 19.68 41.3 19.25 34.39-9.82 34.39-9.82a28.57 28.57 0 0 0 17 4.47c5.43-.24 7.37-.6 8-.89-.2 1.86-.63 9 3.62 12 4.91 3.57 13.84 4.91 13.84 4.91s-3.57 8.93 5.36 15.18 16.08 7.59 17 19.2-.45 56.71-.45 56.71l15.55 6.24.89-88s7.17 2.73 10.27 3.12c10.72 1.34 12.95-2.68 12.95-2.68s23.8 7.69 45.1-6.25c24.56-15.99 16.07-31.19 16.07-31.19s36.21-24.52 27.69-57.58zm-182.35 6.07-70.82-.49-3.31-40.72 35.51-.41 38.18-.44z" fill="#e2567c"/><g fill="#8d5393"><path d="m363.87 168.85a115.24 115.24 0 0 0 -11.34-30.85 123 123 0 0 0 -15.22-22 107.5 107.5 0 0 0 -18.65-17.32 51.07 51.07 0 0 0 -4-11.27 48.13 48.13 0 0 0 -6.74-10.29 40.78 40.78 0 0 0 -11.29-9.23 49.69 49.69 0 0 0 -22.8-6.55 32.58 32.58 0 0 0 -7.88.73 30.49 30.49 0 0 0 -5.65-7.76 37.31 37.31 0 0 0 -9.4-6.86 48.11 48.11 0 0 0 -15.05-4.73 52 52 0 0 0 -15.24-.25 31.53 31.53 0 0 0 -10 3.08 20.6 20.6 0 0 0 -6.45 5 76.71 76.71 0 0 0 -13.73-1.55 105.27 105.27 0 0 0 -16.35.8 117 117 0 0 0 -20.65 4.57 102.92 102.92 0 0 0 -18.21 7.63 61.32 61.32 0 0 0 -11 7.58 33.71 33.71 0 0 0 -6 6.7c-2.27-1.42-7-2.8-15.08 1.89-7.5 4.37-9 8.56-9.07 11.1a26.11 26.11 0 0 0 -8.68.74 35.4 35.4 0 0 0 -10.89 4.9 54.09 54.09 0 0 0 -12.42 11.76 61.31 61.31 0 0 0 -10 17.26 29.12 29.12 0 0 0 -1.73 12.48c.08.71.18 1.39.31 2h2.74.34a18.61 18.61 0 0 1 -.43-2.62 26.6 26.6 0 0 1 1.69-11.12 58.8 58.8 0 0 1 9.46-16.2 50.94 50.94 0 0 1 11.54-11.02 32.46 32.46 0 0 1 9.89-4.53 20.72 20.72 0 0 1 9.54-.45 1.52 1.52 0 0 0 1.57-.47 1.44 1.44 0 0 0 .15-1.61 3.78 3.78 0 0 1 .16-2.61c.6-1.63 2.35-4.17 7.28-7.05s8.21-3 10.06-2.67a4.89 4.89 0 0 1 2.73 1.39 1.44 1.44 0 0 0 1.35.61 1.47 1.47 0 0 0 1.21-.91s1.49-3.25 6.41-7.53c4.58-4 13.14-9.71 28-14.42a108.94 108.94 0 0 1 35.89-5.24 68.25 68.25 0 0 1 14.16 1.69 1.5 1.5 0 0 0 1.67-.66 16.36 16.36 0 0 1 6.15-4.92 28.69 28.69 0 0 1 9-2.7 49 49 0 0 1 14.18.28 45.16 45.16 0 0 1 14 4.37 34.25 34.25 0 0 1 8.6 6.22 25.18 25.18 0 0 1 5.63 8.06 1.51 1.51 0 0 0 1.9.91 26.64 26.64 0 0 1 8.35-.92 46.62 46.62 0 0 1 21.25 6.17 38 38 0 0 1 10.45 8.54 45.61 45.61 0 0 1 6.32 9.62 46.44 46.44 0 0 1 3.93 11.18 1.53 1.53 0 0 0 .65 1 103.24 103.24 0 0 1 18.63 17.2 119.91 119.91 0 0 1 14.82 21.47 112.79 112.79 0 0 1 11 30c2.18 10.31 2.23 19.52.14 27.37a36.21 36.21 0 0 1 -8.92 16 36.89 36.89 0 0 1 -16 9.74 1.49 1.49 0 0 0 -1.12 1.75 39.82 39.82 0 0 1 -.36 14.24 30.89 30.89 0 0 1 -5.08 11.77 30 30 0 0 1 -12.46 9.83 55.79 55.79 0 0 1 -16.27 4.53 50.09 50.09 0 0 1 -13-.16 39.47 39.47 0 0 1 -11.86-3.38 1.48 1.48 0 0 0 -1-.15c-.13 0-13 2.09-23.66-3a50.58 50.58 0 0 1 -17.29-14.26 1.5 1.5 0 1 0 -2.44 1.75 52.85 52.85 0 0 0 18.43 15.21 37.2 37.2 0 0 0 9.86 3l-.34 84.29-11.7-3.19c.29-6.54 1.43-36.88-1.44-47.91a18.82 18.82 0 0 0 -5.75-9.41 47.41 47.41 0 0 0 -8.38-5.69c-3.4-2-6.61-3.84-9-6.5-2.17-2.47-3.12-7.08-2.78-13.42a1.55 1.55 0 0 0 0-.48c.05-.67.1-1.36.17-2.06a76.27 76.27 0 0 1 2-11.23 1.48 1.48 0 0 0 -.34-1.41 1.46 1.46 0 0 0 -1.37-.46 114 114 0 0 1 -21 1.31 55.24 55.24 0 0 1 -5.55-1.28 32.72 32.72 0 0 1 -5.9-2.53c-6.48-4-12.42-10.57-16.25-15.35a105.71 105.71 0 0 1 -6.9-9.6 1.47 1.47 0 0 0 -1-.68 1.49 1.49 0 0 0 -1.19.28 127.94 127.94 0 0 1 -13.82 8.92c-10 5.52-18.07 7.9-23.38 6.87-9.93-1.92-14.07-5.46-18.87-9.57-1.7-1.45-3.45-2.94-5.54-4.46a43.78 43.78 0 0 0 -9.17-4.53c-7.54-3-15.33-6.21-17.94-16.07a22.83 22.83 0 0 1 -.36-10 29.74 29.74 0 0 1 2.93-8.36c.41-.8.85-1.55 1.27-2.25h-3.41l-.42.79a32.63 32.63 0 0 0 -3.25 9.27 25.85 25.85 0 0 0 .4 11.39 21.53 21.53 0 0 0 8.17 12.17c3.57 2.68 7.62 4.32 11.55 5.91a41.59 41.59 0 0 1 8.53 4.18c2 1.45 3.7 2.9 5.35 4.31s3 2.6 4.71 3.82a13.62 13.62 0 0 1 -3.87 2.56c-4.36 2-10.1 2.29-16.61.92-4.71-1-7.78-2.93-9.1-5.75-2.1-4.45.71-9.89.74-9.94a1.5 1.5 0 0 0 -1.5-2.19 37.34 37.34 0 0 1 -12.34-1.19 34.91 34.91 0 0 1 -10.94-5 34.21 34.21 0 0 1 -10.08-11 23.38 23.38 0 0 1 -3.42-13.62 24.47 24.47 0 0 1 1.43-6.57h-3.17a26.78 26.78 0 0 0 -1.25 6.38 26.4 26.4 0 0 0 3.82 15.39 37.16 37.16 0 0 0 11 11.94 38 38 0 0 0 11.88 5.39 42.28 42.28 0 0 0 11 1.39c-.82 2.47-1.62 6.52.14 10.29s5.52 6.22 11.21 7.42a36.71 36.71 0 0 0 11.18.77 23.19 23.19 0 0 0 7.51-2 17.15 17.15 0 0 0 3.77-2.38 43.5 43.5 0 0 0 6.6 11.23 38.23 38.23 0 0 0 11.39 9.54 40.47 40.47 0 0 0 18.31 4.74 75.54 75.54 0 0 0 18.7-1.61 55.38 55.38 0 0 0 12.78-4.49 37.45 37.45 0 0 0 9-6.08 33.23 33.23 0 0 0 5.56 2.27c2.05.59 3.9 1 5 1.2a11.25 11.25 0 0 0 1.19 2.51 20.92 20.92 0 0 0 7.8 6.88c4.86 2.7 8 3.42 9.85 3.49-.15 6.46 1.06 11.17 3.59 14.05 2.68 3 6.26 5.11 9.72 7.11 5.62 3.26 10.94 6.34 12.73 13.26 3 11.7 1.31 47.86 1.29 48.22a1.51 1.51 0 0 0 1.11 1.52l14.73 4a1.75 1.75 0 0 0 .4.05 1.48 1.48 0 0 0 .9-.3 1.55 1.55 0 0 0 .6-1.19l.44-85.85c1.53.16 3 .24 4.22.27a52.15 52.15 0 0 0 7.88-.39 43.63 43.63 0 0 0 12.19 3.5 52.92 52.92 0 0 0 13.84.2 58.77 58.77 0 0 0 17.21-4.72 33 33 0 0 0 13.71-10.87 33.94 33.94 0 0 0 5.57-13 43 43 0 0 0 .55-14 40.26 40.26 0 0 0 16-10.08 39 39 0 0 0 9.81-17.32c2.19-8.34 2.16-18.05-.13-28.88zm-186.1 81.47a52.55 52.55 0 0 1 -12.13 4.21 72.93 72.93 0 0 1 -18 1.55 37.63 37.63 0 0 1 -16.9-4.35 35.25 35.25 0 0 1 -10.45-8.73 40.63 40.63 0 0 1 -5.72-9.39 40.78 40.78 0 0 0 10.9 3.57c6.09 1.18 14.64-1.24 25.4-7.19a132.64 132.64 0 0 0 12.89-8.2c1.13 1.71 3.29 4.86 6.2 8.49a74.8 74.8 0 0 0 15.47 15 35.87 35.87 0 0 1 -7.66 5.04zm40 8.72c0 .42-.08.83-.11 1.24-1.23 0-3.88-.53-8.55-3.12a18.16 18.16 0 0 1 -6.59-5.65q-.3-.48-.51-.87a118.62 118.62 0 0 0 17.32-1 77.85 77.85 0 0 0 -1.58 9.36z"/><path d="m166.61 89.38c2.95-.45 5.19-2.91 7.56-5.52 3-3.32 6.13-6.74 10.9-6.52a28.8 28.8 0 0 1 9.23 2.42 22 22 0 0 0 6.09 1.78 7 7 0 0 0 6-2.45c5.39-5.88 3.13-15.27 3-15.67a1.5 1.5 0 0 0 -2.91.73c0 .08 2 8.23-2.33 12.91-2.16 2.35-4.36 1.63-8.73-.09a31 31 0 0 0 -10.19-2.62c-6.17-.3-10.1 4-13.26 7.49-2 2.2-3.9 4.29-5.79 4.58-2.62.4-5.23-1-8-2.58s-5.42-3-8.63-3.24a11.81 11.81 0 0 0 -7 2.12 16.67 16.67 0 0 0 -5.36 5.55c-1.85 3.25-1.9 6.43-.15 9 1.5 2.16 1.32 5.12-.56 9-2 4.11-5.46 8.53-8.29 11.92s-5.22 5-7.46 5-4.68-1.57-7.66-5a10.6 10.6 0 0 0 -10.78-3.44 17.22 17.22 0 0 0 -5.51 2.25 1.5 1.5 0 0 0 1.69 2.48 14.19 14.19 0 0 1 4.44-1.84 7.62 7.62 0 0 1 7.87 2.48c3.62 4.18 6.67 6 9.88 6h.08c3.21 0 6.31-2 9.74-6.07 2.93-3.53 6.57-8.13 8.68-12.54a17.26 17.26 0 0 0 1.83-6.21 8.89 8.89 0 0 0 -1.5-5.84c-.75-1.09-1.31-3 .29-5.77 2-3.57 6.4-6.39 9.53-6.17 2.56.18 5 1.55 7.4 2.87 3.08 1.78 6.29 3.55 9.9 2.99z"/><path d="m257.72 242.7c-4.86-.81-8.62-2.32-22.11-12.66-7.47-5.73-14.21-4.88-18.54-3.16a21.83 21.83 0 0 0 -7.6 5.14 1.5 1.5 0 0 0 2.24 2 19 19 0 0 1 6.57-4.39c5.22-2 10.44-1.1 15.51 2.79 13.2 10.12 17.62 12.27 23.44 13.24h.25a1.5 1.5 0 0 0 .24-3z"/><path d="m226.38 183.81a1.5 1.5 0 1 0 -3 .18c.19 3.22-1.81 7.24-5.36 10.73a30.13 30.13 0 0 1 -14.45 7.81 23.35 23.35 0 0 0 -12.69 7.05 15.75 15.75 0 0 0 -3.15 5.12 1.51 1.51 0 0 0 1 1.89 1.76 1.76 0 0 0 .45.07 1.5 1.5 0 0 0 1.43-1c0-.08 2.55-7.69 13.63-10.15a33.25 33.25 0 0 0 15.91-8.6c4.19-4.21 6.47-8.91 6.23-13.1z"/><path d="m288.17 179.31a1.5 1.5 0 0 0 -1.79 1.13c-1.28 5.54-3.55 8.45-7.83 10s-11.14 2-23.22 1.31c-8-.47-14 1.2-17.77 5a14.78 14.78 0 0 0 -4.05 7.81 21.44 21.44 0 0 0 -.32 5.41v.27a1.5 1.5 0 0 0 3 0c0-.11 0-.24 0-.43-.25-4.68.92-8.36 3.5-10.93 3.15-3.14 8.36-4.52 15.47-4.11 12.53.74 19.61.31 24.45-1.48a13.86 13.86 0 0 0 6.4-4.56 19.05 19.05 0 0 0 3.3-7.62 1.51 1.51 0 0 0 -1.14-1.8z"/><path d="m248.78 168.13a1.5 1.5 0 1 0 -.47 3 20.81 20.81 0 0 0 3 .19 24.44 24.44 0 0 0 13.71-4 29.13 29.13 0 0 0 9.32-10.13 56 56 0 0 0 10.4 2 49.35 49.35 0 0 0 11.44-.23 37.06 37.06 0 0 0 12.47-4 33.61 33.61 0 0 0 10.12-8.71 49.72 49.72 0 0 0 6.23-10.46 58.4 58.4 0 0 0 4.07-12.34 1.5 1.5 0 0 0 -2.95-.55 56.12 56.12 0 0 1 -3.85 11.66 46.54 46.54 0 0 1 -5.83 9.72 30.3 30.3 0 0 1 -9.21 7.94 33.93 33.93 0 0 1 -11.41 3.68 46.27 46.27 0 0 1 -10.7.23 50.5 50.5 0 0 1 -11.05-2.22 1.51 1.51 0 0 0 -1.9.87c0 .05-2.2 5.47-8.83 10s-14.45 3.37-14.56 3.35z"/><path d="m326.12 159.67a1.49 1.49 0 0 0 -1.79 1.12 29.43 29.43 0 0 1 -6.44 13.36 21 21 0 0 1 -8.72 5.78 24.65 24.65 0 0 1 -11.25 1.15 1.5 1.5 0 0 0 -.53 3 22.81 22.81 0 0 0 3.59.25 28.18 28.18 0 0 0 9.06-1.48 24 24 0 0 0 10-6.59 32.21 32.21 0 0 0 7.19-14.76 1.49 1.49 0 0 0 -1.11-1.83z"/><path d="m339.84 151.63a1.5 1.5 0 0 0 -2.21 2 19.12 19.12 0 0 1 3.51 6.3 13.92 13.92 0 0 1 -2.68 13.63 1.49 1.49 0 0 0 .24 2.1 1.41 1.41 0 0 0 .93.33 1.48 1.48 0 0 0 1.17-.56 16.92 16.92 0 0 0 3.2-16.5 21.71 21.71 0 0 0 -4.16-7.3z"/><path d="m331.92 198-.61-.27c-1.06-.47-2.35-1.26-2.45-2.3-.08-.82.47-1.92 1.57-3.12a13.88 13.88 0 0 1 2-1.8 1.5 1.5 0 0 0 -1.73-2.46c-.53.38-5.24 3.79-4.86 7.66.19 2 1.61 3.6 4.22 4.76l.61.27c3 1.35 5.23 2.32 5.68 3.11.35.62-.3 2.25-1.25 4.48a1.49 1.49 0 0 0 .79 2 1.36 1.36 0 0 0 .59.12 1.51 1.51 0 0 0 1.38-.9c1.24-2.9 2.22-5.19 1.09-7.16-.9-1.69-2.95-2.6-7.03-4.39z"/><path d="m317.75 227.56c-3.11-.95-3.58-3.65-4.22-8.74a58.65 58.65 0 0 0 -1-6.24 7.33 7.33 0 0 0 -3.13-4.78c-3.11-1.92-7.58-.86-11.9.16h-.12c1.5-.7 3.28-1.44 5.25-2.14 2.8-1 4.58-2.55 5.3-4.64 1.11-3.23-.88-6.38-1-6.51a1.5 1.5 0 1 0 -2.52 1.62 5.27 5.27 0 0 1 .65 3.91c-.41 1.19-1.57 2.13-3.46 2.79a60.6 60.6 0 0 0 -7.83 3.39c-2.85 1.5-4.42 2.68-4 4.2.13.5.59 1.34 2.16 1.38a12.85 12.85 0 0 0 2.41-.27c1.27-.24 2.57-.55 3.82-.84 3.73-.88 7.58-1.79 9.63-.52a4.34 4.34 0 0 1 1.79 2.91 55.5 55.5 0 0 1 1 5.92c.61 5 1.2 9.67 6.31 11.24a1.31 1.31 0 0 0 .44.07 1.5 1.5 0 0 0 .44-2.94z"/><path d="m136.11 195.39c-3.94 1-7.09.48-9.92-1.59s-5.26-5.49-8-11c-1.51-3-3.67-3.82-5.21-3.95-3.16-.27-7.09 1.91-11.68 6.48a64.46 64.46 0 0 0 -5.75 6.63 1.5 1.5 0 1 0 2.42 1.78 60.76 60.76 0 0 1 5.45-6.29c3.82-3.8 7.13-5.8 9.31-5.61a3.61 3.61 0 0 1 2.78 2.3c3 6 5.83 9.82 8.94 12.1a13.33 13.33 0 0 0 8.06 2.66 18 18 0 0 0 4.35-.58 1.5 1.5 0 0 0 -.72-2.91z"/><path d="m198.7 137.89a1.51 1.51 0 0 0 -.46-1 1.49 1.49 0 0 0 -1.06-.43l-76.8.89a1.5 1.5 0 0 0 -1.09.49 1.53 1.53 0 0 0 -.39 1.14l.79 9.54h-35l-.34-10.16a1.5 1.5 0 0 0 -1.55-1.45l-61.17 1.78a1.5 1.5 0 0 0 -1.11.55 1.47 1.47 0 0 0 -.32 1.19l6.25 38.4a1.49 1.49 0 0 0 1.55 1.17l56.26-.44a1.52 1.52 0 0 0 1.47-1.56l-.42-12.5c1-1.51 5.94-7.66 17.58-6.93a31.59 31.59 0 0 1 14.34 4 18.1 18.1 0 0 1 3.88 3l1.36 16.56a1.51 1.51 0 0 0 1.48 1.37l73.67.9a1.5 1.5 0 0 0 1.06-.44 1.46 1.46 0 0 0 .44-1.08zm-169.46 39.11-5.77-35.44 58-1.69.82 25.13a1.22 1.22 0 0 0 0 .33l.38 11.25zm73.83-21.42c-7.81-.49-13 1.88-15.91 4a18.68 18.68 0 0 0 -2 1.62l-.33-9.72h35.1l.82 9.92c-3.1-2.31-8.75-5.23-17.68-5.79zm22.28 25-1.25-15.19a1.58 1.58 0 0 0 -.07-.83l-2-24.33 73.69-.85.42 42.06z"/><path d="m132.19 136.64c1-.12 2-.23 3-.33a8.52 8.52 0 0 0 -3.91-6.29c-3.21-2-8.18-2.36-14.77-1a56.45 56.45 0 0 0 -8.72 2.58 1.5 1.5 0 0 0 1.12 2.78 56.18 56.18 0 0 1 8.22-2.42c5.71-1.19 10-1 12.54.58a5.57 5.57 0 0 1 2.52 4.1z"/><path d="m233 57c-1.71-2.08-4.75-3.24-8.57-3.24a1.5 1.5 0 0 0 0 3c2.9 0 5.12.77 6.25 2.15.94 1.14 1.2 2.82.77 5-.88 4.37-2.17 5.89-3.31 7.24a8.91 8.91 0 0 0 -2.52 5.89 16.72 16.72 0 0 0 .4 6.29 27.65 27.65 0 0 0 -6.34 5.51 11.49 11.49 0 0 0 -1-1.07c-2.62-2.37-6.15-3.29-10.48-2.73-6.54.85-11.65 2.91-15.22 6.13a14 14 0 0 0 -4.84 9.07 11.74 11.74 0 0 0 .15 3.28c-.58.13-1.56.29-2.66.47l-1.6.26a45.85 45.85 0 0 0 -14.17 5c-5.51 3.15-8.3 6.91-8.07 10.88.29 5 2.24 6.57 3.8 7.87a4.49 4.49 0 0 1 2 3 12 12 0 0 1 -.73 4.55l3.09.08a12.57 12.57 0 0 0 .59-5.16 7.42 7.42 0 0 0 -3.06-4.8c-1.35-1.11-2.51-2.08-2.72-5.74-.12-1.92.93-4.88 6.56-8.1a42.82 42.82 0 0 1 13.17-4.62l1.59-.26c3.23-.53 4.21-.69 4.87-1.62a2.76 2.76 0 0 0 .28-2.25 8.64 8.64 0 0 1 -.13-2.57 11 11 0 0 1 3.9-7.09c3.1-2.8 7.68-4.61 13.59-5.37 3.42-.44 6.14.22 8.08 2a9 9 0 0 1 1.49 1.78 2.1 2.1 0 0 0 -.06.24 1.48 1.48 0 0 0 1.07 1.77 17.74 17.74 0 0 1 1.12 6.1 1.51 1.51 0 0 0 1.46 1.55 1.5 1.5 0 0 0 1.5-1.46 19.9 19.9 0 0 0 -1.81-8.4c1.33-2.31 5-5 7.32-6.43a1.5 1.5 0 0 0 .27-2.38c-.11-.19-.73-1.45-.42-5.49a6.06 6.06 0 0 1 1.82-4.18c1.31-1.54 2.93-3.46 4-8.59.57-3.12.11-5.64-1.43-7.56z"/><path d="m175.34 193a35.46 35.46 0 0 1 -8.18-9.66h-3.46a39.66 39.66 0 0 0 9.8 12 1.47 1.47 0 0 0 .92.32 1.51 1.51 0 0 0 1.19-.58 1.49 1.49 0 0 0 -.27-2.08z"/><path d="m248.94 78.18a34.17 34.17 0 0 0 2.54-2.71c2.37-2.85 3.49-5.42 3.42-7.87a9.07 9.07 0 0 0 -3.06-6.21 1.5 1.5 0 0 0 -2.12 2.12c2.56 2.56 3.45 5.25-.54 10a29.56 29.56 0 0 1 -2.34 2.49c-1.16 1.13-2.07 2-2 3.73.06 1.3.68 2.84 2 6.23l.27.68c1.89 4.73.2 6.1-3.87 9.43a46.2 46.2 0 0 0 -8 7.85 10.3 10.3 0 0 0 -1.58 9.43 21.25 21.25 0 0 0 2.34 5.15 11.23 11.23 0 0 0 -6.29.06 19.78 19.78 0 0 0 -7.85 4.53 19.33 19.33 0 0 0 -5 7.15 10.2 10.2 0 0 0 -.27 6.83 41.06 41.06 0 0 0 -9.13-5.51c-8.58-3.67-16.46-2.8-22.76 2.52a20.42 20.42 0 0 0 -2.05 2l4.17.14c5.4-4.45 11.93-5.1 19.39-1.93a38.31 38.31 0 0 1 10 6.41 6.84 6.84 0 0 1 .68 6.81 4.6 4.6 0 0 0 .79 5.44 4.29 4.29 0 0 0 4.81 1.05c1-.49 2.6-1.85 2.14-5.56a21.1 21.1 0 0 0 -3.14-8c-1.78-3.12-3.19-5.58-1.85-9.16a17.87 17.87 0 0 1 10.88-9.84 7.33 7.33 0 0 1 6.87 1.11c2.17 1.74 4 3.29 5.52 4.59a58.54 58.54 0 0 0 4.75 4.34 1.5 1.5 0 0 0 2-2.23c-.09-.1-1.68-1.68-4.67-4.28a49.83 49.83 0 0 1 -4.1-4.66 23.26 23.26 0 0 1 -4.22-7.74 7.36 7.36 0 0 1 1.06-6.8 43.33 43.33 0 0 1 7.51-7.36c4.17-3.4 7.46-6.09 4.76-12.86l-.28-.69a26.35 26.35 0 0 1 -1.82-5.24c-.07-.31 0-.43 1.04-1.44zm-29.42 70.67a8.87 8.87 0 0 0 1-3.8 12.91 12.91 0 0 1 1.11 3.76c.19 1.47-.1 2.31-.47 2.49a1.39 1.39 0 0 1 -1.37-.45 1.62 1.62 0 0 1 -.27-2z"/></g><path d="m132.61 145.6c.14 5.4.28 10.5 1.31 14.5 1.23 4.72 3.67 7.58 7.48 8.72a1.59 1.59 0 0 0 .43.06 1.5 1.5 0 0 0 .43-2.94c-2.79-.83-4.47-2.87-5.43-6.6s-1.09-8.6-1.23-13.82c0-2.24-.12-4.55-.24-6.91h-3c.12 2.39.19 4.73.25 6.99z" fill="#ed8354"/><path d="m165.12 179.52c-2.84-6-4.08-12-3.5-16.87.66-5.45 3.11-12.1 5.26-18 .88-2.37 1.68-4.56 2.32-6.52l-3.18.05c-.59 1.73-1.27 3.59-2 5.43-2.22 6-4.73 12.86-5.42 18.65-.66 5.46.68 12 3.76 18.51.3.64.62 1.26.94 1.88h3.45c-.55-.97-1.11-2.04-1.63-3.13z" fill="#ed8354"/><path d="m182.91 174.79a1.5 1.5 0 0 0 1.34.85 1.48 1.48 0 0 0 .69-.18 1.62 1.62 0 0 0 .64-2.12 60.55 60.55 0 0 1 -4.58-14.34 34.1 34.1 0 0 1 -.19-12.17 18.56 18.56 0 0 1 4.09-8.84h-3.85a22.36 22.36 0 0 0 -3.19 8.21 37.71 37.71 0 0 0 .2 13.4 63.55 63.55 0 0 0 4.85 15.19z" fill="#ed8354"/><path d="m43.8 172.78a32.94 32.94 0 0 0 -2.87 6.6h3.15a31 31 0 0 1 2.28-5.06 40.8 40.8 0 0 1 8.88-10.7 1.5 1.5 0 0 0 -.69-2.65s-3.92-.68-5.43-2.89a3.57 3.57 0 0 1 -.49-2.91c1.16-5.4 7.56-8.29 7.62-8.32a1.49 1.49 0 0 0 .88-1.11 1.47 1.47 0 0 0 -.44-1.34 12.56 12.56 0 0 1 -2.63-4.78l-3.11.09a17.62 17.62 0 0 0 2.4 5.29c-2.4 1.43-6.58 4.57-7.65 9.54a6.52 6.52 0 0 0 .94 5.24 9.94 9.94 0 0 0 4.65 3.36 43.92 43.92 0 0 0 -7.49 9.64z" fill="#ed8354"/><path d="m78 179.56a34.47 34.47 0 0 1 4.61-6.21 1.5 1.5 0 0 0 -1.06-2.56 13.1 13.1 0 0 1 -3.82-.72 6.68 6.68 0 0 1 -4.56-4.44 4.37 4.37 0 0 1 1.67-5 10.52 10.52 0 0 1 3.16-1.63 1.51 1.51 0 0 0 1.11-1.47 1.44 1.44 0 0 0 -1.1-1.4c-.24-.09-2.39-1-3.44-5.18s3.82-7.75 3.87-7.78a1.5 1.5 0 0 0 -1.71-2.47c-.28.19-6.64 4.69-5.07 11a12 12 0 0 0 2.89 5.61 12.44 12.44 0 0 0 -1.48 1 7.4 7.4 0 0 0 -2.74 8.17 9.68 9.68 0 0 0 6.53 6.48 16.51 16.51 0 0 0 1.77.49 40 40 0 0 0 -4 6.13z" fill="#ed8354"/></svg>