<svg xmlns="http://www.w3.org/2000/svg" viewBox="0 0 462 150.1" fill="currentColor"><path d="M414.7 125c-4.6 9.7-38.1 21.6-57.9-1.1a38 38 0 0 1-6.8-12.3c-.1-.4-.3-.7-.4-1.1s-.3-.9-.4-1.4l-.3-.9a15.46 15.46 0 0 0-.4-1.5 3.08 3.08 0 0 1-.1-1 28 28 0 0 0-.6-2.8c0-.3-.1-.7-.1-1a4.15 4.15 0 0 0-.3-1.6c0-.4-.1-.7-.1-1.1s-.1-1-.1-1.4l68.9-17.1a33.52 33.52 0 0 0-3-10.7 32 32 0 0 0-11.9-13.8 48.78 48.78 0 0 0-19.1-7.2c-.4 0-.9-.1-1.1-.1a72.18 72.18 0 0 0-12.3-.1 50.3 50.3 0 0 0-44 41.9v.4l-.3 2.2c0 .4-.1.9-.1 1.4a4.1 4.1 0 0 1-.1 1.1c0 .7-.1 1.4-.1 2v3.2a49.73 49.73 0 0 0 3.6 17c7.9 19.1 26.4 31.8 46 31.8 23.2 0 36.3-13 42.4-21.8a16.8 16.8 0 0 1-1.4-3zm-67.3-36.9v-.4c0-.4.1-.9.1-1.3 0-.6.1-1.1.1-1.6a65.7 65.7 0 0 1 1.6-7.7 49.78 49.78 0 0 1 6.2-13.2 32.25 32.25 0 0 1 9.4-9 22.72 22.72 0 0 1 11.9-3.3c5.8 0 10.1 1.6 12.9 5.1a19 19 0 0 1 2.3 3.9c2.9 7.1 2.8 19-4 21.2L347 91.9a24.5 24.5 0 0 0 .4-3.8zm-171.8 36a35.76 35.76 0 0 1-7.1-13.5 58.43 58.43 0 0 1-.2-33.4 49.78 49.78 0 0 1 6.2-13.2 32.25 32.25 0 0 1 9.4-9 22.72 22.72 0 0 1 11.9-3.3c5.8 0 10.1 1.6 12.9 5.1a20 20 0 0 1 4.2 12.9 21.5 21.5 0 0 1-1.1 7.1l20.9-5c-7.6-20.6-32.8-23.2-37.4-23.2-39.9-.7-61.8 38.2-48.9 69.7 7.9 19.1 26.4 31.8 46.1 31.8 23.2 0 36.3-13 42.4-21.8a17.26 17.26 0 0 0-1.1-3.2c-4.7 9.6-38.4 21.5-58.2-1zm90.7 0a35.76 35.76 0 0 1-7.1-13.5 58.43 58.43 0 0 1-.2-33.4 49.78 49.78 0 0 1 6.2-13.2 32.25 32.25 0 0 1 9.4-9 22.72 22.72 0 0 1 11.9-3.3c5.8 0 10.1 1.6 12.9 5.1s4 7.7 4 12.9a21.5 21.5 0 0 1-1.1 7.1l20.9-5c-7.5-20.6-32.7-23.2-37.3-23.2-39.9-.7-61.8 38.3-48.9 69.7 7.9 19.1 26.4 31.8 46.1 31.8 23.2 0 36.3-13 42.4-21.8a30.06 30.06 0 0 1-1.1-3.2c-4.6 9.6-38.3 21.5-58.1-1zm180 5.4V0l-29.5 7.5-.3.1v2.8c1.1 0 10 2.6 10 8.9v109.9c0 13.8-9.4 16-16 16.4v2.3H462v-2.3c-6.1-.6-15.4-2.7-15.7-16.1zm-306 2.6C138.6 128.5 89.7 0 89.7 0l-29 7.4-.3.1v2.3c1.1 0 9.7 3.2 7.2 8.9-10.9 25.2-47 109.9-48.9 113.6C12.5 145 3.6 145 0 145.4v2.3h45.7v-2.3s-17.3.3-17.3-9.1c0-5.7 9-28.1 11.3-34.2l59.6-15c.1.3 16.1 40.3 16.1 48.8 0 9.1-14.2 9.4-14.7 9.4v2.3h59.6v-2.3c-3.2-.2-13.8-.3-20-13.2zm-98-36.4c.3-.7 30.2-73.1 31-75 1.3 3 24 61.1 24 61.1z"/></svg>
