<svg xmlns="http://www.w3.org/2000/svg" viewBox="0 0 479.46 107.8" aria-hidden="true" fill="currentColor">
  <path d="M43.87 0c-14 33.24-27.8 66.6-41.7 99.88-.7 1.5-1.1 3.17-2.17 4.46v.2l.7.82c7-.12 13.92 0 20.88-.05 3.7-9.05 7.53-18.07 11.2-27.15h37.68c3.8 9 7.5 18.13 11.3 27.18h21.68Q81.24 52.7 59.2 0zm-4.5 59.68q6.1-16.1 12-32.3c.26.52.52 1.06.73 1.62q5.68 15.35 11.4 30.68-12.07-.03-24.12 0zM181.34 0h-19.08v33.16A30 30 0 0 0 140 23.6c-15.68-.75-31 8.93-37.78 23a45.28 45.28 0 0 0-3.53 27.8 41.27 41.27 0 0 0 14.18 24.13 40.34 40.34 0 0 0 23.13 9.3h4.76c9-.43 18.06-4.7 23-12.4-.06 3.3 0 6.6 0 9.9h17.56q0-52.68.02-105.33zm-22.5 80.57A22.66 22.66 0 0 1 144.6 90a22 22 0 0 1-15.68-2.84A24.92 24.92 0 0 1 117.48 70c-2.68-12.55 6.36-26.5 19.12-28.68a22.1 22.1 0 0 1 16.74 3.92 25.16 25.16 0 0 1 9.72 15.07 25.47 25.47 0 0 1-4.22 20.27zM247.67 60.67a30.9 30.9 0 0 0 10.68-13.84c3-7.48 3.9-16 1.48-23.76a33.56 33.56 0 0 0-13-17.48C240.9 1.6 233.57.23 226.5 0H190.8v105.3h19.57V64.86c9.43 13.43 18.73 27 28.1 40.44h23.8c-9.48-13-19.07-25.92-28.63-38.86 4.97-1.08 9.93-2.7 14.05-5.77zm-37.33-10.4v-32c4.66.06 9.32-.07 14 .07 4.94.18 10.14 1.75 13.47 5.6 5.25 5.85 5 15.65-.4 21.33-3.26 3.36-8.04 4.74-12.6 5-4.8.03-9.65-.02-14.46 0zM370.07 0H351v105.32h19q0-52.68.07-105.32zm102.8 58.74a27.4 27.4 0 0 0-17.15-8.68 26.52 26.52 0 0 0-21.14 6.76c-1.24 1.2-2.73 2.3-3.54 3.86 3.05 4.28 6.37 8.38 9.5 12.6a14.24 14.24 0 0 1 5.86-6 11.53 11.53 0 0 1 12 .88 10.63 10.63 0 0 1 4.14 9.28 10.25 10.25 0 0 1-4.62 7.74 14.86 14.86 0 0 1-7.82 2.17h-52.4V0h-19V105.1c23.32-.07 46.64.12 70 .06 7.16 0 14.63-1.54 20.45-5.92 6.6-4.93 10.23-13.2 10.34-21.32-.1-6.9-2.07-13.9-6.64-19.16zM327.12 31.28a41.56 41.56 0 0 0-24.46-7.7c-14.8-.2-29.14 8.3-36.48 21.08a41.94 41.94 0 0 0-4.75 29.8A42.63 42.63 0 0 0 287 104.82a41.06 41.06 0 0 0 13.46 3h4.8a42.5 42.5 0 0 0 23.65-8.72 40.13 40.13 0 0 0 13.7-19.53 44.75 44.75 0 0 0 0-27.4 41.48 41.48 0 0 0-15.47-20.9zm-5.83 49.08a22.26 22.26 0 0 1-14.56 9.7 22.84 22.84 0 0 1-20.26-6.62c-8.82-9-9.2-24.74-.9-34.17a24.5 24.5 0 0 1 13.68-7.92 20.4 20.4 0 0 1 13.6 2.32A25 25 0 0 1 325 60.34a26.07 26.07 0 0 1-3.7 20.02z"/>
</svg>
