<svg xmlns="http://www.w3.org/2000/svg" viewBox="0 0 495.6 154.7" aria-hidden="true" fill="currentColor"><path d="M261.2 38.9a10.1 10.1 0 0 1-20.2 0 10 10 0 0 1 10.1-10.1 10.13 10.13 0 0 1 10.1 10.1zm-41.5 20.2v2.5s-4.8-6.2-15-6.2c-16.9 0-30 12.9-30 30.7s13 30.7 30 30.7c10.4 0 15-6.3 15-6.3v2.6a2.16 2.16 0 0 0 2.2 2.2h12.5V57h-12.5a2.27 2.27 0 0 0-2.2 2.1zm0 37.4a15.36 15.36 0 0 1-12.5 6.3c-9.9 0-17.5-6.2-17.5-16.7s7.6-16.7 17.5-16.7c5.4 0 10.4 3.1 12.5 6.3v20.8zm24-39.5h14.9v58.2h-14.9V57zm222.1-1.6c-10.2 0-15 6.2-15 6.2V29h-14.9v86.2h12.5a2.3 2.3 0 0 0 2.2-2.2v-2.6s4.8 6.3 15 6.3c16.9 0 30-13 30-30.7s-13.1-30.6-29.8-30.6zm-2.5 47.3a15.08 15.08 0 0 1-12.5-6.3V75.6a16.74 16.74 0 0 1 12.5-6.3c9.9 0 17.5 6.2 17.5 16.7s-7.6 16.7-17.5 16.7zm-35.2-22v34.7h-14.9v-33c0-9.6-3.1-13.5-11.5-13.5a16.75 16.75 0 0 0-12.1 5.7v40.6h-14.9V57h11.8a2.3 2.3 0 0 1 2.2 2.2v2.5c4.3-4.5 10.1-6.2 15.8-6.2a24.44 24.44 0 0 1 16.3 5.6c5.3 4.2 7.3 9.8 7.3 19.6zm-89.3-25.3c-10.2 0-15 6.2-15 6.2V29h-14.9v86.2h12.5a2.3 2.3 0 0 0 2.2-2.2v-2.6s4.8 6.3 15 6.3c16.9 0 30-13 30-30.7.2-17.6-12.9-30.6-29.8-30.6zm-2.5 47.3a15.08 15.08 0 0 1-12.5-6.3V75.6a16.74 16.74 0 0 1 12.5-6.3c9.9 0 17.5 6.2 17.5 16.7s-7.6 16.7-17.5 16.7zm-40.2-47.3a22.76 22.76 0 0 1 6.8.8V70s-12.4-4.2-20.1 4.6v40.7h-14.9V57h12.5a2.3 2.3 0 0 1 2.2 2.2v2.5c2.8-3.3 8.8-6.3 13.5-6.3zm-154.4 54.5c-.8-1.9-1.5-3.9-2.3-5.6-1.2-2.8-2.5-5.4-3.6-7.9l-.2-.2c-10.7-23.2-22.1-46.8-34.2-70l-.5-.9c-1.2-2.3-2.5-4.8-3.7-7.3a41.45 41.45 0 0 0-5.6-8.5A25 25 0 0 0 72 0a26 26 0 0 0-19.8 9.3 59.15 59.15 0 0 0-5.6 8.5c-1.2 2.5-2.5 5-3.7 7.3l-.5.9C30.5 49.2 18.9 72.8 8.2 96l-.2.3c-1.1 2.5-2.3 5.1-3.6 7.9-.8 1.7-1.5 3.6-2.3 5.6a35.74 35.74 0 0 0-1.9 16.7 32.8 32.8 0 0 0 20.1 25.7 31.7 31.7 0 0 0 12.5 2.5c1.2 0 2.8-.2 4-.3a39.77 39.77 0 0 0 15.5-5.3c6.3-3.6 12.4-8.7 19.2-16.1 6.8 7.4 13 12.5 19.2 16.1a43.3 43.3 0 0 0 15.5 5.3 26.93 26.93 0 0 0 4 .3 31 31 0 0 0 12.5-2.5 32.75 32.75 0 0 0 20.1-25.7c1.5-5.4.9-10.8-1.1-16.6zM71.9 118c-8.4-10.5-13.8-20.4-15.6-28.8a25.74 25.74 0 0 1-.5-9.4 14.28 14.28 0 0 1 2.5-6.5 16.3 16.3 0 0 1 13.6-6.8c5.7 0 10.8 2.5 13.6 6.8a15.5 15.5 0 0 1 2.5 6.5 23.5 23.5 0 0 1-.5 9.4c-1.9 8.2-7.3 18.1-15.6 28.8zm61.7 7.3a22.94 22.94 0 0 1-14.1 18.1 23.56 23.56 0 0 1-11.8 1.5 31.78 31.78 0 0 1-11.8-4c-5.6-3.1-11.1-7.9-17.7-15 10.2-12.5 16.4-24 18.7-34.2a40.26 40.26 0 0 0 .8-13.2A24.25 24.25 0 0 0 93.5 68a26.06 26.06 0 0 0-21.8-11 26.44 26.44 0 0 0-21.8 11 24.75 24.75 0 0 0-4.2 10.5 31.72 31.72 0 0 0 .8 13.2c2.3 10.2 8.7 21.8 18.7 34.4-6.3 7.1-12.1 11.9-17.7 15a29.56 29.56 0 0 1-11.8 4 25.67 25.67 0 0 1-11.8-1.5 23.1 23.1 0 0 1-14.1-18.1 24.7 24.7 0 0 1 1.4-12.1c.5-1.5 1.2-3.1 2-5 1.1-2.5 2.3-5.1 3.6-7.7l.2-.3c10.7-23.1 22.1-46.6 34.1-69.5l.5-.9 3.7-7.1a31.4 31.4 0 0 1 4.3-6.8 16.34 16.34 0 0 1 24.8 0 31.4 31.4 0 0 1 4.3 6.8l3.7 7.1.5.9c11.8 23.1 23.2 46.6 33.9 69.7v.2c1.2 2.5 2.3 5.3 3.6 7.7.8 1.9 1.5 3.4 2 5a22.63 22.63 0 0 1 1.2 11.8z"/>
</svg>
