<svg
  version="1.1"
  aria-labelledby="apple-logo-title"
  role="img"
  xmlns="http://www.w3.org/2000/svg"
  viewBox="0 0 54.01 63.99">
  <title id="apple-logo-title">Apple logo</title>
  <path d="M52.83 49.88a35.65 35.65 0 01-3.44 6.19A31.68 31.68 0 0145 61.42a8.64 8.64 0 01-5.7 2.51 14.25 14.25 0 01-5.3-1.26 15.22 15.22 0 00-5.67-1.25 15.55 15.55 0 00-5.83 1.25 15.88 15.88 0 01-5 1.32 8.09 8.09 0 01-5.83-2.58A32.49 32.49 0 017 55.87a38.39 38.39 0 01-4.9-9.74A35.55 35.55 0 010 34.53a21 21 0 012.84-11.09 16.25 16.25 0 015.83-5.9 15.72 15.72 0 017.88-2.22 18.34 18.34 0 016.1 1.42 19.3 19.3 0 004.83 1.42 28.94 28.94 0 005.36-1.67 17.64 17.64 0 017.29-1.29q8.07.65 12.12 6.38Q45 26 45.1 33.82A13.5 13.5 0 0049.53 44 14.59 14.59 0 0054 46.91c-.36 1-.73 2-1.13 3zM40.49 1.28a13.7 13.7 0 01-3.5 9c-2.81 3.29-6.21 5.19-9.9 4.89a8.88 8.88 0 01-.09-1.26 14 14 0 013.71-9 14.25 14.25 0 014.52-3.4A13.42 13.42 0 0140.42 0c0 .43.07.85.07 1.28z" fill="#000000"/>
</svg>
