<svg xmlns="http://www.w3.org/2000/svg" viewBox="0 0 532.12 66.03" aria-hidden="true" fill="currentColor"><path d="M16.75 29.77a1.83 1.83 0 00-.56.7l-16 32a1.9 1.9 0 001.7 2.76h22.28a1.84 1.84 0 001.7-1.06c4.8-9.93 1.9-25-6.53-34a1.86 1.86 0 00-2.6-.4zM34.35 1A1.8 1.8 0 0032 .13a1.84 1.84 0 00-.87.87 42.19 42.19 0 00-2.47 41.65l10.73 21.5a1.9 1.9 0 001.7 1.06h22.24a1.91 1.91 0 001.91-1.89 1.86 1.86 0 00-.21-.87zm486.34 10.56v34.62l-4.34-10-13-24.58h-18v53.6h11.43V24.3l4.8 10.86 16.18 30h14.37v-53.6zM400.12 65.2h12.5V11.57h-12.5zM366.7 32.56c-7.77-1.72-9.65-3.43-9.65-5.88 0-3.1 2.78-4.4 7.92-4.4 6.2 0 12.33 1.87 18.13 4.48V14.42a41 41 0 00-17.72-3.67c-13.88 0-21.07 6-21.07 15.92 0 7.92 3.68 14.2 18 17 8.58 1.8 10.38 3.18 10.38 6s-1.8 4.57-7.84 4.57A44.18 44.18 0 01344 48.61v12.9c4.33 2.13 10 4.5 20.66 4.5 15 0 21-6.7 21-16.66 0-9.34-4.94-13.77-19-16.8zm-158.86-21h-12.57V65.2H221l4-11.6h-17.1zm-63.3 11.6h13.87v42.06H171v-42h14.86V11.57h-41.33zm-34.72-11.6l-18.7 53.66h14.28l2.65-9a35.44 35.44 0 0020 0l2.65 9H145l-18.7-53.64zm8.24 34.95a24.19 24.19 0 01-6.87-1l6.87-23.4 6.88 23.4a24.4 24.4 0 01-6.9 1zm130.67-34.94L230 65.2h14.3l2.64-9a35.44 35.44 0 0020 0l2.65 9h14.28L265.2 11.57zM257 46.5a24.19 24.19 0 01-6.87-1L257 22.1l6.88 23.42a24.6 24.6 0 01-6.88.98zm184.17-34.94l-18.7 53.65h14.28l2.65-9a35.44 35.44 0 0020 0l2.65 9h14.3l-18.7-53.64zm8.23 34.94a24.19 24.19 0 01-6.87-1l6.87-23.4 6.88 23.42a24.6 24.6 0 01-6.88.98zm-134.7-14c-7.77-1.72-9.65-3.43-9.65-5.88 0-3.1 2.78-4.4 7.92-4.4 6.2 0 12.33 1.87 18.13 4.48V14.42a41 41 0 00-17.72-3.67c-13.88 0-21.07 6-21.07 15.92 0 7.92 3.68 14.2 18 17 8.58 1.8 10.38 3.18 10.38 6s-1.8 4.57-7.84 4.57A44.18 44.18 0 01292 48.61v12.9c4.33 2.13 10 4.5 20.66 4.5 15 0 21-6.7 21-16.66 0-9.34-4.95-13.77-19-16.8z" /></svg>
