<svg xmlns="http://www.w3.org/2000/svg" viewBox="0 0 405 69" aria-hidden="true" fill="currentColor"><path d="M272.2 15.1c-8.5-5.3-17.8-3-26.9-3.5v40c6.6 0 13.1.4 19.5-.1 7.6-.7 14.6-7.8 16-15.2 1.7-8.9-1.6-16.9-8.6-21.2zm-9.3 30.1c-3.3.5-6.8.1-10.4.1V17.9c3.6.2 6.9.1 10 .5 7.1 1 11.5 6.1 11.6 13.2a13.1 13.1 0 0 1-11.2 13.6zm-46.5-34.3c-11.1-.4-20.8 9-21.2 20.5-.4 11.1 8.8 21 20.5 21.2 11.1.2 20.5-7.7 21.2-20.5.6-11-9-20.8-20.5-21.2zm-.9 35.3a14.06 14.06 0 0 1-13.3-14.9c.2-8 6.6-14.2 14.2-13.9s13.6 7 13.3 14.8c-.3 8.1-6.6 14.3-14.2 14zm73.3 5.5h28.6v-6.4H296V34.5h13.6v-6.3h-13.5V17.7h21.3v-6.2h-28.6zm105.3-40.8h-9.2l-17.5 18.2V10.9h-6.9v40.2h7V30.9s12.6 12.8 19.1 20.2h9.5c-6.4-6.7-14.4-15-19.9-20.8 5.5-5.9 12-12.9 17.9-19.4zM90.7 11L72.9 51.4h7.7l4-9.7h18.8l4.1 9.7h7.7L97.4 10.9zm-3.4 24.4l6.6-16 6.8 16zM161 17.1h12.9v34.2h6.6V17.2h10.7l2.7-6.3H161zM339.4 28c-9.4-2.7-8.3-6.7-7.8-7.8s2.1-3.1 8.1-3.1a21.66 21.66 0 0 1 10.2 2.5l2.6-5.3c-.2-.3-5-3.2-13-3.3s-15.1 4.4-15.1 10.8 3.9 9.4 11.4 11.6c8.6 2.5 11.2 4.7 11.2 7.9s-1.8 5.5-8 5.5c-5.3 0-11.8-4.2-13.4-5.4l-2.5 5.4c2.1 1.4 9.7 5.7 16.3 5.7 7.6 0 13.9-3.7 14.1-11.4.4-8-5.6-10.7-14.1-13.1zm-193.7 6.9a10.1 10.1 0 1 1-20.2 0v-24H118v23.4a17.5 17.5 0 0 0 35 0V10.9h-7.3zm257.2 13.8a.63.63 0 0 0 .5-.6 1.42 1.42 0 0 0-.2-.6 1.7 1.7 0 0 0-.9-.2 3.08 3.08 0 0 0-1 .1v2.5h.6v-1h.3c.3 0 .5.1.5.4s.1.5.2.6h.6c-.1-.1-.1-.2-.2-.6a.55.55 0 0 0-.4-.6zm-.7-.2h-.3v-.7h.3c.4 0 .5.2.5.4s-.1.3-.5.3zm.1-2.4a2.5 2.5 0 0 0-2.6 2.5 2.65 2.65 0 0 0 2.6 2.6 2.55 2.55 0 1 0 0-5.1zm.1 4.5a2 2 0 0 1-2-2 1.94 1.94 0 0 1 2-2 2 2 0 0 1 0 4zM41.2 0H21.5A3.78 3.78 0 0 0 19 1.4L.3 45.9a.3.3 0 0 1-.1.2 3.82 3.82 0 0 0 0 2.8l.2.4 5.3 9.8L10 67c.9 1.7 3.3 1.9 3.3 1.9 2.5.2 7-2.1 7.9-2.6s21.6-13.3 24.3-15H17.3l14.2-33.4C39.3 36.5 51.4 65.3 53 69h19.4L44 1.8c.1-.1-.4-1.8-2.8-1.8z"/></svg>
