<svg width="64" height="64" viewBox="0 0 64 64" fill="none" xmlns="http://www.w3.org/2000/svg">
<g clip-path="url(#clip0)">
<path fill-rule="evenodd" clip-rule="evenodd" d="M6 0V34.6125L31.7631 49.2986V39.3158L14.528 29.491V14.0591L31.7631 23.8839V14.6861L6 0Z" fill="#002A41" stroke="#848484" stroke-width="0.0491296"/>
<path fill-rule="evenodd" clip-rule="evenodd" d="M57.5268 0V34.6125L31.7637 49.2986V39.3158L48.9989 29.491V14.0591L31.7637 23.8839V14.6861L57.5268 0Z" fill="#0071B5" stroke="#848484" stroke-width="0.0491296"/>
<path fill-rule="evenodd" clip-rule="evenodd" d="M6 63.9998V29.3872L31.7631 14.7012V24.684L14.528 34.5088V49.1556L31.7631 39.3309V49.3137L6 63.9998Z" fill="#0071B5" stroke="#848484" stroke-width="0.0491296"/>
<path fill-rule="evenodd" clip-rule="evenodd" d="M57.5268 63.9998V29.3872L31.7637 14.7012V24.684L48.9989 34.5088V49.1556L31.7637 39.3309V49.3137L57.5268 63.9998Z" fill="#002A41" stroke="#848484" stroke-width="0.0491296"/>
</g>
<defs>
<clipPath id="clip0">
<rect width="64" height="64" fill="white"/>
</clipPath>
</defs>
</svg>
