<svg xmlns="http://www.w3.org/2000/svg" viewBox="0 0 241.88 30.05" aria-hidden="true">
  <path fill="currentColor" d="M18.9 1.17a2.29 2.29 0 0 0-.9-.86 2.33 2.33 0 0 0-3.18.86L.31 26.56a2.33 2.33 0 0 0 2 3.49h29.1a2.33 2.33 0 0 0 2-3.49zM2.33 28.05a.33.33 0 0 1-.33-.33.47.47 0 0 1 0-.17L16.59 2.17a.34.34 0 0 1 .29-.17.29.29 0 0 1 .12 0 .33.33 0 0 1 .13.13l4.44 7.74-2.85 4.93a4.31 4.31 0 0 0-1.89-.45 4.46 4.46 0 0 0-2.73 8l-3.3 5.7zm17-9.19a2.43 2.43 0 1 1-2.43-2.47 2.45 2.45 0 0 1 2.4 2.47zM31.59 28a.33.33 0 0 1-.16.05H13.15l2.79-4.83a4.08 4.08 0 0 0 .93.1 4.44 4.44 0 0 0 3.46-7.21l2.43-4.19 9 15.63a.33.33 0 0 1-.17.45zm28.25-13.25a3.2 3.2 0 0 0 1.8-3c0-2.13-1.8-3.5-5.16-3.5h-6.57v13.51h7c3.6 0 5.48-1.35 5.48-3.66a3.34 3.34 0 0 0-2.55-3.35zm-7.32-4.5h3.68c1.8 0 2.82.62 2.82 1.87S58 14 56.2 14h-3.68zm7.22 7.6c0 1.35-1.06 1.94-3 1.94h-4.23v-3.88h4.21c2 0 3 .6 3 1.94zM73 8.29l-6.32 13.47h2.68l1.38-3.12h7l1.4 3.12h2.72L75.55 8.29zm-1.37 8.39l2.63-5.89 2.64 5.89zm49.7-4.68c0-1 .88-1.82 3-1.82a8 8 0 0 1 3.86 1.05l.82-1.94a9.11 9.11 0 0 0-4.66-1.19c-3.84 0-5.64 1.84-5.64 4 0 5 8.32 3.1 8.32 6 0 1-.92 1.75-3.1 1.75a7.93 7.93 0 0 1-4.62-1.48l-.9 1.94A9.21 9.21 0 0 0 124 22c3.84 0 5.66-1.85 5.66-4-.03-5-8.33-3.13-8.33-6zM184 8.29h-5.76v13.47h2.6v-3.89H184c3.68 0 6-1.83 6-4.79s-2.35-4.79-6-4.79zm-.12 7.46h-3v-5.34h3c2.28 0 3.46 1 3.46 2.67s-1.21 2.67-3.49 2.67zm15.59-7.46l-6.3 13.47h2.68l1.38-3.12h7l1.4 3.12h2.72L202 8.29zm-1.36 8.39l2.62-5.89 2.64 5.89zM90.52 14.85l-4.1-6.56h-2.78l5.5 8.71v4.72h2.6V17l5.49-8.72h-2.56zM230 8.29v2.12h4.64v11.35h2.6V10.41h4.65V8.29zm-10.32 2a5 5 0 0 1 3.74 1.58l1.68-1.52a7.23 7.23 0 0 0-5.54-2.25C215.24 8.1 212 11 212 15s3.2 6.93 7.49 6.93a7.25 7.25 0 0 0 5.56-2.25l-1.68-1.54a5 5 0 0 1-3.74 1.6 4.74 4.74 0 1 1 0-9.47zm-50.92-2l-5.47 8.93-5.56-8.93h-2.14v13.47h2.48V13l4.6 7.27h1.16l4.61-7.39v8.93h2.46V8.34zM105.18 16H112v-2.11h-6.77v-3.5h7.63v-2.1h-10.28v13.47h10.5v-2.1h-7.9zm40.56 5.81h2.6V8.29h-2.6z"/>
</svg>
