<svg viewBox="0 0 528 178" aria-hidden="true" fill="currentColor" xmlns="http://www.w3.org/2000/svg"><path fill-rule="evenodd" clip-rule="evenodd" d="M149.155 38.108c2.928 1.683 5.154 3.92 6.645 6.619 1.456 2.635 2.213 5.71 2.213 9.16v70.101c0 6.625-3.012 11.837-8.72 15.12l-61.155 35.178c-5.935 3.414-12.357 3.399-18.326-.036L8.805 139.157c-2.552-1.467-4.856-3.726-6.472-6.567A17.855 17.855 0 010 123.72V50.776c0-6.408 3.032-9.642 8.715-12.91l24.432-14.057v91.22l45.86 26.377 45.857-26.377V62.27L79.008 35.893 59.732 46.98V8.845L70.14 2.857c5.412-3.112 12.075-3.253 17.753.013l61.261 35.238zm112.964 25.854h-12.542V51.421h12.542v12.541zm0 68.981h-12.542V71.491h12.542v61.452zm-37.117-16.954c1.687-3.501 2.541-8.485 2.541-14.809h.001c0-4.087-.318-7.637-.947-10.548-.609-2.82-1.84-5.109-3.658-6.796-1.821-1.688-4.371-2.508-7.79-2.508-3.412 0-6.066.858-7.89 2.548-1.834 1.703-3.073 3.99-3.676 6.798-.63 2.882-.948 6.418-.948 10.506 0 4.094.319 7.643.948 10.547.603 2.809 1.843 5.117 3.68 6.862 1.816 1.701 4.47 2.564 7.886 2.564 4.964 0 8.187-1.689 9.853-5.164zm8.71-40.97c1.953 1.936 3.477 4.343 4.523 7.153v-.001a34.988 34.988 0 012.094 8.695c.311 3.026.469 6.488.469 10.294 0 3.805-.158 7.267-.469 10.292a35.652 35.652 0 01-2.097 8.779c-1.043 2.827-2.567 5.236-4.525 7.156-1.708 1.709-3.876 3.038-6.627 4.057-2.68.993-5.633 1.496-8.78 1.496-3.544 0-6.652-.545-9.242-1.621-2.351-.98-4.54-2.603-6.667-4.946v5.861h-13.014V52.078l13.258-6.93v30.544c1.976-2.144 4.176-3.713 6.549-4.67 2.637-1.06 5.745-1.6 9.237-1.6 3.105 0 6.024.503 8.682 1.496 2.694 1.006 4.918 2.386 6.609 4.102zm51.62-21.087h.002-.002zm0 0l-13.179 6.856v54.874c0 3.105.651 5.989 1.937 8.566 1.282 2.606 3.252 4.735 5.851 6.324 2.598 1.586 5.791 2.392 9.487 2.392h7.807v-11.205h-5.5c-4.307 0-6.403-2.177-6.403-6.656V82.74h11.903V72.591h-11.903V53.932zm40.279 18.098a23.269 23.269 0 018.998-1.797h.001c6.296 0 11.439 1.92 15.287 5.703 4.167 4.045 6.283 9.932 6.283 17.498v39.506h-13.049V95.304c0-2.972-.529-5.48-1.572-7.451-1.022-1.969-2.431-3.426-4.192-4.331-1.802-.945-3.797-1.403-6.101-1.403-3.535 0-6.491 1.118-8.786 3.324-2.266 2.201-3.416 5.52-3.416 9.86v37.637h-13.05V70.995h12.809v5.569a20.756 20.756 0 016.788-4.534zM528 132.943h-12.541V71.491H528v61.452zm0-68.98h-12.541V51.42H528v12.541zm-61.62 15.002c4.923-5.794 11.38-8.732 19.196-8.732 6.519 0 11.816 1.918 15.747 5.702 4.385 4.212 6.611 10.099 6.611 17.5v39.505h-13.136V95.304c0-4.45-1.11-7.794-3.302-9.944-2.192-2.151-5.086-3.241-8.599-3.241-3.448 0-6.295 1.082-8.706 3.31-2.36 2.181-3.554 5.308-3.554 9.292v38.219h-13.136V95.304c0-2.978-.535-5.485-1.584-7.45-1.03-1.974-2.449-3.428-4.219-4.332-1.809-.945-3.816-1.403-6.136-1.403-3.559 0-6.535 1.118-8.846 3.324-2.28 2.202-3.437 5.52-3.437 9.86v37.637h-13.137V70.995h12.896v5.566a21.134 21.134 0 016.704-4.488c2.859-1.22 5.948-1.84 9.179-1.84 7.626 0 13.496 2.936 17.459 8.732zm-66.821 31.912v-3.884h-14.133c-3.505 0-6.2.676-8.008 2.013-1.643 1.209-2.664 3.614-2.664 6.279 0 5.054 3.571 7.511 10.919 7.511 6.911 0 13.886-3.684 13.886-11.919zm-25.304-37.892c3.334-1.298 7.659-1.956 12.857-1.957 16.925 0 25.506 7.131 25.506 21.193v40.819h-12.815v-4.944c-2.053 1.9-4.215 3.304-6.437 4.18-2.459.968-5.607 1.461-9.355 1.461-3.693 0-6.949-.47-9.677-1.395-2.721-.919-5.062-2.33-6.958-4.188-3.27-3.369-4.924-7.838-4.924-13.288 0-3.831.919-7.615 2.459-10.12 1.638-2.687 4.094-4.8 7.3-6.278 3.196-1.477 7.113-2.224 11.641-2.224h15.707v-3.087c0-3.713-1.017-6.48-3.023-8.226-2.042-1.74-5.366-2.626-9.882-2.626-3.337 0-5.956.417-7.781 1.237-1.821.82-3.596 2.306-5.271 4.418l-.273.342-8.629-8.056.246-.29c2.817-3.318 5.949-5.664 9.309-6.971zm-276 4.493V99.622l-19.247 11.076L59.76 99.622V77.478l19.247-11.072 19.246 11.072z"/></svg>
