<svg data-name="Layer 1" xmlns="http://www.w3.org/2000/svg" viewBox="0 0 297 72"><path d="M75.13 18.72c-12 22 2.57 51.26 28 53.28v-2.41c-14.87-3.9-17.62-18.66-18-33.59.33-14.92 3.08-29.7 18-33.59V0a35.6 35.6 0 00-28 18.72zM197.62 4H200c2.79.34 7 4.32 7.24 7.22v33.83h-.49l-35.6-44h-19.56V4c3.46-.62 7.35 4.08 7.72 7.22V62c-.48 3-4.56 6.81-7.72 6.26v2.88h21.71v-2.89h-2.41c-2.79-.35-7-4.33-7.24-7.22V13.57h.49l47 58.24h.48V11.17c.44-3.4 5.15-7.77 8.68-7.22V1.06h-22.68zm79.94 55.2c-5.86 10.22-16.05 9.23-26.39 9.1V4c7 0 16.76-.88 22 4.28 12.88 11.35 12.39 37.52 4.44 50.92zm14.33-41.39C277.41-4.91 252.3 2.12 229.94 1.06V4c3.16-.57 7.23 3.29 7.72 6.25V62c-.49 3-4.56 6.81-7.72 6.26v2.88c12.26-.78 38.5 2.83 49.16-4.62 16.8-8.9 23.37-32.86 12.79-48.75zM129.11 5.92A35.67 35.67 0 00112.61 0v2.41c14.87 3.9 17.62 18.66 18 33.59-.32 14.93-3.08 29.7-18 33.59V72c33.44-3.11 44-47.6 16.5-66.08zm-86.61 58c-4.36 5.2-14.69 4.36-21.27 4.34V35.9c6.46.1 17.17-1.22 21.56 4.1 5.65 5.19 5.39 18.85-.29 23.87zM21.23 4h8.49C38 3.87 43.17 10.79 43 19c.16 14.17-10.58 14.5-21.8 14.06zm33.62 35.37a31.52 31.52 0 00-14.23-5.49v-.48a22.06 22.06 0 0010.9-5.49c6.52-6.15 5-18.41-3.13-22.62C38.88-1.42 11.63 1.74 0 1.06V4c3.16-.57 7.23 3.29 7.72 6.25V62c-.49 3-4.56 6.8-7.72 6.25v2.88c13.18-.67 41.94 2.7 52.29-5.19 9.53-5.25 11.08-20.35 2.56-26.57z" fill-rule="evenodd" fill="currentColor"/></svg>
