<svg xmlns="http://www.w3.org/2000/svg" viewBox="0 0 3088.67 483.76" aria-hidden="true">
  <path fill="currentColor" d="M27 189c5.48.19 10.87 1.37 16.34 1.26s11 1.69 16.27 1c3-.39 8.2 2.17 4.12 2.57-3.32.32-5.15 0-7.74.11-6.06.22-11.73.11-17.66.24-3 .07-5.86 0-8.78.12-2.52.1-5.07-.15-7.56.18-2 .28 1.16 3.23 2.33 4.21a17.22 17.22 0 0 0 4 2.59c2.66 1.06 5.63 2.38 8.72 2.56 5.45.32 10.81 1.38 16.33 1.12 3-.14 5.78.44 8.82.22 1.74-.13 3.81 1.23 1.63 2a11.76 11.76 0 0 1-4.14.55c-5.5.33-10.94 0-16.33.24-1.66.08-3.63 0-4.92.2-.94.14-3.54-.38-3.66.57-.36 2.71 3.44 5.14 6.19 7.22 4.5 3.41 10.34 2.43 16.32 3.15 6.26.76 10.15.83 18.14 2 7.52 1.12-1.48 2.32-7.06 2-5.89-.3-11.37-.27-17.69-.13-3.94.08 1.59 5.42 4 6.86a37.39 37.39 0 0 0 7.45 3.24c5.51 1.64 11.8.81 17.57 1.12 2.86.15 6.08-.32 8.75.37 2.31.59 5.68.06 7.39 1.27s-4.23 1.34-6.22 1.21c-1.82-.12-5.23.08-7.4.06-2.52 0-6.47.06-8.58.17-1.77.1-7.43-.71-6.23 1.37 3.29 5.69 11 7.59 17.41 8.72 5.14.9 10.8.07 16.23 1.18 3 .62 5.26.14 9.16.72s-1.28 1.8-4.18 1.68c-5.26-.23-10.87 1.4-16.23.94-1.55-.13-4.06.13-2.43 1.43a44.06 44.06 0 0 0 3.51 2.87 37.5 37.5 0 0 0 8.95 4.18c5.32 1.73 10.65 2.32 16.36 2.8 3.07.25 5.12 1 9.07 1.2 3.37.14 0 1.75-2.86 1.79-3.26.06-5.18 0-9 .25-3.56.22.35 2.55 2.62 3.78 5.4 2.9 11.22 6.9 17.72 6.59a41.36 41.36 0 0 1 8.73 1c2.46.42 7.18 2.2 4 2.85-3.5.71-5.61-.72-9.1.14-1.6.4.22 1.11 1.48 1.74s2.3 1.26 3.59 2c5.7 3.19 10.63 5.75 16.55 9 3.21 1.79.4 5.66-2 7.88-2 1.84-3.82 4.15-5.82 6.11-5.13 5-10.31 10.31-15.49 15.22-1.87 1.78-4.86 3.67-3.16 6 2.14 3 3.64 5.68 6 8a88.85 88.85 0 0 0 17.8 13.74c5-11.32 9.39-22.51 14.33-33.71a150 150 0 0 1-7.76-14.12v-56.34l.22.06c.1-2 .63-3.69 3.11-4.53 3.31-1.13 5.93-1.11 8.87-1.73s5.82-1.21 8.7-1.8a84.55 84.55 0 0 1 10.56-2.19c9.85-2.07 19.57-3.89 29.81-1.47 6.88 1.62 9.39 1.6 15.2 3.37 5.35 1.63 12.81 2.62 18.6 4.48 4.09 1.3 2.6 9 2.72 16.3.08 5.05-.41 10.87-.32 16.26a85.75 85.75 0 0 1-.35 9.19v18.41a151.61 151.61 0 0 1-8 14.52 5.14 5.14 0 0 0 .2.59c1.1 2.57 2.23 5.18 3.35 7.69 2.36 5.28 4.49 11 7 16.06 1.36 2.76 1.94 6.7 3.92 8.57s5.37-2.37 7.78-3.82c4.18-2.5 8.64-7.23 11.86-10.92 2.11-2.43 6.54-6 4.46-8.74-2.4-3.2-5.73-5.95-8.67-8.87-5.45-5.41-10.48-11-16.46-16.3-2.69-2.38-4.19-6-.29-7.8s5.83-3.72 9.2-5.36 5.88-3.34 8.86-5c1.1-.6 2.55-1.3 2.9-2s-2.53-.45-3-.39c-1.17.15-8.14-.19-6-1a36.91 36.91 0 0 1 7.45-1.58 65.29 65.29 0 0 0 16.36-4.29 45.51 45.51 0 0 0 9.33-5.25c3-2-1.72-2.18-4.39-2.13-1.67 0-3.78-.48-5.21-.4-1 .06-3.78-.42-3.13-1.19 1.28-1.5 4.79-.51 7.17-1 5.56-1.2 11.95-1.15 17.43-2.88a39.65 39.65 0 0 0 8.69-3.68c1.92-1.24 6.82-5 4-5.17-5.89-.42-11.64-.42-17.64-.42-2.92 0-6.7-1.67-2.8-2.54 3.44-.78 5.38 0 7.83-.31 11.38-1.62 24.28 0 32.82-9.27 2.17-2.36-4.31-1.48-6.57-1.65s-5.94 0-8.65-.05-6 .12-8.7-.13c-1.26-.12-3.3.18-3.84-.73s1.35-1.62 2.57-1.74c11.32-1.08 23.33 1.17 34.21-3.16a18.83 18.83 0 0 0 8.74-6.5c2.38-3-2.37-2.4-5.35-2.47-5.3-.13-10.93 0-16.26-.23-2.88-.15-6.09.76-8.77-.4-2.39-1 2.85-1.71 5.17-2 4.86-.62 10.86-.48 16.15-.47 5.82 0 12.19-.65 17.35-3.16 3.1-1.51 6.75-4.23 7.48-7.15.49-1.95-4.1-.74-6.19-.92-5.11-.43-12.11-.75-17.18-.75-2.42 0-8.18.12-6.3-1.48s5-1.18 7.41-1.44c5.64-.6 11.75.26 17.5-.57 6.14-.89 12.44-2.06 16.64-7.63 2.15-2.83-4-2.08-6.69-2.08-2.08 0-5 0-7.46-.14-5.31-.34-10.92 0-16.28-.39a67.34 67.34 0 0 0-8.77.07c-1.57.09-4.46-.94-2.62-1.9 1.39-.72 2.61 0 3.84-.25 5.36-1 10.94-1.07 16.31-1.34 5.9-.3 12.2-1 17.85-1.59 5.46-.59 12.55-1.95 14.68-7.52s-9.21-2-13.94-2.66c-4.42-.65-10.89-.14-16.15-.17-10.52-.07-21.91-.22-32.57 0-22.49.4-47.38-4-66.61 9.76-11.07 7.9-20.7 16.69-30 25.63-4.41 4.26-11 11.56-14.59 5.34-3.27-5.64-3-10.82-4.49-16.49-1.52-5.9-1.66-11.49-2.53-17.62-.47-3.34 0-5.65 2.76-8.93 2.3-2.72-1.16-2.68-3.91-2.72-6.1-.09-11.46-1.45-17.65-1.51-6.51-.07-11.54 4.53-15.11 9.34-1.75 2.35-6.1.17-8.78.48-2.93.35-7.13 1.91-7.72 4.64-.75 3.5-1 5.63 1.86 9.1 2.75 3.31 0-2.34 2.48-3.88 4.68-2.88 10.72-1.21 16-1.77 1.89-.2 3.72-.32 5.45-2.1 1.34-1.37-.07-1.72-1.53-2.09s-3.45-1.57-2.63-2.92c.68-1.1 2.92-.45 3.86-1 4.52-2.55 14.15-2.22 16.79 3.55 2.32 5.05 1.47 10.77 2.49 16.23 1.11 5.91 1.24 11.5 3.21 17.63 1.22 3.83-7.85 4.61-12.51 4.37-6.18-.32-16.17-2.62-16.05-3.11 1.45-5.76 3.62-10.86 5.18-16.42.94-3.36.48-7.38-3.12-8.57a26.36 26.36 0 0 0-7.28-1.69c-2.51-.07-8.19-1.31-7.09 1.39 1 2.54 5 3.05 7.08 4.61 4.79 3.59-1.83 11.8-4.13 16.58-1.25 2.6-5.38 5.79-8.58 4.94-2.84-.75-5.14-3.3-7.5-5.36-10.84-9.48-20.79-20-32.73-28.25a56.28 56.28 0 0 0-33.88-9.84c-10.94.35-21.77 0-32.67.06-11.32.09-22.62 0-33.92 0H15.75c-2.22 0-6.57-.34-5.19 2.06 3.59 6.26 9.99 8.13 16.44 8.4zm254.82 164.66c-2.43-1.73-3.53-2.22-6.15-.36-2.45 1.74-3.74 2.14-5.81 5 8.21 7.38 18.34 12.77 29.76 12.8a48.32 48.32 0 0 0 15.17-2.77c5.94-1.9 9.08-7.07 15.7-9.28.55 20.12-9.82 40.74-27.15 51.66-16.95 10.67-40.49 9.24-54.83-5.62a219.06 219.06 0 0 1-14.27 31.69c-6.3 11.36-13.22 21.93-22.7 31.46-16.75-19-27.55-40.41-36.95-63.52-33.81 33.31-86.74-5.33-81-46.59 14.87 16.08 44.76 16.93 59.56-1.22-2.35-1.81-3.28-2.51-5.54-4.05-2.59-1.76-3.66-1.42-6 .24-23.68 16.69-52.44-7.57-52.83-32.49-12.56 24.23-10.36 54.32 2.76 77.77 14.59 26.05 50 38.87 78 25.29 11.14 21.64 23.57 43.58 42.39 60.09 9.64-8.8 17.18-18.6 24.31-29 6.82-10 10.83-21.13 18.6-30.79 26.63 14.28 60 .73 75.49-23.18 15.25-23.53 17.06-56 3-80.68 2.18 25.8-27.91 50.27-51.51 33.55zM257 382.46c4.14-.22 9.3 0 13.7-.13 2.4-.06 5.12 0 7.53 0 2 0 4.5-.35 6.1.8 2.1 1.5-.09 7.82 2.49 4.95 2.19-2.45 2.92-3.1 3.18-6.33.53-6.46-6.07-5.12-10.54-5.65s-9.79-1.23-13.68-3.8c-2.63-1.74-5.21-4-6.36-7.27-.84-2.34 3.39-2.61 4.3-4.69 1-2.35-1.25-4.89-2-7.25-.7-2.13-1.84-4.34-2.73-6.5-1.88-4.58-4-9.3-5.91-13.73-2-4.68-3.5-11.93-7.47-6.37-4.28 6-6.51 9-11.57 13.77-4.3 4-1.42 8.92.49 13.66s3.43 9.52 6.27 13.9c3 4.67 10.57-4.14 13.69 2.62 1.53 3.31 2.5 4.49-1.21 5.32-2.94.66-3.87.1-6.38.06-5.77-.11-6.66 7.47-3.78 11 .64.79 1.12 2 2.22 2.28s.5-.89.34-2.29c-.68-6.29 6.97-4.12 11.32-4.35zm-27.8-15.41c1.34-.25 3.13-.5 3.45-1.64.21-.79-.64-1.66-1-2.56-1.75-4.84-3.42-9.58-5.5-14.38-4 1.37-7 4-10.76 5.81a7.41 7.41 0 0 1-6.34 0c-4.16-1.83-7.52-4.43-11.52-6.63-3.71 5.55-5.22 11-6.74 17.76a88.05 88.05 0 0 0 38.41 1.64zM95.65 265.88c-3.28-3.87-8.21-5.67-11.77-8.55-17.11 7.78-24.9 25.19-30.37 41.73-34.57-19.37-51.57-63.5-36.76-100.42-1.58-3.57-5.31-4.52-7.34-9.84-27 50.72 7.86 113.49 58.06 132.59-6.2-22.26 5.62-47.39 28.18-55.51zm315.93-73.77c-2.1 2.34-5.2 4.53-5.26 7.5-.05 2.53 1.82 5 2.33 7.56 1 4.92 2.28 9.91 2.51 15.05a88.8 88.8 0 0 1-3.3 28.92 82.45 82.45 0 0 1-15.58 28.47c-3.71 4.51-7.72 9.77-12.15 12.83-3.72 2.58-9 8.65-12.08 5.1-1.64-1.91-1.25-5.44-2.34-7.64s-2-5.25-3.21-7.68a72.85 72.85 0 0 0-8.86-13.54 32.5 32.5 0 0 0-7.48-6.2c-2.29-1.43-5.2-4.07-7.72-3.51s-5.35 3.34-7.63 4.55c-1.1.58-3.24 2.08-3.15 2.61.06.34.85 1 1.8 1.32 22.1 7.87 30.74 33.14 26.23 54.16 50.25-19.62 80.91-77.89 59.47-129-.74-1.77-2.37-1.85-3.58-.5zm-389.44-20c4.94 0 11.28 1.11 16.35-.42 5.24-1.59 9.7-5.81 14.93-7.83a92.92 92.92 0 0 1 30.08-6.68 101.45 101.45 0 0 1 31.36 4.18 99.9 99.9 0 0 1 14.85 5.64 69.34 69.34 0 0 1 15.18 9.22c4.81 3.94 3.21-7.28 4.23-12.06.92-4.26 1.72-10 2.92-14.85a207.59 207.59 0 0 1 10.11-30 343.12 343.12 0 0 1 15.44-31.48c5.52-10.15 11.25-20 16.85-30.11 3-5.42 6-10.89 8.92-16.29 1.33-2.48 2.52-5.38 3.85-7.45s2.06-7.07 4.27-6.68S214 32 215.41 34s2.48 4.95 3.8 7.42c2.65 5 5.36 10.11 8.15 15.08 21.57 38.43 46.09 76.72 48.19 122.73 17.61-13.86 39-22.44 61.73-21.47A103.12 103.12 0 0 1 369 164c5.71 2.13 10.36 6.55 16.15 8.14 5 1.38 10.31-.49 16.24.31a83.87 83.87 0 0 0-60.34-27.17 121.79 121.79 0 0 0-31.47 3.63 145.91 145.91 0 0 0-15.1 5c-2.57.94-4.41 1.79-7.65 2.83s-3.07-2.45-3.67-5.1C273.14 107 245.86 68.78 225 28.73c-2.83-5.33-5.6-10.73-8-16.3-1.09-2.53-2.51-5.18-3.35-7.62s-2.55-6.64-3.56-3.94a273.74 273.74 0 0 1-14.21 31.61c-5.57 10.68-11.43 21-17.41 31.38-5.75 10-11.43 20-16.63 30.18a271 271 0 0 0-14.18 31.42c-1.79 5-3.46 10-5 15.06s-2.21 10-3.59 15c-.8 2.92-5.67-.51-7.95-1.12a72.41 72.41 0 0 1-7.52-2.76 104.2 104.2 0 0 0-15.11-4.64c-9.72-2.3-19.93-2-30-1.73-11.07.31-21.53 3.72-31.4 7.93a80.77 80.77 0 0 0-14.89 8.87 52.44 52.44 0 0 0-6.88 6c-1.13 1.17-5.03 4.07-3.18 4.08zm181.46-6.22c6.59 0 9.63 0 16.15-.29-2.64-40.2-5.44-80.37-8.08-120.57-3 40.28-5.21 80.65-8.07 120.9zM48.87 249l-4.8-16.7-5 16.64-17.37-.59 14.3 9.86-5.94 16.33L43.89 264l13.7 10.69-5.75-16.4 14.4-9.73zm332.5 0l-4.81-16.7-5 16.64-17.36-.59 14.28 9.89-5.93 16.33L376.38 264l13.7 10.69-5.74-16.4 14.4-9.73zm-126.69-1.78c-14.27-1.79-27.37-7.82-41.79-8.14-15.3-.34-29.23 7.25-44.06 9.29-.25 9.5-.37 16.88-.43 25.82h1.8c28.29-.22 56.25.22 84.5-.27.35-9.23.1-17.32-.02-26.73zm-77.94 66.72v-34.38h-6.5l.6 24.25c2.01 3.13 3.58 7.19 5.9 10.1zM189.53 329v-49.44H183v42.92q3.15 3.41 6.53 6.52zm12.79 12.81v-62.25h-6.5v57.22q3.18 2.64 6.5 5.06zm19.08.69q3.33-2.36 6.5-4.95v-58h-6.5zm19.29-19v-44h-6.5v50.36q3.38-3.01 6.5-6.34zm-32.08 14.64v9l3.22 2.36 3.28-2.59v-67.35h-6.5v58.6zm44.29-34.35l.6-24.25H247v34.35c2.32-2.89 3.89-6.95 5.9-10.08zm-70.46 64c2.84-4.38 4.37-9.17 6.27-13.9s4.79-9.62.49-13.66c-5.06-4.75-7.29-7.8-11.57-13.77-4-5.56-5.48 1.69-7.48 6.37-1.88 4.43-4 9.15-5.9 13.73-.89 2.16-2 4.37-2.73 6.5-.78 2.36-3 4.9-2 7.25.91 2.08 5.14 2.35 4.3 4.69-1.15 3.25-3.73 5.53-6.36 7.27-3.89 2.57-9.11 3.26-13.68 3.8s-11.07-.81-10.54 5.65c.26 3.23 1 3.88 3.18 6.33 2.58 2.87.39-3.45 2.49-4.95 1.6-1.15 4.07-.8 6.1-.8h7.53c4.4.12 9.56-.09 13.7.13 4.35.23 12-1.94 11.35 4.32-.16 1.4-.77 2.57.34 2.29s1.58-1.49 2.22-2.28c2.88-3.52 2-11.1-3.78-11-2.51 0-3.44.6-6.38-.06-3.71-.83-2.74-2-1.21-5.32 3.09-6.72 10.62 2.09 13.66-2.58zM591.4 226c8.4-8.78 16.71-18.07 16.71-33.11 0-10.77-8.06-29-38.3-29-5 0-9.64.19-13.37.35-2.73.11-5.1.21-7 .21-.23 0-1.13 0-2.47-.09-4-.15-12.29-.47-18.61-.47-1.09 0-4 0-4 2.49 0 1.41 1.15 2.12 3.42 2.12a32.06 32.06 0 0 1 5.2.54c5.23 1.11 6.86 3.29 7.23 9.71.37 5.94.37 11.17.37 40.22v32.83c0 17.48 0 32.57-.92 40.33-.75 5.41-1.46 9-4.45 9.6a18.21 18.21 0 0 1-4.26.54c-3.13 0-3.79 1.25-3.79 2.3 0 2.31 2.89 2.31 4 2.31 3.36 0 6.53-.15 9.6-.29s5.78-.27 8.68-.27c.63 0 5.82.18 11.34.56 2.5.09 5.13.21 7.43.32 2.74.13 4.91.24 6 .24 15 0 27.58-4.54 36.43-13.13a40 40 0 0 0 12.13-28.53c.08-22.73-19.01-35.41-31.37-39.78zm-33.83-52.88c0-.44 0-.75 1.48-1.08a40.45 40.45 0 0 1 8.71-.91c17.85 0 24.18 16.74 24.18 31.08a27.87 27.87 0 0 1-6.47 18.18c-3.62 4.14-6 4.5-16.22 4.5a65.83 65.83 0 0 1-11.1-.71c-.5-.2-.58-.28-.58-1.08zm21.94 126.37c-1.73 0-10.64-.13-16-2.7-5.1-2.46-5.22-4.48-5.74-13v-.75c-.19-2.76-.19-26.21-.19-40.22v-10.57a1.53 1.53 0 0 1 0-.3h.09c8 0 12.84.12 14.4.36h.11c4.36.54 8.86 1.1 14.95 5.22 15.94 11 17.66 29.17 17.66 36.48.02 18.83-13.61 25.5-25.28 25.5zm134.67-138.17c-29.56 0-47.21 13.86-56.81 25.49-11.06 13.4-17.67 31.5-17.67 48.43 0 18.46 6.29 36.64 17.25 49.87 13.23 16 32.63 24.42 56.11 24.42 21.55 0 41-8.09 54.79-22.79 13.3-14.18 20.62-33.53 20.62-54.49 0-42.42-29.85-70.93-74.29-70.93zm3.92 139.12a54.25 54.25 0 0 1-41.67-19.07c-11.13-12.89-17-30.65-17-51.35 0-19.12 5.28-34.79 15.27-45.31 9.35-9.84 22.56-15.05 38.18-15.05 26.83 0 55.7 21.22 55.7 67.82-.01 59.93-42.06 62.96-50.48 62.96zm196.62-136.51c-2.29 0-8.58.23-13.18.4-2.43.08-4.53.16-4.91.16s-1.6-.07-3-.16c-2.6-.17-6.17-.4-9.32-.4s-4 1.15-4 2.12c0 1.65 1.62 2.19 3.56 2.84 1 .23 2.23.93 2.23 4.25a17.48 17.48 0 0 1-3 9c-3.34 5.51-24.75 42.4-30.2 53.25-6-9.95-30.63-52.4-33.34-57.31-1.38-2.59-2.3-4.74-2.3-6.8a2.78 2.78 0 0 1 1.83-2.44c.41-.18.79-.33 1.12-.46 1.17-.46 2.27-.9 2.27-2.13 0-2.31-2.58-2.31-3.42-2.31-5.14 0-10.17.28-13.17.44-1.2.07-2.14.12-2.5.12l-4.5-.15c-4.62-.16-11.6-.41-14-.41-3.18 0-3.43 1.77-3.43 2.31 0 1.38 1.15 2.3 2.87 2.3a16.91 16.91 0 0 1 7.46 2.82c3.72 2.48 8.36 7.54 12.41 13.53 6.65 9.87 31.52 50.78 32.74 53.56v.09c2.42 5.39 4.16 9.28 4.16 19.08v16c0 2.94 0 10.78-.56 18.58-.26 3.86-1.34 8.62-5 9.35a27.49 27.49 0 0 1-5.37.72 2.19 2.19 0 0 0-2.5 2.12c0 2.49 2.9 2.49 4 2.49 4 0 11-.28 15.19-.45l3.08-.11 2.2.08c4.17.15 12.84.48 20.74.48 3.47 0 4-1.56 4-2.49a2.19 2.19 0 0 0-2.5-2.12 80.26 80.26 0 0 1-8.26-.74c-4.34-.58-6.37-3.37-6.78-9.34-.55-7.79-.55-15.63-.55-18.57v-16c0-6 0-11.74 2.72-18.27 3.22-7.7 29.23-51.49 35.47-59 4-4.89 6-7.09 9.64-9.3a16.88 16.88 0 0 1 8.05-2.46c2.52 0 3.42-1.34 3.42-2.49s-.85-2.18-3.37-2.18zm119.78 61.2l-5.22-4.11c-17.56-13.71-22.37-20.28-22.37-30.54 0-12.34 8.82-20.63 21.94-20.63 15.64 0 20.9 6.55 22.43 9.36a31.83 31.83 0 0 1 2.31 9c.17 1.31.42 3.3 2.49 3.3 2.3 0 2.3-3.44 2.3-5.29 0-9.94.46-15.84.66-18.37.06-.72.09-1.19.09-1.4 0-2.3-2.08-2.3-2.86-2.3a28.8 28.8 0 0 1-6.3-.91 73.75 73.75 0 0 0-17.58-1.89c-23.68 0-39.6 13.89-39.6 34.57 0 12.63 4.19 24.48 24.61 41.24l8.39 6.9c16.55 13.66 21.08 20.71 21.08 32.8 0 11.83-8.81 23.8-25.66 23.8-6.9 0-23.29-1.77-26.63-18.23a31.73 31.73 0 0 1-.54-6.69c0-1.07 0-3-2.3-3-2.13 0-2.37 2.53-2.49 3.92 0 .58-.09 1.33-.16 2.23-.29 3.76-.78 10.06-.78 17.6 0 5 .14 6.37 3.35 8 7.09 3.46 15.41 5.14 25.43 5.14 11.29 0 21.22-2.77 28.74-8 12-8.52 16.27-22 16.27-31.77.01-14.59-4.5-26.53-27.6-44.73zm171.13 46c-2.19 0-2.57 2.09-2.85 3.63-.54 3.23-2.87 11.19-6.63 15.13-7.74 7.93-19.83 9-31.74 9a65 65 0 0 1-47.9-20.45 69 69 0 0 1-18.42-46.8c0-15.9 2-34 16.48-48 3.39-3.3 13.72-13.33 42.2-13.33 11.81 0 28.32 3.25 36.65 10.39 4.47 3.79 7.48 11.12 7.48 18.26 0 2.07 0 4.92 2.49 4.92s2.54-2.81 2.68-4.85c.08-1.2.12-3.72.18-6.64.07-4 .16-9 .38-12.58.22-4.07.52-6.48.71-8.08a21.36 21.36 0 0 0 .22-2.42 2.76 2.76 0 0 0-2.54-3l-5.7-.73c-4.62-.58-9-1.13-14-2.06a162.4 162.4 0 0 0-27.22-2.25c-25.12 0-44 6.62-57.59 20.25-15.61 15.61-21.18 36.9-21.18 51.62 0 23.49 7.71 42.32 22.9 55.94 15.49 13.92 35.25 20.4 62.21 20.4 11.14 0 25.91-1.15 34-4.37 3.65-1.63 4.2-2.25 5.4-6 1.89-6.44 4.14-22.73 4.14-24.16-.05-3.51-1.81-3.78-2.35-3.78zm91.74-109.85c-29.56 0-47.21 13.86-56.82 25.49-11.06 13.4-17.66 31.5-17.66 48.43 0 18.46 6.28 36.64 17.24 49.87 13.24 16 32.64 24.42 56.12 24.42 21.55 0 41-8.09 54.79-22.79 13.29-14.18 20.62-33.53 20.62-54.49 0-42.38-29.86-70.89-74.29-70.89zm3.91 139.12a54.27 54.27 0 0 1-41.67-19.07c-11.13-12.89-17-30.65-17-51.35 0-19.12 5.28-34.79 15.28-45.31 9.35-9.84 22.55-15.05 38.18-15.05 26.82 0 55.69 21.22 55.69 67.82-.01 59.97-42.05 63-50.48 63zm215.79-136.51c-3.79 0-9 .25-12.43.42-1.58.08-2.83.14-3.23.14s-1.23 0-2.61-.1c-3.84-.16-11-.46-17.16-.46-1.09 0-4 0-4 2.49a2.25 2.25 0 0 0 2.49 2.12 34.36 34.36 0 0 1 6.13.54c5.23 1.11 6.85 3.29 7.23 9.71.37 5.94.37 11.17.37 40.22v23.32c0 22.38-3.17 35.86-10.58 45a38 38 0 0 1-28.52 13.07c-10.39 0-18.61-1.67-27.47-10-6.76-6.45-13.67-16.88-13.67-45.34V219c0-29 0-34.28.37-40.22.38-6.64 1.9-9.09 6.06-9.7a26.74 26.74 0 0 1 4.5-.55 2.25 2.25 0 0 0 2.49-2.12c0-2.49-2.89-2.49-4-2.49-3.63 0-9.52.23-13.81.4-2.28.09-4.08.16-4.65.16s-1.94-.05-3.93-.13c-4.37-.16-11.7-.43-17.52-.43-1.09 0-4 0-4 2.49a2.25 2.25 0 0 0 2.49 2.12 34.27 34.27 0 0 1 6.13.54c5.23 1.11 6.85 3.29 7.23 9.71.37 5.94.37 11.17.37 40.22v27.23c0 30.06 8.84 42.39 16.54 49.78 12.46 11.75 29.85 13.51 39.1 13.51 10 0 24.92-1.46 39.09-14 8.14-7.23 17.49-20.19 17.49-56.51V219c0-29 0-34.28.37-40.22.37-6.48 1.8-8.75 6.07-9.7a26.51 26.51 0 0 1 4.5-.55 2.25 2.25 0 0 0 2.49-2.12c.06-2.48-2.84-2.48-3.93-2.48zm133.55-1.3a9.36 9.36 0 0 0-1.82.29c-.86.19-2 .45-3.59.66a75 75 0 0 1-13 .91h-69.94c-2.28 0-9.43-.39-14.66-.93a16.65 16.65 0 0 1-6.13-1.59 5.55 5.55 0 0 0-2.15-.65c-1.31 0-2 1.73-2.73 4l-.1.3c0 .17-4.13 17.45-4.13 19.64 0 2.55 1.61 2.68 1.93 2.68 1.65 0 2.36-1.35 2.78-2.47a31.3 31.3 0 0 1 3.09-5.62c2.73-4.1 6.81-5.34 18.21-5.53 4.56-.09 9.25-.14 13.79-.18 4.2 0 8.54-.09 12.79-.17v77.87c0 17.48 0 32.57-.92 40.33-.8 5.79-1.74 8.84-4.64 9.42a27.57 27.57 0 0 1-5.38.72 2.19 2.19 0 0 0-2.49 2.12c0 2.49 2.89 2.49 4 2.49 4 0 11-.28 15.2-.45l3.08-.11 2.2.08c4.17.15 12.84.48 20.74.48 3.47 0 4-1.56 4-2.49a2.19 2.19 0 0 0-2.49-2.12 80.26 80.26 0 0 1-8.26-.74c-4.66-.62-5.82-3.64-6.41-9.38-.93-7.78-.93-22.87-.93-40.35V174c3.59.08 7.22.12 10.74.17 3.85 0 7.83.09 11.74.18 18.57.39 21.52 5 22 9.26a7.86 7.86 0 0 0 .1 1.17 5.38 5.38 0 0 1 .09.95c.13 1.83.29 4.1 2.49 4.1.54 0 2.3-.24 2.3-3.42 0-.76.08-3 .18-5.93.16-4.68.38-11.08.38-14.59-.13-1.16-.13-3.26-2.06-3.26zm62.91 62.5l-5.23-4.09c-17.56-13.71-22.36-20.28-22.36-30.54 0-12.34 8.81-20.63 21.93-20.63 15.65 0 20.9 6.55 22.44 9.36a32.17 32.17 0 0 1 2.31 9c.16 1.31.41 3.3 2.48 3.3 2.31 0 2.31-3.44 2.31-5.29 0-9.94.46-15.84.65-18.37.06-.72.09-1.19.09-1.4 0-2.3-2.08-2.3-2.86-2.3a28.81 28.81 0 0 1-6.29-.91 73.8 73.8 0 0 0-17.58-1.89c-23.69 0-39.61 13.89-39.61 34.57 0 12.63 4.19 24.48 24.61 41.24l8.39 6.9c16.56 13.66 21.09 20.71 21.09 32.8 0 11.83-8.82 23.8-25.67 23.8-6.89 0-23.29-1.77-26.62-18.23a31.73 31.73 0 0 1-.54-6.69c0-1.07 0-3-2.31-3-2.13 0-2.36 2.53-2.49 3.92 0 .58-.09 1.33-.16 2.23-.29 3.76-.77 10.06-.77 17.6 0 5 .13 6.37 3.35 8 7.08 3.46 15.4 5.14 25.43 5.14 11.28 0 21.22-2.77 28.74-8 12-8.52 16.27-22 16.27-31.77.01-14.57-4.51-26.51-27.6-44.71zm188.67-63.81c-29.55 0-47.21 13.86-56.81 25.49-11.06 13.4-17.67 31.5-17.67 48.43 0 18.46 6.29 36.64 17.25 49.87 13.23 16 32.64 24.42 56.11 24.42 21.55 0 41-8.09 54.79-22.79 13.3-14.18 20.62-33.53 20.62-54.49 0-42.38-29.85-70.89-74.29-70.89zm3.92 139.12a54.25 54.25 0 0 1-41.67-19.07c-11.13-12.89-17-30.65-17-51.35 0-19.12 5.28-34.79 15.27-45.31 9.36-9.84 22.56-15.05 38.19-15.05 26.82 0 55.69 21.22 55.69 67.82-.01 59.97-42.06 63-50.48 63zm166.84-138a4.89 4.89 0 0 0-2.21.9c-1.08.67-3.83.77-7 .9l-1.62.07c-4.07.17-38.9.18-45.84.18-3.27 0-6.57-.13-10.07-.27s-7.27-.29-11-.29c-1.09 0-4 0-4 2.49 0 1.85 2.26 2.1 4.06 2.3.8.09 1.63.14 2.42.18s1.65.1 2.15.18c5.23 1.11 6.85 3.29 7.23 9.71.37 5.94.37 11.17.37 40.22v32.83c0 19.27-.23 31.16-.74 38.53-.59 8.54-2 10.37-5.06 11.23a28.38 28.38 0 0 1-4.69.71c-.88.1-2.94.33-2.94 2.12 0 2.49 2.9 2.49 4 2.49 5.28 0 15.5-.5 16.59-.56h1.68l2.15.07c4.13.16 12.73.49 20.79.49 1.09 0 4 0 4-2.31 0-1.95-2.19-2.19-3.14-2.3l-1.85-.15c-1.87-.15-4-.32-5.78-.59-3.6-.4-6.12-2.62-6.76-12.13-.56-8.54-.56-22-.56-37.6V236a4.66 4.66 0 0 1 .05-.65 1 1 0 0 1 .26 0c7 0 23.89.05 28 .55 8.87 1.19 9.38 6.85 9.77 11 .18 1.81.4 4.07 2.48 4.07s2.13-2.17 2.31-4.1c.06-.92.1-2 .15-3.28.09-2.59.22-5.81.59-9.57a81.6 81.6 0 0 1 1.16-8.18 16.15 16.15 0 0 0 .34-2.35c0-2.06-1.06-2.49-1.94-2.49-1.07 0-1.66.76-2.29 1.57l-.53.66c-2.26 2.74-4.21 3-14.17 3.18-7.63.18-18.19.18-25.9.18h-.25a2.7 2.7 0 0 1-.06-.68v-51.47c0-1.05.23-1.05.66-1.05l28.52.56c4.51.15 7.91 1.24 10.39 3.3s3.06 6.75 3.2 8.68c.15 1.4.37 3.31 2.3 3.31 1.5 0 2.68-2.07 2.67-4.66.11-1.5.19-2.81.26-4.06.18-3 .33-5.67.85-9.46.16-.95.4-2 .6-2.93a17.33 17.33 0 0 0 .53-3c-.02-1.61-.87-2.69-2.09-2.69zm208.31 139.87a23.9 23.9 0 0 1-7-1.08c-4.05-1.16-9.05-4.45-15.39-20.11-8.12-20.24-25.31-65.16-35.59-92-4.1-10.7-7.05-18.42-7.85-20.45-2.21-5.69-3.14-7.35-5-7.35s-2.77 1.69-5 7.93L2163 285.07c-3.57 9.93-7.15 15.87-14.84 16.87a39.07 39.07 0 0 1-4.36.37c-3 0-3.61 1.15-3.61 2.12 0 2.49 3.07 2.49 4.55 2.49 5.92 0 12.48-.25 16.82-.42 2-.08 3.6-.14 4.25-.14.8 0 2.53.09 4.52.2 3 .16 6.77.36 9.47.36 3.93 0 4.35-1.74 4.35-2.49 0-2.12-2.48-2.12-3.42-2.12h-1.68c-2.75 0-5.71-1.38-5.71-4.41a38 38 0 0 1 2.56-12.17l11.17-33c.34-.87.7-.87.93-.87h40.1c.42 0 .51 0 .76.53l17.32 45.82a4.05 4.05 0 0 1 .18 3.06 1.31 1.31 0 0 1-.6.66c-1.8.44-2.06 1.61-2.06 2.27 0 2 2.26 2.09 5.68 2.26l.88.05c8.31.24 18.72.37 29.31.37 3.14 0 4.73-.84 4.73-2.49.02-.93-.51-2.08-3.03-2.08zm-90.8-59.12l16.4-50.34a8.3 8.3 0 0 1 .45-1.11 7.12 7.12 0 0 1 .46 1.12l17.69 50.27v.06zm287.23 59.12a36.55 36.55 0 0 1-11.25-1.63c-7.56-2.46-8.7-12.77-9.39-18.93l-12.49-114.5c-.32-3-.83-5.93-3.23-5.93-2.12 0-3.12 2.24-3.71 3.56l-53.94 115.26-56.14-115.4c-.92-2-1.9-3.38-3.7-3.38-1.62 0-2.79 1.78-3 4.62l-13.42 121.21-.18 1.49c-.9 7.57-1.69 12.26-6.49 13.13a23.09 23.09 0 0 1-5.4.54c-1.68 0-2.86.87-2.86 2.12 0 2.49 2.82 2.49 4.17 2.49 3.21 0 8-.23 11.5-.39 2-.1 3.57-.17 4.16-.17s1.78.06 3.47.13c3.86.17 9.71.43 14.44.43 1 0 3.8 0 3.8-2.68 0-.89-.75-1.93-2.87-1.93a27 27 0 0 1-6.52-.73c-2.2-.44-4.23-1.44-4.23-5.73 0-2.83.16-5.27.32-7.85v-.83l7.31-83.94c5.47 12.16 22.12 47.91 23.62 50.92l.63 1.26c13.88 27.87 19.19 38.24 21.2 42l.39.74c3.57 6.77 4.42 8.38 6.28 8.38 2.1 0 2.81-1.49 5.76-7.72l46-97.52 8.62 93.72c.4 3.56.35 5.47-.12 5.67-.91.37-1.94.78-1.94 2.24 0 2.15 2.66 2.56 6.14 2.86 7 .56 28.32 1.12 32.35 1.12 1.42 0 3.79 0 3.79-2.49-.02-.62-.31-2.1-3.07-2.1zm98.81-22.57c-2 0-2.39 2.09-2.66 3.62-1.56 8.35-3.62 11.4-8.82 13-4.85 1.44-10.8 1.64-16.5 1.64-8 0-12.33-.47-15.1-1.61-3.79-1.51-5.13-4.61-5.53-12.73-.13-2.79-.07-14.84 0-23.63V235.43a.58.58 0 0 1 0-.27.55.55 0 0 1 .26 0c3.13 0 21.57.37 26.55.93 6.84.76 8.32 3.45 8.86 5.47a15.71 15.71 0 0 1 .7 4.91c0 1 0 4 2.3 4 1.93 0 2.19-2.59 2.31-3.72.06-.89.1-2 .15-3.21.1-2.51.22-5.63.59-9.46a81.6 81.6 0 0 1 1.16-8.18 16.15 16.15 0 0 0 .34-2.35c0-2.31-1.48-2.49-1.93-2.49-1.17 0-1.89.87-2.81 2l-.2.24c-1.52 1.82-3.37 2.43-8.64 2.82-3.13.27-17.33.37-29.57.37h.03a4.57 4.57 0 0 1-.06-.86v-51.56a1.81 1.81 0 0 1 .12-.87c2.22 0 22.36.2 25.46.56 7.9.72 11.42 2.45 12.58 6.26a17.85 17.85 0 0 1 .87 5.8c0 3 1.56 3.42 2.49 3.42 1.34 0 2.23-1.44 2.49-4.09.26-3.39.43-6.14.57-8.44q.09-1.5.18-2.76a35.17 35.17 0 0 1 1.09-6.64 9.59 9.59 0 0 0 .4-2.19c0-2.42-1.22-2.68-1.74-2.68a5.24 5.24 0 0 0-2.5.85c-.33.17-1.91.73-8.18 1-4.22.18-41.09.18-42.61.18-11.78-.56-16.74-.56-21.12-.56-1.09 0-4 0-4 2.49 0 1.64 1.9 1.91 3.32 2.12.59.06 1.27.11 2 .15a19 19 0 0 1 3.34.39c5.23 1.11 6.85 3.29 7.23 9.71.37 5.94.37 11.17.37 40.22v32.83c0 16.55-.19 26.15-.38 33.35-.37 14.12-2.91 15.87-6 16.6a14.34 14.34 0 0 1-2.78.41c-.4 0-.84.06-1.39.12-2.39.4-2.89 1.37-2.89 2.11 0 2.49 2.9 2.5 3.94 2.49a72.06 72.06 0 0 0 8-.27c2-.15 3.91-.29 5.83-.29 5 0 10.59.18 16 .35l7.27.21 5.64.17c5.35.19 11.41.39 21.61.39 7.32 0 9.53 0 11-5.62a182.77 182.77 0 0 0 2.45-18.32c.03-1.31.03-3.78-2.09-3.78zm-.47 1.1zm161.11 21.47a43.48 43.48 0 0 1-7.11-.55c-4.93-.79-12.6-3-22.18-13.12s-20.48-24.25-33.23-40.62l-4.94-6.33c15.15-14.18 22.21-27.92 22.21-43.19 0-13.11-8.35-22.62-13.28-26.18-10.32-7.39-23.34-8.39-34.71-8.39-3.64 0-10.64.22-15.74.39-3.09.09-5.52.17-6.27.17-.23 0-1.13 0-2.47-.09-4-.15-12.29-.47-18.6-.47-1.09 0-4 0-4 2.49a2.25 2.25 0 0 0 2.49 2.12 34.39 34.39 0 0 1 6.14.54c5.23 1.11 6.85 3.29 7.23 9.71.37 5.94.37 11.17.37 40.22v32.83c0 17.48 0 32.57-.93 40.33-.8 5.79-1.73 8.84-4.63 9.42a27.67 27.67 0 0 1-5.38.72 2.19 2.19 0 0 0-2.49 2.12c0 2.49 2.89 2.49 4 2.49 4.76 0 13.77-.39 16.73-.52h.8l2.2.08c4.17.15 12.84.48 20.74.48 3.47 0 4-1.56 4-2.49a2.19 2.19 0 0 0-2.5-2.12 80.26 80.26 0 0 1-8.26-.74c-4.66-.62-5.81-3.64-6.41-9.38-.92-7.78-.92-22.87-.92-40.35v-4.48a1 1 0 0 1 .07-.46.55.55 0 0 1 .22 0l22.95.37a2 2 0 0 1 1.67.78c1.58 2 4.07 5.49 6.95 9.47 3.93 5.42 8.82 12.16 13.34 18.08l2.37 3.12c9.35 12.35 15.53 20.5 23.13 24.57 5.14 2.77 10.11 3.66 20.42 3.66h13.24c2.32 0 5.48 0 5.48-2.49a2.45 2.45 0 0 0-2.7-2.15zm-73.86-66.21c-4.33 3-9.73 3.36-13.42 3.36-7.9 0-16.45-1.27-19.06-2.84a1.44 1.44 0 0 1-.82-1.38v-61a1.22 1.22 0 0 1 .78-1.28 54.58 54.58 0 0 1 12.2-1.08c19.58 0 31.27 13.57 31.27 36.3 0 12.86-4.09 23.25-10.95 27.96zm130.45 66.21c-1 0-4.86-.36-7.52-.74-4.66-.62-5.82-3.64-6.41-9.38-.93-7.78-.93-22.87-.93-40.35V219c0-29 0-34.28.38-40.22.37-6.56 1.85-8.92 6.06-9.7a26.62 26.62 0 0 1 4.5-.55 2.25 2.25 0 0 0 2.49-2.12c0-2.49-2.89-2.49-4-2.49-4 0-11 .28-15.19.45l-3.09.11c-.26 0-1.35 0-2.93-.11-4-.15-11.45-.45-15.9-.45-1.09 0-4 0-4 2.49a2.25 2.25 0 0 0 2.49 2.12 23.58 23.58 0 0 1 5.56.72c3.61.82 5.22 3.58 5.57 9.53s.37 11.17.37 40.22v32.83c0 17.48 0 32.57-.92 40.33-.76 5.48-1.83 9-4.82 9.6a24.87 24.87 0 0 1-4.64.54c-2.75 0-3.05 1.48-3.05 2.12 0 2.49 2.9 2.49 4 2.49 4 0 11-.28 15.19-.45l3.08-.11 2.23.08c4.22.15 13 .48 20.9.48 3.14 0 3.79-1.36 3.79-2.49.05-.49-.21-2.11-3.21-2.11zm141.49-31.14c-2.19 0-2.57 2.09-2.86 3.63-.53 3.23-2.87 11.19-6.62 15.13-7.74 7.93-19.83 9-31.74 9a65 65 0 0 1-47.9-20.45 69 69 0 0 1-18.42-46.8c0-15.9 1.95-34 16.48-48 3.39-3.3 13.72-13.33 42.2-13.33 11.81 0 28.32 3.25 36.65 10.39 4.47 3.79 7.48 11.12 7.48 18.26 0 2.07 0 4.92 2.49 4.92s2.54-2.81 2.68-4.85c.07-1.2.12-3.72.17-6.64.08-4 .17-9 .38-12.58.23-4.07.53-6.48.72-8.08a21.36 21.36 0 0 0 .22-2.42 2.76 2.76 0 0 0-2.55-3l-5.69-.73c-4.62-.58-9-1.13-14-2.06a162.47 162.47 0 0 0-27.22-2.25c-25.13 0-44 6.62-57.59 20.25-15.61 15.61-21.18 36.9-21.18 51.62 0 23.49 7.71 42.32 22.9 55.94 15.48 13.92 35.25 20.4 62.21 20.4 11.14 0 25.91-1.15 34-4.37 3.64-1.63 4.2-2.25 5.4-6 1.89-6.44 4.14-22.73 4.14-24.16-.05-3.51-1.81-3.78-2.35-3.78zm150.39 31.14a23.86 23.86 0 0 1-7-1.08c-4.06-1.16-9-4.45-15.39-20.11-8.12-20.24-25.32-65.16-35.59-92-4.1-10.7-7.06-18.42-7.86-20.45-2.2-5.69-3.13-7.35-5-7.35s-2.77 1.69-5 7.93l-42.34 115.82c-3.57 9.93-7.15 15.87-14.85 16.87a38.7 38.7 0 0 1-4.35.37c-3 0-3.61 1.15-3.61 2.12 0 2.49 3.07 2.49 4.54 2.49 5.93 0 12.49-.25 16.83-.42 2-.08 3.6-.14 4.25-.14.8 0 2.52.09 4.52.2 3 .16 6.77.36 9.46.36 3.94 0 4.36-1.74 4.36-2.49 0-2.12-2.49-2.12-3.42-2.12h-1.68c-2.75 0-5.72-1.38-5.72-4.41a38.22 38.22 0 0 1 2.56-12.17l11.17-33c.35-.87.7-.87.94-.87h40.09c.42 0 .52 0 .77.53l17.32 45.82a4.1 4.1 0 0 1 .18 3.06 1.36 1.36 0 0 1-.6.66c-1.8.44-2.07 1.61-2.07 2.27 0 2 2.26 2.09 5.69 2.26l.88.05c8.31.24 18.71.37 29.31.37 3.14 0 4.73-.84 4.73-2.49-.07-.89-.6-2.04-3.12-2.04zm-90.81-59.12l16.41-50.34a.65.65 0 1 1 .91 0l17.69 50.27v.06z"/>
</svg>
