<svg xmlns="http://www.w3.org/2000/svg" viewBox="0 0 429.59 111.5" aria-hidden="true">
  <path fill="currentColor" d="M52.62 7.13c-3.72 1.79-8.83 4.67-7.44 6.4 2 2.5 2.74 2.71-.61 4.78-4.3 2.66-4.72 6.43-2.89 7.22 2.17.94 5.39-3.67 8.58-2.71 1.53.46 2.86 1.45 4.41 1.91 2.42.72 3.11.2 4.36 2 2 2.87 3 6.93 5.94 9.32a7.76 7.76 0 0 0 5 1.14v-.73A33.47 33.47 0 0 0 52.62 7.13zm-16.69 5.41c4-1.83 6.69-5 9.46-8.34a33.63 33.63 0 0 0-17.28-.14 35.17 35.17 0 0 0 2.07 6.48c1.82 3.72 2.42 3.54 5.75 2zM27 45.22c-2.21-1.79-5.6-2.58-8.22-3.64s-4.81-.1-7.32-.52c-1.8-.3-.6-1.66-1.3-2.66s-2.5-.94-2.5-2.82 3-4.91 6-4.51c2 .27 3 5.92 5 5.45s2-6.52 4.47-8.52c.53-.42 8-4.71 8-9.41 0-4.24-3.47-5.68-4.5-7.53a22 22 0 0 0-4.41-4.92A33.51 33.51 0 0 0 3 36.51c0 13.91 9.38 33.25 18.21 48.39 1.27-5.47 2.38-11.64 4.53-16.73 1.17-2.78 3.76-5.3 4.9-8.09.71-1.75 3.37-7.75 3-9.54s-5.2-4.17-6.64-5.32zm34.64-10.87c-2.46-3.6-1.45-5.31-6.07-5.74-5.38-.56-10.23-4-14.55-.75-3.25 2.44-8 11-3.63 13.35 2.33 1.23 6.82-.31 8.91 1.26 1.4 1 1.74 4.44 1.89 6.13.49 5.57.68 17.46 6.46 17.4 1.83 0 3.62-5.45 6.5-9 1.67-2.06 1.81-7.35 2-10 .08-1.15 1.34-3.29 1.85-4.19.8-1.41 2.14-1.36 2.69-3.27-4.54 0-3.44-1.38-6.05-5.19zm-20.33-18a.26.26 0 0 0 0 .08c-.19 1-.11 3.09 1.33 2.22 1.2-.72.1-2.07-.84-2.47a.35.35 0 0 0-.49.13z" opacity=".35"/>
  <path fill="currentColor" d="M118 51.81a19.76 19.76 0 0 0 4.88-5.19 30.35 30.35 0 0 0 3.54-7.29 23.85 23.85 0 0 0 1.32-7.53 23.11 23.11 0 0 0-2.17-10.25 16.31 16.31 0 0 0-6.27-6.94 18.35 18.35 0 0 0-9.73-2.49 3.68 3.68 0 0 0-2.52.88 4.41 4.41 0 0 0-1.37 2.4 17.12 17.12 0 0 0-.53 2.75q-.12 1.25-.12 3v.7q0 9.21.42 24.38t.42 24.37q0 3.81-.29 14.77t-.29 14.77c0 2 1.88 3 5.63 3h.47a16.89 16.89 0 0 0 7.85-1.88 18.46 18.46 0 0 0 5.57-4.4 29.79 29.79 0 0 0 4-6.27q2.81-6 2.81-10.37a39.64 39.64 0 0 0-3.32-16.28A28.18 28.18 0 0 0 118 51.81zm-6.44-29.18c0-2.5.57-3.75 1.7-3.75a6.68 6.68 0 0 1 4.13 1.5 11.58 11.58 0 0 1 3.22 4 10.24 10.24 0 0 1 1.23 4.75v4.28c-.27.63-.66 1.72-1.17 3.28a60.74 60.74 0 0 1-3.34 8.2 12.52 12.52 0 0 1-2.43 3.52 6.2 6.2 0 0 1-2.9 1.7q0-5.22-.2-13.42t-.24-14.06zm12.29 65.6A15 15 0 0 1 119.4 94a14.25 14.25 0 0 1-6.81 2.87q0-24-.59-39.79h4.24l.94.41a9.58 9.58 0 0 1 2.29 2.11 29.82 29.82 0 0 1 2.7 3.81 23.08 23.08 0 0 1 2.32 7 52.74 52.74 0 0 1 .91 10.11 18.76 18.76 0 0 1-1.55 7.71zM169 97.36l-.76-1.52a67 67 0 0 1-3.81-10.63q-1.59-5.79-3.23-14.79L158.9 59l1.94-3.44 2.28-4.34a33.73 33.73 0 0 0 1.35-3.93 15.06 15.06 0 0 0 .64-4v-8.44a11.81 11.81 0 0 0-1.94-6.85 12.25 12.25 0 0 0-5.3-4.33 18.66 18.66 0 0 0-7.59-1.49c-2.67 0-4 1.9-4 5.69q0 10.81 1.06 32.81 1 22.6 1 32.75l-.12 8 1.58 1.76h3.34l1.35-3.22q-2.3-9.12-2.29-25 0-3.75.06-6.62t.06-6.39h1.46q1.07 2.62 4.4 19.63l.82 4a71 71 0 0 0 3.72 12.77q2.29 5.81 4.81 5.8a2.44 2.44 0 0 0 1.93-.9 3.24 3.24 0 0 0 .76-2.17 5 5 0 0 0-.29-1.67 16.16 16.16 0 0 0-.93-2.06zM156 51.9a8.34 8.34 0 0 1-3.19 4.1q0-5.36-.27-13.53t-.24-14.18a3.16 3.16 0 0 1 .23-1l.18-.7a6 6 0 0 1 3.49 1.08 5.53 5.53 0 0 1 2 2.9 22.19 22.19 0 0 1 .7 3.43 34.41 34.41 0 0 1 .18 3.8 34.85 34.85 0 0 1-.83 7 34.08 34.08 0 0 1-2.25 7.1zm44.49 45.49l-4.92.12-3.93.18q-.24 0-.24-6.74c0-1.87.1-5.51.29-10.9.15-4.33.23-8 .23-10.84s-.12-6-.35-9.08h3a24.18 24.18 0 0 0 3.4.23 4 4 0 0 0 2.72-1 2.94 2.94 0 0 0 1.08-2.26q0-3.29-5.8-3.28-1.33 0-2.34.06l-1.93.12-.34-1.9q0-2.28.29-8.61.22-5.09.23-8.61 0-2.64-.18-5.16a52.48 52.48 0 0 1 9.08 2.28 7.25 7.25 0 0 0 2.52-1.56 3 3 0 0 0 1-2.2c0-1-.87-1.86-2.61-2.65a27.46 27.46 0 0 0-6-1.93 28.75 28.75 0 0 0-5.77-.73q-5 0-5 8.5c0 1.11.12 2.77.35 5 .19 2.54.29 4.24.29 5.1q0 6.61-.41 17.52t-.41 17.52q0 1.94.29 7.68t.29 7.68l.12 2.52q.06 1.11.06 2.4V100a3.52 3.52 0 0 0 1.32 2.7 4.3 4.3 0 0 0 2.9 1.08h10.19a7.08 7.08 0 0 0 3.66-.88 2.81 2.81 0 0 0 1.49-2.58q0-2.92-4.57-2.93zm48.12-12.26a19.28 19.28 0 0 0-.65-3.69 19.28 19.28 0 0 1-.65-3.69q0-7.68-2.41-25.9-2.47-18-2.47-27.13a2.56 2.56 0 0 0-1.17-2.26 5.14 5.14 0 0 0-2.93-.79h-4a10.36 10.36 0 0 0-1.41 4 68.22 68.22 0 0 0-.76 7.12c-.12 1.52-.26 3.14-.41 4.86a513.18 513.18 0 0 1-12 60.82l-.12.47a1.93 1.93 0 0 0-.18.59 2.83 2.83 0 0 0 1.17 2.29 4.1 4.1 0 0 0 2.64.94 3.1 3.1 0 0 0 2.46-1.17c1-1.25 1.77-3.84 2.28-7.79a82.41 82.41 0 0 1 2-11.13l11.85 1.75.47 2.58a93.14 93.14 0 0 1 1.26 12.25 3.46 3.46 0 0 0 1.32 3.11 7.33 7.33 0 0 0 4 .88c1.33-.51 2-1.64 2-3.4v-.12a47.89 47.89 0 0 0-1.12-7.44 57.59 57.59 0 0 1-1.17-7.15zm-18.1-6.92q1.56-12.36 7-42.54.49 5.33 1.29 12.42 1 9.44 1.47 15.68t.47 11.92a22.9 22.9 0 0 0 .35 4.45q-8.61-.65-10.58-1.93zm64.23 17.34l-1.58-2.17a63.12 63.12 0 0 1-4.43-10.81q-2.62-7.87-4.63-15.88t-2-11.28l.12-3.57.12-3.57q.92-1.87 10-16.88 2.87-4.63 2.87-4.81a2.64 2.64 0 0 0-1.38-2.32 6.08 6.08 0 0 0-3.25-.85q-1.41 0-4.92 6T277.93 44l-4.41 8.77v-4.28q0-19.16 1.58-21.86v-.35a3.7 3.7 0 0 0-3.69-3.69 3.64 3.64 0 0 0-3.57 2.29q0 6.74-1.11 19.34-1.17 13.24-1.17 19.45v36.48a3.65 3.65 0 0 0 1.08 2.78 4.06 4.06 0 0 0 2.9 1c1.64 0 2.46-.94 2.46-2.81V78.91q0-12.19 4.41-20.88.82 4.63 2.17 10.49 1.82 8.3 4.16 16.29a78.37 78.37 0 0 0 5 13.36q3.11 6 5.86 6a3.43 3.43 0 0 0 2.4-.91 2.93 2.93 0 0 0 1-2.26 6.37 6.37 0 0 0-.5-2.55 17.11 17.11 0 0 0-1.76-2.9zM342.07 35q-.52-3.57-1.47-8.2a33.58 33.58 0 0 0-2.17-6.8 32.74 32.74 0 0 0-3.28-5.68 12.23 12.23 0 0 0-4.39-3.75 12.57 12.57 0 0 0-5.68-1.29 9.5 9.5 0 0 0-4.28 1 10.17 10.17 0 0 0-3.22 2.72 17.2 17.2 0 0 0-2.14 4.18A43.39 43.39 0 0 0 313 28.49a123.75 123.75 0 0 0-.58 12.77l.12 7.56q.06 3.16.06 6.45 0 1.88.12 6.33.18 3.87.62 8.88t1.14 9.23a85.31 85.31 0 0 0 2.11 9.61 44.66 44.66 0 0 0 3 8.14 17 17 0 0 0 4.54 5.8 9.26 9.26 0 0 0 5.89 2.17 8.18 8.18 0 0 0 6-2.81 18 18 0 0 0 4-6.21 18.81 18.81 0 0 0 1.36-6.87 35 35 0 0 1 .76-7.91v-.53q0-2.46.53-7.5t.53-7.68V59q0-7.15-.41-16a76.4 76.4 0 0 0-.72-8zm-4.54 36.78q-.4 6.79-1.11 12.69a44 44 0 0 1-2.17 9.87q-1.69 4.52-4.1 4.51c-1.85 0-3.51-1.39-5-4.16a38.22 38.22 0 0 1-3.43-9.49q-1.32-5.62-2.32-13.3a151.83 151.83 0 0 1-1.59-19.75v-.53q0-.65.12-6.27l.06-2.23q.12-4.92.88-12.13a47.14 47.14 0 0 1 2.35-10.75c1.09-3.13 2.58-4.69 4.45-4.69a5.63 5.63 0 0 1 3.92 1.59 12.67 12.67 0 0 1 3 4.75 61.16 61.16 0 0 1 3.58 14.65q1.13 9.78 1.41 16.17.18 5.69.18 11.07 0 3.85-.23 8.01zm52.81-50.18a3.38 3.38 0 0 0-2.46-.91 3.77 3.77 0 0 0-2.58.67 2.84 2.84 0 0 0-.7 2.14 7.42 7.42 0 0 0 .06.94v7.83q0 64.52-8.54 64.51-7.62 0-7.62-8.79 0-4-.83-12.75-.89-8.43-.88-12.71V29.86a10.18 10.18 0 0 0-1.11-4.69c-.7-1.45-1.54-2.17-2.52-2.17s-1.85.86-2.62 2.59l.24 5.51q.29 7.5.29 11.66 0 17.28.3 31.64a99.3 99.3 0 0 0 .82 13.24 32.74 32.74 0 0 0 1.41 6.18A27.65 27.65 0 0 0 366 99a10 10 0 0 0 3.73 3.62 10.35 10.35 0 0 0 5.16 1.29q15.47 0 15.46-53.27a9.24 9.24 0 0 0-.06-1 8.39 8.39 0 0 1-.06-1c0-.87.1-2.54.29-5 .15-2 .23-3.67.23-5a57.21 57.21 0 0 1 .41-6 58.93 58.93 0 0 0 .41-6.09c0-.93 0-1.87-.12-2.81a3.64 3.64 0 0 0-1.11-2.13zm35.46 1.84h-1a7.42 7.42 0 0 1-.94.06 76.42 76.42 0 0 1-8.14-.58q-5.45-.53-8.14-.53a4.83 4.83 0 0 0-2.58.76 2.16 2.16 0 0 0-1.23 1.85 2.43 2.43 0 0 0 1.23 2q2.08 1.35 9 1.52.18 6.69 1.59 31.79t1.88 26.51L417.3 91l.07 4.52.12 4.63 2.23 1.58a4.24 4.24 0 0 0 2.84-1.08 3.21 3.21 0 0 0 1.26-2.49q0-11.82-2-34.1t-2-34l.12-.7.12-.53 2.4.41a15.5 15.5 0 0 0 3.11.41 4.43 4.43 0 0 0 2.78-.94 2.86 2.86 0 0 0 1.2-2.34q0-2.91-3.75-2.92zM36.49 0A36.54 36.54 0 0 0 0 36.51c0 27 32.69 71.87 34.08 73.76a3 3 0 0 0 4.84 0C40.31 108.37 73 63.49 73 36.49A36.5 36.5 0 0 0 36.49 0zm0 103.3C28.89 92.31 6 57.51 6 36.51a30.5 30.5 0 0 1 61 0c0 20.95-22.9 55.8-30.5 66.79z" />
</svg>
