<svg xmlns="http://www.w3.org/2000/svg" viewBox="0 0 480 62.66" aria-hidden="true">
  <path fill="currentColor" d="M38.65 54.09a31.33 31.33 0 0 1-9.48 1.22 21.11 21.11 0 0 1-8.87-1.73 17.41 17.41 0 0 1-6.3-4.89 21.13 21.13 0 0 1-3.81-7.58 35.54 35.54 0 0 1-1.26-9.78 32.7 32.7 0 0 1 1.43-10 22.29 22.29 0 0 1 4-7.58A17.36 17.36 0 0 1 20.6 9a19.4 19.4 0 0 1 8-1.64 29.94 29.94 0 0 1 4.93.39 32.6 32.6 0 0 1 4.28 1c1.3.41 2.44.81 3.42 1.21a12.85 12.85 0 0 1 2.25 1.13L46 4.15a20 20 0 0 0-1.9-1 23.42 23.42 0 0 0-3.63-1.39A43.74 43.74 0 0 0 35.18.52a41.66 41.66 0 0 0-7-.52A28.32 28.32 0 0 0 17.4 2.08a26.11 26.11 0 0 0-9 6.06A28.41 28.41 0 0 0 2.25 18 37 37 0 0 0 0 31.33a40.37 40.37 0 0 0 2 13.33 27.82 27.82 0 0 0 5.76 9.82 24.18 24.18 0 0 0 8.92 6.11 30.79 30.79 0 0 0 11.51 2.07 49 49 0 0 0 6.81-.43 50.21 50.21 0 0 0 5.45-1 29.46 29.46 0 0 0 3.89-1.25 12.74 12.74 0 0 0 2.17-1.09l-2.17-6.92a40.92 40.92 0 0 1-5.69 2.12zm54.61-25.7q-2.91-7.27-5.76-13.89t-6-13.11h-7.68q-3.12 6.48-6 13.11t-5.73 13.89q-2.9 7.28-5.93 15.36t-6.49 17.61h8.75L63.87 46h27.18c.92 2.6 1.82 5.16 2.68 7.7s1.79 5.11 2.77 7.7h9.18q-3.47-9.51-6.5-17.61t-5.92-15.4zm-27 10.73Q69 31.5 71.71 24.49T77.46 11q2.94 6.49 5.67 13.55t5.5 14.58zm87.76 6.66q-2.77-4.58-6.8-10.47t-8.57-12q-4.55-6.1-9.17-11.86t-8.7-10.08h-6.66v60h8.22V14.54c1.61 1.85 3.38 4 5.28 6.4s3.86 5 5.88 7.75 4.06 5.58 6.11 8.53 4 5.84 5.93 8.69 3.67 5.62 5.32 8.27 3.1 5 4.37 7.18h7v-60h-8.22zm131 0q-2.77-4.58-6.8-10.47t-8.56-12q-4.55-6.1-9.18-11.86t-8.7-10.08h-6.66v60h8.22V14.54q2.43 2.78 5.28 6.4t5.89 7.75q3 4.11 6.1 8.53t5.93 8.69q2.85 4.29 5.32 8.27t4.37 7.18h7v-60h-8.22zm23.46 15.58H317v-60h-8.4zm49.52 1.3zm10.43-8.57a31.33 31.33 0 0 1-9.48 1.22 21.14 21.14 0 0 1-8.87-1.73 17.33 17.33 0 0 1-6.32-4.9 21.09 21.09 0 0 1-3.81-7.57 35.94 35.94 0 0 1-1.25-9.78 32.7 32.7 0 0 1 1.43-10 22.27 22.27 0 0 1 4-7.58A17.33 17.33 0 0 1 350.35 9a19.44 19.44 0 0 1 8-1.64 30.07 30.07 0 0 1 4.94.39 33.37 33.37 0 0 1 4.28 1c1.3.41 2.44.81 3.42 1.21a13.62 13.62 0 0 1 2.25 1.13l2.51-6.93c-.35-.23-1-.57-1.91-1a24.16 24.16 0 0 0-3.63-1.38A41.75 41.75 0 0 0 358 0a28.32 28.32 0 0 0-10.82 2.08 26.2 26.2 0 0 0-9 6.06A28.32 28.32 0 0 0 332 18a37 37 0 0 0-2.25 13.37 40.1 40.1 0 0 0 2 13.33 27.65 27.65 0 0 0 5.75 9.82 24.26 24.26 0 0 0 8.92 6.11A30.77 30.77 0 0 0 358 62.66a49.38 49.38 0 0 0 6.76-.43 49.75 49.75 0 0 0 5.45-1 29.65 29.65 0 0 0 3.9-1.25 12.17 12.17 0 0 0 2.16-1.09l-2.16-6.92a41.15 41.15 0 0 1-5.71 2.12zM423 28.39q-2.89-7.28-5.76-13.89t-6-13.11h-7.7q-3.12 6.48-6 13.11t-5.75 13.89q-2.91 7.28-5.93 15.36t-6.49 17.61h8.74L393.62 46h27.18c.92 2.6 1.82 5.16 2.68 7.7s1.79 5.11 2.77 7.7h9.18q-3.46-9.51-6.49-17.61T423 28.39zm-27 10.73q2.68-7.62 5.41-14.63t5.8-13.49q2.94 6.49 5.66 13.55t5.5 14.58zm56.3 15.23v-53h-8.39v60H480v-7zm-248.56-43a19.95 19.95 0 1 0 19.95 19.95 19.95 19.95 0 0 0-19.95-19.92zm0-11.38a31.33 31.33 0 1 0 31.33 31.33A31.33 31.33 0 0 0 203.74 0zm0 55a23.71 23.71 0 1 1 23.71-23.71A23.71 23.71 0 0 1 203.74 55z"/>
</svg>
