<svg xmlns="http://www.w3.org/2000/svg" viewBox="0 0 712.6 286.2" aria-hidden="true">
  <path fill="currentColor" d="M61.6 124.2c9.5 0 18.1-2.9 26.7-7V89.8c-6.4 7.3-16.3 12.5-26.1 12.5-21.5 0-34.6-19.8-34.6-39.7 0-20.4 12.7-40.7 34.7-40.7a34.06 34.06 0 0 1 26 12.5L88.4 7A54.89 54.89 0 0 0 62.1.1C27.5.1 3.9 29.6 3.9 63.1c0 32.5 24.6 61.1 57.7 61.1zM179.6 0c-35.2 0-58.3 26.9-58.3 61.9 0 34.7 22.3 62.2 58.3 62.2s58.3-27.5 58.3-62.2c0-35-23.1-61.9-58.3-61.9zm0 101.5c-25.5 0-34.6-22.4-34.6-40.5 0-19.1 12.9-38.3 34.6-38.3s34.6 19.2 34.6 38.3c0 18.2-9.1 40.5-34.6 40.5zM305.4 3.1h-32.8l-.1 117.9h32.7c33.6 0 57.1-25.7 57.1-58.8 0-33.6-22.8-59.1-56.9-59.1zm-6.1 97.9h-3.7V23.2h3.7c26.1 0 39.2 13.3 39.2 38.9 0 23.3-10.9 38.9-39.2 38.9zm158.8 0h-38V69.1h36.6v-20h-36.6v-26h38v-20h-61V121h61zM0 283.8h14l11.9-26.2h48L86 283.8h14L50 174.7zm31.3-38.1l18.6-42.4 18.6 42.4zm147.4 11.5l-36-82.5-21.4 109.2h13.5l12.2-69.2h.3l31.4 71.4 31.3-71.4h.3l12.2 69.2H236l-21.4-109.2zm89.8 26.7h56.3v-12h-43.2v-39.5h41.9v-12h-41.9v-29.3h43.2v-11.9h-56.3zm150.3-74.8c0-10-4.9-19.9-13.7-25-8.3-4.8-18.3-4.9-27.6-4.9h-15.8v104.7h13.1v-44.3h5.4l30.9 44.3h15.8l-33.2-45.5c15.1-1.8 25.1-14.3 25.1-29.3zM379 228.8h-4.2v-38h3.5c12.9 0 28.5 2.4 28.5 18.8 0 16.7-14.5 19.2-27.8 19.2zm78.6 55.1h13V179.2h-13zm47.6-51.7c0 30.3 24.7 54 54.6 54a56.94 56.94 0 0 0 27.5-7.4v-15.4a42 42 0 0 1-27.9 10.8c-23.3 0-41.1-19.6-41.1-42.5 0-23.2 17.9-42.8 41.4-42.8a42.18 42.18 0 0 1 27.6 10.3v-15a50.09 50.09 0 0 0-26.4-7.1c-30.8 0-55.7 24.1-55.7 55.1zm157.4-57.5l-50 109.1h14l11.9-26.2h48.2l11.9 26.2h14zm-18.7 71l18.6-42.4 18.6 42.4zM618.5 90.2a14.27 14.27 0 0 0 4.3 3.9 11.34 11.34 0 0 0 5.6 1.4 13.38 13.38 0 0 0 3.6-.5l-1.7 2.8c-4.9 8.1-9.7 16.1-14.4 24.3l14.2-.7c2.1-3.8 4.3-7.7 6.9-11.7a131.11 131.11 0 0 1 8.3-11.7 111.05 111.05 0 0 1 9.8-10.8 78.1 78.1 0 0 1 11.1-9l.3.3a12.1 12.1 0 0 0-2.1 6.8c0 3.8 1.1 6.7 3.2 8.6s5 2.9 8.7 2.9a23 23 0 0 0 11.5-3 31.68 31.68 0 0 0 9.2-7.9l-.6-.7c-.9.8-1.8 1.7-2.8 2.7a26.92 26.92 0 0 1-3.2 2.7 25 25 0 0 1-3.5 2.1 10 10 0 0 1-3.8.8q-6 0-6-6a18 18 0 0 1 2.2-8.8 78.54 78.54 0 0 1 4.9-7.8c-2.6.1-4.8.2-6.5.3a24.63 24.63 0 0 0-4.4.6 9.78 9.78 0 0 0-3.1 1.4 26 26 0 0 0-2.8 2.4 19.08 19.08 0 0 1-3.1 2.3 47.09 47.09 0 0 0-5.1 3.8c-2.1 1.7-4.5 3.9-7.2 6.5a122.06 122.06 0 0 0-9.4 10.5l-.3-.3 18.3-25.8-15.8.6c-3.78 6.61-7.55 13.09-11.38 19.45a12.45 12.45 0 0 1-5 1 8.21 8.21 0 0 1-6.3-2.5 12.68 12.68 0 0 1-3.1-6.7 17 17 0 0 0-5.3-9.7c-2.9-2.7-6.8-4-11.8-4a35.67 35.67 0 0 0-11.83 2.1H555.2c1.1-1.7 2.4-4 4-6.9s3.5-6.1 5.5-9.5 4.2-6.9 6.7-10.4a109.94 109.94 0 0 1 7.4-9.6 40.65 40.65 0 0 1 7.6-7 13.23 13.23 0 0 1 7.4-2.7 5.36 5.36 0 0 1 4.4 2.1 9.64 9.64 0 0 1 1.7 6.1 19 19 0 0 1-.8 6 41.77 41.77 0 0 1-2.1 5.3 12.07 12.07 0 0 0 2.5.3 14.22 14.22 0 0 0 8.5-2.5 8.6 8.6 0 0 0 3.6-7.5 9.22 9.22 0 0 0-1.3-5.1 11.68 11.68 0 0 0-3.5-3.5 19.58 19.58 0 0 0-4.9-2.1 21 21 0 0 0-5.6-.7 34.27 34.27 0 0 0-17.5 4.9 72.32 72.32 0 0 0-15.1 12.1 116.32 116.32 0 0 0-12.4 15.6c-3.6 5.6-6.8 10.7-9.5 15.3h-13.6l-1.4 2.5h13.3c-3 4.7-6.3 10.2-9.7 16.4s-7.1 12.6-10.8 19.1-7.7 13-11.8 19.2A134.54 134.54 0 0 1 494.7 147a67.89 67.89 0 0 1-14.4 11.9 30 30 0 0 1-15.7 4.5c-6.1 0-10.4-1.4-13.1-4.2s-4-6.6-4-11.4a15.43 15.43 0 0 1 4.1-11 15.66 15.66 0 0 1 10.8-4.7V131a22.58 22.58 0 0 0-2.9-.4c-1-.1-2.2-.1-3.5-.1a26.52 26.52 0 0 0-7.4 1.1 23.18 23.18 0 0 0-6.5 3.2 16.09 16.09 0 0 0-4.6 5.1 14.62 14.62 0 0 0-1.7 7.1 14.26 14.26 0 0 0 2.6 8.7 20.6 20.6 0 0 0 6.5 5.6 30.22 30.22 0 0 0 8.6 3 48 48 0 0 0 8.9.9 57.68 57.68 0 0 0 22.4-4.2 70.88 70.88 0 0 0 18.4-11.2 97.8 97.8 0 0 0 15.2-16.2 228 228 0 0 0 12.9-19.1c4-6.6 7.8-13.3 11.4-20s7.2-13 10.8-18.8v-.3h30.74a50.11 50.11 0 0 0-9.74 6.5 42.22 42.22 0 0 0-9.7 11.8 27.67 27.67 0 0 0-3.8 14.1c0 5.1 1.5 9.1 4.6 12s7.1 4.4 12.2 4.4a36.6 36.6 0 0 0 13.9-2.7 42.77 42.77 0 0 0 12.1-7.4 45.43 45.43 0 0 0 9.2-10.8 43 43 0 0 0 5.5-13.1zm-12.3-2.9a69.05 69.05 0 0 1-3.1 9 82.39 82.39 0 0 1-4.7 9.4 55.35 55.35 0 0 1-5.9 8.5 37.41 37.41 0 0 1-6.7 6.1 14.33 14.33 0 0 1-6.9 2.4 5.37 5.37 0 0 1-4.6-1.9 8.67 8.67 0 0 1-1.5-5.4 32.38 32.38 0 0 1 1.1-7.2 69.05 69.05 0 0 1 3.1-9 82.39 82.39 0 0 1 4.7-9.4 55.35 55.35 0 0 1 5.9-8.5 37.41 37.41 0 0 1 6.7-6.1 12 12 0 0 1 6.9-2.4 5.37 5.37 0 0 1 4.6 1.9 8.67 8.67 0 0 1 1.5 5.4 32.38 32.38 0 0 1-1.1 7.2z"/>
</svg>
