<svg xmlns="http://www.w3.org/2000/svg" viewBox="0 0 1581.93 292.61" aria-hidden="true">
  <path fill="currentColor" d="M0 73.71v146.17l126.64 72.73 126.67-73V73.4L126.64 0zm114.28 184.63L65.12 230.1v-45.22l-41.56-24.09v-60.13l90.72 52.19zm115.46-98.75l-41.82 24.24v46.29L137.85 259V153.27l91.89-53.06zM169.36 52l48.3 28-91.24 52.67-90.94-52.34L84.21 52l42.73 24.6zm319.76 64.86C464.19 116.85 442 135 442 166.64c0 31.36 22.2 49.48 47.13 49.48s47.13-18.12 47.13-49.48c-.01-31.64-22.2-49.79-47.14-49.79zm0 83.42c-16.74 0-27.38-13.4-27.38-33.63 0-20.39 10.64-33.93 27.38-33.93s27.38 13.54 27.38 33.93c0 20.22-10.63 33.62-27.38 33.62zM385 199.12c-22.87 0-38-18.68-38-49.08 0-29.95 15.16-48.38 37.74-48.38 10.26 0 18.19 4.2 24.63 10.81l11-12.18a49.28 49.28 0 0 0-35.59-15.64c-33.29 0-57.8 24.8-57.8 65.92 0 41.73 24.81 65.55 56.18 65.55 16.89 0 29.87-6.67 39.86-18.43L412 185.9c-7.52 8.33-16.07 13.22-27 13.22zm697-82.27c-14.61 0-25.38 7.69-34.86 17.41h-.77l-1.54-15.09H1029v94.63h19.29v-65.26c9.76-10 16.7-15.07 27-15.07 14 0 19.58 7.64 19.58 24.15v56.18h19.29v-58.7c-.02-24.65-10.1-38.25-32.23-38.25zm126.24-5l.92 16.62h-.46c-7.86-7.3-16.17-11.57-27.23-11.57-21.91 0-42.2 19-42.2 49.79 0 31.38 16.19 49.48 40.63 49.48 11.23 0 22.14-6.38 29.71-14.06h.61l1.54 11.74h15.77V76.49h-19.29zm0 75.59c-7.46 8.58-15.31 12.65-23.88 12.65-15.79 0-25.34-12.1-25.34-33.63 0-20.66 12.08-33.47 26.83-33.47 7.48 0 14.74 2.58 22.39 9.68zm102.47-70.54c-10.6 0-22 5.22-30.19 13.46h-.62l.85-17.41V76.49h-19.29V213.8h15.24l1.77-10.46h.61c8.5 8 19.26 12.78 28.45 12.78 22.06 0 42.2-18.82 42.2-51.22-.07-29.16-14.08-48.05-39.09-48.05zm-6.94 83.1c-6.34 0-15.24-2.58-23.09-9.69v-44.73c8.59-8.82 17.22-12.64 25-12.64 17 0 24.25 12.41 24.25 32.23-.03 22.37-11.41 34.83-26.16 34.83zm115-83.19c-24.94 0-47.13 18.12-47.13 49.79 0 31.36 22.19 49.48 47.13 49.48s47.13-18.12 47.13-49.48c-.04-31.6-22.24-49.75-47.17-49.75zm0 83.42c-16.75 0-27.38-13.4-27.38-33.63 0-20.39 10.63-33.93 27.38-33.93s27.38 13.54 27.38 33.93c-.04 20.27-10.68 33.67-27.42 33.67zm127.87-33.74l32.8-47.36h-20.33l-12.53 19.07c-3.08 5.27-6.73 11.08-10 16.18h-.77c-3.69-5.1-7.57-10.75-10.75-16l-13.61-19.23h-21l32.45 45.54-35 49.09h20.34l13.94-20c3.62-5.94 7.31-11.55 10.93-17.13h.77c3.93 5.42 8.11 11.7 12 17l14.89 20.17h21.14zM627.17 111.8l.92 16.62h-.46c-7.86-7.3-16.18-11.57-27.23-11.57-21.91 0-42.21 19-42.21 49.79 0 31.38 16.2 49.48 40.64 49.48 11.23 0 22.14-6.38 29.7-14.06h.62l1.54 11.74h15.77V76.49h-19.29zm0 75.59C619.71 196 611.86 200 603.29 200c-15.79 0-25.35-12.1-25.35-33.63 0-20.66 12.09-33.47 26.84-33.47 7.48 0 14.73 2.58 22.39 9.68zm97.31-70.54c-25.32 0-48.54 18.66-48.54 49.48 0 31.52 22.68 49.79 51.39 49.79a66.84 66.84 0 0 0 36.85-11.23l-6.75-12.19c-8.53 5.13-17.07 8.33-27.65 8.33-18.61 0-32.39-9.6-34.6-29h72a71.14 71.14 0 0 0 .88-10.48c-.01-26.46-15.82-44.7-43.58-44.7zm-28.9 41c3-16.91 15.1-26.07 29.43-26.07 14.76 0 24.33 8.71 25.77 26.07zm160.94-12.71l-17.2-7.58c-11.18-4.33-22.12-8.35-22.12-19.36 0-10.38 9-16.55 22.32-16.55 13 0 22.16 4.2 30.63 11.3l10-12.41a56.92 56.92 0 0 0-39.84-15.9c-25 0-42.83 14.94-42.83 34.71 0 18.68 14.21 28.05 27.16 33.16l17.89 7.85c12.57 5.31 21.83 8.75 21.83 21.15 0 10.21-8.91 17.6-25 17.6-13.79 0-26.6-6-36.24-15l-11.42 13.4a66.66 66.66 0 0 0 46.6 18.64c28.75 0 45.94-16.61 45.94-37 .07-18.53-11.82-27.8-27.72-34zm100.53-28.3c-16.43 0-32.16 6.85-42.79 13.41l7.37 12.87c9.26-5.42 20.54-10.65 32-10.65 16.84 0 23.1 9.39 23.79 21.09-47.77 3.59-67 14-67 35.25 0 16.67 13.91 27.3 32 27.3 13 0 26.11-6.68 36.23-14.6h.62l1.54 12.28h15.89v-57c0-24.97-13.57-39.94-39.65-39.94zm20.35 71.23c-9.79 8-19.42 12.72-29.53 12.72s-18.65-3.94-18.65-13.43c0-11.31 11-18.78 48.18-21.45z"/>
</svg>
