<svg xmlns="http://www.w3.org/2000/svg" viewBox="0 0 684.03 167.31" aria-hidden="true" fill="currentColor"><path d="M95.77 92.66a23.21 23.21 0 0 1-5.42 4.82c-5.94 3-9.95 2.12-13.41 1.22a28.45 28.45 0 0 1-5.37-1.7L60.1 98.56l7 58.07 80.48-14.5-4.79-58zM71.13 151.1l-.67-6.31 13.14-20.06 14.92 4.37 12.84-21.44 15.39 10.15 11.69-24.51 4.15 44.64zm-3.38-57A80.46 80.46 0 0 1 53.33 82c-.44-.33-.37-1.8-.37-1.8 2.37 1.84 12.2 8.86 22.58 12.07 3.66 1.13 9.29 1.56 14.17-1.21a36.4 36.4 0 0 0 10.89-9.56l.49.85a22.29 22.29 0 0 1-1.88 4.41 11.87 11.87 0 0 0 3.24 1.18l8.6-1.34c3.09-5 5.3-13 3-20.69-1.35-4.39-8.37-13.13-8.87-13.61-1.77-1.7.29-8.25-3.21-15.39-3.7-7.55-13.32-15.43-17.51-18.86 1.24.9 8.83 3.95 12.36 8.22.33-.44.47-2.73.77-3.31-3-4-3.27-11-3.27-12.95a21.62 21.62 0 0 0-1.76-7.4 11.84 11.84 0 0 1 3.82 6.55 26.73 26.73 0 0 0 5.52 12c5 6.17 9.42 9.33 11.68 7.06 2.7-2.74-2.74-15-9.7-21.82-8.11-8-10.24-6.94-15-5.24C85 2.54 83 13.34 73.07 13.12c-1.68-.19-6-.3-8.14-.28 1.12-1.55 2.07-2.76 2.07-2.76a50.66 50.66 0 0 0-6.15 3l-.22-.34a17.7 17.7 0 0 1 2-3.28A56.55 56.55 0 0 0 57.54 13a7.65 7.65 0 0 1 2.11-3.93s-3.36.61-7.63 5.31c-4.86 1.32-6 2.2-9.9 3.91-6.29-1.37-9.26-3.59-12.09-7.67-2.15-3.11-6-3.58-9.91-2-5.7 2.37-12.93 5.6-12.93 5.6s2.35-.08 4.81 0a64 64 0 0 0-6.59 3s1.57-.05 3.51 0a33.35 33.35 0 0 1-3.35 2.5A46.72 46.72 0 0 0 0 24.57a33.25 33.25 0 0 1 4-1.48C2.65 26.09.06 28.3.53 32c.47 3.33 4.58 10.24 9.89 14.48.46.37 7.73 7.08 13.2 4.33s7.63-5.21 8.54-9c1.05-4.33.45-7.59-1.81-17-.74-3.1-2.68-9.48-3.62-12.53l.21-.15c1.79 3.87 6.37 13.79 8.22 20.47 2.88 10.44 2 15.73.66 17.67-4 5.85-14.17 6.63-18.81 3.38-.7 11.24 1.81 16.18 2.65 18.67-.42 2.87 1.44 8.19 1.44 8.19a9.86 9.86 0 0 1 1.06-3.7A23.73 23.73 0 0 0 23.82 83a11.65 11.65 0 0 1 .56-3.88 27.33 27.33 0 0 0 2.46 3.09 17.22 17.22 0 0 0 2.61 5.26 14.36 14.36 0 0 1-.12-3.33c4.25 4.09 5 10 5.4 14.62 1.19 12.59-19.85 22.6-23.93 30.47-3.09 4.66-4.93 12.05.3 16.39 12.65 10.51 7.79 13.4 14.12 18 8.69 6.33 19.56 3.5 23.26-1.66 5.16-7.17 3.83-13.94 1.92-20.27-1.5-5-5.56-13.18-10.59-16.37A22 22 0 0 0 25.44 122l.39-.45c6.09-1.21 12.45-.54 17.06 2.42 5.23 3.36 10 9.13 12.51 18 2.84-.4 3.24-.59 5.83-1l-5.84-45.56zm29.35-57c5.38 2.5 4.68 7.27 4.83 10.06a8.65 8.65 0 0 1 0 1.72 7.39 7.39 0 0 0-3.79-.61 11.87 11.87 0 0 0-1.6.17c-2-1.07-3.17-3.15-4.26-5.36-.09-.21-.17-.39-.24-.57s-.07-.17-.1-.24a.36.36 0 0 0 0-.11c-.59-1.89-.2-2.27.06-2.85s1.23-1.09-.2-1.59a3.83 3.83 0 0 0-.45-.1c.86-1.2 3.72-1.49 5.75-.54zm-6.65 31.22c1-.81 5.82-2.34 10.23-2.87 2.32-.27 5.62-.43 6.33 0 1.4.77 1.4 3.16.44 5.37-1.39 3.21-3.37 6.75-5.6 7-3.64.48-7.09-1.49-11-4.44-1.44-1.02-2.3-3.59-.4-5.06zM55.9 44c5.78-3.94 13.24-2.39 12-1.21-2.38 2.27.79 1.6 1.13 5.78a7.23 7.23 0 0 1-1.62 5.74 36.91 36.91 0 0 0-6.64 1.53 34.78 34.78 0 0 0-4.11 1.64 9.2 9.2 0 0 1-1.06-.8c-4.1-3.58-3.96-9.81.3-12.68zm157 2.09h-32.68v75.21h32.66q35.31 0 35.32-39.66 0-35.59-35.32-35.59zm-2.1 63.1h-16.6v-51h16.6q23.44 0 23.44 23.47-.02 27.5-23.46 27.49zm69.7-63.1l-32 75.21h14.34l24.81-60.9L300 88.65h-15.67l-4.79 12.1h24.13l9.49 20.51h15l-32.67-75.21zm97 0h-57.22v12.05h21.62v63.12h14V58.14h21.6zm24.83 0l-32 75.21h14.34l24.78-60.9 12.34 28.25h-15.66l-4.79 12.1h24.13l9.53 20.51h15l-32.69-75.21zm89.64 0h-32.71v75.21h32.67q35.31 0 35.31-39.66 0-35.59-35.31-35.59zm-2.11 63.1h-16.6v-51h16.6q23.44 0 23.46 23.47-.04 27.5-23.5 27.49zm84.73-63.64q-37.84 0-37.85 38.25 1.69 38 37.85 38 37.26 0 37.25-38-.04-38.29-37.29-38.29zm0 64.17q-23.35 0-23.35-26.25 0-25.83 23.35-25.84 22.76 0 22.76 25.84-.04 26.21-22.8 26.21zM663 57.6a52.51 52.51 0 0 1 21 4.22V49.19a62.39 62.39 0 0 0-22.13-3.68q-40.57 0-40.58 37.1 0 39.18 39.89 39.19 13.72 0 22.82-4V78.45h-22.52l-4.72 12.37h13.31v17.62a34.73 34.73 0 0 1-8.65 1.25q-25.6 0-25.6-27.08 0-25.02 27.18-25.01z"/></svg>
