<svg width="490" height="186" viewBox="0 0 490 186" fill="none" xmlns="http://www.w3.org/2000/svg">
   <path d="M174.552 8.65116C174.552 3.87325 178.887 0 184.233 0H308.669C314.016 0 318.351 3.87325 318.351 8.65116V37.5869C318.351 42.3648 314.016 46.238 308.669 46.238H184.233C178.887 46.238 174.552 42.3648 174.552 37.5869V8.65116Z" fill="white"/>
   <path d="M174.552 148.413C174.552 143.635 178.887 139.762 184.233 139.762H308.669C314.016 139.762 318.351 143.635 318.351 148.413V177.349C318.351 182.127 314.016 186 308.669 186H184.233C178.887 186 174.552 182.127 174.552 177.349V148.413Z" fill="white"/>
   <path d="M174.552 76.8783C174.552 72.1003 178.887 68.2271 184.233 68.2271H260.831C266.178 68.2271 270.513 72.1003 270.513 76.8783V105.814C270.513 110.592 266.178 114.465 260.831 114.465H184.233C178.887 114.465 174.552 110.592 174.552 105.814V76.8783Z" fill="white"/>
   <path d="M9.69653 184.121C4.34877 184.228 0 180.343 0 175.563V146.608C0 141.832 4.33309 137.972 9.67633 137.891C59.716 137.131 99.8084 132.826 99.8084 92.2367C99.8084 51.647 59.7159 47.3428 9.67633 46.5828C4.33309 46.5017 0 42.6412 0 37.8659V8.91052C0 4.13069 4.34877 0.244879 9.69653 0.352674C86.1781 1.89441 146.646 22.0209 146.646 92.2366C146.646 162.452 86.1781 182.579 9.69653 184.121Z" fill="white"/>
   <path d="M402.044 27.242C403.427 24.7921 403.427 21.9015 402.044 19.4516L393.751 4.75592C392.105 1.83953 388.762 0 385.106 0H351.395C344.183 0 339.503 6.79256 342.75 12.5464L367.899 57.1115C371.477 63.4527 381.61 63.4527 385.188 57.1115L402.044 27.242Z" fill="white"/>
   <path d="M429.656 158.757C428.273 161.207 428.273 164.097 429.656 166.547L437.949 181.244C439.595 184.16 442.939 186 446.594 186H480.306C487.517 186 492.197 179.207 488.95 173.454L463.801 128.887C460.222 122.546 450.09 122.546 446.512 128.887L429.656 158.757Z" fill="white"/>
   <path d="M442.298 0C438.495 0 435.045 1.98867 433.477 5.0839L348.028 173.782C345.128 179.508 349.814 186 356.848 186H389.743C393.545 186 396.995 184.011 398.563 180.916L484.012 12.2184C486.913 6.4918 482.227 0 475.192 0H442.298Z" fill="white"/>
</svg>
