<svg xmlns="http://www.w3.org/2000/svg" viewBox="0 0 481.86 201.08" aria-hidden="true" fill="currentColor"><path d="M72.92 2.25A198 198 0 0043 0C23.43.58 11.69 5 9.28 6 5.7 7.32-.08 15.57 0 18.21c.11 3.61 4.57 6.2 10.49 6 3.24-.1 8.53-.43 8.45-2.88s-9.25-2.93-9.29-4.17C9.6 15.32 21 13.29 39.89 12.73 88 11.3 177.69 53 179 98.38c1 32.49-42.28 39.39-61.21 40A102.76 102.76 0 0193.61 136c-.14-10-.43-22-.57-26.62-.14-4.83-.06-12 0-18 17.56.11 46.06 3.13 46.27 10 .13 4.58-10.15 5.24-10.07 8.08.05 1.48 5.65 4.19 10.43 4s13.89-5.41 13.58-15.7c-.39-13.27-21.88-24.48-57.72-23.42l-1.93.07c0-2.21-.17-14.61-1.67-21.41-1.65-7.49-6-12.38-8.13-12.32-5.25.15-6.94 25.48-7.3 35.42-25.54 4-47.39 14-47 26 .24 8.07 17.33 28.51 45.69 41.09.87 7.82 3.18 17.43 9.11 17.25 9.7-.29 9.19-3.91 9.41-10.75A120.79 120.79 0 00128 153.7c47-1.4 71-27.53 70.22-55.38-1.22-40.94-64.77-87.1-125.3-96.07zm2 128.27c-22.24-8.24-39.18-20.89-39.38-27.47-.18-6.3 22.8-9.63 40.77-11-.14 10.71-.4 24.95-1.43 38.47zM219.59 85.8c-.14-4.64-4.57-12.06-7.66-12-2.46.07-4.59 1.77-5.46 9.74s-1.18 20.7-1.41 27.35.16 19.93.61 24.61 2.93 7.84 8.24 7.69 6.44-1.69 6.89-4.78a104.48 104.48 0 00.36-16.78c-.32-6.95-1.43-31.19-1.57-35.83zM256.08 31c-.17-6-4-11.74-13.39-11.6-.88-2.2-3.84-6.65-14.4-6.33-23 .68-40.7 17.72-40.3 31.15.13 4.36 2.23 8.18 5.33 11.31a11.94 11.94 0 00-.87 4.5c.07 2.33 3.58 8.49 6.28 8.41 2.28-.07 3.83-2.2 6-5.66a28.06 28.06 0 0010.45 2.1c21.66-.68 41.29-20.95 40.9-33.88zm-49.93 5.28a92.76 92.76 0 00-7.36 9.2 5.51 5.51 0 01-.68-2.75c-.09-3 5-14.36 17.94-15.29a54.66 54.66 0 00-9.9 8.8zm34.59-7.33c4.18-.13 5.28 2.46 5.36 5.31.14 4.45-7.92 17.44-26 18a52.1 52.1 0 01-10-.62c2.6-3.82 16.41-22.31 30.64-22.73zM268 72.58c-12.63.42-36.2 4.42-39.57 15.91-1.61 5.51-2.27 12.17 2.39 15.11s18.3 2.89 27.39 3.36 24.81 3 25 8.11c.12 3.88-6.52 11.1-28.42 11.75-24.59.73-17.71-9.7-12.8-9.84 8.62-.26 7.88 5.81 22.83 5.37 3.31-.1 10.79-2 10.68-5.63-.13-4.5-17.1-8.45-28-8.13s-17.46 6-17.28 12.28c.21 7.13 10.28 21.16 34.7 20.43 8.1-.24 18.66-4.26 21.81-5.73 2.48-1.15 8-4.23 7.55-18.77-.55-18.43-18.83-18.86-30.21-19.55-11.09-.67-23.17-1.25-23.24-3.87-.15-5 40.05-6.67 48-7.48 6.76-.69 8-5.63 7.93-8-.19-4.05-16.06-5.69-28.76-5.32zm67-9.92c-6.33.19.4 11.75 4.72 34.17 1.91 9.92 4.16 18.89 1.14 19s-21-38.71-29.52-38.46c-10.55.31-14.09 37-13.77 47.74s2.82 16.24 8.53 16.07c3.76-.11 6.11-3.72 6.54-10.47s.56-29.13 2.16-29.18c3-.09 16 36.12 27.5 35.78 12.09-.36 14-17.83 13.57-31.18C355 77.37 339.62 62.52 335 62.66zM402.71 120c-4.73.14-16.26 2.31-20.51 3.52s-7.53 1.94-6.49-1.35c.84-2.61 2.69-8.82 3.4-11.23l21.66-.64c4.22-.13 4.44-2.25 4.8-7.51s-3.22-4.59-7.27-4.47c0 0-7.17.3-14.84.68l3.43-9.14c7.88-.29 16.09-1.15 21.17-1.3 9.93-.3 10.88-2.84 10.85-3.86s-1-3.68-3.65-7.43-4.95-5.27-13.17-5.07c-7.64.23-40.68 2.92-40.55 7.43.07 2.05 3 6.64 6.71 8.42a18.72 18.72 0 005.21 1.41l-5.08 10.45c-.72.06-1.34.12-1.83.18-6.15.69-4.48 4.75-3.8 8.45.3 1.63.68 2.38 1.19 2.7-2.09 5.66-4.27 13-4.11 18.39.31 10.27 9.21 16 15.77 15.8 15.29-.45 29.94-12.82 32.66-15.41s-.81-10.14-5.55-10.02zm79.14-22.9c-.36-12.09-5-20.65-12.73-20.42-11.32.33-27.6 17.45-40.68 38.94-1.16-8.72 5.71-22.14 11.57-31.53 4.12-6.59 3.4-14.43 1.69-14.38-2.4.07-25.6 19.71-24.8 46.66a25.84 25.84 0 003.78 13.21c-8.87 17.5-14.84 36-14.42 50 .47 15.72 10.12 21.59 13.06 21.5s3.08-4.74 3.61-8.21a232.78 232.78 0 0114-51.66 25.3 25.3 0 006.76.79c17.99-.53 38.84-22 38.16-44.9zm-37.17 27c10.83-21.17 22-33.24 25.93-33.36 6.81-.17 1.04 30.63-25.93 33.39z"/></svg>
