<svg xmlns="http://www.w3.org/2000/svg" viewBox="0 0 436.5 152.5" aria-hidden="true">
  <path fill="currentColor" d="M75.3 0H51.5v36.4c-3.6-.9-6.5-1.2-10.4-1.2C16.1 35.2 0 51 0 75.3c0 25.3 15.2 38.4 44.3 38.4 9.8 0 18.8-.9 31-3.3V0zM51.5 93.9c-3.4.5-5.6.6-8.2.6-12.2 0-18.9-7-18.9-19.7 0-13 7-20.5 19.1-20.5 2.9 0 5.3.3 8.1 1.2v38.4zM89.4 84c0 20.8-1.1 28.7-4.5 35.5-3.3 6.7-8.4 11-18.9 16L88.2 146c10.5-5.3 15.7-10.1 19.5-17.7 4.2-7.9 5.6-17.1 5.6-36.1V36.9H89.4V84zm0-59.4h23.9V.1H89.4v24.5zm70 10.6c-11 0-21.1 2.2-31.6 7.1v18.4c9.3-4.8 19.2-7.3 28.1-7.3 6 0 8.2 1.5 8.2 5.9v5.3c-29.3 2.5-41.2 10.2-41.2 27 0 15.5 9 22.5 29 22.5 9.9 0 23.4-1.1 34.1-2.6V62.9c0-9.9-.6-14.6-2.6-18.1-3.7-6.4-11.8-9.6-24-9.6zm5.7 61c-4.7.8-7.9 1.1-11.5 1.1-6.5 0-9.5-2.2-9.5-6.8 0-6.2 5.1-8.7 20.9-10.2v15.9zm69.9-61c-11.8 0-23.4 1.7-37.5 5.4v72.2h23.9V56.1c4.8-1.4 7.8-1.7 11-1.7 8.5 0 11.6 3.4 11.6 12.6v45.9h23.9V66c0-11.9-1.5-17.5-6.5-22.6-5.3-5.4-14.2-8.2-26.4-8.2zm117.8 20.7l8.2-17.2c-11.5-2.3-20.9-3.4-31.2-3.4-34.9 0-54.6 15.3-54.6 42.5 0 21.9 13.3 35.7 34.3 35.7 6.2 0 10.9-.9 15.5-3.3v.5c0 15.2-6.7 21.5-22.3 21.5-8.8 0-17.2-2-25.6-6.4v22c8.4 3.3 16.4 4.7 25.7 4.7 18.3 0 31.2-5.7 38.6-17.4 5.1-7.9 6.8-17.5 6.8-38v-6.5c-.2-3.3-.2-6.5-.3-9.8l-.2-13-.3-10.1v-2.5c4.9.6-.9-.5 5.4.7zM325 92.7c-3.1.9-5.7 1.6-9 1.6-10.5 0-16.4-6.8-16.4-18.8 0-8.4 2.9-14.3 8.7-17.5 3.7-2.3 9.1-3.6 13.8-3.4h2.5v1.9l.2 7.9.2 11c0 3.3.2 6.4.2 9.1v8.2zm73.1-57.9c-24.3 0-39.5 15.7-39.5 40.8 0 24.2 14.7 39.2 38.6 39.2 24.2 0 39.4-15.7 39.4-40.6-.1-24.3-14.7-39.4-38.5-39.4zm-.5 60.8c-9.3 0-14.7-7.6-14.7-20.8 0-13.2 5.4-20.8 14.9-20.8 9.1 0 14.4 7.8 14.4 20.8 0 13.2-5.5 20.8-14.6 20.8z"/>
</svg>
