<svg xmlns="http://www.w3.org/2000/svg" data-name="Layer 1" viewBox="0 0 196.12 116.2"><path d="M54.14 29.72H50.9v-18.6q0-2.2.28-5.38h-.08a17.24 17.24 0 0 1-.83 2.7L40.8 29.7h-1.58L29.77 8.58a16.55 16.55 0 0 1-.83-2.84h-.08Q29 7.4 29 11.17v18.55h-3.12V2h4.3l8.5 19.33A24.68 24.68 0 0 1 40 24.66h.12q.83-2.28 1.33-3.4L50.08 2h4.06zM62.62 4.9a2 2 0 0 1-1.45-.57 2 2 0 0 1-.6-1.47 2 2 0 0 1 2-2.07 2 2 0 0 1 1.48.58 2 2 0 0 1 .6 1.48 2 2 0 0 1-.6 1.45 2 2 0 0 1-1.43.6zm1.55 24.82H61V9.92h3.17zM84.07 28.8a10.3 10.3 0 0 1-5.4 1.38 9 9 0 0 1-6.84-2.75 10 10 0 0 1-2.6-7.14A11 11 0 0 1 72 12.43a9.8 9.8 0 0 1 7.48-3 10.4 10.4 0 0 1 4.6 1v3.25a8.06 8.06 0 0 0-4.72-1.56 6.37 6.37 0 0 0-5 2.17 8.25 8.25 0 0 0-1.88 5.7 7.85 7.85 0 0 0 1.83 5.5 6.3 6.3 0 0 0 4.9 2 7.94 7.94 0 0 0 4.88-1.73zM99.18 13.14a3.88 3.88 0 0 0-2.4-.64 4 4 0 0 0-3.4 1.9A8.85 8.85 0 0 0 92 19.64v10.1h-3.14V9.92H92V14h.08a6.9 6.9 0 0 1 2.07-3.26 4.72 4.72 0 0 1 3.1-1.17 5.18 5.18 0 0 1 1.9.27zM110.37 30.2a9.18 9.18 0 0 1-7-2.78 10.27 10.27 0 0 1-2.62-7.35q0-5 2.73-7.8a9.8 9.8 0 0 1 7.36-2.8 8.88 8.88 0 0 1 6.9 2.74q2.5 2.73 2.5 7.57a10.63 10.63 0 0 1-2.7 7.58 9.38 9.38 0 0 1-7.17 2.84zm.23-18a6 6 0 0 0-4.83 2.07 8.53 8.53 0 0 0-1.77 5.67 8.07 8.07 0 0 0 1.8 5.55 6.1 6.1 0 0 0 4.8 2 5.8 5.8 0 0 0 4.74-2 8.64 8.64 0 0 0 1.66-5.63 8.8 8.8 0 0 0-1.65-5.72 5.77 5.77 0 0 0-4.74-2zM124.1 29v-3.4a9.38 9.38 0 0 0 5.7 1.9q4.16 0 4.16-2.77a2.42 2.42 0 0 0-.36-1.34 3.56 3.56 0 0 0-1-1 7.43 7.43 0 0 0-1.43-.77l-1.77-.7a22.76 22.76 0 0 1-2.3-1.06 7 7 0 0 1-1.67-1.2 4.45 4.45 0 0 1-1-1.52 5.36 5.36 0 0 1-.34-2 4.73 4.73 0 0 1 .63-2.46 5.66 5.66 0 0 1 1.7-1.8 7.93 7.93 0 0 1 2.43-1.1 10.77 10.77 0 0 1 2.8-.37 11.36 11.36 0 0 1 4.6.9v3.2a9 9 0 0 0-5-1.43 5.87 5.87 0 0 0-1.6.2 3.93 3.93 0 0 0-1.22.57 2.63 2.63 0 0 0-.8.88 2.3 2.3 0 0 0-.27 1.13 2.7 2.7 0 0 0 .28 1.3 2.85 2.85 0 0 0 .82.92 6.3 6.3 0 0 0 1.3.73l1.77.7a24.57 24.57 0 0 1 2.36 1 8.1 8.1 0 0 1 1.78 1.2 4.7 4.7 0 0 1 1.13 1.55 5 5 0 0 1 .4 2.07 4.88 4.88 0 0 1-.64 2.55 5.55 5.55 0 0 1-1.73 1.8 7.9 7.9 0 0 1-2.5 1.06 12.3 12.3 0 0 1-3 .35 11.23 11.23 0 0 1-5.24-1.1zM150.36 30.2a9.18 9.18 0 0 1-7-2.78 10.27 10.27 0 0 1-2.62-7.35q0-5 2.73-7.8a9.8 9.8 0 0 1 7.36-2.8 8.88 8.88 0 0 1 6.9 2.74q2.5 2.73 2.5 7.57a10.63 10.63 0 0 1-2.7 7.58 9.38 9.38 0 0 1-7.17 2.84zm.23-18a6 6 0 0 0-4.84 2.07 8.53 8.53 0 0 0-1.76 5.67 8.07 8.07 0 0 0 1.8 5.55 6.1 6.1 0 0 0 4.8 2 5.8 5.8 0 0 0 4.74-2 8.64 8.64 0 0 0 1.66-5.63 8.8 8.8 0 0 0-1.65-5.72 5.77 5.77 0 0 0-4.76-2zM174.34 3.2a4.22 4.22 0 0 0-2.1-.5q-3.33 0-3.33 4.18v3.05h4.65v2.7h-4.64v17.1h-3.14v-17.1h-3.38v-2.7h3.38v-3.2a6.67 6.67 0 0 1 1.8-4.92A6.07 6.07 0 0 1 172 0a6.2 6.2 0 0 1 2.3.35zM186.84 29.53a6.1 6.1 0 0 1-3 .62q-5.2 0-5.2-5.8v-11.7h-3.4V9.92h3.4V5.1l3.17-1v5.83h5v2.7h-5V23.8a4.62 4.62 0 0 0 .7 2.83 2.7 2.7 0 0 0 2.23.85 3.33 3.33 0 0 0 2.07-.66zM5.53 116.2a5.28 5.28 0 0 1-3.9-1.64A5.4 5.4 0 0 1 0 110.62a5.5 5.5 0 0 1 1.62-4 5.24 5.24 0 0 1 3.9-1.62 5.38 5.38 0 0 1 4 1.67 5.45 5.45 0 0 1 1.65 4 5.36 5.36 0 0 1-1.64 3.93 5.42 5.42 0 0 1-4 1.6zM83.43 115.1H73.17L36.44 58.2a23.75 23.75 0 0 1-2.3-4.47h-.3a73.57 73.57 0 0 1 .4 9.8v51.57H25.9V43.72h10.85l35.74 56q2.24 3.48 2.9 4.78h.2a75.47 75.47 0 0 1-.5-10.5V43.72h8.35zM140 115.1h-37.86V43.72h36.24v7.57H110.5V75h25.78v7.52H110.5v25H140zM196.12 51.3h-20.6v63.8h-8.37V51.3H146.6V43.7h49.52z"/></svg>
