<svg xmlns="http://www.w3.org/2000/svg" viewBox="0 0 1115.9 253.5" aria-hidden="true" fill="currentColor"><path d="M366.6 42.5h-54v153h54c46.4 0 75.5-29.9 75.5-76.5s-29.2-76.5-75.5-76.5zm-1.2 124.7h-21.2V70.3h21.2c29.2 0 45.1 18.7 45.1 48.6 0 29.6-16 48.3-45.1 48.3zm122-72.2V84h-31v111.4h30.9v-69c2.3-10.2 10.7-15.7 21.2-15.7 5.8 0 11.3 1.2 15.5 3.7V83.6c-1.7-1-6.5-2-11.7-2-11 0-20.2 5.4-24.9 13.4zm98.2-13.5c-32.3 0-54.5 23.9-54.5 58.3 0 34.1 22.1 58 54.5 58s54.5-23.9 54.5-58c0-34.4-22.1-58.3-54.5-58.3zm0 90.2c-15.4 0-23.9-13.5-23.9-31.9 0-18.7 8.4-32.1 23.9-32.1s23.9 13.5 23.9 32.1-8.5 31.9-23.9 31.9zm126.6-90.2c-12 0-22.9 5.7-27.9 11.7V84h-30.9v152.4h30.9v-50.3c5 6 15.9 11.7 27.9 11.7 32.4 0 50.8-26.6 50.8-58s-18.4-58.3-50.8-58.3zm-7 89.5a23.5 23.5 0 0 1-20.9-13v-36.6a23.6 23.6 0 0 1 20.9-12.9c16.6 0 26.6 13.5 26.6 31.4 0 17.7-9.9 31.1-26.6 31.1zm130-89.4c-12 0-22.9 5.7-27.9 11.7V33.5h-31.1v161.9h31.1v-9.2c5 6 15.9 11.7 27.9 11.7 32.3 0 50.5-26.1 50.5-58s-18.1-58.3-50.5-58.3zm-7 89.4a22.93 22.93 0 0 1-20.9-13v-36.6c3.5-7.4 11.9-12.9 20.9-12.9 16.6 0 26.6 13.5 26.6 31.4 0 17.7-9.9 31.1-26.6 31.1zm123.2-89.1c-32.3 0-54.5 23.9-54.5 58.3 0 34.1 22.1 58 54.5 58s54.5-23.9 54.5-58c0-34.4-22.1-58.3-54.5-58.3zm0 90.1c-15.4 0-23.9-13.5-23.9-31.9 0-18.7 8.4-32.1 23.9-32.1s23.9 13.5 23.9 32.1-8.5 31.9-23.9 31.9zm124-34.1l38.1-53.8h-32.4l-21.9 31.6-21.4-31.6h-34.1l37.8 54.5-40.1 56.8h32.4l24.2-34.9 23.9 34.9h34.1zM80.3 0L0 51.8l55.6 44.9 80.8-49.9zM0 140.6l80.3 52.9 56.1-46.9-80.8-49.9zm192.6 52.9l80.1-52.4-55.4-44.4-80.9 49.9zm0-193.5l-56.1 46.8 80.8 49.9 55.4-44.4zm-56 156.7l-56.3 46.7-24-15.7v17.6l80.3 48.2 80.4-48.2v-17.6l-24.1 15.7z"/></svg>
