<svg xmlns="http://www.w3.org/2000/svg" viewBox="0 0 149 107" aria-hidden="true">
  <path fill="currentColor" d="M67.35 14.37s2.58-.84 2.8-6.16A9.68 9.68 0 0 0 66.9.29a11.2 11.2 0 0 0-2.62 7.64 9.22 9.22 0 0 0 3.07 6.44zm-34 13.25a9 9 0 0 0 6.29 2 7.89 7.89 0 0 0-3.67-5.92c-3.6-2.4-5.39-1.16-5.39-1.16a7.56 7.56 0 0 0 2.72 5.08zm69.36 51.07c-3.59-2.4-5.39-1.16-5.39-1.16a7.58 7.58 0 0 0 2.77 5.1 9.37 9.37 0 0 0 6.29 2 7.89 7.89 0 0 0-3.72-5.94zm0-53.77a7.88 7.88 0 0 0 3.72-5.94 9 9 0 0 0-6.29 2 7.54 7.54 0 0 0-2.77 5.1s1.7 1.23 5.29-1.16zM92.1 12.4a10.72 10.72 0 0 0 2.16-9.36 12.74 12.74 0 0 0-7.36 5.41 10.28 10.28 0 0 0-1.35 7.94s2.88.81 6.55-3.99zm-40.6 4.22a7.81 7.81 0 0 0-1.57-6.74C47.31 6.4 45.21 7 45.21 7a7.59 7.59 0 0 0 1 5.69 9 9 0 0 0 5.29 3.93zM37.57 81.69a7.6 7.6 0 0 0-2.77 5.1s1.8 1.16 5.39-1.16a7.85 7.85 0 0 0 3.67-5.92 9 9 0 0 0-6.29 1.98zm33.25 9.59a10.17 10.17 0 0 0-3.29 7.05 12.05 12.05 0 0 0 2.85 8.31A10.42 10.42 0 0 0 73.86 98c-.26-5.82-3.04-6.72-3.04-6.72zm19.55-.07a7.54 7.54 0 0 0 1 5.69 9.16 9.16 0 0 0 5.32 3.9 7.83 7.83 0 0 0-1.6-6.8c-2.69-3.39-4.72-2.79-4.72-2.79zm-41.48 1.42a10.72 10.72 0 0 0-1.42 8s2.92.82 6.59-4a11 11 0 0 0 2.17-9.51 12.66 12.66 0 0 0-7.34 5.51zm-11.33-11zm1.83-10.47a8.1 8.1 0 0 0 1.43-6.29L40 60l-5.47.91.81 4.81a2.72 2.72 0 0 1-.52 2.28 3.16 3.16 0 0 1-2 1.15 3 3 0 0 1-2.25-.52 2.83 2.83 0 0 1-1.16-1.94L26 47.51a3.07 3.07 0 0 1 .52-2.32 2.7 2.7 0 0 1 1.95-1.28 2.81 2.81 0 0 1 2.31.52 3 3 0 0 1 1.28 2l.67 4.12 5.47-.91-.67-4v-.17a8.37 8.37 0 0 0-15.13-3.19 8.11 8.11 0 0 0-1.4 6.29l3.22 19a8.36 8.36 0 0 0 3.48 5.47A8.11 8.11 0 0 0 34 74.5a8.58 8.58 0 0 0 5.39-3.31zm78.25-10.65a17.22 17.22 0 0 0-2.4-4.26 22.13 22.13 0 0 0-2.09-2.55 27 27 0 0 1-2-2.62 7.9 7.9 0 0 1-1.34-5.17 4.56 4.56 0 0 1 1-2.47 2.32 2.32 0 0 1 2.4-1 2.54 2.54 0 0 1 1.94 1.16 5.77 5.77 0 0 1 .76 3.47L121 47a9.63 9.63 0 0 0-.53-4.19 7.05 7.05 0 0 0-2.09-3.14 9.1 9.1 0 0 0-4.64-2 8.26 8.26 0 0 0-5.1.75 8.7 8.7 0 0 0-4.34 6.75 11.46 11.46 0 0 0 .45 5.1 20 20 0 0 0 3 5.1c1.73 2.32 3.07 4 4 5.17a6.48 6.48 0 0 1 1.35 4.63 3.9 3.9 0 0 1-.91 2.25 3.29 3.29 0 0 1-3 1.28 2.86 2.86 0 0 1-2-1.35 7.39 7.39 0 0 1-1-4.64l-5.1-.37a12.71 12.71 0 0 0 .37 5.1 8.78 8.78 0 0 0 2.17 3.83 8.25 8.25 0 0 0 4.87 2.31 8 8 0 0 0 3 .07 7.37 7.37 0 0 0 4-1.94 9.49 9.49 0 0 0 2.85-5.92 13.81 13.81 0 0 0-.15-3.4 9.31 9.31 0 0 0-.56-1.85zm24-16.59l-14.6 32.66 5.44 1.42 3.29-7.57 5.45 1.47-.83 8.1 5.39 1.42 3-35.65zm1.57 8.61l-1.57 13.93-3.82-1 5.39-13zm-16.72-12.02l-7.12 34.6 5.24 1 7.12-34.6zm-114 32.67l-2.25-9.37 7-1.64-1.28-5.24L9 58.57l-2.29-9.36 9.59-2.32-1.3-5.24L.27 45.13l8.24 34.39 14.83-3.42-1.27-5.24zM71.21 80a27.74 27.74 0 1 0-27.74-27.79A27.74 27.74 0 0 0 71.21 80zm-9.5-50.38a24.5 24.5 0 1 1 9.52 47.12h-.09a24.52 24.52 0 0 1-22.62-15.13 24.51 24.51 0 0 1 13.19-32.04zM54.3 51.3c.4.49.79 1.13 1.15 1.65.83.82 2.33 1 2.66 2.15.14.84-.75 1.43-.9 1.88s-.37 1-.52 1.43a15.2 15.2 0 0 1-1.79 1.27c-.3.53-.67 1.06-1 1.58-.21.22-.43.37-.63.57A20.32 20.32 0 0 0 90.38 59a3.83 3.83 0 0 1-.67-1.75c0-.74.61-1.26.45-2.16a6.31 6.31 0 0 0-1.57-2.55 2.3 2.3 0 0 0-2.46 1.57 3.45 3.45 0 0 1-.22 1.05c-.15.07-.22.15-.37.22-1.64-1.28-.82-3.71-3.13-4.87l-.67.22a12.65 12.65 0 0 0-.9 1c-.72.37-1.27.68-1.87 1a.08.08 0 0 1-.07.07c-.39.67.28 1.27-.46 2.16s-2.16 1.31-2.61 2.47c0 .67-.07 1.43-.07 2.1a5.39 5.39 0 0 1-1.27 1.34c-1.12 1.38-1.56 3.41-3.58 3.48-1.79.08-2.24-3.59-2.24-4.87s.82-1.88.37-3.22c-.24-.82-.37-2.55-1.28-2.92a3.73 3.73 0 0 0-1.61-.2 2.27 2.27 0 0 1-1.85-.47 4.22 4.22 0 0 1-.3-5.1c.63-.64 1.28-1.27 1.94-1.88.45-.52.23-1.39.45-1.94s1.12-.64 1.49-1.16c0-.91-.67-1-.6-1.95a1.38 1.38 0 0 1 1-.6 6.36 6.36 0 0 0 1.49 1c1-.45.3-1 .82-1.79a5.3 5.3 0 0 1 2.54-1.58 3.15 3.15 0 0 1 .72-.09c1.51 0 2.53 1.25 4.29 1.25a54.08 54.08 0 0 0 6.34-.67 8.47 8.47 0 0 1 1.33-.07A20.2 20.2 0 0 0 63 33.65a8 8 0 0 0 3.2.2 6.77 6.77 0 0 1 1.16.38c.6 1-1.1 2.41-1.84 2.56s-1.56.22-2.31.37a5.41 5.41 0 0 1-2.24.75 1.11 1.11 0 0 1-.53-.75 2.67 2.67 0 0 1 .46-1.65 1.87 1.87 0 0 0-.35-.57 21.25 21.25 0 0 0-3.17 2.42 1.24 1.24 0 0 0-.1.39c0 .75.75 2 .22 2.55-.3.33-.55.22-.82.11a.85.85 0 0 0-.75 0 6.67 6.67 0 0 1-1.15.82 4 4 0 0 1-.7.13 20.38 20.38 0 0 0-2.94 7.9 7 7 0 0 1 3.16 2.04zm22.83 9a.62.62 0 0 1 .4.08c.57.82-.33 2.17-1.15 2.47a1.14 1.14 0 0 1-.52-.52 2.5 2.5 0 0 1 1.27-2zm-4.52-14.73l-1-.22a7.4 7.4 0 0 0-1.87-1.16.91.91 0 0 0-.53.52c.07.15 2.7 2.25 2.77 2.25.48.08 1.12.08 1.64.15a2 2 0 0 0 1.15.37 3.28 3.28 0 0 1 .52-.2v-.37c0-.07-.07-.15-.07-.22a5 5 0 0 1-1.42-.3c-.44-.3-.8-.52-1.19-.82z"/>
</svg>
