<svg width="64" height="64" viewBox="0 0 64 64" fill="none" xmlns="http://www.w3.org/2000/svg">
<path d="M32 0C49.6731 0 64 14.3269 64 32C64 49.6731 49.6731 64 32 64C14.3269 64 0 49.6731 0 32C0 14.3269 14.3269 0 32 0Z" fill="#E05C43"/>
<path fill-rule="evenodd" clip-rule="evenodd" d="M26.3238 31.2463C26.5672 21.6223 32.8749 17.4163 35.0593 19.5216C37.2438 21.6223 36.4334 26.1507 32.309 28.9815C28.1857 31.8133 26.3238 31.2463 26.3238 31.2463ZM32.309 41.0321C26.7049 41.1733 27.2949 37.492 27.2949 37.492C27.2949 37.492 47.7551 30.4898 42.1763 16.6587C39.6693 13.1002 36.7559 11.9822 32.6327 12.0637C28.5083 12.144 23.4299 14.6591 20.1137 22.1009C18.5318 25.6525 17.9946 29.017 17.6721 31.5665C17.6721 31.5665 14.0481 32.2943 12.107 30.6804C10.1671 29.0641 9.1466 30.6804 9.1466 30.6804C9.1466 30.6804 5.80505 34.5901 9.12249 35.8861C12.4388 37.1809 17.6032 37.4426 17.6032 37.4426H17.6009C18.0761 40.8863 19.2458 44.1969 23.4977 46.9622C30.6273 51.6009 41.2075 46.7016 41.2075 46.7016C47.5485 44.0511 51.7602 39.9485 53.5555 37.95C54.134 37.3037 54.1145 36.3292 53.513 35.7047L51.4479 33.5593C50.851 32.9383 49.8799 32.8809 49.2141 33.4273C46.4557 35.6864 39.2056 41.0321 32.309 41.0321Z" fill="#FEFEFE"/>
</svg>
