<svg fill="none" xmlns="http://www.w3.org/2000/svg" viewBox="0.3 0.68 388.38 87.63"> <g clip-path="url(#clip0_3_2)"> <path d="M43.8457 55.9849V0.857971H61.4605V53.7154C61.4605 57.4364 62.2625 58.345 65.9972 58.345H67.512L69.5861 72.9299C68.2522 73.1107 62.7948 73.5073 59.5031 73.5073C49.8056 73.5073 43.8462 70.0578 43.8462 55.9849" fill="white"></path> <path d="M215.695 47.9054C215.695 41.8242 214.628 36.4676 206.977 36.4676C198.793 36.4676 196.389 40.7347 196.389 47.9054C196.389 55.076 198.169 58.9813 206.977 58.9813C214.45 58.9813 215.695 53.9866 215.695 47.9054ZM178.774 22.3136L192.473 21.2236L193.811 25.3911C196.567 22.7562 201.373 20.1247 211.691 20.1247C229.486 20.1247 233.577 32.927 233.577 47.1777C233.577 61.5221 229.04 74.1434 210.624 74.1434C202.441 74.1434 198.614 72.236 196.389 70.1475V88.3036H178.775L178.774 22.3136Z" fill="white"></path> <path d="M296.419 22.3137L310.119 21.2237L311.899 26.6618C314.123 23.5742 320.263 20.9427 327.559 20.6712V37.9718C315.815 38.0596 314.034 41.6399 314.034 48.7232V73.3256H296.419V22.3137Z" fill="white"></path> <path d="M332.472 20.7003H341.545L344.391 10.1396L358.004 7.14246V20.7003H369.124V37.9915H358.004V52.9916C358.004 56.5316 358.539 58.3453 364.052 58.3453H369.124V73.3234C366.456 73.5042 363.52 73.5955 360.228 73.5955C345.37 73.5955 340.478 68.7849 340.478 55.7143V37.9921H332.472V20.7003Z" fill="white"></path> <path d="M388.679 73.314H374.007V58.3421H388.679V73.314Z" fill="white"></path> <path d="M0.322021 21.3056H9.92778V20.3069C9.92778 7.23609 14.7338 0.696106 31.2808 0.696106C35.6401 0.696106 36.4386 0.784036 38.5738 0.970086V15.5858H33.6822C28.613 15.5858 27.5456 16.8567 27.5456 20.2156V21.3056H38.5738V36.5553H27.5456V73.3229H9.92778V36.5553H0.322021V21.3056Z" fill="white"></path> <path d="M97.1738 34.869C104.424 34.869 104.956 38.3874 105.219 42.6299H87.0937C87.8011 37.6662 90.1009 34.869 97.1738 34.869M107.93 57.8013C105.017 59.5407 103.515 59.9305 97.7029 59.9305C90.8076 59.9305 88.1552 57.4266 87.2712 53.1873H121.136C121.754 34.869 120.252 20.072 97.7029 20.072C75.0682 20.072 70.2927 32.7931 70.2927 46.9597C70.2927 61.4883 75.0682 74.2779 97.7029 74.2779C106.63 74.2779 112.258 72.5892 118.233 68.6274L107.93 57.8013Z" fill="white"></path> <path d="M156.061 73.3466L147.422 60.7473L138.786 73.3466H119.094L137.529 46.5467L120.786 22.3312L140.692 22.3157L147.508 32.1991L154.33 22.3187L174.456 22.3312L157.395 46.4281L175.884 73.3466H156.061Z" fill="white"></path> <path d="M274.765 47.7238C274.765 41.1868 273.165 36.4668 264.89 36.4668C256.618 36.4668 255.015 41.1868 255.015 47.7238C255.015 54.1702 256.618 58.9808 264.89 58.9808C273.165 58.9808 274.765 54.1702 274.765 47.7238ZM237.223 47.178C237.223 29.9337 244.963 20.125 264.89 20.125C284.818 20.125 292.469 29.9337 292.469 47.178C292.469 64.4288 284.818 74.3247 264.89 74.3247C244.963 74.3247 237.223 64.4288 237.223 47.178Z" fill="white"></path> </g> <defs> <clipPath id="clip0_3_2"> <rect width="389" height="89" fill="white"></rect> </clipPath> </defs> </svg>