<svg id="Layer_1" data-name="Layer 1" xmlns="http://www.w3.org/2000/svg" viewBox="0 0 64 64"><defs><radialGradient id="radial-gradient" cx="7427.44" cy="-2854.1" r="313.2" gradientTransform="matrix(.25 0 0 -.25 -1850.25 -709.16)" gradientUnits="userSpaceOnUse"><stop offset="0" stop-color="#fff" stop-opacity=".1"/><stop offset="1" stop-color="#fff" stop-opacity="0"/></radialGradient><linearGradient id="linear-gradient" x1="7531.56" y1="-3070.72" x2="7560.9" y2="-3041.38" gradientTransform="matrix(.25 0 0 -.25 -1850.25 -709.16)" gradientUnits="userSpaceOnUse"><stop offset="0" stop-color="#1a237e" stop-opacity=".4"/><stop offset="1" stop-color="#1a237e" stop-opacity="0"/></linearGradient><clipPath id="clip-path"><path d="M56.85 29.54L39.62 46.77 56.85 64h-19.7l-7.38-7.39-9.85-9.84 17.23-17.23zM37.15 0l-32 32L15 41.85 56.85 0z" fill="none"/></clipPath><style>.cls-2{clip-path:url(#clip-path)}.cls-3{fill:#54c5f8}</style></defs><g class="cls-2"><path class="cls-3" d="M56.84 29.54H37.16L19.93 46.77l9.84 9.85 27.07-27.08z"/></g><g class="cls-2"><path class="cls-3" d="M15 41.85L5.16 32l32-32h19.68L15 41.85z"/></g><path fill="#01579b" d="M29.77 56.62L37.16 64h19.68L39.62 46.77l-9.85 9.85z"/><path fill="url(#linear-gradient)" d="M29.77 56.62l14.6-5.06-4.75-4.79-9.85 9.85z"/><path transform="rotate(-45 29.772 46.768)" fill="#29b6f6" d="M22.81 39.81h13.92v13.92H22.81z"/><path d="M56.85 29.54L39.62 46.77 56.85 64h-19.7l-7.38-7.39-9.85-9.84 17.23-17.23zM37.15 0l-32 32L15 41.85 56.85 0z" fill="url(#radial-gradient)"/></svg>