<svg viewBox="0 0 652 151" xmlns="http://www.w3.org/2000/svg" fill="currentColor">
<path d="M85.687 11.3546H0.811768V95.4748C0.811768 108.765 11.0814 120.092 24.3715 120.545C38.2656 121.149 49.7434 109.822 49.7434 96.0789V60.2863H85.0829C98.373 60.2863 109.549 49.8657 110.002 36.7266C110.606 22.6814 99.5812 11.3546 85.687 11.3546Z" />
<path d="M85.0829 120.545C98.9286 120.545 110.153 109.321 110.153 95.4748C110.153 81.6291 98.9286 70.4049 85.0829 70.4049C71.2371 70.4049 60.0129 81.6291 60.0129 95.4748C60.0129 109.321 71.2371 120.545 85.0829 120.545Z" />
<path d="M512.933 11.3546H492.998V119.034H512.933V11.3546Z" />
<path d="M576.212 42.4655L558.391 88.0747L537.701 42.4655H516.256L548.424 113.9L544.799 123.263C544.044 125.226 543.289 125.68 543.138 125.831C542.836 125.982 541.93 126.435 539.513 126.435H522.297V145.011H541.628C544.95 145.011 547.82 144.709 550.085 143.953C552.652 143.198 554.918 141.688 556.881 139.725C558.693 137.761 560.355 135.194 561.714 131.72L597.053 42.4655H576.212Z" fill="currentColor"/>
<path d="M179.926 23.1345V42.3145H160.142V60.5884H179.926V119.034H199.861V60.5884H218.588V42.3145H200.012V30.0816C200.012 28.4203 201.371 27.0611 203.032 27.0611H221.004V7.12601H195.934C187.024 7.12601 179.926 14.2241 179.926 23.1345Z" />
<path d="M371.273 60.8904C372.934 59.6822 375.35 58.9271 378.371 58.9271H379.73C382.901 58.9271 385.167 59.6822 386.828 61.3435C388.338 62.8537 389.244 64.666 389.697 66.7804H409.784C409.633 59.2292 406.914 53.0372 401.477 48.2045C396.04 43.3717 388.489 40.9553 378.824 40.9553C370.819 40.9553 363.721 43.0697 358.134 47.2983C352.093 51.829 349.072 58.021 349.072 65.7232C349.072 78.1071 356.925 85.9604 372.179 88.9808L382.297 90.9441C389.093 92.3033 389.093 95.3238 389.093 96.683C389.093 98.1933 388.338 99.4015 386.828 100.459C384.865 101.818 382.448 102.422 379.579 102.422H378.22C374.746 102.422 371.877 101.667 369.611 100.006C367.799 98.7974 366.742 96.9851 366.289 94.7197H346.203V95.1728C346.807 102.573 349.827 108.614 355.113 113.145C360.55 117.977 368.403 120.394 378.069 120.394C386.828 120.394 394.228 118.279 399.967 113.9C406.008 109.369 409.028 103.328 409.028 96.0789C409.028 80.0704 397.098 74.3315 386.979 72.3682L375.954 70.1029C368.856 68.7437 368.856 65.7232 368.856 64.364C369.007 63.6089 369.309 62.2496 371.273 60.8904Z" />
<path d="M327.325 45.9391C322.039 42.6166 315.696 40.9553 308.296 40.9553C300.896 40.9553 294.251 42.6166 288.814 46.0901C283.377 49.4126 278.997 54.2454 276.128 60.2863C273.258 66.3273 271.748 73.1233 271.748 80.8255C271.748 88.8298 273.409 96.0789 276.732 101.969C280.054 108.01 284.585 112.692 290.173 115.863C295.761 119.035 301.802 120.696 308.296 120.696C314.488 120.696 320.076 119.639 324.757 117.373C329.59 115.259 333.517 112.087 336.537 108.312C339.558 104.536 341.672 100.006 342.88 95.0218H321.888C321.133 97.2871 319.925 99.2504 317.81 100.912C315.696 102.573 312.826 103.479 309.504 103.479H308.296C305.728 103.479 303.161 102.724 300.896 101.365C298.479 100.006 296.516 98.0422 294.855 95.6259C293.344 93.3605 292.438 90.7931 292.136 87.9237H342.88V87.1685C343.031 83.846 343.182 81.5807 343.182 80.0704C343.182 72.6703 341.823 65.8742 339.256 59.9843C336.537 53.9434 332.611 49.2616 327.325 45.9391ZM292.136 71.009C292.438 68.5926 293.042 66.3273 294.251 64.515C295.61 62.4007 297.422 60.8904 299.536 59.8333C301.651 58.7761 304.218 58.172 306.786 58.172H307.994C310.561 58.172 312.977 58.7761 315.243 59.8333C317.357 60.8904 319.169 62.5517 320.529 64.515C321.737 66.3273 322.492 68.5926 322.643 71.009H292.136Z" />
<path d="M459.017 40.8042C454.185 40.8042 449.654 42.0124 445.425 44.2778C441.348 46.5431 438.025 49.7146 435.76 53.6413V15.8854V11.5057V11.3546H415.825V11.5057V15.7343V119.034H435.76V76.4458C435.76 72.8212 436.515 69.6497 438.025 66.6293C439.535 63.6088 441.499 61.3435 444.066 59.5312C446.634 57.7189 449.352 56.9638 452.372 56.9638H453.581C457.356 56.9638 460.377 58.323 462.491 60.8904C464.605 63.4578 465.662 67.2334 465.662 72.2172V119.034H485.598V69.9518C485.598 61.0414 483.332 54.0943 478.953 48.6575C474.422 43.3716 467.777 40.8042 459.017 40.8042Z"/>
<path d="M253.625 46.0901C249.85 48.9596 247.131 52.8862 245.621 57.87V45.184V42.6166V42.1635H225.837V42.6166V45.184V119.035H245.621V79.3153C245.621 72.8213 247.131 67.9885 250.303 64.817C253.474 61.6456 258.156 60.1353 264.801 60.1353H271.748V42.0125H267.821C262.083 42.0125 257.401 43.3717 253.625 46.0901Z" />
<path d="M604 36.5756C604 38.0859 602.792 39.2941 601.282 39.2941C599.771 39.2941 598.412 38.0859 598.412 36.5756C598.412 35.0654 599.62 33.8572 601.282 33.8572C602.792 33.8572 604 35.0654 604 36.5756ZM599.167 36.5756C599.167 37.7838 600.073 38.69 601.282 38.69C602.49 38.69 603.396 37.7838 603.396 36.5756C603.396 35.3674 602.49 34.3103 601.282 34.3103C600.073 34.4613 599.167 35.3674 599.167 36.5756ZM600.828 38.0859H600.224V35.3674C600.526 35.3674 600.828 35.2164 601.282 35.2164C601.735 35.2164 602.037 35.3674 602.188 35.3674C602.339 35.5185 602.49 35.6695 602.49 35.9715C602.49 36.2736 602.188 36.5756 601.886 36.5756C602.188 36.7267 602.339 36.8777 602.339 37.1797C602.49 37.6328 602.49 37.7838 602.49 37.9348H601.735C601.584 37.7838 601.584 37.6328 601.584 37.3308C601.584 37.0287 601.433 36.8777 600.979 36.8777H600.677V38.0859H600.828ZM600.828 36.4246H601.131C601.433 36.4246 601.735 36.2736 601.735 35.9715C601.735 35.6695 601.584 35.5185 601.131 35.5185C600.979 35.5185 600.828 35.5185 600.828 35.5185V36.4246Z" />
</svg>
