<svg viewBox="0 0 100 100" fill="none" xmlns="http://www.w3.org/2000/svg">
<path fill-rule="evenodd" clip-rule="evenodd" d="M21.625 4.125C17.2489 4.125 13.0521 5.86339 9.95774 8.95774C6.86339 12.0521 5.125 16.2489 5.125 20.625C5.125 25.0011 6.86339 29.1979 9.95774 32.2923C13.0521 35.3866 17.2489 37.125 21.625 37.125C26.0011 37.125 30.1979 35.3866 33.2923 32.2923C36.3866 29.1979 38.125 25.0011 38.125 20.625C38.125 16.2489 36.3866 12.0521 33.2923 8.95774C30.1979 5.86339 26.0011 4.125 21.625 4.125ZM7.04092 6.04092C10.9089 2.17298 16.1549 0 21.625 0C27.0951 0 32.3411 2.17299 36.2091 6.04092C40.077 9.90886 42.25 15.1549 42.25 20.625C42.25 26.0951 40.077 31.3411 36.2091 35.2091C32.3411 39.077 27.0951 41.25 21.625 41.25C16.1549 41.25 10.9089 39.077 7.04092 35.2091C3.17299 31.3411 1 26.0951 1 20.625C1 15.1549 3.17298 9.90886 7.04092 6.04092ZM48.4375 41.25C45.7025 41.25 43.0794 42.3365 41.1455 44.2705C39.2115 46.2044 38.125 48.8275 38.125 51.5625C38.125 54.2975 39.2115 56.9206 41.1455 58.8545C43.0794 60.7885 45.7025 61.875 48.4375 61.875C49.7918 61.875 51.1328 61.6083 52.3839 61.09C53.6351 60.5718 54.7719 59.8121 55.7295 58.8545C56.6871 57.8969 57.4468 56.7601 57.965 55.5089C58.4833 54.2578 58.75 52.9168 58.75 51.5625C58.75 50.2082 58.4833 48.8672 57.965 47.6161C57.4468 46.3649 56.6871 45.2281 55.7295 44.2705C54.7719 43.3129 53.6351 42.5532 52.3839 42.035C51.1328 41.5167 49.7918 41.25 48.4375 41.25ZM38.2286 41.3536C40.9362 38.6461 44.6084 37.125 48.4375 37.125C50.3335 37.125 52.2109 37.4984 53.9625 38.224C55.7141 38.9495 57.3057 40.013 58.6464 41.3536C59.987 42.6943 61.0505 44.2859 61.776 46.0375C62.5016 47.7891 62.875 49.6665 62.875 51.5625C62.875 53.4585 62.5016 55.3359 61.776 57.0875C61.0505 58.8391 59.987 60.4307 58.6464 61.7714C57.3057 63.112 55.7141 64.1755 53.9625 64.901C52.2109 65.6266 50.3335 66 48.4375 66C44.6084 66 40.9362 64.4789 38.2286 61.7714C35.5211 59.0638 34 55.3916 34 51.5625C34 47.7334 35.5211 44.0612 38.2286 41.3536ZM48.4375 74.25C45.7025 74.25 43.0794 75.3365 41.1455 77.2705C39.2115 79.2044 38.125 81.8275 38.125 84.5625C38.125 87.2975 39.2115 89.9206 41.1455 91.8545C43.0794 93.7885 45.7025 94.875 48.4375 94.875C51.1725 94.875 53.7956 93.7885 55.7295 91.8545C57.6635 89.9206 58.75 87.2975 58.75 84.5625C58.75 81.8275 57.6635 79.2044 55.7295 77.2705C53.7956 75.3365 51.1725 74.25 48.4375 74.25ZM38.2286 74.3536C40.9362 71.6461 44.6084 70.125 48.4375 70.125C52.2666 70.125 55.9388 71.6461 58.6464 74.3536C61.3539 77.0612 62.875 80.7334 62.875 84.5625C62.875 88.3916 61.3539 92.0638 58.6464 94.7714C55.9388 97.4789 52.2666 99 48.4375 99C44.6084 99 40.9362 97.4789 38.2286 94.7714C35.5211 92.0638 34 88.3916 34 84.5625C34 80.7334 35.5211 77.0612 38.2286 74.3536Z" fill="#2088FF"/>
<path fill-rule="evenodd" clip-rule="evenodd" d="M85.5625 74.25C82.8275 74.25 80.2044 75.3365 78.2705 77.2705C76.3365 79.2044 75.25 81.8275 75.25 84.5625C75.25 87.2975 76.3365 89.9206 78.2705 91.8545C80.2044 93.7885 82.8275 94.875 85.5625 94.875C88.2975 94.875 90.9206 93.7885 92.8545 91.8545C94.7885 89.9206 95.875 87.2975 95.875 84.5625C95.875 81.8275 94.7885 79.2044 92.8545 77.2705C90.9206 75.3365 88.2975 74.25 85.5625 74.25ZM75.3536 74.3536C78.0612 71.6461 81.7334 70.125 85.5625 70.125C89.3916 70.125 93.0638 71.6461 95.7714 74.3536C98.4789 77.0612 100 80.7334 100 84.5625C100 88.3916 98.4789 92.0638 95.7714 94.7714C93.0638 97.4789 89.3916 99 85.5625 99C81.7334 99 78.0612 97.4789 75.3536 94.7714C72.6461 92.0638 71.125 88.3916 71.125 84.5625C71.125 80.7334 72.6461 77.0612 75.3536 74.3536Z" fill="#79B8FF"/>
<path fill-rule="evenodd" clip-rule="evenodd" d="M54.0984 47.2322C54.9032 48.0383 54.9021 49.3442 54.096 50.149L47.7642 56.4706C46.9595 57.274 45.6564 57.2745 44.851 56.4718L41.7779 53.409C40.971 52.6049 40.9689 51.299 41.773 50.4922C42.5771 49.6854 43.883 49.6832 44.6898 50.4873L46.3057 52.0978L51.1816 47.2298C51.9877 46.425 53.2936 46.4261 54.0984 47.2322Z" fill="#2088FF"/>
<path fill-rule="evenodd" clip-rule="evenodd" d="M85.5625 41.25C82.8275 41.25 80.2044 42.3365 78.2705 44.2705C76.3365 46.2044 75.25 48.8275 75.25 51.5625C75.25 54.2975 76.3365 56.9206 78.2705 58.8545C80.2044 60.7885 82.8275 61.875 85.5625 61.875C86.9168 61.875 88.2578 61.6083 89.5089 61.09C90.7601 60.5718 91.8969 59.8121 92.8545 58.8545C93.8121 57.8969 94.5718 56.7601 95.09 55.5089C95.6083 54.2578 95.875 52.9168 95.875 51.5625C95.875 50.2082 95.6083 48.8672 95.09 47.6161C94.5718 46.3649 93.8121 45.2281 92.8545 44.2705C91.8969 43.3129 90.7601 42.5532 89.5089 42.035C88.2578 41.5167 86.9168 41.25 85.5625 41.25ZM75.3536 41.3536C78.0612 38.6461 81.7334 37.125 85.5625 37.125C87.4585 37.125 89.3359 37.4984 91.0875 38.224C92.8391 38.9495 94.4307 40.013 95.7714 41.3536C97.112 42.6943 98.1755 44.2859 98.901 46.0375C99.6266 47.7891 100 49.6665 100 51.5625C100 53.4585 99.6266 55.3359 98.901 57.0875C98.1755 58.8391 97.112 60.4307 95.7714 61.7714C94.4307 63.112 92.8391 64.1755 91.0875 64.901C89.3359 65.6266 87.4585 66 85.5625 66C81.7334 66 78.0612 64.4789 75.3536 61.7714C72.6461 59.0638 71.125 55.3916 71.125 51.5625C71.125 47.7334 72.6461 44.0612 75.3536 41.3536Z" fill="#2088FF"/>
<path fill-rule="evenodd" clip-rule="evenodd" d="M15.5069 10.4384C16.1527 10.0821 16.8821 9.90538 17.6193 9.92672C18.3565 9.94805 19.0744 10.1666 19.6984 10.5596C19.6985 10.5597 19.6983 10.5596 19.6984 10.5596L30.2425 17.2C30.8347 17.5726 31.3239 18.0906 31.6612 18.7037C31.9988 19.3172 32.1747 20.0066 32.1722 20.7069C32.1697 21.4072 31.989 22.0953 31.6471 22.7064C31.3055 23.317 30.8141 23.8307 30.2193 24.1991L19.6739 30.7372C19.6738 30.7372 19.6739 30.7371 19.6739 30.7372C19.0491 31.1245 18.3321 31.338 17.5972 31.3553C16.8623 31.3726 16.1361 31.1932 15.4937 30.8357C14.8514 30.4781 14.3163 29.9554 13.9438 29.3216C13.5713 28.6879 13.375 27.9662 13.375 27.2312C13.375 27.2311 13.375 27.2313 13.375 27.2312V14.0498C13.3751 13.3122 13.5729 12.588 13.9479 11.9529C14.3228 11.3177 14.8612 10.7948 15.5069 10.4384ZM17.5002 14.0501L17.5 27.2312L28.0458 20.6914L17.5002 14.0501ZM19.5625 37.125C20.7016 37.125 21.625 38.0484 21.625 39.1875V70.125C21.625 76.9513 27.2459 82.5 34 82.5H36.0625C37.2016 82.5 38.125 83.4234 38.125 84.5625C38.125 85.7016 37.2016 86.625 36.0625 86.625H34C24.9842 86.625 17.5 79.2459 17.5 70.125V39.1875C17.5 38.0484 18.4234 37.125 19.5625 37.125ZM91.5101 47.5953C92.0201 48.4102 91.8994 49.4695 91.2192 50.1488L84.8894 56.4704C84.0847 57.274 82.7815 57.2746 81.976 56.4719L78.9029 53.409C78.3992 52.9071 78.1896 52.1811 78.3483 51.4879C78.507 50.7948 79.0116 50.2323 79.6834 49.9994L89.0864 46.7407C89.9947 46.4258 91.0001 46.7804 91.5101 47.5953Z" fill="#2088FF"/>
<path d="M35.9573 53.625C36.5043 53.625 37.0289 53.4077 37.4157 53.0209C37.8025 52.6341 38.0198 52.1095 38.0198 51.5625C38.0198 51.0155 37.8025 50.4909 37.4157 50.1041C37.0289 49.7173 36.5043 49.5 35.9573 49.5V53.625ZM17.5 39.2597C17.5 43.0696 19.0135 46.7235 21.7075 49.4175C24.4015 52.1115 28.0554 53.625 31.8653 53.625V49.5C29.1494 49.5 26.5447 48.4211 24.6243 46.5007C22.7039 44.5803 21.625 41.9756 21.625 39.2597H17.5ZM31.8653 53.625H35.9573V49.5H31.8653V53.625V53.625Z" fill="#2088FF"/>
<path fill-rule="evenodd" clip-rule="evenodd" d="M58.8634 51.5625C58.8634 50.4234 59.7869 49.5 60.9259 49.5H73.1854C74.3245 49.5 75.2479 50.4234 75.2479 51.5625C75.2479 52.7016 74.3245 53.625 73.1854 53.625H60.9259C59.7869 53.625 58.8634 52.7016 58.8634 51.5625Z" fill="#2088FF"/>
<path fill-rule="evenodd" clip-rule="evenodd" d="M44.3125 82.5C44.8598 82.5003 45.3845 82.7179 45.7713 83.1051C46.1581 83.4923 46.3753 84.0173 46.375 84.5646C46.3747 85.1118 46.1571 85.6366 45.7699 86.0234C45.3827 86.4102 44.8577 86.6273 44.3104 86.6271C43.7632 86.6268 43.2384 86.4091 42.8516 86.0219C42.4648 85.6348 42.2477 85.1098 42.2479 84.5625C42.2482 84.0152 42.4659 83.4905 42.8531 83.1037C43.2402 82.7169 43.7652 82.4997 44.3125 82.5V82.5ZM52.5625 82.5C52.8335 82.5001 53.1018 82.5536 53.3521 82.6575C53.6024 82.7613 53.8298 82.9134 54.0213 83.1051C54.2129 83.2968 54.3647 83.5244 54.4683 83.7748C54.5719 84.0252 54.6251 84.2936 54.625 84.5646C54.6249 84.8355 54.5714 85.1039 54.4675 85.3542C54.3637 85.6045 54.2116 85.8319 54.0199 86.0234C53.8282 86.2149 53.6006 86.3668 53.3502 86.4704C53.0998 86.574 52.8314 86.6272 52.5604 86.6271C52.0132 86.6268 51.4884 86.4091 51.1016 86.0219C50.7148 85.6348 50.4977 85.1098 50.4979 84.5625C50.4982 84.0152 50.7159 83.4905 51.1031 83.1037C51.4902 82.7169 52.0152 82.4997 52.5625 82.5V82.5Z" fill="#79B8FF"/>
<path fill-rule="evenodd" clip-rule="evenodd" d="M73.1967 84.5098C73.2338 85.6483 72.341 86.6013 71.2025 86.6383L69.1132 86.7064C67.9747 86.7435 67.0217 85.8506 66.9846 84.7122C66.9475 83.5737 67.8404 82.6207 68.9788 82.5836L71.0682 82.5155C72.2066 82.4784 73.1596 83.3713 73.1967 84.5098Z" fill="#79B8FF"/>
</svg>
