<svg
  version="1.1"
  aria-labelledby="go-logo-title"
  role="img"
  xmlns="http://www.w3.org/2000/svg"
  viewBox="0 0 205.39 76.73">
  <title id="go-logo-title">Go logo</title>
  <path d="M54.1 19.53H18.4a1.43 1.43 0 0 0-1.1.5l-2.1 2.7c-.2.3-.1.5.3.5l36.2.1a1.52 1.52 0 0 0 1-.6l1.7-2.6c.2-.3.1-.6-.3-.6zm-5.2 9.2H3.3a1.43 1.43 0 0 0-1.1.5l-2.1 2.7c-.2.3-.1.5.3.5l47.3-.1a.87.87 0 0 0 .9-.6l.8-2.4a.46.46 0 0 0-.5-.6zm-2.2 9.2h-20a1.33 1.33 0 0 0-1 .6L24.3 41c-.2.3-.1.6.3.6l21.8.1a.75.75 0 0 0 .7-.7l.2-2.4c0-.37-.2-.67-.6-.67zm158.3-8.8c-1.3-9.6-6.2-16.9-14.1-22.3-8.7-5.9-18.3-6.9-28.5-5.1-11.9 2.1-20.7 7.1-28 16.7a42.7 42.7 0 0 0-6.91 13H95.3A2.7 2.7 0 0 0 92.8 33c-1.4 2.6-3.8 7.8-5.1 10.9-.7 1.7-.2 3 1.9 3h19.3c-1 1.4-1.8 2.6-2.7 3.7-4.5 5.1-10.2 7.5-17 6.6a15.68 15.68 0 0 1-13.5-15.7 21.27 21.27 0 0 1 10.2-19c5.7-3.7 11.8-4.6 18.1-1.5a13.39 13.39 0 0 1 4.7 3.8c1.3 1.5 1.4 1.4 2.9 1 6.2-1.6 10.5-2.8 16.8-4.4 1.2-.3 1.6-.8 1-1.7a31.35 31.35 0 0 0-11.6-14.1C109.7.13 100.7-1 91.3.73A44.38 44.38 0 0 0 63.3 18c-6.6 8.6-9.8 18.4-8.5 29.3a31.41 31.41 0 0 0 12.7 22.2c8 6 17.1 7.9 26.9 6.6 11.9-1.6 21.3-7.5 28.5-17a41.66 41.66 0 0 0 4.2-6.78 31.4 31.4 0 0 0 10 15.58c7 6 15.3 8.6 24.4 8.8 2.6-.3 5.3-.4 8-.9a45.82 45.82 0 0 0 24-12.8c9.3-9.37 13.2-20.37 11.5-33.87zm-32.4 26.3a18.33 18.33 0 0 1-16.3.6 16.47 16.47 0 0 1-9.2-18.9c2.2-9.4 8.2-15.3 17.5-17.4 9.5-2.2 18.6 3.4 20.4 13.3a28.78 28.78 0 0 1 .3 3.3c-.5 8.6-4.8 15-12.7 19.1z" fill="#00acd7"/>
</svg>
