<svg viewBox="0 0 1024 1024" fill="none" xmlns="http://www.w3.org/2000/svg">
<path d="M435.37 698.534L444.507 690.874L905.219 686.898L908.082 698.534L908.086 698.517C907.453 700.999 906.494 703.405 905.219 705.671C901.274 712.68 892.672 717.657 875.464 727.612L430.644 984.961C386.343 1010.59 364.194 1023.41 350.503 1020.35C338.658 1017.71 328.943 1009.28 324.669 997.919C319.731 984.791 329.316 961.064 348.486 913.61L435.37 698.534Z" fill="#7957FF"/>
<path d="M908.082 698.534H435.37L432.581 678.95L575.681 329.151L587.379 322.596L886.881 655.375C887.35 655.897 887.812 656.41 888.264 656.913C900.642 670.673 906.883 677.817 908.418 685.423C909.301 689.796 909.172 694.276 908.082 698.534Z" fill="#18B6AA"/>
<path d="M590.973 38.7317L148.216 293.601C130.974 303.526 122.352 308.489 118.391 315.496C114.919 321.64 113.77 328.827 115.155 335.747C116.736 343.639 123.382 351.042 136.673 365.846L435.37 698.535L587.379 322.598L673.039 110.107C692.096 62.8315 701.625 39.1933 696.694 26.0827C692.428 14.7362 682.732 6.30353 670.904 3.6525C657.236 0.587203 635.149 13.3016 590.973 38.7317Z" fill="#F845C6"/>
</svg>
