<svg xmlns="http://www.w3.org/2000/svg" viewBox="0 0 512 150" aria-hidden="true">
  <path fill="currentColor" d="M170.75 19.75h31.32v113.08h-31.32zm47.76 113.08V19.75h86.14v21.92h-54.82V65h50.43v21.94h-50.43v24h54.82v21.93zm103.69 0V19.75h86.12v21.92h-54.8V65h50.41v21.94h-50.41v24h54.8v21.93zm103.66 0V19.75H512v21.92h-54.8V65h50.42v21.94H457.2v24H512v21.93zM71.46 87.64c-.42 8-.52 15.37-1.11 23.38a44.21 44.21 0 0 0 10.1.07l-1-22.32-.18-1.06a55.19 55.19 0 0 1-7.81-.07zM51.72 65.21c-3.89 2-9.62 4.9-9 10.24.84 2.92 4 4.8 6.49 6C63 87.53 81.35 87.74 95.93 83.2c3.59-1.39 8.43-3.4 9.09-7.81 0-3.64-3.9-5.93-6.67-7.33v-.17a12.68 12.68 0 0 1 3.08-.83V67c-4.88-.87-9.6-2.15-14.32-3.4.91 2.08 1.56 4.26 2.32 6.42a26.44 26.44 0 0 1 4.41-1c2.5 1 6.07 2.36 6.42 5.48.28 2.91-2.91 4.33-4.93 5.52a57.09 57.09 0 0 1-33.87 1.31c-3.08-1-7.52-2.22-7.9-6.14 2.18-5.16 7.84-6.23 12.56-7.49-2.43-1.56-4.9-3-7.25-4.69-2.54.14-4.86 1.26-7.15 2.25zm23.62-31.14L74 38.51l-7 19.88c1.73.17 3.89 0 5.59.17v.17l-1 22.48.17.24a28.94 28.94 0 0 0 7.24-.06V81l-.91-21.81.14-.74 6.1-.1c-3-8-6-16.18-8.84-24.32zm-3.23-10c5.11-3.48 9.69 1.38 13.65 4.16 15.29 12.31 29.73 26.41 40.73 42.32 1.38 2 2 5.24.77 7.57-2.85 4.75-6.7 9.09-10.35 13.5v.24c-9.09 9.68-18.7 19.63-29.07 27.83-5.07 3.08-9.72 9.82-16.24 5.65a235 235 0 0 1-41.12-38.82c-2.05-3.18-5.24-5.79-6.66-9.4-2-4.89 2.39-8.39 4.89-12.07 12.29-15.16 27.55-30 43.4-41zM84.92 9.6l-5.66-8A10.33 10.33 0 0 0 76.94.27c-1.67-.73-3.46.15-4.83 1.18L61.88 14.77C45.47 35.1 26 54.08 4.84 68.63 3.17 69.94.68 71.22.16 73.38c-.56 1.94.45 3.54 1.66 4.75a278.85 278.85 0 0 1 47.65 41.4c2.56 2.69 4.64 5.37 7.15 7.9 4.22 5.62 9.18 11.29 13.07 17.32 1.22 1.27 1.42 3.37 3.33 4 1.49.51 3.33.86 4.75 0l1.42-1.42a282.91 282.91 0 0 1 64.72-65.27c2.49-2.22 7.25-3 7.32-7.18a6.58 6.58 0 0 0-2.92-4.82l-.41-.06a251.31 251.31 0 0 1-36-29.74l-12.42-13c-5-5.58-9.93-11.76-14.58-17.66zM70.28 21c5-3.89 11.28-.66 15.48 2.91a151.43 151.43 0 0 1 13 11.09l.74.42a216.92 216.92 0 0 1 30 34c1.38 2.11 2.59 4.51 1.82 7.31-2.83 7.09-8.59 12.74-13.62 18.92-10.9 11.73-22.39 23.07-35.25 32.13-2.61 1.84-6.12 3.54-9.23 2.08-9.47-5-17.46-13.08-25.75-20.48-9.63-8.94-19.27-19.32-26.56-30.18a8.89 8.89 0 0 1-1.36-5.41c.94-3.74 3.51-6.83 5.94-10 8.6-11 19.15-21.37 29.8-30.88a8.24 8.24 0 0 1 1.08-1C61 28 65.49 24.46 70.28 21z"/>
</svg>
