<svg viewBox="0 0 200 200" fill="none" xmlns="http://www.w3.org/2000/svg">
   <path d="M200 0H0V200H200V0Z" fill="#FF554A"/>
   <path fill-rule="evenodd" clip-rule="evenodd" d="M87.7062 169.556V150.83H112.357V169.712C135.152 164.298 152.107 143.807 152.107 119.356C152.107 99.453 137.896 71.4525 121.423 62.7926C123.641 70.5561 120.314 80.6855 115.878 79.7983C114.206 79.4639 114.039 76.8387 113.768 72.6028C113.202 63.724 112.183 47.7685 95.9148 31C94.6136 42.71 75.937 66.5611 63.7767 82.0906C62.117 84.2102 60.5787 86.1747 59.2225 87.9322C52.6613 96.4348 48.5947 107.538 48.5947 119.356C48.5947 143.578 65.2342 163.914 87.7062 169.556ZM114.051 129.787C114.051 137.378 107.897 143.532 100.306 143.532C92.7143 143.532 86.5605 137.378 86.5605 129.787C86.5605 126.648 87.6405 123.699 89.3829 121.441C89.7429 120.975 90.1512 120.453 90.5918 119.891L90.5924 119.89C93.8218 115.766 98.7818 109.432 99.1274 106.322C109.363 113.194 114.051 124.501 114.051 129.787Z" fill="white"/>
</svg>
