<svg viewBox="0 0 100 100" fill="none" xmlns="http://www.w3.org/2000/svg">
<g clip-path="url(#clip0_1_8)">
<path d="M78.1717 39.0185C77.937 39.1698 77.6889 39.2992 77.4306 39.4052L76.1901 39.9851L75.7068 40.2751C74.5038 40.8379 73.2459 41.2752 71.9532 41.58C68.2925 42.4409 64.5281 42.7772 60.7728 42.5789H58.8396L56.1492 39.6307C55.9304 39.3838 55.6452 39.2049 55.3276 39.1152C54.8228 38.9226 54.2644 38.9247 53.7611 39.1213C53.2578 39.3178 52.8457 39.6947 52.605 40.1785L49.9308 45.7203L49.7858 45.1081C49.1736 41.8861 48.5936 38.8413 48.0459 35.7804L47.5787 33.4284C46.7088 28.8853 45.7744 24.1651 44.7433 19.6059C44.6249 18.9925 44.3226 18.4297 43.8765 17.9923C43.4305 17.5549 42.8619 17.2636 42.2463 17.1572C41.4347 17.0116 40.5981 17.1826 39.9089 17.6351C39.2196 18.0877 38.73 18.7872 38.541 19.5898L36.2694 30.2063C35.5767 33.6861 34.884 37.2464 34.1912 40.8068C33.8207 42.6272 33.4985 44.496 33.1924 46.3164C33.0474 47.1058 32.9186 47.9274 32.7736 48.7007L29.4388 35.4421L29.3099 35.1682C29.2174 34.9038 29.0728 34.6606 28.8846 34.4531C28.6964 34.2456 28.4685 34.0779 28.2144 33.96C28.0015 33.8168 27.7623 33.7174 27.5106 33.6676C27.2589 33.6178 26.9998 33.6186 26.7484 33.67C26.3907 33.7511 26.0539 33.9063 25.7598 34.1255C25.4656 34.3447 25.2207 34.6231 25.0407 34.9427L21.126 42.2083L11.46 42.9655C11.1006 42.9776 10.7593 43.1257 10.5051 43.3799C10.2508 43.6342 10.1027 43.9755 10.0906 44.3349C10.0706 44.5276 10.089 44.7223 10.1447 44.9078C10.2004 45.0934 10.2923 45.266 10.4152 45.4159C10.538 45.5657 10.6893 45.6896 10.8604 45.7806C11.0314 45.8716 11.2188 45.9277 11.4116 45.9459H11.2667L22.2698 46.8319C22.6555 46.8475 23.0388 46.7639 23.3829 46.589C23.727 46.4141 24.0205 46.1539 24.2352 45.8331L24.348 45.6559V45.4626L25.959 42.6111L30.5987 63.3286C30.7107 63.8962 30.9899 64.4174 31.4004 64.825C31.811 65.2327 32.3341 65.5082 32.9024 65.6162C33.6527 65.7245 34.4171 65.5648 35.0612 65.1652C35.381 64.9696 35.6546 64.707 35.8632 64.3955C36.0718 64.084 36.2104 63.731 36.2694 63.3608L36.5272 62.3137C37.3327 59.0917 38.1382 55.8697 38.7021 52.7604C39.572 49.2806 40.3131 45.6559 40.9736 42.1278C41.3924 40.0657 41.7952 37.9553 42.214 35.8126L42.6007 37.2142C43.8895 42.0472 45.3394 47.6374 46.6604 53.1309C46.7114 53.4926 46.8598 53.8335 47.0896 54.1173C47.3195 54.4011 47.6222 54.617 47.9653 54.7419C48.529 54.967 49.1576 54.967 49.7213 54.7419C49.9955 54.6265 50.2437 54.4573 50.4512 54.2442C50.6587 54.0311 50.8214 53.7786 50.9296 53.5015L54.8443 44.5604L56.0042 45.8814C56.1842 46.1395 56.4259 46.3484 56.7073 46.4891C56.9887 46.6298 57.3008 46.6978 57.6153 46.6869H60.4023C61.3528 46.6869 62.3033 46.6869 63.2538 46.6064C64.2043 46.5258 65.2192 46.4936 66.1214 46.4131C67.0235 46.3325 68.0868 46.2036 68.9889 46.0586C69.8911 45.9136 70.9221 45.7203 71.8243 45.5109C72.7562 45.298 73.6759 45.0345 74.5791 44.7215C75.6202 44.3961 76.6331 43.9867 77.6078 43.4971L79.0738 42.7239L79.6538 42.4339L80.5398 41.8861L80.9909 41.6284C81.5064 41.3384 81.6998 41.2095 82.2153 40.8712L82.5858 40.6134V40.2751" fill="#FF5142"/>
<path d="M11.2666 13.323C4.70053 20.3658 0.761372 29.4557 0.112311 39.0626C-0.53675 48.6696 2.14392 58.2068 7.70304 66.0687C13.2622 73.9307 21.3603 79.6373 30.6341 82.2278C39.9079 84.8184 49.791 84.1347 58.6198 80.2919C67.4485 76.449 74.6837 69.6817 79.1073 61.1292C83.5309 52.5767 84.8729 42.7612 82.9072 33.3352C80.9415 23.9091 75.7882 15.4481 68.3149 9.37659C60.8415 3.30505 51.5046 -0.006299 41.8757 6.58931e-06C36.1314 -0.00587154 30.4477 1.17442 25.1807 3.46696C19.9137 5.75951 15.1768 9.11491 11.2666 13.323V13.323ZM65.0903 73.2685C72.4848 80.8402 79.7343 88.6053 87.3061 95.9514C88.995 97.8018 91.0101 99.3254 93.2507 100.446C95.5061 101.397 98.2126 101.268 99.4047 99.5279C99.8065 98.7858 100.017 97.9552 100.017 97.1114C100.017 96.2675 99.8065 95.4369 99.4047 94.6949C98.0982 92.2063 96.2941 90.0129 94.1045 88.2508C91.6558 85.8988 89.0943 83.6756 86.5006 81.4685C80.9265 76.7322 75.433 71.8025 69.9555 67.0822L65.0903 73.2685ZM4.82262 41.8861C4.82262 34.5577 6.99575 27.3939 11.0672 21.3005C15.1386 15.2072 20.9255 10.458 27.6961 7.65352C34.4667 4.84906 41.9168 4.11528 49.1044 5.54499C56.292 6.97469 62.8943 10.5037 68.0762 15.6856C73.2582 20.8676 76.7872 27.4698 78.2169 34.6574C79.6466 41.845 78.9128 49.2952 76.1083 56.0657C73.3039 62.8363 68.5547 68.6232 62.4613 72.6947C56.368 76.7661 49.2041 78.9392 41.8757 78.9392C32.0552 78.9179 22.6429 75.0073 15.6987 68.0631C8.75454 61.1189 4.8439 51.7067 4.82262 41.8861V41.8861Z" fill="#021923"/>
</g>
<defs>
<clipPath id="clip0_1_8">
<rect width="100" height="100" rx="10" fill="white"/>
</clipPath>
</defs>
</svg>
