<svg fill="none" xmlns="http://www.w3.org/2000/svg" viewBox="-0.03 0.75 467.45 73.42"> <g clip-path="url(#clip0_3_62)"> <path d="M180.909 41.0002L174.681 40.428C170.597 40.0716 168.953 38.6396 168.953 36.132C168.953 33.196 171.457 31.2638 176.325 31.2638C180.909 31.2638 183.201 33.2648 183.557 36.4884H198.165C197.233 26.9677 190.505 20.236 176.757 20.236C162.437 20.236 154.557 27.5399 154.557 37.2044C154.557 46.228 159.497 51.1681 171.745 52.1718L177.904 52.6721C182.697 53.0316 184.417 54.6762 184.417 57.5403C184.417 60.5481 181.913 62.7681 176.757 62.7681C171.957 62.7681 169.096 60.62 168.596 56.8274H153.197C154.557 67.2079 161.861 74.0803 176.685 74.0803C191.077 74.0803 199.025 66.7077 199.025 56.7524C199.025 47.0878 193.725 42.1477 180.909 41.0002V41.0002ZM130.501 20.236C121.337 20.236 115.893 25.0323 113.317 34.8438H112.385V21.0958H97.9209V73.2236H113.317V42.8637C113.317 35.9162 116.897 32.1236 123.341 32.1236C129.713 32.1236 132.865 36.0632 132.865 42.7918V73.2236H148.257V40.0716C148.257 27.468 141.669 20.236 130.498 20.236H130.501ZM82.9567 0.76001C77.7289 0.76001 73.7893 4.19934 73.7893 9.424C73.7893 14.6518 77.657 18.088 82.8848 18.088C88.1126 18.088 91.9771 14.6487 91.9771 9.424C91.9771 4.26813 88.1126 0.76001 82.9567 0.76001ZM90.617 21.0958H75.2213V73.2236H90.617V21.0958ZM223.225 10.0681H213.417C213.129 18.4476 209.549 22.0964 201.529 22.7405V33.3399H207.833V56.2521C207.833 67.7801 214.417 74.0803 227.521 74.0803C229.985 74.0803 232.439 73.7677 234.825 73.1517V60.7607C233.596 60.9648 232.351 61.06 231.104 61.0453C225.589 61.0453 223.225 58.9692 223.225 53.1692V33.3399H236.761V21.0958H223.225V10.0681ZM467.393 33.3399V21.0958H453.861V10.0681H444.193C443.977 15.8681 442.261 19.2324 438.465 21.0958V56.2521C438.465 67.7801 445.053 74.0803 458.157 74.0803C460.62 74.0803 463.075 73.7677 465.461 73.1517V60.7607C464.23 60.9649 462.984 61.0601 461.737 61.0453C456.221 61.0453 453.861 58.9692 453.861 53.1692V33.3399H467.393ZM416.985 35.6317H416.053V21.0927H401.805V73.2236H417.2V45.0117C417.2 37.2044 420.709 33.9121 428.728 33.9121C430.089 33.9121 431.593 34.0559 433.669 34.4123V20.952C432.266 20.4597 430.787 20.2173 429.301 20.236C423.069 20.236 418.773 23.816 416.985 35.6317V35.6317ZM318.673 60.9077C311.441 60.9077 306.213 56.1083 306.213 46.8002C306.213 38.4957 311.081 33.3399 318.529 33.3399C324.901 33.3399 328.553 36.9199 329.629 42.648H345.237C343.733 29.2564 334.141 20.236 318.745 20.236C301.845 20.236 290.749 31.6921 290.749 47.3755C290.749 63.6279 301.417 74.0803 318.529 74.0803C334.069 74.0803 344.165 65.4195 345.597 51.3807H329.985C329.129 57.1119 325.189 60.9077 318.673 60.9077V60.9077ZM263.469 20.236C250.077 20.236 241.988 26.8239 240.553 38.6364H255.305C255.805 34.5561 258.456 32.4081 263.109 32.4081C267.833 32.4081 269.981 34.5561 269.981 37.6359C269.981 40.2123 268.337 41.5755 264.113 42.3603L257.093 43.6516C244.709 45.9403 239.981 51.0243 239.981 59.1161C239.981 68.3523 246.497 74.1554 255.521 74.1554C262.893 74.1554 267.693 70.716 269.913 62.124H270.841V73.2236H285.38V39.2118C285.38 27.3961 278.289 20.236 263.469 20.236ZM261.749 63.6279C257.597 63.6279 255.233 61.408 255.233 58.1125C255.233 55.3923 256.881 53.5319 260.961 52.6001L263.825 51.956C266.295 51.3839 268.212 50.621 269.985 49.0889V54.6043C269.985 60.9765 266.617 63.6279 261.749 63.6279V63.6279ZM372.877 20.236C359.485 20.236 351.397 26.8239 349.965 38.6364H364.713C365.217 34.5561 367.865 32.4081 372.517 32.4081C377.245 32.4081 379.393 34.5561 379.393 37.6359C379.393 40.2123 377.745 41.5755 373.521 42.3603L366.505 43.6516C354.117 45.9403 349.389 51.0243 349.389 59.1161C349.389 68.3523 355.905 74.1554 364.929 74.1554C372.305 74.1554 377.101 70.716 379.321 62.124H380.253V73.2236H394.789V39.2118C394.789 27.3961 387.697 20.236 372.877 20.236V20.236ZM371.157 63.6279C367.005 63.6279 364.641 61.408 364.641 58.1125C364.641 55.3923 366.289 53.5319 370.369 52.6001L373.233 51.956C375.703 51.3839 377.623 50.621 379.393 49.0889V54.6043C379.393 60.9765 376.029 63.6279 371.157 63.6279V63.6279Z" fill="white"></path> <path d="M49.3076 13.2323C46.1434 13.2323 43.886 14.6111 41.8036 17.6065L35.8004 26.2267V1.61981H21.4803V26.2267L15.4771 17.6065C13.3978 14.6111 11.1404 13.2323 7.97307 13.2323C3.19552 13.2323 0.0156997 16.7591 6.63992e-05 21.1052C-0.0124403 24.8259 1.74162 27.2522 5.44047 29.6347L28.6403 44.5802L51.8402 29.6347C55.5391 27.2522 57.2931 24.8259 57.2806 21.1052C57.2681 16.7591 54.0852 13.2323 49.3076 13.2323V13.2323Z" fill="white"></path> <path d="M28.6404 48.1603C42.429 48.1603 53.7319 58.4533 53.7006 73.2236H3.58013C3.55199 58.4595 14.8518 48.1603 28.6404 48.1603Z" fill="white"></path> </g> <defs> <clipPath id="clip0_3_62"> <rect width="468" height="75" fill="white"></rect> </clipPath> </defs> </svg>