<svg xmlns="http://www.w3.org/2000/svg" viewBox="0 0 1012 311.86" aria-hidden="true">
  <path fill="currentColor" d="M612.63,213.69a6.79,6.79,0,0,1-3.6-3.08,11.61,11.61,0,0,1-1-5.18V162.36q0-13.46-7.16-21.58t-21.49-8.13a40.89,40.89,0,0,0-11.25,1.5,31.27,31.27,0,0,0-8.53,3.6,57.63,57.63,0,0,0-6.5,5q-3.52,3.08-6,5.27h-.35V135.29L545.48,134l-41.92,2.29v6.41a28.62,28.62,0,0,1,5.32,1,14.24,14.24,0,0,1,4,1.76,12.57,12.57,0,0,1,3.7,4.3,11.38,11.38,0,0,1,1.4,5.36v51.16a11.46,11.46,0,0,1-1.05,5.27,6.52,6.52,0,0,1-3.87,3,21.15,21.15,0,0,1-3.82.83c-1.5.21-3,.37-4.44.49v6.41h53.44V215.8a28.13,28.13,0,0,1-4.14-.88,16.82,16.82,0,0,1-3.51-1.41,6.08,6.08,0,0,1-2.9-3.12,13.06,13.06,0,0,1-.88-5.14v-47.2c.7-.93,1.57-2,2.6-3.25a20.11,20.11,0,0,1,4.1-3.6,24.29,24.29,0,0,1,6-3.08,19.92,19.92,0,0,1,6.56-1.05q6.43,0,9.74,4.52t3.31,13.49v41.14a14.39,14.39,0,0,1-.8,5.45,5.57,5.57,0,0,1-2.63,2.81,11.2,11.2,0,0,1-3.61.88l-4,.44v6.41H620.8V215.8a25.9,25.9,0,0,1-4.7-.88A30.54,30.54,0,0,1,612.63,213.69Zm301.55,0a6.79,6.79,0,0,1-3.6-3.08,11.61,11.61,0,0,1-1-5.18V162.36q0-13.46-7.16-21.58T881,132.65a40.94,40.94,0,0,0-11.25,1.5,31.27,31.27,0,0,0-8.53,3.6,57.63,57.63,0,0,0-6.5,5c-2.34,2.05-4.34,3.81-6,5.27h-.35V135.29L847,134l-41.92,2.29v6.41a28.47,28.47,0,0,1,5.32,1,14.44,14.44,0,0,1,4,1.76,12.65,12.65,0,0,1,3.69,4.3,11.38,11.38,0,0,1,1.4,5.36v51.16a11.46,11.46,0,0,1-1,5.27,6.46,6.46,0,0,1-3.87,3,21.15,21.15,0,0,1-3.82.83c-1.49.21-3,.37-4.44.49v6.41h53.44V215.8a27.74,27.74,0,0,1-4.13-.88,16.7,16.7,0,0,1-3.52-1.41,6.12,6.12,0,0,1-2.9-3.12,13.25,13.25,0,0,1-.88-5.14v-47.2c.71-.93,1.57-2,2.6-3.25a20.38,20.38,0,0,1,4.1-3.6,24.29,24.29,0,0,1,6-3.08,20,20,0,0,1,6.56-1.05q6.44,0,9.74,4.52t3.31,13.49v41.14a14.62,14.62,0,0,1-.79,5.45,5.63,5.63,0,0,1-2.64,2.81,11.2,11.2,0,0,1-3.6.88l-4.05.44v6.41h52.83V215.8a25.85,25.85,0,0,1-4.71-.88A31.26,31.26,0,0,1,914.18,213.69ZM726.91,208.5q-8-11.85-15.27-22.48t-15.88-23.11q4.38-3.87,7.76-6.48t7-5a80.46,80.46,0,0,1,10-5.76,92.63,92.63,0,0,1,13.38-4.61V135H689.27v6.24a41.22,41.22,0,0,1,8.35,1.84c1.85.7,2.78,1.58,2.78,2.64a16.16,16.16,0,0,1-.31,1.89c-.21,1-1.27,2.53-3.21,4.52q-4.92,5-13,12.66t-14.62,13.44V87.56l-1.32-1.4-43.77,2.28v6.42a43.53,43.53,0,0,1,6.07.88,15.73,15.73,0,0,1,5,1.76,9.75,9.75,0,0,1,3.73,4.7,15.9,15.9,0,0,1,1.28,6v98a11.75,11.75,0,0,1-1,5.27,6.32,6.32,0,0,1-3.85,3,24,24,0,0,1-3.89.83c-1.48.21-3,.37-4.43.49v6.41h54.58V215.8a25.72,25.72,0,0,1-4.21-.71,22.56,22.56,0,0,1-3.7-1.23,5.89,5.89,0,0,1-3.56-3,12.58,12.58,0,0,1-.92-5.18V186.53l5.18-4.38q5.63,8,11.94,17.31t14,22.75h41.43V215.8a33.37,33.37,0,0,1-8.07-1.76A13.26,13.26,0,0,1,726.91,208.5Zm63.08,5a8,8,0,0,1-3.78-3.21,9.79,9.79,0,0,1-1.31-5.23V135.29L783.58,134l-43.07,2.29v6.41a32,32,0,0,1,5.85,1.23,19.22,19.22,0,0,1,4.79,2,11.78,11.78,0,0,1,3.51,3.74,10.21,10.21,0,0,1,1.41,5.4v51.16a10.34,10.34,0,0,1-1.15,5.23,7.3,7.3,0,0,1-3.95,3,15.83,15.83,0,0,1-3.78.88c-1.46.17-3,.32-4.48.44v6.41h55.54V215.8a27.08,27.08,0,0,1-4.39-.88A29.54,29.54,0,0,1,790,213.51ZM325.49,104.35q2.47.36,6.23,1.15a33.73,33.73,0,0,1,6.4,1.93q3.7,1.59,4.68,3.69a12.61,12.61,0,0,1,1,5.28v70.46q0,15.3-6,22.87t-16.61,7.56a12.6,12.6,0,0,1-5.37-1.23,6.51,6.51,0,0,1-3.44-3v-1.14a60.59,60.59,0,0,0,8.92-8.83,16.2,16.2,0,0,0,3.91-10.42,15,15,0,0,0-4.53-11.07q-4.53-4.49-12.17-4.49-8.08,0-12.7,5.37T291.13,196q0,13.8,10.06,21.71t26.5,7.91A57.94,57.94,0,0,0,345.53,223a48.56,48.56,0,0,0,15.12-8,38,38,0,0,0,10.5-13.28A39.5,39.5,0,0,0,375,184.3V115.52a14.83,14.83,0,0,1,1-5.63q1-2.46,4.62-3.43c2-.53,3.9-.93,5.54-1.23s3.63-.58,6-.88V97.5H325.49Zm442.62,14.06a17.4,17.4,0,0,0,12.17-4.7,14.85,14.85,0,0,0,5.14-11.38,15.1,15.1,0,0,0-5.09-11.43,18.17,18.17,0,0,0-24.48,0,15,15,0,0,0-5.14,11.43,14.85,14.85,0,0,0,5.14,11.38A17.52,17.52,0,0,0,768.11,118.41ZM478.42,207.84a25.61,25.61,0,0,1-14.85,4.53q-15.12,0-22.06-9.41t-6.95-27.42H494v-5.71a44.41,44.41,0,0,0-2.29-14.28,29.91,29.91,0,0,0-7.29-11.82,35.83,35.83,0,0,0-13.1-8.27q-7.91-3-20.21-3a51.66,51.66,0,0,0-20.35,3.86,44.84,44.84,0,0,0-15.07,10.11A46.22,46.22,0,0,0,403,178.27a54.32,54.32,0,0,0,3,18.41,39.71,39.71,0,0,0,9.19,14.72,44,44,0,0,0,15.6,9.93q9.45,3.69,22.45,3.7a50.84,50.84,0,0,0,13.85-1.72A54.08,54.08,0,0,0,479,218.26a45.35,45.35,0,0,0,9.88-7.6,53.5,53.5,0,0,0,7.43-9.45l-6.68-4.84A42.24,42.24,0,0,1,478.42,207.84ZM439,146.45q4-6.85,10.81-6.85a10,10,0,0,1,6.55,2.11A13.85,13.85,0,0,1,460.4,148a35.82,35.82,0,0,1,1.85,9.05q.53,5.53.53,10.81l-28.22.35Q434.92,153.31,439,146.45Zm565.76,30.72q-7.28-7-23-11a75.29,75.29,0,0,1-15.83-5.63q-5.67-3-5.66-9.66A9.16,9.16,0,0,1,964.1,143q3.87-2.81,10.64-2.81,8.61,0,16.08,6.64a36.3,36.3,0,0,1,10.55,15.77h6.15l-1.4-30h-6.68l-1.85,5.19a73.73,73.73,0,0,0-11.29-3.56,62.32,62.32,0,0,0-14.72-1.63q-16.87,0-27.29,7.65t-10.42,20a24.79,24.79,0,0,0,8.7,19.77,35.08,35.08,0,0,0,8.83,5.67,97.64,97.64,0,0,0,10.24,3.56q6,1.75,10.07,3a44.7,44.7,0,0,1,7.51,3,15.12,15.12,0,0,1,4.84,4,9.26,9.26,0,0,1,1.75,5.8q0,6.51-3.91,9.63T970,217.82a24.58,24.58,0,0,1-11.38-2.73,39.78,39.78,0,0,1-9.45-6.68,49.21,49.21,0,0,1-7-8.92,43.53,43.53,0,0,1-4.39-8.92h-6.42l1.14,32.79h6.86l2.64-6a54.56,54.56,0,0,0,12.61,5.32,56.23,56.23,0,0,0,16.65,2.5q18.19,0,29.49-7.91T1012,195Q1012,184.15,1004.72,177.17ZM98.79,56.12c3.45-7.68,9.09-15.07,20.45-12.43,2.18-3.58-1.72-6.22-4.6-6.65-6.7-1-14.89,6.43-16.92,12C96.94,51.19,95.72,55.37,98.79,56.12Zm84.34,16.21c-3.23-4.71-5.46-10.35-8-15.69l-.54,0c-.36,6.14,1.92,9.83,3.5,14.16-2.74,1.73-8.06.65-11.14,2C166.71,81.85,181,77.38,183.13,72.33Zm-66.45,1.79c-4.27,6.75,8.34,8,13.75,6.42,1.48-.44,4-2.66,4.4-3.66,1.5-4.22-1.53-6.07-3.09-7.59-3.46-3.37-4.26-8.06-6.69-12.53-1.69,4.79,2.89,12.91,5.46,17C127.17,77,121.15,74.33,116.68,74.12ZM142,111.73c13.34,1.32,22.43-4.37,30.58-9.6-.33-2,2.47-5.75,1.69-8.84-.27-1.06-2.69-2.6-4.15-4.2-6-6.52-14.17-16.26-17.42-23.87-.36-.84-.58-5.46-3.1-3.63-.3,11.24,8.06,20.55,14.29,28.06,3,3.67,6.71,5.77,3.33,11.46-5.45,2.07-14.26,8-21.84,6.71-4-.69-3.11-5.25-4.55-7.73A9,9,0,0,0,142,111.73Zm-87.78-25C52,91,52.53,99.23,55.48,101.91c0-5-.8-13.61,3.49-13.35,3,.18,3.6,6.6,6.16,8.06C67.94,83.06,51,76.2,49.24,89,50.61,88.09,51.71,85.54,54.18,86.76Zm103.26,36.09c11.13-.23,16.49-8.18,20.28-15.4-6.51,3-11.76,7.3-20.27,8.12C157,117,157.21,120.52,157.44,122.85Zm-33-10.72Zm30.31,11.16a33.58,33.58,0,0,0-.52-7.3c-9.65.28-22.69-.12-29.79-3.86C127.66,120.84,142.32,123.91,154.72,123.29Zm-31.66-4.2c-6.27,0-1,3.5.08,4.86,2.2,2.83,4.78,7.65,8.79,9.78,6.33,3.37,18.9,2,23.46.1a7.55,7.55,0,0,0,3.67-4.17C144.84,130,128,131.42,123.06,119.09Zm62.61,110.6c6.29.4,10.82-5.87,17.27-7.16C195.18,222.76,189.13,224.81,185.67,229.69Zm3.35,3.9c5.34.44,11.51-.41,16.77-1C201.27,231.06,191.55,229.73,189,233.59Zm-.28,7.27c5.62.47,13,.59,18.87.46C203.78,239.54,192.06,237.29,188.74,240.86Zm3.8-171.65c-1-1-1.95-2-3-2.91-.68-12.09-3-23.48-7.39-32.31-3.83-7.73-14.52-18.42-21.21-23.48C145.2-1.42,116-2.74,97,4.26c-5.3,2-10.43,3.69-15.09,6.43C69.49,18,56.27,22.89,52.58,37.6c-7.91,3.54-11,12.8-11.39,24q-4.27,3.6-8.19,7.58a117.09,117.09,0,0,0,0,163q3.22,3.3,6.71,6.31c.17,2.46.32,4.93.48,7.42.33,5.08-.21,10.45,1.11,13.26s6.39,3.83,10,5.51C61.85,269.54,73,277,86.79,275.49c3.29,11.05,6.39,22.82,10.34,32.49,14.14,5.09,36.46,4.29,51.15,2.53,4.47-.54,9.19-2.75,10.24-6.62a38.59,38.59,0,0,1-.52-7.58c4.6-.95,10.85-1.73,11.87-6.82,1.41-7.13-4.51-17.36-2.53-25.18,2.66-.87,5.5-1.54,5.07-5.74,4.49-2.33,9.8-2.86,15.48-2.64a11.9,11.9,0,0,0,2.71,3.55c8,1.6,15.65,1.73,22.25-.42,7.48-2.44,11-17.72,9.33-25a114.55,114.55,0,0,0-6.29-18.58,11.83,11.83,0,0,0-6-6.12,117.24,117.24,0,0,0-17.3-140.15Zm-101-56.53c.69-.2,1.29.27,1.86.88-.08,2-2,1.93-3.34,2.57-2,2.51-5,3.69-7.53,6.45S77.15,33,73.76,33.84c-1.7.42-3.63-.3-5.11-.2C64.74,33.89,62,35.89,58,36.46,63.14,25.27,79.11,16.21,91.57,12.68ZM52.18,47.84a30.21,30.21,0,0,1,20.61-9.73c4.39,11.18-3.15,24.46-.34,36.68.86,3.74,3.83,9.54-.92,9.67.13-10.65-13.08-17.4-23-11.14C47.83,65.24,46.68,53.89,52.18,47.84ZM43.52,90.39C43.91,83,50.11,76,58.61,77c6,.65,8,7.2,9.2,13,3.46.19,8.46-.15,10.09-2.85-.23-6.58-3.29-11.87-3.08-17.92.39-11.37,6.59-21.63,1.81-32.83,5.12-11.61,20.13-20.77,31.23-26.31C121.62,3.21,143.52,8.7,156.45,16h0c7.43,4.19,12.92,12.3,18.15,19-7.33-2.18-13.57,1.56-12.44,7.61,6.14-5.63,16.63-.06,19.73,6.15,3,5.95,2.94,14.76,3.4,23.6,1.1,21.44-3.92,43.55-14.7,59.05-2.87,4.13-5.29,8.65-9.34,11.5-9.76,6.86-24.6,13.07-37.3,8.81C107.16,146.13,99.54,135,90.3,122.14c.25,7,5.2,12.81,10.09,18.19,4.25,4.69,9.38,10,14.9,12.18-4.6-1.08-11.67-1.42-13.59,2.71C91,154.51,81,153.41,75.89,146.13c-4-5.74-8.08-15.5-9.9-23a26.84,26.84,0,0,1-.86-5.7c.6-3.27,6.43-4.71,4.14-9.28-4.23,0-5.19,3.85-9.07,4.23C50.15,113.34,43.06,99,43.52,90.39ZM143,162.22c-6.32.31-9.77-.44-14.41-4.07.08-.29.54-.16.56-.52,6.76,3,15.36-1.23,22.19-1.84C148.34,157.73,145.81,160.15,143,162.22Zm-4.53,12.5c-.62-3.52-1.33-4.53-1.06-7.59C146.76,160.87,148.53,177.87,138.44,174.72Zm-4-7.71-.06,1.61c-2.21,1.45-5.77,1.44-8.2,2.66A21.3,21.3,0,0,1,135,173.5c-.06,1.35-.11,2.7-.16,4.05-4,2.77-7.74,6.89-12.51,9.49-2.25,1.23-10.15,4.39-12.55,3.83-1.36-.32-1.48-2-2-3.58-1.16-3.4-3.81-8.81-4-13.92-.29-6.46-.94-17.28,6-16a62.39,62.39,0,0,1,16.49,6C128.85,164.91,130.39,166.7,134.42,167Zm-2.87,18.23c6.83,8.66,11,19.79,15.55,30.54-10.8-3.25-21.83-8.53-31.29-13.89C117.66,193.84,124.94,189.67,131.55,185.24Zm3.63-3.1c.79-.83,1.49-1.76,2.26-2.61,3.37,1.41,5.57-1.85,8.15-1.57,3,.32,5.32,4.42,9.55,4.15-.67,11-.32,22.12-3.4,32.23C146,203.81,142.62,191.1,135.18,182.14Zm23.18.36c6-2.8,11.13.63,13.59,4.57-5.77,9.87-11.28,20-18.11,28.7C156.71,207.35,157.93,193.25,158.36,182.5Zm9.87-3.93a79.14,79.14,0,0,1-19-2.63c.38-2.29-.33-4.54.24-6.19,1.56-1.12,4.17-1.11,6.53-1.37a11.38,11.38,0,0,0-7.26-.82c-.05-1.59-.76-2.58-1.2-3.82,4-1.42,13.36-10.72,18.64-7.64,2.52,1.46,3.58,9.83,3.78,13.9C170.07,173.38,169.6,176.78,168.23,178.57ZM99.17,164.84c-4.37-.27-18.1-5.27-14.49-8.93,3.53,2.45,10.35,1.85,15.54,2.76C100.49,160.33,99.14,162.52,99.17,164.84ZM37.86,227.42A110.31,110.31,0,0,1,37.86,74c1.26-1.29,2.56-2.53,3.88-3.75a13.12,13.12,0,0,1,.48,5c-.25,1.26-2,2.87-2.3,3.69-4.36,10.4-.87,24.06,4.17,31.45a22.1,22.1,0,0,0,14.74,9.47,31.36,31.36,0,0,0,3.07,11.45c1.16,2.55,5.51,7.15,3.91,10.4-.81,1.64-7.89,5.21-10.24,6.62-7.93,4.76-13.68,7.67-21,12.94-4.73,3.41-12.14,3.85-11,11.72.78,5.3,3.8,11.88,5.53,17.2,1.87,5.75,4.55,11,6.09,17a142.92,142.92,0,0,1,3.65,21.29C38.53,228.09,38.19,227.76,37.86,227.42Zm8.77,26.28c-.78-28-5.24-57-16.29-80.74,11.59-9,24.55-18.4,38.42-23.87,1-.41,8.71,9.56,9.85,10.36h0c6.21,4.42,13.92,7.9,21.14,11.34A82.79,82.79,0,0,0,103,184.13c2,6.34,3.61,15.29,12,10.72-.8,3.62-5.45,5.87-4.17,10.09.81,2.65,9.6,5.92,12.39,7.49,5.14,2.9,9.83,4.5,13.79,6.2a473.38,473.38,0,0,0-51.42,4.21c-2-3.08-1.18-7.83-1.39-12.73-.23-5.32,2-17.33-.11-18.08-2.37-.84-2.81,4-2.89,5-.45,5.63,2.67,17.54-.4,24.27-3.37-1-5-3.49-8.19-4.64-1.23,3.9,2.57,4.09,2.18,6.56-.52,3.27-6.72.54-6.68,5.4,4,.65,10.22-1.25,14.54.57C83.78,242.44,85.59,255,87.58,269,70.41,268.15,59.29,259.62,46.63,253.7Zm53.73,47.4c-7.66-23.5-11.84-45.8-14.73-72.33,17.89-3.34,43.64-6.25,61.86-2.45,1.67,10.85,1,21.55,2.27,32.18,1.61,14.15.41,30.29,3.17,43.55C137.89,306.71,117.38,306.26,100.36,301.1Zm63.89-12.9c-3.27,1.1-5.14,2.06-9.52,2.05-.31-6.9-1.23-17.46-.95-24,2.15.14,5.32-1.54,7.05-1.08C161.68,272.55,164.62,280.07,164.25,288.2Zm-11.07-27.68c-.87-11.41-1.53-22.64-1.38-34,3.1-1,5.84-1,8.95-1,2.68,9.72,2.52,22.07,3.84,33.06C160.53,259.43,157.56,259.86,153.18,260.52Zm2.41-41.17c6.58-11.42,13.74-22.2,20.19-33.75-1-2.29-3.39-3.27-4.09-5.82,4.53-8.55,2.44-35.09-9.11-29.48,1.62-2.38,5.86-4.34,7.83-7.25,4.88,3.92,7.82,7.61,12.49,11.81,2.54,2.27,7.52,5,8,8.67.28,2.06-1,7.08-1.44,9.39-2.05,10.12-6.65,23.49-11,34.1-1.6,3.85-3.12,8.67-5.23,9.5C167.47,218.8,160.48,216.3,155.59,219.35Zm23.28,32.73c-2.57.5-4.24,2-7.36,1.87-.8-9.75-3.06-20-4-29.28,2,0,4.4-.5,6.48,0C178.12,231.73,179,243.52,178.87,252.08Zm31.79-33.84c2.32,3.52,4.5,13.88,5.72,19.38,1.82,8.18-2.27,16.15-8.78,17.73-4.73,1.15-12,1.45-15.1,0,3.8-2.07,9.5-2.08,13.89-3.51-6.29-2.71-15.6-.15-23.17-.62-.92-9.35-1.6-19.48-3.82-26.85,4.42-4.7,15.09-5.82,21.15-9.7C204.27,212.23,208.94,215.64,210.66,218.24Zm-8-10c-7.56.35-16.26,4.37-22.07,7.26,4.91-12.9,9.13-26.28,13.45-40.75,1.3-4.34,3.85-10.48,3.28-15-.54-4.22-7.13-8.66-10.6-12-1.92-1.85-10.9-8.68-11.43-11.23s3.67-8.07,5-10.86a80.31,80.31,0,0,0,4.25-12.25,147.36,147.36,0,0,0,5.27-37.21,110.44,110.44,0,0,1,12.84,132Z"/>
</svg>
