<svg xmlns="http://www.w3.org/2000/svg" xmlns:xlink="http://www.w3.org/1999/xlink" viewBox="0 0 64 64">
  <defs>
    <linearGradient id="jira-a" x1="30.32" x2="17.25" y1="52.84" y2="39.76" gradientTransform="matrix(1 0 0 -1 0 66)" gradientUnits="userSpaceOnUse">
      <stop offset=".18" stop-color="#0052cc"/>
      <stop offset="1" stop-color="#2684ff"/>
    </linearGradient>
    <linearGradient id="jira-b" x1="33.79" x2="46.84" y1="15.28" y2="28.32" xlink:href="#a"/>
  </defs>
  <path fill="#2684ff" d="M61.89 30.23L34.64 3 32 .34 11.49 20.85l-9.38 9.38a2.51 2.51 0 0 0 0 3.54l18.74 18.74L32 63.66l20.51-20.51.32-.32 9.06-9.06a2.51 2.51 0 0 0 0-3.54zM32 41.36L22.64 32 32 22.64 41.36 32z"/>
  <path fill="url(#jira-a)" d="M32 22.64A15.76 15.76 0 0 1 31.93.41L11.45 20.89 22.6 32z"/>
  <path fill="url(#jira-b)" d="M41.39 32L32 41.36a15.76 15.76 0 0 1 0 22.3l20.54-20.53z"/>
</svg>
