<svg data-name="Layer1" viewBox="0 0 94 98" xmlns="http://www.w3.org/2000/svg">
<path d="M93.6913 67.1377H0V77.5109H93.6913V67.1377Z" fill="currentColor"/>
<path d="M47 47.2785L0 0V14.6725L47 61.951L94 14.6725V0L47 47.2785Z" fill="currentColor"/>
<path d="M2.31119 88.106H0V97.8447H2.31119V88.106Z" fill="currentColor"/>
<path d="M8.45955 88.106H5.64996L2.49634 92.1745L6.60266 97.8447H9.33727L4.97954 92.2056L8.45955 88.106Z" fill="currentColor"/>
<path d="M14.8066 91.5312L15.0271 89.8807H17.7132L18.1322 88.106H13.1658L12.5571 93.0086L12.7909 93.2127C14.6037 92.8178 16.3194 93.1151 16.3194 94.6857C16.3194 95.4888 15.7901 96.1943 14.6478 96.1943C13.858 96.1433 13.1018 95.8542 12.4777 95.3646L11.5559 96.9796C12.4935 97.6193 13.5945 97.9736 14.7272 98C17.2854 98 18.6747 96.7001 18.6747 94.6414C18.6747 92.5028 17.2413 91.3892 14.8198 91.5356" fill="currentColor"/>
<path d="M34.5797 95.8479C34.1014 96.0384 33.5941 96.145 33.08 96.1629C31.4746 96.1629 30.1161 95.0316 30.1161 92.9463C30.1161 90.861 31.5539 89.774 33.2035 89.774C34.2681 89.7993 35.3012 90.1421 36.1719 90.7589L36.3263 88.891C35.3284 88.3001 34.1895 87.9933 33.0315 88.0037C30.0984 88.0037 27.8181 89.7118 27.8181 92.964C27.8181 96.2162 30.0234 97.9599 33.0006 97.9599C34.3836 97.915 35.7302 97.5033 36.9041 96.7664V92.4627H34.5929L34.5797 95.8479Z" fill="currentColor"/>
<path d="M43.4892 88.106H41.178V97.8447H46.7222L47.1412 96.039H43.4892V88.106Z" fill="currentColor"/>
<path d="M54.9347 96.1323C53.4218 96.1323 52.1736 95.0009 52.1736 92.96C52.1736 90.9191 53.4218 89.7877 54.9347 89.7877C56.4475 89.7877 57.7002 90.9679 57.7002 92.9778C57.7002 94.9876 56.4652 96.1323 54.9347 96.1323ZM54.9347 87.9819C52.0942 87.9819 49.8315 89.8055 49.8315 92.96C49.8315 96.1146 52.0942 97.9558 54.9347 97.9558C57.7752 97.9558 60.0599 96.1323 60.0599 92.9778C60.0599 89.8232 57.7796 87.9819 54.9347 87.9819Z" fill="currentColor"/>
<path d="M66.795 96.0832H66.3539V93.3501H66.795C68.3696 93.3501 68.793 93.9801 68.793 94.7477C68.793 95.5153 68.3519 96.0787 66.795 96.0787V96.0832ZM66.3539 89.7829C67.6992 89.7829 68.1799 90.0358 68.1799 90.7723C68.1799 91.4157 67.7918 91.7307 66.3539 91.7307V89.7829ZM69.1503 92.3607C69.4935 92.2298 69.7876 91.9945 69.9915 91.6875C70.1955 91.3805 70.2992 91.0172 70.2882 90.6481C70.2882 88.7935 68.696 88.1191 66.3539 88.1191H64.0427V97.8402H66.7156C69.4149 97.8402 71.0866 97.0371 71.0866 94.8409C71.1328 94.2583 70.9592 93.6797 70.6004 93.2201C70.2415 92.7605 69.7238 92.4537 69.1503 92.3607Z" fill="currentColor"/>
<path d="M77.9099 94.6235L79.1758 91.7973L80.4373 94.6235H77.9099ZM78.9861 87.8574L74.0286 97.8447H76.5426L77.2439 96.274H81.0856L81.8178 97.8447H84.301L79.3522 87.8574H78.9861Z" fill="currentColor"/>
<path d="M90.0392 88.106H87.7324V97.8447H93.2722L93.6956 96.039H90.0392V88.106Z" fill="currentColor"/>
</svg>
