<svg xmlns="http://www.w3.org/2000/svg" viewBox="0 0 408.3 100" aria-hidden="true" fill="currentColor"><path d="M400 49.1a11.66 11.66 0 0 0-9.2-4.4h-.1c-5.1 0-9.8 3.9-14.4 11.8l-.4.6-.2-.7-2.8-7.9a18.14 18.14 0 0 0-.7-1.9 1.84 1.84 0 0 0-1.9-1.4 3.23 3.23 0 0 0-1.8.6 2 2 0 0 0-1 1.4v.1c-4.6 14.4-8.4 21.4-11.7 21.4a1.43 1.43 0 0 1-1.1-.5c-.8-.9-.6-3.2-.4-6.2a58.58 58.58 0 0 0 .4-7.5c-.2-5.2-3.1-8.4-7.7-8.4-5.8 0-9.6 6.2-11.4 9.9l-.5 1.1-.1-1.2c-.4-4.6-2-10.1-6.8-10.1-5.7 0-10 6.7-12.6 12.3l-.7 1.5.1-1.7c.3-7.5.6-11.9.8-13.1a3.14 3.14 0 0 0-.3-2.5 2.54 2.54 0 0 0-2.1-.5c-1.8.1-2.7 1.2-4.1 4.9-2.3 6.1-8.1 20.3-12.8 20.3a2.8 2.8 0 0 1-2.2-.9c-2-2.2-1.2-8.3-.1-16.7l.1-.6c.5-4-.4-4.8-2.5-5.2-.2 0-.5-.1-.7-.1-1.7 0-2.5 1.7-4.1 6.2-2.9 8.2-6.5 16.7-10.9 16.7h-.5c-2.3-.4-2.2-3.8-2.2-8.1a44.6 44.6 0 0 0-.3-7.3c-.6-4.3-3.2-6.9-6.6-6.9-6.8 0-11.4 8.7-13.5 13.9l-.5 1.2-.2-1.3a91.52 91.52 0 0 1-.8-10v-.1l.1-.1c12.7-16 18.4-27.5 18.5-37.4 0-6.3-2.9-10.1-7.8-10.1-3.6 0-12.2 3-15.1 30.8a136.43 136.43 0 0 0-.9 15.7v.1l-.1.1c-5.8 8.4-18.2 22.9-30.3 22.9-11 0-19.7-8.9-19.7-24.5 0-21 14.9-33.9 26-33.9h.1a9 9 0 0 1 6 2 6.65 6.65 0 0 1 2.4 5.3 9.46 9.46 0 0 1-1.9 5.8c-.2.4-.5.7-.7 1.1a1.58 1.58 0 0 0-.1 1.5 2.22 2.22 0 0 0 2 .8c2.7 0 6.7-3.9 6.7-9.7 0-6.1-5.1-12.3-14.2-12.3-13.8 0-32.4 15.2-32.4 39.8 0 17.4 10.9 29.4 25.7 29.4 10.5 0 20.9-7.5 30.1-20.1l.6-.8v.9c.2 4.6.5 8.2.8 10.9a35.8 35.8 0 0 1 .3 3.6 4.88 4.88 0 0 0 .7 3.1 3.14 3.14 0 0 0 2.6.9c2.1 0 2.5-1.4 3.3-4.9l.2-1c1-4.2 4.8-17.9 10.4-17.9a2.86 2.86 0 0 1 2.1.8c1.2 1.3 1.1 4 1 7.2a40.06 40.06 0 0 0 0 6c.5 5.3 2.8 7.9 7 8s8.8-4.6 11.2-9l.4-.8.2.9c.4 2.3 2.4 9.9 8.5 9.9 5.6 0 10.3-5.9 15.6-17.9l.7-1.6V55c-.1 4.6-.4 10.1-.4 14.5 0 3.3.3 4.6 1.9 4.6h.3c1.5 0 2.5-.9 3-2.6 3.9-13.7 7.3-20.1 10.7-20.1s3.6 6.1 3.9 16.7v.7c.1 3.7.2 5.4 2.5 5.4 1.8 0 2.2-1.4 3.1-4.8.2-.6.4-1.4.6-2.1 3.2-11 5.8-15.5 9.1-15.5 2.8 0 3 2.9 3 3.9a42.9 42.9 0 0 1-.3 6.2 37 37 0 0 0-.3 5.7c.2 4.3 2.5 6.7 6.6 6.7 5.3 0 10.2-6.2 14.4-18.6l.3-.9.3.8a72.54 72.54 0 0 1 2.7 7.7v.1l-.1.1c-4.1 9.1-7 19.2-7 24.6-.1 7.1 3.2 11.7 8.2 11.8h.1c2.7 0 9.1-1.1 9.3-11.3 0-4.2-.9-10.1-2.9-17.5l-.2-.9.7.5a14.8 14.8 0 0 0 8.3 2.6h.1c8.3 0 14.1-5.7 14.1-13.9-.2-4-1.3-7.7-3.5-10.3zM251.3 38.9c.1-2.6.3-5 .6-7.4 2-15.1 6.1-25.7 10-25.7 1.9 0 2.8 1.4 2.8 4.2-.1 6.8-4.4 16.6-12.9 29.1l-.7 1zm125.5 54.4a3.17 3.17 0 0 1-2.6 1.3 3.06 3.06 0 0 1-2.8-1.3c-1.8-2.4-1.3-8 1.6-18.3.3-1.2.7-2.5 1.1-3.7l.3-1 .3 1c3.5 11.9 4.2 19.3 2.1 22zm17.5-26.9a9.3 9.3 0 0 1-5.7 2.1c-5.1 0-8.6-3-10.7-5.5l-.1-.1-.1-.4.1-.1c3.9-8 8.4-12.6 12.2-12.6 4.4 0 7.4 4 7.4 9.6a8.58 8.58 0 0 1-3.1 7zM185 64.5l-.3.3c-1.4 1.3-3.9 3.8-6.7 3.9-3.4.2-5.9-1.9-7.5-6.1l-.1-.2.1-.1c9.3-12.2 15.9-30.8 15.2-43.3-.3-5.8-2-12.7-8.3-12.7h-.5a9.3 9.3 0 0 0-6.5 3.4c-5.9 6.6-8.9 22.7-7.8 41.1a39.1 39.1 0 0 0 2 10.6l.1.2-.1.1c-3.5 4-6.9 6.3-9.6 6.3-6.6 0-6.4-11.1-5.9-20.2.1-2 .3-3.2-.3-4a2.56 2.56 0 0 0-2.1-.8h-.1c-2.3 0-2.8.5-4 4-2.5 7.2-7.4 19.4-12.4 19.4a3.68 3.68 0 0 1-3.1-1.4c-2.4-3.1-.6-10.7.9-16.9.3-1.1.5-2.2.7-3.2a4 4 0 0 0-.3-3.2 3.5 3.5 0 0 0-2.9-.8c-2.1.2-3.5 1.1-4.1 5.1l-.1.8-.5-.6a6.8 6.8 0 0 0-6.1-3h-.9c-3.6.3-7.7 2.8-10.7 6.5a21.72 21.72 0 0 0-4.7 15.5c0 .3.1.6.1.9v.2l-.1.1C96.2 68.9 94.1 70 92 70c-3.3 0-5.1-2.4-5.1-6.5 0-6.8 4.6-27.2 4.6-34.6 0-7.9-3.5-12.2-9.6-12.2h-.1c-8.9 0-15.8 10.1-22.4 30.8-.6 1.9-1.3 4.1-1.8 6l-.9 3.1.3-3.2c.6-7.2 1-14.3 1.3-20.9.3-10-1-16.5-4.1-19.7a8.75 8.75 0 0 0-6.8-2.6h-.1c-10.9 0-16.1 18.3-19.9 31.3-.9 3-2.4 8.8-3.7 14 .8-8.8 2.3-24.6 2.2-33.6-.1-11.1-3.8-16-11.9-16.1h-.1a12.56 12.56 0 0 0-9.1 4A14.92 14.92 0 0 0 0 20.6c.1 2.2 1.4 4.2 2.5 4.2.7 0 1-.9 1.2-1.4C6.2 15 9.4 11 13.6 11a5.06 5.06 0 0 1 4 1.6c3.3 3.5 2.7 12.9 1.6 30.1-.3 5.5-.7 11.8-1.1 18.9-.1 1.2-.1 2.4-.2 3.5-.3 4.9-.6 8.9 1.3 9.1q3.6.6 4.8-3c1.2-3.6 3.9-13.4 9.1-31.3 5-17.2 8.8-23.4 13.7-23.4 5.6 0 6 9.6 5 29.9-.2 4.3-.5 9.2-.7 14.5 0 .7-.1 1.5-.1 2.2-.2 4.4-.4 7.9.9 9.2a2.1 2.1 0 0 0 1.6.6c2.4 0 3.2-2.1 4.4-5.7.2-.6.4-1.3.7-2 8.3-23 14.5-42.9 22.8-42.9 2.5 0 4.4 2 4.4 5.9 0 9.1-4.4 26.6-4.4 35.5a12.2 12.2 0 0 0 2.6 8 9.2 9.2 0 0 0 7.2 3.2h.1c2.8 0 5.6-1.3 8.6-4l.3-.2.2.3a9.23 9.23 0 0 0 8.4 3.7c5.1-.4 9.4-5 11.1-9.3l.3-.8.3.8c1.2 3.2 3.8 7.1 9.3 6.6 6-.5 10.8-8.7 12.5-12.1l.5-.9.2 1c.8 4.9 3.5 13.2 11.9 13.2h.1c3.6 0 7.7-2.2 11.9-6.4l.3-.3.2.4c2.8 4.7 6.5 7.1 10.5 6.9 5.9-.3 9.4-4.5 9.7-7.3a2.5 2.5 0 0 0-.5-1.9 1.67 1.67 0 0 0-2.1-.1zM108.5 69h-.5c-2.6 0-4-1.7-4.3-5a17.46 17.46 0 0 1 4.6-12.4c2-2.2 4.2-3.3 6.3-3.3 2.6 0 4.5 2.1 5.3 4.1v.1h.1c-1.8 7.2-5.2 16-11.5 16.5zm60.9-13.9l-.5.8-.1-.9c-.4-2.8-.5-5.7-.7-8.1-.9-17.3 4.3-34.6 8.9-34.8h.1a1.76 1.76 0 0 1 1.5.9c2 2.8 2.1 12.8-1.4 24.3a82.54 82.54 0 0 1-7.8 17.8zm-20.7-21a4.2 4.2 0 0 0 4.2-4 4.12 4.12 0 0 0-4.1-4.1 4.2 4.2 0 0 0-4.2 4 4.12 4.12 0 0 0 4.1 4.1zm144.3 0a4.2 4.2 0 0 0 4.2-4 4.12 4.12 0 0 0-4.1-4.1 4.2 4.2 0 0 0-4.2 4 4.12 4.12 0 0 0 4.1 4.1zm112.5 34.7a2.8 2.8 0 1 0 2.8 2.8 2.86 2.86 0 0 0-2.8-2.8zm0 5.3a2.4 2.4 0 1 1 2.4-2.4 2.43 2.43 0 0 1-2.4 2.4zm1.2-3.2c0-.6-.3-.9-1-.9h-1.2v3.2h.4v-1.4h.6l1 1.4h.5l-1-1.4a.8.8 0 0 0 .7-.9zm-1.3.6h-.5v-1.1h.7c.3 0 .7.1.7.5 0 .6-.5.6-.9.6z"/></svg>
