<svg fill="none" xmlns="http://www.w3.org/2000/svg" viewBox="0 0.85 502.97 93.22"> <g clip-path="url(#clip0_3_17)"> <path d="M125.141 70.9399C124.798 70.7893 122.204 69.3164 118.35 69.3164C113.132 69.3164 109.517 72.7727 109.517 77.4382C109.517 81.9698 112.973 85.5641 118.35 85.5641C122.145 85.5641 124.786 84.1373 125.141 83.949V92.1335C124.125 92.4013 121.363 93.213 117.785 93.213C108.697 93.213 100.743 87.2629 100.743 77.4382C100.743 68.3498 107.948 61.6842 117.785 61.6842C121.564 61.6842 124.367 62.5629 125.141 62.7805V70.9399Z" fill="white"></path> <path d="M40.9403 70.9399C40.6139 70.7893 38.0238 69.3164 34.1659 69.3164C28.9355 69.3164 25.3203 72.7727 25.3203 77.4382C25.3203 81.9698 28.7723 85.5641 34.1659 85.5641C37.9569 85.5641 40.5972 84.1373 40.9403 83.949V92.1335C39.9361 92.4013 37.1786 93.213 33.5717 93.213C24.5043 93.213 16.5625 87.2629 16.5625 77.4382C16.5625 68.3498 23.7595 61.6842 33.5717 61.6842C37.392 61.6842 40.1746 62.5629 40.9403 62.7805V70.9399Z" fill="white"></path> <path d="M150.502 69.4378C145.719 69.4378 142.171 73.0195 142.171 77.4382C142.171 81.8777 145.719 85.4553 150.502 85.4553C155.289 85.4553 158.85 81.8777 158.85 77.4382C158.85 73.0195 155.289 69.4378 150.502 69.4378ZM167.39 77.4382C167.39 86.1499 160.335 93.213 150.502 93.213C140.677 93.213 133.635 86.1499 133.635 77.4382C133.635 68.7474 140.677 61.6842 150.502 61.6842C160.335 61.6842 167.39 68.7474 167.39 77.4382" fill="white"></path> <path d="M90.6791 69.1407C90.5703 69.1072 87.1684 68.2159 84.3775 68.2159C81.1472 68.2159 79.3898 69.2411 79.3898 70.7182C79.3898 72.5676 81.7539 73.2078 83.0762 73.6179L85.3148 74.279C90.5452 75.8691 92.9344 79.2876 92.9344 82.9949C92.9344 90.6439 85.8671 93.213 79.6994 93.213C75.4022 93.213 71.4061 92.4557 70.9919 92.3845V85.3758C71.7074 85.5432 75.0841 86.5098 78.6073 86.5098C82.6117 86.5098 84.4696 85.3926 84.4696 83.6519C84.4696 82.1162 82.8753 81.2375 80.8627 80.6308C80.3773 80.4802 79.6534 80.2584 79.1346 80.1036C74.649 78.7479 70.9082 76.2331 70.9082 71.2035C70.9082 65.4961 75.3812 61.6842 82.8251 61.6842C86.7458 61.6842 90.4448 62.5797 90.6791 62.6424V69.1407Z" fill="white"></path> <path d="M8.00114 29.5068C8.00114 27.4147 6.21026 25.7075 3.99257 25.7075C1.80836 25.7075 0.000732422 27.4147 0.000732422 29.5068V37.4947C0.000732422 39.6036 1.80836 41.3066 3.99257 41.3066C6.21026 41.3066 8.00114 39.6036 8.00114 37.4947V29.5068Z" fill="white"></path> <path d="M29.9978 19.0126C29.9978 16.9204 28.2069 15.2216 26.006 15.2216C23.7883 15.2216 21.989 16.9204 21.989 19.0126V37.4905C21.989 39.6036 23.7883 41.3024 26.006 41.3024C28.2069 41.3024 29.9978 39.6036 29.9978 37.4905V19.0126Z" fill="white"></path> <path d="M51.9909 4.66874C51.9909 2.55985 50.2084 0.861017 47.9949 0.861017C45.794 0.861017 43.9863 2.55985 43.9863 4.66874V45.0934C43.9863 47.1981 45.794 48.9095 47.9949 48.9095C50.2084 48.9095 51.9909 47.1981 51.9909 45.0934V4.66874Z" fill="white"></path> <path d="M73.9921 19.0126C73.9921 16.9204 72.2012 15.2216 70.0044 15.2216C67.7867 15.2216 65.9958 16.9204 65.9958 19.0126V37.4905C65.9958 39.6036 67.7867 41.3024 70.0044 41.3024C72.2012 41.3024 73.9921 39.6036 73.9921 37.4905V19.0126Z" fill="white"></path> <path d="M95.9678 29.5068C95.9678 27.4147 94.1895 25.7075 91.9886 25.7075C89.7792 25.7075 87.98 27.4147 87.98 29.5068V37.4947C87.98 39.6036 89.7792 41.3066 91.9886 41.3066C94.1895 41.3066 95.9678 39.6036 95.9678 37.4947V29.5068Z" fill="white"></path> <path d="M117.982 19.0126C117.982 16.9204 116.195 15.2216 113.986 15.2216C111.785 15.2216 109.998 16.9204 109.998 19.0126V37.4905C109.998 39.6036 111.785 41.3024 113.986 41.3024C116.195 41.3024 117.982 39.6036 117.982 37.4905V19.0126Z" fill="white"></path> <path d="M139.983 4.66874C139.983 2.55985 138.209 0.861017 135.983 0.861017C133.799 0.861017 131.995 2.55985 131.995 4.66874V45.0934C131.995 47.1981 133.799 48.9095 135.983 48.9095C138.209 48.9095 139.983 47.1981 139.983 45.0934V4.66874Z" fill="white"></path> <path d="M162.001 19.0126C162.001 16.9204 160.202 15.2216 157.942 15.2216C155.754 15.2216 153.95 16.9204 153.95 19.0126V37.4905C153.95 39.6036 155.754 41.3024 157.942 41.3024C160.202 41.3024 162.001 39.6036 162.001 37.4905V19.0126Z" fill="white"></path> <path d="M183.96 29.5068C183.96 27.4147 182.16 25.7075 179.959 25.7075C177.75 25.7075 175.968 27.4147 175.968 29.5068V37.4947C175.968 39.6036 177.75 41.3066 179.959 41.3066C182.16 41.3066 183.96 39.6036 183.96 37.4947V29.5068Z" fill="white"></path> <path d="M60.0999 92.6733H52.02V62.2282H60.0999V92.6733Z" fill="white"></path> <path d="M267.847 92.7026L242.913 34.0552V92.7026H237.678V27.4398H245.578L270.797 87.2671L294.589 27.4398H302.205V92.7026H297.066V34.5071L273.555 92.7026H267.847Z" fill="white"></path> <path d="M357.262 79.8274C354.881 88.4429 347.266 94.0541 336.7 94.0541C323.285 94.0541 313.193 85.2712 313.193 69.1323C313.193 52.9976 322.992 44.2105 335.75 44.2105C348.412 44.2105 358.12 52.3658 358.12 70.3165H318.431C318.908 83.723 326.896 89.8907 336.796 89.8907C344.224 89.8907 349.931 86.0746 351.835 79.8274H357.262ZM318.528 66.2284H352.785C352.123 54.1692 344.981 48.1982 335.75 48.1982C326.712 48.1982 319.477 54.4412 318.528 66.2284Z" fill="white"></path> <path d="M370.125 92.7026V45.5663H374.313L375.079 54.6337C377.74 47.4743 382.782 44.2105 388.971 44.2105C390.967 44.2105 392.963 44.5704 394.109 44.9386V49.7422C392.394 49.2819 390.682 48.9179 388.686 48.9179C381.452 48.9179 375.263 55.6337 375.263 66.9565V92.7026H370.125Z" fill="white"></path> <path d="M400.599 57.8012C401.357 49.7422 408.88 44.2105 419.826 44.2105C430.869 44.2105 438.191 50.0979 438.191 59.7092V92.7026H434.003L433.245 84.9114C430.195 89.7945 424.584 94.0541 415.734 94.0541C406.118 94.0541 399.172 89.0789 399.172 80.7396C399.172 72.6722 404.311 67.7766 418.203 65.6008L433.053 63.245V59.1653C433.053 52.3658 428.011 48.1982 419.542 48.1982C411.642 48.1982 406.591 52.0854 405.926 57.8012H400.599ZM433.053 75.9318V67.1364L419.73 69.3122C407.922 71.2161 404.499 74.7519 404.499 80.3798C404.499 86.719 409.637 89.8907 417.064 89.8907C424.964 89.8907 433.053 84.1833 433.053 75.9318Z" fill="white"></path> <path d="M451.354 92.7026V27.4398H456.493V64.7765L480.193 45.5663H487.143L461.723 66.1489L490.277 92.7026H483.335L456.493 67.7766V92.7026H451.354Z" fill="white"></path> <path d="M496.754 27.4398H502.943V34.1431H496.754V27.4398ZM497.223 45.5663H502.361V92.7026H497.223V45.5663Z" fill="white"></path> </g> <defs> <clipPath id="clip0_3_17"> <rect width="504" height="94.9091" fill="white"></rect> </clipPath> </defs> </svg>