<svg xmlns="http://www.w3.org/2000/svg" viewBox="0 0 1639 350" aria-hidden="true" fill="currentColor"><path d="M1639 158.7v-29.2c-11.9 0-23.8-.1-35.6.1-.3-15 0-30.1-.1-45.1-11.9 3.6-23.7 7.4-35.6 10.8-.3 11.4 0 22.8-.2 34.2h-52.7c.2-9-.6-18 .7-27 1.1-7 5.2-14.1 12-16.8 8.7-3.5 18.3-1.2 26.5 2.4-.1-10.3.1-20.6-.1-30.9-17.3-4.8-37.1-3.8-52.5 6.2a48.92 48.92 0 0 0-20.3 27.7c-3.8 12.5-1.9 25.6-2.5 38.4-8.3-.1-16.6-.1-25 0 .1 9.6.1 19.2 0 28.9 8.4.2 16.7 0 25.1.1-.1 40.5 0 80.9 0 121.4h36V158.4h52.7c.1 25.8 0 51.6 0 77.4.2 12 2.2 24.9 10.2 34.4 6.9 8.4 17.8 12.2 28.4 13 11.1.8 22.6-.6 32.9-5v-29.5c-7.9 5.3-18.8 7.4-27.4 2.6-5.1-2.8-7.1-8.9-7.8-14.4-1.1-9.3-.4-18.6-.6-27.9v-50.4c12.1 0 24-.4 35.9.1zM730.5 65.5c-10 1.1-18.5 10.2-18.3 20.4-.4 9.7 7.4 18.4 16.7 20.1 9 2 19.4-1.8 24-10a20.57 20.57 0 0 0-2.5-23.4c-4.8-5.7-12.7-8.2-19.9-7.1zm-99.1 4.6c-20.8 51.8-42.1 103.4-63.1 155.1-4.4-10.3-8.3-20.7-12.4-31.1Q531.45 132 506.9 70h-52.4v210h34.3v-94c.1-22.6-.2-45.3.2-67.9.6 1 1.2 2.1 1.8 3.2 21.4 52.9 42.6 105.9 64 158.8 8.6-.1 17.3.2 25.9-.2 20.7-52.9 41.9-105.6 62.7-158.5a22.68 22.68 0 0 1 1.9-3.4c.2 2.3.2 4.6.2 7-.1 51.7.1 103.3-.1 155 12.1.2 24.2 0 36.3.1v-210c-16.7 0-33.5-.3-50.3 0zm251.7 59.4a99.2 99.2 0 0 0-53.5-.2c-16 4.6-30.6 14.4-40 28.2-11.2 16.2-15.1 36.5-14.2 55.9.9 18.7 8.2 37.3 21.8 50.4 12.5 12.1 29.7 18.6 46.9 19.6 16.9.8 34.5-1.4 49.2-10.2-.1-10.9 0-21.7-.1-32.6-9.5 6.9-20.6 11.9-32.3 13.3-11.9.9-24.6-2-33.7-10-8.7-7.5-13.4-18.7-14.5-29.9-1.5-14.4.5-29.9 9.5-41.7a42.3 42.3 0 0 1 29.9-16.6c14.8-1.9 29.5 3.8 41.1 12.6.1-11.5-.1-23 .1-34.4a39.86 39.86 0 0 0-10.2-4.4zm372.8 68.5c-10.6-6.1-22.8-9-33-15.8-6-3.8-7.7-12.1-5.2-18.4 3.1-6.4 10.5-9.2 17.2-9.5a62.9 62.9 0 0 1 37.8 11.2v-33.1c-15.8-6-33.2-8.1-49.8-5.2-14.1 2.5-27.9 9.8-35.8 22-7 10.5-7.9 23.9-5 35.9a36.82 36.82 0 0 0 13.5 20.4c9.3 7.1 20.5 11.1 31.1 15.9 5.7 2.7 11.6 5.4 15.7 10.3 4.4 6.4 3 16.8-4.3 20.5-7.7 3.7-16.6 3.6-24.9 2.3a79 79 0 0 1-32.7-14.1c-.1 11.6 0 23.2-.1 34.8 11.5 5.1 24.1 7.6 36.6 8.4 17.6.7 36.8-2.8 50.1-15.2 13.9-12.3 17.3-34.1 9.4-50.7-4.2-8.9-12.2-15.1-20.6-19.7zm-282.1-66.2c-9 5.1-14.8 14.2-18.6 23.6v-25.8c-11.9-.1-23.7-.1-35.5 0 .1 50.1 0 100.3 0 150.4h35.5v-72c-.3-10.4.6-21.2 5.1-30.7 4.2-9 12.3-16.9 22.5-18a38.43 38.43 0 0 1 24.3 5.7v-36c-10.7-3.7-23.3-3.2-33.3 2.8zm-258.3-2.3V280h35.7c0-50.1-.1-100.3.1-150.4-11.9-.2-23.9-.1-35.8-.1zm409.6 3.3c-16-7.3-34.3-8.3-51.5-6.1-18.2 2.3-35.8 10.8-47.3 25.3-10.5 12.9-15.6 29.5-16.6 46-1.4 19.4 1.8 40 13.2 56.2 9.7 14 25 23.6 41.6 27.1a103.44 103.44 0 0 0 42.2 0c16.2-3.3 31.3-12.3 41.3-25.5 9.8-12.5 14.7-28.2 15.8-43.8 1.1-16-.5-32.7-7.2-47.5a64.35 64.35 0 0 0-31.5-31.7zm-3.3 100.9a32.8 32.8 0 0 1-17.7 17.4 48.4 48.4 0 0 1-29.4 1.3 35.92 35.92 0 0 1-22.6-18.6c-5.8-11.6-6.7-25-5.5-37.7 1.1-11.5 5.1-23.4 13.9-31.4 6.4-6 15.1-8.9 23.7-9.4 10.8-.7 22.3 2.4 30.1 10.2 8.3 8.2 11.5 20 12.4 31.4.8 12.4.3 25.3-4.9 36.8zM1414 134c-16.4-8.3-35.5-9.5-53.4-7.3-14.5 1.9-28.7 7.4-39.8 17.1-13.5 11.6-21.4 28.7-23.8 46.2-2.2 17.5-1.5 35.9 5.7 52.3a66.37 66.37 0 0 0 36.6 35.5c16 6.3 33.8 7 50.7 4.3 17.2-2.8 33.6-11.9 44.3-25.9 11.4-14.4 16.3-33.1 16.3-51.3.2-12.2-1.3-24.5-5.6-35.9-5.6-15-16.7-27.9-31-35zm-1.6 86c-1.4 7.9-4.1 15.8-9.3 22.1s-13 10.1-21 11.3c-8.6 1.3-17.7.7-25.8-2.8-8.7-3.7-15.4-11.2-19-19.9-4.3-10.3-5.1-21.8-4.3-32.8.8-10.7 3.8-21.7 10.9-30 6.4-7.8 16.3-12 26.3-12.6 10.2-.7 21 1.6 28.8 8.5 7.2 6 11.2 14.9 13 24a87.18 87.18 0 0 1 .4 32.2zM0 166.5h166.5V0H0zm183.5 0H350V0H183.5zM0 350h166.5V183.5H0zm183.5 0H350V183.5H183.5z"/></svg>
