<svg xmlns="http://www.w3.org/2000/svg" viewBox="0 0 674.12 50.38" aria-hidden="true">
  <path fill="currentColor" d="M17.39 39.43c-1.37-4.52-6-20.4-7.81-26.7h-.13v26.7H0V.82h14.79s6.57 23.41 7.39 27c.82-3.56 7.26-27 7.26-27h14.64v38.61H34.5v-26.7h-.14c-1.78 6.16-6.43 22.18-7.8 26.7zm30.8-29.3V.82h9.72v9.31zm9.86 29.3h-9.72V13.14h9.72zm13.82-26.29v4.11c.83-2.05 3.43-4.93 8.36-4.93s9.17 3.15 9.17 9.31v17.94h-9.72V24.64c0-3.42-1.37-4.52-3.42-4.52s-4 1.51-4 6v13.17h-9.69V13.14zm31.08 0v4.11c.82-2.05 3.42-4.93 8.35-4.93s9.18 3.15 9.18 9.31v17.94h-9.86V24.64c0-3.42-1.37-4.52-3.42-4.52s-4 1.51-4 6v13.17h-9.69V13.14zm46.82 21c-2.19 3.83-6.7 6.16-12.45 6.16-8.36 0-14.24-4.93-14.24-14s6-14.11 14-14.11c9.17 0 13.56 6.44 13.56 14.52v2.05H132.8c0 1.92.82 4.38 4.24 4.38a4.47 4.47 0 0 0 4.11-2.19zm-17-10.54H141c-.13-2.88-1.37-4.66-4-4.66s-3.93 1.73-4.2 4.61zm36.28 12.59c-1.51 2.74-4.11 4.11-8.08 4.11-5.48 0-8.35-3.15-8.35-7.67 0-6 4.52-8.08 9.72-8.9l6.43-.95v-1.29c0-1.5-.68-2.6-2.87-2.6a2.79 2.79 0 0 0-3 2.33h-9.31c.41-5.2 5.47-8.9 12.18-8.9s12.46 2.6 12.46 10.41v16.84h-9zM168.8 30v-1.93l-4.38.68c-2 .27-2.6 1.37-2.6 2.6 0 1.65 1.37 2.19 2.88 2.19 2.05 0 4.1-1.09 4.1-3.54zm22.87 6.3v14.1H182V13.14h9.44V17c1-1.92 3.43-4.66 8.35-4.66 6.3 0 11.5 5.34 11.5 14s-5.2 14-11.5 14c-3.6-.09-6.79-1.6-8.12-4.06zm4.92-16.57c-2.87 0-5.06 2.33-5.06 6.3v.55c0 4 2.05 6.3 5.06 6.3s4.8-2.74 4.8-6.57-1.78-6.58-4.8-6.58zm17.12 6.58c0-9 5.88-14 14.24-14s14.23 5.07 14.23 14-5.88 14-14.23 14-14.24-4.99-14.24-14.02zm18.62 0c0-4-1.23-7-4.52-7s-4.52 3-4.52 7 1.23 7 4.52 7 4.52-3.05 4.52-7.02zm13-25.47h9.72v38.59h-9.72V.82zm13.83 9.31V.82h9.72v9.31zm9.72 29.3h-9.72V13.14h9.72zm17.39-16.7c5.48.82 11 2.46 11 8.48s-5.34 9-12.59 9c-6.16 0-11.91-2.19-12.87-7.12l9.17-1.51c.27 1.65 1.92 2.19 3.7 2.19s2.87-.54 2.87-1.64-.82-1.64-3.7-2.19c-4.51-.68-11.08-1.92-11.08-8.62 0-6.44 6.16-8.9 12.18-8.9s11.09 2.46 12.18 6.7l-9 1.78c-.27-1.37-1.78-2.05-3.15-2.05s-2.6.55-2.6 1.64c0 1.37 1.5 1.79 4 2.2zM311.32.82h10.13v38.61h-10.13zm23.82 12.32v4.11c.83-2.05 3.43-4.93 8.36-4.93s9.17 3.15 9.17 9.31v17.94H343V24.64c0-3.42-1.37-4.52-3.43-4.52-1.91 0-4 1.51-4 6v13.17h-9.72V13.14zm34 9.59c5.47.82 10.95 2.46 10.95 8.48s-5.34 9-12.6 9c-6.16 0-11.91-2.19-12.87-7.12l9.18-1.51c.27 1.65 1.91 2.19 3.69 2.19s2.88-.54 2.88-1.64-.82-1.64-3.7-2.19c-4.52-.68-11.09-1.92-11.09-8.62 0-6.44 6.16-8.9 12.19-8.9s11.09 2.46 12.18 6.7l-9 1.78c-.28-1.37-1.78-2.05-3.15-2.05s-2.6.55-2.6 1.64c.06 1.41 1.43 1.83 3.9 2.24zm32.31 17a27.13 27.13 0 0 1-5.21.55c-5.88 0-10-2.6-10-9.86v-10.3H382v-7h4.24V5.61l9.58-4.38v11.91h5.48v7h-5.48v9.73c0 2.18 1.23 2.6 2.88 2.6a13.86 13.86 0 0 0 2.6-.14v7.37zm4.1-29.57V.82h9.72v9.31zm9.72 29.3h-9.72V13.14h9.72zm22.46.27a27.13 27.13 0 0 1-5.21.55c-5.88 0-10-2.6-10-9.86v-10.3h-4.24v-7h4.24V5.61l9.58-4.38v11.91h5.48v7h-5.48v9.73c0 2.18 1.23 2.6 2.88 2.6a13.86 13.86 0 0 0 2.6-.14v7.37zm20.8-.27v-4c-.82 2-3.42 4.79-8.21 4.79-5.07 0-8.9-3.15-8.9-9.31v-17.8h9.72v14.79c0 3.42 1.23 4.52 3.15 4.52s3.83-1.51 3.83-6V13.28h9.72v26.29h-9.31v-.14zm31.9.27a27 27 0 0 1-5.2.55c-5.89 0-10-2.6-10-9.86v-10.3H471v-7h4.25V5.61l9.58-4.38v11.91h5.48v7h-5.48v9.73c0 2.18 1.23 2.6 2.88 2.6a13.86 13.86 0 0 0 2.6-.14v7.37zm28.89-5.61c-2.19 3.83-6.71 6.16-12.46 6.16-8.35 0-14.24-4.93-14.24-14s6-14.11 14-14.11c9.17 0 13.55 6.44 13.55 14.52v2.05H502.3c0 1.92.83 4.38 4.25 4.38a4.48 4.48 0 0 0 4.11-2.19zm-16.88-10.57h8.22c-.14-2.88-1.37-4.66-4-4.66s-4.08 1.78-4.22 4.66zM533 26.29c0-9 5.89-14 14.24-14s14.24 5.07 14.24 14-5.89 14-14.24 14-14.24-4.97-14.24-14zm18.62 0c0-4-1.23-7-4.52-7s-4.52 3-4.52 7 1.23 7 4.52 7 4.49-3.03 4.49-7zM577.19 0a19 19 0 0 1 5.07.68v7.4a8.14 8.14 0 0 0-2.88-.55 2.94 2.94 0 0 0-3.15 3.15v2.19h5.48v7.25h-5.48v19.31h-9.72V20.12h-4.1v-7h4.24v-2.3C566.51 3.83 571 0 577.19 0zm54.49 39.43h-10.41l-2.87-8.22h-12.87l-2.88 8.22h-10L606.49.82h11.22zM612 10.68c-.68 2.87-3.83 12.87-3.83 12.87h7.81c0 .13-3.29-10-4-12.87zm40.39 2.19v8.62a7.66 7.66 0 0 0-2.46-.27c-3 0-6.85 1.51-6.85 7.94v10.41h-9.72V13.14h9.17v4.52c1.51-3.56 4.25-5.06 8.08-5.06a6.79 6.79 0 0 1 1.74.27zm21.73 26.83a27.11 27.11 0 0 1-5.2.55c-5.89 0-10-2.6-10-9.86V20.12h-4.24v-7h4.24V5.61l9.59-4.38v11.91H674v7h-5.47v9.73c0 2.18 1.23 2.6 2.87 2.6a13.75 13.75 0 0 0 2.6-.14v7.37z"/>
</svg>
