<svg fill="none" xmlns="http://www.w3.org/2000/svg" viewBox="0 -0.03 260.6 91.68"> <g clip-path="url(#clip0_3_14)"> <g clip-path="url(#clip1_3_14)"> <path fill-rule="evenodd" clip-rule="evenodd" d="M113.142 2.63112C109.608 6.01887 109.608 11.8257 113.142 15.332C116.676 18.8402 122.526 18.8402 126.059 15.332C129.592 11.8257 129.592 6.01887 126.059 2.63112C122.526 -0.87704 116.676 -0.87704 113.142 2.63112ZM184.144 26.3683L175.858 27.6982C160.05 31.2738 149.78 36.397 149.78 53.6208V88.1817L164.16 91.0842V55.7794C164.16 47.7306 168.738 44.095 175.858 42.7509L184.144 41.2438V26.3683ZM74.6965 88.3235L89.0769 91.2259V52.1544C89.0769 33.404 74.4539 26.6304 64.3391 26.6304C57.5155 26.6304 52.155 28.3234 47.2795 33.0412C42.2844 28.3234 36.3136 26.51 31.4382 26.51C24.4933 26.51 18.3994 29.5328 14.3784 34.3727V27.8399L0 30.6221V88.3235L14.3784 91.2259V51.5488C14.3784 45.2585 19.0095 40.7833 25.9561 40.7833C32.7797 40.7833 37.4107 45.2585 37.4107 51.5488V88.3235L51.789 91.2259V51.5488C51.789 45.2585 56.4185 40.7833 63.2438 40.7833C70.0673 40.7833 74.6965 45.2585 74.6965 51.5488V88.3235ZM260.582 59.0115C260.582 77.0019 245.843 91.6331 227.841 91.6331C209.718 91.6331 194.98 77.0019 194.98 59.0115C194.98 41.1413 209.718 26.51 227.841 26.51C245.843 26.51 260.582 41.1413 260.582 59.0115ZM227.841 78.0803C217.33 78.0803 208.751 69.5659 208.751 59.0115C208.751 48.5773 217.33 40.1814 227.841 40.1814C238.352 40.1814 246.808 48.5773 246.808 59.0115C246.808 69.5659 238.352 78.0803 227.841 78.0803ZM126.668 91.6331L112.289 88.3235V30.2112L126.668 27.3086V91.6331Z" fill="white"></path> </g> </g> <defs> <clipPath id="clip0_3_14"> <rect width="261" height="91.6331" fill="white"></rect> </clipPath> <clipPath id="clip1_3_14"> <rect width="260.582" height="91.6331" fill="white"></rect> </clipPath> </defs> </svg>