<svg xmlns="http://www.w3.org/2000/svg" viewBox="0 0 78 25" aria-hidden="true" fill="currentColor"><path d="M67.87 15.8a1.08 1.08 0 0 0 1.2 1.2 2.3 2.3 0 0 0 2.25-2.47 10.9 10.9 0 0 0-1.48-.13c-1.06-.02-1.97.27-1.97 1.4zM0 0v25h78V0zm17.78 18.85v-5.8c0-1.78-.6-2.47-1.76-2.47-1.42 0-2 1-2 2.44v3.6h1.38v2.23h-4.32v-5.8c0-1.78-.6-2.47-1.76-2.47-1.42 0-2 1-2 2.44v3.6h2v2.23H3v-2.23h1.4V10.8H2.9V8.54h4.43v1.55a3.4 3.4 0 0 1 3.13-1.76 3.34 3.34 0 0 1 3.36 2.22 3.45 3.45 0 0 1 3.36-2.22 3.33 3.33 0 0 1 3.54 3.56v4.7h1.37v2.25zm10.87.23c-3.17 0-5.37-1.94-5.37-5.23a5.16 5.16 0 0 1 5.52-5.5 5.1 5.1 0 0 1 5.5 5.37c0 3.28-2.37 5.36-5.65 5.36zM45 18.85h-9l-.3-1.55 5.66-6.5H38.2l-.47 1.6-2.12-.24.4-3.6h9l.23 1.54-5.7 6.5h3.32l.48-1.6 2.33.24zm5.57 0h-3.03v-3.7h3.08zm0-6.6h-3.03v-3.7h3.08zm1.62 6.6l4.5-15.7h2.9l-4.46 15.7zm6 0l4.48-15.7h2.9l-4.45 15.7zm15.34.23A2.1 2.1 0 0 1 71.3 17a3.73 3.73 0 0 1-3.3 2.08 2.9 2.9 0 0 1-3.17-2.95c0-2.54 2.44-3.13 4.8-3.13a13.5 13.5 0 0 1 1.7.1v-.35c0-1.05 0-2.3-1.7-2.3a3.2 3.2 0 0 0-1.58.3l-.38 1.45-2.36-.2.47-2.67a9.9 9.9 0 0 1 4.4-.94c2.23 0 4.1 1.13 4.1 3.5v4.47c0 .6.23.8.7.8a1.55 1.55 0 0 0 .44-.07v1.55a4 4 0 0 1-1.82.43zM28.76 10.6c-1.5 0-2.44 1.13-2.44 3.07 0 1.78.82 3.15 2.43 3.15s2.54-1.23 2.54-3.2-1.15-3-2.54-3z"/></svg>
