<svg xmlns="http://www.w3.org/2000/svg" viewBox="0 0 408 150.1" fill="currentColor"><path d="M408 149.7h-67.2l-23.4-49.8h-46.2l3.2-8.5h39.1l-24.8-53.2 16-38.1h22.2l50.8 107.8c7 15.1 16.1 36 30.3 41.8zm-203.7-5.8V78.4s16.8 5 33.5 29.7V41.7c-16.9 25-33.5 28.6-33.5 28.6V5.8c36.2 0 53.5 17.4 62.6 33.2l16.6-39h-153c13.9 9.8 23.9 18.3 23.9 52.5v97.1h129l-17.2-36.2c-9.7 15.3-28.4 30.5-61.9 30.5zM0 .1c10.4 6 25.2 15.8 25.2 46.2V105c0 32.7-23.6 44.6-23.6 44.6h54.8S32.8 137.8 32.8 105V29.6l109.7 120.5V74.4L74.6.1H0zm362.2 16.6h-3.1v-11h4.3a3.66 3.66 0 0 1 4.3 2.8v.1c0 .2.1.4.1.6a3 3 0 0 1-2 3l2.6 4.6h-3l-2.4-3.9h-.8v3.8zm0-6h1a1.2 1.2 0 0 0 1.5-1v-.4a1.4 1.4 0 0 0-1.3-1.3h-1.3l.1 2.7zm-10.3.6A11.16 11.16 0 0 1 363 .1h.2a11.25 11.25 0 1 1-11.3 11.2zm2.1 0a9.3 9.3 0 1 0 9.3-9.4 9.43 9.43 0 0 0-9.3 9.4z"/></svg>
