<svg xmlns="http://www.w3.org/2000/svg" viewBox="0 0 139.1 18.31" aria-hidden="true" fill="currentColor">
  <path d="M10.44 1.88C10.44.38 9 0 7.87 0v.24c.7 0 1.24.25 1.24.72s-.22.74-.93.74a10.6 10.6 0 0 1-2.5-.6 9 9 0 0 0-2.6-.65A2.5 2.5 0 0 0 .46 2.9a1.72 1.72 0 0 0 1.17 1.64l.1-.18a.8.8 0 0 1-.42-.74.94.94 0 0 1 1-.85 12.14 12.14 0 0 1 2.77.65 22.52 22.52 0 0 0 2.76.63V6.4l-1.15 1v.08l1.16 1v3.22a3.75 3.75 0 0 1-1.86.4 3.77 3.77 0 0 1-3-1.2l3.16-1.5V4.23l-3.8 1.7a4.5 4.5 0 0 1 2-2.16L4.3 3.6A5.7 5.7 0 0 0 0 8.8a5.3 5.3 0 0 0 5.3 5.33 4.84 4.84 0 0 0 5-4.93h-.17A5.23 5.23 0 0 1 8.2 11.6V8.45l1.2-1v-.1l-1.2-1v-2.3a2.18 2.18 0 0 0 2.3-2.17zm-6.57 8.37L3 10.7a4.57 4.57 0 0 1-.86-2.88A5.26 5.26 0 0 1 2.3 6.2l1.58-.7zm8 1.67l-1 .76.13.14.5-.34L13.17 14l2.27-1.5-.1-.17-.6.38L14 12V6.8l.6-.44 1.3 1V12c0 2.86-.62 3.33-1.92 3.8v.2c2.14.1 4.07-.63 4.07-4.3V6.75l.68-.54-.13-.15-.6.47-1.85-1.6L14 6.54V.3h-.16l-2.68 1.8v.17a1.08 1.08 0 0 1 .72 1.17zm13.82-.8l-1.86 1.43L21.92 11v-.9l3.58-2.4v-.06L23.72 4.9 19.82 7v5l-.77.6.13.15.7-.56 2.55 1.8 3.42-2.7zM21.9 9.86v-3.7l.08-.1 1.66 2.6zM40.18 1.2A2.12 2.12 0 0 0 40 .5h-.18c-.23.62-.52 1-1.26 1a2 2 0 0 1-1.4-.72L35 3.28l.18.16.6-.7a2.54 2.54 0 0 0 1.86.72v6.3l-4.4-7.67a2.4 2.4 0 0 0-2-1.45 2.3 2.3 0 0 0-2.15 2.75h.2c.06-.47.3-1 .82-1a1.32 1.32 0 0 1 1 .76v2.5c-1.37 0-2.27.63-2.27 1.75a1.68 1.68 0 0 0 1.25 1.73v-.16a.7.7 0 0 1-.25-.52c0-.4.3-.68.86-.68a2.37 2.37 0 0 1 .4 0V11c-1.6 0-2.83.9-2.83 2.4a2.16 2.16 0 0 0 2.54 2.06v-.18c-.8-.1-1.23-.47-1.23-1a1 1 0 0 1 1.06-1 2.13 2.13 0 0 1 1.53.8l2.18-2.42-.18-.16-.56.63A3.73 3.73 0 0 0 31.37 11V3.42l6.1 10.64h.43V3.46a2.33 2.33 0 0 0 2.27-2.27zm5.45 9.9l-1.85 1.45L41.85 11v-.9l3.58-2.4v-.06L43.65 4.9 39.75 7v5l-.78.6.13.15.7-.56 2.55 1.8 3.42-2.7-.14-.2zm-3.78-1.23v-3.7l.15-.1 1.66 2.6zM58 5.73l-.56.4L56 4.94l-1.66 1.5.68.65v5.7l-1.84-1.16V7l.6-.4L52 4.9l-1.62 1.5.68.66v5.42l-.23.14-1.6-1.13V7c0-1-.5-1.35-1.17-1.76s-.8-.63-.8-1.15.42-.7.64-.82a.7.7 0 0 1 0-.18 2.35 2.35 0 0 0-2.2 2.07 1.72 1.72 0 0 0 .7 1.44 1.74 1.74 0 0 1 .73 1.34v4.37l-.8.64.12.16.74-.58 2 1.57 1.8-1.33L53.14 14l4-2.34V6.63l1-.72-.14-.17zm14-4.16l-.76.68L69.6.78 67.1 2.6V.9h-.25l.05 12.25c-.25 0-.88-.18-1.46-.27L65.4 2.63a1.8 1.8 0 0 0-1.88-1.8A2.2 2.2 0 0 0 61.22 3h.23c.07-.45.3-.85.76-.85s.87.3.87 1.3v3c-1.4.05-2.18.83-2.18 1.78a1.4 1.4 0 0 0 1.23 1.55V9.6a.55.55 0 0 1-.4-.52c0-.43.4-.6 1-.6H63v4.67a2.16 2.16 0 0 0-1.6 2.1 2.28 2.28 0 0 0 2.48 2.22 12.65 12.65 0 0 0 2.9-.4 14.38 14.38 0 0 1 2.22-.43c.58 0 .83.27.83.68a.72.72 0 0 1-.54.8v.2a2.1 2.1 0 0 0 2-2.1c0-1.15-1.1-1.84-2.33-1.84a15.75 15.75 0 0 0-2.8.4 14.57 14.57 0 0 1-2.44.35c-.52 0-1.17-.25-1.17-1S63.08 13 64.38 13a10.78 10.78 0 0 1 2.36.3 12.6 12.6 0 0 0 2.52.46c1.1 0 2.1-.4 2.1-2V2.5l.87-.77zm-3.1 4.66a1.27 1.27 0 0 1-.9.43 1.38 1.38 0 0 1-.92-.43V2.87l.77-.52 1 1zm0 2.25a1.3 1.3 0 0 0-.9-.38 1.5 1.5 0 0 0-.92.38v-2a1.5 1.5 0 0 0 .92.4 1.32 1.32 0 0 0 .9-.4zm0 3.53a1.16 1.16 0 0 1-1.2 1.22h-.62V8.75a1.4 1.4 0 0 1 .92-.4 1.37 1.37 0 0 1 .9.4zm10.37-5.35L76.82 4.9 73.15 7v4.93l-.76.6.1.17.6-.5 2.43 1.8 3.74-2.3zm-4 4.77V6l1.9 1.37v5.4zM86.5 5.1h-.15a1.08 1.08 0 0 1-.67.3 1.2 1.2 0 0 1-.85-.4h-.14l-1.3 1.4L82.1 5l-2.24 1.54.1.18.6-.4.77.83v4.77l-1 .76.13.14.5-.34 1.8 1.52 2.36-1.57-.12-.13-.67.4-.88-.8V6.6a2 2 0 0 0 1.35.76c1 0 1.57-1.1 1.67-2.27zm9.08 7.25L93 14l-3.5-5.23L92 4.94h.16a2 2 0 0 0 1.26.6 1.32 1.32 0 0 0 1.1-.6h.14a2.3 2.3 0 0 1-1.9 2.4 2.63 2.63 0 0 1-1.57-.62l-.27.28 3.78 5.6.77-.47zm-8.32-.43l-1 .76.13.14.48-.34L88.56 14l2.27-1.5-.13-.17-.58.38-.73-.7V.3h-.17L86.5 2.14v.16a1.06 1.06 0 0 1 .76 1.14zm20.86-10c0-1.5-1.4-1.93-2.57-1.87v.2c.7 0 1.24.24 1.24.7s-.24.75-.95.75a10.6 10.6 0 0 1-2.5-.6 9 9 0 0 0-2.6-.64 2.5 2.5 0 0 0-2.6 2.44 1.72 1.72 0 0 0 1.17 1.64l.1-.18a.8.8 0 0 1-.42-.74.94.94 0 0 1 1-.85 12.14 12.14 0 0 1 2.77.65 22.52 22.52 0 0 0 2.77.63V6.4l-1.15 1v.08l1.14 1v3.22a4.26 4.26 0 0 1-4.84-.77l3.1-1.5v-5.2l-3.8 1.7a4.5 4.5 0 0 1 2-2.16V3.6a5.7 5.7 0 0 0-4.3 5.23 5.3 5.3 0 0 0 5.3 5.32 4.84 4.84 0 0 0 5-4.93h-.18a5.23 5.23 0 0 1-1.94 2.38V8.45l1.22-1v-.1l-1.2-1v-2.3a2.18 2.18 0 0 0 2.28-2.17zm-6.57 8.37l-.92.44a4.57 4.57 0 0 1-.86-2.88A5.26 5.26 0 0 1 100 6.2l1.58-.7v4.75zm9.16-9.08h-.1l-1.5 1.2v.12L110.37 4h.13l1.5-1.28v-.1l-1.28-1.45zm2.3 11.13l-.58.38-.74-.74V6.76l.72-.54-.14-.18-.56.43-1.3-1.57-2.17 1.52.13.2.54-.36.67.83V12l-1 .74.1.14.5-.36 1.7 1.48 2.28-1.5zm12.6-.1l-.54.37-.8-.74V6.75l.76-.58-.1-.17-.67.5-1.73-1.6-2.23 1.6-1.72-1.58-2.2 1.57L115 4.9l-2.16 1.5.1.2.55-.35.73.8V12l-.6.6 1.77 1.4 1.67-1.5-.68-.66v-5.1l.64-.42 1.16 1.08V12l-.58.6 1.75 1.4 1.63-1.5-.68-.64V6.72l.58-.38 1.24 1.06v4.5l-.5.52 1.76 1.6 2.32-1.58zm6.57-1.14l-1.85 1.45-1.9-1.55v-.9L132 7.75v-.1l-1.8-2.75-3.9 2.1v5.13l2.6 1.87 3.43-2.7zm-3.78-1.23v-3.7l.12-.1 1.66 2.6zm10.68-.7l-1.46-1.1A3.84 3.84 0 0 0 139 5.3v-.48h-.18a1 1 0 0 1-1 .74 1.8 1.8 0 0 1-1.35-.72L133 6.7v2.75l1.26 1c-1.28 1.13-1.5 1.93-1.5 2.5a1.53 1.53 0 0 0 1 1.55l.08-.16a.64.64 0 0 1-.3-.58c0-.25.3-.6.87-.6a1.88 1.88 0 0 1 1.43.76l3.28-2zm-.8-2.28A9.3 9.3 0 0 1 136 9.17l-.83-.65V5.85a2.28 2.28 0 0 0 2 1.33 2.26 2.26 0 0 0 1.12-.3zm-1.34 6a2.47 2.47 0 0 0-2.16-1.47 2.66 2.66 0 0 0-1.42.36A8.43 8.43 0 0 1 136 9.37l.94.72z"/>
</svg>
