<svg viewBox="0 0 672 93" fill="currentColor" xmlns="http://www.w3.org/2000/svg">

<path d="M199.433 63.3055L162.788 -0.0013129H143.421V90.3867H159.725V28.7258L196.019 90.2226L196.115 90.3867H215.864V-0.0013129H199.433V63.3055Z" />
<path d="M272.973 48.7044H242.937C243.897 38.9632 249.309 33.606 258.209 33.606C267.049 33.606 272.148 38.8247 272.973 48.7044ZM258.337 20.5064C237.971 20.5064 225.32 34.2383 225.32 56.344C225.32 78.0356 238.683 92.0528 259.363 92.0528C272.876 92.0528 283.477 86.5476 290.023 76.1315L290.216 75.8231L276.275 68.7184L276.119 68.9987C272.716 75.094 267.337 78.184 260.132 78.184C249.46 78.184 243.515 72.0788 242.92 60.5221H290.585V56.856C290.585 34.7747 277.927 20.5064 258.337 20.5064" />
<path d="M393.733 77.9283C388.091 77.9283 385.992 75.7607 385.992 69.9293V34.9086H402.783V22.194H385.992V5.12628H368.92V22.194H359.691V34.9086H368.92V72.3659C368.92 85.6132 375.736 92.0528 389.76 92.0528C394.816 92.0528 399.595 91.3138 403.964 89.8575L404.192 89.7809V76.2924L403.775 76.4017C400.877 77.1564 397.419 77.9283 393.733 77.9283" />
<path d="M441.317 34.5034C451.073 34.5034 457.133 42.8231 457.133 56.2153C457.133 70.0955 451.368 78.0564 441.317 78.0564C430.869 78.0564 425.116 70.3003 425.116 56.2153C425.116 42.4173 431.021 34.5034 441.317 34.5034ZM456.364 28.032C451.748 22.97 445.683 20.5069 437.856 20.5069C419.925 20.5069 407.403 35.244 407.403 56.3445C407.403 77.7023 419.435 92.0528 437.344 92.0528C445.157 92.0528 452.125 88.9325 456.62 83.4559V90.3867H473.437V-0.00131084H456.364V28.032" />
<path d="M532.136 56.0877C532.136 70.0497 525.999 78.0564 515.295 78.0564C504.592 78.0564 498.452 70.0497 498.452 56.0877C498.452 42.3705 504.592 34.5033 515.295 34.5033C525.999 34.5033 532.136 42.3705 532.136 56.0877V56.0877ZM515.295 20.5069C494.551 20.5069 480.612 34.9085 480.612 56.3445C480.611 66.644 483.788 75.482 489.801 81.9023C496.019 88.5429 504.836 92.0533 515.295 92.0533C536.364 92.0533 549.979 78.0361 549.979 56.3445C549.979 35.244 535.716 20.5069 515.295 20.5069Z" />
<path d="M606.472 56.0877C606.472 70.0497 600.335 78.0564 589.631 78.0564C578.928 78.0564 572.788 70.0497 572.788 56.0877C572.788 42.3705 578.928 34.5033 589.631 34.5033C600.335 34.5033 606.472 42.3705 606.472 56.0877V56.0877ZM589.631 20.5069C568.885 20.5069 554.947 34.9085 554.947 56.3445C554.947 77.7028 568.885 92.0533 589.631 92.0533C610.7 92.0533 624.313 78.0361 624.313 56.3445C624.313 35.244 610.052 20.5069 589.631 20.5069Z" />
<path d="M670.947 20.7648C669.673 20.6383 667.492 20.507 666.043 20.507C658.725 20.507 652.375 24.655 648.048 32.2236V22.1731H631.359V90.3867H648.432V60.7018C648.432 39.9774 658.995 37.5799 666.94 37.5799C667.829 37.5799 668.597 37.5799 670.895 37.7075L671.247 37.7274V20.7946L670.947 20.7648Z" />
<path d="M356.296 22.1731H338.448L325.449 43.0919L312.596 22.1731H293.825L314.42 53.7783L291.012 90.3867H309.268L324.945 64.0455L340.784 90.2258L340.881 90.3867H359.517L335.851 53.146L356.296 22.1731" />
<path d="M113.795 34.8654L56.8973 -0.0013129L37.3453 11.9804V-0.0013129H19.5245V22.9007L0 34.8654L9.31145 50.0607L19.5245 43.8023V90.3867H94.2703V43.8023L104.483 50.0607L113.795 34.8654" />

</svg>
