<svg xmlns="http://www.w3.org/2000/svg" viewBox="0 0 894 170" aria-hidden="true">
  <path fill="currentColor" d="M625.55 35.22c-13.75 0-23.57 4.7-28.39 13.59l-2.59 4.79V37.54h-22.4v97.85h23.56V77.18c0-13.91 7.55-21.89 20.73-21.89 12.56 0 19.76 7.76 19.76 21.31v58.79h23.56v-63c0-23.26-12.8-37.17-34.23-37.17zm-114.22 0c-27.79 0-45.06 17.33-45.06 45.25v13.74c0 26.83 17.42 43.51 45.45 43.51 18.74 0 31.88-6.88 40.15-21l-14.61-8.39c-6.11 8.15-15.86 13.19-25.54 13.19-14.19 0-22.67-8.76-22.67-23.44v-3.89h65.79V78c0-26-17.08-42.73-43.51-42.73zm22.08 43.14h-44.36V76c0-16.12 7.91-25 22.28-25 13.83 0 22.08 8.76 22.08 23.44zm360.24-56.93V2.71H812.2v18.72h28.56v95.25H812.2v18.71h81.45v-18.71h-28.56V21.43zM276 0c-36.39 0-59 22.68-59 59.18v19.74c0 36.51 22.6 59.18 59 59.18s59-22.67 59-59.18V59.18C335 22.68 312.38 0 276 0zm34.66 80.27c0 24.24-12.63 38.15-34.66 38.15s-34.67-13.91-34.67-38.15V57.83c0-24.24 12.63-38.15 34.66-38.15s34.66 13.91 34.66 38.15zm98.31-45c-12.36 0-23.07 5.11-28.64 13.69l-2.54 3.9V37.54H355.4v131.52H379v-47.63l2.53 3.74c5.3 7.85 15.65 12.55 27.68 12.55 20.31 0 40.8-13.28 40.8-42.93V78.13c0-21.35-12.63-42.91-41-42.91v.05zm17.44 58.4c0 15.77-9.2 25.57-24 25.57-13.8 0-23.44-10.35-23.44-25.18v-14.7c0-15.06 9.72-25.57 23.63-25.57 14.7 0 23.83 9.8 23.83 25.57zM724.88 2.76l-47.55 132.63h23.9l9.1-28.44H765l.09.28 9 28.16H798L750.41 2.71h-25.53zm-8.67 85.52l21.44-67.15 21.23 67.07zm-560.4-19.1a42.18 42.18 0 0 0-3.63-34.59 42.6 42.6 0 0 0-45.86-20.43 42.71 42.71 0 0 0-72.38 15.3A42.13 42.13 0 0 0 5.78 49.89a42.58 42.58 0 0 0 5.23 50 42.1 42.1 0 0 0 3.6 34.59A42.64 42.64 0 0 0 60.5 154.9a42.15 42.15 0 0 0 31.76 14.16 42.64 42.64 0 0 0 40.65-29.63A42.15 42.15 0 0 0 161.07 119a42.65 42.65 0 0 0-5.26-49.82zM92.26 158A31.49 31.49 0 0 1 72 150.66l1-.56 33.66-19.43a5.6 5.6 0 0 0 2.77-4.8V78.41l14.23 8.24a.5.5 0 0 1 .27.36v39.33A31.73 31.73 0 0 1 92.26 158zM24.2 128.93a31.49 31.49 0 0 1-3.76-21.22l1 .6 33.69 19.43a5.46 5.46 0 0 0 5.5 0L101.79 104v16.43a.58.58 0 0 1-.24.43l-34.09 19.67a31.68 31.68 0 0 1-43.25-11.6zm-8.86-73.31A31.62 31.62 0 0 1 32 41.72v40a5.4 5.4 0 0 0 2.74 4.77l40.95 23.63-14.23 8.23a.55.55 0 0 1-.5 0l-34-19.63a31.73 31.73 0 0 1-11.6-43.26zm116.91 27.16L91.16 58.92l14.19-8.2a.55.55 0 0 1 .5 0l34 19.66a31.66 31.66 0 0 1-4.77 57.09v-40a5.58 5.58 0 0 0-2.86-4.7zm14.16-21.29l-1-.6-33.63-19.6a5.47 5.47 0 0 0-5.53 0L65.13 65V48.59a.48.48 0 0 1 .2-.44l34-19.63a31.7 31.7 0 0 1 47.06 32.83v.13zm-89 29.12l-14.23-8.2a.53.53 0 0 1-.26-.4V42.79a31.69 31.69 0 0 1 52-24.33l-1 .57-33.76 19.43a5.6 5.6 0 0 0-2.76 4.8zM65.1 74l18.33-10.62L101.79 74v21.08l-18.3 10.56-18.36-10.56L65.1 74z"/>
</svg>
