<svg xmlns="http://www.w3.org/2000/svg" viewBox="0 0 195.56 26.86" aria-hidden="true">
  <path fill="currentColor" d="M15.49,2.85A9.59,9.59,0,0,0,9,.78,9.66,9.66,0,0,0,2.56,2.85,7.7,7.7,0,0,0,0,8.75q0,.84,0,2.52t0,2.49a7.7,7.7,0,0,0,2.52,5.89,9.78,9.78,0,0,0,6.49,2,9.75,9.75,0,0,0,6.48-2A7.69,7.69,0,0,0,18,13.76q.06-1.62.06-2.49T18,8.75A7.67,7.67,0,0,0,15.49,2.85ZM12.4,13.59a4.08,4.08,0,0,1-1,2.8A3.27,3.27,0,0,1,9,17.3a3.29,3.29,0,0,1-2.43-.91,4,4,0,0,1-1-2.8q0-.84,0-2.4c0-1,0-1.81,0-2.35a4,4,0,0,1,1-2.8A3.25,3.25,0,0,1,9,5.13,3.23,3.23,0,0,1,11.45,6a4.08,4.08,0,0,1,1,2.8c0,1.08.06,1.86.06,2.35S12.44,12.47,12.4,13.59ZM34.87,7.75A5.68,5.68,0,0,0,30.45,6,5.29,5.29,0,0,0,26,8.06V7a.69.69,0,0,0-.72-.72H21.79a.8.8,0,0,0-.54.2A.7.7,0,0,0,21,7V26.14a.7.7,0,0,0,.21.52.8.8,0,0,0,.54.2h3.74a.69.69,0,0,0,.72-.72V19.73a4.85,4.85,0,0,0,4.2,1.91,5.63,5.63,0,0,0,4.41-1.79,7.55,7.55,0,0,0,1.74-4.93c0-.27,0-.63,0-1.1s0-.82,0-1.07A7.59,7.59,0,0,0,34.87,7.75Zm-3.58,7a3.87,3.87,0,0,1-.65,2.13,2.17,2.17,0,0,1-1.87.77,2.29,2.29,0,0,1-1.84-.74A3.1,3.1,0,0,1,26.25,15c0-.25,0-.61,0-1.07s0-.85,0-1.1a3.48,3.48,0,0,1,.67-2A2.17,2.17,0,0,1,28.77,10a2.16,2.16,0,0,1,1.87.76,3.93,3.93,0,0,1,.65,2.13q0,.3,0,.9T31.29,14.72ZM50.66,7a8.23,8.23,0,0,0-4.21-1A7.61,7.61,0,0,0,41,7.94a7.44,7.44,0,0,0-2.14,5.39v.9a7.39,7.39,0,0,0,2.08,5.52,7.86,7.86,0,0,0,5.57,1.89,9.61,9.61,0,0,0,3.87-.72,6.71,6.71,0,0,0,2.49-1.74,2.91,2.91,0,0,0,.85-1.77A.49.49,0,0,0,53.5,17a.69.69,0,0,0-.45-.16H49.26a1.29,1.29,0,0,0-.51.08,1.59,1.59,0,0,0-.42.36,3.75,3.75,0,0,1-.8.71,2,2,0,0,1-1.11.27,1.9,1.9,0,0,1-1.65-.79,3.61,3.61,0,0,1-.61-2.1v-.18h9.18a.73.73,0,0,0,.76-.75v-.73a9,9,0,0,0-.86-4A6.28,6.28,0,0,0,50.66,7Zm-1.89,5.26H44.16V12.2A3.49,3.49,0,0,1,44.75,10a2,2,0,0,1,1.7-.77,2.08,2.08,0,0,1,1.71.77,3.43,3.43,0,0,1,.61,2.16ZM69.5,6.75A5.74,5.74,0,0,0,66.56,6a6.5,6.5,0,0,0-2.83.58,5.66,5.66,0,0,0-2,1.53V7A.69.69,0,0,0,61,6.29H57.43a.76.76,0,0,0-.51.2.7.7,0,0,0-.21.52V20.63a.73.73,0,0,0,.21.51.74.74,0,0,0,.51.22h3.85a.72.72,0,0,0,.53-.22.76.76,0,0,0,.2-.51V12.72a2.79,2.79,0,0,1,.66-2A2.38,2.38,0,0,1,64.5,10a2.31,2.31,0,0,1,1.81.69,2.89,2.89,0,0,1,.62,2v7.91a.69.69,0,0,0,.22.52.75.75,0,0,0,.54.21h3.85a.69.69,0,0,0,.52-.22.73.73,0,0,0,.21-.51V12.55A8,8,0,0,0,71.53,9,5.25,5.25,0,0,0,69.5,6.75ZM96.84,3.11a9.94,9.94,0,0,0-6.67-2H82.55a.67.67,0,0,0-.52.22.72.72,0,0,0-.2.54v18.8a.73.73,0,0,0,.21.51.74.74,0,0,0,.51.22h7.77q8.72,0,9-7.94c0-.54,0-1.28,0-2.21s0-1.67,0-2.23A7.68,7.68,0,0,0,96.84,3.11Zm-3,10.25a4,4,0,0,1-.92,2.78,3.68,3.68,0,0,1-2.7.87h-2.9V5.42H90a3.88,3.88,0,0,1,2.76.88,3.72,3.72,0,0,1,1,2.74c0,.54.06,1.26.06,2.15S93.83,12.8,93.79,13.36ZM109.3,6a9.25,9.25,0,0,0-3.8.69,6,6,0,0,0-2.29,1.67,3.2,3.2,0,0,0-.78,1.75.5.5,0,0,0,.16.45.62.62,0,0,0,.48.19h3.36a.35.35,0,0,0,.29-.2,3.45,3.45,0,0,0,.66-.47,5,5,0,0,1,.89-.6,2,2,0,0,1,1-.21,1.9,1.9,0,0,1,1.48.5,2.31,2.31,0,0,1,.43,1.56v.35l-3.59.55a10.16,10.16,0,0,0-4.51,1.69,3.82,3.82,0,0,0-1.63,3.2,4,4,0,0,0,.7,2.29,4.73,4.73,0,0,0,2,1.64,6.4,6.4,0,0,0,2.79.59,6,6,0,0,0,2.7-.56,4.65,4.65,0,0,0,1.76-1.46v1a.74.74,0,0,0,.22.51.72.72,0,0,0,.51.22h3.56a.69.69,0,0,0,.52-.22.73.73,0,0,0,.21-.51V11.85a5.47,5.47,0,0,0-1.74-4.27C113.47,6.52,111.69,6,109.3,6Zm1.91,9a3.43,3.43,0,0,1-.8,2.44,2.72,2.72,0,0,1-2.07.84,2.37,2.37,0,0,1-1.41-.41,1.27,1.27,0,0,1-.56-1.07q0-1.27,2.43-1.74l2.41-.41Zm18.86,2.26h-2.29a1.38,1.38,0,0,1-1.21-.52,2.56,2.56,0,0,1-.38-1.54V10.23h3.62a.8.8,0,0,0,.54-.2.71.71,0,0,0,.21-.53V7a.7.7,0,0,0-.21-.52.8.8,0,0,0-.54-.2h-3.62V1.51A.7.7,0,0,0,126,1a.71.71,0,0,0-.53-.21H121.9a.73.73,0,0,0-.51.21.67.67,0,0,0-.21.52V6.29h-2.29a.73.73,0,0,0-.51.2.71.71,0,0,0-.22.52V9.5a.7.7,0,0,0,.22.51.67.67,0,0,0,.51.22h2.29v5.36c0,3.84,2,5.77,6.14,5.77h2.75a.69.69,0,0,0,.52-.22.73.73,0,0,0,.21-.51V18a.73.73,0,0,0-.21-.54A.66.66,0,0,0,130.07,17.21ZM140.1,6a9.28,9.28,0,0,0-3.8.69A6,6,0,0,0,134,8.36a3.2,3.2,0,0,0-.78,1.75.5.5,0,0,0,.16.45.63.63,0,0,0,.48.19h3.36a.34.34,0,0,0,.29-.2,3.81,3.81,0,0,0,.67-.47,4.6,4.6,0,0,1,.88-.6,2,2,0,0,1,1-.21,1.89,1.89,0,0,1,1.48.5,2.31,2.31,0,0,1,.43,1.56v.35l-3.59.55a10.21,10.21,0,0,0-4.51,1.69,3.82,3.82,0,0,0-1.63,3.2,3.9,3.9,0,0,0,.71,2.29,4.7,4.7,0,0,0,2,1.64,6.4,6.4,0,0,0,2.79.59,5.94,5.94,0,0,0,2.7-.56,4.76,4.76,0,0,0,1.77-1.46v1a.73.73,0,0,0,.21.51.74.74,0,0,0,.51.22h3.56a.72.72,0,0,0,.53-.22.76.76,0,0,0,.2-.51V11.85a5.47,5.47,0,0,0-1.74-4.27C144.27,6.52,142.49,6,140.1,6ZM142,15a3.39,3.39,0,0,1-.8,2.44,2.72,2.72,0,0,1-2.07.84,2.32,2.32,0,0,1-1.4-.41,1.26,1.26,0,0,1-.57-1.07c0-.85.81-1.43,2.44-1.74l2.4-.41Zm24.48-4.17L173.25,2a.51.51,0,0,0,.11-.35.58.58,0,0,0-.19-.42.59.59,0,0,0-.42-.19h-4.43a1.19,1.19,0,0,0-1.13.58l-5.13,6.49V1.83a.77.77,0,0,0-.2-.54.67.67,0,0,0-.52-.22h-3.89a.67.67,0,0,0-.52.22.77.77,0,0,0-.2.54v18.8a.75.75,0,0,0,.72.73h3.89a.71.71,0,0,0,.52-.22.76.76,0,0,0,.2-.51V13.71l5.51,7.07a1.24,1.24,0,0,0,.4.39,1.45,1.45,0,0,0,.76.19h4.54a.62.62,0,0,0,.45-.19.58.58,0,0,0,.19-.42.51.51,0,0,0-.11-.35Zm13.62-4.49h-3.62a.76.76,0,0,0-.51.2.7.7,0,0,0-.21.52V20.63a.73.73,0,0,0,.21.51.74.74,0,0,0,.51.22h3.62a.75.75,0,0,0,.54-.21.69.69,0,0,0,.22-.52V7a.71.71,0,0,0-.22-.52A.78.78,0,0,0,180.11,6.29Zm0-6.29h-3.62a.7.7,0,0,0-.51.22.72.72,0,0,0-.21.53v2.7A.72.72,0,0,0,176,4a.66.66,0,0,0,.52.22h3.62a.72.72,0,0,0,.54-.22.73.73,0,0,0,.22-.53V.75a.73.73,0,0,0-.22-.53A.72.72,0,0,0,180.11,0Zm15.25,17.43a.68.68,0,0,0-.53-.22h-2.29a1.38,1.38,0,0,1-1.21-.52,2.63,2.63,0,0,1-.38-1.54V10.23h3.62a.78.78,0,0,0,.54-.2.72.72,0,0,0,.22-.53V7a.71.71,0,0,0-.22-.52.78.78,0,0,0-.54-.2H191V1.51a.7.7,0,0,0-.72-.73h-3.57a.69.69,0,0,0-.5.21.65.65,0,0,0-.22.52V6.29h-2.29a.76.76,0,0,0-.51.2.71.71,0,0,0-.22.52V9.5a.75.75,0,0,0,.73.73h2.29v5.36c0,3.84,2.05,5.77,6.14,5.77h2.75a.72.72,0,0,0,.53-.22.76.76,0,0,0,.2-.51V18A.77.77,0,0,0,195.36,17.43Z"/>
</svg>
