<svg viewBox="0 0 100 100" fill="none" xmlns="http://www.w3.org/2000/svg">
<path d="M81.7542 50L17.9868 12.5763V87.4237L81.7542 50ZM90.4558 42.2641C93.1976 43.8521 94.8891 46.8038 94.8891 50C94.8891 53.1962 93.1976 56.1479 90.4558 57.7359L20.5467 98.772C14.8336 102.129 7 98.294 7 91.036V8.96396C7 1.70596 14.8336 -2.12867 20.5467 1.22802L90.4558 42.2641Z" fill="#394EFF"/>
<path d="M52.8414 47.9371C53.5808 48.3606 54.037 49.1477 54.037 50C54.037 50.8523 53.5808 51.6394 52.8414 52.0629L33.9869 63.0058C32.4461 63.901 30.3333 62.8784 30.3333 60.9429V39.057C30.3333 37.1216 32.4461 36.099 33.9869 36.9941L52.8414 47.9371Z" fill="#3EAAAF"/>
</svg>
