<svg xmlns="http://www.w3.org/2000/svg" viewBox="0 0 244.07 41.25" aria-hidden="true">
  <path fill="currentColor" d="M21.16 4.7V0H5.75v4.7l7.71 4.39zm19.3 8.21a8.52 8.52 0 0 0-2.53.44 19.3 19.3 0 0 0-3.83 1.87l-.41-2.11h-3.08v28.14h3.49v-9.06a15.92 15.92 0 0 0 3.48 1 16.88 16.88 0 0 0 2.55.22 7 7 0 0 0 5.16-1.86 7.16 7.16 0 0 0 1.89-5.32v-6.14q0-3.69-1.89-5.44a6.84 6.84 0 0 0-4.83-1.74zm3.22 13.19a5.59 5.59 0 0 1-.3 2 3.12 3.12 0 0 1-.83 1.26 2.92 2.92 0 0 1-1.23.65 6.14 6.14 0 0 1-1.52.19 14 14 0 0 1-2.55-.25 16.64 16.64 0 0 1-3.15-1V18.63a13.89 13.89 0 0 1 1.45-.87 14.11 14.11 0 0 1 1.64-.76 15.72 15.72 0 0 1 1.6-.53 5.11 5.11 0 0 1 1.33-.2 3.74 3.74 0 0 1 2.59.87 4.16 4.16 0 0 1 1 3.19zm21.19-11.16a7.67 7.67 0 0 0-2.58-1.51 9.81 9.81 0 0 0-3.29-.52 9.49 9.49 0 0 0-3.26.54A7.54 7.54 0 0 0 53.2 15a6.94 6.94 0 0 0-1.68 2.47 8.33 8.33 0 0 0-.61 3.25v5.32a7.22 7.22 0 0 0 .67 3.21 6.45 6.45 0 0 0 1.83 2.29 8 8 0 0 0 2.7 1.46 11.2 11.2 0 0 0 3.25.46 12.39 12.39 0 0 0 3.79-.59 8.12 8.12 0 0 0 3.44-2.17l-2.2-2.39a6.68 6.68 0 0 1-2.6 1.58 8.24 8.24 0 0 1-2.35.41 7 7 0 0 1-1.89-.3 4.38 4.38 0 0 1-1.62-.79 3.86 3.86 0 0 1-1.12-1.38 4.65 4.65 0 0 1-.41-2v-1.39h12.71v-4a8.11 8.11 0 0 0-.58-3.15 6.81 6.81 0 0 0-1.66-2.35zm-1.25 6.66h-9.18v-.9a5.36 5.36 0 0 1 .37-2.05 3.77 3.77 0 0 1 1-1.44 4.28 4.28 0 0 1 1.46-.85 5.21 5.21 0 0 1 1.73-.29 5.7 5.7 0 0 1 1.77.27 3.77 3.77 0 0 1 1.46.85 4.25 4.25 0 0 1 1 1.48 5.76 5.76 0 0 1 .36 2.15zm14.22-7.7a13 13 0 0 0-1.75 1 10.26 10.26 0 0 0-1.34 1.1l-.37-3h-3.12v20.21h3.49V18.79a17 17 0 0 1 2.7-1.32 16.06 16.06 0 0 1 4.49-.95v-3.7a7.77 7.77 0 0 0-2.12.31 11.46 11.46 0 0 0-1.98.77zm14.73-1a16.85 16.85 0 0 0-3.69.45 10.15 10.15 0 0 0-3.94 1.95l1.71 2.64a7 7 0 0 1 3.06-1.56 13.12 13.12 0 0 1 2.58-.38 5.74 5.74 0 0 1 3.37.84 3.33 3.33 0 0 1 1.18 2.94v1.54H91a9.6 9.6 0 0 0-2.29.31 7.71 7.71 0 0 0-2.4 1 6.22 6.22 0 0 0-1.87 1.85 5 5 0 0 0-.75 2.8 5.73 5.73 0 0 0 1.75 4.43 6.59 6.59 0 0 0 4.67 1.62A11.65 11.65 0 0 0 92.8 33a17.81 17.81 0 0 0 3.92-1.73l.12.08.41 1.87h3.08V19.89q0-3.57-1.91-5.3t-5.85-1.73zm4.27 15.19l-1.34.71a16.19 16.19 0 0 1-1.52.71 13 13 0 0 1-1.63.55 6.12 6.12 0 0 1-1.6.23 4.16 4.16 0 0 1-2.54-.74 2.54 2.54 0 0 1-1-2.19 2.91 2.91 0 0 1 .43-1.64 2.71 2.71 0 0 1 1.08-.94 4.62 4.62 0 0 1 1.4-.4 10.22 10.22 0 0 1 1.4-.11h5.32zm17.56 2a12.08 12.08 0 0 1-1.52.1 4.67 4.67 0 0 1-1.3-.16 1.86 1.86 0 0 1-1-.63 3.22 3.22 0 0 1-.61-1.26 7.54 7.54 0 0 1-.23-2v-9.95h5.61v-3.12h-5.61V8.4h-2.54l-.82 4.67h-2.92v3.12h2.84v10.89c0 2.27.48 3.9 1.44 4.87s2.51 1.46 4.65 1.46a17.27 17.27 0 0 0 1.89-.14 11.24 11.24 0 0 0 2.46-.54l-.57-2.93zm5.46 3.19h3.5V13.07h-3.5zm1.71-28.39a2.08 2.08 0 0 0-1.5.63 2 2 0 0 0-.65 1.48 2.08 2.08 0 0 0 .65 1.54 2.06 2.06 0 0 0 1.5.65 2.12 2.12 0 0 0 1.54-.65 2.08 2.08 0 0 0 .65-1.54 2 2 0 0 0-.65-1.53 2.14 2.14 0 0 0-1.54-.65zm20.93 10a8 8 0 0 0-2.65-1.46 10.57 10.57 0 0 0-3.36-.51 10.07 10.07 0 0 0-3.23.51 8 8 0 0 0-2.65 1.46 7.19 7.19 0 0 0-1.79 2.32 6.9 6.9 0 0 0-.67 3.11v5.78a7 7 0 0 0 .65 3.11 6.7 6.7 0 0 0 1.77 2.3 7.93 7.93 0 0 0 2.63 1.42 11.14 11.14 0 0 0 6.47 0 8.39 8.39 0 0 0 2.66-1.42 6.77 6.77 0 0 0 1.84-2.3 7 7 0 0 0 .67-3.11v-5.84a7.63 7.63 0 0 0-.61-3.11 6.63 6.63 0 0 0-1.73-2.32zm-1.15 10.51a4.93 4.93 0 0 1-.45 2.2 4.19 4.19 0 0 1-1.16 1.47 4.31 4.31 0 0 1-1.56.81 6.18 6.18 0 0 1-1.67.24 7.4 7.4 0 0 1-1.91-.24 3.75 3.75 0 0 1-2.6-2.28 5.58 5.58 0 0 1-.39-2.2v-4.52a4.9 4.9 0 0 1 .45-2.2 4.18 4.18 0 0 1 1.15-1.48 4.58 4.58 0 0 1 1.57-.8 5.8 5.8 0 0 1 3.37 0 4.45 4.45 0 0 1 1.56.8 4.32 4.32 0 0 1 1.16 1.48 4.9 4.9 0 0 1 .45 2.2zm17.46-12.54a9.6 9.6 0 0 0-2.64.41 14 14 0 0 0-1.85.73 24.73 24.73 0 0 0-2.32 1.3l-.4-2.23h-3.09v20.14H152v-14.7a19.09 19.09 0 0 1 3.19-1.61 8.4 8.4 0 0 1 2.86-.62 3.41 3.41 0 0 1 2.56.91 4.41 4.41 0 0 1 1 3.31v12.71h3.49V20.05a7.74 7.74 0 0 0-1.66-5.32 5.91 5.91 0 0 0-4.63-1.87zm14.71 5.82a4.16 4.16 0 0 1 1.09-1.47 4.06 4.06 0 0 1 1.5-.81 5.9 5.9 0 0 1 1.61-.25 8.37 8.37 0 0 1 2.05.31 6.12 6.12 0 0 1 2.5 1.56l2.07-2.65a6.59 6.59 0 0 0-3.23-2 13.78 13.78 0 0 0-3.55-.48 9 9 0 0 0-3 .51 7.44 7.44 0 0 0-2.56 1.46 7.17 7.17 0 0 0-1.74 2.35 7.07 7.07 0 0 0-.65 3.09v6a6.93 6.93 0 0 0 .59 2.9 6.28 6.28 0 0 0 1.66 2.25 8 8 0 0 0 2.54 1.47 9.55 9.55 0 0 0 3.25.52 11.56 11.56 0 0 0 3.47-.53 7.59 7.59 0 0 0 3.15-2l-2.16-2.45a5 5 0 0 1-2.21 1.3 8.26 8.26 0 0 1-2.17.36 6.11 6.11 0 0 1-1.69-.24 3.83 3.83 0 0 1-1.48-.81 4.08 4.08 0 0 1-1.05-1.47 5.21 5.21 0 0 1-.41-2.2v-4.52a5 5 0 0 1 .42-2.2zm27.89-3.85a8 8 0 0 0-2.65-1.46 10.53 10.53 0 0 0-3.36-.51 10.12 10.12 0 0 0-3.23.51 8 8 0 0 0-2.65 1.46 7.33 7.33 0 0 0-1.79 2.32 6.9 6.9 0 0 0-.67 3.11v5.84a7.18 7.18 0 0 0 .65 3.11 6.82 6.82 0 0 0 1.77 2.3 7.93 7.93 0 0 0 2.63 1.42 11.14 11.14 0 0 0 6.47 0 8.55 8.55 0 0 0 2.67-1.42 6.71 6.71 0 0 0 2.5-5.41v-5.84a7.47 7.47 0 0 0-.61-3.11 6.63 6.63 0 0 0-1.73-2.32zm-1.15 10.57a4.9 4.9 0 0 1-.45 2.2 4.08 4.08 0 0 1-1.16 1.47 4.31 4.31 0 0 1-1.56.81 6.13 6.13 0 0 1-1.67.24 7.27 7.27 0 0 1-1.9-.24 3.74 3.74 0 0 1-2.58-2.28 5.55 5.55 0 0 1-.39-2.2v-4.52a4.9 4.9 0 0 1 .45-2.2 4.08 4.08 0 0 1 1.16-1.47 4.31 4.31 0 0 1 1.56-.81 6.3 6.3 0 0 1 1.7-.25 6.15 6.15 0 0 1 1.67.25 4.31 4.31 0 0 1 1.56.81 4.08 4.08 0 0 1 1.16 1.47 4.9 4.9 0 0 1 .45 2.2zM220.64 14a24 24 0 0 0-3.47-.89 16.61 16.61 0 0 0-2.58-.25 7.94 7.94 0 0 0-2.76.49 6.64 6.64 0 0 0-2.25 1.4 6.55 6.55 0 0 0-1.51 2.25 8.08 8.08 0 0 0-.54 3v6.18a9.15 9.15 0 0 0 .5 3.22 6.07 6.07 0 0 0 1.4 2.24 5.76 5.76 0 0 0 2.14 1.3 8.31 8.31 0 0 0 2.7.42 8.57 8.57 0 0 0 2.53-.36 19.71 19.71 0 0 0 3.84-1.84l.41 2.08h3.08V4.13h-3.49zm0 13.76a13.6 13.6 0 0 1-1.5.92 16.73 16.73 0 0 1-1.62.75 10.81 10.81 0 0 1-1.59.51 6 6 0 0 1-1.34.18 3.77 3.77 0 0 1-2.6-.87 4.21 4.21 0 0 1-1-3.2v-5.58a4.29 4.29 0 0 1 1.14-3.36 3.91 3.91 0 0 1 2.76-1 11.41 11.41 0 0 1 2.68.35c.94.23 2 .54 3 .92zm23.43-3.32v-4a8.15 8.15 0 0 0-.58-3.15 6.81 6.81 0 0 0-1.66-2.37 7.67 7.67 0 0 0-2.58-1.51 9.85 9.85 0 0 0-3.28-.52 9.45 9.45 0 0 0-3.26.54 7.44 7.44 0 0 0-2.55 1.57 7 7 0 0 0-1.68 2.47 8.33 8.33 0 0 0-.61 3.25v5.32a7.22 7.22 0 0 0 .67 3.21 6.58 6.58 0 0 0 1.83 2.3 8.2 8.2 0 0 0 2.7 1.38 11.2 11.2 0 0 0 3.25.46 12.8 12.8 0 0 0 3.8-.58 8.28 8.28 0 0 0 3.43-2.18l-2.2-2.39a6.68 6.68 0 0 1-2.6 1.58 8.3 8.3 0 0 1-2.35.41 7 7 0 0 1-1.89-.25 4.38 4.38 0 0 1-1.62-.79 3.78 3.78 0 0 1-1.12-1.38 4.65 4.65 0 0 1-.41-2v-1.37zM231.4 20.7a5.36 5.36 0 0 1 .37-2.05 3.77 3.77 0 0 1 1-1.44 4.28 4.28 0 0 1 1.46-.85 5.21 5.21 0 0 1 1.74-.29 5.7 5.7 0 0 1 1.77.27 3.77 3.77 0 0 1 1.46.85 4.25 4.25 0 0 1 1 1.48 5.79 5.79 0 0 1 .36 2.15v.78h-9.16zM13.45 9.76A13.46 13.46 0 1 0 26.91 23.2 13.46 13.46 0 0 0 13.45 9.76zM19 30.92L13.46 28l-5.59 2.92 1.07-6.22-4.52-4.4 6.24-.91 2.8-5.65 2.79 5.65 6.24.91L18 24.7z"/>
</svg>
