<svg xmlns="http://www.w3.org/2000/svg" viewBox="0 0 612.1 131.2" aria-hidden="true" fill="currentColor">
  <path d="M106.7 59.9l1.3-12.8a37.55 37.55 0 0 0-4.1-16l-6.6 9.3a27.2 27.2 0 0 1 1 9.9C97 66.2 82.6 79.1 66.1 79.1a29.36 29.36 0 0 1-10.9-1.9l40-41.7 16.9-17.1-12.1 6.3c-7.9-10.1-20.7-16-35.4-15.4-25.2 1-46.6 21.5-48 45.8s18.2 43.1 43.5 42.2c22.3-.8 41.6-16.8 46.6-37.4zM152.1 70c.6-6.8 0-11.8-1.6-14.9-1.8-3.1-4.8-4.6-9.3-4.6a17.42 17.42 0 0 0-5.9 1 22.57 22.57 0 0 0-5.9 2.8l-3.5 35.2a11.18 11.18 0 0 0 3.8 1 35.27 35.27 0 0 0 5 .3c5.3 0 9.4-1.6 12.4-5.1 2.5-3.4 4.4-8.6 5-15.7zm49.3 37c-9 0-15.2-1.8-18.8-5.4s-5.1-9.6-4.1-18.1l3.4-32.8H174a59.2 59.2 0 0 1 1 18.8c-1.2 11.2-4.8 20.2-11.2 27.1s-13.7 10.3-21.9 10.3a26.88 26.88 0 0 1-9-1.2 36.9 36.9 0 0 1-7.9-3.7l-3 29.1h-21.9l4-39.6c-12 15.8-30.3 25.8-50.4 25.8C21.6 117.3-2.2 91 .4 58.6S31-.1 62.9-.1a53.5 53.5 0 0 1 40 17.5l18.4-7.1-10.9 18.4c1 2.2 1.9 4.3 2.8 6.6h17.9l-.6 7.2a50 50 0 0 1 10.4-6.6 28.48 28.48 0 0 1 11.9-2.6 22.24 22.24 0 0 1 9.6 1.9h20.7l1.9-20h21.8l-1.9 20h21l-1.5 15.2h-21l-2.5 24.9c-.2 2.5-.3 4.6-.5 6.5a11.7 11.7 0 0 0 .5 5 5.68 5.68 0 0 0 2.6 3.5c1.3.9 3.7 1.2 6.3 1.2a24.07 24.07 0 0 0 4.6-.6 34.3 34.3 0 0 0 4.1-1.3h1.8l-1.5 15.4a59.9 59.9 0 0 1-7.8 1.5c-2.4.2-5.8.5-9.6.5zm-163-56.7c1.3-15.9 15.7-28.8 32.2-28.8a28.72 28.72 0 0 1 20.5 8.4l-49 36.3a25.64 25.64 0 0 1-3.7-15.9zm207 55.3h-21.8l6.9-70.2h21.8zm8.7-80.1H231l1.6-17.1h23.1zm80 80.1l3.5-35c.3-3.5.5-6.3.6-8.8a19.85 19.85 0 0 0-.5-5.8 6 6 0 0 0-2.6-3.4 12.15 12.15 0 0 0-5.3-1 10.23 10.23 0 0 0-5 1.2 21.25 21.25 0 0 0-5.6 3.1l-5 49.6h-21.9l3.5-35c.3-3.5.5-6.3.6-8.7a19.16 19.16 0 0 0-.5-5.8 6 6 0 0 0-2.6-3.4 12.15 12.15 0 0 0-5.3-1 10.85 10.85 0 0 0-5.3 1.2 34.45 34.45 0 0 0-5.3 3l-5 49.6h-21.8l6.9-70.2h21.8l-.9 7.8a85.32 85.32 0 0 1 10.7-7.1 23.1 23.1 0 0 1 10.9-2.6 19.5 19.5 0 0 1 11.1 3.1c3.1 1.9 5.1 5.1 6.5 9.1a67.34 67.34 0 0 1 12.8-9 24 24 0 0 1 11.8-3.1 23 23 0 0 1 8.7 1.5 16.5 16.5 0 0 1 6.2 4.6 23.16 23.16 0 0 1 3.7 8.1 36 36 0 0 1 .3 12.1l-4.4 45.5-22.6.4zm57.1-80.1h-23.1l1.6-17.1h23.1zm56.5 63.4c-2.6-5.4-3.5-12.1-2.6-19.9 1.2-11.5 5.3-20.7 12.5-27.5s16.8-10.3 28.7-10.3c10.7 0 18.5 3 23.4 8.7s6.8 14.1 5.6 24.9l-.9 7.9h-47.8a21.84 21.84 0 0 0 1.2 8.2 11.1 11.1 0 0 0 4.1 5.1 15.9 15.9 0 0 0 6.3 2.8 40.13 40.13 0 0 0 8.1.9 28.7 28.7 0 0 0 7.6-.9 32.86 32.86 0 0 0 6.9-2.3 40.33 40.33 0 0 0 5.1-2.6 23.23 23.23 0 0 0 4-2.5h2.3l-1.8 18.1c-1.8.6-3.7 1.3-5.1 1.9s-3.7 1.2-6.3 1.8a63.83 63.83 0 0 1-7.6 1.5 57.58 57.58 0 0 1-6.6.5H360.2l6.9-70.2h21.8l-5.3 53.1 34.9-36.5h-26l1.8-16 53-.3-1.3 14.3-37.2 39.3zm46.5-29.3c.3-4.6-.3-8.1-2.2-10.6s-4.6-3.7-8.8-3.7a14.8 14.8 0 0 0-10.4 3.8 17.63 17.63 0 0 0-5 10.4l26.4.1zm117.9-26l-45 95.8h-23.5l13.3-27.5-14.9-54-5.6 55.6h-21.8l9.7-97.1h21.8l-2.6 26.9h17.6l10.3 44 18.2-44 22.5.3z"/>
</svg>
