<svg
  version="1.1"
  aria-labelledby="paypal-logo-title"
  role="img"
  xmlns="http://www.w3.org/2000/svg"
  viewBox="0 0 281.46 75"
  fill="currentColor"
  aria-hidden="true"
>
  <title id="paypal-logo-title">Paypal logo</title>
  <path d="M33.83 0h-21.9a3 3 0 0 0-3 2.6L0 58.7a1.82 1.82 0 0 0 1.8 2.1h10.5a3 3 0 0 0 3-2.6l2.4-15.1a3 3 0 0 1 3-2.6h6.9c14.4 0 22.7-7 24.9-20.8C54.63 7.2 48.33 0 33.83 0zm2.5 20.5c-1.2 7.9-7.2 7.9-13 7.9H20l2.3-14.7a1.75 1.75 0 0 1 1.8-1.5h1.5c6.13-.1 12.03 0 10.73 8.3zm62.9-.2h-10.5a1.83 1.83 0 0 0-1.8 1.5l-.5 2.9-.7-1.1c-2.3-3.3-7.3-4.4-12.4-4.4-11.5.1-21.4 8.8-23.3 21.2-1.6 9.5 2.7 21.4 17.1 21.4a20.12 20.12 0 0 0 14.5-6l-.5 2.9a1.82 1.82 0 0 0 1.8 2.1h9.4a3 3 0 0 0 3-2.6L101 22.3a1.78 1.78 0 0 0-1.77-2zm-14.6 20.4a11.68 11.68 0 0 1-11.8 10c-6.4 0-9.7-4.4-8.7-10.2a11.75 11.75 0 0 1 11.7-10.1c6.17 0 9.7 4.4 8.8 10.3zm70.5-20.4h-10.5a3 3 0 0 0-2.5 1.3L127.53 43l-6.2-20.6a3.1 3.1 0 0 0-2.9-2.2H108a1.78 1.78 0 0 0-1.7 2.4l11.6 34.1L107 72.1a1.83 1.83 0 0 0 1.5 2.9H119a3.13 3.13 0 0 0 2.5-1.3l35-50.6a1.75 1.75 0 0 0-1.37-2.8zM189.83 0h-21.9a3 3 0 0 0-3 2.6L156 58.7a1.82 1.82 0 0 0 1.8 2.1h10.5a3 3 0 0 0 3-2.6l2.4-15.1a3 3 0 0 1 3-2.6h6.9c14.4 0 22.7-7 24.9-20.8C210.63 7.2 204.33 0 189.83 0zm2.5 20.5c-1.2 7.9-7.2 7.9-13 7.9H176l2.3-14.7a1.75 1.75 0 0 1 1.8-1.5h1.5c6.13-.1 12.03 0 10.73 8.3zm62.9-.2h-10.5a1.83 1.83 0 0 0-1.8 1.5l-.5 2.9-.7-1.1c-2.3-3.3-7.3-4.4-12.4-4.4-11.5.1-21.4 8.8-23.3 21.2-1.6 9.5 2.7 21.4 17.1 21.4a20.12 20.12 0 0 0 14.5-6l-.5 2.9a1.82 1.82 0 0 0 1.8 2.1h9.4a3 3 0 0 0 3-2.6L257 22.3a1.78 1.78 0 0 0-1.77-2zm-14.6 20.4a11.68 11.68 0 0 1-11.8 10c-6.4 0-9.7-4.4-8.7-10.2a11.75 11.75 0 0 1 11.7-10.1c6.17 0 9.7 4.4 8.8 10.3zm39-40.7h-10.1a1.92 1.92 0 0 0-1.8 1.5l-9 57.2a1.82 1.82 0 0 0 1.8 2.1h9a3 3 0 0 0 3-2.6l8.9-56.1a1.82 1.82 0 0 0-1.8-2.1z"/>
</svg>
