<svg xmlns="http://www.w3.org/2000/svg" viewBox="0 0 199.49 58.57" aria-hidden="true" fill="currentColor">
  <path d="M34.6 14.08l4.22-7.34a4.5 4.5 0 1 0-7.77-4.5L26.82 9.6A20.64 20.64 0 0 0 1.16 36.1L9 22.56a13.46 13.46 0 1 1 4.93 18.4l4.48-7.8A4.5 4.5 0 1 0 16.76 27L2.45 51.84a4.5 4.5 0 1 0 7.76 4.5L14.46 49A20.65 20.65 0 0 0 34.6 14.08zm102 8.9h5.63v16.2h4.07V23h5.64v-3.6h-15.38zm29.9-3.83a10.15 10.15 0 1 0 10.2 10.14 10 10 0 0 0-10.22-10.16zm0 16.66c-3.6 0-6-2.8-6-6.5s2.45-6.5 6-6.5 6 2.8 6 6.5-2.42 6.5-6.02 6.5zM60.54 19.4H53.6v19.77h4.06V32.7h2.88c4 0 7.35-2 7.35-6.67s-3.33-6.63-7.37-6.63zm-.12 9.7h-2.74V23h2.76c1.95 0 3.28.84 3.28 3s-1.28 3.1-3.28 3.1zM77.93 31h7.93v-3.5h-7.93V23h9v-3.6H73.85v19.77h13.48V35.6h-9.4zM195.7 19.4v8.28c0 1.36.25 3.6.25 3.6a27.94 27.94 0 0 0-2.32-2.7l-10-9.36h-.4v19.95h3.8v-8.3a34.75 34.75 0 0 0-.3-3.6 29.46 29.46 0 0 0 2.35 2.7l10 9.37h.4V19.4zm-97.46 0h-4.07v19.77h13V35.6h-8.93zm23.76-.26a10.15 10.15 0 1 0 10.22 10.14A10 10 0 0 0 122 19.14zm0 16.66c-3.6 0-6-2.82-6-6.5s2.44-6.52 6-6.52 6 2.82 6 6.5-2.45 6.52-6 6.52z"/>
</svg>
