<svg xmlns="http://www.w3.org/2000/svg" viewBox="0 0 445.38 445.38"><defs><style>.cls-3{fill:none;stroke-linecap:round;stroke-width:12.47px;stroke:#fff;stroke-linejoin:round}</style></defs><path d="M329.86 324.23c2.83-23.6 2-27.07 19.56-23.24l4.47.39c13.51.61 31.2-2.17 41.58-7 22.37-10.38 35.63-27.7 13.58-23.15-50.3 10.38-53.76-6.65-53.76-6.65 53.11-78.81 75.31-178.84 56.15-203.33-52.27-66.78-142.75-35.2-144.26-34.38l-.48.09a179.3 179.3 0 00-33.56-3.5c-22.76-.37-40 6-53.13 15.91 0 0-161.41-66.5-153.9 83.62 1.6 31.94 45.78 241.66 98.47 178.31 19.26-23.16 37.87-42.74 37.87-42.74a48.82 48.82 0 0031.91 8.14l.9-.76a34.87 34.87 0 00.36 9c-13.57 15.16-9.58 17.83-36.72 23.41-27.46 5.66-11.33 15.74-.8 18.37 12.77 3.19 42.3 7.72 62.27-20.22l-.8 3.18c5.33 4.26 5 30.62 5.72 49.46s2 36.41 5.86 46.77 8.37 37.05 44 29.4c29.81-6.38 52.6-15.58 54.68-101.1" stroke="#000" stroke-width="37.4"/><path d="M409.05 271.23c-50.3 10.38-53.76-6.65-53.76-6.65 53.11-78.81 75.31-178.85 56.15-203.33-52.27-66.79-142.75-35.2-144.26-34.38l-.48.09a178.47 178.47 0 00-33.56-3.5c-22.77-.37-40 6-53.13 15.9C180 39.36 18.6-27.13 26.1 123c1.6 31.94 45.78 241.66 98.48 178.31 19.26-23.16 37.86-42.74 37.86-42.74a48.83 48.83 0 0031.91 8.14l.9-.76a35.32 35.32 0 00.36 9c-13.61 15.17-9.61 17.84-36.72 23.42-27.46 5.66-11.33 15.74-.79 18.37 12.76 3.19 42.3 7.72 62.26-20.22l-.79 3.18c5.31 4.26 9.05 27.72 8.42 49s-1 35.86 3.15 47.26 8.37 37.05 44 29.4c29.81-6.38 45.26-22.94 47.41-50.55 1.52-19.63 5-16.73 5.19-34.28l2.77-8.31c3.19-26.61.51-35.2 18.87-31.2l4.46.39c13.52.61 31.21-2.18 41.6-7 22.35-10.38 35.61-27.7 13.57-23.15z" fill="#336791"/><path class="cls-3" d="M222.52 286.48c-1.38 49.52.35 99.38 5.19 111.5s15.23 35.69 50.9 28c29.81-6.39 40.66-18.75 45.36-46 3.47-20.08 10.15-75.85 11-87.28M179.76 38.26s-161.52-66-154 84.11C27.35 154.3 71.53 364 124.22 300.68c19.26-23.16 36.67-41.33 36.67-41.33M267 26.21C261.41 28 356.85-8.68 411.09 60.62c19.16 24.49-3 124.52-56.15 203.33"/><path d="M354.94 264s3.46 17 53.76 6.66c22-4.56 8.78 12.77-13.57 23.15-18.35 8.52-59.48 10.7-60.15-1.07-1.73-30.35 21.65-21.13 20-28.74-1.53-6.85-12-13.57-18.89-30.33-6-14.64-82.8-126.85 21.28-110.19 3.81-.79-27.14-99-124.55-100.6S138.59 142.6 138.59 142.6" stroke-linejoin="bevel" stroke="#fff" fill="none" stroke-linecap="round" stroke-width="12.47"/><path class="cls-3" d="M195.26 274.33c-13.58 15.17-9.58 17.83-36.72 23.42-27.46 5.66-11.33 15.73-.8 18.37 12.77 3.19 42.31 7.71 62.27-20.23 6.07-8.51 0-22.09-8.39-25.55-4-1.67-9.43-3.77-16.36 4z"/><path class="cls-3" d="M194.37 274.07c-1.37-8.92 2.93-19.53 7.54-31.94 6.92-18.63 22.89-37.26 10.11-96.34-9.52-44-73.39-9.17-73.43-3.19s2.89 30.25-1.07 58.54c-5.16 36.92 23.48 68.14 56.48 64.94"/><path d="M179.17 141.7c-.29 2 3.74 7.48 9 8.21s9.71-3.53 10-5.56-3.74-4.29-9-5-9.72.34-10 2.37z" stroke-width="4.16" fill="#fff" stroke="#fff"/><path d="M338.6 137.54c.28 2-3.73 7.48-9 8.21s-9.72-3.52-10-5.56 3.74-4.28 9-5 9.72.33 10 2.36z" stroke-width="2.08" fill="#fff" stroke="#fff"/><path class="cls-3" d="M357.33 123.43c.86 16-3.44 26.89-4 43.92-.8 24.74 11.8 53.07-7.19 81.43"/></svg>
