<svg xmlns="http://www.w3.org/2000/svg" viewBox="0 0 985.8 360" aria-hidden="true" fill="currentColor"><path d="M297 229.7a122.82 122.82 0 0 0 10.3-49.6 119.42 119.42 0 0 0-10.2-49.6c-6.2-15.6-15.6-29-27.1-40.7a129.47 129.47 0 0 0-40.7-27.3 127.33 127.33 0 0 0-99.4 0 125.77 125.77 0 0 0-67.7 68c-7 15.6-10.1 32.1-10.1 49.6a120.65 120.65 0 0 0 10.1 49.6 128 128 0 0 0 27.1 40.5 125.87 125.87 0 0 0 40.5 27.3 127.39 127.39 0 0 0 49.8 10.1 125.34 125.34 0 0 0 49.6-10.1 131.19 131.19 0 0 0 40.7-27.3 126.91 126.91 0 0 0 27.1-40.5zM225.2 288a118.3 118.3 0 0 1-91 0 118.6 118.6 0 0 1-37.4-25.2 116.32 116.32 0 0 1-24.9-37.2 119.05 119.05 0 0 1 0-91.3A117.05 117.05 0 0 1 134.1 72a114.14 114.14 0 0 1 45.5-9.1 115 115 0 0 1 82.6 34.3 118.44 118.44 0 0 1 25.2 37.1 116.12 116.12 0 0 1 .1 91.3 118.87 118.87 0 0 1-25.2 37.2 116.2 116.2 0 0 1-37.1 25.2zM179.6 73.2q-44.25 0-75.3 31.4c-21.1 20.8-31.4 46-31.4 75.5 0 29.2 10.3 54.4 31.4 75 20.6 20.8 45.8 31.4 75.3 31.4 29.2 0 54.4-10.6 75.3-31.4 20.9-20.6 31.1-45.8 31.1-75 0-29.5-10.3-54.7-31.1-75.5s-46-31.4-75.3-31.4zm68.1 174.7c-18.9 18.7-41.7 28-68.1 28-26.6 0-49.4-9.3-67.8-28-18.9-18.7-28.3-41.5-28.3-67.8 0-26.8 9.4-49.4 28.3-68.1 18.5-18.9 41.2-28.3 67.8-28.3 26.4 0 49.1 9.3 68.1 28.3 18.7 18.7 27.8 41.2 27.8 68.1 0 26.4-9.1 49.1-27.8 67.8zM179.6 94.5c-23.5 0-43.9 8.2-60.6 24.9S94.1 156.3 94.1 180c0 23.5 8.1 43.6 24.9 60.4s37.1 25.2 60.6 25.2c23.7 0 43.6-8.4 60.4-25.1s25.2-36.9 25.2-60.4q0-35.55-25.2-60.6c-16.8-16.8-36.6-25-60.4-25zm74.8 89.2c-.7 20.8-9.1 38.1-24.4 52-15.6 13.9-33.6 20.4-54.2 19.2q-31.2-1.8-52-24.4c-13.7-15.6-20.1-33.5-19.2-54.4 1.2-20.6 9.3-37.9 24.9-51.7 15.1-13.9 33.3-20.1 54.2-19.2 20.4 1 37.6 9.4 51.5 24.7s20.4 33.2 19.2 53.8zM172.9 118v123.9h.1a30.73 30.73 0 0 0 6.9.5 30.73 30.73 0 0 0 6.9-.5h.1V118c-2.3-.2-4.6-.4-7-.4s-4.7.2-7 .4zm-48.1 91.4a59.63 59.63 0 0 0 6.2 9.5V141a60.46 60.46 0 0 0-13.6 38.9c0 10.9 2.4 20.9 7.4 29.5zm20.1 22.3c.1.1.2.1.3.2a59.66 59.66 0 0 0 13.6 6.8V121.1a60.43 60.43 0 0 0-13.9 7zm83.9-12.9a67.44 67.44 0 0 0 6.2-9.2 61 61 0 0 0 7.1-29.5c0-14.8-4.3-27.8-13.3-38.9zm-27.8 20a59.66 59.66 0 0 0 13.6-6.8c.1-.1.2-.2.3-.2V128.3a58.88 58.88 0 0 0-13.9-7.1zM38.3 187.5l-38.2 2A181.83 181.83 0 0 0 2 207.9l37.8-6a109.57 109.57 0 0 1-1.5-14.4zm64.3-126.4L81.7 29a165.43 165.43 0 0 0-15.3 11.1l24.1 29.7c3.9-3 7.9-6 12.1-8.7zm-55.2 68.1l-35.8-13.6a176.25 176.25 0 0 0-5.8 17.8l37 9.9c1.3-4.8 2.9-9.5 4.6-14.1zm-7.6 28.5l-37.9-5.9C1 158 .3 164.2 0 170.5l38.2 2a145.54 145.54 0 0 1 1.6-14.8zm13.6 86.6l-34.1 17.5a172.22 172.22 0 0 0 9.3 16.1l32.2-20.7c-2.6-4.1-5.1-8.4-7.4-12.9zM79.6 79.8L52.3 52.9a179.59 179.59 0 0 0-12.4 13.8l29.9 24a125.22 125.22 0 0 1 9.8-10.9zm-18.7 23L28.7 82.1a189.22 189.22 0 0 0-9.5 16.4l34.1 17.4c2.4-4.6 4.9-8.9 7.6-13.1zM290 91l29.7-24.3a166.25 166.25 0 0 0-12.6-13.9l-27.2 26.9c3.5 3.6 6.9 7.3 10.1 11.3zm-21.1-21.1l24.3-29.6c-5-4-10.2-7.8-15.6-11.3l-20.7 32.2a131.18 131.18 0 0 1 12 8.7zm37.1 45.8l34.1-17.5a162.6 162.6 0 0 0-9.4-16.2l-32.1 20.9a109 109 0 0 1 7.4 12.8zm10.6 27.5l37-9.8a181.79 181.79 0 0 0-5.8-18.1L312 129.2a127.4 127.4 0 0 1 4.6 14zm4.7 29.4v.1l38.2-2v-.1a166.26 166.26 0 0 0-2-18.8l-37.8 6c.7 4.9 1.3 9.8 1.6 14.8zM157.7 40l-6.3-37.8a179.84 179.84 0 0 0-18.3 3.9l10 37a140 140 0 0 1 14.6-3.1zM129 47.7l-13.7-35.8a176.76 176.76 0 0 0-17.2 7.7l17.5 34.1c4.4-2.2 8.9-4.2 13.4-6zm58.1-9.3l2-38.2c-6.2-.3-12.5-.3-18.8 0l2 38.2a146.1 146.1 0 0 1 14.8 0zm74.4-18.8a164.36 164.36 0 0 0-17.1-7.6l-13.8 35.7a129.62 129.62 0 0 1 13.7 6.1zM226.3 6.1c-6.1-1.6-12.2-2.9-18.5-3.9L202 40a134.76 134.76 0 0 1 14.6 3.1zM42.9 216.9l-37 9.8a175.78 175.78 0 0 0 5.7 17.8L47.4 231q-2.55-7.05-4.5-14.1zm255.7 40.3l32.1 20.9c3.4-5.3 6.6-10.8 9.5-16.4L306 244.4a125.1 125.1 0 0 1-7.4 12.8zm-18.7 23l27 27.1a187.91 187.91 0 0 0 12.7-14.1l-29.9-24a102.62 102.62 0 0 1-9.8 11zm-22.8 18.6l20.7 32.2q7.95-5.25 15.3-11.1l-24.3-29.7a125.79 125.79 0 0 1-11.7 8.6zm55-68l35.8 13.7c2.2-5.9 4.2-11.9 5.9-18.1l-37.1-9.7c-1.3 4.8-2.9 9.5-4.6 14.1zm7.6-28.5l37.9 5.9c1-6.2 1.6-12.5 2-18.9l-38.2-2c-.4 5.1-.9 10.1-1.7 15zm-89 109.9l13.5 35.9c6-2.3 11.7-4.9 17.4-7.7l-17.4-34.1a134.53 134.53 0 0 1-13.5 5.9zM98 340.4c5.6 2.8 11.4 5.4 17.3 7.7l13.5-35.8c-4.6-1.8-9.1-3.8-13.4-6zM201.9 320l6 37.8a187.76 187.76 0 0 0 18.4-3.9l-9.8-37a145.72 145.72 0 0 1-14.6 3.1zm-29.5 1.5l-2.2 38.2c6.3.3 12.6.3 19 0l-2-38.2a121.8 121.8 0 0 1-14.8 0zm-39.2 32.4a185.78 185.78 0 0 0 18.3 3.9l6.1-37.8a136.31 136.31 0 0 1-14.4-3.1zM69.5 269l-29.7 24.2a187.29 187.29 0 0 0 12.6 14l27.2-27A136 136 0 0 1 69.5 269zm21.1 21.2l-24.2 29.7A165.42 165.42 0 0 0 81.7 331l21-32c-4.2-2.8-8.2-5.7-12.1-8.8zM504.1 92.5h-72.5v179h34.7v-60h39c33.3 0 55.8-29 55.8-59.5 0-29.2-23.9-59.5-57-59.5zm-.8 88.5h-36.9v-58h35.4c12.4 0 24 10.6 24 29 0 17.6-9.6 29-22.5 29zm108.6-13.3v-28.3h-31v132.3h33.8v-78.3c7.1-14.9 24.5-26.5 44.9-26.8V138a38 38 0 0 0-6.8-.3c-14.2 0-31.6 12.1-40.9 30zm126.7-30.6c-43.2 0-69.9 31.5-69.9 69.1 0 36.6 25.4 67.9 70.8 68 29.3 0 52-14.4 61.6-34.6l-28.5-10.8c-4.3 10.8-16.9 20.6-32.9 20.6-17.7 0-33.3-12.4-35.1-33.1h98.6a74.59 74.59 0 0 0 1.1-12c0-35.9-22.6-67.2-65.7-67.2zM704 194.4c1.6-19.7 15.9-32.8 34.1-32.8 18.5 0 32.8 13.1 34.6 32.8zM967.1 123c9.6 0 18.7-8.6 18.7-18.7 0-9.8-9.1-18.4-18.7-18.4-9.9 0-18.7 8.6-18.7 18.4s8.8 18.7 18.7 18.7zm-16.9 148.6H984V139.4h-33.8zm-22.9-132.3H816.2v27.2h61.1l-68.4 105.1h118.9v-27.3h-69z"/></svg>
