<svg xmlns="http://www.w3.org/2000/svg" viewBox="0 0 237.13 75.81" aria-hidden="true">
  <path fill="currentColor" d="M42.14 10.56zM.94 1.07zm42.19 12.22c2.72 0 3.4 1.48 3.4 4.7v17.4c0 9.23 5.14 14 15 14 10.46 0 14.67-4.58 14.67-14.86V18c0-3.28.74-4.7 3.41-4.7h1.11v-2.74c-2.42.06-4.89.12-7.37.12s-5.07-.06-7.73-.12v2.73h1c3.59 0 4.27 1.23 4.27 4.89v16.71c0 6.94-2.23 10.16-8.73 10.16s-8.79-3.22-8.79-10.28V18c0-3.53.62-4.7 4-4.7h1.05v-2.74c-2.66.06-5.32.13-8.05.13s-5.45-.07-8.23-.13v2.73zm58.07 35.23v-2.73h-1c-3.15 0-4-1.24-4-4.7V31.3h3.4c5.13 0 6.31 1.49 7.73 5.57.68 2.05 1.06 6.2 3.1 11.65h10.22v-2.73H120c-3.16 0-4.21-1.86-5.26-6.13-1.49-5.94-1.86-9.35-6.63-10.15a8.7 8.7 0 0 0 6.93-8.86c0-7.18-4.83-10.09-15-10.09H84.18v2.73h1c3.16 0 4.08 1.3 4.08 4.7v23.1c0 3.46-.86 4.7-4.08 4.7h-1v2.73c2.85-.13 5.63-.13 8.48-.13s5.7 0 8.54.13zm-5.07-34.31h4c5.82 0 8.42 2.11 8.42 7.13 0 4.82-3 6.68-9.29 6.68h-3.13zM236 37.19h-3.1c-.06 6.81-1 7.55-6.87 7.55h-8.73V30.62h3c4.52 0 5.63.44 5.7 5.08h2.78V22.2H226c0 4.77-1.05 5.08-5.75 5.08h-2.91V14.46h9c5 0 6.32.37 6.32 5.2v1h3.16v-9.9h-30.4v2.54h1c3.22 0 4 1.3 4 4.7v23.1c0 3.4-.74 4.7-4 4.7h-1.3v2.73H236zm-74.13-8.12c0-12.56-7.18-18.51-21.92-18.51h-17.14v2.73h1c3.16 0 4.09 1.3 4.09 4.7v23.1c0 3.4-.93 4.7-4.09 4.7h-1v2.73H141c14 0 20.88-6.32 20.88-19.45zm-27.11 15.79V14.15h4.33c10.47 0 15.42 4.58 15.42 14.86 0 10.84-4.83 15.85-15.1 15.85zm-132.51.25H.94v3.4c3.56-.15 7-.15 10.6-.15s7.12 0 10.68.15v-3.4H21c-4 0-5.11-1.55-5.11-5.88v-11.3h6.35c11.53 0 17.1-4 17.1-13.39s-6-13.47-18.5-13.47H.94v3.41h1.31c4 0 5 1.62 5 5.88v28.87c.03 4.25-1.05 5.88-5 5.88zM20.59 5.56C27.4 5.56 31 8.66 31 14.39c0 6.34-3.4 9.36-10.44 9.36h-4.69V5.56h4.72zm184.77 5.19zm-41 2.54c2.73 0 3.41 1.48 3.41 4.7v17.4c0 9.23 5.13 14 15 14 10.46 0 14.67-4.58 14.67-14.86V18c0-3.28.75-4.7 3.41-4.7H202v-2.74c-2.41.06-4.89.12-7.36.12s-5.08-.06-7.74-.12v2.73h1c3.59 0 4.27 1.23 4.27 4.89v16.71c0 6.94-2.23 10.16-8.73 10.16s-8.79-3.22-8.79-10.28V18c0-3.53.62-4.7 4-4.7h1v-2.74c-2.66.06-5.32.13-8 .13s-5.45-.07-8.23-.13v2.73zm-1-2.73zM84.59 62.2v1.07c1 0 1.46.21 1.46.73a1.89 1.89 0 0 1-.08.53l-2.62 7.86-2.73-7.9a1.71 1.71 0 0 1-.12-.55c0-.56.42-.62 1.46-.67V62.2h-5.24v1.07c.69.07 1 .49 1.3 1.38l3.76 10.15h2.93l3.64-10.23c.26-.77.57-1.15 1.3-1.3V62.2H87.3c-.83 0-1.74.02-2.71 0zm117.91 0h-3.76v3.74H200a4.88 4.88 0 0 1 0-.52c0-1.36.46-1.72 1.82-1.72h1.09v8.23c0 1.11-.26 1.6-1.29 1.6h-.43v1.07h6.17v-1.07h-.42c-1 0-1.3-.49-1.3-1.6V63.7h.89c1.5 0 1.94.32 1.94 1.92v.32h1.34V62.2h-3.88zm-23.85 0v1.07h.25c1 0 1.29.47 1.29 1.58v7.08c0 1.11-.26 1.6-1.29 1.6h-.25v1.07H184.46v-1.07h-.26c-1 0-1.3-.49-1.3-1.6v-7.08c0-1.11.26-1.58 1.3-1.58h.26V62.2h-2.89c-.95 0-1.94.02-2.92 0zm-168.56 0v1.07h.24c1 0 1.29.47 1.29 1.58v5.4c0 2-.77 2.89-2.61 2.89s-2.52-.91-2.52-2.85v-5.44c0-1.17.2-1.58 1.31-1.58H8V62.2H2.56v1.07h.25c.8 0 1 .53 1 1.58v5.73c0 2.87 1.63 4.3 5 4.3 3.56 0 4.95-1.49 4.95-4.81v-5.22c0-1.07.29-1.58 1-1.58h.3V62.2h-2.47c-.85 0-1.59.02-2.5 0zm-8.85-8.61v2.23h234.83v-2.23zM139.09 73a8.09 8.09 0 0 1-.82-2.59c-.35-1.27-.63-1.86-1.78-2a2.68 2.68 0 0 0 2.18-2.85c0-2.45-1.66-3.34-5.2-3.34h-5.13v1.07h.24c1 0 1.29.47 1.29 1.58v7.08c0 1.11-.26 1.6-1.29 1.6h-.24v1.05H134.14v-1.07h-.26c-1 0-1.29-.49-1.29-1.6v-2.81h1c1.12 0 1.74.32 2 1.13a35.59 35.59 0 0 0 1.19 4.35h3.72v-1.07h-.1a1.58 1.58 0 0 1-1.31-.53zm-5.58-5.2h-.92v-4.1h1c1.7 0 2.46.57 2.46 2.1s-.78 2-2.54 2zm96.87-5.6v1.07c.69 0 1 .19 1 .65a1.93 1.93 0 0 1-.23.77l-1.57 3.1-1.58-3.2a1.67 1.67 0 0 1-.24-.73c0-.4.28-.59.92-.59h.11V62.2h-5.24v1.07c.83 0 1.24.51 1.72 1.34l2.83 4.91v2.55c0 1.07-.22 1.46-1.37 1.46h-.29v1.07h5.87v-1.07H232c-1.17 0-1.37-.39-1.37-1.46v-2.51l3-4.93c.55-.89.93-1.36 1.58-1.36h.08V62.2h-2.41c-.81 0-1.63.02-2.5 0zm-69 5.71l-2.57-1c-1.07-.43-1.55-.92-1.55-1.79 0-1.07.9-1.82 2.36-1.82 1.68 0 2.45.69 2.45 2.23a3 3 0 0 1 0 .41h1.56v-3.45a18 18 0 0 0-4.23-.57c-3.18 0-4.91 1.4-4.91 3.62 0 1.62 1 2.53 2.93 3.38l2.36 1c1 .42 1.42.87 1.42 1.74 0 1.21-.83 1.88-2.35 1.88-1.88 0-2.85-.81-2.85-2.41v-.28h-1.48v3.49a19.94 19.94 0 0 0 4.46.53c3.27 0 5-1.35 5-3.7.07-1.49-.8-2.56-2.56-3.26zm-51.35 5.23h-2.26v-4.28h.79c1.25 0 1.56.24 1.62 1.57h1.09v-4.49h-1.09c0 1.38-.37 1.62-1.71 1.62h-.7V63.7h2.48c1.5 0 2.17.24 2.17 1.41v.55h1.15v-3.42h-10v1h.24c1 0 1.3.47 1.3 1.58v7.08c0 1.07-.2 1.6-1.3 1.6h-.24v1.1h10.15v-3.88h-1.13c-.05 2.16-.49 2.42-2.52 2.42zM37.38 62.2v1.07h.25c1 0 1.29.47 1.29 1.58l.06 7.5-4.75-10.15h-5v1.07h.24c1 0 1.31.47 1.31 1.58v7.08c0 1.11-.28 1.6-1.31 1.6h-.24v1.07h5.24v-1.07h-.25c-1 0-1.3-.49-1.3-1.6v-7.44l4.73 10.11h3.43v-9.75c0-1.11.26-1.58 1.3-1.58h.24V62.2h-2.65c-.89 0-1.72.02-2.59 0zm19.62 0v1.07h.25c1 0 1.29.47 1.29 1.58v7.08c0 1.11-.26 1.6-1.29 1.6H57v1.07H62.81v-1.07h-.26c-1 0-1.3-.49-1.3-1.6v-7.08c0-1.11.27-1.58 1.3-1.58h.26V62.2h-2.89c-.95 0-1.92.02-2.92 0zm46.56 0z"/>
</svg>
