<svg xmlns="http://www.w3.org/2000/svg" viewBox="0 0 474.8 115.52" aria-hidden="true">
  <path fill="currentColor" d="M168 30.37l-.13-.12q-11.37.11-19.33 4.75a20 20 0 0 0-5.62 4.64v70.12l8.91 3.18V81.35q8.27 5.12 16.05 4.87A19.25 19.25 0 0 0 184 77.69q5.24-7.32 5.23-18.42 0-12.44-5.26-20.37A17.72 17.72 0 0 0 168 30.37zm-2 49.52q-6.17.36-14.14-4.64V40.49a14.1 14.1 0 0 1 5.08-2.68 23.28 23.28 0 0 1 9.67-1.59Q179 36.84 179 58.67q0 20.33-13 21.22zm68.84-4.76c-4.64 3.09-9 4.67-13.11 4.76a14.61 14.61 0 0 1-10-3.11q-3.85-3.24-3.86-9.21V30.25l-8.9 3v37.12a14.12 14.12 0 0 0 5.61 11.47A17.64 17.64 0 0 0 216.14 86a45.87 45.87 0 0 0 19.15-4.14v2.32c0 6.91-.64 11.58-1.95 14-1.63 3-4.59 5.25-8.91 6.71a70.83 70.83 0 0 1-11.34 2.19l1.47 5.62a43.67 43.67 0 0 0 14.76-2.94q8.42-3.41 11.41-9.14t3-20.62V31.59h-8.93zm33.68-61.59l-8.9 3.17v14.88h-6.1v5.6h6.1v35.09c0 4.24 1.41 7.57 4.2 10s6.74 3.6 11.78 3.6c.89 0 1.87 0 2.93-.12V81.1c-3.33-.17-5.78-.82-7.32-2q-2.69-2.08-2.69-7.1V37.19h10v-5.6h-10zm48.09 17.68a31 31 0 0 0-18.66 6.22V0L289 2.81V85h8.91V43.78q9.19-6.45 15.32-6.46a8.9 8.9 0 0 1 7.85 4.27 16.34 16.34 0 0 1 2.44 9V85h8.91V47.81A16.74 16.74 0 0 0 328 36a14.89 14.89 0 0 0-11.43-4.78zm48.45-1a22.26 22.26 0 0 0-17.94 8.16q-6.46 7.7-6.46 18.91 0 12 6 19.89 6.6 8.88 18.31 8.9t18.54-8.9q6.09-8 6.1-19.89 0-11.22-6.46-18.91A22.64 22.64 0 0 0 365 30.25zm.05 50.24q-7.83.14-11.75-7.76-3.07-6.18-3.06-15.41 0-20.12 14.64-21a13.31 13.31 0 0 1 11.71 7q3.17 5.49 3.17 13.87-.04 23.22-14.75 23.33zm63.34-49.63a27.83 27.83 0 0 0-6-.61 43.34 43.34 0 0 0-10.75 1.58q-6.45 1.71-14.15 7.31V85h8.91V40.25a21.45 21.45 0 0 1 12.08-4.15q6-.12 9.58 3.23t3.6 9.34V85h8.9V44.15a11.93 11.93 0 0 0-3.62-8.78 17.21 17.21 0 0 0-8.59-4.51zM42.11 57.32h26.78a13.5 13.5 0 0 0 13.4-13.62V18.17c0-7.27-6.13-12.73-13.4-13.94a83.49 83.49 0 0 0-14-1.09 76.59 76.59 0 0 0-12.78 1.09c-11.35 2-13.41 6.2-13.41 13.94v10.22h26.81v3.4H18.64c-7.79 0-14.62 4.69-16.75 13.6C-.57 55.6-.68 62 1.89 72.64c1.9 7.93 6.46 13.59 14.25 13.59h9.22V74a17 17 0 0 1 16.75-16.68zm-1.69-35.75a5.11 5.11 0 1 1 5-5.09 5.05 5.05 0 0 1-5 5.09zM95.7 31.79H85.64V43.7c0 9.23-7.83 17-16.75 17H42.11A13.68 13.68 0 0 0 28.7 74.32v25.54c0 7.26 6.32 11.54 13.41 13.62a44.79 44.79 0 0 0 26.78 0c6.75-2 13.4-5.89 13.4-13.62V89.64H55.51v-3.41H95.7c7.79 0 10.7-5.44 13.41-13.59 2.8-8.4 2.68-16.48 0-27.25-1.93-7.76-5.61-13.6-13.41-13.6zM70.58 96.45a5.11 5.11 0 1 1-5 5.09 5.07 5.07 0 0 1 5-5.09zm402.29-83.77l-3.29 9.4-2.82-9.4h-2.15v11h1.33V14.7l2.9 9h1.49l3-8.92v8.92h1.46v-11zm-18.61 1.17H458v9.8h1.57v-9.8h3.7v-1.17h-9z"/>
</svg>
