<svg xmlns="http://www.w3.org/2000/svg" viewBox="0 0 201.9 55.01" aria-hidden="true">
  <path fill="currentColor" d="M0 55h55V0H0zM52.73 5.48v5h-4.06V25.7h-5.25V10.46h-3.48l-4.81-5zm-28.55 0h5.12v14.18c0 .34.12 1.64 2.72 1.64s2.6-1.34 2.6-1.6V6.54l5 5.28v8.42c0 1-1 5.76-7.63 5.76s-7.85-4.79-7.85-5.79zm-11.27-.13a10.39 10.39 0 0 1 10.28 10.5 10.78 10.78 0 0 1-1.67 5.51l4.3 4.37H20l-9.45-9.84h5.58l1.49 1.52A4.62 4.62 0 0 0 18 15.5a5.37 5.37 0 1 0-5.36 5.4 3.08 3.08 0 0 0 1-.11L17.47 25a9.47 9.47 0 0 1-4.83 1.17 10.41 10.41 0 0 1 .27-20.82zM71 33.5v-4.4c0-2.86-2.31-3.38-4.7-3.38a6.57 6.57 0 0 0-3.2.7 3.1 3.1 0 0 0-1.57 2.7l3.08.08a1.47 1.47 0 0 1 1.65-1.26c.68 0 1.59.38 1.59 1s-.31.82-.87.93c-2.29.5-5.86.22-5.86 3.5 0 2 1.51 3 3.44 3a4.55 4.55 0 0 0 3.31-1.24 3.93 3.93 0 0 0 .2.95h3.32A5.83 5.83 0 0 1 71 33.5zm-5.2.84a1.2 1.2 0 0 1-1.36-1.18c0-.79.62-1.1 1.36-1.28a9.24 9.24 0 0 0 2-.54c.12 2.1-.4 3-1.97 3zm19.36.36v1.38h3.2V26h-3.3v5.4c0 1.78-1.08 2.25-1.8 2.25-1 0-1.63-.47-1.63-1.81V26H78.4v6.07c0 2.63.83 4.3 3.73 4.3a3.71 3.71 0 0 0 3.06-1.67zM97 36.07h3.23v-6.46c0-1.45-.27-3.9-3.63-3.9a3.78 3.78 0 0 0-3.16 1.67V26h-3.21v10.08h3.3v-5.49c0-1.15.55-2.15 1.79-2.15 1.8 0 1.65 1.39 1.65 2.77zM105.5 26h-3.29v10.08h3.29zm0-3.77h-3.29v2.52h3.29zm8 13.85L116.84 26h-3.36l-1.9 6.66-1.85-6.66h-3.43l3.36 10.08zm9-10.36h-.17A5.28 5.28 0 0 0 117 31c0 3.35 2.23 5.35 5.51 5.35 2.24 0 4.39-1 5-3.33h-3.09a2 2 0 0 1-1.88 1.1h-.25a2.16 2.16 0 0 1-2-2.29h7.4c.2-3.39-1.61-6.11-5.22-6.11zM120.33 30a2.18 2.18 0 0 1 2.09-2.06h.06a2 2 0 0 1 1.94 2.06zm12-2.23V26h-3.2l-.07 10h3.3v-5.21a2.32 2.32 0 0 1 2.48-2.13 4.86 4.86 0 0 1 1.26.19v-3a3.3 3.3 0 0 0-.77-.08 3 3 0 0 0-3.03 2zm14.14 5a2.84 2.84 0 0 0-2.56-2.71c-1.51-.33-3.72-.51-3.72-1.46 0-.7.87-.75 1.41-.75a1.93 1.93 0 0 1 1 .25.94.94 0 0 1 .4.9h3.08c-.12-2.62-2.43-3.26-4.64-3.26-2 0-4.6.66-4.6 3.09 0 2.71 2.6 2.77 4.68 3.29.61.14 1.61.27 1.61 1.07s-.92 1.07-1.56 1.07a2.12 2.12 0 0 1-1.22-.35 1.36 1.36 0 0 1-.54-1.13h-3.13c.1 2.82 2.66 3.61 4.93 3.61s4.83-.91 4.83-3.61zm4.59-6.77h-3.3v10.08h3.3zm0-3.77h-3.3v2.52h3.3zm2.73 10.47c0 2.73.72 3.55 3.53 3.55.6 0 1.2-.1 1.8-.1v-2.42h-.85c-.72 0-1.18-.21-1.18-1v-4.58h2V26h-2v-3h-3.3v3h-1.67v2.15h1.67zm16.6-6.7H167l-1.9 6.56-1.89-6.56h-3.5l2.6 7a13.52 13.52 0 0 1 .84 2.64.41.41 0 0 1 0 .11 1.17 1.17 0 0 1-1.31 1h-1.15v2.71h1.56c2.21 0 3.41-.27 4.21-2.49zm10.38 10.05v-7.91h2V26h-2v-.45c0-.91.46-1 1.22-1 .29 0 .58.05.89.05v-2.32a14.09 14.09 0 0 0-1.59-.06c-2.82 0-3.82.89-3.82 3.78h-1.59v2.15h1.59v7.92zm7.58-10.35H188a5.15 5.15 0 0 0-4.95 5.34 3.53 3.53 0 0 0 0 .46 5.31 5.31 0 1 0 10.61-.46v-.35a5.16 5.16 0 0 0-5.31-4.97zm0 8.13c-1.53 0-2-1.51-2-2.79s.48-2.82 2-2.82 2 1.54 2 2.82-.46 2.81-2 2.81zm12.78-8.08a3 3 0 0 0-3 2V26h-3.2l-.07 10h3.3v-5.21a2.32 2.32 0 0 1 2.48-2.13 4.86 4.86 0 0 1 1.26.19v-3a3.3 3.3 0 0 0-.77-.08zM65.76 51.35v-4.58h2v-2.13h-2v-3h-3.3v3h-1.7v2.13h1.7v4.56c0 2.73.72 3.55 3.53 3.55.6 0 1.2-.1 1.8-.1v-2.43h-.85c-.72 0-1.18-.2-1.18-1zm9.47-7A3.5 3.5 0 0 0 72.17 46v-5.15h-3.3v13.86h3.3v-5.49c0-1.16.54-2.16 1.78-2.16 1.81 0 1.65 1.4 1.65 2.78v4.85h3.26v-6.46c0-1.46-.27-3.9-3.63-3.9zm10.44 0h-.16a5.27 5.27 0 0 0-5.27 5.29c0 3.36 2.23 5.36 5.51 5.36 2.25 0 4.41-1 5-3.34h-3.08a2 2 0 0 1-1.88 1.11h-.25a2.16 2.16 0 0 1-2-2.29h7.39c.16-3.42-1.65-6.13-5.26-6.13zm-2.17 4.29a2.17 2.17 0 0 1 2.13-2.06h.06a2 2 0 0 1 1.94 2.06zm21.5-4.16a3.3 3.3 0 0 0-.77-.08 3 3 0 0 0-3 2v-1.76h-3.2l-.07 10h3.3v-5a2.09 2.09 0 0 1 0-.25 2.31 2.31 0 0 1 2.47-2.13 4.47 4.47 0 0 1 1.26.19zm5.41-.13h-.16a5.27 5.27 0 0 0-5.25 5.29c0 3.36 2.23 5.36 5.51 5.36 2.25 0 4.4-1 5-3.34h-3.08a2 2 0 0 1-1.88 1.11h-.27a2.15 2.15 0 0 1-2-2.29h7.39c.17-3.42-1.67-6.13-5.24-6.13zm-2.17 4.29a2.17 2.17 0 0 1 2.13-2.06h.06a2 2 0 0 1 1.94 2.06zm18 3.49v-4.41c0-2.85-2.31-3.37-4.69-3.37a6.61 6.61 0 0 0-3.21.7 3.1 3.1 0 0 0-1.57 2.69h3.09a1.48 1.48 0 0 1 1.65-1.26c.68 0 1.59.43 1.59 1s-.31.81-.87.93c-2.29.49-5.86.21-5.86 3.49 0 2 1.51 3 3.43 3a4.56 4.56 0 0 0 3.32-1.29 4.21 4.21 0 0 0 .19 1h3.32a5.83 5.83 0 0 1-.35-2.48zm-5.2.87c-.74 0-1.36-.37-1.36-1.17s.63-1.11 1.36-1.28a10.06 10.06 0 0 0 2-.55c.14 2.11-.39 3-1.96 3zm7.12 1.71h3.3V40.85h-3.3zm21-3.57l-1.48-6.5h-3.14l-1.44 6.52-1.69-6.52h-3.31l3.18 10.06h3.34l1.57-6.7 1.59 6.71h3.34l3.07-10.07h-3.36zm10.42-6.79h-.31a5.17 5.17 0 0 0-5 5.33 5.33 5.33 0 1 0 5.3-5.36zm0 8.13c-1.54 0-2-1.52-2-2.8s.48-2.81 2-2.81 2 1.53 2 2.81-.45 2.8-1.98 2.8zm9.77-6.08v-1.76h-3.2l-.07 10h3.3v-5a1.93 1.93 0 0 1 0-.24 2.31 2.31 0 0 1 2.48-2.14 4.47 4.47 0 0 1 1.26.19v-3a3.44 3.44 0 0 0-.78-.08 3 3 0 0 0-2.97 2.03zm4.68 8.31h3.3V40.85h-3.3zm11.89-13.86v4.87a3.37 3.37 0 0 0-2.87-1.37c-2.85 0-4.25 2.48-4.25 5.1 0 2.83 1.34 5.55 4.5 5.55a3.2 3.2 0 0 0 2.82-1.46v1.17h3.14V40.85zm-1.82 11.63c-1.49 0-2-1.54-2-2.91s.52-2.7 2-2.7 2 1.34 2 2.79c.02 1.28-.49 2.82-1.98 2.82z"/>
</svg>
