<svg xmlns="http://www.w3.org/2000/svg" viewBox="0 0 1131.08 178.1" aria-hidden="true">
  <path fill="currentColor" d="M273.43 176h26.63V35.31l-26.63 13.31zm258.19-44.77H553c-1.55 11.77-7.92 20.46-26.44 20.46-20.26 0-32-18.33-32-43.23 0-25.08 11.58-42.83 31.84-42.83 14.66 0 20.84 7.52 25.85 17.55l25.67-10.61c-8.88-20.84-23.54-33.77-51.14-33.77-35.31 0-60 28.56-60 69.66 0 42.65 23.74 69.66 59.05 69.66 31.26 0 54.22-19.68 54.22-54.41v-17.78h-48.43zM237.93 35.89a15.25 15.25 0 1 0 15.24 15.24 15.41 15.41 0 0 0-15.24-15.24zM599.35 176H626V74.67h-26.65zM109.41 83.74c0-28.75-21-42.83-46.5-42.83H0V176h27v-48.65h27.22L78.34 176h31.07l-25.86-52.51c17.18-6.75 25.86-19.49 25.86-39.75zm-47.08 18.14H27V67.15h35.33c12 0 19.29 5 19.29 17.17 0 11.77-6.75 17.56-19.29 17.56zM224.61 176h26.63V74.67h-26.63zM163.44 72.55c-16.4 0-26.24 3.47-38 10.23l10.22 18.52c9.27-5 15.63-6.75 27.79-6.75 9.65 0 14.47 5.79 14.47 12.93v5c-4.24-2.13-10.22-4.06-19.49-4.06-23 0-41.1 11.19-41.1 33.58 0 24.5 18.91 36.08 37.82 36.08 9.46 0 18-3.86 22.77-8.87V176h26.63v-67.94c-.01-22.77-16.55-35.51-41.11-35.51zm14.47 73.71c-2.89 4.83-9.84 9.27-18.52 9.27C148 155.53 144 149.16 144 142c0-8.11 5.4-12.74 15.44-12.74 9.45 0 13.89 1.35 18.52 4.25zm189.5-32.61c-18-5.79-21-7.52-21-11.77 0-4.44 2.9-6.56 13.7-6.56 8.49 0 19.49 2.7 29.53 8.11l8.49-21a80.79 80.79 0 0 0-37.44-9.84c-23.73 0-40.52 9.07-40.52 30.1 0 21.42 15.63 27.4 39.94 34.74 11.19 3.28 14.86 5.59 14.86 10.22 0 5.21-3.09 7.72-13.51 7.72a70.75 70.75 0 0 1-35.12-9.26l-8.87 20.26c10.8 7.14 26.43 11.77 42.45 11.77 22.77 0 41.29-8.3 41.29-31.64-.04-20.3-15.67-26.87-33.8-32.85zm451.72 0c-17.94-5.79-21-7.52-21-11.77 0-4.44 2.9-6.56 13.7-6.56 8.49 0 19.49 2.7 29.53 8.11l8.49-21a80.79 80.79 0 0 0-37.44-9.84c-23.73 0-40.52 9.07-40.52 30.1 0 21.42 15.63 27.4 39.94 34.74 11.19 3.28 14.86 5.59 14.86 10.22 0 5.21-3.09 7.72-13.51 7.72a70.72 70.72 0 0 1-35.18-9.3l-8.87 20.26c10.8 7.14 26.43 11.77 42.45 11.77 22.77 0 41.29-8.3 41.29-31.64.03-20.26-15.6-26.83-33.74-32.81zM612.66 35.89a15.25 15.25 0 1 0 15.25 15.24 15.41 15.41 0 0 0-15.25-15.24zM725.16 176h26.63V35.31l-26.63 13.31zm-51.33-94.57v-6.76H647.2V176h26.63v-54.8c0-17.56 6.76-22 17.18-22 6 0 11.19 2.7 15.43 6.56l6.95-26c-3.47-3.67-10-7.14-18.72-7.14a28 28 0 0 0-20.84 8.81zm279.25 7.62v29.69h29.68V89.05zm148.31-59.37v59.37h-29.58v29.69h29.69V89.05h29.58V29.68zm-59.26 118.74h-29.68v-29.68h-29.69v29.68h29.69v29.68h29.68v-29.68h29.68v-29.68h-29.68zM923.39 29.68v59.37h29.69V29.68zm88.76 29.69h29.68V29.68h59.35V0h-59.36v29.68h-29.37V0h-59.37v29.68h59.07z"/>
</svg>
