<svg xmlns="http://www.w3.org/2000/svg" viewBox="0 0 2215.01 619.32" aria-hidden="true">
  <path fill="currentColor" d="M2172.94 390.56H2215v-155.9h-42.07zm-1159.61-75.43q-14-11.16-42.79-16.93-18.74-3.6-24.86-8.21a14.17 14.17 0 0 1-6.12-11.81 15.71 15.71 0 0 1 5.83-12.47q5.83-5 16.07-5 11.52 0 17.51 5.91t6 15.27h40.63l.29-.86q.72-21.33-16.93-35.3t-47.48-14q-28.4 0-45.32 14.05T899.23 280q0 19 14 30T955 326.73q18.15 3.9 24.85 8.94t6.7 12a14.85 14.85 0 0 1-6.12 12.53q-6.13 4.62-17.8 4.61-12.54 0-20.31-5.62T934.08 341h-38.47l-.29.86q-.86 20.17 17.22 35.95t49.21 15.78q29.54 0 47.55-13.33t18-34.36q.01-19.61-13.97-30.77zM870.4 350.8v-64.41q0-26.22-17.44-40.42t-45.39-14.19q-29.54 0-47.69 14.34t-17.14 34.07l.14.87 40.63.14q0-8.79 5.55-13.76t15.78-5q11.52 0 17.43 6.2t5.91 17.43v12.39h-23.49q-33.86 0-51.51 12.61t-17.65 35.52q0 21.75 13.26 34.36t37.75 12.61q14.7 0 25.29-7.49a58 58 0 0 0 17.07-18.88 77.31 77.31 0 0 0 2.38 12.1 87 87 0 0 0 4 11.24h42.07a103.81 103.81 0 0 1-5.26-19.16 122.31 122.31 0 0 1-1.69-20.57zm-42.22-6.49q-3 7.21-11.67 12.68a36.14 36.14 0 0 1-19.74 5.48q-8.94 0-14.12-4.76a16.19 16.19 0 0 1-5.19-12.53 21.73 21.73 0 0 1 6.92-16.18q6.92-6.71 20.31-6.7h23.49zm-116.78 29A76 76 0 0 1 709 355v-15.44q0-18.88-8.14-31.7t-26.73-18.3q16.43-7.2 24.93-18.88t8.5-28q0-29.25-20.25-45.6t-56.12-16.36h-79.1v209.84h42.07V306.7h40.06q15.56 0 24.13 8.72t8.65 24.42v14.85a129 129 0 0 0 1.73 20.46q1.73 10.8 7.49 15.41h43.37v-3q-5.81-4.64-8.19-14.22zm-54.47-106.52q-8.71 7.5-26.44 7.5h-36.31v-61.1h37q17 0 25.72 8.5t8.72 22.91q.03 14.7-8.69 22.19zm1065.31-35a31.64 31.64 0 0 0-20.1 6.84q-8.73 6.85-14.2 19.1l-1.87-23.06h-39v155.9H1689V285.24a24.62 24.62 0 0 1 9.22-10.95q6.06-3.9 15.42-3.9l15.42.44 4.46-37.32q-2.73-.72-5.4-1.23a32 32 0 0 0-5.88-.5zM449.92 281.17l-4.45-7.81c.17-56.12-25.86-79-56.23-96.38 9.19-2.42 18.68-4.41 21.28-15.95 15.79-4 19.09-11.35 20.67-19.09 4.13-2.75 17.95-10.48 16.5-23.77 7.74-5.34 12.05-12.19 9.86-21.9 8.31-9.07 10.5-16.57 7-23.47 10-12.4 5.55-18.83 1.29-25.34 7.48-13.55.88-28.09-20-25.66-8.31-12.21-26.43-9.44-29.24-9.38-3.13-3.92-7.27-7.28-20-5.65-8.25-7.36-17.47-6.1-27-2.49-11.3-8.78-18.78-1.74-27.32.92-13.67-4.4-16.8 1.63-23.52 4.08-14.92-3.1-19.45 3.66-26.6 10.79l-8.32-.16C261.3 33 250.12 59.56 246.16 73.23 242.2 59.56 231 33 208.55 19.91l-8.32.16c-7.16-7.13-11.69-13.89-26.61-10.79C166.9 6.83 163.78.8 150.1 5.2c-5.61-1.75-10.76-5.38-16.83-5.2-3.18.1-6.6 1.25-10.49 4.27-9.51-3.61-18.74-4.87-27 2.49-12.74-1.63-16.88 1.73-20 5.65-2.78-.05-20.91-2.82-29.23 9.4-20.89-2.44-27.49 12.1-20 25.66-4.28 6.53-8.7 12.93 1.28 25.33-3.53 6.91-1.34 14.4 7 23.47-2.19 9.72 2.12 16.57 9.86 21.91-1.45 13.29 12.37 21 16.5 23.77 1.55 7.74 4.86 15.05 20.64 19.05 2.6 11.54 12.09 13.53 21.28 16-30.37 17.38-56.4 40.26-56.23 96.38l-4.45 7.81C7.62 302-23.7 369.06 25.28 423.54c3.2 17 8.56 29.3 13.34 42.86 7.15 54.6 53.78 80.21 66.08 83.23 18 13.52 37.22 26.35 63.2 35.34 24.49 24.88 51 34.36 77.69 34.34h1.18c26.67 0 53.2-9.46 77.69-34.34 26-9 45.17-21.82 63.2-35.34 12.3-3 58.93-28.6 66.08-83.23 4.77-13.56 10.14-25.81 13.34-42.86 48.98-54.48 17.66-121.54-17.16-142.37zm-26.8-9.58c-1.81 22.6-119.61-78.72-99.28-82.09 55.16-9.18 101.16 23.13 99.28 82.09zm-52 112.63c-29.63 19.12-72.32 6.78-95.36-27.56s-17.7-77.66 11.92-96.79S360 253.09 383 287.43s17.74 77.67-11.89 96.79zM289 35.41c1 5.07 2.18 8.28 3.5 9.23 6.54-7 11.89-14.21 20.33-21 0 4-2 8.27 3 11.42A59.43 59.43 0 0 1 334.57 19c-3.9 6.74-.67 8.79 1.43 11.58 6.2-5.31 12.09-10.7 23.51-14.86-3.12 3.8-7.49 7.52-2.86 11.89 6.38-4 12.8-8 28-10.8-3.42 3.81-10.48 7.62-6.2 11.42a117.49 117.49 0 0 1 26.68-6.57c-4.69 3.86-8.61 7.65-4.76 10.64 8.57-2.64 20.38-6.19 31.92-3.13L425 36.5c-.81 1 17.09.77 28.9.94-4.31 6-8.71 11.77-11.27 22.06 1.17 1.19 7 .53 12.54 0-5.66 11.92-15.49 14.92-17.78 20 3.46 2.61 8.25 1.93 13.5.15-4.08 8.4-12.63 14.15-19.38 21 1.71 1.22 4.69 1.94 11.75 1.1a108.72 108.72 0 0 1-22.71 18.15c1.58 1.82 7 1.75 12.07 1.87-8.09 7.92-18.51 12-28.27 17.21 4.87 3.33 8.35 2.55 12.07 2.5-6.9 5.68-18.64 8.63-29.54 12.05 2.07 3.22 4.15 4.1 8.58 5-11.54 6.38-28.06 3.46-32.72 6.72 1.12 3.21 4.29 5.3 8.1 7-18.57 1.08-69.36-.67-79.1-39.11 19-20.88 53.71-45.4 113.39-75.71-46.48 15.57-88.38 36.3-123.44 64.8-41.23-19.23-12.81-67.6 7.31-86.82zM247.38 174c29.23-.31 65.43 21.49 65.28 42-.12 18.13-25.42 32.81-65.06 32.53-38.82-.45-65-18.44-64.86-36 .07-14.42 31.69-39.35 64.64-38.53zM98.62 158.53c4.43-.91 6.51-1.79 8.58-5-10.9-3.42-22.64-6.37-29.54-12.05 3.72.05 7.2.83 12.07-2.5-9.76-5.18-20.18-9.29-28.27-17.21 5-.12 10.49-.05 12.07-1.87a108.79 108.79 0 0 1-22.72-18.15c7.07.84 10 .12 11.76-1.1-6.75-6.81-15.3-12.56-19.38-21 5.25 1.78 10 2.46 13.5-.15-2.29-5.11-12.12-8.11-17.79-20 5.53.53 11.38 1.19 12.55 0-2.56-10.28-7-16.06-11.27-22 11.81-.18 29.72 0 28.91-.94l-7.31-7.36c11.54-3.06 23.35.5 31.92 3.13 3.85-3-.06-6.77-4.76-10.64a117.88 117.88 0 0 1 26.68 6.58c4.28-3.81-2.78-7.62-6.19-11.42 15.15 2.83 21.57 6.81 27.95 10.79 4.63-4.37.27-8.08-2.86-11.89 11.48 4.12 17.31 9.5 23.48 14.81 2.1-2.79 5.34-4.84 1.43-11.57A59.28 59.28 0 0 1 178.2 35.1c5-3.15 3-7.45 3-11.42 8.43 6.75 13.78 13.94 20.33 21 1.32-.94 2.47-4.15 3.49-9.23 20.11 19.22 48.53 67.63 7.31 86.83C177.28 93.75 135.41 73 89 57.5c59.65 30.3 94.33 54.81 113.34 75.68-9.74 38.44-60.53 40.19-79.1 39.11 3.8-1.74 7-3.83 8.1-7-4.66-3.29-21.18-.38-32.72-6.76zm72.71 29.24c20.34 3.37-97.46 104.69-99.28 82.09-1.85-58.96 44.07-91.27 99.28-82.09zm-125.08 226C17.62 391.06 8.4 324.64 61.48 294.79c31.98-8.45 10.8 130.34-15.23 118.95zm110.08 118.64C140.18 542 101 538.06 73.1 498.62c-18.79-33.09-16.37-66.76-3.18-76.62 19.74-11.84 50.23 4.15 73.7 31 20.45 24.21 29.77 66.85 12.71 79.41zm-32-144.73c-29.63-19.11-35-62.45-11.93-96.79s65.73-46.68 95.36-27.56 35 62.45 11.93 96.79-65.77 46.68-95.4 27.56zM248 600c-35.52 1.5-70.34-28.66-69.88-39.12-.54-15.32 43.24-27.29 71.78-26.59 28.73-1.24 67.27 9.11 67.35 22.84.49 13.34-34.94 43.46-69.25 42.87zm71.2-151.16c.21 35.87-31.64 65.1-71.12 65.29s-71.67-28.74-71.88-64.6v-.69c-.21-35.86 31.64-65.09 71.12-65.28s71.67 28.73 71.88 64.6zm99.48 51.69c-30.61 41.83-72 43.45-87.47 31.8-16.14-15-3.82-61.55 18.31-87.08 25.31-28.15 52.38-46.54 71.24-32.17 12.69 12.44 20.14 59.36-2.08 87.45zM446.35 412c-26 11.38-47.22-127.41-15.23-119 53.08 29.91 43.88 96.33 15.23 119zm1726.59-246.21v31.55H2215v-31.55zm-359.79 168h-.86l-1.73-8.64-26.37-90.49H1739l55.33 155.76-4.9 12.1a33.75 33.75 0 0 1-8.65 12.75q-5.61 5.12-16 5.12a30.14 30.14 0 0 1-3.89-.29c-1.44-.19-2.79-.38-4-.58l-4.9 30.69q6.48 1.59 11 2.45a52.54 52.54 0 0 0 9.87.87q22.77 0 34.15-11.46a82.54 82.54 0 0 0 18-28.17l63.25-179.24H1843zm-360.36-102q-32.13-.15-51.22 22.33t-19.09 57.21v5.76q0 33.29 20.17 54.9t53.89 21.61a107.89 107.89 0 0 0 34.29-5.14q15.42-5.13 24.93-12.95l-11.38-26a106.67 106.67 0 0 1-20.18 8.86q-9.21 2.81-23.19 2.81-15.71 0-24.86-9.9t-10.3-25.28l.29-.86h93.08v-22.9q0-32.42-17.44-51.44t-48.99-19.02zm25.21 65.55h-51.58l-.44-.72q1.59-14.55 8.36-23.49t18.44-8.93q12.68 0 19 8t6.27 21.39zm140.92-65.56a31.64 31.64 0 0 0-20.1 6.84q-8.73 6.85-14.2 19.1l-1.87-23.06h-39v155.9h41.93V285.24a24.62 24.62 0 0 1 9.22-10.95q6.06-3.9 15.42-3.9l15.42.44 4.46-37.32q-2.73-.72-5.4-1.23a32 32 0 0 0-5.87-.5zm-318.15 0a45.32 45.32 0 0 0-21.68 5 47.73 47.73 0 0 0-16.21 14.41v-85.4H1221v224.77h36l3.17-19.3a49 49 0 0 0 17.22 16.64q10.16 5.69 23.7 5.69 29.4 0 45-20.89t15.56-55.77v-3q0-37.32-15.56-59.72t-45.31-22.43zm18.89 85.22q0 21.17-6.49 32.69t-22.76 11.52q-9.95 0-16.79-3.77a26.75 26.75 0 0 1-10.73-10.87v-66.43a28.55 28.55 0 0 1 10.66-11.81q6.77-4.12 16.57-4.13 16.14 0 22.84 13.41t6.7 36.31zm-185.59-85.18q-13 0-22.69 5.55a50.07 50.07 0 0 0-16.64 15.77l-2.45-18.44h-37.9v215.8h41.93v-74.78a44.8 44.8 0 0 0 16.29 13.33 49.85 49.85 0 0 0 21.75 4.54q28.68 0 44.67-21t16-55.62v-3q0-36.89-16-59.51t-44.96-22.68zm18.88 85q0 20.49-7.13 32.46t-22.41 12q-9.79 0-16.5-3.46a25.89 25.89 0 0 1-10.59-10.11v-68.5a27.82 27.82 0 0 1 10.59-11.11q6.71-3.9 16.21-3.9 15.14 0 22.48 13.71t7.4 35.79zm969.56-117.51q-20.75-18.45-56.92-18.45H1982v209.7h42.08v-76.07h41.49q36.16 0 56.92-18.3t20.75-48.42q.02-30.11-20.73-48.55zm-30.26 73.26q-9.08 9.58-26.66 9.59h-41.49v-68.97h41.49q17.73 0 26.73 9.87t9 25q.01 14.85-9.07 24.42z"/>
</svg>
