<svg xmlns="http://www.w3.org/2000/svg" viewBox="0 0 1880.68 316.97" aria-hidden="true">
  <path fill="currentColor" d="M209.7 84a7.31 7.31 0 0 0-1.48.19s-28.08 3.47-50.92 1.61c-30.08-2.43-46.5-7.94-46.5-7.94a7.59 7.59 0 1 0-4.71 14.42s18.51 6.13 50 8.68c25.31 2 54-1.76 54-1.76a7.6 7.6 0 0 0-.39-15.2zM62.55.14C59.69 0 57 0 54.34 0 14.75.27 0 12.46 0 12.46v295.65s14.4-12.43 60.77-10.53 55.94 18.15 112.93 19.29 71.3-8.76 71.3-8.76l.82-301.4s-25.63 7.29-75.54 7.67S108.37 1.68 62.55.14zM64.33 117s-12.41-.07-20 .69A62.68 62.68 0 0 0 23 123.6a7.65 7.65 0 1 1-7.12-13.55 80.34 80.34 0 0 1 27-7.53c9.08-.9 21.49-.82 21.49-.82a7.67 7.67 0 1 1 0 15.33zM15.88 72.41a80.34 80.34 0 0 1 27-7.53c4.54-.45 9.86-.71 14.1-.82s7.39 0 7.39 0a7.66 7.66 0 0 1 0 15.2s-12.41.06-20 .82A62.68 62.68 0 0 0 23 86a7.65 7.65 0 1 1-7.12-13.55zm48.45-30.8s-12.41.07-20 .83A62.68 62.68 0 0 0 23 48.32a7.65 7.65 0 1 1-7.14-13.54 80.34 80.34 0 0 1 27-7.53c9.08-.91 21.49-1 21.49-1a7.67 7.67 0 1 1 0 15.33zm166.45-15.87v267.87s-19 10-66.53 6.57c-36.82-2.63-77.33-16.57-77.33-16.57l.54-264.31s24 7.93 68.31 10.13c37.45 1.86 75.01-3.69 75.01-3.69zM209.7 159.33a8.1 8.1 0 0 0-1.48.19s-28.08 3.47-50.92 1.62c-30.08-2.44-46.5-7.95-46.5-7.95a7.69 7.69 0 0 0-3.68-.44 7.61 7.61 0 0 0-1 14.87s18.51 6.12 50 8.68c25.31 2 54-1.77 54-1.77a7.6 7.6 0 0 0-.43-15.2zm0-37.67a7.31 7.31 0 0 0-1.48.19s-28.08 3.47-50.92 1.62c-30.08-2.44-46.5-8-46.5-8a7.59 7.59 0 1 0-4.71 14.42s18.51 6.13 50 8.69c25.31 2.05 54-1.77 54-1.77a7.6 7.6 0 0 0-.43-15.2zM107.12 39.73a7.61 7.61 0 0 0-1 14.87s18.51 6.12 50 8.68c25.31 2 54-1.77 54-1.77a7.6 7.6 0 0 0-.43-15.2 8.1 8.1 0 0 0-1.48.19s-28.07 3.5-50.91 1.62c-30.08-2.44-46.5-7.94-46.5-7.94a7.7 7.7 0 0 0-3.68-.45zM382.33 253.4zm123-66q-5.67-13-15.41-16.49a55.57 55.57 0 0 0 22.71-17.3q9.72-11.88 9.73-30.27 0-26.49-16.76-38.11t-48.13-11.57h-73.79v23l15.41.81v125.66q0 6.75-7.84 7.56l-8.92.82v21.89h67.3v-23l-17.57-.81v-47h24.6q6.75 0 10.27 3 3.78 2.7 6.76 9.46l12.7 27a8.7 8.7 0 0 1 1.08 3.78q0 4-6.22 4.86l-7.83.82v21.89h66.76v-23l-15.41-.54zm-49.73-30.54h-23.54v-57h19.73q19.47 0 28.11 5.13 8.93 5.14 8.92 22.17 0 29.75-33.24 29.75zm155 74.87q-16.76 0-24.87-8.65-8.1-8.92-8.92-23.25 22.71 0 40.82-5.4A67.22 67.22 0 0 0 636 186.1a41.89 41.89 0 0 0 12.71-14.1 42.49 42.49 0 0 0 5.13-21q0-17.84-11.89-27.57-11.9-10-32.16-10-31.62 0-49.19 21.62T543 188.53q0 31.89 15.41 50.27 15.4 18.12 48.38 18.11 16.48 0 29.19-5.13 13-5.15 18.38-10l-10.28-21.9q-16.72 11.9-33.48 11.9zm-26-83.25q8.11-12.17 23.25-12.17 16.22 0 16.21 16.49 0 8.39-8.37 14.6a46.53 46.53 0 0 1-18.38 7.84 152.07 152.07 0 0 1-21.63 1.9q.86-16.72 8.97-28.61zm200.09 80.81q-1.35-1.62-1.35-5.94v-100.5q-25.14-9.45-48.11-9.46-35.68 0-53.52 20.54t-17.84 57.3q0 30.54 13.25 48.11T718 256.91q23.5 0 37-19.46l.81.27v15.68h43v-21.62l-8.65-.55q-3.8-.23-5.42-1.89zm-40.27-2.43q-7.58 7-19.46 7-28.11 0-28.11-43.79 0-24 8.1-38.65t26.22-14.59q13.24 0 20.81 3.51v70q.02 9.28-7.51 16.57zM923.81 225V60.69h-50.27V82l11.62.81q7 .54 7 6.49v27.3a74.74 74.74 0 0 0-22.16-3.21q-31.08 0-48.65 21.09-17.29 21.08-17.29 56.21 0 27 11.35 45.68 12.44 20.55 43.24 20.54 24.6 0 36.76-19.73l.81.27v16H940v-21.67l-9.46-.55q-6.46 0-6.73-6.23zm-38.92 1.89q-7.3 6.22-18.38 6.22-29.19 0-29.19-45.41 0-22.15 8.11-36.49 8.37-14.32 26.22-14.32a50.09 50.09 0 0 1 20.54 4.32v70a20.25 20.25 0 0 1-7.3 15.7zm152.3-132.2l-23.41 4.73-4.73 29.8-23.65 2.38-2.61 15.4h23.42l-10.41 65.5a90.91 90.91 0 0 0-1.42 15.14c0 18.68 7.81 28.14 23.89 28.14 13.24 0 31-10.88 31-10.88l-3.78-12.77s-12.54 4.73-19.16 4.73-9.22-3.31-9.22-11.82a102 102 0 0 1 1.42-14.9l10.14-63.14h32.64l2.84-17.74h-32.64zM1181 168.26a101 101 0 0 0 1.18-13.95c0-17-6.86-28.62-25.78-28.62-35.94 0-54.86 45.64-55.81 48.25l18.19-102.64-43.28 1.18-2.13 13 19.87 4.73-26 163.18h22.47l7.81-42.57s18.68-65 49.42-65c9.46 0 12.3 6.86 12.3 15.61a79.89 79.89 0 0 1-1 10.41l-13.48 81.59 43.28-2.37 2.13-13-19.86-3.55zm87.68-42.57c-37.6 0-68.35 38.55-68.35 87.5 0 26 16.56 42.57 42.57 42.57 27.91 0 53-17.5 53-17.5l-7.1-12.06s-21.52 10.64-38.78 10.64c-17.74 0-26-7.8-26-24.59a79.41 79.41 0 0 1 .71-10.17c49 0 83-18.45 83-45.64-.05-18.69-15.18-30.75-39.07-30.75zm-41.86 59.83c6.15-24.83 23.42-42.09 40.68-42.09 12.06 0 17.74 5 17.74 15.37-.02 15.61-24.86 26.72-58.44 26.72zm257.93-90.78q-22.17-21.08-61.89-21.08h-74.06v23l15.4.81v125.66q0 6.75-7.83 7.56l-8.92.82v21.89h76.76q34.59 0 57.84-21.62 11.63-10.82 18.38-29.73 6.75-19.2 6.75-44.87-.02-41.35-22.45-62.44zm-23.78 116q-13 16.77-36.22 16.76h-27.57V99.88h24q52.71 0 52.71 62.16.03 31.91-12.89 48.65zM1630.81 131q-6.21-7-17.56-12.16-11.09-5.42-27.3-5.41-23.25 0-42.44 14.6-10 7.83-15.94 22.7-6 14.59-6 34.6 0 35.67 16 54.05 15.95 18.1 44 18.11 28.38 0 46.49-19.19t18.11-56.49q0-17.84-4.6-30.81-4.27-13.29-10.76-20zm-47 102.71q-9.18 0-15.4-4.33-14.06-9.72-14.06-47.84 0-20.53 7.3-32.43t22.71-11.89q15.68 0 22.16 12.43 6.75 12.44 6.76 36.49-.04 47.53-29.5 47.53zm141.65-1.35q-16.22 0-24.87-12.71t-8.65-35.67q0-46.21 32.71-46.21a31.09 31.09 0 0 1 10.81 1.89q5.4 1.62 5.4 8.92v13l24.87-1.89v-35.22a92.53 92.53 0 0 0-44.6-11.08q-23.77 0-43 18.11-18.92 17.83-18.92 53.52t16.49 54q16.75 18.12 45.67 18.11t48.11-15.67l-11.62-20.82q-15.94 11.68-32.43 11.68zM1871.22 188a34 34 0 0 0-10.54-7.57 66.44 66.44 0 0 0-11.36-4.86q-4.59-1.62-14-4.06a87.45 87.45 0 0 1-16.22-6.21 18.54 18.54 0 0 1-6.48-5.68q-1.9-3.51-1.9-9.46a12.36 12.36 0 0 1 5.41-10.27q5.67-4.32 14.86-4.32a44.8 44.8 0 0 1 15.68 2.43q6.23 2.43 6.22 9.19v11.35l24.32-1.89V124.2q-22.15-10.8-44.86-10.81-22.44 0-37.3 11.35t-14.87 32.44q0 20.81 13.79 29.73a99.69 99.69 0 0 0 12.7 6.76q5.94 2.16 10.81 3.51l10.27 2.7a95.68 95.68 0 0 1 9.19 2.71 20.92 20.92 0 0 1 7.57 5.13 12.72 12.72 0 0 1 4 9.73q0 16.49-22.7 16.49t-22.7-11.89v-13l-24.33 1.95v37.57q16.76 8.39 49.73 8.38 22.71 0 37.3-11.35 14.87-11.62 14.87-31.89 0-15.71-9.46-25.71z"/>
</svg>
