<svg xmlns="http://www.w3.org/2000/svg" viewBox="0 0 236.07 122.78" aria-hidden="true">
  <path fill="currentColor" d="M85.33 3.1C81.83 1.69 78.05 1 74.39 0H67a8.61 8.61 0 0 1-1.61.58C48.53 3 35.23 15.67 32.53 31.9c-2.87 17.35 5.35 33.72 21.19 41.24 4.87 2.26 10.36 3.25 16.07 5v19.61a12.77 12.77 0 0 0 1.6-1.43c9.7-11.13 19.61-22.09 29.07-33.4C117 43.16 109.23 12.7 85.33 3.1zM49.81 55.33c-4.91 0-5.16-.37-5.16-5.48s.13-5.23 5.35-5.23 5.37.12 5.37 5.26-.31 5.45-5.56 5.45zm18.6-19.16c-.11 2.44 0 5 0 7.44 0 2.7-.08 5.47 0 8.07s-1.2 3.69-3.7 3.6q-1.5-.07-3 0c-3 .21-4-1.25-4-4.06.09-5 .12-9.87 0-14.87-.07-3 1-4.5 4.12-4.25a17.38 17.38 0 0 0 2.7 0c2.88-.18 4.05 1.2 3.88 4.07zM81.67 52c0 2.25-1.19 3.25-3.38 3.25h-2c-5 0-5.29-.27-5.29-5.35v-3l-.07.08V46c-.13-7.34-.37-7.07 7.74-6.76 1 0 2.72 1.76 2.84 2.76a90.52 90.52 0 0 1 .16 10zM95.2 38.87c0 4.05-.11 8.13 0 12.14.12 3.24-1.29 4.57-4.44 4.31-1-.07-2 0-3 0-2.18 0-3.3-1.06-3.3-3.32V26c0-2.23 1.14-3.13 3.35-3.23 7.22-.33 7.4-.21 7.4 7zM55.14 83a30.33 30.33 0 0 0-6.14-.9c-9.84-.39-17.75 5.14-20 14.44a43.15 43.15 0 0 0-1 12.36c.43 7 4.87 11.61 11.7 13a27.88 27.88 0 0 0 12.78-.34c5.78-1.52 7.82-5 6.33-11.11-.77.29-1.53.55-2.27.87a23.34 23.34 0 0 1-10.87 2.33c-4.31-.27-6.58-2.81-6.44-7.35 2.49.12 4.83.28 7.19.33A18.63 18.63 0 0 0 58.51 103c4-3 5.1-7.23 4.27-11.87A9.75 9.75 0 0 0 55.14 83zm-3.81 13.63a8.39 8.39 0 0 1-4.06 2.2 58.88 58.88 0 0 1-7.38.59c.68-6 4.58-9.32 9.46-8.41 2.86.54 4.03 3.55 1.98 5.62zM21.65 82.15c-3.38.35-5.59 2.52-7.88 5.35a6.79 6.79 0 0 0-.5-2.56c-.47-.79-1.27-1.94-2-1.94a33 33 0 0 0-7.13 1.08 3.11 3.11 0 0 0-1.52 2.3c-.84 9.62-1.42 19.35-2.35 29-.54 5.86-1 6.74 6.08 6.62 3.93-.07 4.55-.67 4.93-4.73.6-6.46 1.27-13 2-19.46v-.34a6.7 6.7 0 0 1 7.66-5.57c3 .45 3.07.46 4.14-2.38a13.2 13.2 0 0 0 .87-3.2c.3-3.17-1.12-4.48-4.3-4.17zm169.93 1.72a15.42 15.42 0 0 0-4.14-1.28c-4.89-.83-9.71-.82-14.07 2-4.51 2.92-5.92 7.32-5.58 12.42.31 4.72 3.5 6.94 7.56 8.34A24.43 24.43 0 0 1 179 107a3.35 3.35 0 0 1 2 3.89 3.25 3.25 0 0 1-3.63 2.74 25.42 25.42 0 0 1-6.86-1.22c-3.53-1.25-4-1.15-4.21 2.7v1.66c0 2.7.47 3.68 3.07 4.47a24.51 24.51 0 0 0 7.47 1.59c6.26-.3 8.86-1.39 12.15-4.89 6.51-6.86 4.34-16.69-4.37-20a14.63 14.63 0 0 1-4.06-2 3.58 3.58 0 0 1-1.1-2.76 2.82 2.82 0 0 1 2-1.93 22.44 22.44 0 0 1 6.68.68c1.75.5 2.78.21 3.67-1.2a20.62 20.62 0 0 0 1.35-2.32c.84-2.04.42-3.6-1.58-4.54zm-74.42 24.49c1.32-12.83 2.71-25.62 4.06-38.47.36-3.46.8-4.25-2.89-4.66a26.1 26.1 0 0 0-5 0c-2.35.29-3.22 2.23-3.29 4.55a52.79 52.79 0 0 1-.52 5.59c-.35 3.13-.72 6.26-1.1 9.52-9-5.94-17.54-1.37-21.15 4.63a29.58 29.58 0 0 0-3.07 24.61c1.54 5.25 5.59 8 11 8.31A11.25 11.25 0 0 0 106 117c2.72 5.07 7.42 6.81 12.42 4.81 2.79-1.14 4.18-4.67 3.18-8.26-4.89.09-4.98.04-4.44-5.19zm-11.08-.17c-.25 2.45-3.54 5.19-6 5.28-3 .1-4.94-1.56-5.58-4.78a19.43 19.43 0 0 1-.41-3.57 26.06 26.06 0 0 1 2.17-9.76c1.89-4.21 6.34-5.65 10-3.47a2.7 2.7 0 0 1 1.16 2q-.51 7.17-1.34 14.3zm129.47 5.28c-4.29.56-4.67.19-4.29-4q.76-8.4 1.61-16.78c.63-6.26-2.4-10-8.67-10.49-4-.34-7.34 1.08-10.44 3.38L212 86.81c.07-1.16.09-2 .18-2.78q.82-7 1.54-14c.35-3.45.3-3.51-2.86-4.73h-4.94c-2.5.61-3.39 2.32-3.33 4.73a14.59 14.59 0 0 1-.16 1.87q-2.48 23.38-4.92 46.77c-.23 2.17.49 3.12 2.66 3.31a37.6 37.6 0 0 0 5.2 0h.28a3 3 0 0 0 2.93-3.07c.68-7.11 1.52-14.2 2.27-21.31a7.19 7.19 0 0 1 5.75-6.2c3.41-.59 5.21 1.08 4.88 4.51-.55 5.53-1.08 11-1.55 16.58-.68 7.45 5 11.92 12 9.55l.32-.13a6.39 6.39 0 0 0 3.3-8.44zm-73.4 0c-3.08.43-3.81-.25-3.53-3.29.12-1.31.24-2.62.37-3.93.72-6.9 1.5-13.79 2.14-20.7a3 3 0 0 0-1-2.39c-3-1.78-7.64-.32-8.89 2.22-2.63-1.06-5.14-2.65-7.82-3-6.76-1-11.39 2.56-14.6 8.19-3.06 5.36-3.71 11.18-3.52 17.23.26 8.3 3.16 12.28 10.88 14.79 1.27.22 8.41.32 11.38-5.62 2.43 4.89 7.27 6.76 12.21 4.85 3.09-1.18 4.45-4.56 3.38-8.45a6.64 6.64 0 0 0-1 .12zM148.8 98.38c-.29 3.26-.63 6.51-1 9.76a6.54 6.54 0 0 1-2.74 4l-.39.31a4.93 4.93 0 0 1-4.69.82c-2-.51-3.29-2.08-3.79-4.59a19.43 19.43 0 0 1-.41-3.57 26.08 26.08 0 0 1 2.14-9.8c1.89-4.21 6.37-5.65 10-3.47a1.61 1.61 0 0 1 .44.38 2.58 2.58 0 0 1 .91 1.9c-.14 1.42-.27 2.88-.47 4.26z"/>
</svg>
