<svg xmlns="http://www.w3.org/2000/svg" viewBox="0 0 45.45 14.8" aria-hidden="true" fill="currentColor"><path d="M40.87 3.81a1 1 0 1 0 1 1 1 1 0 0 0-1-1zM24.48 5.72a2.94 2.94 0 0 0-2.74 3.06 2.92 2.92 0 0 0 2.74 3.06A2.7 2.7 0 0 0 26.6 11a.6.6 0 0 0 0-.84.63.63 0 0 0-.77.08 1.89 1.89 0 0 1-1.26.54 1.7 1.7 0 0 1-1.56-1.53h3.5a.73.73 0 0 0 .77-.67v-.15a2.7 2.7 0 0 0-.14-.43 2.84 2.84 0 0 0-2.66-2.28zM23 8.15a1.51 1.51 0 0 1 3 0zm-1.7-2.4a2.21 2.21 0 0 0-2.05.75v-.07a.58.58 0 0 0-.58-.58.57.57 0 0 0-.57.58v4.7a.58.58 0 0 0 1.15.07V8.72a1.75 1.75 0 0 1 1.65-1.84h.37a.57.57 0 0 0 0-1.14zm19.57.61a.58.58 0 0 0-.58.57v4.2a.58.58 0 1 0 1.15 0v-4.2a.58.58 0 0 0-.57-.57zm-8.48-3.19a.58.58 0 0 0-.58.57v2.57a2 2 0 0 0-1.46-.59 2.94 2.94 0 0 0-2.75 3.06 2.92 2.92 0 0 0 2.75 3.06 2 2 0 0 0 1.49-.59.57.57 0 0 0 1.16-.12V3.74a.58.58 0 0 0-.61-.57zm-2 7.53a1.78 1.78 0 0 1-1.6-1.92 1.77 1.77 0 0 1 1.6-1.91 1.77 1.77 0 0 1 1.6 1.91 1.77 1.77 0 0 1-1.64 1.92zm8-7.53a.58.58 0 0 0-.57.57v2.57a2 2 0 0 0-1.47-.59 2.94 2.94 0 0 0-2.75 3.06 2.92 2.92 0 0 0 2.74 3.06 2 2 0 0 0 1.49-.59.58.58 0 0 0 .71.39.57.57 0 0 0 .41-.51V3.74a.57.57 0 0 0-.57-.57zm-2 7.53a1.78 1.78 0 0 1-1.6-1.92 1.62 1.62 0 1 1 3.19 0 1.77 1.77 0 0 1-1.64 1.92zM45 5.84h-.58V5a.58.58 0 0 0-1.15 0v.87h-.5a.49.49 0 0 0-.52.47.49.49 0 0 0 .45.54h.54v4.24a.59.59 0 0 0 1.18 0V6.87h.5a.5.5 0 0 0 .53-.46.5.5 0 0 0-.45-.57zM9 9.91a2.45 2.45 0 0 1-1.55.45 2.38 2.38 0 0 1-1.54-.47.2.2 0 0 0-.25 0 .21.21 0 0 0 0 .29 2.93 2.93 0 0 0 1.83.57 3 3 0 0 0 1.83-.57.22.22 0 0 0 0-.3.21.21 0 0 0-.32.03zM6.42 8.14a.74.74 0 1 0-.74.74.74.74 0 0 0 .74-.74zM7.4 0a7.4 7.4 0 1 0 7.4 7.4A7.4 7.4 0 0 0 7.4 0zm4.34 8.38a1.82 1.82 0 0 1 0 .33c0 1.66-1.93 3-4.32 3s-4.31-1.35-4.31-3a1.82 1.82 0 0 1 0-.33.81.81 0 0 1-.29-.19A1.08 1.08 0 1 1 4.3 6.62a5.23 5.23 0 0 1 2.89-.91l.54-2.57A.23.23 0 0 1 8 3l1.81.36a.74.74 0 0 1 .57-.36.75.75 0 0 1 .82.66.74.74 0 0 1-.66.81.75.75 0 0 1-.82-.66l-1.58-.37-.48 2.31a5.26 5.26 0 0 1 2.85.91 1.07 1.07 0 1 1 1.23 1.72zm-2.64-1a.74.74 0 0 0 0 1.48.76.76 0 0 0 0-1.51z"/></svg>
