<svg xmlns="http://www.w3.org/2000/svg" viewBox="0 0 430 180" aria-hidden="true">
  <path fill="currentColor" d="M371.51 0v111.45H430V0zM1.2 179.1h121v-60.6H1.2z" opacity=".35"/>
  <path fill="currentColor" d="M364.2 0H0v111.45h364.2zM60.84 95.24H46.79a1.15 1.15 0 0 1-1.28-.9l-9-29.09h-4.45c-.47 0-.7.22-.7.68V94.1a1.09 1.09 0 0 1-1.17 1.13h-13A1.08 1.08 0 0 1 16 94.1V19.69a1.09 1.09 0 0 1 1.17-1.13h19C50.33 18.57 59.46 25 59.45 42c0 9.7-3.4 16-8.9 19.61l10.87 32.5c.24.56 0 1.13-.58 1.13zm46.71-64.47a1.08 1.08 0 0 1-1.18 1.12H86.48a.61.61 0 0 0-.7.68v16.68c0 .45.23.67.7.67h17.2a1.09 1.09 0 0 1 1.17 1.13v11a1.09 1.09 0 0 1-1.17 1.13H86.47a.61.61 0 0 0-.7.68v17.41c0 .45.24.67.71.67h19.89a1.09 1.09 0 0 1 1.17 1.13v11a1.08 1.08 0 0 1-1.17 1.12H71.6a1.09 1.09 0 0 1-1.17-1.13v-74.4a1.09 1.09 0 0 1 1.17-1.13h34.75a1.09 1.09 0 0 1 1.17 1.13zm29 65.51c-14.39 0-21.29-7.34-21.52-20.53 0-.68.24-1.13.94-1.24l12.52-1.91c.82-.11 1.29.23 1.29.9.22 7.1 2.33 9.92 6.89 9.92 4.33 0 6.32-2.13 6.33-9.13 0-6.76-1.41-9.13-7.37-11.38l-4.8-1.81c-11.23-4.17-15.09-9.93-15.09-22.21 0-13.87 6.92-21.31 21.07-21.3 13.93 0 20.48 7 21.06 19.06a1.16 1.16 0 0 1-1.05 1.24l-11.94 1.79c-.7.12-1.29-.22-1.29-.9-.11-5.52-2.1-8.34-6.31-8.34s-6.09 2.47-6.09 7.66c0 5.75 1.29 7.55 7.49 9.92l4.79 1.81c10.88 4.06 15.09 9.7 15.09 22.67-.02 15.67-6.22 23.78-22.02 23.78zm72.79-13c-2.93 8.46-10 13-20.37 13s-17.43-4.52-20.35-13c-1.28-3.5-1.63-6.65-1.63-26.38s.36-22.89 1.65-26.38c2.93-8.46 10-13 20.36-13s17.43 4.52 20.36 13c1.27 3.55 1.64 6.7 1.64 26.48s-.39 22.84-1.67 26.33zm49.84 10.85A1.08 1.08 0 0 1 258 95.3h-35a1.09 1.09 0 0 1-1.17-1.13v-74.4a1.09 1.09 0 0 1 1.17-1.14h13a1.09 1.09 0 0 1 1.17 1.13v61.56c0 .45.23.67.7.67H258a1.08 1.08 0 0 1 1.17 1.13zm43.91-74.4l-15.94 74.4c-.12.68-.47 1.13-1.17 1.13h-12.65c-.7 0-1.05-.45-1.28-1.13l-15.78-74.36c-.23-.68.12-1.13.94-1.13h13.22a1.18 1.18 0 0 1 1.29 1.12l8 48.48h.36l7.73-48.47a1.19 1.19 0 0 1 1.29-1.13h13c.9.02 1.21.47.98 1.14zm45.39 11.06A1.09 1.09 0 0 1 347.3 32h-19.89c-.47 0-.7.22-.7.67v16.66c0 .45.24.67.7.67h17.2a1.08 1.08 0 0 1 1.17 1.13v11a1.08 1.08 0 0 1-1.17 1.12H327.4c-.47 0-.7.22-.7.67v17.42a.61.61 0 0 0 .7.68h19.89a1.09 1.09 0 0 1 1.17 1.13v11a1.09 1.09 0 0 1-1.17 1.13h-34.76a1.08 1.08 0 0 1-1.17-1.13V19.74a1.08 1.08 0 0 1 1.17-1.12h34.76a1.09 1.09 0 0 1 1.17 1.13zM189 30.9a5.56 5.56 0 0 0-5.62 3.73c-.59 1.79-.82 3.71-.83 22.32s.23 20.52.81 22.32a6.1 6.1 0 0 0 11.23 0c.59-1.8.83-3.72.83-22.32s-.22-20.52-.81-22.32A5.57 5.57 0 0 0 189 30.9zm-153.52.63h-3.4a.61.61 0 0 0-.7.68v19.62c0 .44.23.67.7.67h3.39c6 0 8.54-2.36 8.55-10.48s-2.58-10.49-8.55-10.49zm141.75 104.78a2.67 2.67 0 0 0-2.69 1.78c-.28.87-.39 1.79-.39 10.71s.11 9.84.39 10.7a2.92 2.92 0 0 0 5.39 0c.28-.86.39-1.78.39-10.7s-.11-9.84-.39-10.71a2.68 2.68 0 0 0-2.7-1.78zm63.2 5.3l-2.53 12.76h5.1l-2.42-12.76zM129 118.5v60.6h300.76v-60.6zm34.75 17.76a.52.52 0 0 1-.56.54h-6c-.23 0-.34.1-.34.32v29.52a.51.51 0 0 1-.56.54h-6.23a.52.52 0 0 1-.56-.54v-29.52c0-.22-.11-.32-.34-.32h-6a.52.52 0 0 1-.56-.54V131a.51.51 0 0 1 .56-.54h20a.51.51 0 0 1 .56.54zM187 161.45c-1.41 4.05-4.77 6.22-9.77 6.22s-8.36-2.17-9.76-6.22c-.62-1.68-.79-3.19-.79-12.65s.17-11 .79-12.66c1.4-4 4.77-6.21 9.76-6.21s8.36 2.16 9.77 6.21c.61 1.68.78 3.19.78 12.66s-.17 10.97-.78 12.65zm27.78 6.22c-6.9 0-10.21-3.52-10.33-9.84 0-.33.12-.54.45-.6l6-.92c.39-.05.62.11.62.44.11 3.4 1.12 4.76 3.31 4.76s3-1 3-4.39-.67-4.38-3.53-5.46l-2.3-.86c-5.39-2-7.24-4.76-7.24-10.65 0-6.65 3.31-10.22 10.1-10.22s9.82 3.35 10.1 9.13a.56.56 0 0 1-.5.6l-5.73.87c-.33.05-.61-.11-.61-.44-.06-2.65-1-4-3-4s-2.92 1.19-2.92 3.68c0 2.76.62 3.62 3.59 4.76l2.3.86c5.22 2 7.24 4.65 7.24 10.87 0 7.51-2.97 11.41-10.55 11.41zm37.37-.49h-6.22a.57.57 0 0 1-.62-.54l-1.24-6.64h-7.23l-1.29 6.65a.58.58 0 0 1-.62.54h-6.23a.42.42 0 0 1-.45-.54l8.3-35.68c.11-.33.29-.55.62-.55h6.62a.61.61 0 0 1 .62.55l8.19 35.68a.42.42 0 0 1-.45.53zM275.78 131l-7.63 35.68c-.06.33-.23.54-.56.54h-6.06c-.34 0-.51-.21-.62-.54L253.34 131c-.12-.33 0-.54.45-.54h6.34a.56.56 0 0 1 .61.54l3.87 23.25h.17l3.71-23.25a.56.56 0 0 1 .61-.54h6.23c.39-.04.56.17.45.54zm22.28 5.29a.51.51 0 0 1-.56.54H288a.3.3 0 0 0-.34.33v8a.3.3 0 0 0 .34.33h8.25a.51.51 0 0 1 .56.53v5.31a.51.51 0 0 1-.56.53H288a.3.3 0 0 0-.34.33v8.33a.3.3 0 0 0 .34.32h9.54a.52.52 0 0 1 .56.54v5.3a.52.52 0 0 1-.56.54h-16.7a.53.53 0 0 1-.57-.54V131a.53.53 0 0 1 .57-.55h16.66a.52.52 0 0 1 .56.55zm35.19 30.39a.53.53 0 0 1-.56.54h-16.78a.52.52 0 0 1-.56-.54V131a.52.52 0 0 1 .56-.55h6.23a.53.53 0 0 1 .56.55v29.52c0 .21.11.32.34.32h9.65a.53.53 0 0 1 .56.54zm12.18 0a.53.53 0 0 1-.56.54h-6.23a.52.52 0 0 1-.56-.54V131a.52.52 0 0 1 .56-.55h6.23a.53.53 0 0 1 .56.55zM372.36 131l-7.63 35.68c-.05.33-.22.54-.56.54h-6.06c-.33 0-.5-.21-.62-.54L349.92 131c-.12-.33.05-.54.45-.54h6.34a.55.55 0 0 1 .61.54l3.88 23.25h.17l3.7-23.25a.56.56 0 0 1 .61-.54h6.24c.39-.04.55.17.44.54zm22.29 5.29a.52.52 0 0 1-.57.54h-9.54a.29.29 0 0 0-.33.33v8a.29.29 0 0 0 .33.33h8.25a.51.51 0 0 1 .56.53v5.31a.51.51 0 0 1-.56.53h-8.25a.29.29 0 0 0-.33.33v8.33a.29.29 0 0 0 .33.32h9.54a.53.53 0 0 1 .57.54v5.3a.53.53 0 0 1-.57.54h-16.66a.52.52 0 0 1-.56-.54V131a.52.52 0 0 1 .56-.55h16.66a.53.53 0 0 1 .57.55zm14.42 31.42c-6.9 0-10.21-3.52-10.33-9.84 0-.33.12-.54.45-.6l6-.92c.39-.05.62.11.62.44.11 3.4 1.12 4.76 3.31 4.76s3-1 3-4.39-.68-4.38-3.54-5.46l-2.3-.86c-5.39-2-7.24-4.76-7.24-10.65 0-6.65 3.31-10.22 10.1-10.22s9.82 3.35 10.1 9.13a.56.56 0 0 1-.5.6l-5.73.87c-.33.05-.61-.11-.61-.44-.06-2.65-1-4-3-4s-2.92 1.19-2.92 3.68c0 2.76.62 3.62 3.59 4.76l2.3.86c5.22 2 7.24 4.65 7.24 10.87.01 7.47-2.96 11.37-10.54 11.37z"/>
</svg>
