<svg viewBox="0 0 495 159" fill="currentColor" xmlns="http://www.w3.org/2000/svg">
<path d="M82.3654 145.207L74.9618 126.235L146.222 129.937L142.983 160.477L82.3654 145.207ZM99.4864 -1.47729L0 45.7209L15.27 116.518H35.63L32.3909 65.6182L35.1673 64.6927L47.6609 116.518H68.4836L68.0209 54.5127L70.7973 53.5872L81.44 116.518H104.114L109.204 42.0191L112.443 40.6309L117.995 116.518H147.147L157.79 12.8672L99.4864 -1.47729ZM492.342 142.894L464.115 138.266V134.565L491.416 133.639L490.954 126.698H456.249L454.398 144.282L483.087 149.372V152.611L453.01 153.999L452.085 160.477H494.193L492.342 142.894ZM222.109 140.117L221.646 146.595L231.826 147.058V153.536L210.078 153.074L211.004 134.102L240.618 133.639L240.155 126.698H201.749L198.51 160.477H242.006L241.081 139.655L222.109 140.117V140.117ZM406.737 152.611V146.595L427.097 146.133V139.655L406.275 139.192V133.176L433.575 132.714V125.773H396.557L395.632 160.477H434.501L434.038 153.536L406.737 152.611V152.611ZM377.123 160.477L373.421 126.235H363.704L349.359 142.431L335.015 126.235H325.297L322.058 160.477H333.626L334.552 138.266L349.359 153.536L364.166 138.266L365.092 160.477H377.123ZM328.074 0.836341H304.937L303.086 106.801H330.85L328.074 0.836341ZM422.47 0.836341H350.285L347.508 106.801H427.56L422.47 0.836341V0.836341ZM400.259 83.6645L374.809 84.59L373.421 22.1218L400.259 23.0473V83.6645ZM509 23.9727L506.224 0.836341H434.964L435.889 21.1963L458.563 22.1218L460.876 106.801H489.103L480.774 23.0473L509 23.9727ZM259.59 106.801H290.13L270.233 59.14L285.965 50.3482L275.323 0.836341H197.585L194.808 23.9727L212.392 23.51L204.063 107.264H231.364L232.289 80.4254L251.724 69.7827L259.59 106.801V106.801ZM233.677 22.1218L255.888 21.6591L258.665 42.9445L232.752 54.9754L233.677 22.1218ZM293.832 160.477H305.4L296.145 126.235H268.382L259.127 160.477H270.695L272.546 151.685L291.518 152.148L293.832 160.477ZM274.397 145.207L276.711 134.102L287.816 133.639L290.13 144.745L274.397 145.207Z" />
</svg>
