<svg viewBox="0 0 563 163" fill="currentColor" xmlns="http://www.w3.org/2000/svg">

<path d="M205.207 61.7795C203.719 61.2836 200.58 60.9529 197.44 60.9529C188.019 60.9529 177.938 68.5838 177.938 78.0037V122.927H156.454V42.7741H177.112V50.8719C181.905 44.9224 190.663 41.1212 200.414 41.1212C202.852 41.1388 205.285 41.3599 207.686 41.7823L205.207 61.7795Z" />
<path d="M229.499 0.631805C237.267 0.631805 243.547 6.58127 243.547 14.3488C243.547 22.1163 237.267 28.0653 229.499 28.0653C221.732 28.0653 215.452 22.1163 215.452 14.3488C215.452 6.58127 221.732 0.631805 229.499 0.631805ZM240.241 122.927H218.757V42.7741H240.241V122.927V122.927Z" />
<path d="M303.705 41.1173C295.178 41.0094 286.88 43.8755 280.238 49.2228V42.7734H259.576V162.586H281.062V117.309C287.172 122.136 294.762 124.705 302.548 124.582C314.448 124.582 325.848 119.289 332.954 111.026C339.237 103.753 343.032 93.8425 343.032 82.9329C343.032 59.2999 325.515 41.1173 303.705 41.1173ZM301.093 105.076C287.748 105.076 278.976 95.8667 278.976 83.003C278.976 70.1393 287.748 60.9297 301.093 60.9297C312.485 60.9297 321.721 70.8141 321.721 83.003C321.721 95.192 312.485 105.076 301.093 105.076V105.076Z" />
<path d="M473.427 122.927H451.942V5.58948H473.427V122.927V122.927Z" />
<path d="M561.016 110.201C553.249 119.456 540.523 124.579 528.129 124.579C504.166 124.579 486.152 108.053 486.152 82.9331C486.152 60.6224 501.356 41.1211 525.154 41.1211C547.3 41.1211 563 59.7958 563 82.1065C563.012 84.1554 562.846 86.2015 562.504 88.2215H506.975C508.132 99.459 517.222 107.227 528.625 107.227C537.714 107.227 544.986 102.103 548.787 97.9718L561.016 110.201ZM541.02 72.5215C540.358 65.4151 533.914 58.474 525.154 58.474C516.23 58.474 508.959 65.2502 507.967 72.5215H541.02Z" />
<path d="M399.889 41.1173C391.363 41.0094 383.065 43.8755 376.423 49.2228V42.7734H355.76V162.586H377.246V117.309C383.357 122.136 390.947 124.705 398.733 124.582C410.632 124.582 422.033 119.289 429.139 111.026C435.422 103.753 439.216 93.8425 439.216 82.9329C439.216 59.2999 421.7 41.1173 399.889 41.1173ZM397.278 105.076C383.932 105.076 375.161 95.8667 375.161 83.003C375.161 70.1393 383.933 60.9296 397.278 60.9296C408.669 60.9296 417.905 70.8139 417.905 83.0029C417.905 95.1918 408.67 105.076 397.278 105.076Z" />
<path d="M112.164 93.725C107.313 90.9242 101.851 90.1125 96.44 89.9235C91.9004 89.765 85.1275 86.8559 85.1275 78.5978C85.1275 72.4449 90.1153 67.4931 96.4424 67.2722C101.853 67.0832 107.315 66.2704 112.164 63.4706C116.52 60.9556 120.137 57.3383 122.652 52.9823C125.167 48.6262 126.491 43.6849 126.491 38.6549C126.491 33.625 125.167 28.6837 122.652 24.3276C120.137 19.9716 116.52 16.3543 112.164 13.8394C107.808 11.3245 102.866 10.0006 97.8364 10.0007C92.8065 10.0008 87.8652 11.3249 83.5092 13.84C79.1532 16.3551 75.536 19.9725 73.0211 24.3286C70.5063 28.6848 69.1824 33.6261 69.1826 38.6561C69.1826 44.2078 71.1572 49.3168 73.6767 54.0553C75.7958 58.0407 76.8679 65.4377 69.6001 69.6335C64.1937 72.7549 57.4465 70.7785 54.0763 65.3848C51.2295 60.8291 47.793 56.5606 42.9817 53.7823C38.6257 51.2673 33.6845 49.9433 28.6546 49.9433C23.6247 49.9433 18.6835 51.2673 14.3275 53.7822C9.97145 56.2972 6.35418 59.9144 3.83924 64.2704C1.3243 68.6264 0.000289917 73.5677 0.000289917 78.5976C0.000289917 83.6274 1.3243 88.5687 3.83924 92.9247C6.35418 97.2807 9.97145 100.898 14.3275 103.413C18.6835 105.928 23.6247 107.252 28.6546 107.252C33.6845 107.252 38.6257 105.928 42.9817 103.413C47.7917 100.636 51.2285 96.3698 54.0735 91.8169C56.4096 88.0782 62.2443 83.3127 69.5998 87.5626C74.998 90.6815 76.6668 97.515 73.6742 103.144C71.1551 107.881 69.183 112.989 69.183 118.54C69.183 123.57 70.507 128.511 73.0219 132.867C75.5368 137.223 79.154 140.84 83.51 143.355C87.866 145.87 92.8072 147.194 97.837 147.194C102.867 147.194 107.808 145.87 112.164 143.355C116.52 140.84 120.137 137.223 122.652 132.867C125.167 128.511 126.491 123.57 126.491 118.54C126.491 113.51 125.167 108.569 122.652 104.213C120.137 99.8572 116.52 96.2399 112.164 93.725V93.725Z" />

</svg>
