<svg xmlns="http://www.w3.org/2000/svg" viewBox="0 0 75 87.8"><path d="M47.5 0A13.13 13.13 0 0 1 45 3.2c-2.1 1.7-4.8 1.9-7.4 1.7h-.2a15.62 15.62 0 0 0-15.6 15.6v6.9l-.3.3c-3.9 3.4-5.4 8.2-5.4 13.2 0 5.6 2.1 11.6 5.2 16.6h-9.8a6 6 0 0 1-6-4.3H0v.7c0 6.7 5.4 9.7 11.3 9.7h12.5l-2.6 9.5a10 10 0 0 0 .5 7.4 6.42 6.42 0 0 0 4.3 3.4 6.87 6.87 0 0 0 4-.3l.8-.3.4.7.6.9a7.25 7.25 0 0 0 11.6 0l.6-.9.4-.7.8.3a6.48 6.48 0 0 0 3.9.3 6.71 6.71 0 0 0 4.3-3.4 10 10 0 0 0 .4-7.4l-2.6-9.5h12.5c5.9 0 11.3-3 11.3-9.7v-.6h-5.6a6 6 0 0 1-6 4.3h-9.8c3.1-5 5.2-11 5.2-16.6 0-5.1-1.5-9.8-5.4-13.2l-.1-.1 7.6-4.9c-1.2-3.4-6.4-7.9-9.2-9.4a9.74 9.74 0 0 0-1.5-2.4l-.4-.4.2-.5c1.1-2.9-.8-7.3-2.5-10.1" fill="#54476e" fill-rule="evenodd"/><path d="M48.5 63.7l2.8 10.2c2.2 8.1-5.6 10.8-8.5 3.9.5 10.3-11.1 10.3-10.6 0-2.8 6.9-10.8 4.2-8.6-3.9l2.8-10.2h1.5a6.48 6.48 0 0 1 6.7 5.1h5.7a6.41 6.41 0 0 1 6.7-5.1zm-9.7-50a4.7 4.7 0 1 1-4.7 4.7 4.69 4.69 0 0 1 4.7-4.7zm11.8 15c3.6 2.5 5.8 6.4 5.8 12.3a28.09 28.09 0 0 1-4 13.7 7.73 7.73 0 0 0-2.7-.6c-.7-.1-1.3-.8-2.5-.8s-1.9.7-2.6.8c-1.4.2-2.3.1-2.9.7a3.7 3.7 0 0 0-.8 1.8c0 .3-.1.7-.1 1.1v1.1a6.66 6.66 0 0 0-2.7 3l-.6 1-.6-1a8.4 8.4 0 0 0-2.7-3.1v-1.1a3.75 3.75 0 0 0-.1-1.1 3 3 0 0 0-.8-1.8c-.6-.6-1.5-.5-2.9-.7-.7-.1-1.3-.8-2.6-.8s-1.8.7-2.5.8a7.73 7.73 0 0 0-2.7.6 29.2 29.2 0 0 1-4-13.7c0-5.8 2.2-9.8 5.8-12.3l3.3-2.1c.8-.5.9-1.1-.4-1l-3 .3v-5.4A13.14 13.14 0 0 1 37.4 7.3s8.2.4 9.8-3.2c1.5 2.9.7 5.3-.8 6.7a7 7 0 0 1 3 3.3c-3 4.3-3.1 11 1.2 14.6z" fill="#af6bd6" fill-rule="evenodd"/><path d="M22.6 54.7a29.2 29.2 0 0 1-4-13.7c0-5.8 2.2-9.8 5.8-12.3l3.3-2.1c.8-.5.9-1.1-.4-1l-3 .3v-5.4a13.21 13.21 0 0 1 6-11c-4.8 5.6-2 14.9 2.8 17.3C21.4 34 25 44.2 30.3 54c-.7-.1-1.3-.7-2.5-.7s-1.8.7-2.5.8a7.73 7.73 0 0 0-2.7.6M47.2 4.3c1.5 2.9.7 5.3-.8 6.7a8.24 8.24 0 0 0-1.9-.6c-.2 0-.3-.3 0-.5a6 6 0 0 0 2.7-5.6zm-9.3 81.2c-2.9.2-5.9-2.3-5.7-7.7-2.8 6.9-10.8 4.2-8.6-3.9l2.8-10.2h1.5a6.48 6.48 0 0 1 6.7 5.1h5.6v.1c-2.7 5.5-2.3 10.7-2.3 16.6z" fill="#8c55b7" fill-rule="evenodd"/><path d="M37.5 32.5c6.6 0 12 5 12 13.5a18.93 18.93 0 0 1-1.6 7.4 2.2 2.2 0 0 0-.8-.1c-1.3 0-1.9.7-2.6.8-1.4.2-2.3.1-2.9.7a3.7 3.7 0 0 0-.8 1.8c0 .3-.1.7-.1 1.1v1.1a6.66 6.66 0 0 0-2.7 3l-.6 1-.6-1a8.4 8.4 0 0 0-2.7-3.1v-1.1a3.75 3.75 0 0 0-.1-1.1 3 3 0 0 0-.8-1.8c-.6-.6-1.5-.5-2.9-.7-.7-.1-1.3-.8-2.6-.8a1.48 1.48 0 0 0-.7.1 18.93 18.93 0 0 1-1.6-7.4c.1-8.4 5.4-13.4 12.1-13.4" fill="#fff" fill-rule="evenodd"/><path d="M54.9 18.3a23.21 23.21 0 0 0-4.2-3 10.47 10.47 0 0 0-1.5 5.8 8.74 8.74 0 0 0 1.7 5l7.2-4.2a26.65 26.65 0 0 0-3.2-3.6" fill="#ffb03f"/><path d="M49.4 23.1a8.16 8.16 0 0 0 1.5 3.1l7.2-4.2a28.48 28.48 0 0 1-8.7 1.1" fill="#ed9140"/><path d="M56.5 21a17.44 17.44 0 0 0-5-4.2 3.59 3.59 0 0 0-.7 1.8q2.85 1 5.7 2.4" fill="#ffce92"/><path d="M40.3 15.3a1.5 1.5 0 1 1-1.5 1.5 1.37 1.37 0 0 1 1.5-1.5" fill="#fff" fill-rule="evenodd"/><path d="M28.6 55.7a1.14 1.14 0 0 0-.8-.3 1 1 0 0 0-1 1v4.8a.91.91 0 0 0 .3.7 1.08 1.08 0 0 0 .7.3 1 1 0 0 0 1-1v-4.8a.57.57 0 0 0-.2-.7m-3.9 0a1.27 1.27 0 0 0-.9.4 1.23 1.23 0 0 0-.4.8c0 .3-.1.6-.1.9v2.7a1.41 1.41 0 0 0 1.2 1.2h.1a.86.86 0 0 0 .6-.3.91.91 0 0 0 .3-.7v-4.1a.91.91 0 0 0-.3-.7.76.76 0 0 0-.5-.2zm7.2.5a1.23 1.23 0 0 0-.8-.4H31a.86.86 0 0 0-.6.3.91.91 0 0 0-.3.7V61.1a.91.91 0 0 0 .3.7c.1.2.3.2.5.3h.1a1.23 1.23 0 0 0 .8-.4 2.62 2.62 0 0 0 .5-.9c0-.3.1-.6.1-.9v-1.8a2.77 2.77 0 0 0-.1-.9 1.33 1.33 0 0 0-.4-1z" fill="#ed9140"/><path d="M29 59.1a1.4 1.4 0 0 1-1.1.8c-.4 0-.8-.3-1.1-.9v-2.6a.91.91 0 0 1 .3-.7 1.08 1.08 0 0 1 .7-.3 1.14 1.14 0 0 1 .8.3.91.91 0 0 1 .3.7v2.4zm-3.5-.5a1.27 1.27 0 0 1-1.1.7 1.53 1.53 0 0 1-1.2-.9v-.6a2.77 2.77 0 0 1 .1-.9 1.41 1.41 0 0 1 1.2-1.2h.1a.86.86 0 0 1 .6.3.91.91 0 0 1 .3.7v1.9zm6.4-2.4a1.23 1.23 0 0 0-.8-.4H31a.86.86 0 0 0-.6.3.91.91 0 0 0-.3.7v1.7c.3.5.7.9 1.1.9a1.4 1.4 0 0 0 1.1-.8V58a2.77 2.77 0 0 0-.1-.9.92.92 0 0 0-.3-.9z" fill="#ffb03f"/><path d="M46.3 55.7a1.14 1.14 0 0 1 .8-.3 1 1 0 0 1 1 1v4.8a.91.91 0 0 1-.3.7 1.08 1.08 0 0 1-.7.3.91.91 0 0 1-.7-.3.62.62 0 0 1-.4-.6v-4.8c0-.4.1-.7.3-.8m4 0a1.27 1.27 0 0 1 .9.4 1.23 1.23 0 0 1 .4.8c0 .3.1.6.1.9v2.7a1.41 1.41 0 0 1-1.2 1.2h-.1a.86.86 0 0 1-.6-.3.91.91 0 0 1-.3-.7v-4.1a.91.91 0 0 1 .3-.7c0-.1.2-.2.5-.2zm-7.3.5a1.23 1.23 0 0 1 .8-.4h.1a.86.86 0 0 1 .6.3.91.91 0 0 1 .3.7V61.1a.91.91 0 0 1-.3.7c-.1.2-.3.2-.5.3h-.1a1.23 1.23 0 0 1-.8-.4 2.62 2.62 0 0 1-.5-.9c0-.3-.1-.6-.1-.9v-1.8a2.77 2.77 0 0 1 .1-.9 1.33 1.33 0 0 1 .4-1z" fill="#ed9140"/><path d="M46 59.1a1.4 1.4 0 0 0 1.1.8c.4 0 .8-.3 1.1-.9v-2.6a.91.91 0 0 0-.3-.7 1.08 1.08 0 0 0-.7-.3 1.14 1.14 0 0 0-.8.3.91.91 0 0 0-.3.7v2.4zm3.4-.5a1.27 1.27 0 0 0 1.1.7 1.53 1.53 0 0 0 1.2-.9v-.6a2.77 2.77 0 0 0-.1-.9 1.41 1.41 0 0 0-1.2-1.2h-.1a.86.86 0 0 0-.6.3.91.91 0 0 0-.3.7v1.9zM43 56.2a1.23 1.23 0 0 1 .8-.4h.1a.86.86 0 0 1 .6.3.91.91 0 0 1 .3.7v1.7c-.3.5-.7.9-1.1.9a1.4 1.4 0 0 1-1.1-.8V58a2.77 2.77 0 0 1 .1-.9.92.92 0 0 1 .3-.9z" fill="#ffb03f"/><circle cx="39.3" cy="18.1" r="5.4" fill="#af6bd6"/><circle cx="38.9" cy="18.2" r="3.9" fill="#54476e"/><circle cx="40.2" cy="16.7" r="1.3" fill="#fff"/></svg>