<svg enable-background="new 0 0 86.35 26.67" xmlns="http://www.w3.org/2000/svg" viewBox="6.15 7.37 15.6 13.45">
    <g fill="#fbb040">
        <path d="m13.17 20.81c0-.54-.19-.98-.59-1.34-1.42-1.29-5-1.24-6.26-1.11l-.14-1.36c.21-.02 5.15-.5 7.31 1.45.69.62 1.04 1.41 1.04 2.35"></path>
        <path d="m13.4 20.81c0-.94.35-1.73 1.04-2.35 2.16-1.95 7.11-1.47 7.31-1.45l-.14 1.35c-1.26-.13-4.84-.18-6.26 1.11-.4.36-.59.8-.59 1.34"></path>
        <path d="m19.32 10.26s-2.25-.64-3.08.59c-.84 1.21 1.44 2.91 3.08-.59z"></path>
        <path d="m20.8 13.65s-2.09-1.04-3.14.01.88 3.14 3.14-.01z"></path>
        <path d="m13.82 7.38s-1.45 1.83-.64 3.07 3.25-.22.64-3.07z"></path>
        <path d="m13.85 12.5s-1.5 1.79-.73 3.05 3.25-.12.73-3.05z"></path>
        <path d="m8.47 10.26s2.25-.64 3.08.59-1.44 2.91-3.08-.59z"></path>
        <path d="m6.99 13.65s2.09-1.04 3.14.01-.89 3.14-3.14-.01z"></path>
    </g>
</svg>