<svg xmlns="http://www.w3.org/2000/svg" viewBox="0 0 75.23 37.81" aria-hidden="true">
  <path fill="currentColor" d="M10 12a4 4 0 0 1-1.49 3.26 6.5 6.5 0 0 1-4.14 1.19 9.78 9.78 0 0 1-4.37-.9v-3a16.64 16.64 0 0 0 2.62 1 7.63 7.63 0 0 0 2 .29 2.78 2.78 0 0 0 1.63-.41 1.4 1.4 0 0 0 .57-1.21 1.31 1.31 0 0 0-.25-.8 2.74 2.74 0 0 0-.74-.68 18.81 18.81 0 0 0-2-1A9.35 9.35 0 0 1 1.71 8.4 4.59 4.59 0 0 1 .6 7a4 4 0 0 1-.42-1.89 4 4 0 0 1 1.37-3.19A5.73 5.73 0 0 1 5.35.76a8.88 8.88 0 0 1 2.27.29 14.57 14.57 0 0 1 2.26.79l-1 2.52a14.53 14.53 0 0 0-2-.7 6.71 6.71 0 0 0-1.58-.2 2.07 2.07 0 0 0-1.41.43A1.43 1.43 0 0 0 3.34 5a1.39 1.39 0 0 0 .2.74 2.07 2.07 0 0 0 .63.62 18.69 18.69 0 0 0 2.06 1.08 8.26 8.26 0 0 1 2.93 2.05A4 4 0 0 1 10 12zm13.3 4.24h-3.23v-6.8c0-1.69-.63-2.53-1.88-2.53a2.12 2.12 0 0 0-1.93.91 5.5 5.5 0 0 0-.6 2.94v5.5h-3.19V0h3.19v3.31c0 .26 0 .87-.07 1.82l-.08.94h.17a3.7 3.7 0 0 1 3.39-1.71 4.13 4.13 0 0 1 3.12 1.11 4.37 4.37 0 0 1 1.07 3.17zm8.11-9.63a2 2 0 0 0-1.58.64 2.91 2.91 0 0 0-.66 1.82h4.43a2.63 2.63 0 0 0-.6-1.8 2.07 2.07 0 0 0-1.61-.64zm.45 9.84a6 6 0 0 1-4.41-1.56 5.9 5.9 0 0 1-1.58-4.41A6.54 6.54 0 0 1 27.29 6a5.24 5.24 0 0 1 4.06-1.6 5.16 5.16 0 0 1 3.86 1.41 5.34 5.34 0 0 1 1.38 3.9v1.54h-7.53a3.07 3.07 0 0 0 .8 2.13 2.85 2.85 0 0 0 2.14.72 8.63 8.63 0 0 0 2-.22 10.33 10.33 0 0 0 2-.7v2.47a8.05 8.05 0 0 1-1.79.62 11.64 11.64 0 0 1-2.32.2zm10.55-.21h-3.23V0h3.19zm8.26-2.33a7 7 0 0 0 2-.36v2.37a7.27 7.27 0 0 1-2.93.53 3.55 3.55 0 0 1-2.78-1 4.16 4.16 0 0 1-.88-2.9V7h-1.55V5.62l1.75-1.06.92-2.47h2v2.49h3.27V7h-3.23v5.6a1.27 1.27 0 0 0 .38 1 1.55 1.55 0 0 0 1 .32zm9.2-7.3a2 2 0 0 0-1.58.64 2.91 2.91 0 0 0-.66 1.82h4.47a2.63 2.63 0 0 0-.62-1.82 2.07 2.07 0 0 0-1.61-.64zm.45 9.84a6 6 0 0 1-4.41-1.56 5.9 5.9 0 0 1-1.58-4.41A6.54 6.54 0 0 1 55.75 6a5.24 5.24 0 0 1 4.06-1.6 5.16 5.16 0 0 1 3.86 1.41 5.34 5.34 0 0 1 1.38 3.9v1.54h-7.54a3.12 3.12 0 0 0 .81 2.13 2.85 2.85 0 0 0 2.11.76 8.63 8.63 0 0 0 2-.22 10.33 10.33 0 0 0 2-.7v2.47a8.05 8.05 0 0 1-1.79.62 11.64 11.64 0 0 1-2.32.2zM74.16 4.36a5.27 5.27 0 0 1 1.07.09l-.24 3a3.61 3.61 0 0 0-.94-.1 3.37 3.37 0 0 0-2.37.78 2.82 2.82 0 0 0-.85 2.2v5.94h-3.19V4.58h2.41l.47 2h.16A4.37 4.37 0 0 1 72.15 5a3.59 3.59 0 0 1 2-.6z"/><path d="M48 37.61h-3.17v-6.83c0-1.69-.63-2.53-1.88-2.53a2.12 2.12 0 0 0-1.93.91 5.54 5.54 0 0 0-.6 2.95v5.5h-3.18V21.34h3.18v3.32c0 .25 0 .86-.07 1.81l-.07 1h.16a3.68 3.68 0 0 1 3.38-1.72 4.13 4.13 0 0 1 3.12 1.11A4.41 4.41 0 0 1 48 30zm-17 .2c-3.64 0-5.45-2-5.45-6A6.4 6.4 0 0 1 27 27.27a5.58 5.58 0 0 1 4.25-1.57 8.07 8.07 0 0 1 3.63.8L34 29a14 14 0 0 0-1.4-.49 4.45 4.45 0 0 0-1.29-.2q-2.49 0-2.49 3.53c0 2.29.83 3.43 2.49 3.43A5.77 5.77 0 0 0 33 35a6.27 6.27 0 0 0 1.56-.77V37a5.33 5.33 0 0 1-1.56.68 9 9 0 0 1-2 .13zm-12.09 0a6 6 0 0 1-4.4-1.55 5.9 5.9 0 0 1-1.59-4.41 6.47 6.47 0 0 1 1.47-4.54 5.21 5.21 0 0 1 4-1.61 5.14 5.14 0 0 1 3.85 1.41A5.34 5.34 0 0 1 23.66 31v1.55h-7.52a3.06 3.06 0 0 0 .8 2.12 2.81 2.81 0 0 0 2.11.76 8.55 8.55 0 0 0 2-.22 9.47 9.47 0 0 0 2-.7V37a7.5 7.5 0 0 1-1.78.62 11.07 11.07 0 0 1-2.37.19zM18.45 28a2 2 0 0 0-1.58.64 2.92 2.92 0 0 0-.66 1.83h4.47a2.69 2.69 0 0 0-.62-1.83 2.08 2.08 0 0 0-1.61-.64zM7.38 37.61H4.14V25H0v-2.67h11.52V25H7.38z"/>
</svg>
