<svg xmlns="http://www.w3.org/2000/svg" viewBox="0 0 285 73" fill="currentColor"><path fill-rule="evenodd" clip-rule="evenodd" d="M26.555 15.142a7.564 7.564 0 01-7.57-7.571A7.564 7.564 0 0126.554 0a7.564 7.564 0 017.571 7.57v7.572h-7.57zM130.828 1.09h12.274v60.05h-12.274V1.09zM91.08 56.724l3.556-8.259c3.843 2.868 8.948 4.36 13.995 4.36 3.728 0 6.079-1.435 6.079-3.614-.022-2.353-3.369-3.082-7.474-3.977-6.501-1.416-14.903-3.247-15.009-12.599-.057-7.743 6.825-13.708 16.576-13.708 5.793 0 11.586 1.434 15.715 4.703l-3.326 8.432c-3.786-2.41-8.489-4.13-12.963-4.13-3.04 0-5.047 1.434-5.047 3.27.022 2.328 3.454 3.25 7.643 4.374 6.541 1.756 14.93 4.008 15.07 12.89 0 7.914-6.711 13.478-16.346 13.478-7.055 0-13.536-1.663-18.469-5.22zm136.448-11.241c-1.778 3.097-5.105 5.22-8.947 5.22a10.256 10.256 0 01-10.267-10.268 10.256 10.256 0 0110.267-10.266c3.842 0 7.169 2.122 8.947 5.22l9.808-5.45c-3.671-6.538-10.726-11.012-18.755-11.012-11.873 0-21.509 9.636-21.509 21.508 0 11.873 9.636 21.509 21.509 21.509 8.087 0 15.084-4.417 18.755-11.013l-9.808-5.448zM242.154 1.09v60.05h12.274V43.132l14.569 18.01h15.715l-18.526-21.394 17.149-19.96h-15.027l-13.88 16.576V1.09h-12.274zm-72.152 49.612c4.129 0 7.8-2.18 9.578-5.105V35.447c-1.778-2.983-5.449-5.277-9.578-5.277a10.256 10.256 0 00-10.267 10.266 10.256 10.256 0 0010.267 10.267zm9.578-26.04v-4.874h12.274v41.295H179.58v-4.875c-2.008 3.384-6.997 5.736-12.217 5.736-10.783 0-19.271-9.636-19.271-21.566s8.488-21.45 19.271-21.45c5.22 0 10.209 2.35 12.217 5.735zM15.198 45.542a7.564 7.564 0 01-7.57 7.57 7.564 7.564 0 01-7.571-7.57 7.564 7.564 0 017.57-7.571h7.571v7.57zm11.357-7.572a7.564 7.564 0 00-7.57 7.571v18.927a7.564 7.564 0 007.57 7.571 7.564 7.564 0 007.571-7.57V45.54a7.564 7.564 0 00-7.57-7.57zm7.571-11.413a7.564 7.564 0 00-7.57-7.571H7.57A7.564 7.564 0 000 26.555a7.564 7.564 0 007.57 7.572h18.985a7.564 7.564 0 007.571-7.571zm22.77 0a7.564 7.564 0 017.571-7.571 7.564 7.564 0 017.571 7.57 7.564 7.564 0 01-7.57 7.572h-7.572v-7.571zm-11.356 7.57a7.564 7.564 0 007.57-7.57V7.57A7.564 7.564 0 0045.54 0a7.564 7.564 0 00-7.571 7.57v18.985a7.564 7.564 0 007.57 7.571zm0 22.77a7.564 7.564 0 017.57 7.571 7.564 7.564 0 01-7.57 7.571 7.564 7.564 0 01-7.571-7.57v-7.572h7.57zM37.969 45.54a7.564 7.564 0 007.57 7.571h18.985a7.564 7.564 0 007.571-7.57 7.564 7.564 0 00-7.57-7.572H45.54a7.564 7.564 0 00-7.571 7.571z"/></svg>
