<svg xmlns="http://www.w3.org/2000/svg" viewBox="0 0 40.1 7.8" aria-hidden="true" fill="currentColor"><path d="M21.7 4.5L17 .1v7.4h1.4V3.4l4.7 4.4V.4h-1.4zM10.8 0a3.84 3.84 0 00-3.9 3.9 4 4 0 003.9 3.9 3.84 3.84 0 003.9-3.9A3.84 3.84 0 0010.8 0m0 6.4a2.48 2.48 0 01-2.5-2.5 2.5 2.5 0 015 0 2.48 2.48 0 01-2.5 2.5M4.5 3.9a4.79 4.79 0 00-1.6-.7c-1.4-.4-1.4-.8-1.4-1 0-.4.5-.8 1.2-.8a2.83 2.83 0 011.3.4l.1.1 1.1-.8-.1-.1a3.43 3.43 0 00-2.4-1A3.08 3.08 0 00.8.6 2.09 2.09 0 000 2.2a2.09 2.09 0 00.8 1.6 4.79 4.79 0 001.6.7c1.4.4 1.4.8 1.4 1 0 .4-.5.8-1.2.8a2.83 2.83 0 01-1.3-.4l-.1-.1-1.1.8.1.1a3.43 3.43 0 002.4 1 3.08 3.08 0 001.9-.6 2.09 2.09 0 00.8-1.6 2.25 2.25 0 00-.8-1.6M29.3 0a3.84 3.84 0 00-3.9 3.9 3.9 3.9 0 003.9 3.9 3.84 3.84 0 003.9-3.9A3.9 3.9 0 0029.3 0m0 6.4a2.48 2.48 0 01-2.5-2.5 2.5 2.5 0 015 0 2.54 2.54 0 01-2.5 2.5m6.3-2.6a4.79 4.79 0 001.6.7c1.4.4 1.4.8 1.4 1 0 .4-.5.8-1.2.8a2.83 2.83 0 01-1.3-.4H36l-1.1.8.1.1a3.43 3.43 0 002.4 1 3.08 3.08 0 001.9-.6 2.09 2.09 0 00.8-1.6 2.09 2.09 0 00-.8-1.6 4.79 4.79 0 00-1.6-.7c-1.4-.4-1.4-.8-1.4-1 0-.4.5-.8 1.2-.8a2.83 2.83 0 011.3.4l.1.1 1.1-.8-.1-.1a3.43 3.43 0 00-2.4-1 3.08 3.08 0 00-1.9.6 2.09 2.09 0 00-.8 1.6 1.48 1.48 0 00.8 1.5"/></svg>
