<svg xmlns="http://www.w3.org/2000/svg" viewBox="0 0 38 40"><path d="M38 1.16C38 .52 37.469 0 36.812 0H1.188C.53 0 0 .52 0 1.16v37.68C0 39.48.531 40 1.188 40h35.624C37.47 40 38 39.48 38 38.84zM16.164 14.102c.84.875 1.895 1.312 3.16 1.312 1.235 0 2.258-.437 3.07-1.312.844-.88 1.266-1.957 1.266-3.239 0-1.281-.422-2.36-1.265-3.234-.813-.875-1.836-1.313-3.07-1.313-1.266 0-2.321.438-3.16 1.313-.817.875-1.224 1.953-1.224 3.234 0 1.282.407 2.36 1.223 3.239zm6.875 6.984c-.594-1.156-1.539-1.875-2.836-2.16-1.18-.262-2.254-.051-3.223.629-.968.68-1.585 1.648-1.84 2.902-.238 1.16-.081 2.203.47 3.125.316.504.722.922 1.214 1.25.61.406.961 1.18.524 1.758-.57.754-1.282 1.43-2.125 2.035-.465.313-.746.715-.848 1.203-.105.52.023 1.027.383 1.524.351.523.824.851 1.414.984.59.129 1.152.012 1.687-.348 2.985-2.09 4.836-4.91 5.563-8.457.371-1.804.242-3.285-.383-4.445zm0 0" fill-rule="evenodd" fill="#007bff"/></svg>