<svg xmlns="http://www.w3.org/2000/svg" viewBox="0 0 157.15 157.15"><path d="M0 0h157.15v157.15H0z"/><path d="M36.62 82a4.35 4.35 0 0 1-1.71 3.53 6.18 6.18 0 0 1-1.92 1 8.14 8.14 0 0 1-2.44.35 8.51 8.51 0 0 1-2.84-.43A8.33 8.33 0 0 1 25.2 85l1.38-2.26a8.58 8.58 0 0 0 1.81 1.22 3.79 3.79 0 0 0 1.69.4 2.52 2.52 0 0 0 1.66-.53 1.81 1.81 0 0 0 .63-1.44 2.58 2.58 0 0 0-.11-.73 2.2 2.2 0 0 0-.42-.69 6.31 6.31 0 0 0-.88-.76c-.36-.28-.81-.61-1.37-1s-.86-.67-1.26-1a8.8 8.8 0 0 1-1.11-1 4.38 4.38 0 0 1-.81-1.23 3.55 3.55 0 0 1-.33-1.57 3.86 3.86 0 0 1 .42-1.82 4.09 4.09 0 0 1 1.17-1.38 5.06 5.06 0 0 1 1.74-.9 7.1 7.1 0 0 1 2.2-.32 9 9 0 0 1 2.47.31 8.12 8.12 0 0 1 2.18 1l-1.26 2a4.66 4.66 0 0 0-2.71-.9 2.22 2.22 0 0 0-1.43.45 1.38 1.38 0 0 0-.56 1.13 1.59 1.59 0 0 0 .5 1.16 15 15 0 0 0 1.72 1.45c.82.61 1.48 1.13 2 1.58a9.68 9.68 0 0 1 1.28 1.28 3.73 3.73 0 0 1 .65 1.21 5.18 5.18 0 0 1 .18 1.34M50.88 78.17A7.31 7.31 0 0 0 49.81 74a3.4 3.4 0 0 0-2.92-1.53 3.55 3.55 0 0 0-3.08 1.63 7.47 7.47 0 0 0-1.14 4.41 7.09 7.09 0 0 0 1.11 4.27 3.56 3.56 0 0 0 3.07 1.55 3 3 0 0 0 1.93-.6A4.67 4.67 0 0 0 50 82.17a7.37 7.37 0 0 0 .67-2 12.21 12.21 0 0 0 .2-2M55.4 78a10.41 10.41 0 0 1-.58 3.5 9.07 9.07 0 0 1-1.62 2.8 7.26 7.26 0 0 1-5.53 2.52 7.12 7.12 0 0 1-1.39-.13 4.75 4.75 0 0 1-1.23-.44 5.72 5.72 0 0 1-1.15-.79 10.28 10.28 0 0 1-1.18-1.2V94.5h-4.17V70.31h4.15v2.35a7.33 7.33 0 0 1 2.48-2.08 6.74 6.74 0 0 1 3.07-.66 6.87 6.87 0 0 1 2.89.6 7 7 0 0 1 2.26 1.65 7.56 7.56 0 0 1 1.47 2.55 10.2 10.2 0 0 1 .52 3.28M57.23 62.76h4.25v23.67h-4.25zM75.4 86.43v-2.16a8.14 8.14 0 0 1-2.52 2 7.06 7.06 0 0 1-3 .6 6.29 6.29 0 0 1-3.21-.76 4.26 4.26 0 0 1-1.89-2.25 3.36 3.36 0 0 1-.24-.74 8.64 8.64 0 0 1-.15-.89 8.89 8.89 0 0 1-.08-1.15v-10.8h4.25v9.24a10.62 10.62 0 0 0 .11 1.87 3.27 3.27 0 0 0 .41 1.17 2.73 2.73 0 0 0 2.63 1.36 3.32 3.32 0 0 0 3.31-2 5 5 0 0 0 .32-1.15 15.22 15.22 0 0 0 .1-1.79v-8.7h4.25v16.15zM93.75 86.43v-9.26a13 13 0 0 0-.11-1.87 3.89 3.89 0 0 0-.4-1.16 2.76 2.76 0 0 0-2.63-1.35 4 4 0 0 0-2.06.5 3 3 0 0 0-1.28 1.47 4 4 0 0 0-.27 1.18 12.89 12.89 0 0 0-.08 1.76v8.7h-4.33V70.31h4.29v2.16a7.92 7.92 0 0 1 2.52-2 7 7 0 0 1 3-.6 6.18 6.18 0 0 1 3.22.79 4.51 4.51 0 0 1 1.89 2.24c.09.24.16.48.23.73a8 8 0 0 1 .16.85c0 .38.07.76.08 1.14v10.76zM111.64 86.75l-6.42-8.9v8.58h-4.28V62.76h4.28v13.9h.45l5.72-6.61 3.22 1.38-5.48 5.87 6.48 8.07-3.97 1.38z" fill="#fff"/><path fill="#99999a" d="M119.3 85.99v-2.84l9.99-4.92-9.99-4.87v-2.9l12.89 6.48v2.64l-12.89 6.41zM120.55 66.29a1.45 1.45 0 1 1-1.47 1.44 1.42 1.42 0 0 1 1.4-1.45h.07zm0 .23a1.19 1.19 0 0 0-1.16 1.22 1.15 1.15 0 0 0 1.15 1.16 1.17 1.17 0 0 0 1.17-1.16 1.19 1.19 0 0 0-1.15-1.23zm-.27 2.06H120V67h.46a.9.9 0 0 1 .5.12.41.41 0 0 1-.17.72c.14 0 .24.15.27.39a1.12 1.12 0 0 0 .1.4h-.27a1 1 0 0 1-.11-.42.3.3 0 0 0-.32-.28h-.2zm0-.89h.19c.21 0 .39-.08.39-.28s-.11-.24-.4-.24h-.18z"/></svg>