<svg xmlns="http://www.w3.org/2000/svg" viewBox="0 0 218.26 53.2" aria-hidden="true" fill="currentColor">
  <path d="M109.1 18.16a10.2 10.2 0 0 0-5.9 2.25 7 7 0 0 0-1.75 1.8 12.63 12.63 0 0 0-2 3.87 16.37 16.37 0 0 0 .93 12.13 11.7 11.7 0 0 0 2.73 3.43 12.5 12.5 0 0 0 3.27 1.7 10.78 10.78 0 0 0 9.7-1.6 8.73 8.73 0 0 0 1.85-1.92c0-.17.52-.9.56-.33V51.6h3.66V18.7h-3.66v4.38a9.1 9.1 0 0 0-2.16-2.62 10.38 10.38 0 0 0-7.22-2.32zm1.28 3.3a7.45 7.45 0 0 1 4.78 1.54 7.26 7.26 0 0 1 2.2 2.73 12.8 12.8 0 0 1 .4 9.5 7.84 7.84 0 0 1-2.6 3.68 8.07 8.07 0 0 1-6.6 1.4 6.28 6.28 0 0 1-3.7-2.25c-1.8-2-2.3-4.78-2.26-7.37a11.32 11.32 0 0 1 1.9-6.43 6.83 6.83 0 0 1 3.63-2.5 6.68 6.68 0 0 1 2.24-.28zM82.24 8.76a13.65 13.65 0 0 0-7.84 2.56 5.17 5.17 0 0 0-1.28 1.33 8.64 8.64 0 0 0-1.84 6.15A7 7 0 0 0 73 23.13a5.24 5.24 0 0 0 1.42 1.33c2.88 2.24 6.62 2.65 10 3.67 2.12.65 4.58 1.08 6 3a5.46 5.46 0 0 1 .5 5.28 6.36 6.36 0 0 1-3 3.07 13 13 0 0 1-8.56.3 10.72 10.72 0 0 1-5.3-3.6c-.35-.56-.66-.92-1.2-.27l-2.5 1.7a10.62 10.62 0 0 0 2.38 2.75 15 15 0 0 0 5.26 2.8 17.07 17.07 0 0 0 11.3-.48 11.38 11.38 0 0 0 3.82-2.76 9.6 9.6 0 0 0 2.2-5.83 8 8 0 0 0-1.9-5.64 3.6 3.6 0 0 0-1.15-1.07 11.32 11.32 0 0 0-2.24-1.4c-3.66-1.84-7.82-2.23-11.56-3.83a6.2 6.2 0 0 1-2.88-2.5 4.8 4.8 0 0 1 1.53-5.73 9 9 0 0 1 5.54-1.6 10.86 10.86 0 0 1 8.76 4.14l3-2.25a12.2 12.2 0 0 0-3.17-3 15.17 15.17 0 0 0-9.02-2.44zM128.3 34.66a10.16 10.16 0 0 0 1.7 6.13 7.28 7.28 0 0 0 2.76 2.2 10.17 10.17 0 0 0 8.37-.16 9.2 9.2 0 0 0 3.08-2.46c.36-.32.75-1.23.95-1.28v4.15h3.66V18.72h-3.65c0 5 .06 10-.06 15a7.4 7.4 0 0 1-10.2 6.16 5.1 5.1 0 0 1-2.73-4.37c-.3-3.13-.08-6.28-.14-9.43v-7.35h-3.73zM163.8 18.16a16.42 16.42 0 0 0-8.9 3l1.6 2.7a13.33 13.33 0 0 1 7.6-2.45c2 0 4.25.36 5.37 2.1a3 3 0 0 1-.6 3.7 7.74 7.74 0 0 1-3.8 1.5c-2.54.45-5.2.55-7.56 1.62a6.38 6.38 0 0 0-2.66 2.18 7.43 7.43 0 0 0 .47 8.8 6.9 6.9 0 0 0 1.7 1.33 11.2 11.2 0 0 0 7.63.92 8.94 8.94 0 0 0 4-2.08c.56-.37.67-1 1.16-1.34.46.13.1.88.2 1.25v1.88h3.54c0-6.36.06-12.73-.06-19.1a6.16 6.16 0 0 0-2.74-4.4 11.5 11.5 0 0 0-6.9-1.6zm6 11.56c-.1 2.56.42 5.33-.85 7.68a6.6 6.6 0 0 1-5.3 3.2c-1.9.16-4.14-.08-5.43-1.63a4.62 4.62 0 0 1-.65-4.22 3.68 3.68 0 0 1 2.56-2.32c2.7-.92 5.62-.93 8.28-2a6 6 0 0 0 1.42-1zM190.36 18.26a8.78 8.78 0 0 0-5.2 2.32 17.53 17.53 0 0 0-1.67 2.27v-4.13h-3.67v24.54h3.66c0-4.78-.1-9.57.07-14.35a8.4 8.4 0 0 1 3.22-6 6.65 6.65 0 0 1 6.3-.62c.42-.22.25-1 .48-1.4L194 19a6.6 6.6 0 0 0-3.7-.78zM206.34 18.16a11.27 11.27 0 0 0-6 2c-.36.27-.78.58-1.16.9a14.23 14.23 0 0 0-2.27 3.13 16 16 0 0 0-.86 11.65 12.66 12.66 0 0 0 2.68 4.66 9.94 9.94 0 0 0 1.4 1.2 11.6 11.6 0 0 0 6.43 2.13 12.37 12.37 0 0 0 8.64-2.54 9 9 0 0 0 2-1.86l-2.48-2.25a8.4 8.4 0 0 1-5.16 3.1c-2.83.55-6.12-.05-8.07-2.3-1.66-1.57-2.2-4-2.24-6.22.35-.56 1.22-.1 1.8-.25h17.1A12.77 12.77 0 0 0 215.7 22a7.8 7.8 0 0 0-2.1-1.9 11.45 11.45 0 0 0-7.26-1.95zm1.3 3.13a7.2 7.2 0 0 1 5.95 3.7 9.37 9.37 0 0 1 .87 3.72h-15.2a8.35 8.35 0 0 1 2-5 8.88 8.88 0 0 1 1.3-1.2 8.27 8.27 0 0 1 5.08-1.23zM44.33 0H8.87A8.9 8.9 0 0 0 0 8.87v35.46a8.9 8.9 0 0 0 8.87 8.87h35.46a8.9 8.9 0 0 0 8.87-8.86V8.87A8.9 8.9 0 0 0 44.33 0m-.8 40.7a2.82 2.82 0 0 1-2.83 2.82H12.5a2.82 2.82 0 0 1-2.83-2.8V12.48a2.83 2.83 0 0 1 2.82-2.83h28.2a2.83 2.83 0 0 1 2.83 2.82zm-9.68-8.46a1.62 1.62 0 0 1-1.6 1.6H21a1.6 1.6 0 0 1-1.6-1.6V21a1.6 1.6 0 0 1 1.6-1.65h11.25a1.62 1.62 0 0 1 1.6 1.65z"/>
</svg>
