<svg id="Layer_1" data-name="Layer 1" xmlns="http://www.w3.org/2000/svg" viewBox="0 0 10.16 10.04"><defs><style>.strapi-cls-1,.strapi-cls-2{fill:#8e75ff;fill-rule:evenodd;}.strapi-cls-2{opacity:0.41;isolation:isolate;}</style></defs><path class="strapi-cls-1" d="M10,0H3.25V3.36h3.3a.21.21,0,0,1,.21.21V6.82h3.4V.21A.21.21,0,0,0,10,0Z"/><path class="strapi-cls-2" d="M3.25,0V3.36H.11A.11.11,0,0,1,0,3.25a.09.09,0,0,1,0-.07L3.25,0ZM6.94,10a.1.1,0,0,1-.15,0,.09.09,0,0,1,0-.07V6.82h3.4L6.94,10Z"/><path class="strapi-cls-2" d="M3.25,3.36h3.4a.11.11,0,0,1,.11.11V6.82H3.46a.21.21,0,0,1-.21-.21h0V3.36Z"/></svg>
