<svg xmlns="http://www.w3.org/2000/svg" viewBox="0 0 222.34 58.62" aria-hidden="true" fill="currentColor">
  <path opacity="0.5" d="M25.38 7.85a25.38 25.38 0 1 0 25.4 25.38 25.42 25.42 0 0 0-25.4-25.38zM37.66 45.5a17.36 17.36 0 1 1 5.08-12.27 17.26 17.26 0 0 1-5.08 12.27zM53 5.92h2v-2h-2zM53 0v2h2V0zm-3.7 5.9h-1.84v1.94h1.85z"/>
  <path d="M66.7 30.75c-3.63-1.2-5.46-1.8-5.46-4.28s2.32-3.06 4.27-3.06a12.84 12.84 0 0 1 6 1.5l.2.1.1-.2 1.7-3.5.1-.2-.2-.1a15.05 15.05 0 0 0-7.9-1.9c-5.4 0-9 3-9 7.6 0 5.1 3.5 7 7.3 8.3l.48.2c3.76 1.3 5.8 2 5.8 4.6 0 2.3-1.75 3.64-4.8 3.64a12.7 12.7 0 0 1-7.45-2.46l-.2-.12-.1.2-2.2 3.36-.1.18.17.1a15.94 15.94 0 0 0 9.93 3.16c6.04 0 9.7-3 9.7-8.1 0-5.63-4.2-7.52-8.2-8.8zm21.46-3.6L84.46 42 80.3 27.15V27H75l.1.28 7.15 21a4 4 0 0 1-3.94 2.34 10.9 10.9 0 0 1-1.4-.12h-.5v.2l-.6 3.3v.2h.2a12.47 12.47 0 0 0 2.9.35c4.2 0 6.7-2.07 8-6.5l6.4-20.8.1-.28h-5zm28.65-.58a9.2 9.2 0 0 0-6.3 3.07 4.73 4.73 0 0 0-4.7-3.07c-2.3 0-4.4 1.1-6.5 3.35l-.9-2.77V27H95v20.32h5.1V33a5.9 5.9 0 0 1 4-2.1c1.7 0 2 1.13 2 2.83v13.6h5.12v-14.4a6.27 6.27 0 0 1 4-2c1.7 0 2 1.12 2 2.82v13.57h5.1V33.76c0-3.28-.95-7.2-5.5-7.2zm16.7 0a14.06 14.06 0 0 0-7.7 2.3l-.1.1.1.18 1.68 3.08.1.2.2-.1a13.16 13.16 0 0 1 5.48-1.62c2.2 0 3 .9 3 3.1v.5c-4.3.7-7.12 1.5-8.82 2.6a5.4 5.4 0 0 0-2.4 4.9c0 3.5 2.63 5.9 6.4 5.9a8.74 8.74 0 0 0 5.8-2.5l.85 2 .04.2h3.23V34.1c.05-4.9-2.6-7.5-7.6-7.5zm2.6 15.8a6.42 6.42 0 0 1-3.8 1.44 2.1 2.1 0 0 1-2.3-2.3 2.2 2.2 0 0 1 .58-1.7c.67-.8 2.3-1.4 5.66-2.1zm20.4-15.8c-2.4 0-4.6 1.1-6.7 3.38l-.9-2.8V27h-3.2v20.32h5.1V33a6.18 6.18 0 0 1 4.2-2.13c1.65 0 2.35.85 2.35 2.83v13.62h5.1V33.76c-.06-4.76-2-7.2-5.85-7.2zm20 16.9v-.23l-.2.07a8.1 8.1 0 0 1-2.1.4c-1.63 0-2-.6-2-2.3V30.7h4.3V27H172v-5.7h-4v.18L167 27h-3v3.67h3V41.6c0 4.08 1.94 6.07 5.95 6.07a10.76 10.76 0 0 0 3.94-.7l.1-.08v-.2zm10.3-16.9c-5.4 0-8.82 4.2-8.82 10.7s3.54 10.4 9.2 10.4a11 11 0 0 0 7.68-2.7l.17-.12-.1-.17-1.87-2.92-.13-.18-.2.12a9 9 0 0 1-5.2 1.8c-2.67 0-4-1.47-4.27-4.76h12.2V37.3c0-6.82-3.16-10.73-8.6-10.73zm-3.5 8.8c.3-3.35 1.46-5 3.56-5s3.25 1.64 3.36 5zm28.14 6.4l-.15-.17-.18.15a6 6 0 0 1-4.2 1.7c-2.7 0-4.03-2-4.03-6.2s1.3-6.43 4-6.43a6.2 6.2 0 0 1 4.05 1.4l.2.13.1-.18 2.13-3.08.1-.2-.1-.2a9.1 9.1 0 0 0-6.56-2.3c-6.8 0-9.2 5.74-9.2 10.7s2.4 10.4 9.2 10.4a9 9 0 0 0 6.85-2.78l.1-.1-.1-.16zm10.15 2.16l-.6 2.23-.6-2.23h-.96V47h.6v-2.35l.63 2.35h.56l.6-2.34V47h.6v-3.07zm-5 .5h.8V47h.62v-2.57h.8v-.5h-2.2zM45.64 9.7H43.8v1.85h1.86zm5.73-1.86H49.3V9.7h2.08zm-9.44.1V9.7h1.86V7.93zm7.37 3.6V9.7h-1.8v1.85zm1.8-7.6h2V2h-2zm-3.6 2h3.6v-2h-3.6zm-1.8 3.8h1.8V5.9h-1.8zm0 3.7h-1.9v-1.9h-3.1v1.35h-1.6v1.6H41v1.8h-1.9v-1.8h-2v2.9h-1.84v1.8H34V21h-1.37a104 104 0 0 0-6.5 12.2c-4.16-5.8-7.4-8.1-9.94-8.9-1.4-.4-3 1.02-.8 3.4 5.2 5.74 6.9 10.5 8.5 14.32.8 2 4.6 2.32 5.4.3A61.78 61.78 0 0 1 36 29.3v-2.08h1.5V25.4h1.53v-2.16h1.86v-2.08H39v-1.9h1.88v1.9h1.84V19.3h1.47V17h1.6v-1.53h1.6v-3.92h-1.8z"/>
</svg>
