<svg viewBox="0 0 100 100" fill="none" xmlns="http://www.w3.org/2000/svg">
<path fill-rule="evenodd" clip-rule="evenodd" d="M50.5491 16.3156C41.8121 16.2365 33.389 19.5055 27.026 25.4299C20.6645 31.3527 16.8508 39.473 16.3602 48.1014C15.8695 56.7296 18.7382 65.2221 24.3843 71.8162C30.0319 78.412 38.0273 82.6033 46.7169 83.5037C55.4069 84.4041 64.1057 81.9421 71.0072 76.6402C77.907 71.3396 82.4773 63.6114 83.7869 55.0667C84.4694 50.6138 88.6307 47.5574 93.0815 48.2402C97.5323 48.9231 100.587 53.0865 99.9047 57.5395C97.9553 70.2582 91.1571 81.7294 80.9379 89.5799C70.7205 97.4292 57.8645 101.06 45.0371 99.7311C32.2092 98.4019 20.3767 92.2122 12.0008 82.4299C3.62345 72.646 -0.65018 60.0211 0.0803353 47.1747C0.810835 34.3286 6.48798 22.2664 15.9174 13.487C25.3453 4.70915 37.8005 -0.114697 50.6967 0.00207146C55.1993 0.0428408 58.8164 3.7278 58.7756 8.23266C58.7349 12.7375 55.0517 16.3564 50.5491 16.3156Z" fill="#000080"/>
<path d="M68.165 52.2777C67.3241 56.4064 64.9112 60.0495 61.433 62.442C57.9548 64.8344 53.682 65.7898 49.5121 65.1077C45.3422 64.4256 41.5997 62.1589 39.0707 58.7838C36.5417 55.4086 35.4229 51.1877 35.9495 47.0076C36.476 42.8275 38.6069 39.0134 41.8945 36.3666C45.182 33.7198 49.3705 32.4461 53.5801 32.8132C57.7896 33.1802 61.6928 35.1594 64.4696 38.335C67.2464 41.5106 68.6809 45.6355 68.4716 49.8433" fill="#000080"/>
<path d="M95.9593 20.0483C95.4548 22.5255 94.007 24.7114 91.9201 26.1468C89.8332 27.5823 87.2695 28.1556 84.7675 27.7463C82.2656 27.337 80.0201 25.977 78.5027 23.9519C76.9853 21.9269 76.3141 19.3943 76.63 16.8862C76.9459 14.3782 78.2244 12.0897 80.197 10.5016C82.1695 8.91354 84.6826 8.14935 87.2083 8.36958C89.7341 8.5898 92.076 9.77731 93.7421 11.6827C95.4082 13.588 96.2688 16.063 96.1433 18.5877" fill="#000080"/>
<path d="M58.9152 40.4308C74.5792 26.9208 74.5792 26.9208 74.5792 26.9208Z" fill="#000080"/>
<path fill-rule="evenodd" clip-rule="evenodd" d="M75.2271 27.6824C75.4423 27.499 75.5787 27.2259 75.5787 26.9208C75.5787 26.3685 75.1312 25.9208 74.5792 25.9208V26.9208C74.5792 25.9208 74.2311 25.9834 73.9266 26.1633L58.2626 39.6734C57.8445 40.034 57.7977 40.6655 58.1582 41.0838C58.5186 41.5021 59.1498 41.5489 59.5679 41.1883L75.2271 27.6824Z" fill="#000080"/>
</svg>
