<svg xmlns="http://www.w3.org/2000/svg" viewBox="0 0 119.1 119.1"><path d="M103.9 119.1H15.4C7 119.1.1 112.3.1 103.8V15.3C.1 6.9 6.9 0 15.4 0h88.5c8.4 0 15.3 6.8 15.3 15.3v88.5c-.1 8.5-6.9 15.3-15.3 15.3z" fill="#fff"/><path d="M58.8 52.3c3.3 0 5.2-1.8 5.2-4.9 0-2.9-2-4.9-5.1-4.9h-7.5V37c0-4-2.9-6.1-5.7-6.1-2.8 0-5.7 2.1-5.7 6.1v38.2c0 9.2 3.7 13.3 11.9 13.3 4.4 0 7-1.1 8.9-2.3 1.4-.8 2-2.5 2-3.8 0-2.5-1.6-5.2-4-5.2-.3 0-.7.1-1 .2-.1.1-.3.1-.4.2-.6.3-1.5.7-2.7.7-1.5 0-3.2-.5-3.2-4.6V52.3h7.3z" fill="#1d1c39"/><path d="M83.2 68.4c-5.5 0-10 4.5-10 10s4.5 10 10 10 10-4.5 10-10c0-5.6-4.5-10-10-10z" fill="#ff22b1"/></svg>