<svg viewBox="0 0 111 111" fill="none" xmlns="http://www.w3.org/2000/svg"><path d="M39.853 41.038c6.328 0 9.97-3.451 9.97-9.395.192-4.985-3.642-9.203-8.627-9.395H25.857V11.703C26.241 5.76 21.64.391 15.504.2 9.56-.184 4.192 4.418 4 10.553v74.582c0 17.64 7.094 25.501 22.816 25.501 5.943.191 11.887-1.343 17.064-4.218 2.492-1.534 4.026-4.41 3.834-7.286 0-4.793-3.26-9.97-7.669-9.97-.575 0-1.342.192-1.917.383l-.767.384c-1.534.767-3.451 1.342-5.177 1.342-2.876 0-6.135-.959-6.135-8.82V41.038h13.804z" fill="#1D1C39"/><path d="M86.827 71.906c-10.545 0-19.173 8.628-19.173 19.173 0 10.545 8.628 19.173 19.173 19.173 10.545 0 19.173-8.628 19.173-19.173 0-10.545-8.628-19.173-19.173-19.173z" fill="#FF22B1"/></svg>
