<svg fill="none" xmlns="http://www.w3.org/2000/svg" viewBox="0.67 1.12 452.37 66.05"> <g clip-path="url(#clip0_3_60)"> <path d="M120.524 1.13678C102.283 1.13678 87.5098 15.9855 87.5098 34.1508C87.5098 52.316 102.359 67.1647 120.524 67.1647C138.689 67.1647 153.538 52.316 153.538 34.1508C153.538 15.9855 138.689 1.13678 120.524 1.13678ZM141.855 34.1508C141.855 45.9092 132.282 55.4817 120.524 55.4817C108.765 55.4817 99.1928 45.9092 99.1928 34.1508C99.1928 22.3924 108.765 12.8198 120.524 12.8198C132.282 12.8198 141.855 22.3924 141.855 34.1508ZM52.0084 2.41815H1.35684C0.979964 2.41815 0.678467 2.71965 0.678467 3.09652V13.1967C0.678467 13.5736 0.979964 13.875 1.35684 13.875H20.9542V65.1296C20.9542 65.5065 21.2557 65.808 21.6325 65.808H31.7327C32.1096 65.808 32.4111 65.5065 32.4111 65.1296V13.875H52.0084C52.3853 13.875 52.6868 13.5736 52.6868 13.1967V3.09652C52.6868 2.71965 52.3853 2.41815 52.0084 2.41815ZM452.322 54.4265H428.277V3.1719C428.277 2.79503 427.976 2.49353 427.599 2.49353H417.499C417.122 2.49353 416.82 2.79503 416.82 3.1719V65.205C416.82 65.5819 417.122 65.8834 417.499 65.8834H452.322C452.699 65.8834 453 65.5819 453 65.205V55.1048C452.925 54.728 452.623 54.4265 452.322 54.4265ZM369.335 64.9035L342.501 2.79503C342.426 2.5689 342.124 2.41815 341.898 2.41815H330.668C330.366 2.41815 330.14 2.5689 330.064 2.79503L303.156 64.9035C303.08 65.1296 303.08 65.3557 303.231 65.5065C303.382 65.6572 303.533 65.808 303.759 65.808L314.311 65.7326C314.537 65.7326 314.839 65.5819 314.914 65.3558L336.245 16.9654L357.576 65.3558C357.652 65.5819 357.953 65.7326 358.179 65.7326L368.732 65.808C368.958 65.808 369.184 65.7326 369.259 65.5065C369.41 65.3557 369.41 65.1296 369.335 64.9035ZM255.293 2.41815H245.193C244.816 2.41815 244.515 2.71965 244.515 3.09652V46.1353L210.068 2.79503C209.993 2.5689 209.767 2.41815 209.541 2.41815H199.441C199.064 2.41815 198.762 2.71965 198.762 3.09652V65.1296C198.762 65.5065 199.064 65.808 199.441 65.808H209.541C209.918 65.808 210.219 65.5065 210.219 65.1296V22.1662L244.741 65.5819C244.741 65.5819 244.741 65.5819 244.816 65.6572C244.816 65.6572 244.816 65.6573 244.891 65.7326C244.891 65.7326 244.967 65.7326 244.967 65.808C244.967 65.808 244.967 65.808 245.042 65.808H245.118C245.118 65.808 245.118 65.808 245.193 65.808H245.268C245.268 65.808 245.268 65.808 245.344 65.808C245.344 65.808 245.344 65.808 245.419 65.808H255.519C255.896 65.808 256.198 65.5065 256.198 65.1296V3.09652C255.971 2.71965 255.67 2.41815 255.293 2.41815Z" fill="white"></path> </g> <defs> <clipPath id="clip0_3_60"> <rect width="453" height="66.5313" fill="white" transform="translate(0 0.734375)"></rect> </clipPath> </defs> </svg>