<svg width="647" height="224" viewBox="0 0 647 224" fill="currentColor" xmlns="http://www.w3.org/2000/svg">
<path d="M87.5078 194.431C118.147 194.431 141.837 170.832 141.837 135.911V0H175V220.228H142.153V199.777C127.308 215.191 106.778 224 83.7148 224C36.3286 224 0 189.709 0 137.82V0.036127H33.1626V135.911C33.1626 171.461 56.537 194.431 87.4974 194.431" fill="currentColor"/>
<path d="M199.047 0H230.99V80.2262C238.44 72.6356 247.345 66.6083 257.178 62.5007C267.01 58.3931 277.571 56.2888 288.236 56.3121C335.682 56.3121 373 93.7521 373 140.316C373 186.565 335.682 224 288.236 224C277.52 224.029 266.907 221.929 257.017 217.823C247.128 213.717 238.163 207.689 230.648 200.091V220.217H199L199.047 0ZM286.026 196.004C316.392 196.004 341.378 171.145 341.378 140.316C341.378 109.167 316.392 84.6282 286.026 84.6282C255.343 84.6282 230.357 109.167 230.357 140.316C230.357 171.145 255.027 196.004 286.026 196.004Z" fill="currentColor"/>
<path d="M467.602 57C513.945 57 548 92.5388 548 140.345V150.725H417.173C421.589 176.828 443.341 196.328 470.441 196.328C489.059 196.328 504.812 188.776 516.789 172.737L539.808 189.72C523.724 211.108 499.764 224 470.441 224C422.205 224 385 188.146 385 140.345C385 95.0563 420.627 57 467.607 57H467.602ZM417.788 125.565H515.843C510.485 101.03 490.621 84.6768 466.976 84.6768C443.331 84.6768 423.467 101.03 417.788 125.565Z" fill="currentColor"/>
<path d="M633.752 87.6153C612.953 87.6153 597.829 103.69 597.829 128.59V220H566V59.246H597.53V79.1205C605.407 66.1949 618.329 58 635.975 58H647V87.6308L633.752 87.6153Z" fill="currentColor"/>
</svg>
