<svg xmlns="http://www.w3.org/2000/svg" viewBox="0 0 130.9 31.5" aria-hidden="true">
  <path fill="currentColor" d="M112.7 24.8a12.4 12.4 0 1 0-12.4-12.4 12.4 12.4 0 0 0 12.4 12.4zm9.6-19.3c-.6.4-1.3.8-2 1.2a11.35 11.35 0 0 0-1.5-2.3 17 17 0 0 0 1.4-1 6 6 0 0 1 2.1 2.1zM119.9 3a7.1 7.1 0 0 1-1.4 1 18 18 0 0 0-2-1.9 4.35 4.35 0 0 1 .6-.7 11.24 11.24 0 0 1 2.8 1.6zm-1.8 1.2a18.94 18.94 0 0 1-2.1.9 12.44 12.44 0 0 0-1-2 4.13 4.13 0 0 0 1.1-.7 11.23 11.23 0 0 1 2 1.8zm-1.5-3a2.65 2.65 0 0 0-.5.6A13.9 13.9 0 0 0 114 .7a7.51 7.51 0 0 1 2.6.5zm-.9.9a4.05 4.05 0 0 1-.9.5c-.4-.6-.8-1.1-1.2-1.7a11.25 11.25 0 0 1 2.1 1.2zM112.9 1a8.32 8.32 0 0 1 1.3 1.8 5.07 5.07 0 0 1-1.3.2zm0 2.5a4.53 4.53 0 0 0 1.6-.3 12.44 12.44 0 0 1 1 2 20.24 20.24 0 0 1-2.6.4zm-.5-2.5v2a6.88 6.88 0 0 1-1.3-.2 20.28 20.28 0 0 0 1.3-1.8zm-1.7 1.6a2.62 2.62 0 0 1-.9-.5 21.16 21.16 0 0 1 2.1-1.1 6.1 6.1 0 0 0-1.2 1.6zm.7-2a21.16 21.16 0 0 0-2.1 1.1 2.65 2.65 0 0 1-.5-.6 20 20 0 0 1 2.6-.5zm-3.1.9c.2.2.4.5.6.7l-1.6 1.3a.77.77 0 0 1 .3.1 1 1 0 0 1 .3.1 13.63 13.63 0 0 1 1.4-1.1 4.13 4.13 0 0 0 1.1.7c-.2.4-.8 1.4-.8 1.4a.35.35 0 0 0 .2.1.31.31 0 0 0 .2.1s.6-1.1.8-1.5a4 4 0 0 0 1.5.3v2a5.7 5.7 0 0 1-1.3-.1h-.2l.1.2c.1.1.1.2.2.3h1.2v3.7h.5v-.9a13.61 13.61 0 0 0 2.1-.2l.7-.6h-.4a18.32 18.32 0 0 1-2.1.2h-.3V6a9 9 0 0 0 2.8-.4l.7 2.1.5-.2-.7-2.1a14.46 14.46 0 0 0 2.2-.9 11.35 11.35 0 0 1 1.5 2.3 9.42 9.42 0 0 1-1 .4c.5.1.9.2.9.2a1 1 0 0 1 .3-.1 1 1 0 0 0 .1.3l.7.3-.1-.2a3.29 3.29 0 0 0-.3-.6 11.25 11.25 0 0 0 2.1-1.2 11.5 11.5 0 0 1 1.9 6.5 11.29 11.29 0 0 1-4.5 9.4 2.62 2.62 0 0 1-1.6-2.6c.1-.5.4-.3.6-.3a4.58 4.58 0 0 0 3.6-1.8 5.37 5.37 0 0 0-.4-7.5c-2.6-2.5-5.4-2.1-7.2.2a2.79 2.79 0 0 1-2 .8c-1.2 0-.4.9-.4 1.1a.32.32 0 0 1-.3.3c-.4-.1-.2.5-.2.6s-.2.3-.2.3c-.5 0-.4.4-.3.6a.4.4 0 0 1-.2.4c-.2.1-.3.5-.3.8 0 .5.5.9 1.3 1.5a1.9 1.9 0 0 1 .9 1.6 7.72 7.72 0 0 0 .2 1.5c.2.5.2 1.5-.9 1.5a16.21 16.21 0 0 0-4 1.2 4.64 4.64 0 0 1-2.6.2 10.59 10.59 0 0 1-1.2-1 1.67 1.67 0 0 1 .4-1.5 1.82 1.82 0 0 0 1.5.4 18.66 18.66 0 0 0 2.5-.4c.3-.1.4-.1.5 0a1.43 1.43 0 0 0 2.1-1c.4-1.4-.5-1-.7-.9s-.3 0-.2-.1c.2-.3-.1-.3-.2-.3a1.87 1.87 0 0 0-1 .5.76.76 0 0 1-.4.1c-.5-.3-2 .1-2.5-.7a40.67 40.67 0 0 0-.6-4.1.51.51 0 0 1 .1-.5c.4-.6 1.4 0 2 0a1.06 1.06 0 0 0 1-.5c.2-.2.3-.1.4-.2s0-.2 0-.3.1 0 .2-.1 0-.3 0-.4c.2-.3.6-.1.4-.7a1.11 1.11 0 0 1 .3-1c.3-.4 1.6-2.2-.6-4.1s-4.3-1.6-5.7-.1-.7 3.7-.6 4.3a1.21 1.21 0 0 1-.8 1.3 13 13 0 0 0-1.9 1.3 11.64 11.64 0 0 1 7.4-10.7zM96.9 7.8l.1.4.2-.2a7.6 7.6 0 0 0 2.1-4.3l.1-.5-.2.1-.2.2c-.7.6-2.4 2.3-2.1 4.2zm-.6 5.2l.1.2.2-.8a15.09 15.09 0 0 0-.6-5.6l-.2-.4v.1l-.1.2a10.06 10.06 0 0 0-.4 1.8 5.77 5.77 0 0 0 .9 4.3zm.8 4.7l.3.2v-.4a14.74 14.74 0 0 0-2.4-5.9l-.3-.4-.1.3v.2c-.1 1.2 0 4.3 2.5 6zm2.9 5.1l-.1-.4a16.41 16.41 0 0 0-4.6-5.4l-.3-.2v.4a8 8 0 0 0 4.6 5.5zm-2.8-12.3v.4l.3-.2a11.56 11.56 0 0 0 2.7-4.3l.08-.39-.28.09c-1.9 1.2-2.8 2.6-2.8 4.4zm3.1-4.6v.11zm-1.1 3.8l-.1.1-.1.2a6.18 6.18 0 0 0-2 4.3 3.55 3.55 0 0 0 .2 1l.1.3.2-.3a11 11 0 0 0 1.7-5.2zM98.9 20l.1-.3a15.68 15.68 0 0 0 .6-4.5 4.64 4.64 0 0 0-.2-1.4l-.1-.4-.1.1-.1.2a6.45 6.45 0 0 0-1.2 3.6 4.58 4.58 0 0 0 .8 2.4zm1.2-2.6l-.1.2a6.08 6.08 0 0 0-.3 2.3 4.41 4.41 0 0 0 2.2 3.8l.2.1.1-.3v-.3a14.12 14.12 0 0 0-1.8-5.7l-.2-.3zm3.5 8.8h.3l-.2-.2c-.6-.9-4.6-3.2-6-3.4l-.4-.1.1.1.1.2c1 1.7 2.8 4 6.1 3.4zm3.3-.3h.2l-.1-.2c-.2-.9-3.3-3.5-4.4-4.2l-.3-.2.1.1v.2c.3 2 1.1 4.6 4.5 4.3zm21.3-18l.2.2.1-.4v-.1c.3-1.9-1.4-3.6-2.1-4.2l-.2-.2-.2-.1.1.5a7.6 7.6 0 0 0 2.1 4.3zm.7 5.2l.1-.1.1-.2a5.29 5.29 0 0 0 .9-4.3 8.24 8.24 0 0 0-.4-1.8l-.1-.2v-.2l-.2.4a17.53 17.53 0 0 0-.6 5.6zm-.8 4.9l.3-.2c2.5-1.6 2.6-4.7 2.5-6v-.2l-.1-.3-.3.4a15.34 15.34 0 0 0-2.4 5.9zm-2.7 4.4l-.1.4.4-.1c2.6-.8 4.3-3.7 4.6-5.5V17l.1-.2-.4.2a16.41 16.41 0 0 0-4.6 5.4zm2.5-11.7l.3.2v-.4c.1-1.8-.8-3.2-2.7-4.4l-.2-.1-.2-.2.1.5a11.17 11.17 0 0 0 2.7 4.4zm.2 4.9l.1-.3a4.4 4.4 0 0 0 .2-1 6.18 6.18 0 0 0-2-4.3l-.1-.1-.1-.2v.4a11.85 11.85 0 0 0 1.7 5.2zm-2-2.3l-.1.4a4.64 4.64 0 0 0-.2 1.4 12.79 12.79 0 0 0 .6 4.5l.1.3.2-.3a4.07 4.07 0 0 0 .8-2.4 6.71 6.71 0 0 0-1.2-3.6l-.1-.2zm-.9 3.9l-.2.3a14.12 14.12 0 0 0-1.8 5.7v.3l.1.3.2-.1a4.63 4.63 0 0 0 2.2-3.8 9.69 9.69 0 0 0-.3-2.3l-.1-.2zm-3.5 8.7l-.2.2h.3c3.3.6 5.1-1.7 6.1-3.4l.1-.2.1-.1-.4.1c-1.4.2-5.4 2.5-6 3.4zm-9 1.37a17 17 0 0 0-10.4-.27l-.5.1.5.2a10.12 10.12 0 0 0 6.3.6 3 3 0 0 0 1.3-.9 7.21 7.21 0 0 1 2.09.6 12.66 12.66 0 0 0-3.79 3.2l-.1.1.1.1c.1.1.4.3.5.4h.1l.1-.1a14.89 14.89 0 0 1 3.81-3.3 14.59 14.59 0 0 1 3.89 3.33l.1.1h.1a2.18 2.18 0 0 0 .5-.4l.1-.1-.1-.1a13.47 13.47 0 0 0-3.85-3.21 6.33 6.33 0 0 1 2.15-.62 3.81 3.81 0 0 0 1.3.9 10.17 10.17 0 0 0 6.3-.6l.5-.2-.5-.1a16.92 16.92 0 0 0-10.46.27zm5.56-1.67l-.1.2h.2c3.3.3 4.1-2.3 4.5-4.3v-.2l.1-.1-.3.2c-1.06.7-4.06 3.3-4.36 4.2zM39 28h3.5V9.4H39zm-.4-23h4.2V1.2h-4.2zM12.4 18.9a12.64 12.64 0 0 1-.7 4.4A4.27 4.27 0 0 1 7.6 26c-3.4 0-4.1-2.4-4.1-5.6v-11H0v12.5c0 3.7 2.2 6.7 6.1 6.7a7.15 7.15 0 0 0 6.4-3.3h.1V28H16V9.4h-3.6zM28.7 8.8a6.71 6.71 0 0 0-5.7 3.3V9.4h-3.5V28H23V17.9c0-3.7 1-4.5 1.5-5a4.85 4.85 0 0 1 3.4-1.4c3 0 4.3 1.6 4.3 4.7v11.7h3.5V15.1c0-6-5.7-6.3-7-6.3zm24.7 17c-3.3 0-4.6-2.9-4.6-7.2s1.3-7.2 4.6-7.2c2.5 0 3.6 1.6 3.8 3.9h3.4a6.6 6.6 0 0 0-7-6.5c-5.9 0-8.6 4.5-8.6 9.9s2.4 9.6 8.3 9.6c4.1 0 7.2-2.5 7.5-6.7h-3.5c-.2 2.7-1.6 4.2-3.9 4.2zM70.9 8.9c-5.9 0-8.6 4.5-8.6 9.9s2.4 9.6 8.3 9.6c4.4 0 7.6-2.1 8.2-6.3h-3.7c-.4 2.7-1.8 3.8-4.5 3.8-3.5 0-4.9-3.4-4.6-6.6h13v-1.7c0-5.1-2.6-8.6-8.1-8.7zm-4.8 8c0-3 1.7-5.5 4.6-5.5 3.4 0 4.8 2.4 4.7 5.5zM83 5.4v4h-3.2v2.4H83v16h3.5v-16h4.3V9.4h-4.3V6c-.1-2 1-2.5 3-2.5.6 0 1.2.1 1.8.1V.7a10.86 10.86 0 0 0-2.5-.4c-2.6 0-5.7 1.1-5.8 5.1z"/>
</svg>
