<svg xmlns="http://www.w3.org/2000/svg" viewBox="0 0 291.24 100.82" aria-hidden="true">
  <path fill="currentColor" d="M171.21 23.19v10.5h-1.46v.71h3.87v-.71h-1.45v-9.2l7.35 10.12h.6V22.46h1.43v-.71h-3.85v.71h1.46v8.91l-7-9.62h-2.78v.71h1.32zm68.11 10.5h-1.44V22.46h1.44v-.71h-4.56v.71h1.43v11.23h-1.43v.71h4.56zm20.25-5.23l3.68-6h1v-.71h-3.84v.71h1.75l-3.05 5-3.3-5h1.75v-.71h-4.73v.71h1.11l4 6.12v5.11h-1.43v.71H261v-.71h-1.46zm-129.4 5.23h-1.44v-5.27h7.19v5.27h-1.44v.71H139v-.71h-1.46V22.46H139v-.71h-4.56v.71h1.44v5.1h-7.19v-5.1h1.44v-.71h-4.56v.71H127v11.23h-1.43v.71h4.56zm-16-11H118v11h-1.9v.71h5.52v-.71h-1.92v-11h3.84v1.53h.92v-3h-.92v.53h-9.36v-.53h-.92v3h.92zm35.18 9.14h-.88v1.69h-4.71V28.4h3.62v1.48h.88v-3.8h-.88v1.44h-3.62v-4.89h4.54v1.63h.86v-3h-.88v.53h-7.65v.71h1.44v11.19h-1.44v.71h8.72zm80.55-4.52c-2.39-1.31-2.9-1.92-2.9-2.89a1.94 1.94 0 0 1 2.14-2 3.54 3.54 0 0 1 2.23.85v1.36h.88v-3.26h-.88v.69a4.26 4.26 0 0 0-2.28-.54 3.48 3.48 0 0 0-3.78 3.32c0 1.57.82 2.53 3.24 3.79 2.07 1.08 2.82 1.88 2.82 3s-1 2-2.57 2a4 4 0 0 1-2.53-1v-1.51h-.9v3.45h.9v-.78a4.92 4.92 0 0 0 3 .86 3.61 3.61 0 0 0 3.73-3.53c0-1.57-.7-2.41-3.09-3.79zm-42.4 6.36h-1.44V22.46h1.44v-.71H183v.71h1.44v11.23H183v.71h4.56zm54-11h3.83v11h-1.93v.71h5.52v-.71H247v-11h3.83v1.53h.92v-3h-.92v.53h-9.35v-.53h-.92v3h.92zm33.9 11.94a6.58 6.58 0 1 0-6.19-6.55 6.44 6.44 0 0 0 6.17 6.59zm-4.29-6.57c0-3.26 1.8-5.56 4.31-5.56s4.21 2.34 4.21 5.56-1.78 5.57-4.23 5.57-4.29-2.33-4.29-5.57zm16.17 5.61h-1.44V28.4h3.62v1.48h.88v-3.8h-.88v1.44h-3.62v-4.89h4.54v1.63h.86v-3h-.88v.53h-7.65v.71h1.44v11.19h-1.44v.71h4.57zm-70 0h-1.43v-5h1.49l2.86 4.54c.63 1 .84 1.13 2 1.13h1.63v-.73H223c-.48 0-.78-.23-1.24-.94L219 28.48a3.1 3.1 0 0 0 2.87-3.32 3.89 3.89 0 0 0-.38-1.7c-.58-1.19-1.63-1.71-3.49-1.71h-5.3v.71h1.44v11.23h-1.44v.71h4.56zm-1.43-11.06h1.8a2.3 2.3 0 0 1 2.51 2.57 2.45 2.45 0 0 1-2.47 2.65h-1.84zm-5 9.22H210v1.69h-4.72v-5.1h3.63v1.48h.88v-3.8h-.88v1.44h-3.63v-4.89h4.55v1.63h.86v-3h-.88v.53h-7.65v.71h1.44v11.19h-1.44v.71h8.72zm-16.25 2.92h.65L200 22.46h1v-.71h-3.28v.71H199l-3.68 9.41-3.72-9.41h1.8v-.71h-4.75v.71h1.13zm-26.3-13h-3.85v.71h1.43v7.23a3.56 3.56 0 0 1-3.66 3.85c-2.12 0-3.48-1.52-3.48-3.83v-7.23h1.43v-.71h-4.56v.71h1.44v7.84c0 2.51 2 4.35 4.83 4.35a5.75 5.75 0 0 0 2.66-.65 4.32 4.32 0 0 0 2.32-4.24v-7.3h1.44zm114.45 53.16zm-1.63-33.36v1.87h4.6l-8 13.26L269 43.4h4.6v-1.87h-12.47v1.87h2.92l10.46 16.13V73h-3.78v1.87h12V73h-3.83V59.23l9.7-15.83h2.63v-1.87zM125.35 56.25c-6.31-3.65-7.78-5.12-7.78-7.7 0-3.13 2.22-5.2 5.66-5.2 2 0 3.28.5 5.86 2.22v3.59h2.32v-8.64h-2.32v1.82a11.29 11.29 0 0 0-6-1.42c-5.71 0-10 3.74-10 8.74 0 4.16 2.17 6.69 8.53 10 5.46 2.82 7.43 5 7.43 7.82 0 3.19-2.73 5.31-6.77 5.31-2.22 0-3.59-.51-6.67-2.58v-4h-2.37v9.09h2.37v-2.03a12.93 12.93 0 0 0 7.78 2.27c5.71 0 10-4 10-9.29.09-4.14-1.73-6.36-8.04-10zm29-12.85H159l-8 13.26-8.74-13.26h4.59v-1.87h-12.47v1.87h2.93l10.46 16.13V73H144v1.87h12V73h-3.84V59.23l9.69-15.83h2.63v-1.87h-10.1zM156 74.89zm25.91-33.36H167v1.87h3.79V73H167v1.87h14.85a16.68 16.68 0 0 0 0-33.36zm-.61 30.83h-6.06V44.11h6.16c6.67 0 12 6.31 12 14.11.07 8.03-5.18 14.14-12.1 14.14zm74.13.25H243V59.08h9.55V63h2.32V53h-2.32v3.8H243v-13h12v4.3h2.27v-8h-2.32v1.41h-20.17v1.89h3.79V73h-3.79v1.87h23v-6.7h-2.33zM221.2 43.4h3.8v23.51l-18.45-25.38h-7.32v1.87h3.48l1.36 1.92V73h-3.83v1.87h10.2V73h-3.84V48.75L226 75.44h1.57v-32h3.79v-1.91H221.2zm-171.27 19h7.46v-1.09h-7.46zM11.54 10c-1.32.35-2.29.63-2.86.8V43c4.26-.68 21.87-3.36 38.57-3.36A267.31 267.31 0 0 1 85.82 43V10.75c-.58-.17-1.55-.45-2.86-.8-2.2-.59-5.32-1.37-9-2.15a134.29 134.29 0 0 0-26.71-3.13c-14.16 0-29.14 3.52-35.71 5.33zm14.3 16.43a2.13 2.13 0 0 0-1.34.49c-.29.2-.38-.36 0-1.51.27-.91-1.5-1.39-1.93-1a2.51 2.51 0 0 1-3.61-.19c-.3-.32.68-.21.74-.49s.46-.65.61-.81a.24.24 0 0 0-.07-.38 1.6 1.6 0 0 1-.91-1.75c0-.14-.77-.19-.51-.43a2.73 2.73 0 0 1 3.54-.08c.11 0 .32.06.34-.14 0-.42-.17-.7.67-1.4.17-.13-.48-.7 0-.67 2.9.73 1.59 3.73 2.19 4.26 1.1 1 3.78 1.76 6.29 2.3A11.43 11.43 0 0 1 33 25c2 1 3.27.94 4.37.51.35-.14.35.31.23.42-4 3.84-7.1 2.87-8.19 2.17a2.4 2.4 0 0 0-3 .49c-.12.12-.34.2-.43-.12a2.4 2.4 0 0 1 .24-1.76c.08-.25-.22-.33-.38-.33zm11.21-3a2.28 2.28 0 0 0 1.45-.75.14.14 0 0 1 .21 0 2.31 2.31 0 0 0 1.34.73c.06 0 .15.06.09.23-.22.58-1 .39-1.47.75a.23.23 0 0 1-.21 0C38 24 37.21 24.2 37 23.57a.12.12 0 0 1 .05-.17zM64.3 30a4.21 4.21 0 0 1-3 .93 1.31 1.31 0 0 0-1.12.35 1.43 1.43 0 0 0-.17.33 1.19 1.19 0 0 0 .2.93c.16.23.1.38-.15.44a1.72 1.72 0 0 1-1.24-.24c-.29-.14-.37 0-.41.17-.11.32.1.71.53 1 .22.19.18.38-.17.5-.57.2-1.09-.06-1.94-.53-.5-.28-.88-.32-1.22.07-.19.22-.17.43-.06.54.33.32.52 1-.3 2-.27.34-.56-.6-.81-.49a2 2 0 0 1-2.4-.63c-.07-.1-.23-.13-.42 0-.57.37-1.77 1-2.23-.09-.08-.16-.74.25-.73-.06A2.21 2.21 0 0 1 50.88 33c.2 0 .24-.12.14-.29a1.56 1.56 0 0 1-.41-1.39c.12-.39-.9-.48-.48-.69 2-1 3.2.94 3.56 1.15.6.34 3.28-.53 3.61-2 .07-.28-.63-.41-1.32-.58-.12 0-.19-.19 0-.37 1.63-1.21 2.94-2.78 5.88-3.07a.44.44 0 0 1 .51.4 4.73 4.73 0 0 0 .37 1.32 5.05 5.05 0 0 0 1.46 1.87.38.38 0 0 1 .1.65zM49.17 15.74a3.87 3.87 0 0 1 .51-1.11c1.49-2.32 5-2.49 6-2.49.21 0 .34-.09.36-.24a2.13 2.13 0 0 1 2-1.85 3.08 3.08 0 0 0 1.08-.3c.17-.08.28 0 .25.12a1.11 1.11 0 0 1-.34.62c-1 .88-.87 1.28-.75 1.39s.16 0 .24 0c3.08-2.69 4.88-.91 5.43-.33.09.1.12.27-.06.31-2.1.47-2.91 2.34-7.19 2-.52 0-4-.21-5.13 1.38-.64.92-.2 1.78 1.69 2.19 1.44.32 4.79-.17 6.37-.3s8.29-1 11.82.05c1.49.43 3.66 1.63 3.23 3.89a2.93 2.93 0 0 1-1.66 2s-3.87 2.73 3.08 2.76c2.16 0 0 1.78-.08 2.31-.08.37.27.71.61.91s.27.3.07.47a1.75 1.75 0 0 1-1.22.35c-.32 0-.31.2-.29.34 0 .33.42.58.94.64.27.08.32.26.08.52-.43.45-1 .45-2 .42s-1.65 1.07-1.11 1.54c.36.31 1.1 1 .47 2.87-.21.57-.55-.52-.84-.35a1.38 1.38 0 0 1-1.73-.54c-.15-.18-.28-.18-.38 0-.3.53-1.1 1.46-2.72.59-.35-.19-1.07.45-1.11.24a2.21 2.21 0 0 1 .93-2.39c.06 0 .27-.33-.09-.32-.55 0-1.21-.2-1.28-.87 0-.14-.7-.11-.67-.3.17-.92 2.19-1.59 3.59-.66 1.18.78 2.67-1.89 1.6-3.14-.77-.89-5.28 1.62-6.82-1.65-.62-1.31.16-2.43-.47-2.52a7.89 7.89 0 0 0-6.62 1.83 11 11 0 0 1-12.46 1 .25.25 0 0 0-.33.32 1.5 1.5 0 0 1-.17 1.44 7.31 7.31 0 0 1-2.8 1.8 2.29 2.29 0 0 0-1.77 3.13c.07.23 0 .37-.26.33a3.42 3.42 0 0 1-2.62-1.89c-.06-.16-.21-.16-.4 0a1.36 1.36 0 0 0-.34 1.84.2.2 0 0 1-.16.32c-.77.09-1.32-.8-2-.74a3 3 0 0 0-1.21.56c-.13.09-.15.3-.07.55.83 2.48-.54 2.56-.62 2.52s-.05-.47-.45-.53a1.53 1.53 0 0 1-1.8-1.45c0-.21-.11-.29-.25-.19-.52.36-1.78 1.06-2.57 0-.11-.15-.49 0-.69.09s-.17-.2-.16-.28a2.64 2.64 0 0 1 1.58-2.3c.19-.09.21-.19.06-.31-.43-.31-1.18-1-.94-1.74 0-.14-.63-.41-.46-.53 1.55-1.12 3.54.74 3.79.94s1.68.26 5.27-1.76a13.85 13.85 0 0 0 4.13-3.15.72.72 0 0 1 .48-.27 6.12 6.12 0 0 0 4-1.25.31.31 0 0 1 .45 0c2.06 1.43 3.12-1.74 3.54-3.18.06-.3.12-.54.43-.55 7.57.36 21.92.31 21.92.31s1.89.15 1.79-1c-.15-1.88-8-1.84-13.81-1-2.12.29-5.21.46-7-.25a3.26 3.26 0 0 1-1.7-1.36 2.5 2.5 0 0 1-.19-1.8zM63.86 14a2.4 2.4 0 0 0-.84.34c-.62.43-3.14 1.47-3.93.21A5.27 5.27 0 0 0 62 13.43a2.21 2.21 0 0 1 2 .23.16.16 0 0 1-.14.34zM48 19.93c-.16.41-.59-.76-.75-.07a13.51 13.51 0 0 1-1.25 3.4c-.63 1.15-1.66-1.27-2-.59a3.67 3.67 0 0 1-2.89 1.8c-.11 0-.21 0-.08-.13a1.14 1.14 0 0 0 .34-.69s0-.12.08-.16a2.59 2.59 0 0 0 1.42-1.82 14.11 14.11 0 0 1 .9-2.46c.81-1.45-.18-3.21.07-3.6a2.05 2.05 0 1 0-2.65-3.08l-.06.06a6.2 6.2 0 0 0-.53.62.48.48 0 0 0 .17.76c1.4.36 2.32 3.52 1.75 4.54a10.47 10.47 0 0 0-1 2.64 1.14 1.14 0 0 1-2.21.41c.39-.24 1.24-.76 1.24-1.29l-.17-1.73a1.14 1.14 0 0 0 1.11-1.12l.18-.14c.23-.21.38-.79-.12-.7a22.43 22.43 0 0 0-2.29.32.3.3 0 0 0-.2.22c0 .15.42 2.24.53 2.7 0 .05 0 .08-.06.08l-1-.05c-.13 0-.69 0-1 .06 0 0-.08 0-.06-.08.1-.5.56-2.57.56-2.57A.36.36 0 0 0 38 17a12.37 12.37 0 0 0-2.46-.42.32.32 0 0 0-.31.12c-.2.28.16.6.38.74a1.14 1.14 0 0 0 1.1 1.09c0 .11-.19 1.71-.19 1.72 0 .55.84 1 1.26 1.26a.22.22 0 0 1 .05.11 1.19 1.19 0 0 1-1.05.69 1.15 1.15 0 0 1-1.15-1.15 11.26 11.26 0 0 0-1-2.67c-.6-1 .3-4.15 1.76-4.52a.48.48 0 0 0 .23-.77 3.46 3.46 0 0 0-2.23-1.36 2.05 2.05 0 0 0-2.09 2.06c0 1.29 1 1.5.93 1.86a4.35 4.35 0 0 0 .13 3.45 12.73 12.73 0 0 1 .89 2.4 2.52 2.52 0 0 0 1.24 1.77c.32.19.16.44.29.71a1 1 0 0 0 .25.28c.14.11 0 .13-.08.12a3.77 3.77 0 0 1-3-1.82c-.32-.68-1.36 1.74-2 .59a12.78 12.78 0 0 1-1.25-3.4c-.16-.69-.59.48-.75.07a6.68 6.68 0 0 1-.52-2.46 6.57 6.57 0 0 1 5.24-6.28c.58-.14-.67-1.1.15-1.06a9.69 9.69 0 0 1 3.63.69c.25.1.41-.38.91-.7a.24.24 0 0 1 .26 0c.52.32.71.79 1 .68a10 10 0 0 1 3.6-.67c.85-.05-.44.92.15 1.06a6.56 6.56 0 0 1 5.23 6.28 6.67 6.67 0 0 1-.6 2.46zm-5.78-6.63a.14.14 0 0 1 0-.17.87.87 0 0 1 .53-.18.92.92 0 0 1 .92.91.89.89 0 0 1-.34.71c-.05 0-.15 0-.17-.05a4.47 4.47 0 0 0-.94-1.22zM34 14.57a.14.14 0 0 1-.19 0 .92.92 0 0 1 .54-1.57 1 1 0 0 1 .64.25c.07.06 0 .17 0 .21a4.49 4.49 0 0 0-.99 1.11zm22.43 27c-3-.15-6.1-.25-9.15-.25s-6.12.1-9.14.25v15H9.29a45 45 0 0 0 8.38 19.62 3.14 3.14 0 0 1 2.56-1.33h17.88v15.66a34.46 34.46 0 0 0 9.13 1.25v.12-.12a34.53 34.53 0 0 0 9.14-1.25V74.86h17.91a3.13 3.13 0 0 1 2.55 1.32 44.93 44.93 0 0 0 8.36-19.61H56.4zM42 46.21l3.9 1.85 1.39-4 1.45 4.06 3.84-1.87-1.86 3.9 4.05 1.39-4.1 1.46 1.88 3.84-3.9-1.85-1.39 4-1.45-4.06L42 56.79l1.85-3.9-4-1.39 4.06-1.45zM28.35 71.08l-3.84-1.88-1.45 4.07-1.39-4-3.91 1.85 1.89-3.84-4.07-1.45 4-1.39-1.85-3.9 3.84 1.87 1.45-4.06 1.39 4 3.9-1.85-1.87 3.84 4.06 1.45-4 1.38zm6.18-.29h-1.7v-1.24h1.7zm0-3.31h-1.7v-1.25h1.7zm0-3.33h-1.7v-1.24h1.7zm0-3.31h-1.7v-1.25h1.7zm.9 10v-12H43a3.53 3.53 0 0 1 .46 0 3 3 0 0 1 3 3v10a3.06 3.06 0 0 0-2.34-1.08zm17.11 15.57l-3.89-1.85-1.39 4-1.45-4.08L42 86.41l1.85-3.9-4-1.39 4.06-1.45L42 75.83l3.89 1.85 1.4-4 1.45 4.06 3.83-1.87-1.84 3.9 4 1.39-4.07 1.45zM66.15 60.5l3.9 1.85 1.39-4 1.45 4.06 3.84-1.87-1.85 3.9 4 1.39-4.07 1.45 1.88 3.84-3.9-1.85-1.39 4L70 69.2l-3.84 1.88 1.84-3.9-4-1.39 4-1.45zM60 59.59h1.69v1.25H60zm0 3.32h1.69v1.24H60zm0 3.32h1.69v1.25H60zm0 3.32h1.69v1.24H60zm-.9-10.72v12h-8.74A3.06 3.06 0 0 0 48 71.87v-10a3 3 0 0 1 3-3 3.69 3.69 0 0 1 .47 0zm-9.14 6.69h7.46v-1.13h-7.49zm-5.36-1.13h-7.49v1.13h7.46zm0-3.08h-7.49v1.13h7.46zm0 6.17h-7.49v1.13h7.46zM47.26 0C23.58 0 0 6.3 0 6.3v31.51c0 28.39 20.33 57.91 47.24 63 27.9-5.45 47.26-34.62 47.26-63V6.31S74.76 0 47.26 0zM86.9 9.33l.58.18V49.3c0 23.12-17.57 44.11-40.22 44.13C24.58 93.41 7 72.42 7 49.3V9.51l.59-.18S28 3 47.25 3 86.9 9.33 86.9 9.33zm-37 59.28h7.46v-1.13h-7.43z"/>
</svg>
