<svg xmlns="http://www.w3.org/2000/svg" viewBox="0 0 320.59 71.16" aria-hidden="true">
  <path fill="currentColor" d="M210.22 1c-2.33 0-5.06 1.41-5.06 4.35 0 2 1.21 3.26 3.59 4.44s4.13 1.64 4.13 4a3.16 3.16 0 0 1-3.35 3.28c-2.62 0-3.92-2.24-4.44-4l.07 3.65a8.76 8.76 0 0 0 4.56 1.38c2.62 0 5.41-1.94 5.41-5 0-3.28-2.31-4-4.63-5.22s-3.34-1.74-3.34-3.28a2.52 2.52 0 0 1 2.72-2.6 4.3 4.3 0 0 1 4 3.16l-.12-3.22a6.62 6.62 0 0 0-3.54-.94zm54.28 0c-5-.16-7.92 4.35-8 8.32-.11 5 3.53 8.68 7.62 8.78 3.53.13 7.77-2.8 7.88-8.38s-4-8.64-7.5-8.72zm-138.69.22a1.29 1.29 0 0 1 .75 1.13v10.28c0 4.14 3.62 5.47 6.32 5.47 3.06 0 5.65-1.49 5.65-5.5l.06-10.25a1.18 1.18 0 0 1 .66-1.13h-2.72a1.18 1.18 0 0 1 .66 1.13l.09 10.34c0 2.21-1 4.28-4.31 4.28-3.46 0-4.06-2.58-4.06-4.28V2.35a1.31 1.31 0 0 1 .81-1.13zm15 0a3.26 3.26 0 0 1 1.13.88c.29.39.28.44.28 1.15v13.54a1.2 1.2 0 0 1-.63 1.09h2.6a1.13 1.13 0 0 1-.69-1.09V3.94c0 .25 11.72 14.41 11.72 14.41v-16a1.18 1.18 0 0 1 .65-1.13h-2.53a1.2 1.2 0 0 1 .63 1.13v10.81l-9.69-11.94zm17.47 0a1.19 1.19 0 0 1 .66 1.13v14.44a1.19 1.19 0 0 1-.66 1.09h3.63a1.2 1.2 0 0 1-.63-1.09V2.35a1.21 1.21 0 0 1 .63-1.13zm5 0a2.08 2.08 0 0 1 1.28 1.19c.42.91 6.72 16.09 6.72 16.09s5.7-15.13 6.09-16.09c.29-.64.24-.77.88-1.19h-2.75c.59.25.63.6.41 1.19 0 .1-4.32 11.63-4.32 11.63s-4.32-11.27-4.37-11.35c-.18-.61-.17-1.22.47-1.47zm16 0a1.21 1.21 0 0 1 .69 1.13v14.44a1.14 1.14 0 0 1-.75 1.09H189l.53-2.72c-.9 1.54-1.86 1.53-4.5 1.53a25.6 25.6 0 0 1-2.84-.15V9.32h4a1.18 1.18 0 0 1 .81.68V7.35a1.18 1.18 0 0 1-.87.69h-4V2.5h4.22a2.39 2.39 0 0 1 2.06.87l-.06-2.19zm11.56 0a1.24 1.24 0 0 1 .69 1.13v14.44a1.25 1.25 0 0 1-.69 1.09h3.66a1.25 1.25 0 0 1-.69-1.09v-6.6h1.44c1.27 0 1.76 1.05 2.4 2 .86 1.37 1.75 2.73 3 4.57a2.55 2.55 0 0 0 2 1.15l2.5-.06a4.55 4.55 0 0 1-1.56-1 53.86 53.86 0 0 1-3.69-5.62 3.85 3.85 0 0 0-2.37-1.85 4.26 4.26 0 0 0 3.87-4.12c0-1.54-1-4.1-5.93-4.1zm25.94 0a1.19 1.19 0 0 1 .65 1.13v14.44a1.18 1.18 0 0 1-.65 1.09h3.62a1.21 1.21 0 0 1-.62-1.09V2.35a1.22 1.22 0 0 1 .62-1.13zm5 0v2.32c.22-.4.66-1 1.25-1 0 0 2.19-.16 4-.16v14.41a1.12 1.12 0 0 1-.62 1.09H230a1.19 1.19 0 0 1-.66-1.09V2.41c1.79 0 4 .16 4 .16a1.78 1.78 0 0 1 1.29 1V1.25zm13.44 0a3 3 0 0 1 1.37 1.19l4.66 7.69v6.69c0 .58-.52.87-.91 1.09h4.19c-.44-.22-.91-.56-.91-1.09V10l4-7.43A2.69 2.69 0 0 1 249 1.22h-3.25c.68.2.87.53.53 1.19l-3.34 6.38-3.44-6c-.64-1.15-.16-1.28.41-1.53zm38.37 0a1.21 1.21 0 0 1 .69 1.13v14.44a1.09 1.09 0 0 1-.69 1.09h3.72a1.11 1.11 0 0 1-.72-1.09V9.32h4.06a1.14 1.14 0 0 1 .85.68V7.35a1.15 1.15 0 0 1-.85.69h-4.06v-5.6s4.1.05 4.69.1c1.2 0 1.75.35 2.09.93V1.22zm-9.34.78c3.16 0 5.17 3 5.13 7.75 0 4.4-1.94 7.18-5.07 7.18-2.59 0-5.25-2.41-5.25-7.78 0-4.44 2.07-7.15 5.19-7.15zm-68.69.18a3.09 3.09 0 0 1 3.28 3.19A3.36 3.36 0 0 1 195.16 9c-.64 0-1.44-.06-1.44-.06V2.29s.74-.07 1.84-.07zM14.41 11.6a15.1 15.1 0 0 0-9.16 3 9.7 9.7 0 0 0-4.06 8.31 9.79 9.79 0 0 0 2.25 6.5 22.07 22.07 0 0 0 7.06 5.06 67.19 67.19 0 0 1 8.75 4.85c1.36 1 2 2.9 2 5.62a9.49 9.49 0 0 1-2 5.84c-1.36 1.81-3.56 2.69-6.62 2.69a9.66 9.66 0 0 1-7.47-3A18.76 18.76 0 0 1 1 43.07l.19 9.53A47.7 47.7 0 0 0 7 55.25a17.69 17.69 0 0 0 6 .88 14.65 14.65 0 0 0 9.75-3.66 11.71 11.71 0 0 0 4.35-9.34 11.16 11.16 0 0 0-1.63-6.44A12.31 12.31 0 0 0 21.72 33c-1.45-.88-3.65-2.05-6.63-3.54a34.55 34.55 0 0 1-6.93-4.18 5.65 5.65 0 0 1-1.75-4.38 7.17 7.17 0 0 1 1.75-4.59 6.42 6.42 0 0 1 5.34-2.16 9.53 9.53 0 0 1 6.91 2.66 11.75 11.75 0 0 1 3.43 5.62l-.31-8.4a16.13 16.13 0 0 0-9.12-2.47zm101.59 0l-7.81 1.53a6.66 6.66 0 0 1 1.69.87 2.08 2.08 0 0 1 .56 1.66v37.5a2.68 2.68 0 0 1-1.66 2.41h9a4.45 4.45 0 0 1-1.4-1.1 2.13 2.13 0 0 1-.38-1.34V32.44a9.27 9.27 0 0 1 7-3.31c2.46 0 4.2.65 5.25 2a8.26 8.26 0 0 1 1.56 5.25v16.75a2.81 2.81 0 0 1-1.72 2.44h8.82a6.66 6.66 0 0 1-1.35-1 2.3 2.3 0 0 1-.34-1.41V34.29a8 8 0 0 0-2.75-6.54 10.35 10.35 0 0 0-6.81-2.34c-2.94 0-6.14 1.53-9.63 4.56V11.6zm-19.28 8.72l-8.34 8.53h2.75v18.06a9.15 9.15 0 0 0 2.46 6.78 8.72 8.72 0 0 0 6.41 2.44 7.21 7.21 0 0 0 4.47-1.5c1.32-1 2-2 2-2.84a10.84 10.84 0 0 1-1.72 1.28 5.31 5.31 0 0 1-2.37.37q-5.82 0-5.82-6.62v-18h6.72l2.22-2.66h-8.78v-5.84zm156 0l-8.31 8.53h2.72v18.06a9.15 9.15 0 0 0 2.46 6.78 8.73 8.73 0 0 0 6.41 2.44 7.21 7.21 0 0 0 4.47-1.5c1.32-1 2-2 2-2.84a10.84 10.84 0 0 1-1.72 1.28 5.31 5.31 0 0 1-2.37.37q-5.82 0-5.82-6.62v-18h6.72l2.22-2.66h-8.78v-5.84zM43.66 25.41a12.91 12.91 0 0 0-7.41 2.22 14.3 14.3 0 0 0-5 5.78 17.36 17.36 0 0 0 1.81 18q3.55 4.68 10.44 4.69a12.6 12.6 0 0 0 7.31-2.1 14.6 14.6 0 0 0 5-5.81 16.4 16.4 0 0 0 1.78-7.31 18.81 18.81 0 0 0-1.5-7.47 13 13 0 0 0-12.4-8zm22.75 0l-7.72 1.53a2.63 2.63 0 0 1 2.15 2.56v14.66c0 4.21 1 7.27 3.1 9.16a9.54 9.54 0 0 0 6.62 2.81 11.67 11.67 0 0 0 7.53-2.75l1.13-3.72a11.19 11.19 0 0 1-2.59 1.94 7.54 7.54 0 0 1-3.63.84 6 6 0 0 1-4.69-2.19 9 9 0 0 1-1.9-6.06zm18.78 0l-7.66 1.53a4.2 4.2 0 0 1 1.63.78 2.23 2.23 0 0 1 .59 1.78V49l.09 2.75a5.6 5.6 0 0 0 .54 2.78 4.81 4.81 0 0 0 1.78 1.66l5.53-2c-1.7-.25-2.53-1.46-2.53-3.63V25.41zm67.09 0a18.37 18.37 0 0 0-10.06 3.19l.12 7.87a17.73 17.73 0 0 1 3.44-6.31 7.4 7.4 0 0 1 5.75-2.31 5.11 5.11 0 0 1 4.16 1.62 5.94 5.94 0 0 1 1.31 3.91 6.87 6.87 0 0 1-.25 2.69 5.11 5.11 0 0 1-2.41 1.47c-1.06.33-2.87.88-5.4 1.62a23.23 23.23 0 0 0-5.19 2 8 8 0 0 0-4.28 7.22 8.58 8.58 0 0 0 1.94 5.19 6.72 6.72 0 0 0 5.72 2.56 12.56 12.56 0 0 0 8.15-3l1.16-3.38a9.66 9.66 0 0 1-6.69 2.79 4.71 4.71 0 0 1-3.53-1.41 5.38 5.38 0 0 1-1.31-3.88 4.75 4.75 0 0 1 1.31-3.53 11.61 11.61 0 0 1 4-2.34A55 55 0 0 0 157 39v10.22s.08 2.24.09 2.22a7.22 7.22 0 0 0 .5 3 6.41 6.41 0 0 0 1.72 1.72l4.94-2.16c-.89-.17-1.43-.45-1.62-.87a5.34 5.34 0 0 1-.32-2.06V34c0-3.31-1-5.54-3.06-6.75a13.46 13.46 0 0 0-6.97-1.84zm21.19 0l-7.78 1.53a4.22 4.22 0 0 1 1.65.78 2.14 2.14 0 0 1 .66 1.78v23.66a2.78 2.78 0 0 1-1.66 2.41h8.94a6.13 6.13 0 0 1-1.41-1.07 2 2 0 0 1-.37-1.34V32.29a8.07 8.07 0 0 1 6.41-3.29c4.42 0 6.62 2.27 6.62 6.78v17.38a2.79 2.79 0 0 1-1.65 2.41h8.9a4.67 4.67 0 0 1-1.25-1 2.26 2.26 0 0 1-.4-1.38V34a2.67 2.67 0 0 0-.13-.93c1.91-2.68 4.19-4 6.88-4 2.33 0 4 .67 5.09 2a7.75 7.75 0 0 1 1.59 5.07v17.02c0 .89-.59 1.69-1.78 2.41h8.88a4.37 4.37 0 0 1-1.25-1 2.18 2.18 0 0 1-.41-1.38v-19a7.74 7.74 0 0 0-2.91-6.44 10.24 10.24 0 0 0-6.53-2.31A10.81 10.81 0 0 0 196 27a15.7 15.7 0 0 0-4.5 4 7.38 7.38 0 0 0-3.38-4.12 10.4 10.4 0 0 0-5.31-1.47 9.71 9.71 0 0 0-5 1.31 31.63 31.63 0 0 0-4.31 3.07zm48.16 0L214 27.1a2.58 2.58 0 0 1 2.1 2.65v38a2.48 2.48 0 0 1-1.66 2.44h8.87a2.54 2.54 0 0 1-1.65-2.44V32.07a8.79 8.79 0 0 1 2.75-2.22 7.67 7.67 0 0 1 3.72-.91 8.3 8.3 0 0 1 5.93 2.69q2.72 2.67 2.72 9.22c0 4-.82 7.16-2.5 9.4a8.07 8.07 0 0 1-6.81 3.38c-2.08 0-3.05-.44-4.84-2l1.47 3.94a15.42 15.42 0 0 0 4.15.53 13 13 0 0 0 10.63-4.84 16.57 16.57 0 0 0 3.9-10.69 18.91 18.91 0 0 0-1.15-6.72 13.28 13.28 0 0 0-3-4.84 12.75 12.75 0 0 0-4-2.72 11.12 11.12 0 0 0-9.47.31 11.47 11.47 0 0 0-3.62 2.69zm54.9 0a12.88 12.88 0 0 0-7.4 2.22 14.3 14.3 0 0 0-5 5.78 17.36 17.36 0 0 0 1.81 18q3.54 4.68 10.44 4.69a12.53 12.53 0 0 0 7.28-2.1 14.83 14.83 0 0 0 5-5.81 16.53 16.53 0 0 0 1.78-7.31 19 19 0 0 0-1.5-7.47 13.31 13.31 0 0 0-4.69-5.72 13.11 13.11 0 0 0-7.72-2.28zm22.78 0l-7.68 1.41a2.77 2.77 0 0 1 2.12 2.68v23.66a2.68 2.68 0 0 1-1.59 2.41H301a4.37 4.37 0 0 1-1.25-1 2.2 2.2 0 0 1-.41-1.38V32.47a9.92 9.92 0 0 1 2.91-2.37 7.29 7.29 0 0 1 3.53-1c4.51 0 6.78 2.47 6.78 7.41v16.65a2.69 2.69 0 0 1-1.65 2.41h8.71a8.54 8.54 0 0 1-1.37-1.19 2.07 2.07 0 0 1-.28-1.22V34.29a8.32 8.32 0 0 0-1.31-4.75 8.9 8.9 0 0 0-3.54-3 10.45 10.45 0 0 0-4.59-1.09 10.21 10.21 0 0 0-5.12 1.47 16.82 16.82 0 0 0-4.1 3.08zM43.09 27.75a6.29 6.29 0 0 1 4.66 1.69A11.29 11.29 0 0 1 50.59 34a22.72 22.72 0 0 1 1.19 6.44 18 18 0 0 1-1.84 9.31A6.78 6.78 0 0 1 44 53.63q-3.77.19-6.09-3.44a17.43 17.43 0 0 1-2.53-9 18.77 18.77 0 0 1 1.78-9.37 6.74 6.74 0 0 1 5.93-4.07zm232.85 0a6.27 6.27 0 0 1 4.65 1.69 11.2 11.2 0 0 1 2.85 4.56 23.07 23.07 0 0 1 1.19 6.44 18.13 18.13 0 0 1-1.82 9.31 6.82 6.82 0 0 1-6 3.91q-3.76.19-6.09-3.44a17.62 17.62 0 0 1-2.53-9 18.77 18.77 0 0 1 1.81-9.43 6.75 6.75 0 0 1 5.94-4.04z"/>
</svg>
