<svg xmlns="http://www.w3.org/2000/svg" viewBox="0 0 197.26 44.8" aria-hidden="true">
  <path fill="currentColor" d="M68.27 15.1l-3.75 12.25L60.46 15h-3.41L53 27.35 49.24 15.1H45l6.18 18.22h3.46l4.06-11.83 4.09 11.83h3.46l6.18-18.22zm10.46 0L71 33.32h4l1.66-4.06h7.65L86 33.32h4.16l-7.75-18.23zm-.61 10.66l2.4-5.87 2.41 5.87zM89 18.9h5.5v14.42h4V18.9h5.5v-3.68H89zm22 7.1h8.54v-3.56H111v-3.68h9.7v-3.54H107v18.1h13.78v-3.54H111zm29.21-4.73v-.06a5.67 5.67 0 0 0-1.55-4.13 7.2 7.2 0 0 0-5.27-1.84h-8.28v18.1h4v-5.81h3.12l3.88 5.79h4.66l-4.42-6.46a5.61 5.61 0 0 0 3.84-5.61zm-4 .21c0 1.52-1.11 2.56-3 2.56h-4v-5.23H133c1.94 0 3.13.89 3.13 2.59zm12.41-6.24h-4v18.1H157v-3.63h-8.47zm18.74-.31a9.36 9.36 0 0 0-9.65 9.36v.06a9.62 9.62 0 0 0 19.24-.06v-.05a9.28 9.28 0 0 0-9.64-9.33zm5.42 9.42a5.41 5.41 0 0 1-5.47 5.65 5.51 5.51 0 0 1-5.49-5.7v-.05a5.42 5.42 0 0 1 5.43-5.64 5.5 5.5 0 0 1 5.48 5.69zm14.93-9.42a9.36 9.36 0 0 0-9.71 9.34v.06a9.27 9.27 0 0 0 9.59 9.31 9.37 9.37 0 0 0 9.65-9.37v-.05a9.28 9.28 0 0 0-9.58-9.31zm5.43 9.42a5.42 5.42 0 0 1-5.48 5.65 5.51 5.51 0 0 1-5.48-5.7v-.05a5.42 5.42 0 0 1 5.43-5.64 5.5 5.5 0 0 1 5.48 5.69zM58.68 9.77c2.24 0 3.66-1.24 3.66-3.77V1.3h-1.83v4.78c0 1.32-.69 2-1.8 2s-1.8-.71-1.8-2.06V1.3h-1.84v4.77c0 2.45 1.37 3.7 3.61 3.7zM69 4.34l4 5.3h1.56V1.3h-1.74v5.13L68.91 1.3h-1.69v8.34H69zm12.65-3h-1.8v8.3h1.83zm9.5 8.4l3.37-8.4h-2l-2.13 5.83-2.18-5.87h-2l3.37 8.4zm9.61-3.45h3.93V4.62h-3.93V2.93h4.47V1.3H99v8.34h6.35V8h-4.53zm11.16.71h1.44l1.79 2.67h2.14l-2-3a2.58 2.58 0 0 0 1.71-2.6 2.61 2.61 0 0 0-.71-1.9 3.28 3.28 0 0 0-2.43-.85h-3.81v8.32h1.83zm0-4h1.83c.89 0 1.43.41 1.43 1.19 0 .7-.51 1.18-1.4 1.18h-1.86zm15.94 4.22c0-1.45-1-2.06-2.64-2.5-1.44-.37-1.8-.55-1.8-1.1 0-.41.37-.73 1.07-.73a3.94 3.94 0 0 1 2.17.82l1-1.38a4.81 4.81 0 0 0-3.1-1.06c-1.7 0-2.92 1-2.92 2.51 0 1.65 1.09 2.12 2.77 2.55 1.39.36 1.68.59 1.68 1.06 0 .49-.45.79-1.21.79a3.85 3.85 0 0 1-2.48-1l-1.09 1.29a5.29 5.29 0 0 0 3.54 1.34c1.75-.05 3.01-.98 3.01-2.64zm6.65-5.87h-1.84v8.29h1.84zM146 1.3h-6.91V3h2.54v6.64h1.83V3H146zm6.89 8.34h1.83V6.31l3.21-5h-2.09l-2 3.35-2-3.35h-2.14l3.2 5.05zm19.91-8.48a4.32 4.32 0 0 0-4.45 4.31 4.44 4.44 0 0 0 8.87 0 4.27 4.27 0 0 0-4.38-4.31zm2.5 4.33a2.49 2.49 0 0 1-2.5 2.6 2.53 2.53 0 0 1-2.53-2.62 2.5 2.5 0 0 1 2.5-2.59 2.53 2.53 0 0 1 2.53 2.62zm7.69.92h4V4.74h-4V3h4.52V1.3h-6.31v8.34h1.8zM2.53 4.27c.32-.14.36.35.49.37a1.56 1.56 0 0 1 1.41.81c.21.38-.36.4.15.49a.82.82 0 0 1 .57.36c.15.19.16.46.32.64a1.38 1.38 0 0 0 .27.27 1.21 1.21 0 0 0 .32.11c.07 0 .12.06.18.08a.81.81 0 0 1 .21.1s.18.09.21.15 0 .21.07.31.1 0 .13 0A.26.26 0 0 0 7 8h.77A2.76 2.76 0 0 1 8 7.48a3.9 3.9 0 0 1 .22-.36L8.38 7c-1.9-.41-3.59-1.82-3.18-3.61 0 0-.08-.46-.24-.52 0 0 0-.06-.07-.07a.48.48 0 0 1-.19-.09s-.11 0-.11-.08 0 .15-.08.21l-.07.08S4.4 3 4.37 3s-.06.36 0 .52 0 .1 0 .11 0 0-.08-.07h-.06S4 3.48 4 3.45v-.07c0-.07-.07-.17-.12-.3s0-.12 0-.15-.15-.2-.2-.23a.34.34 0 0 0-.16-.07 1 1 0 0 0-.34 0h-.06a.79.79 0 0 1-.39.21h.05c.05 0 0 .22.06.32a.89.89 0 0 0 .16.32c.09.06.24 0 .31.09s.14 0 0 .17-.57.06-.78.53zm.06 4.51c.06-.11.55.06.57.2s0 .18-.25.59c-.05.09.19.63.21.51s.33-.17.47-.09c.35-.17.25-.36.48-.38s.41 0 .48.23a.58.58 0 0 1 0 .3c.44 0 .76-.54 1.16-.39.58.23 1.49.52 1.78.28.09-.07-.14-.63.07-1.29a3.3 3.3 0 0 1-2.9-.25c-.5-.23-.42-1-1-1.27A1 1 0 0 0 3 7.14a.18.18 0 0 0-.12.23c.09-.1.22 0 .21.08-.09.27-.09.31.22.55-1.31-.08-.88 1.05-.72.78zM9 4.86c-.7-1.22-1.9-.18-2.71-.37.65 1 2.17.18 2.71.37zM11 6c-1.09.63-2.48 1-2.86 2.42a4.1 4.1 0 0 0-.08 2.14c.09-.26.24-.5.54-.51a3.06 3.06 0 0 0 2.12-.78c.26-.18.94.57.93.47s-.05-.74.09-.63a1.78 1.78 0 0 0 1 .33c-.88-1 .21-2.13.22-3.17a4.23 4.23 0 0 0-.86-2.62A2.48 2.48 0 0 1 11 6zm-2 4.6c-.67.66 1.06 1.11 1.74 1.43a.71.71 0 0 1 .46.68 1.46 1.46 0 0 0-2.28 1.22c.05.85 1.09 1.37 1.95 1.44.36 0 .57.43.14.7-.77.48-1.62 1-2.45.15a.56.56 0 0 0-.73.21 1.15 1.15 0 0 0 0 .45c0-.07.1-.19.17-.18s.18.1.17.16c-.07.42-.63.15-.81.48s0 .05 0 .08c-.11.22-.27.36 0 .53 0 0 .14.18.13.22a.23.23 0 0 1 .23-.2h.25c.13 0 0 .14 0 .18a.84.84 0 0 0-.26.27.37.37 0 0 0-.07.27 1.87 1.87 0 0 0 .07.22s.06.06.09.1l.06.08c0-.11.12-.22.15-.2.69.4.73-.41 1.15-.68a.32.32 0 0 1 .47.37c.41-.22.53-.77.85-1.12A7.91 7.91 0 0 1 13 15.85a8.13 8.13 0 0 1-1.11-1.08c-.12-.21-.27-.62 0-.54a1.46 1.46 0 0 0 1.94-1.32c1.72.22 2.17-1.4 2.4-2.63.11-.6.44-.65.08-1.67-.15-.42.76-.56.61-1.3a.67.67 0 0 0-.44-.43c.14.4-.52.5-.6.66a2.32 2.32 0 0 0-.29.72c-.56-.77-.11-1.71.42-2.44.76-1.05 2.36-.5 3 .18a1.59 1.59 0 0 0-.47-1c.62-.08 1.3.3 2.16-.15.49-.27 1-.49 1.22-1.08-.92.17-2.39-.64-3.34-.77-1.76-.3-2.94.9-3.58 2.34a3.48 3.48 0 0 0 .46 3.57c.17.27-.6.1-.91.25a.77.77 0 0 0-.35.85.93.93 0 0 1 1.46.54c.12.93-.82 2.29-1.73 1.88a3.78 3.78 0 0 1-1.84-2.61c-.84.67-2.37.08-3.09.78zm-.47 4a1.66 1.66 0 0 1 .87-2.37c-1.06-1-1.94-1-2.34.09-.19.52.42 1.13-.2 1.39a1.31 1.31 0 0 1-1-.06c-.64-.22-.25-1-.76-1.45-.35-.27-1.18-.23-1.18.47 0 0 .12-.12.18-.05.14.37.13.47.5.55.08 0 0 .2-.1.19s-.24 0-.35-.08a.66.66 0 0 0-.44 0 .6.6 0 0 0-.25.16.6.6 0 0 0-.08.08.56.56 0 0 0-.11.42.34.34 0 0 0 0 .1v.1a1.09 1.09 0 0 0 .1.11.79.79 0 0 0 .39.21.36.36 0 0 1 0-.09.22.22 0 0 1 0-.14c0-.07.12 0 .19-.07a.5.5 0 0 1 .33-.06c.08 0 .16.12.1.19s-.19.11-.24.22a.52.52 0 0 0 0 .39.82.82 0 0 0 .22.19l.11.09s-.06-.07 0-.15a.14.14 0 0 1 .11 0A.38.38 0 0 0 5 15a.42.42 0 0 0 .22-.11c.14-.14.15-.28.26-.43l.23-.16c.19-.09 1 .35.41.89a3.06 3.06 0 0 1 2.41-.59zm15.26-10c.06.08.12.09.22.13a1 1 0 0 0 .45.08c.07 0 0 .18-.09.2s-.25 0-.34 0c-.39.15-.39 1.12-.34 1s.36 0 .54 0 .54-.56.74-.54c.48 0 .92.64 1.1 1 0 .08-.2.08-.22.32a2.35 2.35 0 0 1 1.67.74 4 4 0 0 1 .71-.9c-1-1-2.9-1.24-2.61-3 0-.22-.21-.41-.32-.52s-.41-.13-.59-.17c.19.38-.14.42-.1 1h-.07a2.17 2.17 0 0 1-.33-.19.44.44 0 0 0-.3 0 .46.46 0 0 0-.19.08 1 1 0 0 0-.2.25.47.47 0 0 0-.07.12h.24c.03 0 .04.33.1.4zm4.76-.21a.37.37 0 0 1 .35 0c-.68-.79-1.28-.32-1.89-.28-.15 0-.39-.12-.58-.09a1.38 1.38 0 0 0 2.12.37zm3.51-.2c-.41 1.24-1.42 1.64-2.42 2.15-.68.35-2.53 1.91-1.89 2.51a3.25 3.25 0 0 1 1.38.63 2.21 2.21 0 0 1 1.77-.72 2.42 2.42 0 0 1 1.1.38c-.21-1.54.84-3.05.31-4.56.02-.03-.17-.64-.25-.39zm-1.84 9.86c.15-.39-.64-1.17-1.24-1-.76.27-.44 1.23-.59 1.91a.74.74 0 0 1-.92.51 1.78 1.78 0 0 1-1-1.46c-.1-.44-1-.49-1.15-.14-.52 1 .32-.11.26.66 0 .13-.61 0-.75.49s.21.52.58.63c.07 0-.07-.15 0-.19s.35.12.31.14c-.36.22-.45.73.19 1v-.22a.92.92 0 0 1 1 0l.05.06a.94.94 0 0 0 .06.18 2.89 2.89 0 0 1 2.27-.33 2.1 2.1 0 0 1 .93-2.24zM18.31 27a1.6 1.6 0 0 0-.68-.42c-.8.13-1 .43-1.59.15.51 1.03 1.48.35 2.27.27zm-4.53 1.39c.12.47.81.19.83.52s-.52 0-.73.1a.76.76 0 0 0-.07 1c.25-.24.56.11.81-.06s.23-.3.41-.37c.53-.24.69.25.57.74a8.58 8.58 0 0 1 1.12-.32c.28-.08.29-.72.64-1-.49 0-1.09-.22-1.23-.69a.55.55 0 0 1 0-.17 1.16 1.16 0 0 0-.08-.52v-.06l-.05-.05a.7.7 0 0 0-.19-.15.16.16 0 0 1-.09-.05.27.27 0 0 0-.14-.07.43.43 0 0 0-.16 0h-.13s.05.13 0 .15-.08 0-.14.12a.18.18 0 0 0 0 .09 1.55 1.55 0 0 0-.06.23 1 1 0 0 0 0 .17 1.39 1.39 0 0 0 .06.13l.09.1c.11.11 0 .05.16.18s0 .18-.11.16c-.46-.13-.53-.67-1-.84a.64.64 0 0 0-.8.59c.17-.11.28-.06.29.02zm-1.13 3.95c0-.22.1-.59.41-.45s.35.44.28.77c.47-.16 1.28-.63 1.76-.28a8.87 8.87 0 0 0 2.48.9 2.13 2.13 0 0 1-.58-1.91 5.74 5.74 0 0 1-3.57-.32c-.3-.14-.26-.49-.35-.78a1 1 0 0 0-.89-.6c-.2 0-.68.44-.59.46s0 .06 0 .09a.17.17 0 0 1 .24.1.55.55 0 0 0 .12.19c.06.07.18.09.22.16.21.41-.84-.25-1.23.36-.13.2-.06.64-.06.89.24-.22.48.2.93-.2.05.05.11.07 0 .14a.52.52 0 0 0-.17.58 1.24 1.24 0 0 0 .43.38c.04-.27.5 0 .57-.53zm6.07 4.49c-.65-.68-.42-2.15.5-2.32a5.54 5.54 0 0 1-.65-.14c-.81-.51-1.78-1-2.32.07-.27.53.22 1 .59 1.39.07.08 0 .13-.13.15-.87.22-2.49.36-2.56-1 0-.13-.34-.25-.56-.24-.65 0-.64.85-.57.79s.58-.07.53.26-.66-.16-.9.15a1 1 0 0 0-.05 1c0-.11.09-.19.16-.2.67-.11.71.12.51.77 0 0 .2.46.34.5a.17.17 0 0 1 0-.12.13.13 0 0 1 .09-.07 1.43 1.43 0 0 1 .22 0h.09a.53.53 0 0 0 .13-.13c.16-.2.29-.45.56-.47a.42.42 0 0 1 .3.1c.23-.29.42-.13.52-.13s.23.35.2.57c.98-.56 1.88-1.22 3-.98zm5.34-.57a1.7 1.7 0 0 1-2-.69c-.7-1-.2-2.17-.69-3.16-.41.1-.32.64-.53.55-.76-.36-1.19-1.17-1.74-1.85-.23.09-.33.3-.55.29s-.93-.12-1.06 0a1.64 1.64 0 0 0 1.07 2.06 4.67 4.67 0 0 1 2.21 1.35c-.39 0-.52-.15-.83-.17a1.35 1.35 0 0 0-.74.23 1 1 0 0 0-.44.91c.21 1.66 2.16 1.68 3.06 2.74.16.18-.23.9-.6 1.19s-1.07-.37-.95-.91-.92-.7-1.28-.22c.14 0 .18.08.16.15-.06.39.43.4.41.6s-.26-.12-.45-.15a1 1 0 0 0-1.07.4c-.07.1-.23.26-.16.43.32-.16.48.33.78.18s.32-.25.54-.19.17.14.1.19c-.58.37-1 .89-.63 1.48a.32.32 0 0 1 .21-.26c.17 0 .4.07.56 0s.13-.36.23-.54.71-.81 1-.44c.05.06 0 .31-.16.31.17 0 .32.16.47.13h.21a.42.42 0 0 0 .16-.25c.12 0 .28 0 .36-.09a3.19 3.19 0 0 1 .26-.26h-.05c.61-.61 1.06-1.43 1.72-2-.73-.43-1.62-.87-1.71-1.82 0-.07.1-.14.12-.13a2.3 2.3 0 0 0 3.08-.41c.58-.83.83-2.17 2-2.25a1.54 1.54 0 0 1 .67-2 1.54 1.54 0 0 0-.71-.21c-.29.05-.42.44-.74.5.51-1.73-.48-4.15-2.39-4.11a1.06 1.06 0 0 0-.94.68 1.23 1.23 0 0 0 .1 1.15 3.05 3.05 0 0 1 .88 2.58 2.18 2.18 0 0 0 .84-1.56c0-.15.27 0 .31-.1.52-.77-.33-1.24-.78-1.72-.13-.13.19-.34.23-.32 1.64.49 1.8 2.51 1.09 3.82-.18-.24-.88-.16-1.11-.24.77.39.57.44.53.57s-.74.13-.87.3-.41.43-.43 1.4c.32-.34.74-.86 1.19-.63 1 .49 0 2.16-.94 2.44zm-4.88-8a3.13 3.13 0 0 0-2 2.18 1 1 0 0 0-.07.37c0 .1.6-.63 1-.42A1.18 1.18 0 0 1 18 31a3 3 0 0 0 1.64-.56c.06-.06 0 .38.11.59a2.9 2.9 0 0 0 1.2 1.25c.12.08.11-.24.37-.45s.58.2.76.27-.18-.48-.21-.66c-.32-1.57.33-2.86.31-4.35a1.1 1.1 0 0 0-.43-.92 3.14 3.14 0 0 1-2.57 2.03zM9.43 3.85a1.18 1.18 0 0 1 0 1.08c-.12.35-.73.45-1.19.39a.31.31 0 0 1 .1.36c1-.25 2.53.13 3.22-1 .24-.4-.09-.79 0-1.19 0-.19.32-.32.42-.53s-.14-.39-.13-.54a1 1 0 0 1-.66.36c-.45 0-.85-.37-1.3-.21a15.7 15.7 0 0 1-1.54.57.57.57 0 0 0-.45.63c.52-.23 1.21-.5 1.53.08zm0-.58c.2-.48.66-.54 1.05 0l-.06.05c-.33.17-1.11.28-.97-.05zm19.8.45a.84.84 0 0 1 .11.3.13.13 0 0 0 0 .06 1.78 1.78 0 0 1 0 .4.79.79 0 0 1-.21.44S29.07 5 29 5v.07a.91.91 0 0 1-.17.09H28.42c-.12 0-.13-.05-.21 0a.24.24 0 0 0-.08.22.83.83 0 0 1 .22 0 1.68 1.68 0 0 0 .32.09 3.1 3.1 0 0 0 .43 0h.62a1.27 1.27 0 0 0 .26 0l.25-.11.3-.21c.16-.12.4-.11.54-.23.38-.23.42-.76.58-1.15s.43-.27.55-.58v-.51a1.8 1.8 0 0 1-1 .23c-1-.28-1.24-.78-2.18-.08-.28.21-.82 0-1.17.44-.06.07-.05.27-.05.38.43.06 1.2-.49 1.45.07zm-.03-.52c.2-.57.75-.29 1.18-.08-.38.21-1.32.5-1.18.08zM31.06 5H31zM18.53 25.57c-.73 0-1.2.45-1.08.75.26-.12.52-.36.82-.2s.37.81.27 1.09a.8.8 0 0 1-.69.47c-.15 0-.07.23-.08.35A8.22 8.22 0 0 0 20.66 27c.42-.23.41-.67.56-1.11s.65-.36.51-1a1.08 1.08 0 0 1-1.2.27c-.66-.16-1.18-.32-1.66 0 .02-.01-.36.41-.34.41zm.51 0a.33.33 0 0 1 .1-.15.58.58 0 0 1 .17-.06s.05 0 .09-.06a.12.12 0 0 1 .08 0c.11 0 .19.09.29.1l.42.06s-.07.09-.11.11-.69.38-.85.31a.24.24 0 0 1-.15-.09.26.26 0 0 1-.08-.18zm14.34-19a8.6 8.6 0 0 0 .17-2.1.51.51 0 0 1 .32-.46.62.62 0 0 1 .88.6 25.07 25.07 0 0 1-.61 3 10.44 10.44 0 0 0 .27 3.61c-.46-.27-1-.29-1.15.44-.1.39.25.79.36 1.13 0-.46.44-1.1.87-.81s.54 2 .43 2.24a1 1 0 0 1-1.25.65c-.33-.09-.2-.58-.39-.78a5.8 5.8 0 0 1-1.61-3.85c0-.22.1-.79.07-.8a1.83 1.83 0 0 0-2.55.8c-.1-.24-.62-.58-.66-.51a1.6 1.6 0 0 0 .2 1.69c1.05.91 2.09 1.52 2.68 2.81a1.6 1.6 0 0 0-1.48.92c-.26.69-.17 1.65.56 1.93a5.78 5.78 0 0 0 1.83 0c.63.08 1.33.62 1.23 1.22 0 0-.27 1.41-.87 1.07-.33-.19-.14-.95-.64-1.06-.67-.17-.83.76-.75.68s.36.14.78.37c-1.4-.31-1 1-.92.83s.33 0 .83 0l-.12.11a3.41 3.41 0 0 0-.17.33.45.45 0 0 0 0 .39s0-.09.05-.1H32l.13.05h.11a.3.3 0 0 0 .21 0 .64.64 0 0 0 .19-.08l.11-.08c.09-.18.14-.13.16-.16.15-.29.28-.32.61-.28a.38.38 0 0 1 .11.11s.09.21.08.14c0 .14.1.22.11.34 0-.14.35-.57.36-.88 0-1.07.68-1.58.7-2.72 0-.3-1.23-.57-1.29-1.22 0-.32-.13-.78.19-.77a1.55 1.55 0 0 0 1.1-.32c1.29-1.14.2-2.69.05-4.06 0-.3.52-1 .5-1.16a7.67 7.67 0 0 1 .11-3.37c-.32.29-.42.77-.69 1s-.2-.15-.19-.19a9.81 9.81 0 0 1 1-2.84c.55-1.14.27-2.06-.75-2.39A1.61 1.61 0 0 0 33 3.57 6.78 6.78 0 0 0 33.31 6c.06.24.02.46.07.63zM22.83 9.2c.22-.12.4-.28.62-.17s.09.3 0 .34c-1.12.4-.21 1.14-.4 1.29a2.12 2.12 0 0 0 1.07-.79c.09-.14.63-.16.83-.1s0 .56.12.54a2.22 2.22 0 0 1 1.32.61c.67.63 1.18.54 1.95 1a2 2 0 0 1-.36-2 8.16 8.16 0 0 1-2-.36c-1.28-.32-1.2-1.63-1.43-2.17l-.08-.08c-.06-.22-.34-.32-.56-.35H23.67c.07 0 .07.1 0 .15s0 0-.05.05a.53.53 0 0 0-.16.57.24.24 0 0 0 .06.11l.05.06c.06.06.09.19.17.24l.15.25c.07.07-.1.13-.15.08-.61-.72-1.64-.62-1.56.53.34-.19.4.35.65.2zM.07 3.13c.23 11.06.45 21.5 7 31.55a28.33 28.33 0 0 0 12 10l.24.11.24-.11a28.4 28.4 0 0 0 12-10c6.55-10 6.76-20.49 7-31.54L38.66 0H0zm30.55 30.93a27.21 27.21 0 0 1-11.28 9.47A27.06 27.06 0 0 1 8 34.06c-.42-.64-.8-1.27-1.16-1.91L19.34 22 32 31.76c-.44.77-.88 1.53-1.38 2.3zm2.38-4.2L19.34 19.33l-13.42 11c-.5-1-1-2-1.35-3.05l14.77-11.84 14.92 11.39c-.38 1.02-.82 2.02-1.26 3.03zm4.48-28.71v2c-.15 7.53-.31 14.77-2.5 21.75l-15.59-12L3.82 25.16c-2.28-7.07-2.44-14.41-2.6-22v-2z"/>
</svg>
