<svg xmlns="http://www.w3.org/2000/svg" viewBox="0 0 418.63 199.93" aria-hidden="true">
  <path fill="currentColor" d="M396.89 88.92a21.42 21.42 0 0 1 21.74 21.64c0 12.08-10.5 22.06-22.37 22.06-12.29 0-21.11-10-21.11-22.06 0-11.55 10.19-21.64 21.74-21.64m2.21 41c7.88 0 12.81-7.77 12.81-15.23 0-11.87-6.83-23-17-23-8.09 0-13 7.14-13 15.44-.04 10.87 6.26 22.76 17.19 22.76zm-43.69-40h-9c-3.88 0-6.83 0-9.24-.1-2.21-.11-2.73-.63-3.05-1H333c-.21.52-3.05 8.08-3.15 8.5l1.36.84c1.37-3.67 2.94-5.46 10.4-5.46a56 56 0 0 1 6 .32c.42 5.35.52 10.6.52 16 0 3.36-.11 16-.52 18.68-.22 1.26-.85 1.86-4.31 2.49-1.47.21-2.42.31-3.26.42l.32 1.7c1.12-.1 2.47-.18 4.14-.28s3.73-.17 6.78-.17c1.16 0 3.05-.08 4.83 0s3.37.11 5.57.21l.21-1.76a19.2 19.2 0 0 1-2-.23c-1.17-.15-3-.52-3.78-1.25-1.36-1.58-1.36-12.91-1.36-16 0-2.63.42-15.86.42-18.91 0-1.26.42-1.26 4.2-1.26h.13c1.69-.06 2.16 0 2.8 0 7.45 0 7.66 1.79 9 5.46l1.37-.84c-.11-.42-1.58-8-1.78-8.5h-1.16c-.32.42-.84.94-3 1-2.88.12-6.27.1-9.7.1zm-69.19-.1c-1.69.1-3 .1-5.05.1-1.05 0-2.1 0-3.15-.1s-1.22-.1-2.23-.21v1.78c6.1 1.16 6.64 2.1 6.43 14.29v7.45c0 2.84-.2 11.24-.51 13.66-.32 2.73-1.47 2.94-3.05 3.25-.84.21-1.78.42-2.41.53v1.57c1.57 0 3.14-.1 4.72-.21s3.69-.21 5.26-.21 3.26.11 4.73.21a18.37 18.37 0 0 1 2.94.21v-1.84c-8.3-1.46-8.3-2.62-8.19-9.66v-17.75l.11-3.35 30.9 32.76h2.16c-.21-3.47-.21-12.39-.21-16.28 0-5.56 0-19.92.19-21.72.36-2.73 4-3 6-3v-1.54c-4.51 0-7 .11-9-.1a40.86 40.86 0 0 0-4.41-.31 20.81 20.81 0 0 0-2.63 0l-.31 1.57c7 .42 6.87 1 6.87 16.9 0 1.89-.07 11.16-.07 13zm-38-.85a21.41 21.41 0 0 1 21.74 21.64c0 12.08-10.5 22.06-22.37 22.06-12.29 0-21.11-10-21.11-22.06-.04-11.61 10.15-21.69 21.7-21.69zm2.21 41c7.87 0 12.81-7.77 12.81-15.23 0-11.87-6.83-23-17-23-8.08 0-13 7.14-13 15.44-.08 10.82 6.23 22.71 17.15 22.71zm-68.9-40.33c1.36.1 2.62.21 4 .21s2.62.1 3.88.1c.95 0 3.37-.21 5.78-.42s4.2-.21 5.67-.21c8.93 0 14.6 4.83 14.6 11.34 0 5.88-5.35 9.46-9.55 10.51 8.71 12.6 10.29 14.49 13.65 17.64a11 11 0 0 0 6.3 3.05l-.1 1.57c-7.25 0-10.82-2.83-12.71-4.3-6.41-5-12.71-15-13.87-17.12-1.78 0-2.52 0-5.56-.21v6.09c0 2.73-.11 8.82.73 10.5.53.95 3.68 1.89 5.78 2.52l.1 1.58a65.86 65.86 0 0 0-9.24-.73c-1.47 0-8 .41-9.35.52l-.31-1.26c.63-.11 4.41-.95 5.35-2.73.74-1.58.63-10.4.63-13.23v-10.17c0-13-.63-13.23-5.88-13.54zm12.18 19.74a32.57 32.57 0 0 0 4.52.21c1.57 0 10.4 0 10.4-8.4 0-3.89-2.84-9.56-10.3-9.56-4.41 0-4.41.53-4.51 7.67zm-41.42-20.46A21.42 21.42 0 0 1 174 110.56c0 12.08-10.5 22.06-22.37 22.06-12.29 0-21.11-10-21.11-22.06.03-11.56 10.22-21.64 21.77-21.64zm2.21 41c7.87 0 12.81-7.77 12.81-15.23 0-11.87-6.83-23-17-23-8.08 0-13 7.14-13 15.44-.04 10.87 6.26 22.76 17.19 22.76zm-44.69-40h-9c-3.88 0-6.82 0-9.24-.1-2.21-.11-2.73-.63-3-1h-1.19c-.21.52-3 8.08-3.15 8.5l1.36.84C87 94.39 88.53 92.6 96 92.6a56 56 0 0 1 6 .32c.42 5.35.52 10.6.52 16 0 3.36-.1 16-.52 18.68-.21 1.26-.84 1.86-4.31 2.49-1.47.21-2.41.31-3.25.42l.31 1.7c1.13-.1 2.48-.18 4.15-.28s3.73-.17 6.77-.17c1.16 0 3-.08 4.84 0s3.36.11 5.56.21l.21-1.76a18.8 18.8 0 0 1-2-.23c-1.18-.15-3-.52-3.79-1.25-1.36-1.58-1.36-12.91-1.36-16 0-2.63.42-15.86.42-18.91 0-1.26.42-1.26 4.2-1.26h.13c1.69-.06 2.17 0 2.8 0 7.45 0 7.66 1.79 9 5.46l1.36-.84c-.1-.42-1.57-8-1.78-8.5h-1.16c-.31.42-.84.94-3 1-2.87.12-6.27.1-9.7.1zm271.37-37.11a46.27 46.27 0 0 1-6.37.28l-3.19-.09h-3.29l-1.09.06-.85.09v.8h.14c.83 0 1.61.12 2 .62.48.73.53 1.49.53 8.11a67.43 67.43 0 0 1-.37 7.15c-.16.73-1.18 1-1.94 1.12h-.12l-.07 1h.19c1.85-.14 3.87-.18 4.4-.18h1.63l3 .14v-1.08h-.21c-2.16-.2-2.88-.58-3.11-.86a6.27 6.27 0 0 1-.32-2.58v-1s.08-2.8.1-3.45l1.54-.09a15.5 15.5 0 0 1 4.34.63c.3.1.55.7.67 1.54v.14h.93v-.15a51.5 51.5 0 0 0 .09-5.31v-.15h-1v.13c-.23 1.37-.32 1.94-4 1.94a17 17 0 0 1-2.5-.16h-.08v-1.07-1.34s.05-3.89.06-4.49a22.52 22.52 0 0 1 2.25-.17 8.68 8.68 0 0 1 4.55.93 3.2 3.2 0 0 1 1 1.85v.13l1.05-.07v-.15c0-.3 0-1.33.1-2.24l.1-2zm-28.49-.14a9.67 9.67 0 0 1 9.88 9.65 10.13 10.13 0 0 1-10.16 9.83 9.62 9.62 0 0 1-9.6-9.83 10 10 0 0 1 9.88-9.65zm1 18c3.45 0 5.58-3.39 5.58-6.53 0-4.88-2.79-9.93-7.45-9.93-3.72 0-5.67 3.33-5.67 6.62-.02 4.8 2.85 9.81 7.52 9.81zm-36.1-17.61V54h.22c.94 0 2.23.11 2.23.85 0 .23-.4 1.33-4 6.47-1.52-1.84-4.9-6.18-4.9-6.74 0-.21 0-.45 2.15-.49h.15V53h-1.78l-3.45.06-3.67-.06v1h.15a3.24 3.24 0 0 1 1.94.44c1.14.81 5.16 5.94 5.3 6.16l1.77 2.29c.1 1.33.19 2.81.19 4.64 0 2.81 0 3.39-2.62 3.48h-.15l-.07 1h.16c.39 0 1.59-.07 2.75-.15l2-.13 1.51.08h.31l2 .11V71h-.14c-2.57-.22-2.59-.55-2.63-1v-.2c-.06-1.16-.09-2.44-.09-3.85 0-1 0-2.18.05-3.36l3.69-5.62c1.17-1.8 1.82-2.79 4.33-2.83h.15V53H325c-.33 0-1.34 0-2.23.08l-1.21.06-1.39-.14-1-.06-1.4-.05h-.17v.16zM301 52.53h-.59l-.05.07c-.1.12-.27.35-1.25.39h-13.23c-1 0-1.16-.27-1.25-.39l-.05-.07h-.7v.1c-.07.19-1.36 3.55-1.41 3.75v.12l.87.52.07-.18c.59-1.55 1.22-2.29 4.5-2.29 1.05 0 1.93.07 2.53.13.2 2.54.23 5 .23 6.85s-.06 7-.24 8.16c-.07.41-.19.68-1.79 1l-1.17.15-.45.06.2 1 1.56-.1h.43l3-.07h2.15l1.28.05h1.35v-.14l.12-.93-.85-.09h-.2a3.12 3.12 0 0 1-1.6-.51c-.21-.23-.56-1.44-.56-6.87l.09-3.88.09-4.41c0-.38 0-.4 1.73-.4h1.31c3 0 3.27.64 3.79 2l.16.44.86-.52-.2-1c-.3-1.48-.56-2.71-.62-2.87v-.1zm-31.37.57v.9h.15c2.45.1 2.85.6 3.05 1.1.34.83.42 6.16.42 8.14v.33c0 1.62 0 5.41-.5 6.27-.17.29-.8.8-3.21 1h-.15v1l3-.1h2.72l4.54.14v-.17l-.05-.88h-.15c-2 0-2.62 0-2.86-.81a37.93 37.93 0 0 1-.18-5.3c0-7.32 0-9.25.45-10s2.24-.71 2.76-.66h.17V53h-2.29l-3.14.09-2.07-.09h-2.69v.16zm-16.63 5c0 3.19 2.73 4.31 4.72 5.13l.17.07c3.41 1.38 5 2 5 4.38 0 1.38-1 2.88-3.33 2.88a6.84 6.84 0 0 1-4.41-1.56 4.83 4.83 0 0 1-1.45-2.67v-.13h-1.14l.06.2a14 14 0 0 1 .8 5.35v.14l.92.07v-.11c.05-.1.21-.45.42-.45a8.17 8.17 0 0 1 1.15.24h.13l.28.08a7 7 0 0 0 2.29.34c4.59 0 7.06-2.79 7.06-5.41 0-3.69-3.63-5.12-6-6.07s-4-1.7-4-3.55S257 54 259.14 54a5.13 5.13 0 0 1 3.55 1.42 4.05 4.05 0 0 1 1.13 2.33v.13h.96l-.25-2.46a10.56 10.56 0 0 1 .27-2.21v-.17l-.84-.13-.6.41a13.22 13.22 0 0 0-3.77-.59c-3.87.04-6.59 2.27-6.59 5.4zm-13.23-5.32c3.93 0 6.68 2.11 6.68 5.13 0 2.44-2.13 4.11-4.18 4.69 3.77 5.34 4.47 6.17 6 7.54a4.81 4.81 0 0 0 2.72 1.29h.16l-.07 1h-.14a8.64 8.64 0 0 1-5.78-1.92c-2.86-2.21-5.66-6.56-6.19-7.48l-2.32-.03v3.36A13.08 13.08 0 0 0 237 70a6.94 6.94 0 0 0 2.49 1h.11l.06 1h-.19a30.14 30.14 0 0 0-4.1-.32c-.65 0-3.53.18-4.17.23h-.2l-.22-.85h.17c.39-.07 1.92-.44 2.28-1.11a29.07 29.07 0 0 0 .27-5.31v-4.81c0-5.64-.23-5.65-2.48-5.79h-.15l.06-1.09h.28l1.67.08 1.72.05c.42 0 1.51-.1 2.57-.19zm-3 8.81a14.86 14.86 0 0 0 1.86.08c1.68 0 4.5-.46 4.5-3.53a4.11 4.11 0 0 0-4.45-4c-1.82 0-1.82.06-1.87 3.21-.07-.01-.11 4.01-.11 4.27zm-11.18-8.69c-2.3.14-5.94.19-8.35.19-1.46 0-5.13-.09-6.48-.14h-.16v.94h.13c1.6.28 1.7.32 1.81.68s.36 2.14.36 7.83a62.68 62.68 0 0 1-.42 7.57c-.12.64-.92.85-2.16 1h-.16l.14 1h.15a71.93 71.93 0 0 1 7.4-.28l7.51.1.07-.12c.39-.62 1-1.57 1.4-4.58v-.17l-.9-.06v.11c-.64 1.72-1.9 3.49-6.47 3.49a7.58 7.58 0 0 1-3.2-.56 25.84 25.84 0 0 1-.22-3.62v-3.45a21.67 21.67 0 0 1 2.8-.17c3.67 0 4 .29 4.45 2.55v.13h.9v-.16c0-2.48 0-3.07.09-5.66v-.12h-1v.11c-.36 1.38-.66 1.65-1.19 1.73a34.18 34.18 0 0 1-5.93.2c0-.25-.09-2.48-.09-2.48a31.78 31.78 0 0 1 .31-4.38 27.71 27.71 0 0 1 3.62-.35c2.08 0 3.3.27 3.85.85a2.59 2.59 0 0 1 .41 2v.15l1.07.13v-.18c0-.2.13-.95.22-1.5l.11-.69a10.78 10.78 0 0 0 .15-1.91v-.18zm-40.68.22l.06.82h.13c2.52.32 2.62.33 4.67 4.52l4.23 8.63v.07a39.92 39.92 0 0 1 2.16 5.06v.11h.94v-.11a39.72 39.72 0 0 1 2.58-6.1l4.55-8.94c1.05-2.1 1.51-2.63 3.56-3h.12v-1h-3.62L200.8 53v.14l-.06 1h.17c.94 0 2.19.12 2.19 1.13a6.94 6.94 0 0 1-.67 2.09l-.07.15c-.93 2.1-1.52 3.25-2.15 4.48l-2.08 4.27s-.31.69-.49 1.07a92.6 92.6 0 0 1-5.79-12.66c0-.22.06-.25 1.59-.44l.48-.06v-1h-4.43c-1.08 0-3.27-.05-4.4-.14h-.18zm-12.68 0V54h.16c2.45.1 2.85.6 3.05 1.1.34.83.41 6.16.41 8.14v.33c0 1.62 0 5.41-.49 6.27-.17.29-.8.8-3.22 1H172v1l3-.1h2.73l4.54.14v-.17l-.06-.88H182c-2 0-2.62 0-2.86-.81a37.93 37.93 0 0 1-.18-5.3c0-7.32 0-9.25.45-10s2.24-.71 2.76-.66h.17V53h-2.22l-3.15.09-2.04-.09H172.19v.16zm-10.78-.31h-.13v.11l-.18.87h.18c3.63.22 3.06.29 3.16 7.8 0 0 .05 4.53 0 5L151.5 53l-.05-.06-2.09.05L148 53h-.12l-1.27-.09V54h.12c2.61.48 3 .77 2.95 6.1v3.27c0 1.22-.14 4.92-.28 6s-.54 1.16-1.22 1.29l-1.21.26v1l4.38-.19 2.1.09 1.47.1v-1.15h-.13c-3.58-.62-3.57-1-3.53-4.08l.1-7.78V57.8c.71.73 13.61 14.11 13.54 14.14V72h1.22v-.18c-.09-1.51-.09-5.43-.09-7.13 0-2.54.11-8.46.24-9.19.16-1.26 1.25-1.56 2.29-1.56h.15v-1h-.15c-2 0-3.05.13-3.93 0l-.6-.07-1.39-.08zm-34.14.19h-1.09c-1.28 0-3.86 0-4.24.09h-.15l.07 1h.15c1.22 0 1.64 0 1.93.2s.63 2.4.63 5.26l-.23 6.13c0 4.23 2.7 6.46 7.81 6.46 8.1 0 8.52-4.32 8.66-13.32V56c0-1.31 0-1.86 2.24-2h.14l.07-1h-.42l-3.27.08-2.47-.08H136v1.1h.15a3.63 3.63 0 0 1 2.29.47c.59.58.75 3.1.75 4.35v1.66c0 6.24-.42 10-6.23 10-5.29 0-5.29-4.22-5.29-6.24v-3.5c0-6.51.23-6.53 3.14-6.79h.14V53h-.14c-.7-.08-2.32 0-3.5 0zM11.09 20.87a1.65 1.65 0 0 0-1.15 1.25 2 2 0 0 0-1.3.31 2 2 0 0 0-.86 1.37v.41a2.17 2.17 0 0 0 1.36 2v.25a1.74 1.74 0 0 0 .63 1.32 2.27 2.27 0 0 0 .82.47l-.15.57.13.69A2.21 2.21 0 0 0 12.62 31a1.77 1.77 0 0 0 .53.86 2 2 0 0 0 2 .4A2.26 2.26 0 0 0 15 33a2.23 2.23 0 0 0 .41 1.27c.81 1.19 2.21.61 3.09.2a1.76 1.76 0 0 0 1.78.6 2.83 2.83 0 0 0 2.1-1.72l.88-.14.15-.1a3.85 3.85 0 0 0 1.25-1.84 8.46 8.46 0 0 1 1.67 2.07 20.29 20.29 0 0 0 1.48 2.54s.71 1.17.91 1.49a4.38 4.38 0 0 1-2 3.24l-.57.28a29.53 29.53 0 0 0-4 2.26 3.41 3.41 0 0 0-1.48.31 4.31 4.31 0 0 0-1.53-.34A3.26 3.26 0 0 0 16 44.85a3.35 3.35 0 0 0 3.16 5 3.32 3.32 0 0 0 1.39-.35 3.59 3.59 0 0 0 1.37.31 4 4 0 0 0 1.47-.32 3.26 3.26 0 0 0 1.32.36 3.06 3.06 0 0 0 1.3-.34 3.25 3.25 0 0 0 1.27.3 3.31 3.31 0 0 0 1.43-.29 3.27 3.27 0 0 0 1.27.33 3 3 0 0 0 1.29-.34 3.3 3.3 0 0 0 1.27.3 3.26 3.26 0 0 0 1.42-.29 3 3 0 0 0 1.26.33 3.06 3.06 0 0 0 1.3-.34 3.2 3.2 0 0 0 1.26.3 3.27 3.27 0 0 0 1.43-.29 3.18 3.18 0 0 0 1.26.33 3.06 3.06 0 0 0 1.3-.34 3.19 3.19 0 0 0 2.75 0 4.42 4.42 0 0 0 1.56.36A3.28 3.28 0 0 0 49.22 48a3.48 3.48 0 0 0-.22-3.4 3.55 3.55 0 0 0-3-1.45 3.33 3.33 0 0 0-1.37.33l-.48-.14c-.58-.85-1.46-1.26-3.45-2.1l-.3-.12c-2.07-.87-2.48-1.61-2.89-2.32l-.06-.1a8.47 8.47 0 0 1-.43-2.9 6.79 6.79 0 0 1 .88-3.58 5.46 5.46 0 0 1 1.51-1.52 3.46 3.46 0 0 0 .64 1.3l.11.09.9.47-.1-.23c.38.92.93 1.87 2 2a2 2 0 0 0 1.07-.21 2.16 2.16 0 0 0 1.53.61 1.85 1.85 0 0 0 1.23-.51 2 2 0 0 0 2.23-.81l.35-1v-.06a1.56 1.56 0 0 0-.32-.95h.14a1.75 1.75 0 0 0 .65-.65 1.79 1.79 0 0 0 1.62-1.09s.06-.2.09-.31l.08-.07a2.12 2.12 0 0 0 1.66 0 1.8 1.8 0 0 0 .89-1 2.1 2.1 0 0 0 2.32-1.88v-.36c0-.64-.3-1.69-1.94-2.22a2.11 2.11 0 0 0-.58-1.22 2.14 2.14 0 0 0-2.48-.39 1.71 1.71 0 0 0 .53-.61c.92.2 2.48.43 3.17-.92l.17-.67c0-.07-.08-.39-.14-.64a2.45 2.45 0 0 0 1.08-1.94l-.24-1.06a1.92 1.92 0 0 0-2.21-1.2 1.36 1.36 0 0 0-.28-.61l-.09-.07c.07-.29.17-.66.17-.66l-.09-.83a2 2 0 0 0-1.13-1.19 2.56 2.56 0 0 0-1.46 0 2.46 2.46 0 0 0 .84-1.27v-.34a1.94 1.94 0 0 0-.46-1.27 2.38 2.38 0 0 0-2.58-.72 1.79 1.79 0 0 0-1-.63 2.47 2.47 0 0 0-2.19.76L45.14 8h-.4a2.13 2.13 0 0 0-.63-1.42 2.41 2.41 0 0 0-1.8-.8 2.19 2.19 0 0 0-.71.14 2.15 2.15 0 0 0 .44-1.14L41.88 4a2.34 2.34 0 0 0-1-1A2.1 2.1 0 0 0 39.26.68a2.38 2.38 0 0 0-2.37.89 1.85 1.85 0 0 0-.52-.16A2.28 2.28 0 0 0 35 .65c-1.45-.18-2 1.13-2.3 1.94a1.67 1.67 0 0 0-1 .24l-.45.45a2.68 2.68 0 0 1-.25-.12c-.22-1.43-1-1.91-1.41-2a2 2 0 0 0-1.09 0C27.33-.16 26.3-.13 25.64.18A1.89 1.89 0 0 0 24.54 2s.13.64.2 1a1.67 1.67 0 0 0-.51.48 2.44 2.44 0 0 0-2.07.36 2.12 2.12 0 0 0-.92 1.78 3.49 3.49 0 0 0 .37 1.46 1.87 1.87 0 0 0-.61 1.1v.26s.07.28.14.53a2.43 2.43 0 0 0-1.48.75 2 2 0 0 0-.5 1 1.88 1.88 0 0 0-1.79-1.42 1.56 1.56 0 0 0-1.12.51 1.83 1.83 0 0 0-1.81-.28 2.16 2.16 0 0 0-1.32 2.15l.08.66a1.87 1.87 0 0 0-.74.82v.11a2.66 2.66 0 0 0-.14.59 2 2 0 0 0 .38 1.1 1.83 1.83 0 0 0-1 1.11 2 2 0 0 0-1.69 1.18c0 .07-.26 1-.26 1v.08l.23.94A2.6 2.6 0 0 0 11 20.39s.1.09.13.24a.27.27 0 0 1-.04.24zm.89-.81l-.34-.15a2.17 2.17 0 0 1-1.07-.86s-.13-.53-.16-.67.23-1 .23-1v.16a1.3 1.3 0 0 1 1.28-.81h.32l.06-.31a1 1 0 0 1 .64-.79l1.21-.21-.51-.52a1.45 1.45 0 0 1-.57-1l.09-.43a1.26 1.26 0 0 1 .66-.62l.23-.13-.14-1.09a1.42 1.42 0 0 1 .86-1.41 1.13 1.13 0 0 1 1.31.33l.31.28.25-.34a.88.88 0 0 1 .76-.44c.38 0 .92.16 1.2 1.39l.11.3a1.69 1.69 0 0 1 .55-.14 1.55 1.55 0 0 1 .52.29l.2-.25-.12-.58a1.27 1.27 0 0 1 .37-.81 1.62 1.62 0 0 1 1.36-.57h.52l-.23-.55-.11-.67v-.23a1.2 1.2 0 0 1 .56-.79l.25-.19-.19-.25A3.13 3.13 0 0 1 22 5.61a1.37 1.37 0 0 1 .6-1.18 1.73 1.73 0 0 1 1.67-.21l.33.13.15-.35a1 1 0 0 1 .55-.53l.29-.12-.08-.35-.22-1A1.16 1.16 0 0 1 26 .86c.68-.31 1.39 0 2.16.86l.18.2.24-.09a1.24 1.24 0 0 1 .85 0c.5.16.83.73.93 1.62v.21l.27.11.23.11.35.33.17.06.3-.37.41-.42a1.1 1.1 0 0 1 .82-.12l.32.06.1-.31c.36-1.11.76-1.82 1.59-1.71a1.59 1.59 0 0 1 1 .57l.1.12h.16a1.33 1.33 0 0 1 .62.19l.28.18.21-.25a1.74 1.74 0 0 1 1.81-.81 1.36 1.36 0 0 1 1 1.51v.5l.26.1a1.53 1.53 0 0 1 .86.76l.15.62A2.19 2.19 0 0 1 40.62 6l-.13.14v.22l.18 1 .54-.36a1.84 1.84 0 0 1 1.15-.48 1.7 1.7 0 0 1 1.25.57 1.47 1.47 0 0 1 .45 1l-.13.56.58.08.37-.08.53.34.24.15.21-.14c.52-.45 1.12-.91 1.75-.76a1.22 1.22 0 0 1 .77.51l.16.22.25-.08a1.72 1.72 0 0 1 2 .45 1.19 1.19 0 0 1 .29.76v.31a2.17 2.17 0 0 1-.77 1l-.18.14.24 1.16.4-.14a2 2 0 0 1 1.39-.05 1.25 1.25 0 0 1 .7.71L53 14a3.44 3.44 0 0 0-.19.57l-.07.26.2.22.23.15a2.1 2.1 0 0 1 .11.53v.41l.4-.1c.91-.21 1.41 0 1.71.66l.21.91a1.78 1.78 0 0 1-1 1.4l-.23.15.1.33s.15.51.15.52-.12.49-.12.49c-.42.8-1.55.64-2.56.41l-.35-.08-.13.39a1.07 1.07 0 0 1-.74.69l-.34.12.14.4.09.29v.21l-.11.78.67-.39c1.07-.62 1.78-.65 2.3-.11a1.33 1.33 0 0 1 .42.95v.29l.27.09c1.07.28 1.63.82 1.63 1.56v.34a1.41 1.41 0 0 1-.56.95 1.67 1.67 0 0 1-1.19.22h-.33l-.08.32a1.09 1.09 0 0 1-.61.82 1.7 1.7 0 0 1-1.32-.11l-.21-.09-.22.21L51 29l-.06.13-.09.36a1.09 1.09 0 0 1-1.14.6h-.26l-.09.24a.92.92 0 0 1-.37.45c-.05 0-.45.11-.45.11l-.21.06-.13.52.13.21a1 1 0 0 1 .37.75l-.25.78c-.17.23-.57.62-1.59.39h-.2l-.15.15a1.23 1.23 0 0 1-.9.41 1.63 1.63 0 0 1-1.15-.54l-.22-.19-.24.16a1.24 1.24 0 0 1-.85.18c-.72-.1-1.11-.81-1.43-1.57l-.09-.2h-.19l-.89-.46A4.11 4.11 0 0 1 40 30l-.11-.49-.44.25a6.19 6.19 0 0 0-2.16 2 7.52 7.52 0 0 0-1 4 8.68 8.68 0 0 0 .53 3.27l.06.1c.42.75.94 1.67 3.25 2.64l.3.13c2 .85 2.75 1.18 3.2 1.92l.07.12 1 .29.13-.07A2.46 2.46 0 0 1 46 43.9a2.81 2.81 0 0 1 2.41 1.16 2.77 2.77 0 0 1 .11 2.65 2.57 2.57 0 0 1-2.48 1.35 3.69 3.69 0 0 1-1.42-.35l-.17-.08-.16.09A2.64 2.64 0 0 1 43 49a2.91 2.91 0 0 1-1.08-.27l-.17-.07-.16.09a2.37 2.37 0 0 1-1.15.29 2.71 2.71 0 0 1-1.1-.32l-.17-.07-.16.08a2.63 2.63 0 0 1-1.26.27 2.91 2.91 0 0 1-1.08-.27l-.17-.07-.16.09a2.37 2.37 0 0 1-1.15.29 2.9 2.9 0 0 1-1.11-.31l-.16-.08-.16.08a2.63 2.63 0 0 1-1.26.27 2.76 2.76 0 0 1-1.08-.27l-.16-.07-.16.09a2.32 2.32 0 0 1-1.16.29 2.8 2.8 0 0 1-1.11-.32l-.16-.07-.16.08a2.72 2.72 0 0 1-1.27.27 2.91 2.91 0 0 1-1.08-.27l-.16-.05-.16.09a2.26 2.26 0 0 1-1.15.29 2.77 2.77 0 0 1-1.11-.33l-.16-.08-.17.08a3 3 0 0 1-1.36.3 3.11 3.11 0 0 1-1.19-.29l-.16-.07-.16.09a2.62 2.62 0 0 1-1.25.3 2.79 2.79 0 0 1-2.41-1.17 2.84 2.84 0 0 1-.07-2.69 2.52 2.52 0 0 1 2.45-1.3 3.85 3.85 0 0 1 1.4.34l.16.07.16-.08a2.55 2.55 0 0 1 1.28-.29h.28l.11-.09a29.91 29.91 0 0 1 4-2.26l.57-.29a5.11 5.11 0 0 0 2.48-3.9v-.14l-1.06-1.75A26.17 26.17 0 0 1 27 33.12a8.35 8.35 0 0 0-2.27-2.72l-.41-.3-.17.48A3.53 3.53 0 0 1 23 32.52l-.61.11c-.07-.09-.35-.4-.35-.4l-.23.57a2.21 2.21 0 0 1-1.69 1.58 1 1 0 0 1-1.22-.49l-.17-.31-.35.16c-1 .47-1.9.84-2.37.16a1.57 1.57 0 0 1-.28-.86 2.07 2.07 0 0 1 .69-1.4l-.42-.57c-1 .7-1.72.78-2.3.25a1.29 1.29 0 0 1-.4-.72l-.06-.3h-.31a1.52 1.52 0 0 1-1.68-1l-.08-.48.12-.49.75-.58-.9-.14a1.56 1.56 0 0 1-.91-.4 1 1 0 0 1-.38-.77l.14-.61-.28-.18c-.79-.31-1.17-.78-1.17-1.42v-.37a1.27 1.27 0 0 1 .53-.82 1.45 1.45 0 0 1 1.07-.16l.4.05v-.4a1 1 0 0 1 .8-1l.69-.07.21-.05-.24-.19a3.07 3.07 0 0 1-.25-.67 2.43 2.43 0 0 1 .25-.49z" fill="#180d1c"/><path d="M28.38 47.39a2 2 0 0 0 1.58.82 1.24 1.24 0 0 0 .95-.3.38.38 0 0 1 .51-.06 1.81 1.81 0 0 0 1.1.32 2.22 2.22 0 0 0 .74-.11c-.08-.09-.17-.17-.24-.26l-1.53-2.24a2 2 0 0 0-1.58-.82A1.24 1.24 0 0 0 29 45a.38.38 0 0 1-.51.06 1.81 1.81 0 0 0-1.1-.32 2.51 2.51 0 0 0-.74.11c.07.09.16.16.23.25zM17.41 47.39a2 2 0 0 1 0-1.8 1.74 1.74 0 0 1 1.7-.85 2.57 2.57 0 0 1 1.88.82l1.54 2.24c.07.09.18.14.26.23a2.5 2.5 0 0 1-.88.14 2.22 2.22 0 0 1-1.21-.32.37.37 0 0 0-.49 0 1.48 1.48 0 0 1-1.06.31 1.94 1.94 0 0 1-1.74-.77zM25.91 14.15a11.13 11.13 0 0 1 1.21-.79 8.56 8.56 0 0 1 1.67-.71 2 2 0 0 0-1.85-1.27l-.4-.1c-.06 0-.06 0-.11-.09s-.4-.35-.55-.29a1.35 1.35 0 0 0 0 .52v.42l-.11.26a1.91 1.91 0 0 0 .14 2.05zM33.8 11.15l-.06-.06zM18.63 18.71l-.12.31-.61.28a.4.4 0 0 1-.3.07c-.34.08-.6.19-.67.5s.21.63.58.87c0 0 .38.4.38.42a1.59 1.59 0 0 1 0 .26 2.32 2.32 0 0 1 1.41.14.85.85 0 0 1 .32-.15 2.06 2.06 0 0 1 1.53.48c.13-.27.36-.67.79-.57a1.9 1.9 0 0 1 1.27 1.14c.11-.14.2-.31.36-.36a.76.76 0 0 1 0-.15.93.93 0 0 1 .15-.58l.25-.25a3 3 0 0 1-.56-.7 3.89 3.89 0 0 1-2.72.18 1.42 1.42 0 0 1-.86-1.14 2.73 2.73 0 0 1-1-1.12c-.08.03-.13.13-.2.37zM16.78 22.75c-.25 0-.46 0-.58.2s-.05.36.05.57a.84.84 0 0 1 .06.14l.12.39.31.84a2.86 2.86 0 0 0 1.1 1l1.34-2.24a1.45 1.45 0 0 1-.46-1 1.33 1.33 0 0 1 .13-.52 1.65 1.65 0 0 0-1.56.4l-.24.16zM39.1 19.91l.06-.05a3.67 3.67 0 0 1 1.66-1.1 2.79 2.79 0 0 1-.41-1.37 3.11 3.11 0 0 1-1.27 1.11.62.62 0 0 1 .25.36 1 1 0 0 1 0 .23 1.34 1.34 0 0 1-.25.74zM44.88 21.65v-.11.11zM41.88 21.29c.09.21-1.09.74-2 1a10.85 10.85 0 0 0-1.2.52 3.47 3.47 0 0 0-.87.91 5.81 5.81 0 0 0 2 .48v-.19a.65.65 0 0 1 .34-.58l.65.05a2.14 2.14 0 0 0 1.72 0l-.1-.15-.22-.52c0-.11-.11-.11-.05-.21s.09 0 .2-.05l.67-.05a3.61 3.61 0 0 0 .75.06.29.29 0 0 1 .18 0 .42.42 0 0 0 .34-.25l-.06-.3-.13-.46c0-.31.27-.45.53-.58.53-.27.76-.45.56-.94-.08-.2-.77-.05-1.06 0h-.73l-.3-.39a.37.37 0 0 0-.25-.27c-.14-.05-.53.21-.69.32s-.52.35-.78.24l-.34-.35-.1-.11c-.1-.05-.41.06-1.29.9l-.66.48a.51.51 0 0 1-.45-.31c-.38.07-.85 1.07-1.12 1.91.48-.19 1.55-.6 2.26-.83.9-.29 2.12-.54 2.2-.33zM19.85 16.08l-.3.06h-.5v.12l.09.46a2.42 2.42 0 0 0 1.13 2.15s.15 0 .41-.28a6.14 6.14 0 0 0 1.35-2.45 4.07 4.07 0 0 0-2.18-.06zM51.52 15.63l-.27.18a1.17 1.17 0 0 1 .64 1.09v.1c-.08 1-1.63 1.07-2.63 1.06a1.37 1.37 0 0 1 .22.68 1 1 0 0 1-.06.33c-.49 1.17-2.48 1.1-3.44 1.06a1.1 1.1 0 0 1 0 .18 1.06 1.06 0 0 1-.07.37 1.2 1.2 0 0 1 .59.24.67.67 0 0 1 .09.14 4.84 4.84 0 0 1 2.34.22c.15-.21.41-.19.69-.15.61.06 1 .05 1.09-.23v-.19A.76.76 0 0 1 51 20c.25-.19.62-.11 1.18 0s1.49.33 1.68 0c0-.06-.1-.27-.18-.4a.84.84 0 0 1-.21-.8l.42-.34c.76-.39 1.1-.73.78-1.45-.15-.33-.44-.31-1.08-.12-.37.1-.88.25-1.07-.21v-.58-.45c0-.08-.2-.16-.65-.2zM40.11 16.4l.33.34a2.3 2.3 0 0 1 .29-.85 2.1 2.1 0 0 1 1.84-1.06 3.1 3.1 0 0 1 2-.41 3 3 0 0 1 1-1.21.71.71 0 0 0-.34-.57c-.35-.28-.76-.08-1.3.23a1.18 1.18 0 0 1-.88.27 2.74 2.74 0 0 1-.37-.35 2.35 2.35 0 0 0-.49-.7l-.49.27a1 1 0 0 1 .11.89 2 2 0 0 1-.85 1 1.66 1.66 0 0 1 .12.57 2.25 2.25 0 0 1-.97 1.58zM37.28 12.65a3.15 3.15 0 0 0-.28-1.92l-.06-.2c0-.19-.09-.31-.29-.37s-.39.1-.55.19a2.36 2.36 0 0 1-.23.13 2.78 2.78 0 0 0-1.62 1.42 11.26 11.26 0 0 1 3 .71zM45.81 15.07l-.25.08-.49.1h-.11a2.51 2.51 0 0 0-2.11.27A2.47 2.47 0 0 0 44.8 18a2.2 2.2 0 0 0 .83-1.77 3.16 3.16 0 0 0 0-.35v-.21l.09-.32s.05-.27.09-.28zM38 25.08c.2-.1.29-.15.31-.38a3.67 3.67 0 0 1-.89-.35 9.7 9.7 0 0 0-.65 1.37 8.43 8.43 0 0 0-.35 2.47v.32c.27-.34.59-.71.91-1.07a1.69 1.69 0 0 1 .05-1.89zM43.45 24c.22-.16.37-.28.38-.43v-.06a.37.37 0 0 0 0-.17 3.34 3.34 0 0 1-.65 0c0 .07.1.16.1.23A.6.6 0 0 1 43 24a2.45 2.45 0 0 1-2.39.26h-.1a.83.83 0 0 1-.4.68 2.39 2.39 0 0 1-1.08 0 1.06 1.06 0 0 1-.71.87l-.39.27a.88.88 0 0 0-.07.88 6.49 6.49 0 0 1 1-.84s.59-.36 1.08-.6c.14-.07 1.11-.45 1.25-.21s-.82.8-.94.86a1.9 1.9 0 0 0-.77.56c-.21.42-.44.91-.61 1.3a3.58 3.58 0 0 1 1.13-.15l.5-.15a3.66 3.66 0 0 0 1-.28l.1-.11-.15-.21a.82.82 0 0 1-.25-.5.42.42 0 0 1 .13-.3l.74-.23c.79-.09 1.23-.22 1.27-.64v-.07a.44.44 0 0 0-.17-.35.71.71 0 0 1-.22-.46.62.62 0 0 1 0-.18z" fill="#180d1c"/><path d="M49.59 13.3c-.08-.25-.14-.36-.27-.39-.5-.08-.88.33-1.3.85-.28.33-.52.63-.86.53l-.47-.29c-.24-.19-.4-.3-.65-.23s-.5.37-.69.67a.82.82 0 0 1 .95.08.94.94 0 0 1 .07 1.07 1.09 1.09 0 0 0 0 .22 3.39 3.39 0 0 1 0 .84 9.47 9.47 0 0 1 2.13-1.23c.21.1-.88 1.33-2 2l-.55.35a2.91 2.91 0 0 1-.64.75 1.39 1.39 0 0 1-.15.7.94.94 0 0 1 .49.21h.26c.63 0 2.54.14 2.85-.6.06-.15-.18-.5-.29-.65s-.25-.35-.16-.56.3-.25.75-.24c1.82 0 2.11-.24 2.12-.4 0-.42-.19-.53-.49-.63l-.35-.25c-.13-.1-.07-.14 0-.3a1.89 1.89 0 0 1 .81-.77l.29-.2a.36.36 0 0 1 .14-.1c.47-.36.72-.7.52-1.19a.43.43 0 0 0-.22-.24c-.38-.15-1.11.18-1.42.32l-.45.12c-.29-.04-.37-.28-.42-.44zM49.15 22.33c-.36-.48-1.27-.65-2.6-.51a4.87 4.87 0 0 0-.09 1.82A3.11 3.11 0 0 0 47 25l.09.15c1.64-.31 1.93-1.19 2.07-1.63l.12-.29.32-.29s.23-.19.23-.18-.25-.17-.34-.2a4 4 0 0 1-.34-.23zM35.93 23.15l.22-.1.44-.22a9.14 9.14 0 0 1 .45-1.4 12.08 12.08 0 0 1-1.24.57 6.92 6.92 0 0 1 .13 1.12zM38.67 19h-.14l-.42-.22c-.11-.05-.17 0-.19-.13s0-.09.13-.16l.53-.46c.32-.17 1.28-.69 1.19-1l-.21-.15-.31-.32c-.06-.24.12-.38.26-.49.55-.42 1.06-.95.79-1.6h-.26l-.51-.12c-.23-.14-.25-.4-.28-.74s0-.66-.17-.73-.22-.06-1 .6l-.19.14a.5.5 0 0 1-.48-.06l-.18-.07c-.45 0-.59 1-.64 1.39l-.15.44c-.16.16-.37.16-.62 0a1 1 0 0 1-.13-.09.78.78 0 0 0-.47.39 1.07 1.07 0 0 0-.07.41 4.27 4.27 0 0 0 .37 1.41 1.34 1.34 0 0 1 .13.45.32.32 0 0 1-.2.31l-.29.06a.34.34 0 0 0-.28.12.83.83 0 0 0-.16.54 4.39 4.39 0 0 0 .52 1.73c.07-.2.13-.41.19-.62.22-.71 1.43-2.87 1.74-2.75s-1 2.32-1.16 2.95c-.11.39-.2.75-.26 1.09.97-.47 3.1-1.57 2.92-2.32zM27 21.35a1.5 1.5 0 0 1 .54-1 1.93 1.93 0 0 1-.26-.91 1.24 1.24 0 0 1 .47-1c-.25-.23-.51-.17-.84 0a.51.51 0 0 1-.58 0 .36.36 0 0 1-.11-.16 2.52 2.52 0 0 0-.79-1.19h-.16c-.61.26-.62.91-.59 1.56 0 .3 0 .51-.14.66l-.31.17c-.16.06-.2.09-.22.14-.11.34.18.66.52 1 .2.19.37.36.31.6a7 7 0 0 1-.47.57 1 1 0 0 0 0 .44.32.32 0 0 1 0 .14 3.25 3.25 0 0 1 .8 1.73s.06-.06.1-.07l.54.07a.79.79 0 0 1 .18.14 10.14 10.14 0 0 1-.18-1c-.19-1.59-.08-2.11.13-2.18s.28.53.55 2.18a13.93 13.93 0 0 0 .43 1.84 1.51 1.51 0 0 1 .44.29c.3-.2 1-.73 1-1.19v-.28a2.13 2.13 0 0 1-.08-.52 1.18 1.18 0 0 1 .25-.73c-.53-.13-1.53-.34-1.53-1.3zM31 33.24a3.66 3.66 0 0 0 .05-.72 15.49 15.49 0 0 0-.28-2.61c-.49-2.82-2-3.25-2.71-3.46h-.08a5.36 5.36 0 0 1 .29 1.86v.36c.04 2.22 2.04 4.03 2.73 4.57zM23.23 25.48a14.73 14.73 0 0 0 1.32.92l.09.06A2.44 2.44 0 0 0 26 27v-.2c-.06-1.45-.39-2-.53-2.1a.74.74 0 0 0-.28.3.36.36 0 0 1-.41.18.39.39 0 0 1-.27-.37 2.93 2.93 0 0 0-.66-2.05 1.59 1.59 0 0 0-.34.63.36.36 0 0 1-.7-.07 1.35 1.35 0 0 0-.92-1.26c0 .08-.12.21-.12.21-.08.19-.27.58-.64.43l-.21-.13c-.21-.14-.77-.54-1.13-.46a.39.39 0 0 0-.26.21c-.23.41-.07.66.38 1.06l.34.53c0 .31-.27.45-.45.55s-.28.14-.28.2c0 .31.21.44.87.52l.54.21c.26.32-.07.62-.24.79 0 0-.23.25-.24.15a1.26 1.26 0 0 0 1.17.7h.6c.32 0 .66 0 .72.34l-.23.6s-.13.22-.19.23c.26.4 1.2.37 2.55-.08a3.52 3.52 0 0 0-.82-1.08l-.1-.06c-.39-.24-.86-.57-1.33-.92 0 0-1.09-1-.93-1.2s1.34.62 1.34.62zM31.57 25.27a5.14 5.14 0 0 0 .74 2.47l1.17 2a13.57 13.57 0 0 0 .48-2.16v-.47a7.44 7.44 0 0 0-.17-1.62h-.17a3 3 0 0 1-2.05-.22z" fill="#180d1c"/><path d="M34.85 17.48a4.36 4.36 0 0 1-.38-1.56 1.73 1.73 0 0 1 .12-.64 1 1 0 0 0-.46-.7c-.06 0-.11 0-.33.25s-.37.45-.7.35l-.53-.51c-.46-.62-1-1.22-1.57-1.09s-.51.67-.44 1.53c0 .4.05.68-.32.86-.22.08-.46.19-.48.4a1 1 0 0 0 .52 1l.11.11c.69.16 1.31 1.05 1.61 1.67.33-.22.91-.59 1.38-.19A3.72 3.72 0 0 1 34.2 21a1.83 1.83 0 0 1 .49 0 5 5 0 0 1-.69-2.19 1.49 1.49 0 0 1 .35-1 .9.9 0 0 1 .5-.33z" fill="#180d1c"/><path d="M34.19 23.82a14.42 14.42 0 0 0 .46-2.13h-.31a.79.79 0 0 1-.67-.08.62.62 0 0 1-.16-.36 3.71 3.71 0 0 0-.6-1.78c-.1 0-.43.19-.54.26s-.42.29-.65.21a.49.49 0 0 1-.25-.26c-.24-.71-1-1.63-1.33-1.55s-.36.56-.36.58a.35.35 0 0 1-.24.33.35.35 0 0 1-.4-.11c-.08-.1-.4-.39-.92 0s0 1.22 0 1.25a.37.37 0 0 1 .06.27.35.35 0 0 1-.14.24c-.2.14-.49.44-.49.64s.4.46 1.08.58c.37.06.69.12.75.44a.6.6 0 0 1-.24.53c-.17.16-.34.33-.15.87a.48.48 0 0 0 .26.33c.33.15.92-.11 1.27-.26l.67-.15c.11 0 .13-.06.21 0s0 .1 0 .21a3.47 3.47 0 0 1 0 .51l.28.18a2.35 2.35 0 0 0 1.63.14h.09a3.62 3.62 0 0 0-.13-.35l-.06-.12a4.55 4.55 0 0 0-1-1.35c-.7-.62-1.69-1.29-1.58-1.49s1.21.43 2 1.05a5.52 5.52 0 0 1 .91.87 2.8 2.8 0 0 0 .55.5zM33.89 44.38l.11-.08a1.45 1.45 0 0 0-.32-.86.7.7 0 0 0-.5-.19c-.5 0-.83.44-1 .84a3 3 0 0 1 .44 0 2.61 2.61 0 0 1 1.27.29zM42.06 45.56a2 2 0 0 0-1.58-.82 1.26 1.26 0 0 0-1 .3.38.38 0 0 1-.51.06 1.77 1.77 0 0 0-1.1-.32 2.1 2.1 0 0 0-.79.13c.07.08.15.15.21.23l1.54 2.25a2 2 0 0 0 1.58.82 1.26 1.26 0 0 0 1-.3.37.37 0 0 1 .51-.06 1.76 1.76 0 0 0 1.09.32 2.48 2.48 0 0 0 .82-.13 2.49 2.49 0 0 1-.23-.23zM27.12 44.07h.23a2.61 2.61 0 0 1 1.29.32 1.87 1.87 0 0 1 .63-.28 2.87 2.87 0 0 1 0-.42 3.23 3.23 0 0 0-2.15.38zM19.25 31.36c0-.2.76-.89 1.15-1.18a5.74 5.74 0 0 1 2-1.12 1.15 1.15 0 0 1-.53-.49.54.54 0 0 1-.07-.26 1 1 0 0 1 .2-.53h-.44a.57.57 0 0 0-.45.13l.19.43c.12.2.21.35.14.55a.45.45 0 0 1-.22.23.52.52 0 0 1-.46-.09c-.31-.17-1.15-.64-1.73-.33a.69.69 0 0 1-.13.07l.17.19c.08.08.29.27.29.48a.37.37 0 0 1-.11.26c-.17.2-.41.16-.65.12a1 1 0 0 0-1.13.34c-.28.39-.17.52 0 .75a.63.63 0 0 1 .16.72l-.32.35c-.61.58-.91 1-.59 1.46.18.1 1-.29 1.3-.44l.82-.31a.7.7 0 0 1 .73.65c.07.28.08.29.38.23.76-.15 1-.71 1.18-1.29a2 2 0 0 1 .58-1 .49.49 0 0 1 .45-.11c.26.06.37.3.46.49v.06a5.78 5.78 0 0 0 .93-2.07.47.47 0 0 1 .05-.1 8.31 8.31 0 0 0-1.19.33c-.88.36-3.12 1.67-3.16 1.48zM18.28 29a.72.72 0 0 1-.1-.29v-.08a.83.83 0 0 1 .35-.5 2 2 0 0 1-.63-.38 1.27 1.27 0 0 1-.41-1.25 4.63 4.63 0 0 1-.84-.62 1.13 1.13 0 0 0-1.14 0 1.65 1.65 0 0 0 0 .56c0 .38 0 .78-.25 1s-.65 0-1-.22-.77-.49-1-.34l.05.4v.81l-.61.33c-.23.07-.54.16-.62.31A.48.48 0 0 0 12 29c.13.4.47.45 1.11.42l.71.14.21.58a.73.73 0 0 0 .19.53c.42.38 1.31-.36 1.65-.64l.49-.24c.12-.06.15.08.26.15l.09.06a1.5 1.5 0 0 1 .18-.32 1.56 1.56 0 0 1 1.39-.68zM53.53 25.17l-.35-.08c-.24-.12-.3-.35-.16-.68a.5.5 0 0 0-.11-.66c-.35-.36-1.29.23-1.69.49s-.47.29-.68.2-.25-.27-.3-.46-.12-.35-.22-.4-.1.08-.11.07 0 .11 0 .11a2.77 2.77 0 0 1-.81 1.3c1 .1 2.49.39 2.49.65s-2.52-.1-3.18-.06h-.4c-.18.06-.37.11-.58.16a1.2 1.2 0 0 0 .23.38l.46-.07a1.84 1.84 0 0 1 1.48.08 1.12 1.12 0 0 1 .51.88 1.3 1.3 0 0 1-.14.52 1.89 1.89 0 0 1 .71.49 1.06 1.06 0 0 0 .1-.28l.15-.34c.21-.2.46-.09.79.06s.82.37 1 .28.17-.3.2-.59 0-.48.26-.61h.6c.29 0 .77.15 1 0a.6.6 0 0 0 .22-.44c.06-.54-.34-.83-1.47-1z" fill="#180d1c"/><path d="M14.63 26.61l.08.06v-.2a2.71 2.71 0 0 1 0-.29 1 1 0 0 1 .29-.88l-.45-.07c-.63-.09-2.62-.1-2.62-.37s2.24-.42 3-.3a6 6 0 0 1 1 .25l-.22-.59a2.87 2.87 0 0 0-.13-.38 1.56 1.56 0 0 0-.06-.15c-.47-.69-1.07-1.22-1.34-1.17s-.2.11-.26.38-.11.46-.4.52-.4-.1-.68-.34-.88-.76-1.29-.67c-.15 0-.21 0-.12.57.05.29.11.67-.22.85h-.74c-.3-.07-.72-.16-.92 0 0 0-.13.08-.17.32-.09.53.35.75 1.14 1l.53.25c.22.28 0 .57-.14.74-.3.38-.26.44-.13.56.43.38.8.18 1.27-.14l.52-.24a1.25 1.25 0 0 1 .32 0 1.73 1.73 0 0 1 1.74.29zM39.9 28.59a2.6 2.6 0 0 0-1.41.21.39.39 0 0 1-.39 0 .38.38 0 0 1-.15-.29.13.13 0 0 1 0-.06 4.53 4.53 0 0 1 .35-.93A22.9 22.9 0 0 0 36.17 30a.35.35 0 0 1-.46.11.36.36 0 0 1-.19-.32.3.3 0 0 1 0-.13 5.46 5.46 0 0 0 .18-1.53 9.19 9.19 0 0 1 .41-2.69 8.81 8.81 0 0 1 1.13-2.15c-.28.13-.57.26-.79.38-.66.32-.9.44-1.12.18l-.14-.76a2.51 2.51 0 0 1 0-.3c-.08.38-.2.86-.37 1.47a.36.36 0 0 1-.45.24.34.34 0 0 1-.17-.11 7.57 7.57 0 0 1 .46 2.61v.51c0 .15-.45 3.14-1 3.3a.35.35 0 0 1-.4-.15l-.53-.89-1-1.72a6.21 6.21 0 0 1-.85-3.46v-.07a2.23 2.23 0 0 1-1.7.21c-.05 0-.08-.07-.12-.09a3.13 3.13 0 0 1-.86 1l.18.06c.73.21 2.65.76 3.23 4a17.86 17.86 0 0 1 .29 2.74 2.13 2.13 0 0 1-.42 1.56.49.49 0 0 1-.4.11c-.23-.05-3.58-2.33-3.49-5.56.06-2.21-.73-2.8-.93-2.82a8.24 8.24 0 0 1 .11 1.08.86.86 0 0 1-.39.86 1 1 0 0 1-.69 0 1.38 1.38 0 0 1 .18.58.62.62 0 0 1 0 .13.63.63 0 0 1-.42.45 8.62 8.62 0 0 1-1.11.31c1.79.64 3.3 3.07 3.54 3.67.11.29.8 1.39 1.35 2.27 1.21 1.94 1.24 2 1.22 2.23a6 6 0 0 1-3 4.77l-.57.29a33.46 33.46 0 0 0-3.55 2l.11.06a2.06 2.06 0 0 1 1.23-.43 2.73 2.73 0 0 1 1.3.36.22.22 0 0 1 0-.13c.76-1.44 2.55-1.39 3.33-1.29a2.8 2.8 0 0 1 .25-.72c.12-.24.28-.51.44-.8A17 17 0 0 1 31.37 39c.19 0 .14 1.38-.71 2.84-.16.27-.31.54-.43.76a2.45 2.45 0 0 0-.23.83v.07a3.55 3.55 0 0 0 0 .5 2.74 2.74 0 0 1 1.24.36h.05a.2.2 0 0 0 0-.07c.39-1.12 1.09-1.76 1.91-1.76a1.39 1.39 0 0 1 1 .41 2 2 0 0 1 .5 1.12 2 2 0 0 1 .44 0 2.68 2.68 0 0 1 1.35.39 2.54 2.54 0 0 1 1.4-.35 2.64 2.64 0 0 1 1.11.2v-.12c-.26-.7-.83-.94-1.55-1.25a4.46 4.46 0 0 1-2.85-2.71 10.59 10.59 0 0 1-.56-3.06 10.36 10.36 0 0 1 .28-3 12.18 12.18 0 0 1 .45 2.94 9.77 9.77 0 0 0 .5 2.86 3.77 3.77 0 0 0 2.46 2.31 3.09 3.09 0 0 1 1.84 1.41l.19.43a2.55 2.55 0 0 1 2 .29 2.6 2.6 0 0 1 1-.31 8.07 8.07 0 0 0-2.67-1.37l-.3-.13c-2.58-1.08-3.21-2.19-3.67-3v-.1c-.47-.81-1.4-5.24.49-8.14a6.9 6.9 0 0 1 3.31-2.73zM49.63 28.35c-.2-.09-.38-.17-.45-.38l.1-.63c.1-.22.14-.29-.16-.54-.12-.09-.64 0-.88.07l-.83.05a1 1 0 0 1-.45-.39l-.15.09a3.93 3.93 0 0 1-3.14-.28 2.87 2.87 0 0 1-1.47.48h-.09c.06.13.15.32.2.45a2.75 2.75 0 0 1 2 .11.65.65 0 0 1 .27.55 1.85 1.85 0 0 1 0 .23l.47.07c.89.11 1.45.19 1.69.5a.72.72 0 0 1 .16.46 1.19 1.19 0 0 1-.17.54l.23.08a4.36 4.36 0 0 1 .58.19h.27a1 1 0 0 0 .68 0s.06-.05.08-.23l.21-.51.64-.1c.43.05.56 0 .63-.13.17-.36.06-.48-.42-.68z" fill="#180d1c"/><path d="M47.49 32l-.37-.46a.43.43 0 0 1 0-.11.73.73 0 0 1 .29-.52s.09-.11.12-.12a2.59 2.59 0 0 0-.74-.29c-.41-.11-.68-.19-.78-.43a.46.46 0 0 1 0-.19.88.88 0 0 1 .14-.43.89.89 0 0 0 .1-.26A4.64 4.64 0 0 0 45 29c-.75-.08-1.09-.12-1.14-.49v-.37a1.13 1.13 0 0 1 0-.15 3.92 3.92 0 0 0-2.42.31 12.75 12.75 0 0 1 1.43.87c.45.34 1.12 1.16.92 1.33s-1-.45-1.35-.74a8.79 8.79 0 0 0-1.85-.9 5.4 5.4 0 0 0 .6 2.13.54.54 0 0 1 .61-.2c.22.08.31.3.49.74s.53 1.29.88 1.34.38-.06.46-.23a.48.48 0 0 1 .51-.33l.48.34c.22.23.59.62.87.61a.62.62 0 0 0 .48-.29.65.65 0 0 1 .49-.3l.32.07c.46.16.73.18.92-.1a.29.29 0 0 0 .07-.18c.06-.15-.03-.25-.28-.46zM36.25 3.83a.71.71 0 0 1 .85.28 2 2 0 0 1 .37 1.15 2.75 2.75 0 0 1-.68 1.67.88.88 0 0 1 .72.55.75.75 0 0 1 .05.31A3.34 3.34 0 0 1 37.21 9 1.25 1.25 0 0 1 38 9a.94.94 0 0 0 0-.1c.2-.57.54-1.53 1.32-1.82h.46a.73.73 0 0 0 0-.3.15.15 0 0 0-.15-.08.36.36 0 0 1-.2-.7c.44-.28 1.2-1 1-1.29a.87.87 0 0 0-.73-.51l-.35-.2c-.19-.15-.16-.37-.13-.65.08-.67.05-1.06-.34-1.16s-.79.29-1.15.77c-.22.3-.41.55-.73.49l-.43-.29a1.09 1.09 0 0 0-.33-.16 3.68 3.68 0 0 1 .06.56 2.87 2.87 0 0 1-.05.27z" fill="#180d1c"/><path d="M32.71 7.5a1.61 1.61 0 0 1 .77 1.4 3.59 3.59 0 0 1-.41 1.47H33.64c.07-.28.35-1.3.56-2.27a7.47 7.47 0 0 1 .47-1.88c.28 0 .27.74.16 1.71a20.06 20.06 0 0 1-.5 2.58 4.76 4.76 0 0 1 1.36-.81 2.79 2.79 0 0 1 .43-.23 4 4 0 0 0 .73-1.78c0-.1-.19-.12-.46-.12a.55.55 0 0 1-.56-.24c-.11-.23 0-.41.2-.61.54-.66 1-1.44.48-2.27a1.07 1.07 0 0 0-.36.14.46.46 0 0 1-.57 0 .42.42 0 0 1-.09-.44 2.29 2.29 0 0 0-.1-1.61.75.75 0 0 0-.58-.37c-.31 0-.56.75-.7 1.18s-.22.67-.42.79h-.71c-.21-.06-.35-.09-.47 0-.36.21.1 1.08.37 1.6s.39.74.25 1a.51.51 0 0 1-.35.2 1 1 0 0 0-.79.29.5.5 0 0 0-.08.2.69.69 0 0 1 .8.07zM40 8.05c0-.12-.11-.34-.18-.37h-.19c-.47.17-.75 1-.9 1.39s-.22.61-.52.61H38a.56.56 0 0 0-.63.14 1.58 1.58 0 0 1 .27.54.79.79 0 0 0 0 .12 3.85 3.85 0 0 1 .36 1.38 6.37 6.37 0 0 1 .67-.78c.66-.64 1.46-1.19 1.63-1s-.52.77-1.08 1.4l-.5.61a.82.82 0 0 1 .67 0c.47.25.52.86.55 1.3v.18h.1a1.87 1.87 0 0 1 .32 0c.2-.11.61-.38.7-.66s0-.28-.12-.43a.54.54 0 0 1-.14-.46.54.54 0 0 1 .27-.29 5.93 5.93 0 0 0 .84-.42.26.26 0 0 1 .13-.08c.45-.3.65-.56.66-.72s-.08-.33-.25-.46a.66.66 0 0 1-.37-.54l.48-.51c.26-.22.64-.57.65-.87a.56.56 0 0 0-.21-.41.87.87 0 0 0-.63-.33c-.43 0-.87.48-1.15.8l-.67.46c-.37 0-.49-.36-.55-.6zM43.27 12.39l.29-.14a2.15 2.15 0 0 1 1.68-.4 3.27 3.27 0 0 1 .76-.46c.68-.3 1.48-.6 1.59-.46s-.58.59-1.21 1a5.42 5.42 0 0 0-.53.35 1.36 1.36 0 0 1 .42.8 1.57 1.57 0 0 1 .86.4l.12.08.21-.23c.38-.47 1-1.26 2-1.1a1.69 1.69 0 0 0-.2-.66.45.45 0 0 1 0-.28.43.43 0 0 1 .18-.22c.26-.13.81-.52.88-.86a.36.36 0 0 0-.09-.29c-.34-.4-.85-.27-1.39-.09l-.58.07-.34-.38a.59.59 0 0 0-.45-.41c-.27-.06-.8.41-1.09.66l-.72.42-.66-.38a3.15 3.15 0 0 1-.28-.25 2.55 2.55 0 0 0-.79.81l-.31.31h-.2a1.54 1.54 0 0 1-.67 1 3.55 3.55 0 0 1 .52.71zM15.34 20.83c.31.42 0 1-.26 1.3a4.4 4.4 0 0 1 .5.46 1.44 1.44 0 0 1 1.26-.59 3.7 3.7 0 0 1 .36-.27.21.21 0 0 0 0-.12 1.2 1.2 0 0 0 0-.2h-.08a1.68 1.68 0 0 1-.93-1.41 1.22 1.22 0 0 1 0-.32 1.29 1.29 0 0 1 .77-.9 4.11 4.11 0 0 1-.21-.68 2.13 2.13 0 0 1-.08-.38l-.46.14c-.39.14-.79.29-1.08 0L15 17.6l-.54-.7a1.36 1.36 0 0 0-1.23-.44c-.14.06-.17.2-.13.6 0 .22.06.49-.19.63h-.51c-.52-.15-.8-.15-1 .26a.77.77 0 0 0 0 .72c.26.49 1.18.73 1.51.79a.36.36 0 0 1 .3.27.4.4 0 0 1-.14.38 1 1 0 0 0-.38.51l.09.23c.12.14.35.07.86-.14s1.2-.53 1.7.12z" fill="#180d1c"/><path d="M29.65 7.23c-.37.1-.33.78-.27 1.4 0 .4.06.64-.11.81a.64.64 0 0 1-.59.12c-.22 0-.26 0-.35.14s.17.61.75 1.29c.24.27.34.39.31.58a.55.55 0 0 1-.22.32 4.42 4.42 0 0 1 .35.62.65.65 0 0 1 .4.21 1.72 1.72 0 0 1 .29.52 1.2 1.2 0 0 1 .51-.32c-.06-.26-.14-.6-.19-1-.13-.88-.15-1.86 0-1.9s.45 1 .66 1.87c.09.39.19.73.26 1a2 2 0 0 1 1 .52 1.57 1.57 0 0 1 .31-1 1.31 1.31 0 0 1 .72-.42 2.63 2.63 0 0 1 .34-.78h-.41c-.41 0-1 0-1.12-.54l.15-.53c.42-.88.55-1.52-.11-2l-.33.19c-.15.16-.33.35-.59.29L31 8.21c-.31-.39-.85-1.11-1.35-.98z" fill="#180d1c"/><path d="M24.82 10.13l-.43.68c-.16.14-.26.24-.26.33s.15.19 1.05.32c-.06-.38-.13-1 .4-1.21a1 1 0 0 1 .94.11 5.83 5.83 0 0 0-.42-.82c-.24-.38-.9-1.18-.68-1.43s1.12.74 1.4 1.22a6.57 6.57 0 0 1 .6 1.38 2.53 2.53 0 0 1 .7.22 2.12 2.12 0 0 1-.52-1.17.72.72 0 0 1 .08-.35.89.89 0 0 1 1-.57 1 1 0 0 1 0-.14 6.56 6.56 0 0 1 0-.68 2.7 2.7 0 0 1 0-.49.52.52 0 0 0-.65 0 .49.49 0 0 1-.47.11c-.24-.1-.25-.3-.26-.64 0-.49-.06-1.79-.65-1.88-.14 0-.33.32-.44.52s-.29.53-.58.55-.39-.14-.63-.42c-.71-.78-1.25-1.14-1.9-.69-.48.34-.14 1.13.26 1.86l.16.56a.6.6 0 0 1-.41.35c-.28.12-.5.22-.53.46-.07.64.6.88 1.41 1.12.44.18.85.3.83.7zM15.42 17l-.5-.64a1.82 1.82 0 0 1 .68-.4.43.43 0 0 0 .39-.27c.08-.31-.17-.42-.45-.55-1.47-.68-1.68-1.08-1.6-1.3s.29-.24.47-.33l.41-.26c.16-.18.12-.42 0-.77-.15-.79-.17-1.28.24-1.45.19-.08.37.09.68.47l.55.46c.41.1.62-.31.78-.61a1.69 1.69 0 0 1 .29-.43c.28 0 .42.93.48 1.32s.12.78.41.87.63-.18.78-.36.2-.23.24-.22c.26.08.3.75.32 1.15s.05.77.28.94a.76.76 0 0 0 1-.07 2.14 2.14 0 0 0 1.36.44h.33a1.29 1.29 0 0 1-.11.46 4.67 4.67 0 0 0-2.73-.11h-.47l-.74.28v.06a6.39 6.39 0 0 1-1.2-1.11c-.59-.73-.86-1.6-1.07-1.51-.44.16.12 1.32.43 1.76a7.32 7.32 0 0 0 1.85 1.74 4 4 0 0 0 .12.95 1.2 1.2 0 0 0-.65.87v.05H17.78a2.36 2.36 0 0 1-.28-.43 1.41 1.41 0 0 0-.39-.85c-.31-.24-.71-.09-1.1.06l-.41.13z" fill="#180d1c"/><path d="M21.55 12.61l-.19.66-.14.39c0 .45.25.54 1 .59.4 0 .86.05 1 .46a1.34 1.34 0 0 1 0 .63h.14a2.06 2.06 0 0 1 1.3 1.22 1.31 1.31 0 0 1 .31-.17h.74a2.63 2.63 0 0 1 1.06 1.31 1.26 1.26 0 0 1 1.63.38 1.27 1.27 0 0 1 .81.07 1.23 1.23 0 0 1 .36-.5 1.63 1.63 0 0 1-.5-1 3.23 3.23 0 0 1-2.55 0 2.18 2.18 0 0 1-1.31-1.3.75.75 0 0 1 .15-.67 2.77 2.77 0 0 1-.36-2.51c-.75-.11-1.49-.31-1.58-.92h-.14l-.63-.25c-.69-.44-1.32-.77-1.87-.17-.27.29-.1.59.39 1.15zM26.73 4.45C27.82 4.61 28 6 28 6.79a1.17 1.17 0 0 1 1 .08.93.93 0 0 1 .51-.33 1.31 1.31 0 0 1 .94.12 6.59 6.59 0 0 0 .06-2.14.88.88 0 0 0-.33.25.36.36 0 0 1-.42.09.36.36 0 0 1-.22-.37c.08-.7 0-1.74-.36-1.85s-.34 0-.42.1c-.19.34-.43.31-.55.27l-.37-.36c-.3-.37-1-1.25-1.48-1s0 1.06.14 1.53.24.61.1.81a.64.64 0 0 1-.6.21c-.37 0-.47.08-.51.25a.78.78 0 0 0 .22.63 1.08 1.08 0 0 1 1.02-.63zM33.8 11.15l-.06-.07.07.06zM44.88 21.65a.82.82 0 0 1 0-.11c-.02.07 0 .1 0 .11z" fill="#180d1c"/><path d="M38.49 120c0 .29-.84.41-1.34.39-.74 0-1.48-.12-1.43-.45s.72-.24 1.43-.21c.47 0 1.28 0 1.34.27z" fill="#180d1c" fill-rule="evenodd"/><path d="M18 91.74h-.36a.34.34 0 0 1-.27-.13 3.1 3.1 0 0 0-2.09-1 5.7 5.7 0 0 0-2.3.63 4.92 4.92 0 0 1-1.9.54H9.25a.36.36 0 0 1-.36-.36V81.2l-.8.52v10.34h8.11a.36.36 0 0 1 .26.11 2.46 2.46 0 0 0 1.37.67h.36a2.44 2.44 0 0 0 1.33-.66.38.38 0 0 1 .26-.11h8.12V81.72l-.81-.52v10.18a.36.36 0 0 1-.36.36h-1.82A4.92 4.92 0 0 1 23 91.2a5.7 5.7 0 0 0-2.3-.63 3.1 3.1 0 0 0-2.09 1 .34.34 0 0 1-.27.13H18z" fill="#180d1c"/><path d="M28.62 92.42a.36.36 0 0 1-.36.36h-8.34a3.07 3.07 0 0 1-1.65.77h-.51a3.12 3.12 0 0 1-1.71-.78H7.72a.36.36 0 0 1-.36-.36V81.86h-.74V93.6H16a.34.34 0 0 1 .27.12 2.24 2.24 0 0 0 1.21.62 4.18 4.18 0 0 0 1.06 0 2.16 2.16 0 0 0 1.16-.61.37.37 0 0 1 .3-.13h9.38V81.86h-.74v10.56z" fill="#180d1c"/><path d="M15.05 79.31a3.8 3.8 0 0 0-2.53.93 2.51 2.51 0 0 1-1.47.64H9.61V91h1.46a4.33 4.33 0 0 0 1.61-.48 6.27 6.27 0 0 1 2.59-.69 3.52 3.52 0 0 1 2.36 1V80.58s-.39-1.27-2.58-1.27zm1.17 8.51c0 .09 0 .1-.12.13a4 4 0 0 0-1.56 0l-1.12.45-.59.28a4.39 4.39 0 0 1-1.63.41.15.15 0 0 1-.2-.09.15.15 0 0 1 .15-.17 4.13 4.13 0 0 0 1.51-.38l.58-.28 1.18-.47a4 4 0 0 1 1.71 0c.12 0 .11.04.09.12zm0-2.16c0 .09 0 .1-.12.13a4 4 0 0 0-1.56 0l-1.12.45-.59.28a4.39 4.39 0 0 1-1.63.48.15.15 0 0 1-.16-.15.16.16 0 0 1 .15-.17 4.13 4.13 0 0 0 1.51-.38l.58-.28 1.18-.47a4.35 4.35 0 0 1 1.71 0c.08-.01.07.03.05.11zm0-2.12c0 .09 0 .09-.12.13a4 4 0 0 0-1.56 0l-1.12.45-.59.28a4.88 4.88 0 0 1-1.63.41.16.16 0 0 1-.16-.15.15.15 0 0 1 .15-.17 4.37 4.37 0 0 0 1.51-.38l.58-.28 1.18-.48a4.35 4.35 0 0 1 1.71-.05c.08.11.07.15.05.24zm0-2.15c0 .09 0 .09-.12.13a3.94 3.94 0 0 0-1.56 0l-1.12.48-.59.29a4.88 4.88 0 0 1-1.63.41.16.16 0 0 1-.16-.16.14.14 0 0 1 .15-.16A4.24 4.24 0 0 0 12.7 82l.58-.27 1.18-.48a4.35 4.35 0 0 1 1.71 0c.08.01.07.05.05.14z" fill="#180d1c"/><path d="M18.35 91.74h-.72a.34.34 0 0 1-.27-.13 3.1 3.1 0 0 0-2.09-1 5.7 5.7 0 0 0-2.3.63 4.92 4.92 0 0 1-1.9.54H9.25a.36.36 0 0 1-.36-.36V81.2l-.8.52v10.34h8.11a.36.36 0 0 1 .26.11 2.46 2.46 0 0 0 1.37.67h.36a2.44 2.44 0 0 0 1.33-.66.38.38 0 0 1 .26-.11h8.12V81.72l-.81-.52v10.18a.36.36 0 0 1-.36.36h-1.82A4.92 4.92 0 0 1 23 91.2a5.7 5.7 0 0 0-2.3-.63 3.1 3.1 0 0 0-2.09 1 .34.34 0 0 1-.26.17z" fill="#180d1c"/><path d="M29.36 81.86h-.74v10.56a.36.36 0 0 1-.36.36h-8.33a3.15 3.15 0 0 1-1.65.77h-.52a3.12 3.12 0 0 1-1.7-.77H7.72a.36.36 0 0 1-.36-.37V81.86h-.74V93.6H16a.36.36 0 0 1 .28.12 2.13 2.13 0 0 0 1.2.62 4.18 4.18 0 0 0 1.06 0 2.16 2.16 0 0 0 1.16-.61.37.37 0 0 1 .3-.13h9.38z" fill="#180d1c"/><path d="M24.93 80.88a2.51 2.51 0 0 1-1.47-.64 3.8 3.8 0 0 0-2.53-.93c-2.19 0-2.58 1.25-2.58 1.21v10.34a3.57 3.57 0 0 1 2.36-1 6.31 6.31 0 0 1 2.59.7 4.33 4.33 0 0 0 1.61.48h1.45V80.88zm-.17 8.24a4.54 4.54 0 0 1-1.62-.41l-.6-.28-1.12-.43a4.14 4.14 0 0 0-1.56 0 .16.16 0 0 1-.19-.13.15.15 0 0 1 .12-.18 4.25 4.25 0 0 1 1.71 0l1.18.48.59.28a4.34 4.34 0 0 0 1.5.38.15.15 0 0 1 .15.17.16.16 0 0 1-.16.12zm0-2.13a4.32 4.32 0 0 1-1.62-.41l-.6-.28-1.12-.45a4 4 0 0 0-1.56 0 .15.15 0 0 1-.19-.12.16.16 0 0 1 .12-.19 4.35 4.35 0 0 1 1.71.05l1.18.47.59.28a4.1 4.1 0 0 0 1.5.38.16.16 0 0 1 .15.17.14.14 0 0 1-.16.11zm0-2.14a4.79 4.79 0 0 1-1.62-.41l-.6-.28-1.12-.45a4 4 0 0 0-1.56 0 .17.17 0 0 1-.19-.12.16.16 0 0 1 .13-.19 4 4 0 0 1 1.7 0l1.18.48.59.28a4.1 4.1 0 0 0 1.5.38.17.17 0 0 1 .16.17.16.16 0 0 1-.17.14zm0-2.14a4.79 4.79 0 0 1-1.62-.41l-.6-.29-1.12-.45a3.94 3.94 0 0 0-1.56 0c-.11 0-.15-.06-.17-.15s0-.12.11-.17a4.29 4.29 0 0 1 1.7 0l1.19.48.58.27a4.25 4.25 0 0 0 1.5.39.16.16 0 0 1 .16.16.17.17 0 0 1-.17.17zM47.12 91.74h.35a.34.34 0 0 0 .27-.13 3.1 3.1 0 0 1 2.09-1 5.8 5.8 0 0 1 2.31.63 4.83 4.83 0 0 0 1.89.54h1.82a.36.36 0 0 0 .36-.36V81.19l.81.53v10.34H48.9a.38.38 0 0 0-.26.11 2.37 2.37 0 0 1-1.33.66H47a2.46 2.46 0 0 1-1.37-.67.36.36 0 0 0-.26-.11H37.2V81.72l.81-.53v10.19a.36.36 0 0 0 .36.36h1.82a4.92 4.92 0 0 0 1.9-.54 5.7 5.7 0 0 1 2.3-.63 3.1 3.1 0 0 1 2.09 1 .34.34 0 0 0 .27.13h.37z" fill="#180d1c"/><path d="M57.74 92.42a.36.36 0 0 1-.36.36H49a3.07 3.07 0 0 1-1.65.77h-.51a3.12 3.12 0 0 1-1.71-.78h-8.29a.36.36 0 0 1-.36-.36V81.86h-.74V93.6h9.38a.34.34 0 0 1 .27.12 2.24 2.24 0 0 0 1.21.62 4.18 4.18 0 0 0 1.06 0 2.16 2.16 0 0 0 1.16-.61.37.37 0 0 1 .28-.13h9.38V81.86h-.74v10.56z" fill="#180d1c"/><path d="M47.47 91.74h-.72a.34.34 0 0 1-.27-.13 3.1 3.1 0 0 0-2.09-1 5.7 5.7 0 0 0-2.3.63 4.92 4.92 0 0 1-1.9.54h-1.82a.36.36 0 0 1-.36-.36V81.19l-.81.53v10.34h8.12a.36.36 0 0 1 .26.11 2.46 2.46 0 0 0 1.37.67h.36a2.44 2.44 0 0 0 1.33-.66.38.38 0 0 1 .26-.11H57V81.72l-.81-.53v10.19a.36.36 0 0 1-.36.36H54a4.83 4.83 0 0 1-1.89-.54 5.8 5.8 0 0 0-2.31-.63 3.1 3.1 0 0 0-2.09 1 .34.34 0 0 1-.24.17z" fill="#180d1c"/><path d="M58.48 81.86h-.74v10.56a.36.36 0 0 1-.36.36H49a3.07 3.07 0 0 1-1.65.77h-.51a3.2 3.2 0 0 1-1.71-.77h-8.29a.36.36 0 0 1-.36-.37V81.86h-.74V93.6h9.38a.34.34 0 0 1 .27.12 2.24 2.24 0 0 0 1.21.62 4.18 4.18 0 0 0 1.06 0 2.16 2.16 0 0 0 1.16-.61.37.37 0 0 1 .28-.13h9.38z" fill="#180d1c"/><path d="M44.17 79.31a3.8 3.8 0 0 0-2.53.93 2.51 2.51 0 0 1-1.48.64h-1.43V91h1.46a4.33 4.33 0 0 0 1.61-.48 6.31 6.31 0 0 1 2.59-.69 3.52 3.52 0 0 1 2.36 1V80.58s-.39-1.27-2.58-1.27zm-3.88 3.08a4.25 4.25 0 0 0 1.5-.39l.58-.27 1.18-.48a4.35 4.35 0 0 1 1.71 0 .21.21 0 0 1 .12.2c0 .09-.07.1-.18.12a3.8 3.8 0 0 0-1.57 0l-1.12.43-.59.29a4.79 4.79 0 0 1-1.62.41.17.17 0 0 1-.17-.16.16.16 0 0 1 .16-.15zm0 2.14a4.34 4.34 0 0 0 1.5-.38l.59-.28 1.17-.47a4.23 4.23 0 0 1 1.71-.06.17.17 0 0 1 .13.2.17.17 0 0 1-.19.12 4 4 0 0 0-1.57 0l-1.11.44-.6.29a4.79 4.79 0 0 1-1.62.41.16.16 0 0 1-.17-.15.17.17 0 0 1 .16-.12zM45.2 88a4 4 0 0 0-1.57 0l-1.11.45-.6.29a4.79 4.79 0 0 1-1.62.41.17.17 0 1 1 0-.33 4.1 4.1 0 0 0 1.5-.38l.58-.27 1.18-.48a4.35 4.35 0 0 1 1.71-.05s.08 0 .07.19-.07.1-.14.17zm0-2.15a4 4 0 0 0-1.57 0l-1.12.45-.59.28a4.32 4.32 0 0 1-1.62.42.16.16 0 0 1-.17-.15.17.17 0 0 1 .16-.17 4.14 4.14 0 0 0 1.5-.38l.58-.28 1.18-.47a4.35 4.35 0 0 1 1.71-.05.16.16 0 0 1 .13.19.17.17 0 0 1-.19.11zM49.83 89.84a3.57 3.57 0 0 0-2.36 1V80.52s.39-1.21 2.58-1.21a3.8 3.8 0 0 1 2.53.93 2.51 2.51 0 0 0 1.48.64h1.43V91H54a4.33 4.33 0 0 1-1.61-.48 6.27 6.27 0 0 0-2.56-.68zm-.94-6.5a.16.16 0 0 0-.12.19.15.15 0 0 0 .18.13 4 4 0 0 1 1.57 0l1.12.45.59.28a4.84 4.84 0 0 0 1.62.41.16.16 0 1 0 0-.32 4.39 4.39 0 0 1-1.5-.38l-.58-.28-1.18-.48a4.35 4.35 0 0 0-1.7 0zm0-2.21a.16.16 0 0 0-.12.19.15.15 0 0 0 .18.13 3.8 3.8 0 0 1 1.57 0l1.11.45.6.29a4.79 4.79 0 0 0 1.62.41.17.17 0 0 0 .17-.16.16.16 0 0 0-.16-.16 4.51 4.51 0 0 1-1.5-.39l-.59-.28-1.17-.47a4.35 4.35 0 0 0-1.71-.01zm0 4.36a.15.15 0 0 0-.12.19.15.15 0 0 0 .18.12 4 4 0 0 1 1.57 0l1.12.45.59.28a4.32 4.32 0 0 0 1.62.41.15.15 0 0 0 .17-.15.17.17 0 0 0-.16-.17 4.14 4.14 0 0 1-1.5-.38l-.58-.24-1.18-.47a4.19 4.19 0 0 0-1.71-.04zm0 2.14a.15.15 0 0 0-.12.19.16.16 0 0 0 .23.18 4 4 0 0 1 1.57 0l1.11.45.6.28a4.32 4.32 0 0 0 1.62.41.15.15 0 0 0 .1-.14.17.17 0 0 0-.16-.17 4.14 4.14 0 0 1-1.5-.38l-.58-.28-1.18-.47a4.37 4.37 0 0 0-1.69-.07zM25.24 111.6a2.35 2.35 0 0 0-.5-.45 1.24 1.24 0 0 1-.6.44l-.6.14c-.67.11-1.59.27-1.87 1a2.09 2.09 0 0 0-.17.83 1.68 1.68 0 0 0 .18.79l.28-.13c-.19-.75.21-1.48.32-1.42s0 .46.09.79a1.52 1.52 0 0 0 .09.33.91.91 0 0 0 .3-.26 1 1 0 0 1 .89-1l.42.13c.4.17 1.34.57 1.7.23a7.69 7.69 0 0 0-.53-1.42zM35.73 115.13c-.08 0-.15-.11-.23-.15-.47 0-2.59-.35-2.91-.42a2 2 0 0 0-1 .23 2.44 2.44 0 0 0-1.22 1.14l.33.22a2 2 0 0 1 1-.83 2.06 2.06 0 0 1 1.29-.11c.17.08-.54.28-1.08.65a2.14 2.14 0 0 0-.54.61h.05a2.4 2.4 0 0 0 .78-.13l.75-.17h5.16a1.8 1.8 0 0 0 .15-.37 7.81 7.81 0 0 1-2.53-.67z" fill="#180d1c"/><path d="M37 121.62c.07.29-1 .41-1.61.39-.89 0-1.78-.12-1.72-.45s.87-.24 1.72-.21c.57 0 1.55 0 1.61.27zm-1.61 1.64c-.06-.27-1-.24-1.52-.26-.8 0-1.56-.11-1.62.2s.78.4 1.62.43c.57 0 1.57-.09 1.52-.37zm-1.8 1.7c0-.24-.73-.22-1.13-.23-.59 0-1.16-.1-1.2.18s.58.34 1.2.37c.43 0 1.17-.08 1.13-.32zm-14.44-20.24l-.2.06a.37.37 0 0 0-.23.46.37.37 0 0 0 .46.23l.19-.07a.35.35 0 0 0 .23-.45.35.35 0 0 0-.45-.23zm11.16-3.08a.26.26 0 0 0-.29-.09l-2 .67a.4.4 0 0 0-.15.52.42.42 0 0 0 .5.24l1.86-1a.22.22 0 0 0 .07-.31zm.3 1.77a.28.28 0 0 0-.28-.14l-1.54.23a.4.4 0 0 0-.24.49.44.44 0 0 0 .45.33l1.48-.61a.24.24 0 0 0 .13-.3zm0 1.9a.29.29 0 0 0-.25-.19l-1.21-.05a.37.37 0 0 0-.28.4.4.4 0 0 0 .36.36l1.21-.25a.23.23 0 0 0 .17-.27zm-.29 1.76a.22.22 0 0 0-.2-.19l-.91-.21a.32.32 0 0 0-.21.33.34.34 0 0 0 .27.37l.95-.07c.09 0 .19-.11.18-.22zm7.68-6.23a.38.38 0 0 0 .27.44s1 .31 1.86.65a.3.3 0 0 0 .39-.12.3.3 0 0 0-.12-.4 16 16 0 0 0-2-.84.38.38 0 0 0-.44.27zm.45 1.67a.34.34 0 0 0 .24.4 13.66 13.66 0 0 1 1.4.46.26.26 0 0 0 .35-.11.25.25 0 0 0-.11-.35 9.38 9.38 0 0 0-1.49-.64.33.33 0 0 0-.39.24zm.15 1.54a.26.26 0 0 0 .2.31s.72.22 1 .33a.25.25 0 0 0 .32-.11.24.24 0 0 0-.1-.32 2.84 2.84 0 0 0-1.07-.41.28.28 0 0 0-.32.2zm0 1.37a.23.23 0 0 0 .18.28s.43.1.63.17a.25.25 0 0 0 .29-.09.22.22 0 0 0-.09-.29 2.57 2.57 0 0 0-.72-.25.28.28 0 0 0-.29.18zm3.43-2a.36.36 0 0 0 .13.49 6.69 6.69 0 0 1 1.09.77.31.31 0 0 0 .42 0 .29.29 0 0 0 0-.41 6.87 6.87 0 0 0-1.13-1 .37.37 0 0 0-.5.13zm-.24 1.67a.32.32 0 0 0 .13.44 3 3 0 0 1 .77.49.28.28 0 0 0 .38 0 .27.27 0 0 0 0-.37c-.68-.62-.79-.66-.82-.67a.32.32 0 0 0-.44.13zm-.39 1.32a.26.26 0 0 0 .09.36 4.44 4.44 0 0 1 .48.34.25.25 0 0 0 .34 0 .24.24 0 0 0 0-.33 2.64 2.64 0 0 0-.54-.45.28.28 0 0 0-.36.09zm-.51 1.08a.24.24 0 0 0 0 .33.78.78 0 0 1 .25.18.23.23 0 0 0 .3 0 .21.21 0 0 0 0-.3c-.16-.19-.21-.25-.3-.29a.27.27 0 0 0-.33.06zm3.43-.5a.26.26 0 0 0 0 .37 2.19 2.19 0 0 1 .29.35.25.25 0 0 0 .33.08.24.24 0 0 0 .08-.32 2.11 2.11 0 0 0-.32-.48.28.28 0 0 0-.37 0zm-.75 1a.24.24 0 0 0 0 .33l.17.15c.1.09.19.13.29.07a.22.22 0 0 0 .07-.29.66.66 0 0 0-.19-.27.29.29 0 0 0-.34 0zm-23.91-.18c.31-.15-.41-.77-.21-1.18s1.74-1.1 1.72-1.36-2.05.38-2.38 1 .57 1.64.87 1.49zm2.26-4c.27.13.42-.15.53-.19a.36.36 0 0 1 .31 0 .26.26 0 0 1 .18.22c0 .05 0 .32.24.37s.7-.8-.1-1.18a1 1 0 0 0-.79 0c-.49.17-.64.71-.37.84zm22.08-.52c-5.43-6.56-13-3.4-13.34-3.24a13.29 13.29 0 0 0-3.66 1.41l-.88.41-2.76.34a15.38 15.38 0 0 0-3.36 1.58l-1.05.57c-1.7.92-2 1.66-2 1.67a.41.41 0 0 1-.2.21.68.68 0 0 0-.42.44.17.17 0 0 0 0 .07.19.19 0 0 0 0 .08l.36-.2a.38.38 0 0 1 .5.14.38.38 0 0 1-.15.5l-.37.2a1.31 1.31 0 0 0 .68.57l.15-.05a1.21 1.21 0 0 1 1.71.74v.59a1.24 1.24 0 0 1-.49.5 2.9 2.9 0 0 0 1.09 0h.21l.4-.06a8.2 8.2 0 0 1 2.74-.21 5.59 5.59 0 0 1 2.66 1.64 7.13 7.13 0 0 1 .75 2.44 1.75 1.75 0 0 1-.94 1.36 3.09 3.09 0 0 1-1.43.23h-.44a4.93 4.93 0 0 0-.61.84h.39c.26-.26.62-.6.75-.5s0 .27-.06.5h1.12c.47 0 1.34 0 1.61-.19l.38-.31 1.23-1 1.28-1 .53-.42c.25-.21.28-1.84.07-3.48a.36.36 0 0 1 .72-.1 13.56 13.56 0 0 1 .09 3h.09a11 11 0 0 0 3 1.32 5.25 5.25 0 0 1-.79-1.49 3.56 3.56 0 0 1-.21-1.19 5 5 0 0 1 1.41-3.06 3.29 3.29 0 0 0 .95-1.78.81.81 0 0 0 0-.16v-.06a.35.35 0 0 1 .3-.35.36.36 0 0 1 .42.3 3.36 3.36 0 0 1-1.1 2.5c-.79 1-1.61 2-1.08 3.56a3.83 3.83 0 0 0 1.55 2.1h.08l.2.13a7.61 7.61 0 0 0 2.63.65.35.35 0 0 1 .27.13.38.38 0 0 1 .08.27 3.41 3.41 0 0 1-.38 1.11.36.36 0 0 1-.12.18 2.43 2.43 0 0 1-.26.3l-1.29.94c-1 .69-2.56 1.73-4.27 3.14-2 1.69-3.23 4.06-2.93 5a.65.65 0 0 0 .64.47c3.43.37 5.46-1.81 7.24-3.73l.47-.5a20.87 20.87 0 0 0 2.71-3.85 4.14 4.14 0 0 1 .8-1.16 12.11 12.11 0 0 0 4.15-7.55 8.26 8.26 0 0 0-1.82-6.49z" fill="#180d1c" fill-rule="evenodd"/><path d="M53.05 117.07a3.93 3.93 0 0 0 2-.26 3.31 3.31 0 0 0 1.39-1.12l2 2.88a17.78 17.78 0 0 1-2.47 2.64zM8.86 115.69a3.25 3.25 0 0 0 1.39 1.12 3.92 3.92 0 0 0 2 .26l-2.95 4.15a16.9 16.9 0 0 1-2.48-2.64c.41-.58 1.58-2.22 2.04-2.89zM18.3 140.3a3.53 3.53 0 0 1 .55-.54l.54-.44a28.35 28.35 0 0 0 2.21-1.94 10.16 10.16 0 0 1 3.5 2.24 1.57 1.57 0 0 1 .24 2.08 4.44 4.44 0 0 1-.38.37l-1 1h-.56c-2.89 0-4.86-1-5.26-2a1 1 0 0 1 .16-.77zM45.88 139.33l.53.43a3.53 3.53 0 0 1 .55.54 1.14 1.14 0 0 1 .11.9c-.39 1-2.37 2-5.26 2h-.58l-.93-1.08c-.11-.11-.33-.29-.44-.39a1.74 1.74 0 0 1 .25-2.08 10 10 0 0 1 3.5-2.24 27.86 27.86 0 0 0 2.27 1.92z" fill="#180d1c"/><path d="M19.43 135.49l-.31-.13c-6.67-2.63-12.21-6.16-14.81-9.43-2.87-3.62-2.44-6.53-1.57-8.33l.9-1.93.86-1.8a7.12 7.12 0 0 0 .6 3.31c1.37 3.27 6 6.76 9.5 8.76 1.52.86 3 1.56 4.49 2.22 4 1.85 7.21 3.3 7.21 6.9v4.74a2.91 2.91 0 0 0-.49-.79c-1.42-1.56-3.72-2.47-6.38-3.52zm-6.61-8.88l.22-.4c-.51-.31-1-.63-1.49-1-.07.12-.15.29-.22.42l.36.25-1.51 3.18-.37-.21c-.07.13-.14.29-.21.41.82.57 1.65 1.06 2.5 1.54l.72-.92a.08.08 0 0 0 0-.05l-.36-.34a2.53 2.53 0 0 1-.64.59 3.08 3.08 0 0 1-1-.59c0-.27 1.13-2.4 1.48-3.16a1.47 1.47 0 0 1 .47.26zm-3.89.27l.59-1.1-.32-.27a3 3 0 0 1-.2.29c-.06 0-.56-.39-.67-.48L9 124a3.32 3.32 0 0 1 .82.75c.08.16-.14.5-.17.7s.28.2.37.27c.16-.36.36-.75.52-1.11a76.3 76.3 0 0 1-2.24-1.79l-.22.39.33.3c-.57 1.1-1 2-1.58 3.08l-.33-.25-.21.38a27.2 27.2 0 0 0 2.25 1.87l.65-1c-.12-.11-.23-.23-.35-.35-.07.12-.43.58-.51.58s-.78-.56-.9-.74a8.79 8.79 0 0 1 .66-1.35 3.08 3.08 0 0 1 .62.56 1.61 1.61 0 0 1-.14.38l.31.25zm13.18 3.94c-1.08-.61-2.25-1.09-3.36-1.62l-.57 1.08.45.25.44-.6a2.22 2.22 0 0 1 .82.26l-1.48 3.26-.5-.2-.19.39 1.75.77.18-.39-.5-.24c.48-1.06 1-2.2 1.49-3.26a1.63 1.63 0 0 1 .68.48l-.24.66c0 .08.37.18.49.23l.54-1.07zM18.22 129l-1.42-.71-.19.37.49.27c-.51 1.08-1.3 3.52-2.4 2.8-.78-.51-.49-1.14 0-2.06.24-.51.52-1.08.77-1.59l.49.23.18-.39c-.52-.26-1-.55-1.56-.82l-.2.39.34.18a5.81 5.81 0 0 1-.48 1.07c-.53 1.1-1.06 2-.56 2.74a2.24 2.24 0 0 0 .51.51 2 2 0 0 0 1 .36c1.28.12 1.88-1.62 2.58-3.12l.35.16.19-.39zm-10.77-6.41l.28.24.18-.42-1.11-1.07c-.06.14-.15.27-.22.41.12.13.27.25.39.38-.35.41-1.71 1.88-1.82 2-.06-.1.48-3.15.56-3.43l.38.42c.07-.13.15-.26.23-.39a15.12 15.12 0 0 1-1.12-1.51l-.27.35c.06.12.13.24.2.36-.1.38-.7 4.22-.73 4.64l.37.51a32.62 32.62 0 0 0 2.69-2.5zM60.94 125.93c-2.59 3.27-8.13 6.8-14.8 9.43l-.31.13c-2.67 1-5 2-6.36 3.52a2.68 2.68 0 0 0-.49.79v-4.74c0-3.6 3.18-5.05 7.2-6.9 1.46-.66 3-1.36 4.49-2.22 3.53-2 8.13-5.49 9.5-8.76a7.15 7.15 0 0 0 .61-3.31l.86 1.8.9 1.93c.85 1.8 1.28 4.71-1.6 8.33zm-13.78 5.32c0-.66.11-1.25.19-1.91.25.54.45 1 .72 1.53l-.92.43zm3.5-.46c0 .17.16.54.09.68a3.58 3.58 0 0 1-1.23.67c-.22-.4-.37-.87-.57-1.28a6.45 6.45 0 0 1 1-.46l.19.33.41-.21c-.18-.4-.35-.81-.53-1.21l-.4.19.1.39a4.69 4.69 0 0 1-1 .58c-.26-.52-.46-1-.7-1.54a6.62 6.62 0 0 1 1.18-.56 1.92 1.92 0 0 1 .43.53l.39-.24a7.67 7.67 0 0 0-.5-1c-.82.44-1.84 1-2.66 1.33-.11 1.52-.26 3.05-.4 4.55-.11.06-.23.15-.35.21.06.14.11.27.17.4.46-.19.92-.43 1.39-.62-.05-.13-.11-.26-.17-.4-.15.06-.3.14-.46.19v-1.59l1.14-.54c.2.39.38.92.59 1.32l-.43.22c.06.13.12.26.19.39.89-.41 2-.95 2.84-1.4-.1-.36-.21-.72-.32-1.08l-.47.14zm3.27-5.2l.3-.22c-.06-.13-.13-.26-.2-.39l-1.31.89.2.38.44-.28c.13.63.31 2.46.34 2.89v.51s-.44-.43-.54-.53l-1.09-1.24c-.16-.19-.35-.38-.5-.57l.49-.31-.15-.41-1.66 1 .15.4.36-.17c.21.24.46.49.68.73l1.56 1.55c.22.22.44.45.66.66l.55-.32L54 127c0-.43-.05-1-.1-1.4zm4 1.49c-.91.76-1.91-.41-2.16-1.53a1.79 1.79 0 0 1 .18-1.48 3.07 3.07 0 0 0 .26-.25 1.11 1.11 0 0 1 .63-.22c1.11 0 2.19 2.56 1.09 3.48zm.37-3.6a1.66 1.66 0 0 0-2.26-.07l-.44.38a2.61 2.61 0 0 0-.62 1.55 3 3 0 0 0 .07.72 3.2 3.2 0 0 0 .4 1 1.68 1.68 0 0 0 2.27.7c1.63-.64 1.77-3.09.58-4.23zM47.51 142v6.13c0 1.82-3.11 2.47-5.77 2.47H23.51c-2.66 0-5.77-.64-5.77-2.47v-6-.13c1 1.18 3.21 1.94 5.77 1.92h18.24c2.55.08 4.76-.7 5.76-1.92zm-6 5.25v-1.74a1.61 1.61 0 0 1 .7 0 .93.93 0 0 1 .39 1.49 1.25 1.25 0 0 1-1.08.32zm2 1.37c-.18-.33-.45-1-.81-1.17a1.18 1.18 0 0 0 .51-2c-.59-.47-1.82-.35-2.86-.34v.4h.43V149h-.42v.41H42v-.42h-.48v-1.33a1.41 1.41 0 0 1 .55 0c.41.18.65 1.38 1 1.73a4.9 4.9 0 0 0 1.09 0v-.43h-.41c-.14-.06-.18-.24-.25-.37zm-10.12-.18a.87.87 0 0 1-.8.61c-.19 0-.5 0-.56-.1s-.05-.24-.05-.37a7.28 7.28 0 0 1 0-1.17c.75 0 1.58.21 1.37 1zm-1.39-2.9c.49 0 .86 0 1.07.3a.67.67 0 0 1 .11.5c-.09.56-.53.73-1.19.69v-1.49zm1.21 1.62c.76-.31 1.16-1.32.28-1.81a6.88 6.88 0 0 0-2.7-.18v.42h.45v3.49h-.45v.41a6.62 6.62 0 0 0 2.86-.24 1.14 1.14 0 0 0 .44-1.59c-.23-.32-.47-.33-.85-.5zm-5.7.13v-1.74a1.61 1.61 0 0 1 .7 0 .92.92 0 0 1 .36 1.38c-.21.28-.59.33-1.07.32zm2 1.37c-.18-.33-.45-1-.81-1.17a1.18 1.18 0 0 0 .51-2c-.59-.47-1.82-.35-2.86-.34v.4h.43V149h-.41v.41H28v-.42h-.48v-1.33a1.41 1.41 0 0 1 .55 0c.41.18.65 1.38 1 1.73a4.81 4.81 0 0 0 1.08 0v-.43h-.41c-.14-.06-.18-.24-.25-.37zm-6.74-.83l.6-1.8.58 1.79zm1.06-2.76a1.44 1.44 0 0 0-.62 0c-.5 1.31-1 2.63-1.49 3.94a.91.91 0 0 1-.38 0v.42h1.53V149h-.49l.24-.77h1.48a2.56 2.56 0 0 1 .28.79h-.46v.42h1.67v-.43h-.39l-1.38-4zm13.6 4.05c-1.14.19-1.6-1.28-1.36-2.37a1.53 1.53 0 0 1 .77-1.17l.35-.09a1.27 1.27 0 0 1 .66.13c1 .61 1 3.27-.42 3.5zm-.23-4.07l-.56.11a2.17 2.17 0 0 0-1.21 1 2.71 2.71 0 0 0-.23.66 2.39 2.39 0 0 0 0 1 1.94 1.94 0 0 0 1.8 1.74c1.76.28 2.88-1.7 2.26-3.29a1.9 1.9 0 0 0-2-1.22zM63.55 76.38v.73H1.72a3.55 3.55 0 0 1 0-.37 3.47 3.47 0 0 1 0-.36zm0 0V52.76H1.71v23.62M28 68.21a.65.65 0 1 1-.64.64.65.65 0 0 1 .64-.64zm-4.62 1.5a.65.65 0 1 1-.25.88.65.65 0 0 1 .25-.88zm2.45-.71a.34.34 0 0 1 .34.33.34.34 0 1 1-.34-.33zm4.46-.78a.34.34 0 0 1 .34.34.34.34 0 1 1-.67 0 .34.34 0 0 1 .33-.34zm7.47.59a.65.65 0 1 1-.65-.64.65.65 0 0 1 .65.64zM42 70.59a.64.64 0 1 1-.25-.88.65.65 0 0 1 .25.88zm-2.33-1.22a.34.34 0 1 1-.33-.33.34.34 0 0 1 .33.33zm-4.46-.77a.34.34 0 1 1-.67 0 .34.34 0 1 1 .67 0zm-2.63-8a.66.66 0 1 1-.65.66.65.65 0 0 1 .65-.66zm0-1.82a.65.65 0 1 1-.65.65.65.65 0 0 1 .65-.65zm0-1.83a.65.65 0 1 1-.65.65.65.65 0 0 1 .65-.65zm-3.16.16a.67.67 0 0 1 .66.66.66.66 0 1 1-.66-.66zm-2.14-.7a.65.65 0 1 1 0 1.3.65.65 0 0 1 0-1.3zM25.05 56a.65.65 0 1 1-.65.65.65.65 0 0 1 .65-.65zm-2.25.31a.65.65 0 1 1 0 1.3.65.65 0 0 1 0-1.3zm-1.94 1.22a.65.65 0 1 1 0 1.3.65.65 0 1 1 0-1.3zm-1.13 2a.65.65 0 1 1-.65.65.65.65 0 0 1 .65-.65zm0 2.29a.66.66 0 0 1 .65.66.65.65 0 0 1-1.3 0 .66.66 0 0 1 .65-.66zm.81 2.13a.65.65 0 1 1 0 1.3.65.65 0 0 1 0-1.3zm15.87-6.15a.65.65 0 1 1-1.3 0 .65.65 0 1 1 1.3 0zm2.14-.71a.65.65 0 1 1-.65-.65.65.65 0 0 1 .65.65zm2.22-.48a.66.66 0 0 1-.66.65.65.65 0 0 1 0-1.3.66.66 0 0 1 .66.65zm2.24.31a.65.65 0 0 1-.65.65.65.65 0 1 1 0-1.3.65.65 0 0 1 .65.65zm2 1.22a.66.66 0 0 1-.66.65.65.65 0 0 1 0-1.3.66.66 0 0 1 .66.65zm1.13 2a.66.66 0 0 1-.66.65.65.65 0 0 1 0-1.3.66.66 0 0 1 .66.65zm0 2.3a.65.65 0 0 1-1.3 0 .65.65 0 1 1 1.3 0zm-.81 2.12a.65.65 0 1 1-.65-.65.65.65 0 0 1 .65.65zM38.84 75a3.47 3.47 0 0 1 .55-.27c1.37-.64 1.87-1.43 1.87-2 0-1.15-3.74-2.42-8.73-2.42s-8.74 1.27-8.74 2.42c0 .58.54 1.37 1.94 2a6 6 0 0 1 .57.28c0 .09-.5 0-.66-.1-1.55-.52-2.57-1.26-2.57-2.19 0-2.05 4.87-3.15 9.46-3.15S42 70.63 42 72.68c0 .93-1 1.66-2.54 2.18 0 0-.66.18-.6.09zm-6.28-7.48A22.64 22.64 0 0 0 25 68.6a9.21 9.21 0 0 0-1.85.92.35.35 0 0 1-.34 0c-.19-.08-.22-.24-.26-.46a9.46 9.46 0 0 0-1-2.94c-.07-.14.09-.3.21-.14a10.7 10.7 0 0 1 1.44 2.58 11 11 0 0 1 1.5-.69 23.54 23.54 0 0 1 7.79-1.17 23.56 23.56 0 0 1 7.8 1.17 11 11 0 0 1 1.5.69A11 11 0 0 1 43.37 66c.13-.16.29 0 .22.14a9.87 9.87 0 0 0-1 2.94c0 .22-.06.38-.25.46a.35.35 0 0 1-.34 0 9.21 9.21 0 0 0-1.85-.92 22.66 22.66 0 0 0-7.55-1.13zM34 55.24a.36.36 0 0 1-.36.36h-.69v.72a.36.36 0 1 1-.72 0v-.72h-.69a.36.36 0 0 1 0-.72h.69v-.67a.36.36 0 1 1 .72 0v.67h.69a.36.36 0 0 1 .36.36zm-1.47 16c2.62 0 7.57.42 7.57 2s-5 2-7.57 2-7.57-.42-7.57-2 4.95-1.97 7.56-1.97zm11.93-10.08c0 2-1.61 4.19-2.29 5.13a1.76 1.76 0 0 1-2.17.83c-.54-.17-1.08-.27-1.4-.89a1 1 0 0 1 .06-1.18c.09-.12.36-.26.48-.2a.27.27 0 0 1 0 .39.48.48 0 0 0 .21.7.36.36 0 0 0 .46-.08s-.38-.3 0-.59 1-.88 0-1.33c-.74-.35-1.31.65-1.38.79s-.16.09-.13 0c.15-.72.76-.95.92-1.75a1.46 1.46 0 0 0-.53-1.28.34.34 0 0 0-.33 0 1.44 1.44 0 0 0-.94 1c-.17.79.31 1.24.17 2 0 .14-.13.16-.14 0s-.16-1.31-1-1.27c-1 0-.66.94-.5 1.23s-.24.48-.25.51.14.3.39.27a.48.48 0 0 0 .47-.56.26.26 0 0 1 .19-.34c.14 0 .33.22.37.36a1 1 0 0 1-.4 1.13 2.49 2.49 0 0 1-1.78.34c-1.48-.16-1.57-1-1.57-1 .31.13 1 .37 1 .37h.07a.23.23 0 0 0 .23-.23v-1.57a.24.24 0 0 0-.23-.23h-.09l-1 .4.29-.81a.29.29 0 0 0 0-.09.23.23 0 0 0-.23-.23h-1.67a.23.23 0 0 0-.23.23.15.15 0 0 0 0 .09l.28.81-1-.4h-.09a.23.23 0 0 0-.22.23v1.41a.22.22 0 0 0 .22.23h.08s.68-.24 1-.37c0 0-.09.89-1.56 1a2.48 2.48 0 0 1-1.78-.34 1 1 0 0 1-.4-1.13c0-.14.23-.37.36-.36a.28.28 0 0 1 .2.34.48.48 0 0 0 .47.56c.25 0 .42-.19.38-.27s-.46-.1-.25-.51.55-1.19-.5-1.23c-.82 0-1 1.11-1 1.27s-.11.13-.14 0c-.14-.72.33-1.17.17-2a1.46 1.46 0 0 0-.94-1 .36.36 0 0 0-.34 0A1.44 1.44 0 0 0 26 63c.15.8.77 1 .91 1.75 0 .14-.05.19-.12 0s-.65-1.14-1.39-.79c-1 .45-.25 1.13 0 1.33s0 .55 0 .59a.36.36 0 0 0 .46.08.48.48 0 0 0 .21-.7.28.28 0 0 1 .05-.39c.12-.06.39.08.48.2a1 1 0 0 1 .07 1.18c-.32.62-.87.72-1.4.89a1.76 1.76 0 0 1-2.27-.81c-.68-.94-2.29-3.13-2.29-5.13s1.74-3.46 4-3.46a8.72 8.72 0 0 1 2.89.68 6.65 6.65 0 0 0 2.94.6V57a.37.37 0 0 1 .37-.36.36.36 0 0 1 .36.36v5.32h2.57V57a.36.36 0 0 1 .72 0v2a6.72 6.72 0 0 0 2.95-.6 8.66 8.66 0 0 1 2.89-.68c2.33-.02 4.06 1.46 4.06 3.44zM32.52 74.55c4.52 0 6.85-.89 6.85-1.28S37 72 32.52 72s-6.84.9-6.84 1.28 2.32 1.27 6.84 1.27zm-2-14.83a4.87 4.87 0 0 1-.66 0 3 3 0 0 1 .66.37zm12.82 3a4.49 4.49 0 0 0 .35-1.6c0-1.56-1.43-2.74-3.32-2.74a7.78 7.78 0 0 0-2.63.64l-1.1.38a1.62 1.62 0 0 1 .31 0 4.46 4.46 0 0 1 3 1.09 3.4 3.4 0 0 1 2.91 1.17 2.64 2.64 0 0 1 .53 1.1zm-8.8-3v.38a3.11 3.11 0 0 1 .67-.37 5 5 0 0 1-.62-.01zm7.73 2.4a2.81 2.81 0 0 0-2.46-.88.37.37 0 0 1-.3-.14 3.58 3.58 0 0 0-2.58-1 3 3 0 0 0-2.36.91V62a3.84 3.84 0 0 1 1.06-.78 2.37 2.37 0 0 1 .73-.19c.25 0 .46 0 .46.13s-.57.31-1.05.69a5 5 0 0 0-.89.9c.31-.07.5.08.5.25a1.53 1.53 0 0 1 1-.41 1.9 1.9 0 0 1 .25 0v-.15a2.36 2.36 0 0 1 1.68-1.59.78.78 0 0 1 .69.15 2.33 2.33 0 0 1 1 1.77 2 2 0 0 1 0 .34v.13l.23.08a1.37 1.37 0 0 1 .89 1.1.57.57 0 0 1 0 .13 1.63 1.63 0 0 1-.51 1.09.75.75 0 0 1 0 .2.84.84 0 0 1-.3.62h.14a1.8 1.8 0 0 0 1.13-1.35c.45-1.52-1.28-2.73-1.1-3s.34 0 .34 0a2.65 2.65 0 0 1 1.57 2.6c.11-.17.23-.36.34-.56a2.52 2.52 0 0 0-.41-2.03zm-13.8-2.68l-1.09-.38a7.89 7.89 0 0 0-2.64-.64c-1.89 0-3.32 1.18-3.32 2.74a4.53 4.53 0 0 0 .35 1.6 2.86 2.86 0 0 1 .5-1.08 3.42 3.42 0 0 1 2.92-1.17 4.46 4.46 0 0 1 3-1.1c.08 0 .17.02.28.03zm4.73 9.06a.64.64 0 0 1-.64.64.65.65 0 0 1 0-1.29.65.65 0 0 1 .64.65zm-2.63-7.43a3 3 0 0 0-2.37-.91 3.6 3.6 0 0 0-2.58 1 .37.37 0 0 1-.29.14 2.82 2.82 0 0 0-2.47.88 2.47 2.47 0 0 0-.36 2.06c.11.19.23.37.34.55a2.67 2.67 0 0 1 1.58-2.61s.25-.11.33 0-1.55 1.47-1.1 3a1.78 1.78 0 0 0 1.2 1.37h.07a.8.8 0 0 1-.3-.61.75.75 0 0 1 0-.2 1.63 1.63 0 0 1-.51-1.09.57.57 0 0 1 0-.13 1.37 1.37 0 0 1 .89-1.1l.23-.08v-.13a1.39 1.39 0 0 1 0-.35 2.4 2.4 0 0 1 1-1.77.75.75 0 0 1 .6-.12 2.34 2.34 0 0 1 1.68 1.59.68.68 0 0 1 0 .14h.25a1.53 1.53 0 0 1 1.05.41c0-.18.18-.32.49-.25a5 5 0 0 0-.89-.91c-.48-.37-1.05-.59-1.05-.68s.21-.16.46-.14a2.33 2.33 0 0 1 .73.2 3.84 3.84 0 0 1 1.06.78z" fill="#180d1c"/><path d="M65.44 51.07H0v33.05a52.35 52.35 0 0 0 6.53 25.17 6.06 6.06 0 0 0-3 3.17L2.28 115l-.9 2a8.09 8.09 0 0 0-.78 3.45 10.35 10.35 0 0 0 2.54 6.45c2.76 3.47 8.52 7.17 15.43 9.9l1 .41-1.17 1-.51.4-.44.4-.17.18a4.1 4.1 0 0 0-1.07 3v6c0 2.49 2.72 4 7.27 4h18.27c4.55 0 7.27-1.48 7.27-4v-6a4.14 4.14 0 0 0-1.06-3l-.13-.16a4.5 4.5 0 0 0-.49-.38l-1.7-1.45 1-.41c6.91-2.73 12.67-6.43 15.43-9.9a10.35 10.35 0 0 0 2.54-6.45 8 8 0 0 0-.79-3.46l-.89-1.9-1.22-2.57a6.45 6.45 0 0 0-3-3 52.43 52.43 0 0 0 6.64-25.35zm-4.35 61.75l1.22 2.55.88 1.9a7.22 7.22 0 0 1 .72 3.14 9.67 9.67 0 0 1-2.38 6c-2.68 3.36-8.33 7-15.11 9.66l-2.19.88 2.65 2.25.41.33.1.13a3.46 3.46 0 0 1 .88 2.52v6c0 2-2.44 3.22-6.52 3.22H23.51c-4.08 0-6.52-1.2-6.52-3.22v-6a3.39 3.39 0 0 1 .87-2.52l.13-.14.42-.37.51-.41 2.08-1.8-2.19-.88c-6.78-2.68-12.43-6.29-15.11-9.66a9.67 9.67 0 0 1-2.38-6 7.29 7.29 0 0 1 .71-3.13l.9-1.92 1.23-2.57a5.25 5.25 0 0 1 2.7-2.85c.12.21.23.44.36.65a3.58 3.58 0 0 0-1.39 1.32 4.43 4.43 0 0 0-.63 2.36 6.79 6.79 0 0 0 .54 2.54l.52 1.28L9 114.22l.15.49a2.36 2.36 0 0 0 1.41 1.41c.13 0 .25.07.38.11q.72 1 1.47 2l-2.49 3.57.55.44a37.34 37.34 0 0 0 4.54 3.1c1.51.86 3 1.53 4.43 2.19a38.66 38.66 0 0 1 3.81 1.91c.88.75 1.73 1.43 2.52 2a5.48 5.48 0 0 1 1.31 3.63v4.25a3.57 3.57 0 0 1-.92 2.65L25 143.21h15.25L39.13 142a3.61 3.61 0 0 1-.92-2.65v-4.25a5.49 5.49 0 0 1 1-3.26c1-.79 2.18-1.7 3.38-2.73 1-.56 2.13-1.07 3.29-1.61 1.45-.66 2.93-1.34 4.4-2.17a36.06 36.06 0 0 0 4.54-3.11l.55-.44-2.37-3.5c.54-.69 1.07-1.39 1.59-2.12a.75.75 0 0 0 .16 0 2.31 2.31 0 0 0 1.42-1.4l.15-.5 2.68 3.83.53-1.29a6.7 6.7 0 0 0 .54-2.53 4.43 4.43 0 0 0-.63-2.36 3.59 3.59 0 0 0-1.26-1.25l.29-.52a5.66 5.66 0 0 1 2.62 2.68zm-48.24 6a75.35 75.35 0 0 0 8 8.53l-1.16-.53c-1.42-.65-2.89-1.32-4.38-2.16a37.62 37.62 0 0 1-4.44-3zm25.72 23.66H26.69a4.27 4.27 0 0 0 1.11-3.14v-4.26a6.46 6.46 0 0 0-.44-2.4 49.52 49.52 0 0 0 4.5 3l.86.5.87-.5c.07 0 1.72-1 4.22-2.82a6.65 6.65 0 0 0-.35 2.21v4.26a4.29 4.29 0 0 0 1.11 3.13zm6.15-15.29a75 75 0 0 0 7.77-8.27l1.86 2.7a35.52 35.52 0 0 1-4.44 3c-1.45.82-2.91 1.49-4.32 2.14zm7.33-8.91a75.33 75.33 0 0 1-9.86 10.17l-3.58 2.9a58.22 58.22 0 0 1-5.39 3.65l-.5.28-.49-.28a57.33 57.33 0 0 1-5.87-4l-2.76-2.22a75.16 75.16 0 0 1-10.3-10.58l-.48-.62-.93-1.22-.54-.75c-1-1.45-2-3-3-4.58l-.4-.68c-.11-.18-.21-.38-.32-.56l-.37-.69A51.64 51.64 0 0 1 .75 84.12v-32.3h63.94v32.3a51.66 51.66 0 0 1-6.59 25.07l-.38.69-.25.47-.41.67c-.32.54-.64 1.07-1 1.59l-.18.27c-.58.91-1.19 1.79-1.8 2.64l-.58.81c-.33.45-.67.88-1 1.31zM13.64 22.06c-.23.16-.37.42-.45.41a1.15 1.15 0 0 1-.47-.66 5.16 5.16 0 0 1 1.62-.6c.11.07-.13.62-.13.62a1.81 1.81 0 0 0-.57.23zM19.74 11.9l.17-.23c.2.37.75 1.05.76 1.2a2 2 0 0 1-.17.78c-.06.11-.2 0-.2 0a6 6 0 0 1-.13-.91c.05.11-.23-.49-.43-.84zM31.31 5.65c0-.31.05-.86.05-.86S32 6 32.08 6.22s-.42.31-.52.4a2 2 0 0 0-.28.53L31 6.87a11.89 11.89 0 0 0 .31-1.22zM22 9.59a11 11 0 0 0 1.6.53c0 .13.09.37-.11.49s-.51-.35-.88-.58a3.22 3.22 0 0 0-.61-.32s-.16-.07-.14-.14M43.93 8.72a4.63 4.63 0 0 0-.71 1c0 .1.28-.05.28-.05s.94-.78 1.08-.93-.65-.02-.65-.02z"/>
</svg>
