<svg xmlns="http://www.w3.org/2000/svg" viewBox="0 0 618.5 157.6" aria-hidden="true">
  <path fill="currentColor" d="M479.7 61.9c-8.9 0-14.6 4.7-17.3 10.2V41h-15v77.7h15V90.8c0-10.6 4.5-15.8 10.9-15.8 6.2 0 9.1 4.4 9.1 12.1v31.7h15V84.6c0-14.4-5.6-22.7-17.7-22.7zM433 82.3c0-13.9-6.3-20.5-21.7-20.5-12.1 0-20.6 4.2-25.1 8.6l7.1 9.9a21.17 21.17 0 0 1 16.1-7c4.9 0 8.5 1.4 8.5 7.9v2.1l-12.2 1.9c-12.5 1.9-21 6.4-21 17.7 0 10.2 6.6 17.6 17.9 17.6 8.5 0 13.9-4.2 16.2-9.6a29.74 29.74 0 0 0 1.6 7.8h14.7c-1.9-4.5-2.1-7.4-2.1-15.7zm-14.9 14h-.1c0 8.2-5.2 13.4-11.4 13.4a7.14 7.14 0 0 1-7.5-6.76v-.74c0-4.3 2.8-6.6 9.4-7.8l9.6-1.8zm185.4 22.4h15V63.5h-15zm-29.1-48.3c-2.2-4.6-7.4-8.5-15.1-8.5-11.3 0-22 8.5-22 28.7 0 18.4 8.8 29.3 22.1 29.3 7.7 0 12.9-3.7 15.8-10.1l.1 8.9h14.2V41h-15.1zm.1 21c0 8.9-3.2 16.5-10.5 16.5-6.7 0-11-6.8-11-17.5 0-9.7 3.5-16.4 10.8-16.4 7.6 0 10.7 7.5 10.7 15.1zm-63.4 27.3h15V63.5h-15zM282.8 77.3c0-3.4 3-4.7 6.4-4.7 5.9 0 12.5 2.9 15.5 5.7l6.9-9.9c-5.6-4.3-12.6-6.7-21.9-6.7-11.3 0-22.1 5.3-22.1 17.3 0 20.5 29.8 14.7 29.8 25 0 3.8-4.2 5.4-8.1 5.4a23.48 23.48 0 0 1-16.6-7.4l-7.1 10.2c6.1 5.4 14.4 8.2 24.3 8.2 11 0 22.6-5.9 22.6-18.3 0-19.6-29.7-15.4-29.7-24.8zm-44.9 13.4c0 11-5.4 15.7-14.7 15.7s-14.7-4.7-14.7-16.1V41h-16.1v50.6c0 12 4 28.8 30.8 28.8S254 103.7 254 91.6V41h-16.1zm117.7-28.8c-8.9 0-14.6 4.7-17.3 10.2V41h-15v77.7h15V90.8c0-10.6 4.5-15.8 10.9-15.8 6.2 0 9.1 4.4 9.1 12.1v31.7h15V84.6c0-14.4-5.6-22.7-17.7-22.7zm155.5-8h15V41.7h-15zm92.4-12.2v12.2h15V41.7zm-494.4 4.5a51.49 51.49 0 0 1-10.3-1.9c-1.3 6-3.1 12.8-5.1 20a73.41 73.41 0 0 0 17.5 3.3 82.39 82.39 0 0 0-2.1-21.4zM78.8 32a63.45 63.45 0 0 0-19 11.7 43.22 43.22 0 0 0 10.7 9.8 91.45 91.45 0 0 1 14.6-15.6 24.07 24.07 0 0 1-6.3-5.9zm48.7 36.3c-3.4 1.6-8.1 2.3-13.5 2.2a77.89 77.89 0 0 1-3.6 22.1c6.2.1 11.6-.8 15.6-2.6a51.17 51.17 0 0 0 1.5-21.7zm-16.4 2.1A85.31 85.31 0 0 1 92.9 67c-2 7.2-4.4 14.6-6.8 21.6a93.72 93.72 0 0 0 21 3.9 86.09 86.09 0 0 0 4-22.1zm-.3-24.1a77.55 77.55 0 0 1 3.2 21.4 35.2 35.2 0 0 0 13.1-2.1 57.55 57.55 0 0 0-8.6-20.6 19.11 19.11 0 0 1-7.7 1.3zm-4.6 48.8a95 95 0 0 1-21-3.9c-2.5 6.8-4.7 12.3-6.6 16.4A87.12 87.12 0 0 0 97 111a47.63 47.63 0 0 0 9.2-15.9zm-30.9 11.4c1.6-4.1 3.7-9.7 6.1-16.5a114.4 114.4 0 0 1-12.2-5c-3.2-1.6-6.1-3.2-8.8-4.8a54.67 54.67 0 0 0-3.5 17.7 70.84 70.84 0 0 0 7.7 4.2 111.83 111.83 0 0 0 10.7 4.4zm-17-30.9a94.76 94.76 0 0 1 10.6-19.8 44.5 44.5 0 0 1-11.1-10.1A54.62 54.62 0 0 0 45.5 64a49.17 49.17 0 0 0 12.8 11.6zm28.2-36.8A101.86 101.86 0 0 0 73 55.1a80.67 80.67 0 0 0 7.3 4 98.68 98.68 0 0 0 10.2 4.1c2.4-7 4.6-13.8 6.4-19.6a50 50 0 0 1-6-2.4c-1.5-.8-3-1.5-4.4-2.4zm-15 18.6a105.49 105.49 0 0 0-10.2 20.1 81.41 81.41 0 0 0 8.8 4.8 114.4 114.4 0 0 0 12.2 5c2.5-7 5-14.3 7.4-21.4a88.4 88.4 0 0 1-10.6-4.3 68.53 68.53 0 0 1-7.6-4.2zM43 86a42 42 0 0 0 11.2 10.3 51.38 51.38 0 0 1 3.1-18c-5.6-3.9-10-7.9-12.8-11.7A37.43 37.43 0 0 0 43 86zM14.1 36.2a7.8 7.8 0 1 0-7.8-7.8 7.8 7.8 0 0 0 7.8 7.8zm91.8-10.4c.5.2 1.1.5 1.5.7a10.23 10.23 0 0 0-1.5-.7zm0 0a.09.09 0 0 1-.1-.1c0 .1 0 .1.1.1zm4.9 2.5c.3.2.7.4 1.1.7a4.11 4.11 0 0 0-1.1-.7zm-.2-.1a.3.3 0 0 0 .2.1c-.1-.1-.1-.1-.2-.1zm-22.4-6.3a15.85 15.85 0 0 0-2.18 0h2.18zM57.4 33.5c-1 2.5-.5 5.5 1.4 8.7a58.47 58.47 0 0 1 19.4-11c-1.1-1.9-1.4-3.7-.8-5.2a45.55 45.55 0 0 0-20 7.5zm24-9.4a2.88 2.88 0 0 0-.9 1 49.56 49.56 0 0 1 20.8 3.7 32.34 32.34 0 0 0-16.1-6.4 9 9 0 0 0-3.8 1.7zm5-1.9a29.62 29.62 0 0 1 14.85 6.49.54.54 0 0 1 0 .11v-.05h.1-.1l.09.05-.09-.06.09.1A131.74 131.74 0 0 1 99.3 42a35.48 35.48 0 0 0 9.3 1.7 43.13 43.13 0 0 0-6.6-14.07 43.85 43.85 0 0 1 7.9 14.17 17.27 17.27 0 0 0 6.9-1.1 51.67 51.67 0 0 0-15.32-13.79A52 52 0 0 1 117.6 42.2a4.25 4.25 0 0 0 .7-.5 3.71 3.71 0 0 0 1.5-3.3 48.62 48.62 0 0 0-18.37-9.56 46.29 46.29 0 0 1 18.27 8.76 10.19 10.19 0 0 0-3.2-5 27.87 27.87 0 0 0-15.1-3.8c5.56-.39 10.42.61 14.1 2.9a33.58 33.58 0 0 0-4.8-3.4c-.1 0-.1-.1-.2-.1s-.1-.1-.2-.1a.09.09 0 0 0-.1-.1l-.5-.25a.14.14 0 0 0 .1.05.76.76 0 0 1-.4-.2.47.47 0 0 0-.2-.1.42.42 0 0 1-.2-.1c.1 0 .1.1.2.1-.1-.1-.2-.1-.3-.2-.5-.3-1.1-.5-1.6-.8-1.29-.59-3.27.09-5.93 2.25 2.07-2.44 3.45-3.33 4.34-2.93a49.27 49.27 0 0 0-9-2.91l-.47-.19H96a.37.37 0 0 0 .3.1h-.1c1.93.37 3.54 2.17 4.83 5.34C99.21 24.86 97 23 94.7 22.5l-.41-.06a.75.75 0 0 0-.29 0 29.46 29.46 0 0 0-7.6-.24zm8.2.3h-.2s-.06 0-.09-.05a1 1 0 0 0 .29.05zm-2.4 16.8a40.74 40.74 0 0 0 5.4 2.2c1.6-5.2 2.9-9.6 3.7-12.7-4.1 1.5-8.5 4.5-12.9 8.4 1.23.8 2.5 1.46 3.8 2.1zM80.1 25.8c-.6 1.3-.3 2.9.7 4.6a50.88 50.88 0 0 1 20.5-1.6 50.67 50.67 0 0 0-21.2-3zm1.3 5.5a22 22 0 0 0 5.6 5.1c4.8-3.7 9.7-6.4 14.3-7.6a48.57 48.57 0 0 0-19.9 2.5zM43.3 64.5c-2.1-3.6-2.7-7-1.8-9.9a46.91 46.91 0 0 0-2.4 15 48.45 48.45 0 0 0 1.2 10.8 13.52 13.52 0 0 0 1.6 3.8 36.5 36.5 0 0 1 1.4-19.7zm43 52.9h.5a47.63 47.63 0 0 0 20-4.4l.2-.1c.8-.4 1.8-.9 2.7-1.4a22.09 22.09 0 0 0 2-1.3c-3.4 1.6-7.9 2.3-13.2 2.2a18.6 18.6 0 0 1-12.2 5zm38.8-24.8c-4 1.9-9.4 2.7-15.6 2.6-2.5 6.8-5.8 12.2-9.6 15.9 5.5 0 10.2-.7 13.7-2.3a37.57 37.57 0 0 0 11.5-16.2zM77.9 109c-1.8 3.7-3.3 5.9-4.3 6.4a46.33 46.33 0 0 0 9.69 1.92h-.09a2.74 2.74 0 0 1 .9.1H86a1.66 1.66 0 0 1-.55-.15c3.48-.26 7-1.93 10.25-5A75.43 75.43 0 0 1 77.9 109zm53.9-23.4v-.1c-.1.4-.3.7-.4 1.1zm-59.5 29.5l.7.2a6 6 0 0 1-.8-.3zm11.8 2.3l-.81-.08a3.18 3.18 0 0 0 .81.08zM86 21.91a44 44 0 0 0-5.62.39 26.74 26.74 0 0 1 4-.2c.55-.1 1.09-.1 1.62-.19zm69.7 87.19a13.7 13.7 0 1 0 13.7 13.7 13.7 13.7 0 0 0-13.7-13.7zM150 43.4a22.67 22.67 0 0 0-26.6-36.6 10 10 0 0 0-9.5-6.8 9.84 9.84 0 0 0-7.9 3.9A68.42 68.42 0 0 0 86.2 1a69.39 69.39 0 0 0-60 34.7 29.85 29.85 0 0 0-5 58.2 69 69 0 0 0 24.9 32.6 47.6 47.6 0 0 0 91.9-10.7 68.71 68.71 0 0 0 17.3-45.7 69.49 69.49 0 0 0-5.3-26.7zm-63.8 80.9a54.2 54.2 0 1 1 54.2-54.2 54.24 54.24 0 0 1-54.2 54.2zm-21.9-20.6c-2.6-1.3-5.1-2.6-7.4-4 .2 4.6 1.6 8 4 10q2.1 1.2 4.5 2.4c2.1.9 4.2 1.8 6.3 2.5.5-.6 1.5-2.9 3-6.7a74.88 74.88 0 0 1-10.4-4.2zm53.9-70a12 12 0 0 1 3.5 5.6 39.45 39.45 0 0 1 10.9 16.6c-.1-.3-.2-.7-.3-1.1a47.76 47.76 0 0 0-12-19.3zm1.9 1.7l.1.1.3.3zm10.4 30.9a11.49 11.49 0 0 1-1.4 1 46.46 46.46 0 0 1-1.2 21.6 10.59 10.59 0 0 0 4.27-4.45l-.37 1a11.27 11.27 0 0 0 .54-1.47c.09-.21.19-.41.26-.63a48.14 48.14 0 0 0 2-13.8c0-1-.1-2.1 0-3.2a13.77 13.77 0 0 1-.2-1.8 39 39 0 0 0-.9-4.8 7.89 7.89 0 0 1-3 6.55zm3.9-1.2a2.27 2.27 0 0 1-.09-.48.88.88 0 0 1 .09.48zm-.1-.52c0-.18-.05-.38-.1-.58a1.27 1.27 0 0 1 .1.58zm-5.7 25.92c-.5.4-1 .7-1.6 1.1a37.42 37.42 0 0 1-11.8 16.3l.9-.6a47.83 47.83 0 0 0 15.3-20.7 10.17 10.17 0 0 1-2.8 3.9zm-8.4-46.6c-.3.2-.5.4-.8.6a55.26 55.26 0 0 1 9.2 20.2 11.5 11.5 0 0 0 1.3-1 7.43 7.43 0 0 0 2.9-6.3 41 41 0 0 0-10.9-17.2 4.37 4.37 0 0 1-1.7 3.7zm-47.1 71.5a42.12 42.12 0 0 0 5.2 1.2 47.24 47.24 0 0 1-5-1.2zM56 33.6a7.34 7.34 0 0 1 1.7-1.9 50 50 0 0 0-9.6 9.9 39.66 39.66 0 0 1 7.9-8zm4.2-3.7L58.7 31c.8-.6 1.5-1.1 2.3-1.6a8.24 8.24 0 0 0-.8.5zm-.4.4a7.34 7.34 0 0 0-1.7 1.9 43.47 43.47 0 0 1 19.7-6.9 5.5 5.5 0 0 1 1-1.1 9.93 9.93 0 0 1 4.3-1.9 31.23 31.23 0 0 0-6.1.6 47.35 47.35 0 0 0-15.9 6.5l-.8.5c-.2.2-.4.3-.5.4zm-1.5.9c-.2.2-.4.3-.6.5.3-.2.7-.5 1-.7zM77 22.8a.37.37 0 0 0-.3.1.63.63 0 0 0 .4-.1zm.1 0c.9-.2 2.1-.3 3-.5-1 .1-2 .3-3 .5zm-13.7 88.5a38.35 38.35 0 0 0 8 3.6h.1a53.52 53.52 0 0 1-5.6-2.3c-.8-.4-1.6-.9-2.5-1.3zm-9-13.3a42.44 42.44 0 0 1-10.8-9.9 27.46 27.46 0 0 0 3.47 7.78c.27.41.54.82.83 1.22a6.68 6.68 0 0 1-.6-.8l.6.9a48.36 48.36 0 0 0 9.9 10.3 2.39 2.39 0 0 0 .35.28 1.11 1.11 0 0 1 .15.12l.1.1c.3.2.5.4.7.5h-.07l.37.25c-2.8-2.25-4.5-5.95-5-10.75zm7.7 12.5l-.4-.2a15.83 15.83 0 0 0 1.8 1c-.5-.3-.9-.5-1.4-.8zM45.7 93.6a30.59 30.59 0 0 1-3.1-7.2 13.46 13.46 0 0 1-1.5-3.3A46.62 46.62 0 0 0 47 95.81c-.44-.7-.87-1.4-1.22-2zm1.5 2.5a2.53 2.53 0 0 1-.13-.22v-.07zm-5.4-42.5l-.1.3.13-.39zm2.4 8.4a50.78 50.78 0 0 1 12.5-18c-1.9-3.3-2.5-6.5-1.4-9.1A39 39 0 0 0 44.2 48c-.6 1.2-1.2 2.5-1.7 3.6a5.83 5.83 0 0 0-.25.81c-.15.36-.29.73-.42 1.1l.34-.87c-.69 2.77.08 5.99 2.03 9.36z"/>
</svg>
