<svg viewBox="0 0 528 87" aria-hidden="true" fill="currentColor" xmlns="http://www.w3.org/2000/svg"><path fill-rule="evenodd" clip-rule="evenodd" d="M11.403 3.719c5.669-2.519 11.74-.08 14.196 5.304L45.095 54.99l15.198-35.825C65.438 7.4 73.871 2.73 84.49 2.73c6.866 0 15.157 3.792 20.028 10.102 0 0 10.487-10.102 22.469-10.102 11.355 0 18.064 3.792 22.931 10.102 0 0 9.159-10.116 23.781-10.116 14.64 0 26.806 10.599 26.806 25.727v41.168c0 6.814-3.941 12.402-11.202 12.402-7.264 0-11.053-5.588-11.053-12.402V33.44c0-6.814-4.551-11.504-11.354-11.504-6.817 0-11.795 4.527-11.795 11.504V69.61c0 6.814-3.948 12.402-11.212 12.402-7.258 0-11.049-5.588-11.049-12.402V33.44c0-6.814-4.535-11.504-11.348-11.504-6.813 0-11.812 4.527-11.812 11.504V69.61c0 6.814-3.927 12.402-11.192 12.402-7.27 0-11.049-5.588-11.049-12.402V25.408c0-1.915-1.502-3.34-3.288-3.351-2.113-.014-2.78 1.446-2.99 1.925-.209.472-20.968 45.674-20.968 45.674-3.74 7.73-7.188 12.357-15.098 12.357-7.403 0-11.347-4.25-15.09-12.357L6.203 17.921c-2.564-5.387-.475-11.68 5.2-14.202zm425.342 39.426c0 23.032 16.534 38.737 36.783 38.737 12.534 0 20.811-4.479 27.788-11.24 1.155-.996 1.724-2.297 1.724-3.587 0-2.602-2.148-4.763-4.847-4.763-1.29 0-2.286.575-3.143 1.287-5.425 5.04-12.103 8.641-21.231 8.641-13.13 0-24.384-9.068-25.938-25.182h53.292a5.16 5.16 0 005.138-5.2c0-19.736-12.412-37.72-34.209-37.72-20.384 0-35.357 17.28-35.357 38.73v.297zm35.059-29.66c14.685 0 22.386 11.795 23.531 25.342h-47.461c1.408-14.55 11.101-25.342 23.93-25.342zm-76.852-3.636c0-3.063 2.47-5.679 5.52-5.679 3.215 0 5.678 2.473 5.678 5.679v12.88c5.523-12.509 17.773-18.413 25.89-18.413 3.362 0 5.544 2.47 5.544 5.668 0 3.06-2.026 5.232-4.961 5.669-14.553 1.745-26.469 12.662-26.469 34.344v25.508c0 3.057-2.324 5.669-5.523 5.669-3.202 0-5.675-2.484-5.675-5.669l-.004-65.656zm-166.167 66.36l-22.796-63.477-.099-.297c-.282-.832-.626-1.85-.626-2.756 0-2.751 2.325-5.363 5.655-5.363 2.907 0 4.801 1.887 5.668 4.638l18.89 54.697 19.024-54.85c.868-2.602 2.613-4.489 5.503-4.489h.589c3.057 0 4.944 1.887 5.811 4.49l18.869 54.85L304.46 8.665c.725-2.335 2.311-4.354 5.37-4.354 3.192 0 5.52 2.456 5.52 5.221 0 .867-.323 1.839-.594 2.655l-.002.006-.005.013-.005.017c-.042.125-.082.246-.119.362L291.684 76.21c-1.173 3.323-3.487 5.068-6.106 5.068h-.434c-2.907 0-5.089-1.745-6.112-5.068l-18.723-53.942-18.886 53.942c-1.017 3.323-3.202 5.068-6.099 5.068h-.305c-2.751 0-5.065-1.745-6.234-5.068zm86.763-17.64v-.291c0-15.805 13.057-24.228 32.051-24.228 9.578 0 16.391 1.304 23.076 3.202v-2.623c0-13.478-8.291-20.45-22.344-20.45-7.546 0-11.937.96-17.46 3.42-.715.291-1.447.44-2.012.44-2.613 0-4.944-2.182-4.944-4.787 0-2.314 1.01-3.746 3.053-4.652 7.386-3.205 12.954-4.27 22.521-4.27 10.581 0 18.706 2.747 24.208 8.263 5.086 5.075 7.698 12.326 7.698 21.904v41.38c0 3.18-2.321 5.509-5.384 5.509-3.178 0-5.332-2.325-5.332-5.221V69.01c-5.232 6.831-13.943 12.912-27.115 12.912-13.932-.01-28.016-7.979-28.016-23.354zm55.27-5.803V45.51c-5.523-1.592-12.93-3.191-22.061-3.191-14.049 0-21.893 6.099-21.893 15.517v.288c0 9.426 8.693 14.938 18.858 14.938 13.772 0 25.096-8.416 25.096-20.297zm136.398-39.26v-.063c0-5.061 4.108-9.325 9.27-9.325 5.235 0 9.287 4.218 9.287 9.287v.038c0 5.079-4.097 9.342-9.287 9.342-5.235 0-9.27-4.204-9.27-9.28zm16.774-.063v-.024c0-4.163-3.216-7.577-7.504-7.577-4.25 0-7.514 3.473-7.514 7.601v.049c0 4.152 3.226 7.566 7.514 7.566 4.236 0 7.504-3.466 7.504-7.615zM513.936 8.78a.99.99 0 00-.999.993h.004v7.08c0 .548.44.985.999.985a.97.97 0 00.981-.985v-1.957h1.579l1.925 2.436c.233.284.531.51.972.51.471 0 .936-.361.936-.91 0-.304-.128-.51-.319-.759l-1.367-1.665c1.079-.454 1.794-1.318 1.794-2.734v-.027c0-.833-.278-1.551-.788-2.047-.558-.59-1.457-.92-2.622-.92h-3.095zm4.479 3.095c0 .767-.531 1.27-1.495 1.27v-.004h-2.009v-2.584h1.974c.961 0 1.53.45 1.53 1.287v.03z"/></svg>
