<svg xmlns="http://www.w3.org/2000/svg" viewBox="0 0 825.57 239.45" aria-hidden="true">
  <path fill="currentColor" d="M119.72 0a119.73 119.73 0 1 0 119.73 119.72A119.72 119.72 0 0 0 119.72 0zm39.64 159.36l10.06 20.13H80.09L70 155l70.46-74.86H80.09L70 60h89.34l10.06 24.53L99 159.36zm240.27-86.69V60H321v17.79h52.47l-57.8 88.93v12.72h84.47v-17.83h-58.31zM779.38 60h-37.63v119.44h21.19v-43.92h17.17c25.73 0 45.46-12.09 45.46-38.73 0-27.63-19.66-36.79-46.19-36.79zm-1 58.61h-15.44v-41.7h14.69c17.76 0 27 5 27 19.88.04 14.69-8.44 21.78-26.27 21.78zm-102.77 60.83h21.19V60h-21.19zM504.5 128.65c0 26-10.08 34.57-24.7 34.57s-24.19-8.55-24.19-34.57V60h-21.19v67c0 39.25 17.68 54.59 45.38 54.59s45.09-15.34 45.09-54.59V60H504.5zm86-68.69h-21.2v119.48h70.8v-17.83h-49.62z"/>
</svg>
