<svg viewBox="0 0 16 16"><path d="M3.347 11.76a1.063 1.063 0 0 0 1.067 1.068h.708v2.182a.99.99 0 1 0 1.98 0v-2.183H8.42v2.183a.99.99 0 0 0 1.979 0v-2.183h.707a1.062 1.062 0 0 0 1.068-1.067V5.364H3.347v6.397zm10.184-6.566a.983.983 0 0 0-.99.99v4.122a.989.989 0 1 0 1.98 0V6.184a.983.983 0 0 0-.99-.99zm-11.543 0a.984.984 0 0 0-.988.99v4.122a.99.99 0 1 0 1.98 0V6.184a.984.984 0 0 0-.992-.99zM9.925 1.47l.696-1.258a.141.141 0 0 0-.193-.19.139.139 0 0 0-.052.053l-.707 1.274a4.757 4.757 0 0 0-3.82 0L5.146.074a.14.14 0 0 0-.191-.056.136.136 0 0 0-.056.19l.698 1.261c-1.34.698-2.246 2.024-2.249 3.547h8.827c-.002-1.523-.908-2.85-2.25-3.547h.001zM5.723 3.4a.368.368 0 1 1 0-.735.368.368 0 0 1 0 .735zm4.074 0a.368.368 0 1 1 .001 0h-.001z" fill="currentColor"/></svg>