<svg viewBox="0 0 16 16"><path d="M14.486 12.47a8.696 8.696 0 0 1-.86 1.547 7.858 7.858 0 0 1-1.095 1.338 2.15 2.15 0 0 1-1.425.627 3.569 3.569 0 0 1-1.325-.314 3.775 3.775 0 0 0-1.417-.313c-.501.01-.996.116-1.458.313-.395.178-.817.29-1.25.33a2.024 2.024 0 0 1-1.457-.646 8.25 8.25 0 0 1-1.168-1.385 9.59 9.59 0 0 1-1.225-2.434 8.915 8.915 0 0 1-.525-2.9A5.298 5.298 0 0 1 1.99 5.86a4.083 4.083 0 0 1 1.457-1.475 3.92 3.92 0 0 1 1.97-.555 4.64 4.64 0 0 1 1.525.355c.386.17.792.29 1.208.355.46-.095.908-.235 1.34-.418A4.43 4.43 0 0 1 11.31 3.8c1.347.108 2.357.64 3.03 1.595-1.206.737-1.802 1.757-1.787 3.06A3.377 3.377 0 0 0 13.66 11c.326.31.706.556 1.12.727-.088.259-.182.509-.282.75l-.013-.007zM11.401.32a3.412 3.412 0 0 1-.875 2.25c-.702.823-1.552 1.298-2.475 1.223a2.502 2.502 0 0 1-.02-.316 3.5 3.5 0 0 1 .928-2.25c.316-.355.7-.644 1.13-.85.402-.211.842-.34 1.295-.377a2.9 2.9 0 0 1 .017.32z" fill="currentColor"/></svg>