<svg viewBox="0 0 16 16"><path d="M9.979 6.657c-.271.069-.494.128-.721.188l-.578.152L8.667 7c-.103.028-.114.031-.211-.08a1.035 1.035 0 0 0-.363-.294c-.487-.24-.959-.17-1.4.116-.525.34-.795.842-.788 1.468.008.619.433 1.129 1.044 1.214.525.07.966-.116 1.314-.51.051-.063.099-.13.151-.205l.057-.081H6.98c-.163 0-.201-.1-.147-.232.1-.24.286-.642.394-.843a.209.209 0 0 1 .193-.123h2.488c.111-.354.293-.689.535-1.005.564-.742 1.244-1.129 2.164-1.291.788-.14 1.53-.062 2.203.394.61.418.989.982 1.09 1.724.13 1.043-.17 1.894-.89 2.62a3.54 3.54 0 0 1-1.854.99 4.277 4.277 0 0 1-.41.049c-.07.006-.14.012-.209.02-.703-.015-1.345-.216-1.886-.68a2.43 2.43 0 0 1-.773-1.204c-.09.183-.198.357-.324.524-.557.734-1.283 1.19-2.203 1.314-.758.1-1.461-.047-2.08-.51a2.428 2.428 0 0 1-.981-1.716c-.1-.843.147-1.6.657-2.265A3.43 3.43 0 0 1 7.11 5.057c.727-.132 1.422-.047 2.048.378.41.271.704.642.897 1.09.046.07.016.109-.077.132zm-8.727.139c-.03 0-.039-.016-.023-.039l.162-.208c.016-.024.054-.04.085-.04h2.76c.03 0 .038.024.023.047l-.131.201c-.016.023-.055.047-.078.047l-2.798-.008zm-1.167.71c-.03 0-.039-.015-.023-.038l.162-.208C.24 7.236.278 7.22.31 7.22h3.525c.03 0 .046.023.039.046l-.062.186c-.008.03-.039.046-.07.046l-3.656.008zm1.847.666c-.015.023-.007.046.024.046l1.685.008c.023 0 .054-.023.054-.054l.015-.186c0-.03-.015-.054-.046-.054H2.118c-.031 0-.062.023-.077.047l-.109.193zm12.44-.446c0 .026.002.053.005.082-.039.665-.371 1.16-.982 1.477-.41.208-.835.232-1.26.046a1.273 1.273 0 0 1-.71-1.46c.17-.727.633-1.183 1.352-1.346.734-.17 1.438.263 1.577 1.028.01.055.014.11.017.173z" fill="currentColor"/></svg>