<svg xmlns="http://www.w3.org/2000/svg" viewBox="0 0 16 16"><path fill="currentColor" d="M5.81,15.71a.74.74,0,0,1-.56-.26L.18,9.67A.64.64,0,0,1,0,9.42a1,1,0,0,1,0-.3.74.74,0,0,1,.08-.28A.81.81,0,0,1,.24,8.6.94.94,0,0,1,.5,8.46a.57.57,0,0,1,.29,0,.73.73,0,0,1,.29.07,1.3,1.3,0,0,1,.23.18l4.43,5.05L14.61.62a.7.7,0,0,1,.2-.22,1,1,0,0,1,.28-.13.76.76,0,0,1,.3,0,.86.86,0,0,1,.28.11.73.73,0,0,1,.21.22A.61.61,0,0,1,16,.88a.65.65,0,0,1,0,.31.68.68,0,0,1-.13.27L6.43,15.38a.79.79,0,0,1-.25.23.75.75,0,0,1-.32.1Z"/></svg>
