<svg viewBox="0 0 16 16"><path d="M8 9.496a1.424 1.424 0 1 0 0-2.848 1.424 1.424 0 0 0 0 2.848zm7.146-2.843a6.478 6.478 0 0 0-2.02-1.06 11.753 11.753 0 0 0-.505-.165 8.86 8.86 0 0 0 .083-.354c.397-1.919.114-3.414-.732-3.904-.414-.227-.985-.227-1.641 0a6.48 6.48 0 0 0-1.924 1.213l-.38.378-.277-.252C6.285 1.22 4.846.716 4.013 1.196c-.404.252-.682.732-.808 1.44a6.48 6.48 0 0 0 .075 2.272c.034.185.076.362.127.53l-.581.202C1.083 6.246.048 7.155.048 8.115c0 .495.293 1.01.833 1.465.618.485 1.32.853 2.071 1.085.141.05.284.098.43.142l-.13.563c-.338 1.793-.05 3.157.758 3.611.233.124.494.185.758.177.318-.014.631-.083.926-.202.74-.291 1.42-.717 2.005-1.255l.339-.303c.143.134.286.264.43.389 1.01.883 2.002 1.348 2.777 1.348.264.008.526-.056.758-.184.429-.253.72-.758.853-1.465a6.437 6.437 0 0 0-.076-2.366l-.1-.43.302-.093c1.844-.618 3.005-1.59 3.005-2.576-.007-.505-.29-.984-.828-1.439l-.013.07zM8.833 2.9a5.808 5.808 0 0 1 1.717-1.086c.455-.169.834-.186 1.066-.05.232.136.43.505.505 1.01a6.12 6.12 0 0 1-.08 2.172l-.071.313a16.314 16.314 0 0 0-2.13-.339A16.105 16.105 0 0 0 8.478 3.24c.101-.118.22-.23.354-.336l.002-.003zM4.735 8.88c.141.274.293.55.454.826.169.286.337.564.505.833-.497-.05-.992-.125-1.482-.227.152-.43.328-.91.53-1.389l-.007-.043zm0-1.596a15.385 15.385 0 0 1-.505-1.379c.454-.1.942-.184 1.444-.252-.168.26-.337.527-.505.798-.168.283-.32.56-.454.833h.02zm.353.803c.202-.43.43-.858.677-1.288.253-.424.505-.833.773-1.227.48-.038.96-.056 1.464-.056.506 0 .985.018 1.465.056.278.389.53.798.758 1.227.227.43.48.859.707 1.278-.202.424-.43.848-.682 1.273-.253.429-.505.846-.758 1.237a21.278 21.278 0 0 1-2.904 0c-.252-.394-.53-.795-.782-1.237-.228-.404-.455-.834-.682-1.263h-.036zm5.718 1.616c.168-.283.328-.565.48-.846.192.458.36.926.504 1.402-.491.115-.989.204-1.49.268.169-.266.337-.538.505-.816v-.008zm.48-2.419c-.135-.273-.287-.55-.455-.833a75.89 75.89 0 0 0-.48-.796c.493.058.982.147 1.465.265-.152.463-.32.918-.505 1.364h-.026zm-3.284-3.56c.34.362.66.741.96 1.136a21.049 21.049 0 0 0-1.869 0c.293-.399.611-.779.952-1.137h-.043zm-4.166-1.01c.1-.46.278-.796.505-.94.227-.144.631-.116 1.136.066a6.119 6.119 0 0 1 1.816 1.197c.08.068.159.144.24.22a16.32 16.32 0 0 0-1.356 1.679c-.716.062-1.427.172-2.13.328-.04-.168-.076-.33-.108-.487a5.808 5.808 0 0 1-.09-2.071l-.013.007zm-.28 7.419c-.135-.04-.267-.083-.397-.127a5.757 5.757 0 0 1-1.861-.985C.929 8.693.707 8.34.707 8.087c0-.707 1.162-1.424 2.31-1.826.177-.06.36-.118.549-.171.213.682.471 1.349.772 1.997a16.428 16.428 0 0 0-.782 2.046zm3.686 3.106C5.917 14.4 4.8 14.653 4.343 14.4c-.606-.353-.656-1.717-.429-2.911.034-.177.073-.354.119-.53.699.153 1.408.26 2.121.318.417.593.872 1.158 1.364 1.691l-.276.27zm.783-.758a16.628 16.628 0 0 1-.96-1.149 24.026 24.026 0 0 0 1.895-.003c-.294.399-.607.781-.94 1.147l.005.005zm3.611 1.92c-.606.353-1.81-.291-2.732-1.087a16.192 16.192 0 0 1-.399-.36c.482-.536.926-1.103 1.33-1.698a15.997 15.997 0 0 0 2.167-.333c.034.131.063.26.086.386.329 1.748 0 2.829-.454 3.094l.002-.003zm1.101-4.395l-.265.084a15.877 15.877 0 0 0-.783-2.02c.305-.646.567-1.31.783-1.99.168.047.329.097.48.151a5.808 5.808 0 0 1 1.818.94c.354.313.576.643.576.909 0 .512-.798 1.35-2.55 1.931l-.059-.005z" fill="currentColor"/></svg>