<svg viewBox="0 0 16 16" version="1.1">
  <path d="M14.63 9.54A15.94 15.94 0 0 0 11.3 4.7a16 16 0 0 0-4.84-3.34A15.77 15.77 0 0 0 .76 0a.7.7 0 0 0-.5.2.7.7 0 0 0-.26.53v1.62a.72.72 0 0 0 .2.5.68.68 0 0 0 .48.22 12.74 12.74 0 0 1 4.64 1.16 12.93 12.93 0 0 1 3.82 2.63 12.93 12.93 0 0 1 2.63 3.82 12.53 12.53 0 0 1 1.15 4.64.68.68 0 0 0 .22.48.73.73 0 0 0 .5.2h1.63a.67.67 0 0 0 .52-.23.68.68 0 0 0 .2-.53 15.78 15.78 0 0 0-1.37-5.7zM7.2 8.8a9.8 9.8 0 0 0-2.94-2.07 10.24 10.24 0 0 0-3.48-.9H.73a.66.66 0 0 0-.5.17.68.68 0 0 0-.23.55v1.53a.7.7 0 0 0 .2.5.73.73 0 0 0 .46.22 7 7 0 0 1 4.45 2.1 7 7 0 0 1 2.1 4.44.72.72 0 0 0 .72.66h1.53a.68.68 0 0 0 .54-.24.67.67 0 0 0 .18-.54 10.18 10.18 0 0 0-.9-3.48A10 10 0 0 0 7.2 8.8zm-5 2.84a2.1 2.1 0 0 0-1.54.63A2.1 2.1 0 0 0 0 13.82a2.08 2.08 0 0 0 .64 1.54 2.08 2.08 0 0 0 1.54.64 2.1 2.1 0 0 0 1.55-.64 2.1 2.1 0 0 0 .63-1.54 2.15 2.15 0 0 0-2.18-2.18z" fill="currentColor"/>
</svg>
