<svg viewBox="0 0 16 16"><path d="M15.887 7.797l-.675-.416c-.01-.067-.01-.135-.022-.191l.574-.54c.056-.056.09-.135.067-.214a.206.206 0 0 0-.146-.169l-.743-.281c-.022-.068-.033-.124-.056-.191l.461-.642a.23.23 0 0 0-.157-.36l-.776-.123c-.034-.057-.057-.113-.09-.18l.326-.72a.232.232 0 0 0-.023-.226.24.24 0 0 0-.202-.1l-.788.022c-.045-.057-.079-.102-.124-.147l.18-.765a.214.214 0 0 0-.056-.214.214.214 0 0 0-.214-.056l-.765.18c-.045-.045-.101-.079-.146-.124l.022-.787a.24.24 0 0 0-.1-.203.23.23 0 0 0-.226-.022l-.72.326a.895.895 0 0 0-.18-.09l-.113-.776a.248.248 0 0 0-.135-.18.23.23 0 0 0-.225.022l-.64.461c-.068-.022-.125-.033-.192-.056L9.722.293a.196.196 0 0 0-.158-.135.249.249 0 0 0-.214.067L8.81.8C8.743.788 8.675.788 8.608.776L8.19.101A.232.232 0 0 0 8-.01.218.218 0 0 0 7.809.1l-.417.675a.99.99 0 0 0-.19.023L6.65.225C6.594.17 6.515.135 6.436.158c-.079.01-.135.067-.169.146l-.281.742c-.068.023-.124.034-.191.057L5.153.64a.23.23 0 0 0-.36.158l-.124.776c-.056.034-.112.057-.18.09l-.72-.326a.232.232 0 0 0-.225.022.24.24 0 0 0-.101.203l.023.788c-.057.045-.102.078-.147.123l-.765-.18a.214.214 0 0 0-.214.057.214.214 0 0 0-.056.213l.18.766c-.045.045-.079.1-.124.146l-.787-.023a.24.24 0 0 0-.203.102.23.23 0 0 0-.022.225l.326.72a.897.897 0 0 0-.09.18l-.776.112a.248.248 0 0 0-.18.135.23.23 0 0 0 .022.225l.461.642c-.022.067-.045.123-.056.191l-.742.281c-.068.034-.124.09-.135.169a.249.249 0 0 0 .067.214l.574.54c-.011.067-.011.135-.023.202l-.675.417A.232.232 0 0 0-.01 8c0 .079.045.158.112.191l.675.417a.99.99 0 0 0 .023.19l-.574.552c-.056.056-.09.135-.067.214a.206.206 0 0 0 .146.169l.742.281c.023.068.034.124.057.191l-.462.642a.23.23 0 0 0-.022.225c.022.067.09.112.169.123l.776.124c.034.056.056.113.09.18l-.326.72a.232.232 0 0 0 .022.226.24.24 0 0 0 .203.1l.787-.022c.045.056.08.101.124.146l-.18.766a.214.214 0 0 0 .056.213c.057.057.135.08.214.057l.765-.18c.045.045.102.078.147.123l-.023.788a.24.24 0 0 0 .101.203.23.23 0 0 0 .225.022l.72-.326c.057.033.113.067.18.09l.124.776a.248.248 0 0 0 .135.18.23.23 0 0 0 .225-.022l.642-.462c.067.023.123.045.19.057l.282.742c.023.079.09.135.169.146a.25.25 0 0 0 .214-.067l.54-.574c.067.011.135.011.191.023l.416.675a.232.232 0 0 0 .192.112.218.218 0 0 0 .191-.112l.416-.675c.068-.012.135-.012.192-.023l.54.574c.056.056.135.09.213.067a.206.206 0 0 0 .17-.146l.28-.742c.068-.023.124-.034.192-.057l.641.462a.23.23 0 0 0 .36-.158l.124-.776a.896.896 0 0 1 .18-.09l.72.326a.232.232 0 0 0 .225-.022.24.24 0 0 0 .101-.203l-.022-.788c.056-.045.101-.078.146-.123l.765.18c.08.022.158 0 .214-.057.056-.056.079-.135.056-.213l-.18-.766c.045-.045.08-.1.124-.146l.788.023a.24.24 0 0 0 .202-.101.23.23 0 0 0 .023-.226l-.327-.72c.034-.056.068-.112.09-.18l.777-.124a.248.248 0 0 0 .18-.135.23.23 0 0 0-.023-.225l-.46-.64c.022-.068.033-.125.055-.192l.743-.281a.206.206 0 0 0 .146-.17.249.249 0 0 0-.067-.213l-.574-.54c.011-.068.011-.135.022-.191l.675-.417A.232.232 0 0 0 16 8a.251.251 0 0 0-.113-.203zm-4.489 5.581a.467.467 0 0 1-.36-.562.467.467 0 0 1 .563-.36.473.473 0 0 1-.203.923zm-.236-1.552a.444.444 0 0 0-.518.337l-.236 1.114a5.76 5.76 0 0 1-2.42.518c-.877 0-1.71-.192-2.463-.54l-.237-1.114a.438.438 0 0 0-.517-.338l-.98.214a6.45 6.45 0 0 1-.506-.596h4.783c.056 0 .09-.012.09-.057V9.677c0-.045-.034-.057-.09-.057H6.672V8.551H8.18c.135 0 .743.045.934.81.056.237.191 1.002.281 1.25.09.27.462.82.844.82h2.385c.023 0 .057 0 .09-.01a5.891 5.891 0 0 1-.54.63l-1.012-.225zm-6.605 1.53a.476.476 0 0 1-.563-.36.476.476 0 0 1 .36-.563.473.473 0 0 1 .203.923zM2.745 5.997a.487.487 0 0 1-.236.63.482.482 0 0 1-.63-.247.487.487 0 0 1 .236-.63.492.492 0 0 1 .63.247zm-.562 1.328l1.024-.45a.448.448 0 0 0 .225-.574l-.214-.473h.833v3.736H2.374a5.79 5.79 0 0 1-.191-2.24zm4.49-.371V5.85H8.64c.102 0 .72.112.72.585 0 .383-.472.518-.866.518H6.672zm7.178.99c0 .146 0 .292-.011.439h-.597c-.056 0-.079.045-.079.1v.27c0 .653-.37.789-.686.822-.304.034-.641-.123-.686-.315-.18-1.012-.484-1.226-.957-1.598.585-.37 1.204-.922 1.204-1.665 0-.799-.551-1.294-.922-1.541a2.733 2.733 0 0 0-1.272-.405h-6.2A5.837 5.837 0 0 1 6.92 2.205l.731.765c.169.17.439.18.608.012l.821-.788a5.87 5.87 0 0 1 4.006 2.847l-.563 1.26a.432.432 0 0 0 .225.574l1.08.484c.012.202.023.393.023.585zm-6.2-6.402a.479.479 0 0 1 .675.01.49.49 0 0 1-.011.676.479.479 0 0 1-.675-.011.469.469 0 0 1 .011-.675zM13.21 6.02a.484.484 0 0 1 .63-.248c.236.101.348.383.236.63a.484.484 0 0 1-.63.248c-.236-.101-.349-.383-.236-.63z" fill="currentColor"/></svg>