<svg viewBox="0 0 16 16"><path d="M4.13 15h7.74A3.143 3.143 0 0 0 15 11.87V4.13A3.128 3.128 0 0 0 11.87 1H4.13A3.113 3.113 0 0 0 1 4.13v7.74A3.128 3.128 0 0 0 4.13 15zm8.013-5.419a.338.338 0 0 1-.024.083c1.204 1.487.874 3.069.732 2.786-.637-1.228-1.818-.921-2.408-.614-.047.047-.094.07-.142.094h-.023c-1.228.661-2.88.709-4.556 0a7.353 7.353 0 0 1-3.306-2.833c.378.284.803.52 1.228.732 1.77.826 3.541.756 4.792 0C6.642 8.46 5.155 6.666 4.022 5.226a6.338 6.338 0 0 1-.59-.803C4.8 5.674 6.949 7.256 7.728 7.681 6.1 5.958 4.636 3.809 4.706 3.88c2.597 2.596 4.982 4.083 4.982 4.083.055.028.102.056.141.078.028.017.051.03.071.04.05-.1.077-.189.105-.282.011-.038.023-.078.037-.12.401-1.51-.048-3.257-1.11-4.673 2.384 1.44 3.825 4.178 3.234 6.492a.338.338 0 0 0-.023.082z" fill="currentColor"/></svg>