<svg viewBox="0 0 16 16"><path d="M12.74 11.107c-.417 0-.536-.238-.536-.238 0-.119-.06-1.666-.06-3.214 0-1.607 0-3.214.06-3.214.476-.833 1.905-2.559 1.905-2.559-2.679.536-4.167 2.321-4.167 2.321-.416-.357-1.309-.297-1.309-.297.417.238.833.892.833 1.428v5.416s-.892.774-1.607.774c-.416 0-.654-.238-.833-.417-.119-.119-.119-.238-.119-.238V4.203c-.06.06-.179.12-.357.12-.12 0-.298-.06-.417-.298a2.332 2.332 0 0 1-.119-.774c0-1.25 1.429-2.083 1.429-2.083-1.786.476-3.452 1.369-5.595 3.928C-.354 7.596.062 9.679.062 9.679S.658 8.25 2.146 6.762c.714-.714 1.19-.952 1.547-.952.417 0 .595.298.595.536v5.118c0 .476-.297.596-.595.596-.238 0-.476-.12-.476-.12 1.488 2.143 5.059 2.5 5.059 2.5l1.547-1.666.06.06 1.428 1.25c2.62-1.548 3.869-4.465 3.869-4.465-1.25 1.19-2.024 1.488-2.44 1.488z" fill="currentColor"/></svg>