<svg width="148" height="148" viewBox="0 0 148 148" fill="none" xmlns="http://www.w3.org/2000/svg" preserveAspectRatio="xMinYMin">
<g clip-path="url(#clip0_6_10343)">
<circle cx="74" cy="74" r="74" fill="white"/>
<path d="M69.1504 37.6001L36.0201 51.3088C34.1778 52.0713 34.1969 54.6887 36.0508 55.4235L69.3192 68.6164C72.2422 69.7756 75.4975 69.7756 78.4205 68.6164L111.689 55.423C113.543 54.6887 113.563 52.0718 111.72 51.3093L78.5903 37.5996C75.5678 36.3489 72.1724 36.3489 69.1499 37.5996" fill="#FCB400"/>
<path d="M76.8215 75.8203V108.778C76.8215 110.345 78.4022 111.419 79.8593 110.842L116.93 96.4524C117.344 96.2885 117.699 96.0041 117.948 95.6362C118.198 95.2683 118.332 94.8338 118.332 94.389V61.4315C118.332 59.8639 116.751 58.7905 115.294 59.3681L78.2229 73.7574C77.8095 73.9214 77.4549 74.2058 77.2051 74.5737C76.9552 74.9416 76.8216 75.376 76.8215 75.8208" fill="#18BFFF"/>
<path d="M68.1643 77.521L57.1624 82.8331L56.0453 83.373L32.8209 94.501C31.3493 95.2112 29.4697 94.1383 29.4697 92.5029V61.5696C29.4697 60.9779 29.7731 60.4671 30.1799 60.0828C30.3469 59.9166 30.5362 59.7746 30.7425 59.6609C31.297 59.3279 32.0886 59.239 32.7617 59.5052L67.9794 73.4595C69.7696 74.1698 69.9102 76.6781 68.1643 77.5215" fill="#F82B60"/>
<path d="M68.165 77.521L57.1631 82.8331L30.1807 60.0823C30.3476 59.9163 30.537 59.7745 30.7432 59.6609C31.2977 59.3279 32.0893 59.239 32.7624 59.5052L67.9801 73.4595C69.7703 74.1698 69.9109 76.6781 68.165 77.5215" fill="black" fill-opacity="0.25"/>
</g>
<defs>
<clipPath id="clip0_6_10343">
<rect width="148" height="148" fill="white"/>
</clipPath>
</defs>
</svg>
