<svg width="148" height="148" viewBox="0 0 148 148" fill="none" xmlns="http://www.w3.org/2000/svg" preserveAspectRatio="xMinYMin">
<g clip-path="url(#clip0_6_10363)">
<circle cx="74" cy="74" r="74" fill="white"/>
<path d="M58.1285 65.0226C57.897 64.7194 57.5912 64.4812 57.2407 64.3309C56.8901 64.1807 56.5067 64.1235 56.1275 64.165C55.7484 64.2065 55.3864 64.3451 55.0766 64.5676C54.7668 64.7901 54.5197 65.0888 54.3593 65.4349L35.2427 103.668C35.068 104.016 34.9853 104.403 35.0022 104.792C35.019 105.181 35.1351 105.559 35.3392 105.891C35.5433 106.222 35.8288 106.496 36.1685 106.687C36.5083 106.877 36.891 106.977 37.2804 106.978H63.9C64.3309 106.986 64.7547 106.868 65.119 106.638C65.4833 106.407 65.772 106.075 65.9494 105.682C71.6856 93.9037 68.2109 75.8 58.1285 65.0226V65.0226Z" fill="url(#paint0_linear_6_10363)"/>
<path d="M72.1571 30.2994C67.3916 37.6307 64.6144 46.0752 64.0981 54.8039C63.5819 63.5327 65.3443 72.2456 69.2125 80.0875L82.11 105.682C82.2981 106.063 82.5883 106.383 82.9482 106.608C83.3081 106.832 83.7235 106.953 84.1477 106.954H110.767C111.14 106.924 111.501 106.804 111.819 106.607C112.137 106.409 112.403 106.138 112.595 105.817C112.787 105.495 112.9 105.133 112.924 104.759C112.949 104.386 112.884 104.012 112.734 103.668L76.0441 30.2994C75.8683 29.9331 75.5926 29.6239 75.2488 29.4074C74.9049 29.191 74.5069 29.0762 74.1006 29.0762C73.6943 29.0762 73.2963 29.191 72.9524 29.4074C72.6085 29.6239 72.3328 29.9331 72.1571 30.2994V30.2994Z" fill="#2684FF"/>
</g>
<defs>
<linearGradient id="paint0_linear_6_10363" x1="68.6114" y1="70.9237" x2="48.4347" y2="105.883" gradientUnits="userSpaceOnUse">
<stop stop-color="#0052CC"/>
<stop offset="0.92" stop-color="#2684FF"/>
</linearGradient>
<clipPath id="clip0_6_10363">
<rect width="148" height="148" fill="white"/>
</clipPath>
</defs>
</svg>
