<svg width="148" height="148" viewBox="0 0 148 148" fill="none" xmlns="http://www.w3.org/2000/svg" preserveAspectRatio="xMinYMin">
<g clip-path="url(#clip0_6_10350)">
<circle cx="74" cy="74" r="74" fill="white"/>
<path d="M116.617 66.919L104.576 64.1239L102.426 63.2639L47.1696 63.6939V90.3547L116.617 90.5697V66.919Z" fill="white"/>
<path d="M94.0417 87.99C94.3876 87.0743 94.5096 86.0891 94.3974 85.1167C94.2852 84.1442 93.9421 83.2127 93.3967 82.3998C92.8365 81.7282 92.1494 81.1736 91.3746 80.7678C90.5998 80.3619 89.7527 80.1129 88.8816 80.0348L51.4704 79.6048C51.2554 79.6048 51.0404 79.3898 50.8254 79.3898C50.7753 79.3522 50.7347 79.3035 50.7067 79.2475C50.6787 79.1916 50.6642 79.1298 50.6642 79.0673C50.6642 79.0047 50.6787 78.9429 50.7067 78.887C50.7347 78.831 50.7753 78.7823 50.8254 78.7447C51.0404 78.3147 51.2554 78.0997 51.6854 78.0997L89.3116 77.6697C91.7003 77.4046 93.9753 76.508 95.9025 75.072C97.8297 73.636 99.3396 71.7126 100.277 69.4995L102.427 63.9093C102.427 63.6943 102.642 63.4793 102.427 63.2643C101.258 58.0577 98.4215 53.3751 94.3482 49.9278C90.275 46.4806 85.1878 44.4573 79.8596 44.1654C74.5314 43.8734 69.2536 45.3288 64.8281 48.3103C60.4026 51.2918 57.0713 55.6365 55.3405 60.6842C53.0936 59.0795 50.353 58.3182 47.6003 58.5341C45.0741 58.8158 42.7189 59.9483 40.9216 61.7457C39.1242 63.543 37.9917 65.8983 37.71 68.4244C37.5669 69.7175 37.6395 71.0253 37.925 72.2945C33.8376 72.4075 29.9556 74.1108 27.1047 77.042C24.2538 79.9732 22.659 83.9011 22.6596 87.99C22.6243 88.7845 22.6966 89.58 22.8746 90.3551C22.8844 90.5229 22.9556 90.6813 23.0745 90.8002C23.1934 90.9191 23.3517 90.9902 23.5196 91.0001H92.5367C92.9667 91.0001 93.3967 90.7851 93.3967 90.3551L94.0417 87.99Z" fill="#F48120"/>
<path d="M105.866 63.9091H104.791C104.576 63.9091 104.361 64.1241 104.146 64.3391L102.641 69.4992C102.295 70.415 102.173 71.4001 102.285 72.3726C102.397 73.345 102.74 74.2765 103.286 75.0894C103.846 75.761 104.533 76.3157 105.308 76.7215C106.083 77.1273 106.93 77.3764 107.801 77.4545L115.756 77.8845C115.971 77.8845 116.186 78.0995 116.401 78.0995C116.451 78.137 116.492 78.1857 116.52 78.2417C116.548 78.2977 116.562 78.3594 116.562 78.422C116.562 78.4846 116.548 78.5463 116.52 78.6023C116.492 78.6583 116.451 78.707 116.401 78.7445C116.186 79.1745 115.971 79.3895 115.541 79.3895L107.371 79.8195C104.982 80.0846 102.707 80.9813 100.78 82.4173C98.8527 83.8532 97.3428 85.7767 96.4055 87.9898L95.9755 89.9248C95.7605 90.1398 95.9755 90.5699 96.4055 90.5699H124.786C124.874 90.5824 124.963 90.5743 125.047 90.5463C125.131 90.5183 125.208 90.4712 125.27 90.4086C125.333 90.346 125.38 90.2697 125.408 90.1858C125.436 90.1018 125.444 90.0125 125.431 89.9248C125.943 88.1031 126.232 86.226 126.291 84.3347C126.257 78.928 124.094 73.7524 120.271 69.9292C116.448 66.1061 111.272 63.9431 105.866 63.9091" fill="#FAAD3F"/>
</g>
<defs>
<clipPath id="clip0_6_10350">
<rect width="148" height="148" fill="white"/>
</clipPath>
</defs>
</svg>
