<svg width="148" height="148" viewBox="0 0 148 148" fill="none" xmlns="http://www.w3.org/2000/svg" preserveAspectRatio="xMinYMin">
<g clip-path="url(#clip0_6_10338)">
<circle cx="74" cy="74" r="74" fill="white"/>
<path d="M68.0563 80.7737C68.1331 80.7737 68.1331 80.7737 68.2099 80.7993C69.3876 80.953 70.5397 81.1578 71.4102 81.5674C72.2295 81.9258 72.7159 82.3867 73.1512 83.2059C73.8168 84.4349 73.868 86.1502 73.2536 87.4559C72.7927 88.4288 71.8198 89.2481 70.9238 89.6833C70.0021 90.1441 69.0804 90.349 68.0307 90.477C66.1874 90.6818 64.1904 90.2978 62.5518 89.5041C61.579 89.0176 60.3757 88.1984 59.7612 87.1487C59.326 86.3806 59.326 85.3565 59.8636 84.6141C60.7341 83.4364 62.5774 83.1803 63.96 83.2316C65.0097 83.2828 66.9298 83.59 67.9283 83.9484C68.2099 84.0508 69.234 84.4605 69.4132 84.6397C69.5412 84.7677 69.6181 84.9469 69.5668 85.1261C69.3364 85.8174 67.6211 86.2014 67.1346 86.2782C65.8033 86.483 65.1377 85.971 63.6271 85.3821C63.2431 85.2285 62.7567 85.0749 62.3726 85.0493C61.6814 84.9725 60.8621 85.1773 60.7341 85.9198C60.6573 86.3038 61.1181 86.6622 61.4509 86.8159C62.2446 87.1743 62.9103 87.2767 63.7039 87.3023C66.0337 87.3279 68.6708 86.9439 70.5909 85.587C70.847 85.4077 71.103 85.1261 71.103 84.7933C71.103 84.102 69.8997 83.6668 69.8997 83.6668C68.6196 83.1291 66.213 82.8731 65.0097 82.7707C63.7295 82.6683 61.6814 82.4891 61.1949 82.4123C60.6829 82.3355 60.1452 82.2331 59.71 82.0538C59.2748 81.849 58.8395 81.4138 58.7115 80.9274C58.4811 80.0569 58.7627 78.9816 59.2492 78.2647C60.5293 76.4214 63.5247 75.7301 65.7777 75.4485C67.9539 75.1669 71.4614 75.1925 73.5864 76.319C73.9192 76.4982 74.0728 76.6518 74.0216 77.0102C73.8936 77.6759 73.3816 78.0855 72.7927 78.2903C72.1527 78.4951 70.847 78.572 70.2837 78.5976C67.7235 78.7512 64.6256 78.6744 62.1678 79.34C61.9886 79.3912 61.6558 79.4936 61.5278 79.596C61.1437 80.0057 62.2446 80.1337 62.475 80.1849C62.5518 80.2105 62.5518 80.2105 62.6287 80.2105L68.0563 80.7737ZM52.7718 69.3296C52.7718 69.3296 53.1814 68.7151 53.5399 68.2287C54.1799 67.3582 55.332 66.1549 56.2025 65.4124C56.4585 65.182 56.7913 64.926 56.7913 64.926C56.7913 64.926 56.3049 64.9772 56.0233 65.0284C55.3576 65.1564 54.4103 65.7965 53.9239 66.2061C53.1302 66.8974 52.2598 67.9982 52.6438 68.9711C52.695 69.1503 52.7718 69.3296 52.7718 69.3296ZM57.201 70.5073C58.4555 70.4305 59.6332 70.0464 60.7341 69.4576C61.8094 68.8687 63.3967 67.691 63.2175 66.3085C63.1663 65.8733 62.8847 65.5148 62.5006 65.3612C62.0142 65.1564 61.7838 65.182 61.1693 65.3612C60.7341 65.4892 60.5293 65.566 60.094 65.8221C58.8651 66.5389 57.0986 68.0751 56.1513 69.304C55.9209 69.5856 55.7161 69.9184 55.5368 70.1488C55.4344 70.2768 55.332 70.4049 55.3576 70.4561C55.4088 70.5585 56.7145 70.5585 57.201 70.5073ZM54.0007 72.8627C53.8727 72.9907 53.7447 73.3235 53.5911 73.5795C53.5143 73.7075 53.3863 73.8611 53.2838 73.938C52.951 74.1684 52.6694 74.194 52.3622 73.9124C51.9269 73.5283 51.6709 72.9139 51.6453 72.325C51.6453 72.069 51.6709 71.7874 51.6197 71.5569C51.5429 71.1985 51.1845 70.8145 50.9797 70.4561C50.7492 70.0464 50.57 69.3296 50.5444 68.8687C50.4676 67.4094 51.2357 66.0781 52.2086 65.0284C53.207 63.9531 54.5128 63.0826 55.9465 62.4682C57.2778 61.9049 59.2492 61.5209 60.7341 62.0329C61.2205 62.1865 61.8862 62.5962 62.219 63.0314C62.2958 63.1082 62.347 63.2106 62.4238 63.2618C62.5006 63.313 62.6543 63.313 62.8079 63.3386C63.2687 63.4155 63.96 63.7739 64.2416 64.0043C64.8048 64.4907 65.1121 64.9516 65.2401 65.6172C65.5217 66.9486 64.7536 68.4335 63.8832 69.3296C62.3726 70.8657 60.8877 71.941 58.9675 72.709C58.1227 73.0419 56.817 73.3491 55.8441 73.2723C55.5368 73.2467 55.2296 73.1699 54.948 73.1443C54.7944 73.1187 54.2567 72.9907 54.2055 72.9651C54.1031 72.8883 54.0263 72.8627 54.0007 72.8627ZM55.7161 75.8325C55.7673 75.8325 55.8697 75.8581 55.9465 75.9093C56.6121 76.1653 56.8938 76.7798 57.073 77.4711C57.457 79.0584 57.6106 82.5915 57.6874 83.974C57.7386 84.9981 57.7642 86.0222 57.8154 87.0463C57.841 87.9168 57.9178 89.0689 57.7386 89.8625C57.6618 90.1441 57.4826 90.5026 57.201 90.6562C56.8682 90.861 56.1513 90.8866 55.7417 90.7842C54.7432 90.5794 54.4359 89.9393 54.2823 88.9664C53.9495 86.6366 54.1031 82.0538 54.3079 80.1337C54.3847 79.4936 54.6152 77.4455 54.948 76.6006C55.0504 76.3446 55.3064 75.7557 55.7161 75.8325ZM25.6847 79.7241C25.6847 79.7241 24.2254 79.8265 23.2013 79.9289C21.9212 80.0569 19.4889 80.4921 18.1064 80.9786C17.6968 81.1322 16.8263 81.4906 16.7751 81.9258C16.6983 82.3611 16.9799 82.7195 17.2872 83.0779C17.4664 83.2828 18.4649 84.2556 18.7465 84.4861C19.9242 85.4845 22.3308 86.9951 24.0973 87.7375C24.7118 87.9936 25.7103 88.352 25.7103 88.352C25.7103 88.352 25.6335 85.4845 25.6591 82.6683C25.6591 81.1834 25.6847 79.7241 25.6847 79.7241ZM52.6182 80.8505C52.695 81.6186 52.5158 83.0779 52.4646 83.2572C52.4134 83.6924 52.0805 84.7165 52.0037 84.8445C51.7221 85.4589 51.4661 85.971 51.1845 86.483C50.698 87.3535 49.5459 88.736 48.8803 89.3249C46.3457 91.5011 42.4285 92.7556 39.0746 93.1652C36.796 93.4468 34.1846 93.3956 31.7524 92.9604C30.9331 92.8068 29.6786 92.5252 29.6786 92.5252C29.6786 92.5252 29.6786 93.0116 29.653 93.37C29.6274 93.5236 29.525 93.9589 29.4482 94.0869C29.269 94.4453 28.9874 94.6245 28.5777 94.7269C28.0657 94.8293 27.528 94.855 27.0672 94.6501C26.2991 94.3173 26.0175 93.6004 25.8895 92.7812C25.7871 92.1155 25.6591 90.9634 25.6591 90.9634C25.6591 90.9634 25.0958 90.6818 24.6094 90.4514C23.1501 89.7345 21.7419 88.8384 20.513 87.9424C20.1802 87.6863 18.7209 86.483 18.3881 86.1758C17.492 85.3309 16.6727 84.4605 16.0583 83.3852C15.5718 82.5403 15.4438 81.7722 15.8022 80.8762C16.3143 79.6216 18.1064 78.6744 19.3353 78.1367C20.2314 77.7271 23.0733 76.8054 24.2254 76.6518C24.7886 76.575 25.6335 76.4214 25.6847 76.3958C25.7103 76.3702 25.7103 76.3702 25.7359 76.3446C25.7615 76.319 25.8127 75.0645 25.7871 74.6036C25.7871 74.1428 26.1199 71.2241 26.2223 70.5841C26.2735 70.2512 26.5296 68.9455 26.7856 68.6127C26.9648 68.3823 27.2464 68.4079 27.5024 68.5615C28.8338 69.4064 29.2434 72.2994 29.3458 73.7587C29.397 74.6548 29.4482 76.0117 29.4482 76.0117C29.4482 76.0117 30.9843 75.9605 31.9316 75.9861C32.8533 76.0117 33.8774 76.1653 34.8247 76.2934C36.0536 76.4982 38.4346 77.0102 39.7915 77.7015C40.918 78.2647 41.9677 79.2376 42.3261 80.2617C42.6333 81.1834 42.6077 81.849 42.1213 82.6939C41.5836 83.6412 40.5596 84.3581 39.5099 84.4093C39.2026 84.4349 38.0249 84.2812 37.6665 83.9996C37.5385 83.8972 37.5385 83.6924 37.6409 83.5644C37.6665 83.5132 38.2298 83.2316 38.537 83.0523C38.6906 82.9755 38.8442 82.8731 38.9466 82.7451C39.2026 82.5147 39.4587 82.2587 39.4331 81.9514C39.4075 81.5674 38.9722 81.3114 38.5882 81.1578C36.7192 80.4153 32.9813 79.8009 31.1892 79.6984C30.4723 79.6472 29.4738 79.6216 29.4738 79.6216L29.6786 89.5809C29.6786 89.5809 30.4979 89.7345 31.1636 89.8369C31.5476 89.8881 33.1349 90.0417 33.5446 90.0417C36.7704 90.1185 40.3547 89.8369 43.299 88.4544C44.6047 87.8399 45.7824 87.0975 46.6785 86.0478C47.8562 84.6909 48.4962 82.8219 48.317 80.8762C48.1378 78.7512 46.6529 76.2422 45.4496 74.706C42.3005 70.6609 36.8984 67.307 32.1364 65.3612C27.272 63.3642 22.4844 62.2121 17.3384 62.0329C16.007 61.9817 13.114 62.0585 11.6547 62.4682C11.4499 62.5194 11.245 62.5962 11.0402 62.6474C10.8866 62.673 10.6562 62.7754 10.5794 62.8522C10.5538 62.8778 10.5026 62.929 10.5026 62.929C10.5026 62.929 10.605 62.9802 10.6818 63.0058C10.8354 63.0826 11.5011 63.1082 11.8339 63.185C12.1411 63.2362 12.4483 63.3898 12.5764 63.6203C12.7044 63.8251 12.7044 64.0043 12.5764 64.1835C12.2435 64.5932 10.989 64.5163 10.4514 64.4395C9.88812 64.3371 9.17126 64.1835 9.04325 63.6715C8.88964 63.0826 9.17126 62.5194 9.47849 61.9817C10.0929 60.9064 10.9378 60.3688 12.2179 60.0104C14.0101 59.5239 16.2887 59.1655 17.9784 59.1143C21.8187 58.9607 25.4543 59.6519 29.1922 60.7784C31.3172 61.4185 34.1078 62.4938 36.156 63.4923C37.6153 64.2091 39.9451 65.4892 41.2252 66.3597C41.6348 66.6413 44.0415 68.3823 44.3999 68.6895C45.168 69.3296 46.192 70.2256 46.9345 70.9681C48.3682 72.3762 50.1348 74.5268 50.9797 76.2678C51.1845 76.6774 51.3381 77.087 51.6197 77.5479C51.7221 77.7015 52.1061 78.6744 52.1574 78.956C52.2342 79.2376 52.311 79.6472 52.3366 79.6728C52.4646 79.6985 52.6438 80.5177 52.6182 80.8505ZM100.981 78.6488C99.1886 79.0584 94.4522 79.2888 94.4522 79.2888L93.8633 81.1578C93.8633 81.1578 96.2187 80.953 97.9597 81.1322C97.9597 81.1322 98.5229 81.0554 98.5741 81.7722C98.5997 82.4123 98.5229 83.1291 98.5229 83.1291C98.5229 83.1291 98.4973 83.5644 97.8829 83.6668C97.2428 83.7692 92.788 83.9484 92.788 83.9484L92.0712 86.3806C92.0712 86.3806 91.8152 86.9439 92.404 86.7903C92.9673 86.6366 97.6269 85.7662 98.2413 85.8942C98.8814 86.0478 99.6238 86.9183 99.3934 87.7119C99.1374 88.6848 94.4778 91.6547 91.6615 91.4499C91.6615 91.4499 90.1766 91.5523 88.9221 89.5297C87.7444 87.6095 89.3573 83.974 89.3573 83.974C89.3573 83.974 88.6149 82.2843 89.1525 81.6954C89.1525 81.6954 89.4598 81.4138 90.407 81.337L91.5591 78.9816C91.5591 78.9816 90.2534 79.0584 89.4854 78.1111C88.7685 77.215 88.7173 76.7798 89.2549 76.5494C89.8438 76.2678 95.2715 75.2693 98.9838 75.3973C98.9838 75.3973 100.289 75.2693 101.39 77.5223C101.365 77.5223 101.902 78.4439 100.981 78.6488ZM86.9763 87.7375C86.4899 88.864 85.2354 90.0673 83.6737 89.3249C82.1375 88.5824 79.6541 83.5388 79.6541 83.5388C79.6541 83.5388 78.7068 81.6698 78.5276 81.6954C78.5276 81.6954 78.3228 81.337 78.1948 83.3852C78.0668 85.4333 78.2204 89.4273 77.4011 90.0417C76.6331 90.6818 75.6858 90.4258 75.1993 89.6833C74.7641 88.9664 74.5849 87.2255 74.8153 84.2044C75.0969 81.1834 75.8138 77.9575 76.7099 76.959C77.6059 75.9605 78.3228 76.6774 78.6044 76.959C78.6044 76.959 79.8077 78.0599 81.7791 81.2346L82.1375 81.8234C82.1375 81.8234 83.9297 84.8445 84.1345 84.8445C84.1345 84.8445 84.2881 84.9725 84.4161 84.8701C84.5953 84.8189 84.5185 83.846 84.5185 83.846C84.5185 83.846 84.1345 80.5433 82.496 74.9876C82.496 74.9876 82.2399 74.2964 82.4191 73.6307C82.5984 72.9651 83.2384 73.2723 83.2384 73.2723C83.2384 73.2723 85.773 74.5524 87.0275 78.7C88.282 82.8475 87.4372 86.611 86.9763 87.7375ZM114.345 85.2541C113.193 87.2767 109.916 91.5011 105.564 90.5026C104.13 93.9845 102.927 97.5176 102.235 102.766C102.235 102.766 102.082 103.79 101.237 103.432C100.392 103.124 99.0094 101.742 98.7277 99.7962C98.4205 97.236 99.5726 92.9348 101.877 87.9936C101.211 86.8927 100.75 85.3309 101.134 83.0779C101.134 83.0779 101.723 78.9304 105.896 75.1925C105.896 75.1925 106.408 74.7572 106.69 74.8852C106.997 75.0132 106.869 76.3702 106.613 77.0358C106.357 77.7015 104.488 80.9018 104.488 80.9018C104.488 80.9018 103.336 83.0779 103.643 84.7933C105.82 81.4394 110.812 74.6548 113.884 76.7798C114.908 77.5223 115.395 79.1352 115.395 80.8762C115.395 82.4123 115.036 84.0252 114.345 85.2541ZM113.449 79.9289C113.449 79.9289 113.27 78.5976 111.964 80.0569C110.838 81.3114 108.815 83.6412 107.176 86.7903C108.892 86.5854 110.53 85.6638 111.042 85.2029C111.862 84.4861 113.756 82.5147 113.449 79.9289ZM138.309 79.6216H130.346C130.193 76.9078 129.86 74.2708 129.348 71.5569C129.297 71.2753 129.041 71.0705 128.759 71.0705H126.916C126.762 71.0705 126.609 71.1473 126.506 71.2753C126.404 71.4033 126.353 71.557 126.404 71.7362C126.916 74.3732 127.249 76.959 127.428 79.6472H119.773C119.414 79.6472 119.133 79.9289 119.133 80.2873V81.9514C119.133 82.3099 119.414 82.5915 119.773 82.5915H127.556C127.556 83.0011 127.556 83.3596 127.556 83.718C127.556 86.099 127.453 88.0704 127.223 90.2978C127.197 90.477 127.249 90.6306 127.377 90.7586C127.479 90.8866 127.658 90.9634 127.812 90.9634H129.527C129.86 90.9634 130.142 90.7074 130.167 90.3746C130.398 88.1472 130.5 86.1502 130.5 83.718C130.5 83.3852 130.5 83.0011 130.5 82.5915H138.36C138.718 82.5915 139 82.3099 139 81.9514V80.2873C138.949 79.9033 138.667 79.6216 138.309 79.6216Z" fill="#01147B"/>
<path d="M128.247 67.1789C124.202 57.1941 117.315 48.6685 108.405 42.5752C99.2653 36.3027 88.5636 33 77.4267 33C59.0187 33 41.9676 42.14 31.7779 57.4501C31.6755 57.6037 31.6499 57.8341 31.7011 58.0133C31.7779 58.2182 31.906 58.3462 32.1108 58.423L33.5445 58.9094C33.6213 58.935 33.7237 58.9606 33.8005 58.9606C34.0565 58.9606 34.3126 58.8326 34.4662 58.6022C39.1514 51.7408 45.4751 46.0059 52.7717 42.0632C60.2988 37.9924 68.8499 35.8162 77.4523 35.8162C87.8724 35.8162 97.9084 38.8885 106.485 44.7002C114.857 50.3583 121.386 58.2694 125.303 67.563C125.431 67.8446 125.687 68.0238 125.994 68.0238H127.709C127.914 68.0238 128.093 67.9214 128.196 67.7678C128.324 67.563 128.324 67.3581 128.247 67.1789Z" fill="url(#paint0_radial_6_10338)"/>
</g>
<defs>
<radialGradient id="paint0_radial_6_10338" cx="0" cy="0" r="1" gradientUnits="userSpaceOnUse" gradientTransform="translate(126.589 67.9514) scale(92.1795 92.1795)">
<stop stop-color="#01147B"/>
<stop offset="0.0254902" stop-color="#011098"/>
<stop offset="0.0643085" stop-color="#010ABD"/>
<stop offset="0.1032" stop-color="#0006DA"/>
<stop offset="0.1416" stop-color="#0003EE"/>
<stop offset="0.1794" stop-color="#0001FB"/>
<stop offset="0.2159" stop-color="#0000FF"/>
<stop offset="1" stop-color="#00FFFF" stop-opacity="0"/>
</radialGradient>
<clipPath id="clip0_6_10338">
<rect width="148" height="148" fill="white"/>
</clipPath>
</defs>
</svg>
