<svg width="148" height="148" viewBox="0 0 148 148" fill="none" xmlns="http://www.w3.org/2000/svg" preserveAspectRatio="xMinYMin">
<g clip-path="url(#clip0_6_10327)">
<circle cx="74" cy="74" r="74" fill="white"/>
<path d="M69.1261 50.4581C78.9792 48.2755 88.8324 52.2769 94.3063 59.9161L50.7579 69.7379C52.2176 60.4011 59.2729 52.6407 69.1261 50.4581ZM94.5496 86.4713C91.1436 91.4428 85.9129 94.9592 79.9524 96.2931C70.0992 98.4757 60.1244 94.4742 54.6505 86.7138L98.3206 76.892L105.376 75.3157L119 72.2843C118.878 69.3741 118.513 66.4639 117.905 63.675C112.431 40.2725 88.4674 25.6005 64.5036 31.057C40.5398 36.5136 25.5776 59.7948 31.1732 83.3186C36.7689 106.842 60.611 121.393 84.5748 115.937C98.6855 112.784 109.633 103.326 115.229 91.3215L94.5496 86.4713Z" fill="#F05537"/>
</g>
<defs>
<clipPath id="clip0_6_10327">
<rect width="148" height="148" fill="white"/>
</clipPath>
</defs>
</svg>
