<svg width="148" height="148" viewBox="0 0 148 148" fill="none" xmlns="http://www.w3.org/2000/svg" preserveAspectRatio="xMinYMin">
<g clip-path="url(#clip0_6_10309)">
<circle cx="74" cy="74" r="74" fill="white"/>
<path fill-rule="evenodd" clip-rule="evenodd" d="M73.6488 13.8159C59.5008 13.8112 45.8129 18.8426 35.036 28.0092C24.2591 37.1757 17.0969 49.879 14.8316 63.8445C12.5663 77.8101 15.3459 92.126 22.6727 104.229C29.9996 116.332 41.3952 125.432 54.8193 129.9C57.7784 130.452 58.8831 128.608 58.8831 127.03C58.8831 125.609 58.8338 120.924 58.8042 115.943C42.2335 119.543 38.7418 108.92 38.7418 108.92C36.0293 102.016 32.1233 100.201 32.1233 100.201C26.7181 96.502 32.5277 96.5809 32.5277 96.5809C38.5149 97.005 41.6614 102.716 41.6614 102.716C46.9778 111.82 55.5986 109.196 58.9916 107.648C59.5341 103.801 61.0728 101.177 62.7792 99.6879C49.5917 98.1985 35.6348 93.0892 35.6348 70.2649C35.5462 64.3367 37.7473 58.6027 41.7797 54.2564C41.1583 52.7572 39.1166 46.701 42.3518 38.4748C42.3518 38.4748 47.3526 36.8769 58.7352 44.5803C68.5017 41.9105 78.8058 41.9105 88.5724 44.5803C99.8957 36.9163 104.936 38.4748 104.936 38.4748C108.171 46.6812 106.139 52.7374 105.518 54.2564C109.539 58.6003 111.733 64.3263 111.643 70.2452C111.643 93.1286 97.7159 98.159 84.4494 99.6386C86.5799 101.483 88.4836 105.113 88.4836 110.666C88.4836 118.636 88.4244 125.057 88.4244 127.01C88.4244 128.598 89.4897 130.452 92.5079 129.87C105.913 125.386 117.286 116.28 124.594 104.182C131.903 92.083 134.671 77.7795 132.404 63.8276C130.137 49.8756 122.982 37.1846 112.218 28.0227C101.455 18.8608 87.7838 13.8252 73.6488 13.8159V13.8159Z" fill="#181616"/>
<path d="M36.6405 99.3328C36.5123 99.6287 36.0487 99.7175 35.6541 99.5202C35.2596 99.323 34.9735 98.9186 35.1116 98.6226C35.2497 98.3267 35.7133 98.238 36.098 98.4352C36.4827 98.6325 36.7786 99.0369 36.6306 99.3328H36.6405ZM39.0571 102.026C38.771 102.292 38.2187 102.164 37.834 101.749C37.6542 101.604 37.5367 101.395 37.5055 101.166C37.4744 100.937 37.5319 100.705 37.6663 100.516C37.9622 100.25 38.4948 100.378 38.8894 100.793C39.2839 101.207 39.353 101.779 39.0571 102.026ZM41.4046 105.458C41.0396 105.715 40.4182 105.458 40.073 104.945C39.7278 104.432 39.708 103.781 40.073 103.525C40.4379 103.268 41.0594 103.525 41.4046 104.028C41.7498 104.531 41.7695 105.202 41.4046 105.458V105.458ZM44.6595 108.772C44.5396 108.859 44.4035 108.921 44.2592 108.955C44.115 108.988 43.9655 108.993 43.8195 108.968C43.6735 108.943 43.5339 108.89 43.4088 108.81C43.2838 108.731 43.1758 108.627 43.0912 108.506C42.5685 108.023 42.4205 107.342 42.7559 106.987C43.0912 106.632 43.7422 106.721 44.2946 107.214C44.8469 107.707 44.9653 108.378 44.6201 108.733L44.6595 108.772ZM49.0587 110.696C48.9107 111.159 48.2499 111.376 47.5693 111.179C46.8887 110.982 46.4547 110.429 46.5829 109.956C46.7112 109.482 47.3917 109.265 48.0723 109.473C48.7529 109.68 49.1869 110.222 49.0587 110.696ZM53.9313 111.051C53.9313 111.544 53.3789 111.948 52.6687 111.958C51.9586 111.968 51.3865 111.583 51.3766 111.09C51.3667 110.597 51.929 110.193 52.649 110.183C53.369 110.173 53.9313 110.567 53.9313 111.051V111.051ZM58.4685 110.281C58.5573 110.765 58.0641 111.268 57.3638 111.386C56.6635 111.504 56.0322 111.218 55.9434 110.735C55.8547 110.252 56.3577 109.749 57.0481 109.63C57.7386 109.512 58.3797 109.798 58.4685 110.281Z" fill="#181616"/>
</g>
<defs>
<clipPath id="clip0_6_10309">
<rect width="148" height="148" fill="white"/>
</clipPath>
</defs>
</svg>
