<svg width="148" height="148" viewBox="0 0 148 148" fill="none" xmlns="http://www.w3.org/2000/svg" preserveAspectRatio="xMinYMin">
<g clip-path="url(#clip0_6_10357)">
<circle cx="74" cy="74" r="74" fill="white"/>
<path d="M36.426 100.322C34.2655 100.327 32.1426 99.7579 30.274 98.6736C28.4053 97.5893 26.858 96.0283 25.7901 94.1503C24.7386 92.2855 24.2142 90.1697 24.273 88.0297C24.3319 85.8896 24.9718 83.8059 26.1243 82.0017L48.027 47.6069C49.148 45.7584 50.7396 44.2405 52.6392 43.2084C54.5388 42.1763 56.6783 41.6668 58.8392 41.7321C60.9984 41.7839 63.1052 42.4084 64.9438 43.5417C66.7824 44.6751 68.2869 46.2766 69.3033 48.1823C71.3451 52.0431 71.0899 56.6882 68.6444 60.3124L46.7555 94.7071C45.6455 96.4368 44.1168 97.8583 42.3111 98.8399C40.5054 99.8214 38.4812 100.331 36.426 100.322V100.322Z" fill="#F62B54"/>
<path d="M73.9943 100.322C69.5766 100.322 65.5116 97.96 63.377 94.1642C62.3278 92.3044 61.8046 90.1942 61.8635 88.0597C61.9223 85.9253 62.5611 83.8471 63.7111 82.048L85.5721 47.7321C86.6767 45.8576 88.2626 44.3128 90.1654 43.2577C92.0682 42.2027 94.2186 41.6759 96.3936 41.7321C100.848 41.8295 104.886 44.3214 106.927 48.2194C108.955 52.1173 108.658 56.7902 106.138 60.4051L84.2821 94.721C83.1755 96.4433 81.653 97.8593 79.855 98.8381C78.057 99.817 76.0415 100.327 73.9943 100.322V100.322Z" fill="#FFCC00"/>
<path d="M110.724 100.61C116.951 100.61 122 95.6673 122 89.5703C122 83.4733 116.951 78.5308 110.724 78.5308C104.496 78.5308 99.4475 83.4733 99.4475 89.5703C99.4475 95.6673 104.496 100.61 110.724 100.61Z" fill="#00CA72"/>
</g>
<defs>
<clipPath id="clip0_6_10357">
<rect width="148" height="148" fill="white"/>
</clipPath>
</defs>
</svg>
