<svg width="148" height="148" viewBox="0 0 148 148" fill="none" xmlns="http://www.w3.org/2000/svg" preserveAspectRatio="xMinYMin">
<g clip-path="url(#clip0_6_10302)">
<path d="M73.9499 148C114.847 148 148 114.847 148 73.9499C148 33.0532 114.847 -0.100098 73.9499 -0.100098C33.0532 -0.100098 -0.100098 33.0532 -0.100098 73.9499C-0.100098 114.847 33.0532 148 73.9499 148Z" fill="white"/>
<path d="M123.335 73.9502C123.114 67.9867 118.107 63.3298 112.125 63.5322C109.474 63.6244 106.953 64.7104 105.04 66.5321C96.6093 60.7891 86.7064 57.6411 76.527 57.4206L81.3303 34.3203L97.1787 37.6526C97.6197 41.7204 101.265 44.6659 105.332 44.2233C109.4 43.7823 112.346 40.1374 111.903 36.0696C111.46 32.0017 107.817 29.0562 103.749 29.4988C101.411 29.7375 99.313 31.1 98.1545 33.1257L80.0057 29.4988C78.7731 29.2224 77.539 29.9958 77.2625 31.2481C77.2625 31.2662 77.2625 31.2662 77.2625 31.2843L71.796 56.9796C61.4882 57.1458 51.4569 60.3119 42.9165 66.0911C38.5722 62.0052 31.7251 62.2076 27.6391 66.5699C23.5532 70.9142 23.7556 77.7614 28.118 81.8473C28.9655 82.6388 29.9396 83.32 31.0257 83.7989C30.9517 84.885 30.9517 85.971 31.0257 87.0571C31.0257 103.641 50.3528 117.133 74.1886 117.133C98.0245 117.133 117.352 103.659 117.352 87.0571C117.426 85.971 117.426 84.885 117.352 83.7989C121.071 81.9394 123.409 78.1102 123.335 73.9502ZM49.2848 81.3684C49.2848 77.2825 52.617 73.9502 56.703 73.9502C60.7889 73.9502 64.1211 77.2825 64.1211 81.3684C64.1211 85.4543 60.7889 88.7866 56.703 88.7866C52.5989 88.7487 49.2848 85.4543 49.2848 81.3684ZM92.3013 102.02V101.726C87.0371 105.683 80.5948 107.707 74.0043 107.432C67.4139 107.709 60.9732 105.683 55.7074 101.726C55.008 100.878 55.1364 99.6094 55.9838 98.91C56.7194 98.3028 57.7693 98.3028 58.5246 98.91C62.9791 102.168 68.4094 103.825 73.9303 103.567C79.4528 103.862 84.9012 102.278 89.41 99.0581C90.2196 98.2666 91.5443 98.2847 92.3375 99.0943C93.129 99.9039 93.1109 101.229 92.3013 102.02ZM91.2892 89.3197C91.1609 89.3197 91.0506 89.3197 90.9206 89.3197L90.9766 89.0433C86.8907 89.0433 83.5584 85.711 83.5584 81.6251C83.5584 77.5392 86.8907 74.2069 90.9766 74.2069C95.0625 74.2069 98.3948 77.5392 98.3948 81.6251C98.5593 85.7127 95.3752 89.1535 91.2892 89.3197Z" fill="#FF4500"/>
</g>
<defs>
<clipPath id="clip0_6_10302">
<rect width="148" height="148" fill="white"/>
</clipPath>
</defs>
</svg>
