<svg width="148" height="148" viewBox="0 0 148 148" fill="none" xmlns="http://www.w3.org/2000/svg" preserveAspectRatio="xMinYMin">
<g clip-path="url(#clip0_6_10314)">
<circle cx="74" cy="74" r="74" fill="white"/>
<path d="M91.9118 98.1896L91.8441 96.2396L98.5851 96.1599L98.6469 94.0348L91.7645 93.9492L91.6958 91.9751L100.763 91.7628L100.838 89.4313H88.6049L88.2402 100.745H101.064L100.974 98.4093L91.9118 98.1896ZM30.9163 94.0298L30.7723 96.1465L34.1744 96.2602L34.1313 98.409L27.0104 98.2002L27.3206 91.9936L37.1115 91.767L36.97 89.4312H24.3233L23.1892 100.745H37.5989L37.2254 93.9199L30.9163 94.0298ZM120.171 94.9051L110.825 93.3252L110.866 92.1007L119.807 91.7672L119.581 89.4313H108.088L107.5 95.2955L117.002 96.9476L117.045 98.0252L107.159 98.4092L106.917 100.745H120.753L120.171 94.9051Z" fill="#D22A36"/>
<path d="M82.0349 100.746L80.9008 89.4319H77.6452L72.968 94.8251L68.2903 89.4319H65.0347L63.9006 100.746H67.7253L68.0915 93.406L72.9681 98.4097L77.8437 93.406L78.2109 100.746H82.0349Z" fill="#D22A36"/>
<path d="M65.9595 48H58.3046L57.6079 82.9881H66.8566L65.9595 48Z" fill="#D22A36"/>
<path d="M89.6789 75.3771L81.2324 75.6497L80.9524 55.0721L89.7864 55.3397L89.6789 75.3771ZM97.0813 48.0156H73.2153L72.2861 82.9882H98.7755L97.0813 48.0156Z" fill="#D22A36"/>
<path d="M125.62 55.6571L124.768 48.0002H101.254L101.453 54.8208L108.974 55.0811L109.744 82.9883H119.012L116.239 55.3315L125.62 55.6571Z" fill="#D22A36"/>
<path d="M34.7158 55.1574L42.0921 54.9105L42.9328 61.8816L34.419 65.9031L34.7158 55.1574ZM43.3335 82.9887H53.3792L46.8322 67.2856L52.0566 64.4311L48.4872 48.0002H22.8441L22 55.5828L27.7365 55.3913L24.9702 82.9894H33.948L34.1909 74.192L40.6597 70.6582L43.3335 82.9887Z" fill="#D22A36"/>
<path d="M48.2177 95.6475L48.9955 91.9459L52.7302 91.7772L53.5105 95.4915L48.2177 95.6475ZM54.6154 100.747H58.4881L55.4238 89.4324H46.337L43.2732 100.747H47.1459L47.7456 97.8923L54.0324 97.9735L54.6154 100.747Z" fill="#D22A36"/>
</g>
<defs>
<clipPath id="clip0_6_10314">
<rect width="148" height="148" fill="white"/>
</clipPath>
</defs>
</svg>
