<svg width="148" height="148" viewBox="0 0 148 148" fill="none" xmlns="http://www.w3.org/2000/svg" preserveAspectRatio="xMinYMin">
<g clip-path="url(#clip0_6_10331)">
<circle cx="74" cy="74" r="74" fill="white"/>
<path d="M61.7915 28.6555C56.8028 28.6555 52.7593 32.7081 52.7593 37.7059C52.7581 38.8932 52.9908 40.0691 53.4441 41.1665C53.8972 42.2639 54.5623 43.2612 55.401 44.1017C56.2397 44.9421 57.2357 45.6091 58.3322 46.0646C59.4287 46.5199 60.6042 46.755 61.7915 46.7562H70.8252V37.7059C70.8272 35.3078 69.8766 33.0072 68.1825 31.31C66.4884 29.6127 64.1895 28.6579 61.7915 28.6555ZM61.7915 52.7898H37.7041C32.7154 52.7898 28.6719 56.8424 28.6719 61.8416C28.6719 66.8394 32.7154 70.8921 37.7041 70.8921H61.793C66.7801 70.8921 70.8252 66.8394 70.8252 61.8416C70.8252 56.8424 66.7801 52.7898 61.7915 52.7898Z" fill="#36C5F0"/>
<path d="M119 61.8416C119 56.8424 114.955 52.7898 109.966 52.7898C104.977 52.7898 100.934 56.8424 100.934 61.8416V70.8919H109.966C112.364 70.8896 114.663 69.9347 116.357 68.2376C118.051 66.5403 119.002 64.2397 119 61.8416ZM94.9123 61.8416V37.7059C94.9144 35.3078 93.9638 33.0072 92.2696 31.31C90.5755 29.6127 88.2767 28.6579 85.8786 28.6555C80.8899 28.6555 76.8464 32.7081 76.8464 37.7059V61.8401C76.8464 66.8408 80.8899 70.8935 85.8786 70.8935C88.2767 70.8911 90.5755 69.9363 92.2696 68.2391C93.9638 66.5418 94.9144 64.2412 94.9123 61.8432" fill="#2EB67D"/>
<path d="M85.8786 119.162C88.2767 119.16 90.5755 118.205 92.2697 116.508C93.9638 114.81 94.9144 112.51 94.9123 110.112C94.9144 107.714 93.9638 105.413 92.2697 103.716C90.5755 102.018 88.2767 101.064 85.8786 101.061H76.8464V110.112C76.8464 115.109 80.8899 119.162 85.8786 119.162ZM85.8786 95.0277H109.968C114.955 95.0277 119 90.9751 119 85.9759C119.002 83.5778 118.051 81.2772 116.357 79.5799C114.663 77.8827 112.364 76.9279 109.966 76.9255H85.8786C80.8899 76.9255 76.8464 80.9781 76.8464 85.9759C76.8452 87.1631 77.0779 88.339 77.5312 89.4365C77.9845 90.5339 78.6494 91.5313 79.4882 92.3716C80.3269 93.212 81.3229 93.879 82.4194 94.3345C83.5159 94.79 84.6913 95.025 85.8786 95.0262" fill="#ECB22E"/>
<path d="M28.6719 85.9759C28.6707 87.1631 28.9034 88.339 29.3566 89.4365C29.8099 90.5339 30.4749 91.5313 31.3136 92.3716C32.1523 93.212 33.1484 93.879 34.2448 94.3345C35.3413 94.79 36.5168 95.025 37.7041 95.0262C40.1021 95.0238 42.401 94.0689 44.0951 92.3718C45.7893 90.6745 46.7398 88.3739 46.7378 85.9759V76.9255H37.7041C32.7154 76.9255 28.6719 80.9781 28.6719 85.9759ZM52.7593 85.9759V110.11C52.7593 115.109 56.8028 119.162 61.7915 119.162C64.1895 119.16 66.4884 118.205 68.1825 116.508C69.8766 114.81 70.8272 112.51 70.8252 110.112V85.9759C70.8264 84.7884 70.5937 83.6124 70.1403 82.5149C69.6869 81.4173 69.0219 80.4199 68.183 79.5795C67.3441 78.739 66.3479 78.0722 65.2512 77.6168C64.1545 77.1613 62.979 76.9265 61.7915 76.9255C56.8028 76.9255 52.7593 80.9781 52.7593 85.9759Z" fill="#E01E5A"/>
</g>
<defs>
<clipPath id="clip0_6_10331">
<rect width="148" height="148" fill="white"/>
</clipPath>
</defs>
</svg>
