<svg width="148" height="148" viewBox="0 0 148 148" fill="none" xmlns="http://www.w3.org/2000/svg" preserveAspectRatio="xMinYMin">
<g clip-path="url(#clip0_6_10324)">
<circle cx="74" cy="74" r="74" fill="white"/>
<path fill-rule="evenodd" clip-rule="evenodd" d="M10.5688 64.253C11.9843 63.6176 13.5001 64.2328 14.1134 65.5907L18.9812 77.1844L22.776 68.1487C24.0606 65.1814 26.1662 64.0035 28.8176 64.0035C30.532 64.0035 32.6021 64.9599 33.8184 66.5514C33.8184 66.5514 36.4368 64.0035 39.4286 64.0035C42.2637 64.0035 43.9389 64.9599 45.1541 66.5514C45.1541 66.5514 47.441 64 51.0919 64C54.7473 64 57.785 66.6732 57.785 70.4888V80.872C57.785 82.5906 56.801 84 54.988 84C53.1743 84 52.2282 82.5906 52.2282 80.872V71.7491C52.2282 70.0305 51.0919 68.8476 49.3933 68.8476C47.6912 68.8476 46.4482 69.9894 46.4482 71.7491V80.8718C46.4482 82.5904 45.4625 83.9997 43.6488 83.9997C41.8365 83.9997 40.89 82.5904 40.89 80.8718V71.7491C40.89 70.0305 39.7576 68.8476 38.0565 68.8476C36.3554 68.8476 35.1072 69.9894 35.1072 71.7491V80.8718C35.1072 82.5904 34.1267 83.9997 32.3127 83.9997C30.4975 83.9997 29.554 82.5904 29.554 80.8718V69.7233C29.554 69.2403 29.1789 68.8809 28.733 68.8781C28.2054 68.8746 28.0389 69.2428 27.9864 69.3636C27.9342 69.4827 22.751 80.8834 22.751 80.8834C21.8172 82.833 20.9563 84 18.9812 84C17.1328 84 16.148 82.9281 15.2135 80.8834L9.27044 67.8349C8.63024 66.4763 9.15183 64.8891 10.5688 64.253V64.253ZM116.771 74.1969C116.771 80.0059 120.899 83.967 125.955 83.967C129.085 83.967 131.151 82.8373 132.893 81.132C133.182 80.8808 133.324 80.5527 133.324 80.2273C133.324 79.5711 132.788 79.026 132.114 79.026C131.792 79.026 131.543 79.1711 131.329 79.3506C129.974 80.6218 128.307 81.53 126.028 81.53C122.749 81.53 119.939 79.2429 119.551 75.1787H132.858C133.027 75.178 133.195 75.1435 133.351 75.0771C133.508 75.0108 133.65 74.9139 133.769 74.792C133.888 74.6702 133.982 74.5258 134.046 74.3671C134.11 74.2084 134.142 74.0385 134.141 73.8672C134.141 68.8895 131.041 64.3536 125.599 64.3536C120.509 64.3536 116.771 68.7119 116.771 74.1219V74.1969V74.1969ZM125.525 66.7161C129.191 66.7161 131.114 69.691 131.4 73.1078H119.55C119.901 69.438 122.321 66.7161 125.525 66.7161V66.7161ZM106.336 65.7991C106.336 65.0265 106.952 64.3667 107.714 64.3667C108.517 64.3667 109.132 64.9905 109.132 65.7991V69.0476C110.511 65.8926 113.569 64.4035 115.596 64.4035C116.436 64.4035 116.98 65.0265 116.98 65.8331C116.98 66.6049 116.475 67.1527 115.742 67.2629C112.108 67.703 109.133 70.4565 109.133 75.925V82.3586C109.133 83.1296 108.552 83.7884 107.754 83.7884C106.954 83.7884 106.337 83.1619 106.337 82.3586L106.336 65.7991V65.7991ZM64.8461 82.5361L59.1543 66.5262L59.1296 66.4513C59.0591 66.2414 58.9733 65.9847 58.9733 65.7562C58.9733 65.0623 59.5538 64.4035 60.3852 64.4035C61.1111 64.4035 61.584 64.8795 61.8005 65.5733L66.517 79.3688L71.2671 65.5347C71.4838 64.8785 71.9195 64.4025 72.6411 64.4025H72.7882C73.5514 64.4025 74.0226 64.8785 74.2391 65.535L78.9504 79.3691L83.7411 65.5004C83.9222 64.9115 84.3182 64.4023 85.082 64.4023C85.879 64.4023 86.4602 65.0217 86.4602 65.7191C86.4602 65.9378 86.3796 66.1829 86.3119 66.3887L86.3114 66.3903L86.3102 66.3935L86.3089 66.3978C86.2984 66.4293 86.2884 66.4599 86.2792 66.4891L80.5512 82.5364C80.2583 83.3745 79.6805 83.8146 79.0266 83.8146H78.9182C78.1924 83.8146 77.6476 83.3745 77.3921 82.5364L72.7172 68.9313L68.0017 82.5364C67.7477 83.3745 67.2022 83.8146 66.4788 83.8146H66.4027C65.7158 83.8146 65.138 83.3745 64.8461 82.5364V82.5361ZM86.5097 78.087V78.0136C86.5097 74.0274 89.7698 71.9029 94.5124 71.9029C96.9039 71.9029 98.605 72.2318 100.274 72.7105V72.049C100.274 68.6496 98.204 66.8912 94.6951 66.8912C92.811 66.8912 91.7146 67.1333 90.3356 67.7537C90.1571 67.8271 89.9743 67.8647 89.8332 67.8647C89.1808 67.8647 88.5988 67.3144 88.5988 66.6574C88.5988 66.0737 88.851 65.7125 89.3611 65.484C91.2053 64.6757 92.5955 64.4071 94.9843 64.4071C97.6262 64.4071 99.6549 65.0999 101.029 66.4911C102.299 67.7711 102.951 69.6 102.951 72.0157V82.4524C102.951 83.2544 102.371 83.8419 101.606 83.8419C100.813 83.8419 100.275 83.2555 100.275 82.525V80.7204C98.9688 82.4433 96.7938 83.977 93.5049 83.977C90.0263 83.9745 86.5097 81.9646 86.5097 78.0868V78.087ZM100.31 76.6234V74.7933C98.9308 74.3918 97.0814 73.9885 94.8015 73.9885C91.2937 73.9885 89.3351 75.5268 89.3351 77.9022V77.9748C89.3351 80.3522 91.5056 81.7424 94.0437 81.7424C97.4824 81.7424 100.31 79.6198 100.31 76.6232V76.6234ZM134.367 66.7214V66.7055C134.367 65.4291 135.392 64.3536 136.681 64.3536C137.988 64.3536 139 65.4175 139 66.6959V66.7055C139 67.9865 137.977 69.0617 136.681 69.0617C135.374 69.0617 134.367 68.0014 134.367 66.7212V66.7214ZM138.555 66.7055V66.6995C138.555 65.6495 137.752 64.7884 136.681 64.7884C135.62 64.7884 134.805 65.6644 134.805 66.7055V66.7179C134.805 67.7651 135.611 68.6262 136.681 68.6262C137.739 68.6262 138.555 67.752 138.555 66.7055ZM136.044 65.5294C136.012 65.5291 135.979 65.5354 135.949 65.5479C135.919 65.5603 135.891 65.5787 135.868 65.602C135.845 65.6253 135.826 65.653 135.814 65.6836C135.801 65.7141 135.795 65.7468 135.795 65.7799H135.796V67.5656C135.796 67.7038 135.906 67.814 136.045 67.814C136.078 67.8144 136.11 67.8082 136.14 67.7958C136.17 67.7835 136.197 67.7652 136.22 67.742C136.243 67.7189 136.261 67.6913 136.273 67.661C136.285 67.6307 136.291 67.5983 136.29 67.5656V67.072H136.685L137.165 67.6864C137.223 67.758 137.298 67.815 137.408 67.815C137.526 67.815 137.642 67.724 137.642 67.5855C137.642 67.5088 137.61 67.4569 137.562 67.3941L137.221 66.9741C137.49 66.8596 137.669 66.6417 137.669 66.2846V66.2778C137.669 66.0677 137.599 65.8866 137.472 65.7615C137.333 65.6127 137.108 65.5294 136.817 65.5294H136.044V65.5294ZM137.163 66.31C137.163 66.5035 137.03 66.6304 136.79 66.6304V66.6294H136.288V65.9776H136.781C137.021 65.9776 137.163 66.0911 137.163 66.3022V66.3098V66.31Z" fill="black"/>
</g>
<defs>
<clipPath id="clip0_6_10324">
<rect width="148" height="148" fill="white"/>
</clipPath>
</defs>
</svg>
